M48
; DRILL file {KiCad 8.0.2} date 2024-10-27T19:27:53+0100
; FORMAT={-:-/ absolute / inch / decimal}
; #@! TF.CreationDate,2024-10-27T19:27:53+01:00
; #@! TF.GenerationSoftware,Kicad,Pcbnew,8.0.2
; #@! TF.FileFunction,Plated,1,2,PTH
FMAT,2
INCH
; #@! TA.AperFunction,Plated,PTH,ViaDrill
T1C0.0118
; #@! TA.AperFunction,Plated,PTH,ComponentDrill
T2C0.0157
; #@! TA.AperFunction,Plated,PTH,ViaDrill
T3C0.0197
; #@! TA.AperFunction,Plated,PTH,ViaDrill
T4C0.0236
; #@! TA.AperFunction,Plated,PTH,ComponentDrill
T5C0.0295
; #@! TA.AperFunction,Plated,PTH,ComponentDrill
T6C0.0300
; #@! TA.AperFunction,Plated,PTH,ViaDrill
T7C0.0315
; #@! TA.AperFunction,Plated,PTH,ComponentDrill
T8C0.0315
; #@! TA.AperFunction,Plated,PTH,ComponentDrill
T9C0.0394
%
G90
G05
T1
X1.1713Y-4.4193
X1.248Y-0.8819
X1.7717Y-3.8583
X1.7717Y-3.9173
X1.7717Y-3.9764
X2.2859Y-1.8819
X2.6693Y-2.3937
X2.8504Y-2.1358
X3.4528Y-2.3504
X3.4606Y-3.0157
X3.4961Y-2.3504
X3.5Y-3.0669
X3.5315Y-2.3346
X3.5472Y-3.0669
T2
X3.3628Y-2.5984
X3.3628Y-2.6772
X3.3628Y-2.7559
X3.4415Y-2.5984
X3.4415Y-2.6772
X3.4415Y-2.7559
X3.5203Y-2.5984
X3.5203Y-2.6772
X3.5203Y-2.7559
X3.599Y-2.5984
X3.599Y-2.6772
X3.599Y-2.7559
X3.6778Y-2.5984
X3.6778Y-2.6772
X3.6778Y-2.7559
T3
X3.2362Y-3.0197
X3.5807Y-2.3366
X3.9114Y-2.3799
T4
X3.7205Y-2.2953
X3.7402Y-3.0472
T5
X2.3957Y-0.8819
X2.3957Y-0.9606
X2.3957Y-1.0394
X2.5748Y-1.2913
X2.6535Y-1.2913
X2.6752Y-0.8819
X2.6752Y-0.9606
X2.6752Y-1.0394
X2.7323Y-1.2913
T6
X3.3661Y-2.3228
X3.3661Y-3.0298
X3.6417Y-2.3228
X3.6417Y-3.0298
T7
X2.7047Y-2.0787
T8
X2.3528Y-4.2087
X2.3528Y-4.5087
X2.4528Y-4.2087
X2.4528Y-4.5087
X2.5528Y-4.2087
X2.5528Y-4.5087
X2.6528Y-4.2087
X2.6528Y-4.5087
T9
X2.2831Y-2.4311
X2.2831Y-2.5311
X2.2831Y-2.6311
X2.2831Y-2.7311
X2.2831Y-2.8311
X2.2831Y-2.9311
X2.2831Y-3.0311
X2.2831Y-3.1311
X2.2831Y-3.2311
X2.2831Y-3.3311
X2.2831Y-3.4311
X2.2831Y-3.5311
X2.2831Y-3.6311
X2.2831Y-3.7311
X2.2831Y-3.8311
X2.3135Y-1.4641
X2.4079Y-2.1929
X2.4135Y-1.4641
X2.5079Y-2.1929
X2.5837Y-1.4646
X2.6079Y-2.1929
X2.6837Y-1.4646
X2.8831Y-2.4311
X2.8831Y-2.5311
X2.8831Y-2.6311
X2.8831Y-2.7311
X2.8831Y-2.8311
X2.8831Y-2.9311
X2.8831Y-3.0311
X2.8831Y-3.1311
X2.8831Y-3.2311
X2.8831Y-3.3311
X2.8831Y-3.4311
X2.8831Y-3.5311
X2.8831Y-3.6311
X2.8831Y-3.7311
X2.8831Y-3.8311
M30
