%TF.GenerationSoftware,KiCad,Pcbnew,8.0.2*%
%TF.CreationDate,2024-10-27T19:27:45+01:00*%
%TF.ProjectId,CalkaBot_PCB,43616c6b-6142-46f7-945f-5043422e6b69,rev?*%
%TF.SameCoordinates,Original*%
%TF.FileFunction,Soldermask,Top*%
%TF.FilePolarity,Negative*%
%FSLAX46Y46*%
G04 Gerber Fmt 4.6, Leading zero omitted, Abs format (unit mm)*
G04 Created by KiCad (PCBNEW 8.0.2) date 2024-10-27 19:27:45*
%MOMM*%
%LPD*%
G01*
G04 APERTURE LIST*
G04 Aperture macros list*
%AMRoundRect*
0 Rectangle with rounded corners*
0 $1 Rounding radius*
0 $2 $3 $4 $5 $6 $7 $8 $9 X,Y pos of 4 corners*
0 Add a 4 corners polygon primitive as box body*
4,1,4,$2,$3,$4,$5,$6,$7,$8,$9,$2,$3,0*
0 Add four circle primitives for the rounded corners*
1,1,$1+$1,$2,$3*
1,1,$1+$1,$4,$5*
1,1,$1+$1,$6,$7*
1,1,$1+$1,$8,$9*
0 Add four rect primitives between the rounded corners*
20,1,$1+$1,$2,$3,$4,$5,0*
20,1,$1+$1,$4,$5,$6,$7,0*
20,1,$1+$1,$6,$7,$8,$9,0*
20,1,$1+$1,$8,$9,$2,$3,0*%
G04 Aperture macros list end*
%ADD10RoundRect,0.250000X-0.450000X0.325000X-0.450000X-0.325000X0.450000X-0.325000X0.450000X0.325000X0*%
%ADD11RoundRect,0.250000X-0.350000X-0.450000X0.350000X-0.450000X0.350000X0.450000X-0.350000X0.450000X0*%
%ADD12RoundRect,0.102000X-0.350000X1.000000X-0.350000X-1.000000X0.350000X-1.000000X0.350000X1.000000X0*%
%ADD13C,0.700000*%
%ADD14RoundRect,0.102000X-1.525000X1.450000X-1.525000X-1.450000X1.525000X-1.450000X1.525000X1.450000X0*%
%ADD15RoundRect,0.102000X-4.800000X3.000000X-4.800000X-3.000000X4.800000X-3.000000X4.800000X3.000000X0*%
%ADD16RoundRect,0.250000X-0.450000X0.350000X-0.450000X-0.350000X0.450000X-0.350000X0.450000X0.350000X0*%
%ADD17RoundRect,0.250000X0.550000X-1.500000X0.550000X1.500000X-0.550000X1.500000X-0.550000X-1.500000X0*%
%ADD18RoundRect,0.375000X0.625000X0.375000X-0.625000X0.375000X-0.625000X-0.375000X0.625000X-0.375000X0*%
%ADD19RoundRect,0.500000X0.500000X1.400000X-0.500000X1.400000X-0.500000X-1.400000X0.500000X-1.400000X0*%
%ADD20O,1.600000X1.600000*%
%ADD21R,1.600000X1.600000*%
%ADD22C,1.524000*%
%ADD23RoundRect,0.250000X-0.337500X-0.475000X0.337500X-0.475000X0.337500X0.475000X-0.337500X0.475000X0*%
%ADD24R,1.700000X1.700000*%
%ADD25O,1.700000X1.700000*%
%ADD26RoundRect,0.250000X0.475000X-0.337500X0.475000X0.337500X-0.475000X0.337500X-0.475000X-0.337500X0*%
%ADD27RoundRect,0.150000X-0.200000X0.150000X-0.200000X-0.150000X0.200000X-0.150000X0.200000X0.150000X0*%
%ADD28RoundRect,0.250000X-0.475000X0.337500X-0.475000X-0.337500X0.475000X-0.337500X0.475000X0.337500X0*%
%ADD29RoundRect,0.250000X-0.625000X0.350000X-0.625000X-0.350000X0.625000X-0.350000X0.625000X0.350000X0*%
%ADD30O,1.750000X1.200000*%
%ADD31RoundRect,0.102000X-1.500000X-0.800000X1.500000X-0.800000X1.500000X0.800000X-1.500000X0.800000X0*%
%ADD32RoundRect,0.102000X-3.350000X-3.350000X3.350000X-3.350000X3.350000X3.350000X-3.350000X3.350000X0*%
%ADD33RoundRect,0.250000X0.350000X0.625000X-0.350000X0.625000X-0.350000X-0.625000X0.350000X-0.625000X0*%
%ADD34O,1.200000X1.750000*%
%ADD35RoundRect,0.150000X0.150000X0.200000X-0.150000X0.200000X-0.150000X-0.200000X0.150000X-0.200000X0*%
%ADD36RoundRect,0.250000X0.450000X-0.350000X0.450000X0.350000X-0.450000X0.350000X-0.450000X-0.350000X0*%
G04 APERTURE END LIST*
D10*
%TO.C,D4*%
X80600000Y-79975000D03*
X80600000Y-82025000D03*
%TD*%
D11*
%TO.C,R9*%
X76400000Y-82000000D03*
X78400000Y-82000000D03*
%TD*%
D12*
%TO.C,CR1*%
X95130000Y-61300000D03*
X93860000Y-61300000D03*
X92590000Y-61300000D03*
X91320000Y-61300000D03*
X90050000Y-61300000D03*
X88780000Y-61300000D03*
X87510000Y-61300000D03*
X86240000Y-61300000D03*
X84970000Y-61300000D03*
X83700000Y-61300000D03*
X83700000Y-74700000D03*
X84970000Y-74700000D03*
X86240000Y-74700000D03*
X87510000Y-74700000D03*
X88780000Y-74700000D03*
X90050000Y-74700000D03*
X91320000Y-74700000D03*
X92590000Y-74700000D03*
X93860000Y-74700000D03*
X95130000Y-74700000D03*
D13*
X93415000Y-66000000D03*
X91415000Y-66000000D03*
X89415000Y-66000000D03*
X87415000Y-66000000D03*
X85415000Y-66000000D03*
D14*
X95715000Y-68000000D03*
D13*
X93415000Y-68000000D03*
X91415000Y-68000000D03*
X89415000Y-68000000D03*
D15*
X89415000Y-68000000D03*
D13*
X87415000Y-68000000D03*
X85415000Y-68000000D03*
D14*
X83115000Y-68000000D03*
D13*
X93415000Y-70000000D03*
X91415000Y-70000000D03*
X89415000Y-70000000D03*
X87415000Y-70000000D03*
X85415000Y-70000000D03*
%TD*%
D16*
%TO.C,R8*%
X73700000Y-56200000D03*
X73700000Y-54200000D03*
%TD*%
D17*
%TO.C,C8*%
X78400000Y-60500000D03*
X78400000Y-55100000D03*
%TD*%
D18*
%TO.C,Q3*%
X80950000Y-49300000D03*
D19*
X74650000Y-49300000D03*
D18*
X80950000Y-51600000D03*
X80950000Y-47000000D03*
%TD*%
D20*
%TO.C,A1*%
X73230000Y-61750000D03*
X73230000Y-64290000D03*
X73230000Y-66830000D03*
X73230000Y-69370000D03*
X73230000Y-71910000D03*
X73230000Y-74450000D03*
X73230000Y-76990000D03*
X73230000Y-79530000D03*
X73230000Y-82070000D03*
X73230000Y-84610000D03*
X73230000Y-87150000D03*
X73230000Y-89690000D03*
X73230000Y-92230000D03*
X73230000Y-94770000D03*
X73230000Y-97310000D03*
X57990000Y-97310000D03*
X57990000Y-94770000D03*
X57990000Y-92230000D03*
X57990000Y-89690000D03*
X57990000Y-87150000D03*
X57990000Y-84610000D03*
X57990000Y-82070000D03*
X57990000Y-79530000D03*
X57990000Y-76990000D03*
X57990000Y-74450000D03*
X57990000Y-71910000D03*
X57990000Y-69370000D03*
X57990000Y-66830000D03*
X57990000Y-64290000D03*
D21*
X57990000Y-61750000D03*
%TD*%
D22*
%TO.C,M1*%
X85500000Y-59000000D03*
X92500000Y-59000000D03*
%TD*%
D23*
%TO.C,C1*%
X59762500Y-34200000D03*
X61837500Y-34200000D03*
%TD*%
D21*
%TO.C,SW1*%
X59760000Y-114520000D03*
D20*
X62300000Y-114520000D03*
X64840000Y-114520000D03*
X67380000Y-114520000D03*
X67380000Y-106900000D03*
X64840000Y-106900000D03*
X62300000Y-106900000D03*
X59760000Y-106900000D03*
%TD*%
D24*
%TO.C,J4*%
X58762500Y-37187500D03*
D25*
X61302500Y-37187500D03*
%TD*%
D24*
%TO.C,J6*%
X66240000Y-55700000D03*
D25*
X63700000Y-55700000D03*
X61160000Y-55700000D03*
%TD*%
D26*
%TO.C,C3*%
X100650000Y-78987500D03*
X100650000Y-76912500D03*
%TD*%
D27*
%TO.C,D1*%
X98500000Y-80950000D03*
X98500000Y-79550000D03*
%TD*%
D28*
%TO.C,C4*%
X96400000Y-81387500D03*
X96400000Y-79312500D03*
%TD*%
D29*
%TO.C,J3*%
X67950000Y-22400000D03*
D30*
X67950000Y-24400000D03*
X67950000Y-26400000D03*
%TD*%
D31*
%TO.C,U1*%
X58062500Y-41812500D03*
D32*
X64712500Y-44112500D03*
D31*
X58062500Y-46412500D03*
%TD*%
D23*
%TO.C,C2*%
X59162500Y-48900000D03*
X61237500Y-48900000D03*
%TD*%
D33*
%TO.C,J1*%
X69400000Y-32800000D03*
D34*
X67400000Y-32800000D03*
X65400000Y-32800000D03*
%TD*%
D35*
%TO.C,D2*%
X98700000Y-83350000D03*
X97300000Y-83350000D03*
%TD*%
D26*
%TO.C,C9*%
X64862500Y-51350000D03*
X64862500Y-49275000D03*
%TD*%
D24*
%TO.C,J5*%
X65625000Y-37200000D03*
D25*
X68165000Y-37200000D03*
%TD*%
D36*
%TO.C,R2*%
X100650000Y-82850000D03*
X100650000Y-80850000D03*
%TD*%
D29*
%TO.C,J2*%
X60850000Y-22400000D03*
D30*
X60850000Y-24400000D03*
X60850000Y-26400000D03*
%TD*%
D23*
%TO.C,C7*%
X96362500Y-58500000D03*
X98437500Y-58500000D03*
%TD*%
D22*
%TO.C,M2*%
X85500000Y-76956000D03*
X92500000Y-76956000D03*
%TD*%
M02*
