%TF.GenerationSoftware,KiCad,Pcbnew,8.0.2*%
%TF.CreationDate,2024-10-27T19:27:45+01:00*%
%TF.ProjectId,CalkaBot_PCB,43616c6b-6142-46f7-945f-5043422e6b69,rev?*%
%TF.SameCoordinates,Original*%
%TF.FileFunction,Copper,L2,Bot*%
%TF.FilePolarity,Positive*%
%FSLAX46Y46*%
G04 Gerber Fmt 4.6, Leading zero omitted, Abs format (unit mm)*
G04 Created by KiCad (PCBNEW 8.0.2) date 2024-10-27 19:27:45*
%MOMM*%
%LPD*%
G01*
G04 APERTURE LIST*
G04 Aperture macros list*
%AMRoundRect*
0 Rectangle with rounded corners*
0 $1 Rounding radius*
0 $2 $3 $4 $5 $6 $7 $8 $9 X,Y pos of 4 corners*
0 Add a 4 corners polygon primitive as box body*
4,1,4,$2,$3,$4,$5,$6,$7,$8,$9,$2,$3,0*
0 Add four circle primitives for the rounded corners*
1,1,$1+$1,$2,$3*
1,1,$1+$1,$4,$5*
1,1,$1+$1,$6,$7*
1,1,$1+$1,$8,$9*
0 Add four rect primitives between the rounded corners*
20,1,$1+$1,$2,$3,$4,$5,0*
20,1,$1+$1,$4,$5,$6,$7,0*
20,1,$1+$1,$6,$7,$8,$9,0*
20,1,$1+$1,$8,$9,$2,$3,0*%
G04 Aperture macros list end*
%TA.AperFunction,HeatsinkPad*%
%ADD10C,0.700000*%
%TD*%
%TA.AperFunction,SMDPad,CuDef*%
%ADD11R,1.219200X0.558800*%
%TD*%
%TA.AperFunction,SMDPad,CuDef*%
%ADD12RoundRect,0.250000X-0.350000X-0.450000X0.350000X-0.450000X0.350000X0.450000X-0.350000X0.450000X0*%
%TD*%
%TA.AperFunction,SMDPad,CuDef*%
%ADD13RoundRect,0.250000X0.450000X-0.350000X0.450000X0.350000X-0.450000X0.350000X-0.450000X-0.350000X0*%
%TD*%
%TA.AperFunction,SMDPad,CuDef*%
%ADD14RoundRect,0.250000X0.350000X0.450000X-0.350000X0.450000X-0.350000X-0.450000X0.350000X-0.450000X0*%
%TD*%
%TA.AperFunction,ComponentPad*%
%ADD15O,1.600000X1.600000*%
%TD*%
%TA.AperFunction,ComponentPad*%
%ADD16R,1.600000X1.600000*%
%TD*%
%TA.AperFunction,ComponentPad*%
%ADD17C,1.524000*%
%TD*%
%TA.AperFunction,ComponentPad*%
%ADD18R,1.700000X1.700000*%
%TD*%
%TA.AperFunction,ComponentPad*%
%ADD19O,1.700000X1.700000*%
%TD*%
%TA.AperFunction,ComponentPad*%
%ADD20RoundRect,0.250000X-0.625000X0.350000X-0.625000X-0.350000X0.625000X-0.350000X0.625000X0.350000X0*%
%TD*%
%TA.AperFunction,ComponentPad*%
%ADD21O,1.750000X1.200000*%
%TD*%
%TA.AperFunction,ComponentPad*%
%ADD22RoundRect,0.250000X0.350000X0.625000X-0.350000X0.625000X-0.350000X-0.625000X0.350000X-0.625000X0*%
%TD*%
%TA.AperFunction,ComponentPad*%
%ADD23O,1.200000X1.750000*%
%TD*%
%TA.AperFunction,SMDPad,CuDef*%
%ADD24RoundRect,0.250000X-0.475000X0.337500X-0.475000X-0.337500X0.475000X-0.337500X0.475000X0.337500X0*%
%TD*%
%TA.AperFunction,SMDPad,CuDef*%
%ADD25RoundRect,0.250000X-0.337500X-0.475000X0.337500X-0.475000X0.337500X0.475000X-0.337500X0.475000X0*%
%TD*%
%TA.AperFunction,SMDPad,CuDef*%
%ADD26RoundRect,0.250000X0.337500X0.475000X-0.337500X0.475000X-0.337500X-0.475000X0.337500X-0.475000X0*%
%TD*%
%TA.AperFunction,SMDPad,CuDef*%
%ADD27RoundRect,0.250000X0.650000X-1.500000X0.650000X1.500000X-0.650000X1.500000X-0.650000X-1.500000X0*%
%TD*%
%TA.AperFunction,ViaPad*%
%ADD28C,0.600000*%
%TD*%
%TA.AperFunction,ViaPad*%
%ADD29C,1.200000*%
%TD*%
%TA.AperFunction,ViaPad*%
%ADD30C,1.600000*%
%TD*%
%TA.AperFunction,Conductor*%
%ADD31C,0.500000*%
%TD*%
%TA.AperFunction,Conductor*%
%ADD32C,0.800000*%
%TD*%
%TA.AperFunction,Conductor*%
%ADD33C,0.200000*%
%TD*%
%TA.AperFunction,Conductor*%
%ADD34C,1.500000*%
%TD*%
%TA.AperFunction,Conductor*%
%ADD35C,1.000000*%
%TD*%
G04 APERTURE END LIST*
D10*
%TO.P,CR1,21,GND*%
%TO.N,GND*%
X93415000Y-66000000D03*
X91415000Y-66000000D03*
X89415000Y-66000000D03*
X87415000Y-66000000D03*
X85415000Y-66000000D03*
X93415000Y-68000000D03*
X91415000Y-68000000D03*
X89415000Y-68000000D03*
X87415000Y-68000000D03*
X85415000Y-68000000D03*
X93415000Y-70000000D03*
X91415000Y-70000000D03*
X89415000Y-70000000D03*
X87415000Y-70000000D03*
X85415000Y-70000000D03*
%TD*%
D11*
%TO.P,Q2,1,1*%
%TO.N,Net-(Q2-Pad1)*%
X21752100Y-21098300D03*
%TO.P,Q2,2,2*%
%TO.N,GND*%
X21752100Y-22901700D03*
%TO.P,Q2,3,3*%
%TO.N,FLOOR_SENSOR_RIGHT*%
X26247900Y-22901700D03*
%TO.P,Q2,4,4*%
%TO.N,GND*%
X26247900Y-21098300D03*
%TD*%
D12*
%TO.P,R5,2*%
%TO.N,+5V*%
X32750000Y-20300000D03*
%TO.P,R5,1*%
%TO.N,Net-(Q2-Pad1)*%
X30750000Y-20300000D03*
%TD*%
D13*
%TO.P,R4,1*%
%TO.N,Net-(Q1-Pad1)*%
X22000000Y-109700000D03*
%TO.P,R4,2*%
%TO.N,+5V*%
X22000000Y-107700000D03*
%TD*%
D14*
%TO.P,R3,2*%
%TO.N,FLOOR_SENSOR_RIGHT*%
X30750000Y-24850000D03*
%TO.P,R3,1*%
%TO.N,+5V*%
X32750000Y-24850000D03*
%TD*%
%TO.P,R1,1*%
%TO.N,+5V*%
X31000000Y-113800000D03*
%TO.P,R1,2*%
%TO.N,FLOOR_SENSOR_LEFT*%
X29000000Y-113800000D03*
%TD*%
D11*
%TO.P,Q1,1,1*%
%TO.N,Net-(Q1-Pad1)*%
X21752100Y-113098300D03*
%TO.P,Q1,2,2*%
%TO.N,GND*%
X21752100Y-114901700D03*
%TO.P,Q1,3,3*%
%TO.N,FLOOR_SENSOR_LEFT*%
X26247900Y-114901700D03*
%TO.P,Q1,4,4*%
%TO.N,GND*%
X26247900Y-113098300D03*
%TD*%
D15*
%TO.P,A1,30,VIN*%
%TO.N,unconnected-(A1-VIN-Pad30)*%
X73230000Y-61750000D03*
%TO.P,A1,29,GND*%
%TO.N,GND*%
X73230000Y-64290000D03*
%TO.P,A1,28,~{RESET}*%
%TO.N,unconnected-(A1-~{RESET}-Pad28)*%
X73230000Y-66830000D03*
%TO.P,A1,27,+5V*%
%TO.N,+5V*%
X73230000Y-69370000D03*
%TO.P,A1,26,A7*%
%TO.N,unconnected-(A1-A7-Pad26)*%
X73230000Y-71910000D03*
%TO.P,A1,25,A6*%
%TO.N,unconnected-(A1-A6-Pad25)*%
X73230000Y-74450000D03*
%TO.P,A1,24,A5*%
%TO.N,Net-(A1-A5)*%
X73230000Y-76990000D03*
%TO.P,A1,23,A4*%
%TO.N,Net-(A1-A4)*%
X73230000Y-79530000D03*
%TO.P,A1,22,A3*%
%TO.N,Net-(A1-A3)*%
X73230000Y-82070000D03*
%TO.P,A1,21,A2*%
%TO.N,Net-(A1-A2)*%
X73230000Y-84610000D03*
%TO.P,A1,20,A1*%
%TO.N,FLOOR_SENSOR_RIGHT*%
X73230000Y-87150000D03*
%TO.P,A1,19,A0*%
%TO.N,FLOOR_SENSOR_LEFT*%
X73230000Y-89690000D03*
%TO.P,A1,18,AREF*%
%TO.N,unconnected-(A1-AREF-Pad18)*%
X73230000Y-92230000D03*
%TO.P,A1,17,3V3*%
%TO.N,unconnected-(A1-3V3-Pad17)*%
X73230000Y-94770000D03*
%TO.P,A1,16,D13*%
%TO.N,M_ENA*%
X73230000Y-97310000D03*
%TO.P,A1,15,D12*%
%TO.N,M_ENB*%
X57990000Y-97310000D03*
%TO.P,A1,14,D11*%
%TO.N,M_IN2B*%
X57990000Y-94770000D03*
%TO.P,A1,13,D10*%
%TO.N,M_IN1B*%
X57990000Y-92230000D03*
%TO.P,A1,12,D9*%
%TO.N,M_IN1A*%
X57990000Y-89690000D03*
%TO.P,A1,11,D8*%
%TO.N,M_IN2A*%
X57990000Y-87150000D03*
%TO.P,A1,10,D7*%
%TO.N,Net-(A1-D7)*%
X57990000Y-84610000D03*
%TO.P,A1,9,D6*%
%TO.N,Net-(A1-D6)*%
X57990000Y-82070000D03*
%TO.P,A1,8,D5*%
%TO.N,Net-(A1-D5)*%
X57990000Y-79530000D03*
%TO.P,A1,7,D4*%
%TO.N,Net-(A1-D4)*%
X57990000Y-76990000D03*
%TO.P,A1,6,D3*%
%TO.N,M_FRONT*%
X57990000Y-74450000D03*
%TO.P,A1,5,D2*%
%TO.N,START_MODULE*%
X57990000Y-71910000D03*
%TO.P,A1,4,GND*%
%TO.N,GND*%
X57990000Y-69370000D03*
%TO.P,A1,3,~{RESET}*%
%TO.N,unconnected-(A1-~{RESET}-Pad3)*%
X57990000Y-66830000D03*
%TO.P,A1,2,D0/RX*%
%TO.N,unconnected-(A1-D0{slash}RX-Pad2)*%
X57990000Y-64290000D03*
D16*
%TO.P,A1,1,D1/TX*%
%TO.N,unconnected-(A1-D1{slash}TX-Pad1)*%
X57990000Y-61750000D03*
%TD*%
D17*
%TO.P,M1,2,-*%
%TO.N,Net-(CR1-OUT1A)*%
X85500000Y-59000000D03*
%TO.P,M1,1,+*%
%TO.N,Net-(CR1-OUT2A)*%
X92500000Y-59000000D03*
%TD*%
D16*
%TO.P,SW1,1*%
%TO.N,GND*%
X59760000Y-114520000D03*
D15*
%TO.P,SW1,2*%
X62300000Y-114520000D03*
%TO.P,SW1,3*%
X64840000Y-114520000D03*
%TO.P,SW1,4*%
X67380000Y-114520000D03*
%TO.P,SW1,5*%
%TO.N,Net-(A1-D7)*%
X67380000Y-106900000D03*
%TO.P,SW1,6*%
%TO.N,Net-(A1-D6)*%
X64840000Y-106900000D03*
%TO.P,SW1,7*%
%TO.N,Net-(A1-D5)*%
X62300000Y-106900000D03*
%TO.P,SW1,8*%
%TO.N,Net-(A1-D4)*%
X59760000Y-106900000D03*
%TD*%
D18*
%TO.P,J4,1,Pin_1*%
%TO.N,MotorPower*%
X58762500Y-37187500D03*
D19*
%TO.P,J4,2,Pin_2*%
%TO.N,GND*%
X61302500Y-37187500D03*
%TD*%
D18*
%TO.P,J6,1,Pin_1*%
%TO.N,+5V*%
X66240000Y-55700000D03*
D19*
%TO.P,J6,2,Pin_2*%
%TO.N,GND*%
X63700000Y-55700000D03*
%TO.P,J6,3,Pin_3*%
%TO.N,START_MODULE*%
X61160000Y-55700000D03*
%TD*%
D14*
%TO.P,R7,1*%
%TO.N,Net-(CR1-ENB)*%
X80100000Y-89200000D03*
%TO.P,R7,2*%
%TO.N,M_ENB*%
X78100000Y-89200000D03*
%TD*%
D20*
%TO.P,J3,1,Pin_1*%
%TO.N,+5V*%
X67950000Y-22400000D03*
D21*
%TO.P,J3,2,Pin_2*%
%TO.N,GND*%
X67950000Y-24400000D03*
%TO.P,J3,3,Pin_3*%
%TO.N,Net-(A1-A3)*%
X67950000Y-26400000D03*
%TD*%
D22*
%TO.P,J1,1,Pin_1*%
%TO.N,+5V*%
X69400000Y-32800000D03*
D23*
%TO.P,J1,2,Pin_2*%
%TO.N,GND*%
X67400000Y-32800000D03*
%TO.P,J1,3,Pin_3*%
%TO.N,Net-(A1-A4)*%
X65400000Y-32800000D03*
%TD*%
D14*
%TO.P,R6,1*%
%TO.N,Net-(CR1-ENA)*%
X77700000Y-60100000D03*
%TO.P,R6,2*%
%TO.N,M_ENA*%
X75700000Y-60100000D03*
%TD*%
D24*
%TO.P,C6,1*%
%TO.N,GND*%
X80200000Y-84662500D03*
%TO.P,C6,2*%
%TO.N,Net-(CR1-ENB)*%
X80200000Y-86737500D03*
%TD*%
D18*
%TO.P,J5,1,Pin_1*%
%TO.N,MotorPower*%
X65625000Y-37200000D03*
D19*
%TO.P,J5,2,Pin_2*%
%TO.N,Net-(D3-A)*%
X68165000Y-37200000D03*
%TD*%
D20*
%TO.P,J2,1,Pin_1*%
%TO.N,+5V*%
X60850000Y-22400000D03*
D21*
%TO.P,J2,2,Pin_2*%
%TO.N,GND*%
X60850000Y-24400000D03*
%TO.P,J2,3,Pin_3*%
%TO.N,Net-(A1-A2)*%
X60850000Y-26400000D03*
%TD*%
D25*
%TO.P,C5,2*%
%TO.N,Net-(CR1-ENA)*%
X77737500Y-57800000D03*
%TO.P,C5,1*%
%TO.N,GND*%
X75662500Y-57800000D03*
%TD*%
%TO.P,C11,1*%
%TO.N,Net-(CR1-OUT1A)*%
X88162500Y-57200000D03*
%TO.P,C11,2*%
%TO.N,Net-(CR1-OUT2A)*%
X90237500Y-57200000D03*
%TD*%
D26*
%TO.P,C12,1*%
%TO.N,Net-(CR1-OUT2B)*%
X90037500Y-82200000D03*
%TO.P,C12,2*%
%TO.N,Net-(CR1-OUT1B)*%
X87962500Y-82200000D03*
%TD*%
D27*
%TO.P,D3,1,K*%
%TO.N,MotorPower*%
X71300000Y-46400000D03*
%TO.P,D3,2,A*%
%TO.N,Net-(D3-A)*%
X71300000Y-41400000D03*
%TD*%
D17*
%TO.P,M2,1,+*%
%TO.N,Net-(CR1-OUT1B)*%
X85500000Y-76956000D03*
%TO.P,M2,2,-*%
%TO.N,Net-(CR1-OUT2B)*%
X92500000Y-76956000D03*
%TD*%
D28*
%TO.N,FLOOR_SENSOR_RIGHT*%
X31700000Y-22400000D03*
%TO.N,FLOOR_SENSOR_LEFT*%
X29750000Y-112250000D03*
D29*
%TO.N,Net-(CR1-VCP)*%
X99350000Y-60450000D03*
X90950000Y-59350000D03*
%TO.N,GND*%
X82200000Y-76700000D03*
D28*
%TO.N,M_IN1B*%
X87900000Y-76600000D03*
%TO.N,M_IN2B*%
X88900000Y-77900000D03*
%TO.N,Net-(CR1-ENB)*%
X90100000Y-77900000D03*
%TO.N,M_IN1A*%
X88800000Y-59700000D03*
%TO.N,M_IN2A*%
X87700000Y-59700000D03*
%TO.N,Net-(CR1-ENA)*%
X89700000Y-59300000D03*
D29*
%TO.N,MotorPower*%
X95000000Y-77400000D03*
X94500000Y-58300000D03*
D28*
%TO.N,+5V*%
X67800000Y-60800000D03*
%TO.N,M_FRONT*%
X72400000Y-54250000D03*
%TO.N,+5V*%
X58062500Y-47800000D03*
D30*
%TO.N,MotorPower*%
X68700000Y-52800000D03*
D28*
%TO.N,Net-(A1-A2)*%
X45000000Y-101000000D03*
%TO.N,Net-(A1-A3)*%
X45000000Y-99500000D03*
%TO.N,Net-(A1-A4)*%
X45000000Y-98000000D03*
%TD*%
D31*
%TO.N,Net-(Q1-Pad1)*%
X21752100Y-112548300D02*
X21752100Y-113098300D01*
X22000000Y-109700000D02*
X22000000Y-112300400D01*
X22000000Y-112300400D02*
X21752100Y-112548300D01*
%TO.N,FLOOR_SENSOR_RIGHT*%
X30750000Y-23350000D02*
X30750000Y-24850000D01*
X31700000Y-22400000D02*
X30750000Y-23350000D01*
%TO.N,GND*%
X25750400Y-26900000D02*
X21752100Y-22901700D01*
X34100000Y-26900000D02*
X25750400Y-26900000D01*
X39800000Y-21200000D02*
X34100000Y-26900000D01*
X52300000Y-21200000D02*
X39800000Y-21200000D01*
X55500000Y-24400000D02*
X52300000Y-21200000D01*
X60850000Y-24400000D02*
X55500000Y-24400000D01*
%TO.N,+5V*%
X37600000Y-20000000D02*
X38500000Y-20000000D01*
X32750000Y-24850000D02*
X37600000Y-20000000D01*
X38500000Y-20000000D02*
X33050000Y-20000000D01*
X58450000Y-20000000D02*
X38500000Y-20000000D01*
%TO.N,FLOOR_SENSOR_RIGHT*%
X28450000Y-24850000D02*
X30750000Y-24850000D01*
X26501700Y-22901700D02*
X28450000Y-24850000D01*
X26247900Y-22901700D02*
X26501700Y-22901700D01*
%TO.N,GND*%
X26247900Y-21098300D02*
X24951700Y-21098300D01*
X24951700Y-21098300D02*
X23148300Y-22901700D01*
X23148300Y-22901700D02*
X21752100Y-22901700D01*
%TO.N,Net-(Q2-Pad1)*%
X23100400Y-19750000D02*
X21752100Y-21098300D01*
X29050000Y-19750000D02*
X23100400Y-19750000D01*
X29600000Y-20300000D02*
X29050000Y-19750000D01*
X30750000Y-20300000D02*
X29600000Y-20300000D01*
%TO.N,+5V*%
X33050000Y-20000000D02*
X32750000Y-20300000D01*
X60850000Y-22400000D02*
X58450000Y-20000000D01*
%TO.N,FLOOR_SENSOR_LEFT*%
X27898300Y-114901700D02*
X29000000Y-113800000D01*
X26247900Y-114901700D02*
X27898300Y-114901700D01*
%TO.N,GND*%
X25401700Y-113098300D02*
X26247900Y-113098300D01*
X24400000Y-114100000D02*
X25401700Y-113098300D01*
X22553800Y-114100000D02*
X24400000Y-114100000D01*
X21752100Y-114901700D02*
X22553800Y-114100000D01*
X58180000Y-116100000D02*
X22950400Y-116100000D01*
X22950400Y-116100000D02*
X21752100Y-114901700D01*
%TO.N,FLOOR_SENSOR_LEFT*%
X29000000Y-113000000D02*
X29000000Y-113800000D01*
X29750000Y-112250000D02*
X29000000Y-113000000D01*
%TO.N,+5V*%
X22100000Y-107600000D02*
X22000000Y-107700000D01*
X31000000Y-109550000D02*
X29050000Y-107600000D01*
X29050000Y-107600000D02*
X22100000Y-107600000D01*
X31000000Y-113800000D02*
X31000000Y-109550000D01*
%TO.N,GND*%
X59760000Y-114520000D02*
X58180000Y-116100000D01*
D32*
%TO.N,Net-(CR1-VCP)*%
X90950000Y-60050000D02*
X90950000Y-59350000D01*
X91350000Y-60450000D02*
X90950000Y-60050000D01*
X99350000Y-60450000D02*
X91350000Y-60450000D01*
D33*
%TO.N,Net-(CR1-ENA)*%
X87400000Y-58900000D02*
X86200000Y-60100000D01*
X89700000Y-59300000D02*
X89300000Y-58900000D01*
X86200000Y-60100000D02*
X77700000Y-60100000D01*
X89300000Y-58900000D02*
X87400000Y-58900000D01*
D32*
%TO.N,MotorPower*%
X101100000Y-59700000D02*
X99700000Y-58300000D01*
X101100000Y-75300000D02*
X101100000Y-59700000D01*
X99000000Y-77400000D02*
X101100000Y-75300000D01*
X95000000Y-77400000D02*
X99000000Y-77400000D01*
X99700000Y-58300000D02*
X94500000Y-58300000D01*
D33*
%TO.N,M_IN1A*%
X87600000Y-60900000D02*
X88800000Y-59700000D01*
X79900000Y-60900000D02*
X87600000Y-60900000D01*
X78900000Y-61900000D02*
X79900000Y-60900000D01*
X75700000Y-62865686D02*
X76665686Y-61900000D01*
X62000000Y-99500000D02*
X74000000Y-99500000D01*
X60500000Y-98000000D02*
X62000000Y-99500000D01*
X59690000Y-89690000D02*
X60500000Y-90500000D01*
X76665686Y-61900000D02*
X78900000Y-61900000D01*
X60500000Y-90500000D02*
X60500000Y-98000000D01*
X75700000Y-97800000D02*
X75700000Y-62865686D01*
X74000000Y-99500000D02*
X75700000Y-97800000D01*
X57990000Y-89690000D02*
X59690000Y-89690000D01*
%TO.N,M_IN2A*%
X86900000Y-60500000D02*
X87700000Y-59700000D01*
X79700000Y-60500000D02*
X86900000Y-60500000D01*
X76500000Y-61500000D02*
X78700000Y-61500000D01*
X73900000Y-99000000D02*
X75300000Y-97600000D01*
X75300000Y-97600000D02*
X75300000Y-62700000D01*
X61000000Y-97500000D02*
X62500000Y-99000000D01*
X75300000Y-62700000D02*
X76500000Y-61500000D01*
X61000000Y-88500000D02*
X61000000Y-97500000D01*
X78700000Y-61500000D02*
X79700000Y-60500000D01*
X59650000Y-87150000D02*
X61000000Y-88500000D01*
X57990000Y-87150000D02*
X59650000Y-87150000D01*
X62500000Y-99000000D02*
X73900000Y-99000000D01*
%TO.N,GND*%
X71200000Y-62260000D02*
X73230000Y-64290000D01*
X71200000Y-59500000D02*
X71200000Y-62260000D01*
D31*
%TO.N,+5V*%
X69000000Y-65140000D02*
X73230000Y-69370000D01*
X69000000Y-62000000D02*
X69000000Y-65140000D01*
X67800000Y-60800000D02*
X69000000Y-62000000D01*
D33*
%TO.N,GND*%
X72900000Y-57800000D02*
X71200000Y-59500000D01*
X75662500Y-57800000D02*
X72900000Y-57800000D01*
%TO.N,Net-(CR1-ENA)*%
X77737500Y-60062500D02*
X77737500Y-57800000D01*
X77700000Y-60100000D02*
X77737500Y-60062500D01*
%TO.N,GND*%
X80200000Y-78700000D02*
X82200000Y-76700000D01*
X80200000Y-84662500D02*
X80200000Y-78700000D01*
%TO.N,Net-(CR1-ENB)*%
X80200000Y-89100000D02*
X80200000Y-86737500D01*
X80100000Y-89200000D02*
X80200000Y-89100000D01*
%TO.N,M_IN1B*%
X87415686Y-75584314D02*
X87900000Y-76068628D01*
X86731372Y-74900000D02*
X87415686Y-75584314D01*
X87900000Y-76068628D02*
X87900000Y-76600000D01*
X86300000Y-74900000D02*
X86731372Y-74900000D01*
X80100000Y-74900000D02*
X86300000Y-74900000D01*
X76100000Y-98000000D02*
X76100000Y-78900000D01*
X76100000Y-78900000D02*
X80100000Y-74900000D01*
X74100000Y-100000000D02*
X76100000Y-98000000D01*
X61500000Y-100000000D02*
X74100000Y-100000000D01*
X60000000Y-98500000D02*
X61500000Y-100000000D01*
X59230000Y-92230000D02*
X60000000Y-93000000D01*
X60000000Y-93000000D02*
X60000000Y-98500000D01*
X57990000Y-92230000D02*
X59230000Y-92230000D01*
%TO.N,M_IN2B*%
X87232843Y-77067157D02*
X88065686Y-77900000D01*
X87232843Y-75967157D02*
X87232843Y-77067157D01*
X80300000Y-75300000D02*
X86565686Y-75300000D01*
X76500000Y-79100000D02*
X80300000Y-75300000D01*
X76500000Y-98200000D02*
X76500000Y-79100000D01*
X88065686Y-77900000D02*
X88900000Y-77900000D01*
X74200000Y-100500000D02*
X76500000Y-98200000D01*
X61000000Y-100500000D02*
X74200000Y-100500000D01*
X59500000Y-95500000D02*
X59500000Y-99000000D01*
X58770000Y-94770000D02*
X59500000Y-95500000D01*
X57990000Y-94770000D02*
X58770000Y-94770000D01*
X86565686Y-75300000D02*
X87232843Y-75967157D01*
X59500000Y-99000000D02*
X61000000Y-100500000D01*
%TO.N,Net-(CR1-ENB)*%
X90100000Y-78500000D02*
X90100000Y-77900000D01*
X88100000Y-78500000D02*
X90100000Y-78500000D01*
X86800000Y-76100000D02*
X86800000Y-77200000D01*
X84600000Y-75700000D02*
X86400000Y-75700000D01*
X86400000Y-75700000D02*
X86800000Y-76100000D01*
X83400000Y-76900000D02*
X84600000Y-75700000D01*
X86800000Y-77200000D02*
X88100000Y-78500000D01*
D31*
%TO.N,Net-(CR1-OUT2B)*%
X90456000Y-81781500D02*
X90037500Y-82200000D01*
X90456000Y-79000000D02*
X90456000Y-81781500D01*
%TO.N,Net-(CR1-OUT1B)*%
X87544000Y-81781500D02*
X87962500Y-82200000D01*
X87544000Y-79000000D02*
X87544000Y-81781500D01*
D33*
%TO.N,Net-(CR1-ENB)*%
X83400000Y-85900000D02*
X83400000Y-76900000D01*
X80100000Y-89200000D02*
X83400000Y-85900000D01*
%TO.N,M_ENB*%
X76900000Y-90400000D02*
X78100000Y-89200000D01*
X76900000Y-98400000D02*
X76900000Y-90400000D01*
X74300000Y-101000000D02*
X60500000Y-101000000D01*
X57990000Y-98490000D02*
X57990000Y-97310000D01*
X76900000Y-98400000D02*
X74300000Y-101000000D01*
X60500000Y-101000000D02*
X57990000Y-98490000D01*
%TO.N,M_ENA*%
X74900000Y-60900000D02*
X75700000Y-60100000D01*
X74090000Y-97310000D02*
X74900000Y-96500000D01*
X74900000Y-96500000D02*
X74900000Y-60900000D01*
X73230000Y-97310000D02*
X74090000Y-97310000D01*
D34*
%TO.N,MotorPower*%
X94500000Y-57900000D02*
X94500000Y-58300000D01*
X94000000Y-57400000D02*
X94500000Y-57900000D01*
X91300000Y-54700000D02*
X94000000Y-57400000D01*
X78200000Y-54700000D02*
X91300000Y-54700000D01*
X76300000Y-52800000D02*
X78200000Y-54700000D01*
X68700000Y-52800000D02*
X76300000Y-52800000D01*
D33*
%TO.N,M_FRONT*%
X60000000Y-73500000D02*
X59050000Y-74450000D01*
X60000000Y-61500000D02*
X60000000Y-73500000D01*
X62500000Y-59000000D02*
X60000000Y-61500000D01*
X59050000Y-74450000D02*
X57990000Y-74450000D01*
X72400000Y-54250000D02*
X71750000Y-54250000D01*
X71750000Y-54250000D02*
X67000000Y-59000000D01*
X67000000Y-59000000D02*
X62500000Y-59000000D01*
D34*
%TO.N,Net-(D3-A)*%
X71300000Y-38500000D02*
X71300000Y-41400000D01*
X70000000Y-37200000D02*
X71300000Y-38500000D01*
X68165000Y-37200000D02*
X70000000Y-37200000D01*
%TO.N,MotorPower*%
X71300000Y-49000000D02*
X71300000Y-46400000D01*
X65625000Y-37200000D02*
X65625000Y-47725000D01*
X65625000Y-47725000D02*
X67900000Y-50000000D01*
X67900000Y-50000000D02*
X70300000Y-50000000D01*
X70300000Y-50000000D02*
X71300000Y-49000000D01*
D31*
%TO.N,+5V*%
X68500000Y-34900000D02*
X69400000Y-34000000D01*
X69400000Y-34000000D02*
X69400000Y-32800000D01*
X55500000Y-36600000D02*
X57200000Y-34900000D01*
X55500000Y-47100000D02*
X55500000Y-36600000D01*
X56200000Y-47800000D02*
X55500000Y-47100000D01*
X57200000Y-34900000D02*
X68500000Y-34900000D01*
X58062500Y-47800000D02*
X56200000Y-47800000D01*
D34*
%TO.N,MotorPower*%
X58762500Y-38562500D02*
X58762500Y-37187500D01*
X60100000Y-39900000D02*
X58762500Y-38562500D01*
X63700000Y-39900000D02*
X60100000Y-39900000D01*
X65625000Y-37975000D02*
X63700000Y-39900000D01*
D35*
X65625000Y-37200000D02*
X65625000Y-37975000D01*
D33*
%TO.N,GND*%
X59080000Y-115200000D02*
X59760000Y-114520000D01*
D31*
X59760000Y-114520000D02*
X54620000Y-114520000D01*
X53400000Y-113300000D02*
X53400000Y-73960000D01*
X54620000Y-114520000D02*
X53400000Y-113300000D01*
X53400000Y-73960000D02*
X57990000Y-69370000D01*
%TO.N,+5V*%
X58062500Y-47800000D02*
X58062500Y-51500000D01*
X58062500Y-51500000D02*
X58662500Y-52100000D01*
X58462500Y-52100000D02*
X58062500Y-52500000D01*
X66240000Y-54240000D02*
X66240000Y-55700000D01*
X58062500Y-47800000D02*
X58062500Y-52500000D01*
X58062500Y-47800000D02*
X58200000Y-47800000D01*
X58662500Y-52100000D02*
X58462500Y-52100000D01*
X64100000Y-52100000D02*
X66240000Y-54240000D01*
X58662500Y-52100000D02*
X64100000Y-52100000D01*
D33*
%TO.N,Net-(A1-D6)*%
X64000000Y-102000000D02*
X57000000Y-102000000D01*
X56000000Y-82000000D02*
X57920000Y-82000000D01*
X55500000Y-100500000D02*
X55500000Y-82500000D01*
X64840000Y-102840000D02*
X64000000Y-102000000D01*
X57920000Y-82000000D02*
X57990000Y-82070000D01*
X57000000Y-102000000D02*
X55500000Y-100500000D01*
X64840000Y-106900000D02*
X64840000Y-102840000D01*
X55500000Y-82500000D02*
X56000000Y-82000000D01*
%TO.N,Net-(A1-D4)*%
X56010000Y-76990000D02*
X57990000Y-76990000D01*
X54500000Y-101500000D02*
X54500000Y-78500000D01*
X59760000Y-103260000D02*
X59500000Y-103000000D01*
X59760000Y-106900000D02*
X59760000Y-103260000D01*
X59500000Y-103000000D02*
X56000000Y-103000000D01*
X56000000Y-103000000D02*
X54500000Y-101500000D01*
X54500000Y-78500000D02*
X56010000Y-76990000D01*
%TO.N,Net-(A1-D7)*%
X57500000Y-101500000D02*
X56000000Y-100000000D01*
X66500000Y-101500000D02*
X57500000Y-101500000D01*
X67380000Y-102380000D02*
X66500000Y-101500000D01*
X56890000Y-84610000D02*
X57990000Y-84610000D01*
X56000000Y-100000000D02*
X56000000Y-85500000D01*
X67380000Y-106900000D02*
X67380000Y-102380000D01*
X56000000Y-85500000D02*
X56890000Y-84610000D01*
%TO.N,Net-(A1-D5)*%
X62300000Y-102800000D02*
X62000000Y-102500000D01*
X56500000Y-79500000D02*
X56530000Y-79530000D01*
X55000000Y-101000000D02*
X55000000Y-81000000D01*
X56500000Y-102500000D02*
X55000000Y-101000000D01*
X55000000Y-81000000D02*
X56500000Y-79500000D01*
X56530000Y-79530000D02*
X57990000Y-79530000D01*
X62300000Y-106900000D02*
X62300000Y-102800000D01*
X62000000Y-102500000D02*
X56500000Y-102500000D01*
D31*
%TO.N,Net-(A1-A2)*%
X57450000Y-29800000D02*
X60850000Y-26400000D01*
X45000000Y-101000000D02*
X41000000Y-97000000D01*
X42900000Y-29800000D02*
X57450000Y-29800000D01*
X41000000Y-97000000D02*
X41000000Y-31700000D01*
X41000000Y-31700000D02*
X42900000Y-29800000D01*
%TO.N,Net-(A1-A3)*%
X42000000Y-33000000D02*
X44300000Y-30700000D01*
X63650000Y-30700000D02*
X67950000Y-26400000D01*
X44300000Y-30700000D02*
X63650000Y-30700000D01*
X42000000Y-96500000D02*
X42000000Y-33000000D01*
X45000000Y-99500000D02*
X42000000Y-96500000D01*
%TO.N,Net-(CR1-OUT2A)*%
X92500000Y-59000000D02*
X90700000Y-57200000D01*
X90700000Y-57200000D02*
X90237500Y-57200000D01*
%TO.N,Net-(CR1-OUT2B)*%
X90456000Y-79000000D02*
X92500000Y-76956000D01*
%TO.N,Net-(CR1-OUT1B)*%
X85500000Y-76956000D02*
X87544000Y-79000000D01*
%TO.N,Net-(CR1-OUT1A)*%
X87300000Y-57200000D02*
X88162500Y-57200000D01*
X85500000Y-59000000D02*
X87300000Y-57200000D01*
%TO.N,Net-(A1-A4)*%
X43000000Y-34500000D02*
X43000000Y-96000000D01*
X65400000Y-32800000D02*
X64100000Y-31500000D01*
X64100000Y-31500000D02*
X46000000Y-31500000D01*
X46000000Y-31500000D02*
X43000000Y-34500000D01*
X44000000Y-97000000D02*
X45000000Y-98000000D01*
X43000000Y-96000000D02*
X44000000Y-97000000D01*
%TO.N,+5V*%
X52600000Y-111800000D02*
X52600000Y-58400000D01*
X58062500Y-52937500D02*
X58062500Y-52500000D01*
X31000000Y-113800000D02*
X50600000Y-113800000D01*
X50600000Y-113800000D02*
X52600000Y-111800000D01*
X52600000Y-58400000D02*
X58062500Y-52937500D01*
%TD*%
%TA.AperFunction,Conductor*%
%TO.N,GND*%
G36*
X71425000Y-102120462D02*
G01*
X71479538Y-102175000D01*
X71499500Y-102249500D01*
X71499500Y-116350500D01*
X71479538Y-116425000D01*
X71425000Y-116479538D01*
X71350500Y-116499500D01*
X20649500Y-116499500D01*
X20575000Y-116479538D01*
X20520462Y-116425000D01*
X20500500Y-116350500D01*
X20500500Y-114417054D01*
X20520462Y-114342554D01*
X20575000Y-114288016D01*
X20649500Y-114268054D01*
X20718483Y-114284985D01*
X20769451Y-114311609D01*
X20965082Y-114367586D01*
X21084463Y-114378200D01*
X22419736Y-114378199D01*
X22539118Y-114367586D01*
X22734749Y-114311609D01*
X22915107Y-114217398D01*
X23072809Y-114088809D01*
X23201398Y-113931107D01*
X23295609Y-113750749D01*
X23351586Y-113555118D01*
X23362200Y-113435737D01*
X23362199Y-112760864D01*
X23351586Y-112641482D01*
X23295609Y-112445851D01*
X23271920Y-112400500D01*
X23267432Y-112391907D01*
X23250500Y-112322922D01*
X23250500Y-111079690D01*
X23270462Y-111005190D01*
X23294142Y-110974331D01*
X23413816Y-110854657D01*
X23413819Y-110854654D01*
X23542007Y-110669626D01*
X23570628Y-110606613D01*
X23635095Y-110464687D01*
X23635381Y-110463549D01*
X23690096Y-110246412D01*
X23700500Y-110114217D01*
X23700499Y-109285784D01*
X23690096Y-109153588D01*
X23660442Y-109035904D01*
X23661596Y-108958787D01*
X23701155Y-108892577D01*
X23768519Y-108855016D01*
X23804926Y-108850500D01*
X28470308Y-108850500D01*
X28544808Y-108870462D01*
X28575667Y-108894141D01*
X29705859Y-110024333D01*
X29744423Y-110091128D01*
X29749500Y-110129692D01*
X29749500Y-110808042D01*
X29729538Y-110882542D01*
X29675000Y-110937080D01*
X29613487Y-110956475D01*
X29523306Y-110964365D01*
X29303507Y-111023260D01*
X29303506Y-111023260D01*
X29303504Y-111023261D01*
X29097266Y-111119432D01*
X29097263Y-111119434D01*
X29097261Y-111119435D01*
X29097258Y-111119437D01*
X28910862Y-111249951D01*
X28749951Y-111410862D01*
X28619432Y-111597264D01*
X28619428Y-111597271D01*
X28617574Y-111601248D01*
X28587898Y-111643626D01*
X28046168Y-112185358D01*
X27970797Y-112289095D01*
X27935110Y-112323990D01*
X27845348Y-112386179D01*
X27686182Y-112545344D01*
X27557991Y-112730376D01*
X27464904Y-112935312D01*
X27409903Y-113153593D01*
X27399500Y-113285789D01*
X27399500Y-113502200D01*
X27379538Y-113576700D01*
X27325000Y-113631238D01*
X27250500Y-113651200D01*
X27121470Y-113651200D01*
X27080480Y-113645451D01*
X27034922Y-113632415D01*
X27034921Y-113632414D01*
X27034918Y-113632414D01*
X26915537Y-113621800D01*
X26915530Y-113621800D01*
X25580269Y-113621800D01*
X25520573Y-113627107D01*
X25460882Y-113632414D01*
X25460879Y-113632414D01*
X25460877Y-113632415D01*
X25265249Y-113688391D01*
X25084891Y-113782603D01*
X25084886Y-113782606D01*
X24927195Y-113911186D01*
X24927186Y-113911195D01*
X24798606Y-114068886D01*
X24798603Y-114068891D01*
X24704391Y-114249249D01*
X24648415Y-114444877D01*
X24648414Y-114444882D01*
X24637800Y-114564263D01*
X24637800Y-114564268D01*
X24637800Y-114564269D01*
X24637800Y-115239130D01*
X24637801Y-115239136D01*
X24648414Y-115358518D01*
X24648414Y-115358521D01*
X24648415Y-115358522D01*
X24704391Y-115554150D01*
X24798603Y-115734508D01*
X24798606Y-115734513D01*
X24927186Y-115892204D01*
X24927195Y-115892213D01*
X25084886Y-116020793D01*
X25084889Y-116020794D01*
X25084893Y-116020798D01*
X25265251Y-116115009D01*
X25460882Y-116170986D01*
X25580263Y-116181600D01*
X26915536Y-116181599D01*
X27034918Y-116170986D01*
X27080480Y-116157948D01*
X27121470Y-116152200D01*
X27996712Y-116152200D01*
X27996717Y-116152200D01*
X28191126Y-116121409D01*
X28378326Y-116060584D01*
X28553705Y-115971224D01*
X28712946Y-115855528D01*
X29024333Y-115544139D01*
X29091128Y-115505576D01*
X29129692Y-115500499D01*
X29414209Y-115500499D01*
X29414216Y-115500499D01*
X29546412Y-115490096D01*
X29764683Y-115435096D01*
X29764684Y-115435095D01*
X29764686Y-115435095D01*
X29938380Y-115356200D01*
X30014466Y-115343565D01*
X30061620Y-115356200D01*
X30235313Y-115435095D01*
X30235317Y-115435096D01*
X30453588Y-115490096D01*
X30585783Y-115500500D01*
X31414216Y-115500499D01*
X31546412Y-115490096D01*
X31764683Y-115435096D01*
X31764682Y-115435096D01*
X31764687Y-115435095D01*
X31933267Y-115358522D01*
X31969626Y-115342007D01*
X32154654Y-115213819D01*
X32274332Y-115094141D01*
X32341127Y-115055577D01*
X32379691Y-115050500D01*
X50698412Y-115050500D01*
X50698417Y-115050500D01*
X50892826Y-115019709D01*
X51080026Y-114958884D01*
X51255405Y-114869524D01*
X51414646Y-114753828D01*
X53553828Y-112614646D01*
X53669524Y-112455405D01*
X53758884Y-112280026D01*
X53819709Y-112092826D01*
X53850500Y-111898417D01*
X53850500Y-111701584D01*
X53850500Y-102766559D01*
X53870462Y-102692059D01*
X53925000Y-102637521D01*
X53999500Y-102617559D01*
X54074000Y-102637521D01*
X54104854Y-102661196D01*
X55283072Y-103839414D01*
X55423212Y-103941232D01*
X55577554Y-104019873D01*
X55742299Y-104073402D01*
X55913389Y-104100500D01*
X56086610Y-104100500D01*
X58510500Y-104100500D01*
X58585000Y-104120462D01*
X58639538Y-104175000D01*
X58659500Y-104249500D01*
X58659500Y-105399936D01*
X58639538Y-105474436D01*
X58611846Y-105509161D01*
X58436438Y-105671914D01*
X58268189Y-105882892D01*
X58268184Y-105882900D01*
X58133257Y-106116601D01*
X58133255Y-106116606D01*
X58034665Y-106367805D01*
X58034663Y-106367812D01*
X57974618Y-106630886D01*
X57974615Y-106630909D01*
X57954451Y-106899994D01*
X57954451Y-106900005D01*
X57974615Y-107169090D01*
X57974618Y-107169113D01*
X58034663Y-107432187D01*
X58034665Y-107432194D01*
X58133255Y-107683393D01*
X58133257Y-107683398D01*
X58268185Y-107917102D01*
X58436439Y-108128085D01*
X58634259Y-108311635D01*
X58857226Y-108463651D01*
X59100359Y-108580738D01*
X59358228Y-108660280D01*
X59625071Y-108700500D01*
X59625074Y-108700500D01*
X59894926Y-108700500D01*
X59894929Y-108700500D01*
X60161772Y-108660280D01*
X60419641Y-108580738D01*
X60662775Y-108463651D01*
X60885741Y-108311635D01*
X60903575Y-108295087D01*
X60928654Y-108271818D01*
X60996844Y-108235778D01*
X61073918Y-108238661D01*
X61131346Y-108271818D01*
X61174255Y-108311632D01*
X61174257Y-108311633D01*
X61174259Y-108311635D01*
X61397226Y-108463651D01*
X61640359Y-108580738D01*
X61898228Y-108660280D01*
X62165071Y-108700500D01*
X62165074Y-108700500D01*
X62434926Y-108700500D01*
X62434929Y-108700500D01*
X62701772Y-108660280D01*
X62959641Y-108580738D01*
X63202775Y-108463651D01*
X63425741Y-108311635D01*
X63443575Y-108295087D01*
X63468654Y-108271818D01*
X63536844Y-108235778D01*
X63613918Y-108238661D01*
X63671346Y-108271818D01*
X63714255Y-108311632D01*
X63714257Y-108311633D01*
X63714259Y-108311635D01*
X63937226Y-108463651D01*
X64180359Y-108580738D01*
X64438228Y-108660280D01*
X64705071Y-108700500D01*
X64705074Y-108700500D01*
X64974926Y-108700500D01*
X64974929Y-108700500D01*
X65241772Y-108660280D01*
X65499641Y-108580738D01*
X65742775Y-108463651D01*
X65965741Y-108311635D01*
X65983575Y-108295087D01*
X66008654Y-108271818D01*
X66076844Y-108235778D01*
X66153918Y-108238661D01*
X66211346Y-108271818D01*
X66254255Y-108311632D01*
X66254257Y-108311633D01*
X66254259Y-108311635D01*
X66477226Y-108463651D01*
X66720359Y-108580738D01*
X66978228Y-108660280D01*
X67245071Y-108700500D01*
X67245074Y-108700500D01*
X67514926Y-108700500D01*
X67514929Y-108700500D01*
X67781772Y-108660280D01*
X68039641Y-108580738D01*
X68282775Y-108463651D01*
X68505741Y-108311635D01*
X68703561Y-108128085D01*
X68871815Y-107917102D01*
X69006743Y-107683398D01*
X69105334Y-107432195D01*
X69165383Y-107169103D01*
X69185549Y-106900000D01*
X69165383Y-106630897D01*
X69165381Y-106630891D01*
X69165381Y-106630886D01*
X69105336Y-106367812D01*
X69105334Y-106367805D01*
X69090315Y-106329538D01*
X69006743Y-106116602D01*
X68871815Y-105882898D01*
X68836063Y-105838067D01*
X68703561Y-105671914D01*
X68528154Y-105509161D01*
X68487120Y-105443855D01*
X68480500Y-105399936D01*
X68480500Y-102293391D01*
X68479271Y-102285634D01*
X68477240Y-102272806D01*
X68485303Y-102196101D01*
X68530639Y-102133704D01*
X68601099Y-102102334D01*
X68624406Y-102100500D01*
X71350500Y-102100500D01*
X71425000Y-102120462D01*
G37*
%TD.AperFunction*%
%TA.AperFunction,Conductor*%
G36*
X71425000Y-19520462D02*
G01*
X71479538Y-19575000D01*
X71499500Y-19649500D01*
X71499500Y-34065892D01*
X71533608Y-34193186D01*
X71558623Y-34236514D01*
X71599497Y-34307310D01*
X71599498Y-34307311D01*
X71599500Y-34307314D01*
X71692686Y-34400500D01*
X71806814Y-34466392D01*
X71934108Y-34500500D01*
X72065892Y-34500500D01*
X101350500Y-34500500D01*
X101425000Y-34520462D01*
X101479538Y-34575000D01*
X101499500Y-34649500D01*
X101499500Y-57759176D01*
X101479538Y-57833676D01*
X101425000Y-57888214D01*
X101350500Y-57908176D01*
X101276000Y-57888214D01*
X101245141Y-57864535D01*
X100768244Y-57387638D01*
X100768242Y-57387635D01*
X100612365Y-57231758D01*
X100470363Y-57128588D01*
X100434024Y-57102186D01*
X100434023Y-57102185D01*
X100237608Y-57002105D01*
X100027956Y-56933986D01*
X100027957Y-56933986D01*
X100027951Y-56933985D01*
X99810222Y-56899499D01*
X99589778Y-56899499D01*
X99583635Y-56899499D01*
X99583611Y-56899500D01*
X96012225Y-56899500D01*
X95937725Y-56879538D01*
X95894016Y-56841206D01*
X95847149Y-56780128D01*
X95847147Y-56780126D01*
X95818920Y-56743339D01*
X92456662Y-53381081D01*
X92332974Y-53286172D01*
X92332973Y-53286171D01*
X92274615Y-53241391D01*
X92256863Y-53231142D01*
X92149104Y-53168927D01*
X92075892Y-53126658D01*
X92075890Y-53126657D01*
X92075888Y-53126656D01*
X91863887Y-53038842D01*
X91835758Y-53031305D01*
X91642240Y-52979452D01*
X91633416Y-52978290D01*
X91615771Y-52975967D01*
X91615769Y-52975966D01*
X91414738Y-52949500D01*
X91414734Y-52949500D01*
X78986799Y-52949500D01*
X78912299Y-52929538D01*
X78881440Y-52905859D01*
X77456658Y-51481077D01*
X77350343Y-51399500D01*
X77350342Y-51399499D01*
X77274615Y-51341391D01*
X77075892Y-51226658D01*
X77075890Y-51226657D01*
X77075888Y-51226656D01*
X77009786Y-51199275D01*
X76863884Y-51138840D01*
X76790814Y-51119262D01*
X76790813Y-51119262D01*
X76642240Y-51079452D01*
X76633416Y-51078290D01*
X76615771Y-51075967D01*
X76615769Y-51075966D01*
X76414738Y-51049500D01*
X76414734Y-51049500D01*
X72085799Y-51049500D01*
X72011299Y-51029538D01*
X71956761Y-50975000D01*
X71936799Y-50900500D01*
X71956761Y-50826000D01*
X71980440Y-50795141D01*
X72277691Y-50497890D01*
X72618920Y-50156661D01*
X72723608Y-50020228D01*
X72758611Y-49974612D01*
X72870913Y-49780097D01*
X72872971Y-49776789D01*
X72873345Y-49775887D01*
X72961158Y-49563886D01*
X73020549Y-49342239D01*
X73050500Y-49114733D01*
X73050500Y-48885266D01*
X73050500Y-48533180D01*
X73057684Y-48499994D01*
X96744592Y-48499994D01*
X96744592Y-48500005D01*
X96764196Y-48761617D01*
X96764199Y-48761637D01*
X96822578Y-49017411D01*
X96822579Y-49017415D01*
X96906291Y-49230708D01*
X96918432Y-49261643D01*
X97049614Y-49488857D01*
X97049618Y-49488862D01*
X97213197Y-49693984D01*
X97405515Y-49872428D01*
X97405517Y-49872429D01*
X97405521Y-49872433D01*
X97622296Y-50020228D01*
X97858677Y-50134063D01*
X98015869Y-50182550D01*
X98109381Y-50211395D01*
X98109382Y-50211395D01*
X98109385Y-50211396D01*
X98368818Y-50250500D01*
X98368820Y-50250500D01*
X98631180Y-50250500D01*
X98631182Y-50250500D01*
X98890615Y-50211396D01*
X99141323Y-50134063D01*
X99377704Y-50020228D01*
X99594479Y-49872433D01*
X99786805Y-49693981D01*
X99950386Y-49488857D01*
X100081568Y-49261643D01*
X100177420Y-49017416D01*
X100235802Y-48761630D01*
X100236387Y-48753824D01*
X100255408Y-48500005D01*
X100255408Y-48499994D01*
X100235803Y-48238382D01*
X100235802Y-48238380D01*
X100235802Y-48238370D01*
X100177420Y-47982584D01*
X100081568Y-47738357D01*
X99950386Y-47511143D01*
X99786805Y-47306019D01*
X99786802Y-47306015D01*
X99594484Y-47127571D01*
X99594481Y-47127569D01*
X99594479Y-47127567D01*
X99377704Y-46979772D01*
X99377701Y-46979771D01*
X99377699Y-46979769D01*
X99141332Y-46865941D01*
X99141328Y-46865939D01*
X99141323Y-46865937D01*
X99141315Y-46865934D01*
X99141311Y-46865933D01*
X98890618Y-46788604D01*
X98631184Y-46749500D01*
X98631182Y-46749500D01*
X98368818Y-46749500D01*
X98368815Y-46749500D01*
X98109381Y-46788604D01*
X97858688Y-46865933D01*
X97858667Y-46865941D01*
X97622300Y-46979769D01*
X97405515Y-47127571D01*
X97213197Y-47306015D01*
X97049618Y-47511137D01*
X97049613Y-47511145D01*
X96918432Y-47738356D01*
X96918430Y-47738361D01*
X96822579Y-47982584D01*
X96822578Y-47982588D01*
X96764199Y-48238362D01*
X96764196Y-48238382D01*
X96744592Y-48499994D01*
X73057684Y-48499994D01*
X73063839Y-48471560D01*
X73093686Y-48405849D01*
X73135096Y-48314683D01*
X73190096Y-48096412D01*
X73200500Y-47964217D01*
X73200499Y-44835784D01*
X73190096Y-44703588D01*
X73135096Y-44485317D01*
X73135095Y-44485312D01*
X73042008Y-44280376D01*
X73042007Y-44280374D01*
X72913819Y-44095346D01*
X72823832Y-44005359D01*
X72785268Y-43938564D01*
X72785268Y-43861436D01*
X72823832Y-43794641D01*
X72913819Y-43704654D01*
X73042007Y-43519626D01*
X73070628Y-43456613D01*
X73135095Y-43314687D01*
X73135381Y-43313549D01*
X73190096Y-43096412D01*
X73200500Y-42964217D01*
X73200499Y-39835784D01*
X73190096Y-39703588D01*
X73135096Y-39485317D01*
X73135095Y-39485313D01*
X73063839Y-39328438D01*
X73050500Y-39266818D01*
X73050500Y-38385266D01*
X73041544Y-38317239D01*
X73039275Y-38300000D01*
X77944709Y-38300000D01*
X77963852Y-38579862D01*
X78020925Y-38854511D01*
X78114864Y-39118830D01*
X78243919Y-39367896D01*
X78405688Y-39597069D01*
X78547945Y-39749390D01*
X78597151Y-39802077D01*
X78597163Y-39802088D01*
X78638590Y-39835791D01*
X78814754Y-39979111D01*
X79054432Y-40124862D01*
X79311725Y-40236620D01*
X79581839Y-40312303D01*
X79859742Y-40350500D01*
X79859743Y-40350500D01*
X80140257Y-40350500D01*
X80140258Y-40350500D01*
X80418161Y-40312303D01*
X80688275Y-40236620D01*
X80945568Y-40124862D01*
X81185246Y-39979111D01*
X81402845Y-39802081D01*
X81594312Y-39597069D01*
X81756081Y-39367896D01*
X81885136Y-39118830D01*
X81979075Y-38854511D01*
X82036148Y-38579862D01*
X82055291Y-38300000D01*
X95944709Y-38300000D01*
X95963852Y-38579862D01*
X96020925Y-38854511D01*
X96114864Y-39118830D01*
X96243919Y-39367896D01*
X96405688Y-39597069D01*
X96547945Y-39749390D01*
X96597151Y-39802077D01*
X96597163Y-39802088D01*
X96638590Y-39835791D01*
X96814754Y-39979111D01*
X97054432Y-40124862D01*
X97311725Y-40236620D01*
X97581839Y-40312303D01*
X97859742Y-40350500D01*
X97859743Y-40350500D01*
X98140257Y-40350500D01*
X98140258Y-40350500D01*
X98418161Y-40312303D01*
X98688275Y-40236620D01*
X98945568Y-40124862D01*
X99185246Y-39979111D01*
X99402845Y-39802081D01*
X99594312Y-39597069D01*
X99756081Y-39367896D01*
X99885136Y-39118830D01*
X99979075Y-38854511D01*
X100036148Y-38579862D01*
X100055291Y-38300000D01*
X100036148Y-38020138D01*
X99979075Y-37745489D01*
X99885136Y-37481170D01*
X99756081Y-37232104D01*
X99594312Y-37002931D01*
X99402845Y-36797919D01*
X99402842Y-36797917D01*
X99402836Y-36797911D01*
X99185249Y-36620891D01*
X99185246Y-36620889D01*
X99029763Y-36526338D01*
X98945568Y-36475138D01*
X98945565Y-36475136D01*
X98945564Y-36475136D01*
X98863997Y-36439707D01*
X98688275Y-36363380D01*
X98418161Y-36287697D01*
X98418160Y-36287696D01*
X98418159Y-36287696D01*
X98184540Y-36255586D01*
X98140258Y-36249500D01*
X97859742Y-36249500D01*
X97815459Y-36255586D01*
X97581841Y-36287696D01*
X97446782Y-36325538D01*
X97311725Y-36363380D01*
X97311723Y-36363381D01*
X97054436Y-36475136D01*
X97054435Y-36475136D01*
X96814753Y-36620889D01*
X96814750Y-36620891D01*
X96597163Y-36797911D01*
X96597151Y-36797922D01*
X96405687Y-37002932D01*
X96243921Y-37232100D01*
X96114865Y-37481167D01*
X96114864Y-37481170D01*
X96028523Y-37724112D01*
X96020925Y-37745490D01*
X95963852Y-38020136D01*
X95956369Y-38129538D01*
X95944709Y-38300000D01*
X82055291Y-38300000D01*
X82036148Y-38020138D01*
X81979075Y-37745489D01*
X81885136Y-37481170D01*
X81756081Y-37232104D01*
X81594312Y-37002931D01*
X81402845Y-36797919D01*
X81402842Y-36797917D01*
X81402836Y-36797911D01*
X81185249Y-36620891D01*
X81185246Y-36620889D01*
X81029763Y-36526338D01*
X80945568Y-36475138D01*
X80945565Y-36475136D01*
X80945564Y-36475136D01*
X80863997Y-36439707D01*
X80688275Y-36363380D01*
X80418161Y-36287697D01*
X80418160Y-36287696D01*
X80418159Y-36287696D01*
X80184540Y-36255586D01*
X80140258Y-36249500D01*
X79859742Y-36249500D01*
X79815459Y-36255586D01*
X79581841Y-36287696D01*
X79446782Y-36325538D01*
X79311725Y-36363380D01*
X79311723Y-36363381D01*
X79054436Y-36475136D01*
X79054435Y-36475136D01*
X78814753Y-36620889D01*
X78814750Y-36620891D01*
X78597163Y-36797911D01*
X78597151Y-36797922D01*
X78405687Y-37002932D01*
X78243921Y-37232100D01*
X78114865Y-37481167D01*
X78114864Y-37481170D01*
X78028523Y-37724112D01*
X78020925Y-37745490D01*
X77963852Y-38020136D01*
X77956369Y-38129538D01*
X77944709Y-38300000D01*
X73039275Y-38300000D01*
X73020549Y-38157761D01*
X72971292Y-37973933D01*
X72961158Y-37936113D01*
X72912942Y-37819709D01*
X72873345Y-37724112D01*
X72794695Y-37587888D01*
X72758611Y-37525388D01*
X72758610Y-37525387D01*
X72758608Y-37525383D01*
X72670925Y-37411114D01*
X72670923Y-37411112D01*
X72657454Y-37393559D01*
X72618920Y-37343339D01*
X71156661Y-35881080D01*
X71048275Y-35797913D01*
X71031908Y-35785354D01*
X70974615Y-35741391D01*
X70775892Y-35626658D01*
X70775890Y-35626657D01*
X70775888Y-35626656D01*
X70709786Y-35599275D01*
X70563884Y-35538840D01*
X70465301Y-35512426D01*
X70465300Y-35512426D01*
X70342240Y-35479452D01*
X70333416Y-35478290D01*
X70315771Y-35475967D01*
X70315769Y-35475966D01*
X70114738Y-35449500D01*
X70114734Y-35449500D01*
X70078692Y-35449500D01*
X70004192Y-35429538D01*
X69949654Y-35375000D01*
X69929692Y-35300500D01*
X69949654Y-35226000D01*
X69973333Y-35195141D01*
X70163282Y-35005192D01*
X70353828Y-34814646D01*
X70469524Y-34655405D01*
X70558884Y-34480026D01*
X70593764Y-34372674D01*
X70630112Y-34313360D01*
X70713819Y-34229654D01*
X70842007Y-34044626D01*
X70886730Y-33946165D01*
X70935095Y-33839687D01*
X70959932Y-33741119D01*
X70990096Y-33621412D01*
X71000500Y-33489217D01*
X71000499Y-32110784D01*
X70990096Y-31978588D01*
X70935096Y-31760317D01*
X70935095Y-31760312D01*
X70842008Y-31555376D01*
X70791412Y-31482345D01*
X70713819Y-31370346D01*
X70554654Y-31211181D01*
X70369626Y-31082993D01*
X70369625Y-31082992D01*
X70369623Y-31082991D01*
X70164687Y-30989904D01*
X70019924Y-30953427D01*
X69946412Y-30934904D01*
X69946409Y-30934903D01*
X69946406Y-30934903D01*
X69886122Y-30930159D01*
X69814217Y-30924500D01*
X69814209Y-30924500D01*
X68985791Y-30924500D01*
X68985788Y-30924500D01*
X68985784Y-30924501D01*
X68940622Y-30928054D01*
X68853593Y-30934903D01*
X68853589Y-30934903D01*
X68853588Y-30934904D01*
X68816264Y-30944308D01*
X68635312Y-30989904D01*
X68430376Y-31082991D01*
X68245344Y-31211182D01*
X68086182Y-31370344D01*
X67957991Y-31555376D01*
X67864904Y-31760312D01*
X67809903Y-31978593D01*
X67799500Y-32110789D01*
X67799500Y-33489208D01*
X67799616Y-33492132D01*
X67799500Y-33492136D01*
X67799501Y-33492142D01*
X67799362Y-33492142D01*
X67798842Y-33492162D01*
X67785424Y-33564626D01*
X67735342Y-33623282D01*
X67662642Y-33649039D01*
X67650929Y-33649500D01*
X67101280Y-33649500D01*
X67026780Y-33629538D01*
X66972242Y-33575000D01*
X66952280Y-33500500D01*
X66959573Y-33454455D01*
X66961089Y-33449789D01*
X66961090Y-33449785D01*
X67000500Y-33200962D01*
X67000500Y-32399038D01*
X66961090Y-32150215D01*
X66883241Y-31910621D01*
X66768870Y-31686155D01*
X66620793Y-31482344D01*
X66442656Y-31304207D01*
X66238845Y-31156130D01*
X66014379Y-31041759D01*
X65774785Y-30963910D01*
X65528192Y-30924853D01*
X65457734Y-30893483D01*
X65412400Y-30831085D01*
X65404337Y-30754379D01*
X65435708Y-30683919D01*
X65446134Y-30672339D01*
X68074333Y-28044141D01*
X68141128Y-28005577D01*
X68179692Y-28000500D01*
X68350957Y-28000500D01*
X68350962Y-28000500D01*
X68599785Y-27961090D01*
X68839379Y-27883241D01*
X69063845Y-27768870D01*
X69267656Y-27620793D01*
X69445793Y-27442656D01*
X69593870Y-27238845D01*
X69708241Y-27014379D01*
X69786090Y-26774785D01*
X69825500Y-26525962D01*
X69825500Y-26274038D01*
X69786090Y-26025215D01*
X69708241Y-25785621D01*
X69593870Y-25561155D01*
X69445793Y-25357344D01*
X69267656Y-25179207D01*
X69063845Y-25031130D01*
X68839379Y-24916759D01*
X68599785Y-24838910D01*
X68350962Y-24799500D01*
X67549038Y-24799500D01*
X67341685Y-24832341D01*
X67300214Y-24838910D01*
X67060627Y-24916757D01*
X67060621Y-24916759D01*
X67060615Y-24916761D01*
X67060615Y-24916762D01*
X66836153Y-25031131D01*
X66836152Y-25031131D01*
X66632345Y-25179206D01*
X66632342Y-25179208D01*
X66454208Y-25357342D01*
X66454206Y-25357345D01*
X66306131Y-25561152D01*
X66306131Y-25561153D01*
X66306130Y-25561155D01*
X66191759Y-25785621D01*
X66113910Y-26025215D01*
X66074500Y-26274038D01*
X66074500Y-26274042D01*
X66074500Y-26445308D01*
X66054538Y-26519808D01*
X66030859Y-26550667D01*
X63175667Y-29405859D01*
X63108872Y-29444423D01*
X63070308Y-29449500D01*
X59928692Y-29449500D01*
X59854192Y-29429538D01*
X59799654Y-29375000D01*
X59779692Y-29300500D01*
X59799654Y-29226000D01*
X59823333Y-29195141D01*
X60974333Y-28044141D01*
X61041128Y-28005577D01*
X61079692Y-28000500D01*
X61250957Y-28000500D01*
X61250962Y-28000500D01*
X61499785Y-27961090D01*
X61739379Y-27883241D01*
X61963845Y-27768870D01*
X62167656Y-27620793D01*
X62345793Y-27442656D01*
X62493870Y-27238845D01*
X62608241Y-27014379D01*
X62686090Y-26774785D01*
X62725500Y-26525962D01*
X62725500Y-26274038D01*
X62686090Y-26025215D01*
X62608241Y-25785621D01*
X62493870Y-25561155D01*
X62345793Y-25357344D01*
X62167656Y-25179207D01*
X61963845Y-25031130D01*
X61739379Y-24916759D01*
X61499785Y-24838910D01*
X61250962Y-24799500D01*
X60449038Y-24799500D01*
X60241685Y-24832341D01*
X60200214Y-24838910D01*
X59960627Y-24916757D01*
X59960621Y-24916759D01*
X59960615Y-24916761D01*
X59960615Y-24916762D01*
X59736153Y-25031131D01*
X59736152Y-25031131D01*
X59532345Y-25179206D01*
X59532342Y-25179208D01*
X59354208Y-25357342D01*
X59354206Y-25357345D01*
X59206131Y-25561152D01*
X59206131Y-25561153D01*
X59206130Y-25561155D01*
X59091759Y-25785621D01*
X59013910Y-26025215D01*
X58974500Y-26274038D01*
X58974500Y-26274042D01*
X58974500Y-26445308D01*
X58954538Y-26519808D01*
X58930859Y-26550667D01*
X56975667Y-28505859D01*
X56908872Y-28544423D01*
X56870308Y-28549500D01*
X42801583Y-28549500D01*
X42607174Y-28580291D01*
X42419974Y-28641116D01*
X42419968Y-28641118D01*
X42419968Y-28641119D01*
X42244593Y-28730477D01*
X42244592Y-28730477D01*
X42085357Y-28846168D01*
X40046174Y-30885352D01*
X40046165Y-30885363D01*
X39930477Y-31044593D01*
X39930474Y-31044598D01*
X39840580Y-31221024D01*
X39839306Y-31225545D01*
X39780291Y-31407174D01*
X39749500Y-31601583D01*
X39749500Y-96901583D01*
X39749500Y-97098417D01*
X39780291Y-97292826D01*
X39841116Y-97480026D01*
X39930476Y-97655405D01*
X40046172Y-97814646D01*
X41943829Y-99712303D01*
X43837899Y-101606373D01*
X43867577Y-101648757D01*
X43869427Y-101652725D01*
X43869430Y-101652730D01*
X43869432Y-101652734D01*
X43869435Y-101652738D01*
X43869437Y-101652741D01*
X43999951Y-101839137D01*
X43999953Y-101839139D01*
X44160861Y-102000047D01*
X44347266Y-102130568D01*
X44553504Y-102226739D01*
X44773308Y-102285635D01*
X45000000Y-102305468D01*
X45226692Y-102285635D01*
X45446496Y-102226739D01*
X45652734Y-102130568D01*
X45839139Y-102000047D01*
X46000047Y-101839139D01*
X46130568Y-101652734D01*
X46226739Y-101446496D01*
X46285635Y-101226692D01*
X46305468Y-101000000D01*
X46285635Y-100773308D01*
X46226739Y-100553504D01*
X46130568Y-100347266D01*
X46122302Y-100335461D01*
X46095924Y-100262986D01*
X46109317Y-100187030D01*
X46122303Y-100164537D01*
X46130568Y-100152734D01*
X46226739Y-99946496D01*
X46285635Y-99726692D01*
X46305468Y-99500000D01*
X46285635Y-99273308D01*
X46226739Y-99053504D01*
X46130568Y-98847266D01*
X46122302Y-98835461D01*
X46095924Y-98762986D01*
X46109317Y-98687030D01*
X46122303Y-98664537D01*
X46130568Y-98652734D01*
X46226739Y-98446496D01*
X46285635Y-98226692D01*
X46305468Y-98000000D01*
X46285635Y-97773308D01*
X46226739Y-97553504D01*
X46130568Y-97347266D01*
X46000047Y-97160861D01*
X45839139Y-96999953D01*
X45839137Y-96999951D01*
X45652741Y-96869437D01*
X45652742Y-96869437D01*
X45652734Y-96869432D01*
X45652730Y-96869430D01*
X45652725Y-96869427D01*
X45648757Y-96867577D01*
X45606373Y-96837899D01*
X44294141Y-95525667D01*
X44255577Y-95458872D01*
X44250500Y-95420308D01*
X44250500Y-84000000D01*
X45444457Y-84000000D01*
X45464607Y-84320285D01*
X45464608Y-84320295D01*
X45483156Y-84417527D01*
X45524744Y-84635538D01*
X45623916Y-84940758D01*
X45722144Y-85149501D01*
X45760564Y-85231148D01*
X45914468Y-85473662D01*
X45932522Y-85502110D01*
X46137089Y-85749390D01*
X46371036Y-85969080D01*
X46578744Y-86119988D01*
X46630673Y-86157717D01*
X46788755Y-86244623D01*
X46911903Y-86312324D01*
X47210294Y-86430466D01*
X47521139Y-86510277D01*
X47839536Y-86550500D01*
X48160464Y-86550500D01*
X48478861Y-86510277D01*
X48789706Y-86430466D01*
X49088097Y-86312324D01*
X49369328Y-86157716D01*
X49628964Y-85969080D01*
X49862911Y-85749390D01*
X50067478Y-85502110D01*
X50239439Y-85231142D01*
X50376084Y-84940758D01*
X50475256Y-84635538D01*
X50535392Y-84320294D01*
X50555543Y-84000000D01*
X50535392Y-83679706D01*
X50475256Y-83364462D01*
X50376084Y-83059242D01*
X50239439Y-82768858D01*
X50220628Y-82739217D01*
X50115843Y-82574102D01*
X50067478Y-82497890D01*
X49862911Y-82250610D01*
X49628964Y-82030920D01*
X49421119Y-81879912D01*
X49369326Y-81842282D01*
X49088099Y-81687677D01*
X49088092Y-81687674D01*
X49073505Y-81681898D01*
X48789706Y-81569534D01*
X48478861Y-81489723D01*
X48478860Y-81489722D01*
X48478857Y-81489722D01*
X48160465Y-81449500D01*
X48160464Y-81449500D01*
X47839536Y-81449500D01*
X47839534Y-81449500D01*
X47521142Y-81489722D01*
X47210297Y-81569533D01*
X47210294Y-81569534D01*
X46911907Y-81687674D01*
X46911900Y-81687677D01*
X46630673Y-81842282D01*
X46371032Y-82030923D01*
X46137089Y-82250609D01*
X45932518Y-82497895D01*
X45760564Y-82768851D01*
X45623919Y-83059235D01*
X45623913Y-83059250D01*
X45524745Y-83364458D01*
X45464608Y-83679704D01*
X45464607Y-83679714D01*
X45444457Y-84000000D01*
X44250500Y-84000000D01*
X44250500Y-52000000D01*
X45444457Y-52000000D01*
X45461305Y-52267805D01*
X45464608Y-52320294D01*
X45491862Y-52463167D01*
X45524745Y-52635541D01*
X45607856Y-52891332D01*
X45623916Y-52940758D01*
X45711395Y-53126658D01*
X45760564Y-53231148D01*
X45887937Y-53431855D01*
X45932522Y-53502110D01*
X46137089Y-53749390D01*
X46371036Y-53969080D01*
X46578744Y-54119988D01*
X46630673Y-54157717D01*
X46769065Y-54233798D01*
X46911903Y-54312324D01*
X47210294Y-54430466D01*
X47521139Y-54510277D01*
X47839536Y-54550500D01*
X48160464Y-54550500D01*
X48478861Y-54510277D01*
X48789706Y-54430466D01*
X49088097Y-54312324D01*
X49369328Y-54157716D01*
X49628964Y-53969080D01*
X49862911Y-53749390D01*
X50067478Y-53502110D01*
X50239439Y-53231142D01*
X50376084Y-52940758D01*
X50475256Y-52635538D01*
X50535392Y-52320294D01*
X50555543Y-52000000D01*
X50535392Y-51679706D01*
X50475256Y-51364462D01*
X50376084Y-51059242D01*
X50239439Y-50768858D01*
X50067478Y-50497890D01*
X49862911Y-50250610D01*
X49628964Y-50030920D01*
X49410818Y-49872428D01*
X49369326Y-49842282D01*
X49088099Y-49687677D01*
X49088092Y-49687674D01*
X49073505Y-49681898D01*
X48789706Y-49569534D01*
X48478861Y-49489723D01*
X48478860Y-49489722D01*
X48478857Y-49489722D01*
X48160465Y-49449500D01*
X48160464Y-49449500D01*
X47839536Y-49449500D01*
X47839534Y-49449500D01*
X47521142Y-49489722D01*
X47210297Y-49569533D01*
X47210294Y-49569534D01*
X46911907Y-49687674D01*
X46911900Y-49687677D01*
X46630673Y-49842282D01*
X46371032Y-50030923D01*
X46137089Y-50250609D01*
X45932518Y-50497895D01*
X45760564Y-50768851D01*
X45623919Y-51059235D01*
X45623913Y-51059250D01*
X45539541Y-51318920D01*
X45524744Y-51364462D01*
X45518060Y-51399500D01*
X45464608Y-51679704D01*
X45464607Y-51679714D01*
X45444457Y-52000000D01*
X44250500Y-52000000D01*
X44250500Y-35079692D01*
X44270462Y-35005192D01*
X44294141Y-34974333D01*
X46474333Y-32794141D01*
X46541128Y-32755577D01*
X46579692Y-32750500D01*
X63520308Y-32750500D01*
X63594808Y-32770462D01*
X63625667Y-32794141D01*
X63755859Y-32924333D01*
X63794423Y-32991128D01*
X63799500Y-33029692D01*
X63799500Y-33200962D01*
X63821394Y-33339197D01*
X63838910Y-33449789D01*
X63840427Y-33454455D01*
X63844464Y-33531477D01*
X63809450Y-33600199D01*
X63744765Y-33642207D01*
X63698720Y-33649500D01*
X57298416Y-33649500D01*
X57101583Y-33649500D01*
X56907174Y-33680291D01*
X56719974Y-33741116D01*
X56719968Y-33741118D01*
X56719968Y-33741119D01*
X56544593Y-33830477D01*
X56385363Y-33946165D01*
X56385352Y-33946174D01*
X54546174Y-35785352D01*
X54546165Y-35785363D01*
X54430477Y-35944593D01*
X54341119Y-36119968D01*
X54341114Y-36119980D01*
X54328084Y-36160082D01*
X54289295Y-36279463D01*
X54280291Y-36307174D01*
X54249500Y-36501583D01*
X54249500Y-47001583D01*
X54249500Y-47198417D01*
X54280291Y-47392826D01*
X54341116Y-47580026D01*
X54430476Y-47755405D01*
X54546172Y-47914646D01*
X55246171Y-48614645D01*
X55246172Y-48614646D01*
X55385354Y-48753828D01*
X55544595Y-48869524D01*
X55719975Y-48958884D01*
X55821917Y-48992007D01*
X55907173Y-49019709D01*
X56101583Y-49050500D01*
X56663000Y-49050500D01*
X56737500Y-49070462D01*
X56792038Y-49125000D01*
X56812000Y-49199500D01*
X56812000Y-52357808D01*
X56792038Y-52432308D01*
X56768359Y-52463167D01*
X51646174Y-57585352D01*
X51646165Y-57585363D01*
X51530477Y-57744593D01*
X51441119Y-57919968D01*
X51441114Y-57919980D01*
X51410355Y-58014646D01*
X51380291Y-58107168D01*
X51371831Y-58160586D01*
X51349500Y-58301583D01*
X51349500Y-58301587D01*
X51349500Y-111220308D01*
X51329538Y-111294808D01*
X51305859Y-111325667D01*
X50125667Y-112505859D01*
X50058872Y-112544423D01*
X50020308Y-112549500D01*
X32399500Y-112549500D01*
X32325000Y-112529538D01*
X32270462Y-112475000D01*
X32250500Y-112400500D01*
X32250500Y-109451587D01*
X32250500Y-109451583D01*
X32219709Y-109257174D01*
X32212535Y-109235096D01*
X32199945Y-109196348D01*
X32158884Y-109069975D01*
X32069524Y-108894595D01*
X31953828Y-108735354D01*
X31814646Y-108596172D01*
X29864646Y-106646172D01*
X29705405Y-106530476D01*
X29530026Y-106441116D01*
X29342826Y-106380291D01*
X29148417Y-106349500D01*
X29148412Y-106349500D01*
X23248279Y-106349500D01*
X23173779Y-106329538D01*
X23163435Y-106322984D01*
X23069626Y-106257993D01*
X23069625Y-106257992D01*
X23069623Y-106257991D01*
X22864687Y-106164904D01*
X22719924Y-106128427D01*
X22646412Y-106109904D01*
X22646409Y-106109903D01*
X22646406Y-106109903D01*
X22586122Y-106105159D01*
X22514217Y-106099500D01*
X22514209Y-106099500D01*
X21485791Y-106099500D01*
X21485788Y-106099500D01*
X21485784Y-106099501D01*
X21440622Y-106103054D01*
X21353593Y-106109903D01*
X21353589Y-106109903D01*
X21353588Y-106109904D01*
X21327011Y-106116601D01*
X21135312Y-106164904D01*
X20930376Y-106257991D01*
X20745340Y-106386185D01*
X20744978Y-106386488D01*
X20744753Y-106386591D01*
X20739846Y-106389992D01*
X20739254Y-106389138D01*
X20674991Y-106418901D01*
X20598174Y-106411979D01*
X20535110Y-106367576D01*
X20502697Y-106297589D01*
X20500500Y-106272098D01*
X20500500Y-98000000D01*
X25444457Y-98000000D01*
X25464607Y-98320285D01*
X25464608Y-98320295D01*
X25473689Y-98367899D01*
X25517405Y-98597067D01*
X25524745Y-98635541D01*
X25561772Y-98749500D01*
X25623916Y-98940758D01*
X25676971Y-99053504D01*
X25760564Y-99231148D01*
X25855419Y-99380615D01*
X25932522Y-99502110D01*
X26137089Y-99749390D01*
X26371036Y-99969080D01*
X26578744Y-100119988D01*
X26630673Y-100157717D01*
X26788755Y-100244623D01*
X26911903Y-100312324D01*
X27210294Y-100430466D01*
X27521139Y-100510277D01*
X27839536Y-100550500D01*
X28160464Y-100550500D01*
X28478861Y-100510277D01*
X28789706Y-100430466D01*
X29088097Y-100312324D01*
X29369328Y-100157716D01*
X29628964Y-99969080D01*
X29862911Y-99749390D01*
X30067478Y-99502110D01*
X30239439Y-99231142D01*
X30376084Y-98940758D01*
X30475256Y-98635538D01*
X30535392Y-98320294D01*
X30555543Y-98000000D01*
X30535392Y-97679706D01*
X30475256Y-97364462D01*
X30376084Y-97059242D01*
X30239439Y-96768858D01*
X30224609Y-96745490D01*
X30085698Y-96526601D01*
X30067478Y-96497890D01*
X29862911Y-96250610D01*
X29628964Y-96030920D01*
X29414545Y-95875136D01*
X29369326Y-95842282D01*
X29088099Y-95687677D01*
X29088092Y-95687674D01*
X28919413Y-95620889D01*
X28789706Y-95569534D01*
X28478861Y-95489723D01*
X28478860Y-95489722D01*
X28478857Y-95489722D01*
X28160465Y-95449500D01*
X28160464Y-95449500D01*
X27839536Y-95449500D01*
X27839534Y-95449500D01*
X27521142Y-95489722D01*
X27210297Y-95569533D01*
X27210294Y-95569534D01*
X26911907Y-95687674D01*
X26911900Y-95687677D01*
X26630673Y-95842282D01*
X26371032Y-96030923D01*
X26137089Y-96250609D01*
X25932518Y-96497895D01*
X25760564Y-96768851D01*
X25623919Y-97059235D01*
X25623913Y-97059250D01*
X25524745Y-97364458D01*
X25464608Y-97679704D01*
X25464607Y-97679714D01*
X25444457Y-98000000D01*
X20500500Y-98000000D01*
X20500500Y-38000000D01*
X25444457Y-38000000D01*
X25464415Y-38317239D01*
X25464608Y-38320294D01*
X25524744Y-38635538D01*
X25623916Y-38940758D01*
X25711266Y-39126384D01*
X25760564Y-39231148D01*
X25831026Y-39342178D01*
X25932522Y-39502110D01*
X26137089Y-39749390D01*
X26371036Y-39969080D01*
X26578744Y-40119988D01*
X26630673Y-40157717D01*
X26774194Y-40236618D01*
X26911903Y-40312324D01*
X27210294Y-40430466D01*
X27521139Y-40510277D01*
X27839536Y-40550500D01*
X28160464Y-40550500D01*
X28478861Y-40510277D01*
X28789706Y-40430466D01*
X29088097Y-40312324D01*
X29369328Y-40157716D01*
X29628964Y-39969080D01*
X29862911Y-39749390D01*
X30067478Y-39502110D01*
X30239439Y-39231142D01*
X30376084Y-38940758D01*
X30475256Y-38635538D01*
X30535392Y-38320294D01*
X30555543Y-38000000D01*
X30535392Y-37679706D01*
X30475256Y-37364462D01*
X30376084Y-37059242D01*
X30239439Y-36768858D01*
X30067478Y-36497890D01*
X29862911Y-36250610D01*
X29628964Y-36030920D01*
X29422728Y-35881081D01*
X29369326Y-35842282D01*
X29088099Y-35687677D01*
X29088092Y-35687674D01*
X29073505Y-35681898D01*
X28789706Y-35569534D01*
X28478861Y-35489723D01*
X28478860Y-35489722D01*
X28478857Y-35489722D01*
X28160465Y-35449500D01*
X28160464Y-35449500D01*
X27839536Y-35449500D01*
X27839534Y-35449500D01*
X27521142Y-35489722D01*
X27210297Y-35569533D01*
X27210294Y-35569534D01*
X26911907Y-35687674D01*
X26911900Y-35687677D01*
X26630673Y-35842282D01*
X26371032Y-36030923D01*
X26137089Y-36250609D01*
X25932518Y-36497895D01*
X25760564Y-36768851D01*
X25623919Y-37059235D01*
X25623913Y-37059250D01*
X25524745Y-37364458D01*
X25524744Y-37364462D01*
X25515845Y-37411112D01*
X25464608Y-37679704D01*
X25464607Y-37679714D01*
X25444457Y-38000000D01*
X20500500Y-38000000D01*
X20500500Y-22417054D01*
X20520462Y-22342554D01*
X20575000Y-22288016D01*
X20649500Y-22268054D01*
X20718483Y-22284985D01*
X20769451Y-22311609D01*
X20965082Y-22367586D01*
X21084463Y-22378200D01*
X22419736Y-22378199D01*
X22539118Y-22367586D01*
X22734749Y-22311609D01*
X22915107Y-22217398D01*
X23072809Y-22088809D01*
X23201398Y-21931107D01*
X23295609Y-21750749D01*
X23351586Y-21555118D01*
X23362200Y-21435737D01*
X23362199Y-21318390D01*
X23382161Y-21243892D01*
X23405837Y-21213036D01*
X23574734Y-21044140D01*
X23641529Y-21005577D01*
X23680092Y-21000500D01*
X28470308Y-21000500D01*
X28544808Y-21020462D01*
X28575666Y-21044140D01*
X28646171Y-21114645D01*
X28646172Y-21114646D01*
X28785354Y-21253828D01*
X28944595Y-21369524D01*
X29119975Y-21458884D01*
X29246348Y-21499945D01*
X29307173Y-21519709D01*
X29371119Y-21529836D01*
X29441578Y-21561206D01*
X29453170Y-21571643D01*
X29595346Y-21713819D01*
X29780374Y-21842007D01*
X29780375Y-21842007D01*
X29780376Y-21842008D01*
X29985314Y-21935095D01*
X29985315Y-21935095D01*
X29985317Y-21935096D01*
X30059053Y-21953676D01*
X30126418Y-21991237D01*
X30165977Y-22057447D01*
X30167131Y-22134566D01*
X30129570Y-22201931D01*
X30128006Y-22203519D01*
X29953327Y-22378199D01*
X29796172Y-22535354D01*
X29796168Y-22535358D01*
X29796165Y-22535363D01*
X29680477Y-22694593D01*
X29680474Y-22694598D01*
X29590580Y-22871024D01*
X29589306Y-22875545D01*
X29530291Y-23057174D01*
X29499500Y-23251583D01*
X29499500Y-23251587D01*
X29499500Y-23450500D01*
X29479538Y-23525000D01*
X29425000Y-23579538D01*
X29350500Y-23599500D01*
X29029692Y-23599500D01*
X28955192Y-23579538D01*
X28924333Y-23555859D01*
X27887841Y-22519367D01*
X27849277Y-22452572D01*
X27848102Y-22447386D01*
X27847384Y-22444877D01*
X27791409Y-22249251D01*
X27697198Y-22068893D01*
X27697194Y-22068889D01*
X27697193Y-22068886D01*
X27568613Y-21911195D01*
X27568604Y-21911186D01*
X27410913Y-21782606D01*
X27410908Y-21782603D01*
X27410907Y-21782602D01*
X27324761Y-21737603D01*
X27230550Y-21688391D01*
X27034922Y-21632415D01*
X27034921Y-21632414D01*
X27034918Y-21632414D01*
X26915537Y-21621800D01*
X26915530Y-21621800D01*
X25580269Y-21621800D01*
X25520573Y-21627107D01*
X25460882Y-21632414D01*
X25460879Y-21632414D01*
X25460877Y-21632415D01*
X25265249Y-21688391D01*
X25084891Y-21782603D01*
X25084886Y-21782606D01*
X24927195Y-21911186D01*
X24927186Y-21911195D01*
X24798606Y-22068886D01*
X24798603Y-22068891D01*
X24704391Y-22249249D01*
X24648415Y-22444877D01*
X24648414Y-22444882D01*
X24637800Y-22564263D01*
X24637800Y-22564268D01*
X24637800Y-22564269D01*
X24637800Y-23239130D01*
X24638908Y-23251587D01*
X24648414Y-23358518D01*
X24648414Y-23358521D01*
X24648415Y-23358522D01*
X24704391Y-23554150D01*
X24704655Y-23554655D01*
X24787794Y-23713817D01*
X24798603Y-23734508D01*
X24798606Y-23734513D01*
X24927186Y-23892204D01*
X24927195Y-23892213D01*
X25084886Y-24020793D01*
X25084889Y-24020794D01*
X25084893Y-24020798D01*
X25265251Y-24115009D01*
X25460882Y-24170986D01*
X25580263Y-24181600D01*
X25951407Y-24181599D01*
X26025907Y-24201561D01*
X26056766Y-24225240D01*
X27496172Y-25664646D01*
X27635354Y-25803828D01*
X27794595Y-25919524D01*
X27969975Y-26008884D01*
X28096348Y-26049945D01*
X28157173Y-26069709D01*
X28351583Y-26100500D01*
X28548416Y-26100500D01*
X29370309Y-26100500D01*
X29444809Y-26120462D01*
X29475668Y-26144141D01*
X29595346Y-26263819D01*
X29780374Y-26392007D01*
X29780375Y-26392007D01*
X29780376Y-26392008D01*
X29985312Y-26485095D01*
X30022640Y-26494500D01*
X30203588Y-26540096D01*
X30335783Y-26550500D01*
X31164216Y-26550499D01*
X31296412Y-26540096D01*
X31514683Y-26485096D01*
X31514684Y-26485095D01*
X31514686Y-26485095D01*
X31688380Y-26406200D01*
X31764466Y-26393565D01*
X31811620Y-26406200D01*
X31985313Y-26485095D01*
X31985317Y-26485096D01*
X32203588Y-26540096D01*
X32335783Y-26550500D01*
X33164216Y-26550499D01*
X33296412Y-26540096D01*
X33514683Y-26485096D01*
X33514682Y-26485096D01*
X33514687Y-26485095D01*
X33688379Y-26406200D01*
X33719626Y-26392007D01*
X33904654Y-26263819D01*
X34063819Y-26104654D01*
X34192007Y-25919626D01*
X34244605Y-25803828D01*
X34285095Y-25714687D01*
X34297704Y-25664646D01*
X34340096Y-25496412D01*
X34350500Y-25364217D01*
X34350499Y-25079691D01*
X34370461Y-25005191D01*
X34394136Y-24974336D01*
X38074334Y-21294141D01*
X38141129Y-21255577D01*
X38179693Y-21250500D01*
X38401583Y-21250500D01*
X57870308Y-21250500D01*
X57944808Y-21270462D01*
X57975667Y-21294141D01*
X58930859Y-22249333D01*
X58969423Y-22316128D01*
X58974500Y-22354692D01*
X58974500Y-22814208D01*
X58974501Y-22814211D01*
X58984903Y-22946406D01*
X58984903Y-22946409D01*
X58984904Y-22946412D01*
X58987249Y-22955718D01*
X59039904Y-23164687D01*
X59132991Y-23369623D01*
X59132992Y-23369625D01*
X59132993Y-23369626D01*
X59261181Y-23554654D01*
X59420346Y-23713819D01*
X59605374Y-23842007D01*
X59605375Y-23842007D01*
X59605376Y-23842008D01*
X59810312Y-23935095D01*
X59847640Y-23944500D01*
X60028588Y-23990096D01*
X60160783Y-24000500D01*
X61539216Y-24000499D01*
X61671412Y-23990096D01*
X61889683Y-23935096D01*
X61889682Y-23935096D01*
X61889687Y-23935095D01*
X62031613Y-23870628D01*
X62094626Y-23842007D01*
X62279654Y-23713819D01*
X62438819Y-23554654D01*
X62567007Y-23369626D01*
X62620623Y-23251587D01*
X62660095Y-23164687D01*
X62660381Y-23163549D01*
X62715096Y-22946412D01*
X62725500Y-22814217D01*
X62725499Y-21985789D01*
X66074500Y-21985789D01*
X66074500Y-22814208D01*
X66074501Y-22814211D01*
X66084903Y-22946406D01*
X66084903Y-22946409D01*
X66084904Y-22946412D01*
X66087249Y-22955718D01*
X66139904Y-23164687D01*
X66232991Y-23369623D01*
X66232992Y-23369625D01*
X66232993Y-23369626D01*
X66361181Y-23554654D01*
X66520346Y-23713819D01*
X66705374Y-23842007D01*
X66705375Y-23842007D01*
X66705376Y-23842008D01*
X66910312Y-23935095D01*
X66947640Y-23944500D01*
X67128588Y-23990096D01*
X67260783Y-24000500D01*
X68639216Y-24000499D01*
X68771412Y-23990096D01*
X68989683Y-23935096D01*
X68989682Y-23935096D01*
X68989687Y-23935095D01*
X69131613Y-23870628D01*
X69194626Y-23842007D01*
X69379654Y-23713819D01*
X69538819Y-23554654D01*
X69667007Y-23369626D01*
X69720623Y-23251587D01*
X69760095Y-23164687D01*
X69760381Y-23163549D01*
X69815096Y-22946412D01*
X69825500Y-22814217D01*
X69825499Y-21985784D01*
X69815096Y-21853588D01*
X69760096Y-21635317D01*
X69760095Y-21635312D01*
X69667008Y-21430376D01*
X69667007Y-21430374D01*
X69538819Y-21245346D01*
X69379654Y-21086181D01*
X69194626Y-20957993D01*
X69194625Y-20957992D01*
X69194623Y-20957991D01*
X68989687Y-20864904D01*
X68844924Y-20828427D01*
X68771412Y-20809904D01*
X68771409Y-20809903D01*
X68771406Y-20809903D01*
X68711122Y-20805159D01*
X68639217Y-20799500D01*
X68639209Y-20799500D01*
X67260791Y-20799500D01*
X67260788Y-20799500D01*
X67260784Y-20799501D01*
X67215622Y-20803054D01*
X67128593Y-20809903D01*
X67128589Y-20809903D01*
X67128588Y-20809904D01*
X67091264Y-20819308D01*
X66910312Y-20864904D01*
X66705376Y-20957991D01*
X66520344Y-21086182D01*
X66361182Y-21245344D01*
X66232991Y-21430376D01*
X66139904Y-21635312D01*
X66084903Y-21853593D01*
X66074500Y-21985789D01*
X62725499Y-21985789D01*
X62725499Y-21985784D01*
X62715096Y-21853588D01*
X62660096Y-21635317D01*
X62660095Y-21635312D01*
X62567008Y-21430376D01*
X62567007Y-21430374D01*
X62438819Y-21245346D01*
X62279654Y-21086181D01*
X62094626Y-20957993D01*
X62094625Y-20957992D01*
X62094623Y-20957991D01*
X61889687Y-20864904D01*
X61744924Y-20828427D01*
X61671412Y-20809904D01*
X61671409Y-20809903D01*
X61671406Y-20809903D01*
X61606724Y-20804813D01*
X61539217Y-20799500D01*
X61539210Y-20799500D01*
X61079692Y-20799500D01*
X61005192Y-20779538D01*
X60974333Y-20755859D01*
X59973333Y-19754859D01*
X59934769Y-19688064D01*
X59934769Y-19610936D01*
X59973333Y-19544141D01*
X60040128Y-19505577D01*
X60078692Y-19500500D01*
X71350500Y-19500500D01*
X71425000Y-19520462D01*
G37*
%TD.AperFunction*%
%TA.AperFunction,Conductor*%
G36*
X82274583Y-76420462D02*
G01*
X82329121Y-76475000D01*
X82349083Y-76549500D01*
X82341790Y-76595544D01*
X82326597Y-76642299D01*
X82299500Y-76813392D01*
X82299500Y-85382439D01*
X82279538Y-85456939D01*
X82255859Y-85487798D01*
X81973535Y-85770122D01*
X81906740Y-85808686D01*
X81829612Y-85808686D01*
X81762817Y-85770122D01*
X81745698Y-85749616D01*
X81638820Y-85595347D01*
X81479655Y-85436182D01*
X81417900Y-85393398D01*
X81294626Y-85307993D01*
X81294625Y-85307992D01*
X81294623Y-85307991D01*
X81089687Y-85214904D01*
X80944924Y-85178427D01*
X80871412Y-85159904D01*
X80871409Y-85159903D01*
X80871406Y-85159903D01*
X80811122Y-85155159D01*
X80739217Y-85149500D01*
X80739209Y-85149500D01*
X79660791Y-85149500D01*
X79660788Y-85149500D01*
X79660784Y-85149501D01*
X79615622Y-85153054D01*
X79528593Y-85159903D01*
X79528589Y-85159903D01*
X79528588Y-85159904D01*
X79491264Y-85169308D01*
X79310312Y-85214904D01*
X79105376Y-85307991D01*
X78920344Y-85436182D01*
X78761182Y-85595344D01*
X78632991Y-85780376D01*
X78539904Y-85985312D01*
X78484903Y-86203593D01*
X78484496Y-86208768D01*
X78475550Y-86322450D01*
X78474500Y-86335789D01*
X78474500Y-87139208D01*
X78474501Y-87139211D01*
X78484903Y-87271409D01*
X78484903Y-87271410D01*
X78495659Y-87314095D01*
X78494505Y-87391214D01*
X78454945Y-87457424D01*
X78387580Y-87494984D01*
X78351175Y-87499500D01*
X77749500Y-87499500D01*
X77675000Y-87479538D01*
X77620462Y-87425000D01*
X77600500Y-87350500D01*
X77600500Y-79617560D01*
X77620462Y-79543060D01*
X77644141Y-79512201D01*
X80712201Y-76444141D01*
X80778996Y-76405577D01*
X80817560Y-76400500D01*
X82200083Y-76400500D01*
X82274583Y-76420462D01*
G37*
%TD.AperFunction*%
%TA.AperFunction,Conductor*%
G36*
X63594808Y-53370462D02*
G01*
X63625667Y-53394141D01*
X64465324Y-54233798D01*
X64503888Y-54300593D01*
X64503888Y-54377721D01*
X64492033Y-54408142D01*
X64456093Y-54476945D01*
X64456090Y-54476953D01*
X64413729Y-54625000D01*
X64400114Y-54672582D01*
X64389500Y-54791963D01*
X64389500Y-54791964D01*
X64389500Y-54791969D01*
X64389500Y-56608030D01*
X64393958Y-56658172D01*
X64400114Y-56727418D01*
X64400114Y-56727421D01*
X64400115Y-56727422D01*
X64456091Y-56923050D01*
X64461803Y-56933985D01*
X64549664Y-57102186D01*
X64550303Y-57103408D01*
X64550306Y-57103413D01*
X64678886Y-57261104D01*
X64678895Y-57261113D01*
X64836586Y-57389693D01*
X64836589Y-57389694D01*
X64836593Y-57389698D01*
X65016951Y-57483909D01*
X65212582Y-57539886D01*
X65331963Y-57550500D01*
X66533440Y-57550499D01*
X66607940Y-57570461D01*
X66662478Y-57624999D01*
X66682440Y-57699499D01*
X66662478Y-57773999D01*
X66638800Y-57804857D01*
X66587800Y-57855858D01*
X66521005Y-57894423D01*
X66482440Y-57899500D01*
X62586611Y-57899500D01*
X62413389Y-57899500D01*
X62347037Y-57910009D01*
X62242299Y-57926597D01*
X62077561Y-57980125D01*
X62077555Y-57980127D01*
X62077549Y-57980129D01*
X62077549Y-57980130D01*
X61923206Y-58058771D01*
X61783075Y-58160583D01*
X61783070Y-58160588D01*
X59708296Y-60235360D01*
X59641501Y-60273924D01*
X59564373Y-60273924D01*
X59508565Y-60241703D01*
X59506966Y-60243666D01*
X59343413Y-60110306D01*
X59343408Y-60110303D01*
X59343407Y-60110302D01*
X59251378Y-60062230D01*
X59163050Y-60016091D01*
X58967422Y-59960115D01*
X58967421Y-59960114D01*
X58967418Y-59960114D01*
X58848037Y-59949500D01*
X58848030Y-59949500D01*
X57131969Y-59949500D01*
X57072273Y-59954807D01*
X57012582Y-59960114D01*
X57012579Y-59960114D01*
X57012577Y-59960115D01*
X56816949Y-60016091D01*
X56636591Y-60110303D01*
X56636586Y-60110306D01*
X56478895Y-60238886D01*
X56478886Y-60238895D01*
X56350306Y-60396586D01*
X56350303Y-60396591D01*
X56256091Y-60576949D01*
X56211469Y-60732898D01*
X56200114Y-60772582D01*
X56189500Y-60891963D01*
X56189500Y-60891968D01*
X56189500Y-60891969D01*
X56189500Y-62608030D01*
X56189501Y-62608036D01*
X56200114Y-62727418D01*
X56200114Y-62727421D01*
X56200115Y-62727422D01*
X56256091Y-62923050D01*
X56350302Y-63103408D01*
X56429223Y-63200197D01*
X56460831Y-63270551D01*
X56453028Y-63347283D01*
X56442783Y-63368855D01*
X56363262Y-63506592D01*
X56363255Y-63506605D01*
X56264665Y-63757805D01*
X56264663Y-63757812D01*
X56204618Y-64020886D01*
X56204615Y-64020909D01*
X56184451Y-64289994D01*
X56184451Y-64290005D01*
X56204615Y-64559090D01*
X56204618Y-64559113D01*
X56264663Y-64822187D01*
X56264665Y-64822194D01*
X56363255Y-65073393D01*
X56363257Y-65073398D01*
X56498185Y-65307102D01*
X56498189Y-65307107D01*
X56625779Y-65467100D01*
X56656622Y-65537793D01*
X56647986Y-65614436D01*
X56625779Y-65652900D01*
X56498189Y-65812892D01*
X56498184Y-65812900D01*
X56363257Y-66046601D01*
X56363255Y-66046606D01*
X56264665Y-66297805D01*
X56264663Y-66297812D01*
X56204618Y-66560886D01*
X56204615Y-66560909D01*
X56184451Y-66829994D01*
X56184451Y-66830005D01*
X56204615Y-67099090D01*
X56204618Y-67099113D01*
X56264663Y-67362187D01*
X56264665Y-67362194D01*
X56363255Y-67613393D01*
X56363257Y-67613398D01*
X56498185Y-67847102D01*
X56498189Y-67847107D01*
X56620117Y-68000000D01*
X56666439Y-68058085D01*
X56864259Y-68241635D01*
X57087226Y-68393651D01*
X57330359Y-68510738D01*
X57588228Y-68590280D01*
X57855071Y-68630500D01*
X57855074Y-68630500D01*
X58124926Y-68630500D01*
X58124929Y-68630500D01*
X58391772Y-68590280D01*
X58649641Y-68510738D01*
X58685851Y-68493299D01*
X58761634Y-68478961D01*
X58834434Y-68504434D01*
X58884744Y-68562895D01*
X58899500Y-68627544D01*
X58899500Y-70112455D01*
X58879538Y-70186955D01*
X58825000Y-70241493D01*
X58750500Y-70261455D01*
X58685853Y-70246700D01*
X58649651Y-70229266D01*
X58649644Y-70229263D01*
X58649641Y-70229262D01*
X58649634Y-70229259D01*
X58649629Y-70229258D01*
X58391777Y-70149721D01*
X58391773Y-70149720D01*
X58124932Y-70109500D01*
X58124929Y-70109500D01*
X57855071Y-70109500D01*
X57855067Y-70109500D01*
X57588226Y-70149720D01*
X57588222Y-70149721D01*
X57330370Y-70229258D01*
X57330349Y-70229266D01*
X57087227Y-70346348D01*
X56864259Y-70498364D01*
X56666438Y-70681915D01*
X56498189Y-70892892D01*
X56498184Y-70892900D01*
X56363257Y-71126601D01*
X56363255Y-71126606D01*
X56264665Y-71377805D01*
X56264663Y-71377812D01*
X56204618Y-71640886D01*
X56204615Y-71640909D01*
X56184451Y-71909994D01*
X56184451Y-71910005D01*
X56204615Y-72179090D01*
X56204618Y-72179113D01*
X56264663Y-72442187D01*
X56264665Y-72442194D01*
X56363255Y-72693393D01*
X56363257Y-72693398D01*
X56498185Y-72927102D01*
X56498189Y-72927107D01*
X56625779Y-73087100D01*
X56656622Y-73157793D01*
X56647986Y-73234436D01*
X56625779Y-73272900D01*
X56498189Y-73432892D01*
X56498184Y-73432900D01*
X56363257Y-73666601D01*
X56363255Y-73666606D01*
X56264665Y-73917805D01*
X56264663Y-73917812D01*
X56204618Y-74180886D01*
X56204615Y-74180909D01*
X56184451Y-74449994D01*
X56184451Y-74450005D01*
X56204615Y-74719090D01*
X56204618Y-74719113D01*
X56264663Y-74982187D01*
X56264665Y-74982194D01*
X56347598Y-75193500D01*
X56363257Y-75233398D01*
X56498185Y-75467102D01*
X56498189Y-75467107D01*
X56625779Y-75627100D01*
X56656622Y-75697793D01*
X56647986Y-75774436D01*
X56625779Y-75812899D01*
X56609431Y-75833399D01*
X56547375Y-75879200D01*
X56492938Y-75889500D01*
X55923389Y-75889500D01*
X55857037Y-75900009D01*
X55752299Y-75916597D01*
X55589389Y-75969531D01*
X55587555Y-75970127D01*
X55502648Y-76013389D01*
X55433209Y-76048769D01*
X55293075Y-76150583D01*
X54104859Y-77338799D01*
X54038064Y-77377363D01*
X53960936Y-77377363D01*
X53894141Y-77338799D01*
X53855577Y-77272004D01*
X53850500Y-77233440D01*
X53850500Y-58979691D01*
X53870462Y-58905191D01*
X53894137Y-58874336D01*
X57068480Y-55699994D01*
X59304773Y-55699994D01*
X59304773Y-55700005D01*
X59323655Y-55964012D01*
X59323657Y-55964028D01*
X59379921Y-56222672D01*
X59379922Y-56222676D01*
X59379923Y-56222678D01*
X59472426Y-56470689D01*
X59499540Y-56520344D01*
X59599281Y-56703008D01*
X59629473Y-56743339D01*
X59757913Y-56914915D01*
X59945085Y-57102087D01*
X60067678Y-57193859D01*
X60156991Y-57260718D01*
X60273150Y-57324145D01*
X60389311Y-57387574D01*
X60637322Y-57480077D01*
X60895974Y-57536343D01*
X60895985Y-57536343D01*
X60895987Y-57536344D01*
X61159995Y-57555227D01*
X61160000Y-57555227D01*
X61160005Y-57555227D01*
X61424012Y-57536344D01*
X61424011Y-57536344D01*
X61424026Y-57536343D01*
X61682678Y-57480077D01*
X61930689Y-57387574D01*
X62133424Y-57276872D01*
X62163008Y-57260718D01*
X62163011Y-57260716D01*
X62374915Y-57102087D01*
X62562087Y-56914915D01*
X62720716Y-56703011D01*
X62847574Y-56470689D01*
X62940077Y-56222678D01*
X62996343Y-55964026D01*
X63015227Y-55700000D01*
X62996343Y-55435974D01*
X62940077Y-55177322D01*
X62847574Y-54929311D01*
X62772576Y-54791963D01*
X62720718Y-54696991D01*
X62643725Y-54594141D01*
X62562087Y-54485085D01*
X62374915Y-54297913D01*
X62187635Y-54157717D01*
X62163008Y-54139281D01*
X61988769Y-54044140D01*
X61930689Y-54012426D01*
X61682678Y-53919923D01*
X61682676Y-53919922D01*
X61682672Y-53919921D01*
X61424028Y-53863657D01*
X61424012Y-53863655D01*
X61160005Y-53844773D01*
X61159995Y-53844773D01*
X60895987Y-53863655D01*
X60895971Y-53863657D01*
X60637327Y-53919921D01*
X60637322Y-53919923D01*
X60389311Y-54012426D01*
X60389309Y-54012426D01*
X60389309Y-54012427D01*
X60156991Y-54139281D01*
X59945086Y-54297912D01*
X59757912Y-54485086D01*
X59599281Y-54696991D01*
X59472427Y-54929309D01*
X59379921Y-55177327D01*
X59323657Y-55435971D01*
X59323655Y-55435987D01*
X59304773Y-55699994D01*
X57068480Y-55699994D01*
X59016329Y-53752145D01*
X59132024Y-53592905D01*
X59214083Y-53431854D01*
X59265692Y-53374538D01*
X59339045Y-53350704D01*
X59346843Y-53350500D01*
X63520308Y-53350500D01*
X63594808Y-53370462D01*
G37*
%TD.AperFunction*%
%TA.AperFunction,Conductor*%
G36*
X89702118Y-60746895D02*
G01*
X89759692Y-60794355D01*
X89786000Y-60830565D01*
X89881758Y-60962365D01*
X90037635Y-61118242D01*
X90037638Y-61118244D01*
X90278012Y-61358618D01*
X90278019Y-61358626D01*
X90281758Y-61362365D01*
X90437635Y-61518242D01*
X90573464Y-61616927D01*
X90615975Y-61647813D01*
X90615976Y-61647814D01*
X90615978Y-61647815D01*
X90812394Y-61747895D01*
X90899512Y-61776201D01*
X91022043Y-61816014D01*
X91022048Y-61816014D01*
X91022049Y-61816015D01*
X91239778Y-61850500D01*
X98530219Y-61850500D01*
X98604719Y-61870462D01*
X98608055Y-61872447D01*
X98621141Y-61880466D01*
X98716269Y-61919869D01*
X98853886Y-61976872D01*
X98853887Y-61976872D01*
X98853889Y-61976873D01*
X98853892Y-61976873D01*
X98853900Y-61976876D01*
X98952303Y-62000500D01*
X99098852Y-62035683D01*
X99350000Y-62055449D01*
X99538813Y-62040588D01*
X99614645Y-62054643D01*
X99673294Y-62104734D01*
X99699041Y-62177438D01*
X99699500Y-62189129D01*
X99699500Y-74658176D01*
X99679538Y-74732676D01*
X99655859Y-74763535D01*
X98463535Y-75955859D01*
X98396740Y-75994423D01*
X98358176Y-75999500D01*
X95819781Y-75999500D01*
X95745281Y-75979538D01*
X95741928Y-75977543D01*
X95728859Y-75969534D01*
X95728856Y-75969533D01*
X95728855Y-75969532D01*
X95496113Y-75873127D01*
X95496099Y-75873123D01*
X95251158Y-75814319D01*
X95251151Y-75814317D01*
X95000000Y-75794551D01*
X94748848Y-75814317D01*
X94748841Y-75814319D01*
X94503900Y-75873123D01*
X94503886Y-75873127D01*
X94271145Y-75969531D01*
X94175880Y-76027910D01*
X94101928Y-76049815D01*
X94026931Y-76031809D01*
X93970984Y-75978718D01*
X93968991Y-75975367D01*
X93965966Y-75970127D01*
X93960329Y-75960364D01*
X93903817Y-75889500D01*
X93795627Y-75753833D01*
X93601984Y-75574160D01*
X93601982Y-75574158D01*
X93383721Y-75425350D01*
X93383717Y-75425348D01*
X93383714Y-75425346D01*
X93145715Y-75310733D01*
X93145710Y-75310732D01*
X92893298Y-75232872D01*
X92893294Y-75232871D01*
X92632084Y-75193500D01*
X92632081Y-75193500D01*
X92367919Y-75193500D01*
X92367915Y-75193500D01*
X92106705Y-75232871D01*
X92106701Y-75232872D01*
X91854289Y-75310732D01*
X91854284Y-75310733D01*
X91616285Y-75425346D01*
X91398015Y-75574160D01*
X91204372Y-75753833D01*
X91039675Y-75960358D01*
X91039672Y-75960362D01*
X91039671Y-75960364D01*
X91034378Y-75969532D01*
X90907590Y-76189135D01*
X90907588Y-76189140D01*
X90811079Y-76435037D01*
X90811077Y-76435044D01*
X90777534Y-76582010D01*
X90741495Y-76650200D01*
X90676189Y-76691235D01*
X90599115Y-76694119D01*
X90569302Y-76683895D01*
X90546496Y-76673261D01*
X90546494Y-76673260D01*
X90326692Y-76614365D01*
X90326693Y-76614365D01*
X90100000Y-76594532D01*
X89873306Y-76614365D01*
X89653505Y-76673260D01*
X89653498Y-76673263D01*
X89562969Y-76715477D01*
X89487012Y-76728870D01*
X89437031Y-76715477D01*
X89346501Y-76673263D01*
X89346494Y-76673260D01*
X89320930Y-76666410D01*
X89309420Y-76663326D01*
X89242626Y-76624763D01*
X89204062Y-76557968D01*
X89199553Y-76532397D01*
X89185635Y-76373308D01*
X89126739Y-76153504D01*
X89030568Y-75947266D01*
X89004326Y-75909789D01*
X88979216Y-75847636D01*
X88973402Y-75810928D01*
X88973399Y-75810918D01*
X88969689Y-75799499D01*
X88936642Y-75697793D01*
X88919873Y-75646182D01*
X88841232Y-75491840D01*
X88739414Y-75351700D01*
X88132614Y-74744900D01*
X87448300Y-74060586D01*
X87448290Y-74060579D01*
X87308165Y-73958771D01*
X87308162Y-73958769D01*
X87308160Y-73958768D01*
X87153817Y-73880127D01*
X87106193Y-73864653D01*
X86989072Y-73826597D01*
X86891458Y-73811137D01*
X86817983Y-73799500D01*
X86386611Y-73799500D01*
X80186611Y-73799500D01*
X80013389Y-73799500D01*
X79842299Y-73826598D01*
X79677554Y-73880127D01*
X79677548Y-73880129D01*
X79677548Y-73880130D01*
X79523210Y-73958769D01*
X79383081Y-74060579D01*
X79383070Y-74060588D01*
X77054859Y-76388799D01*
X76988064Y-76427363D01*
X76910936Y-76427363D01*
X76844141Y-76388799D01*
X76805577Y-76322004D01*
X76800500Y-76283440D01*
X76800500Y-70331825D01*
X85295305Y-70331825D01*
X85295305Y-70331826D01*
X85305492Y-70337017D01*
X85305494Y-70337018D01*
X85415000Y-70354362D01*
X85524504Y-70337018D01*
X85534693Y-70331825D01*
X87295305Y-70331825D01*
X87295305Y-70331826D01*
X87305492Y-70337017D01*
X87305494Y-70337018D01*
X87415000Y-70354362D01*
X87524504Y-70337018D01*
X87534693Y-70331825D01*
X89295305Y-70331825D01*
X89295305Y-70331826D01*
X89305492Y-70337017D01*
X89305494Y-70337018D01*
X89415000Y-70354362D01*
X89524504Y-70337018D01*
X89534693Y-70331825D01*
X91295305Y-70331825D01*
X91295305Y-70331826D01*
X91305492Y-70337017D01*
X91305494Y-70337018D01*
X91415000Y-70354362D01*
X91524504Y-70337018D01*
X91534693Y-70331825D01*
X93295305Y-70331825D01*
X93295305Y-70331826D01*
X93305492Y-70337017D01*
X93305494Y-70337018D01*
X93415000Y-70354362D01*
X93524504Y-70337018D01*
X93534693Y-70331825D01*
X93415000Y-70212132D01*
X93295305Y-70331825D01*
X91534693Y-70331825D01*
X91415000Y-70212132D01*
X91295305Y-70331825D01*
X89534693Y-70331825D01*
X89415000Y-70212132D01*
X89295305Y-70331825D01*
X87534693Y-70331825D01*
X87415000Y-70212132D01*
X87295305Y-70331825D01*
X85534693Y-70331825D01*
X85415000Y-70212132D01*
X85295305Y-70331825D01*
X76800500Y-70331825D01*
X76800500Y-69999996D01*
X85060637Y-69999996D01*
X85060637Y-70000003D01*
X85077980Y-70109500D01*
X85077981Y-70109506D01*
X85083172Y-70119693D01*
X85083173Y-70119693D01*
X85202868Y-70000000D01*
X85163086Y-69960218D01*
X85215000Y-69960218D01*
X85215000Y-70039782D01*
X85245448Y-70113291D01*
X85301709Y-70169552D01*
X85375218Y-70200000D01*
X85454782Y-70200000D01*
X85528291Y-70169552D01*
X85584552Y-70113291D01*
X85615000Y-70039782D01*
X85615000Y-69999999D01*
X85627132Y-69999999D01*
X85627132Y-70000000D01*
X85746825Y-70119693D01*
X85752018Y-70109504D01*
X85769362Y-70000000D01*
X85769361Y-69999996D01*
X87060637Y-69999996D01*
X87060637Y-70000003D01*
X87077980Y-70109500D01*
X87077981Y-70109506D01*
X87083172Y-70119693D01*
X87083173Y-70119693D01*
X87202868Y-70000000D01*
X87163086Y-69960218D01*
X87215000Y-69960218D01*
X87215000Y-70039782D01*
X87245448Y-70113291D01*
X87301709Y-70169552D01*
X87375218Y-70200000D01*
X87454782Y-70200000D01*
X87528291Y-70169552D01*
X87584552Y-70113291D01*
X87615000Y-70039782D01*
X87615000Y-69999999D01*
X87627132Y-69999999D01*
X87627132Y-70000000D01*
X87746825Y-70119693D01*
X87752018Y-70109504D01*
X87769362Y-70000000D01*
X87769361Y-69999996D01*
X89060637Y-69999996D01*
X89060637Y-70000003D01*
X89077980Y-70109500D01*
X89077981Y-70109506D01*
X89083172Y-70119693D01*
X89083173Y-70119693D01*
X89202868Y-70000000D01*
X89163086Y-69960218D01*
X89215000Y-69960218D01*
X89215000Y-70039782D01*
X89245448Y-70113291D01*
X89301709Y-70169552D01*
X89375218Y-70200000D01*
X89454782Y-70200000D01*
X89528291Y-70169552D01*
X89584552Y-70113291D01*
X89615000Y-70039782D01*
X89615000Y-69999999D01*
X89627132Y-69999999D01*
X89627132Y-70000000D01*
X89746825Y-70119693D01*
X89752018Y-70109504D01*
X89769362Y-70000000D01*
X89769361Y-69999996D01*
X91060637Y-69999996D01*
X91060637Y-70000003D01*
X91077980Y-70109500D01*
X91077981Y-70109506D01*
X91083172Y-70119693D01*
X91083173Y-70119693D01*
X91202868Y-70000000D01*
X91163086Y-69960218D01*
X91215000Y-69960218D01*
X91215000Y-70039782D01*
X91245448Y-70113291D01*
X91301709Y-70169552D01*
X91375218Y-70200000D01*
X91454782Y-70200000D01*
X91528291Y-70169552D01*
X91584552Y-70113291D01*
X91615000Y-70039782D01*
X91615000Y-69999999D01*
X91627132Y-69999999D01*
X91627132Y-70000000D01*
X91746825Y-70119693D01*
X91752018Y-70109504D01*
X91769362Y-70000000D01*
X91769361Y-69999996D01*
X93060637Y-69999996D01*
X93060637Y-70000003D01*
X93077980Y-70109500D01*
X93077981Y-70109506D01*
X93083172Y-70119693D01*
X93083173Y-70119693D01*
X93202868Y-70000000D01*
X93163086Y-69960218D01*
X93215000Y-69960218D01*
X93215000Y-70039782D01*
X93245448Y-70113291D01*
X93301709Y-70169552D01*
X93375218Y-70200000D01*
X93454782Y-70200000D01*
X93528291Y-70169552D01*
X93584552Y-70113291D01*
X93615000Y-70039782D01*
X93615000Y-69999999D01*
X93627132Y-69999999D01*
X93627132Y-70000000D01*
X93746825Y-70119693D01*
X93752018Y-70109504D01*
X93769362Y-70000000D01*
X93752018Y-69890494D01*
X93752017Y-69890492D01*
X93746826Y-69880305D01*
X93746825Y-69880305D01*
X93627132Y-69999999D01*
X93615000Y-69999999D01*
X93615000Y-69960218D01*
X93584552Y-69886709D01*
X93528291Y-69830448D01*
X93454782Y-69800000D01*
X93375218Y-69800000D01*
X93301709Y-69830448D01*
X93245448Y-69886709D01*
X93215000Y-69960218D01*
X93163086Y-69960218D01*
X93083173Y-69880305D01*
X93077980Y-69890498D01*
X93060637Y-69999996D01*
X91769361Y-69999996D01*
X91752018Y-69890494D01*
X91752017Y-69890492D01*
X91746826Y-69880305D01*
X91746825Y-69880305D01*
X91627132Y-69999999D01*
X91615000Y-69999999D01*
X91615000Y-69960218D01*
X91584552Y-69886709D01*
X91528291Y-69830448D01*
X91454782Y-69800000D01*
X91375218Y-69800000D01*
X91301709Y-69830448D01*
X91245448Y-69886709D01*
X91215000Y-69960218D01*
X91163086Y-69960218D01*
X91083173Y-69880305D01*
X91077980Y-69890498D01*
X91060637Y-69999996D01*
X89769361Y-69999996D01*
X89752018Y-69890494D01*
X89752017Y-69890492D01*
X89746826Y-69880305D01*
X89746825Y-69880305D01*
X89627132Y-69999999D01*
X89615000Y-69999999D01*
X89615000Y-69960218D01*
X89584552Y-69886709D01*
X89528291Y-69830448D01*
X89454782Y-69800000D01*
X89375218Y-69800000D01*
X89301709Y-69830448D01*
X89245448Y-69886709D01*
X89215000Y-69960218D01*
X89163086Y-69960218D01*
X89083173Y-69880305D01*
X89077980Y-69890498D01*
X89060637Y-69999996D01*
X87769361Y-69999996D01*
X87752018Y-69890494D01*
X87752017Y-69890492D01*
X87746826Y-69880305D01*
X87746825Y-69880305D01*
X87627132Y-69999999D01*
X87615000Y-69999999D01*
X87615000Y-69960218D01*
X87584552Y-69886709D01*
X87528291Y-69830448D01*
X87454782Y-69800000D01*
X87375218Y-69800000D01*
X87301709Y-69830448D01*
X87245448Y-69886709D01*
X87215000Y-69960218D01*
X87163086Y-69960218D01*
X87083173Y-69880305D01*
X87077980Y-69890498D01*
X87060637Y-69999996D01*
X85769361Y-69999996D01*
X85752018Y-69890494D01*
X85752017Y-69890492D01*
X85746826Y-69880305D01*
X85746825Y-69880305D01*
X85627132Y-69999999D01*
X85615000Y-69999999D01*
X85615000Y-69960218D01*
X85584552Y-69886709D01*
X85528291Y-69830448D01*
X85454782Y-69800000D01*
X85375218Y-69800000D01*
X85301709Y-69830448D01*
X85245448Y-69886709D01*
X85215000Y-69960218D01*
X85163086Y-69960218D01*
X85083173Y-69880305D01*
X85077980Y-69890498D01*
X85060637Y-69999996D01*
X76800500Y-69999996D01*
X76800500Y-69668173D01*
X85295305Y-69668173D01*
X85415000Y-69787868D01*
X85415001Y-69787868D01*
X85534693Y-69668173D01*
X87295305Y-69668173D01*
X87415000Y-69787868D01*
X87415001Y-69787868D01*
X87534693Y-69668173D01*
X89295305Y-69668173D01*
X89415000Y-69787868D01*
X89415001Y-69787868D01*
X89534693Y-69668173D01*
X91295305Y-69668173D01*
X91415000Y-69787868D01*
X91415001Y-69787868D01*
X91534693Y-69668173D01*
X93295305Y-69668173D01*
X93415000Y-69787868D01*
X93415001Y-69787868D01*
X93534693Y-69668173D01*
X93534693Y-69668172D01*
X93524506Y-69662981D01*
X93524501Y-69662980D01*
X93415003Y-69645637D01*
X93414997Y-69645637D01*
X93305498Y-69662980D01*
X93295305Y-69668173D01*
X91534693Y-69668173D01*
X91534693Y-69668172D01*
X91524506Y-69662981D01*
X91524501Y-69662980D01*
X91415003Y-69645637D01*
X91414997Y-69645637D01*
X91305498Y-69662980D01*
X91295305Y-69668173D01*
X89534693Y-69668173D01*
X89534693Y-69668172D01*
X89524506Y-69662981D01*
X89524501Y-69662980D01*
X89415003Y-69645637D01*
X89414997Y-69645637D01*
X89305498Y-69662980D01*
X89295305Y-69668173D01*
X87534693Y-69668173D01*
X87534693Y-69668172D01*
X87524506Y-69662981D01*
X87524501Y-69662980D01*
X87415003Y-69645637D01*
X87414997Y-69645637D01*
X87305498Y-69662980D01*
X87295305Y-69668173D01*
X85534693Y-69668173D01*
X85534693Y-69668172D01*
X85524506Y-69662981D01*
X85524501Y-69662980D01*
X85415003Y-69645637D01*
X85414997Y-69645637D01*
X85305498Y-69662980D01*
X85295305Y-69668173D01*
X76800500Y-69668173D01*
X76800500Y-68331825D01*
X85295305Y-68331825D01*
X85295305Y-68331826D01*
X85305492Y-68337017D01*
X85305494Y-68337018D01*
X85415000Y-68354362D01*
X85524504Y-68337018D01*
X85534693Y-68331825D01*
X87295305Y-68331825D01*
X87295305Y-68331826D01*
X87305492Y-68337017D01*
X87305494Y-68337018D01*
X87415000Y-68354362D01*
X87524504Y-68337018D01*
X87534693Y-68331825D01*
X89295305Y-68331825D01*
X89295305Y-68331826D01*
X89305492Y-68337017D01*
X89305494Y-68337018D01*
X89415000Y-68354362D01*
X89524504Y-68337018D01*
X89534693Y-68331825D01*
X91295305Y-68331825D01*
X91295305Y-68331826D01*
X91305492Y-68337017D01*
X91305494Y-68337018D01*
X91415000Y-68354362D01*
X91524504Y-68337018D01*
X91534693Y-68331825D01*
X93295305Y-68331825D01*
X93295305Y-68331826D01*
X93305492Y-68337017D01*
X93305494Y-68337018D01*
X93415000Y-68354362D01*
X93524504Y-68337018D01*
X93534693Y-68331825D01*
X93415000Y-68212132D01*
X93295305Y-68331825D01*
X91534693Y-68331825D01*
X91415000Y-68212132D01*
X91295305Y-68331825D01*
X89534693Y-68331825D01*
X89415000Y-68212132D01*
X89295305Y-68331825D01*
X87534693Y-68331825D01*
X87415000Y-68212132D01*
X87295305Y-68331825D01*
X85534693Y-68331825D01*
X85415000Y-68212132D01*
X85295305Y-68331825D01*
X76800500Y-68331825D01*
X76800500Y-67999996D01*
X85060637Y-67999996D01*
X85060637Y-68000003D01*
X85077980Y-68109501D01*
X85077981Y-68109506D01*
X85083172Y-68119693D01*
X85083173Y-68119693D01*
X85202868Y-68000000D01*
X85163086Y-67960218D01*
X85215000Y-67960218D01*
X85215000Y-68039782D01*
X85245448Y-68113291D01*
X85301709Y-68169552D01*
X85375218Y-68200000D01*
X85454782Y-68200000D01*
X85528291Y-68169552D01*
X85584552Y-68113291D01*
X85615000Y-68039782D01*
X85615000Y-67999999D01*
X85627132Y-67999999D01*
X85627132Y-68000000D01*
X85746825Y-68119693D01*
X85752018Y-68109504D01*
X85769362Y-68000000D01*
X85769361Y-67999996D01*
X87060637Y-67999996D01*
X87060637Y-68000003D01*
X87077980Y-68109501D01*
X87077981Y-68109506D01*
X87083172Y-68119693D01*
X87083173Y-68119693D01*
X87202868Y-68000000D01*
X87163086Y-67960218D01*
X87215000Y-67960218D01*
X87215000Y-68039782D01*
X87245448Y-68113291D01*
X87301709Y-68169552D01*
X87375218Y-68200000D01*
X87454782Y-68200000D01*
X87528291Y-68169552D01*
X87584552Y-68113291D01*
X87615000Y-68039782D01*
X87615000Y-67999999D01*
X87627132Y-67999999D01*
X87627132Y-68000000D01*
X87746825Y-68119693D01*
X87752018Y-68109504D01*
X87769362Y-68000000D01*
X87769361Y-67999996D01*
X89060637Y-67999996D01*
X89060637Y-68000003D01*
X89077980Y-68109501D01*
X89077981Y-68109506D01*
X89083172Y-68119693D01*
X89083173Y-68119693D01*
X89202868Y-68000000D01*
X89163086Y-67960218D01*
X89215000Y-67960218D01*
X89215000Y-68039782D01*
X89245448Y-68113291D01*
X89301709Y-68169552D01*
X89375218Y-68200000D01*
X89454782Y-68200000D01*
X89528291Y-68169552D01*
X89584552Y-68113291D01*
X89615000Y-68039782D01*
X89615000Y-67999999D01*
X89627132Y-67999999D01*
X89627132Y-68000000D01*
X89746825Y-68119693D01*
X89752018Y-68109504D01*
X89769362Y-68000000D01*
X89769361Y-67999996D01*
X91060637Y-67999996D01*
X91060637Y-68000003D01*
X91077980Y-68109501D01*
X91077981Y-68109506D01*
X91083172Y-68119693D01*
X91083173Y-68119693D01*
X91202868Y-68000000D01*
X91163086Y-67960218D01*
X91215000Y-67960218D01*
X91215000Y-68039782D01*
X91245448Y-68113291D01*
X91301709Y-68169552D01*
X91375218Y-68200000D01*
X91454782Y-68200000D01*
X91528291Y-68169552D01*
X91584552Y-68113291D01*
X91615000Y-68039782D01*
X91615000Y-67999999D01*
X91627132Y-67999999D01*
X91627132Y-68000000D01*
X91746825Y-68119693D01*
X91752018Y-68109504D01*
X91769362Y-68000000D01*
X91769361Y-67999996D01*
X93060637Y-67999996D01*
X93060637Y-68000003D01*
X93077980Y-68109501D01*
X93077981Y-68109506D01*
X93083172Y-68119693D01*
X93083173Y-68119693D01*
X93202868Y-68000000D01*
X93163086Y-67960218D01*
X93215000Y-67960218D01*
X93215000Y-68039782D01*
X93245448Y-68113291D01*
X93301709Y-68169552D01*
X93375218Y-68200000D01*
X93454782Y-68200000D01*
X93528291Y-68169552D01*
X93584552Y-68113291D01*
X93615000Y-68039782D01*
X93615000Y-67999999D01*
X93627132Y-67999999D01*
X93627132Y-68000000D01*
X93746825Y-68119693D01*
X93752018Y-68109504D01*
X93769362Y-68000000D01*
X93752018Y-67890494D01*
X93752017Y-67890492D01*
X93746826Y-67880305D01*
X93746825Y-67880305D01*
X93627132Y-67999999D01*
X93615000Y-67999999D01*
X93615000Y-67960218D01*
X93584552Y-67886709D01*
X93528291Y-67830448D01*
X93454782Y-67800000D01*
X93375218Y-67800000D01*
X93301709Y-67830448D01*
X93245448Y-67886709D01*
X93215000Y-67960218D01*
X93163086Y-67960218D01*
X93083173Y-67880305D01*
X93077980Y-67890498D01*
X93060637Y-67999996D01*
X91769361Y-67999996D01*
X91752018Y-67890494D01*
X91752017Y-67890492D01*
X91746826Y-67880305D01*
X91746825Y-67880305D01*
X91627132Y-67999999D01*
X91615000Y-67999999D01*
X91615000Y-67960218D01*
X91584552Y-67886709D01*
X91528291Y-67830448D01*
X91454782Y-67800000D01*
X91375218Y-67800000D01*
X91301709Y-67830448D01*
X91245448Y-67886709D01*
X91215000Y-67960218D01*
X91163086Y-67960218D01*
X91083173Y-67880305D01*
X91077980Y-67890498D01*
X91060637Y-67999996D01*
X89769361Y-67999996D01*
X89752018Y-67890494D01*
X89752017Y-67890492D01*
X89746826Y-67880305D01*
X89746825Y-67880305D01*
X89627132Y-67999999D01*
X89615000Y-67999999D01*
X89615000Y-67960218D01*
X89584552Y-67886709D01*
X89528291Y-67830448D01*
X89454782Y-67800000D01*
X89375218Y-67800000D01*
X89301709Y-67830448D01*
X89245448Y-67886709D01*
X89215000Y-67960218D01*
X89163086Y-67960218D01*
X89083173Y-67880305D01*
X89077980Y-67890498D01*
X89060637Y-67999996D01*
X87769361Y-67999996D01*
X87752018Y-67890494D01*
X87752017Y-67890492D01*
X87746826Y-67880305D01*
X87746825Y-67880305D01*
X87627132Y-67999999D01*
X87615000Y-67999999D01*
X87615000Y-67960218D01*
X87584552Y-67886709D01*
X87528291Y-67830448D01*
X87454782Y-67800000D01*
X87375218Y-67800000D01*
X87301709Y-67830448D01*
X87245448Y-67886709D01*
X87215000Y-67960218D01*
X87163086Y-67960218D01*
X87083173Y-67880305D01*
X87077980Y-67890498D01*
X87060637Y-67999996D01*
X85769361Y-67999996D01*
X85752018Y-67890494D01*
X85752017Y-67890492D01*
X85746826Y-67880305D01*
X85746825Y-67880305D01*
X85627132Y-67999999D01*
X85615000Y-67999999D01*
X85615000Y-67960218D01*
X85584552Y-67886709D01*
X85528291Y-67830448D01*
X85454782Y-67800000D01*
X85375218Y-67800000D01*
X85301709Y-67830448D01*
X85245448Y-67886709D01*
X85215000Y-67960218D01*
X85163086Y-67960218D01*
X85083173Y-67880305D01*
X85077980Y-67890498D01*
X85060637Y-67999996D01*
X76800500Y-67999996D01*
X76800500Y-67668173D01*
X85295305Y-67668173D01*
X85415000Y-67787868D01*
X85415001Y-67787868D01*
X85534693Y-67668173D01*
X87295305Y-67668173D01*
X87415000Y-67787868D01*
X87415001Y-67787868D01*
X87534693Y-67668173D01*
X89295305Y-67668173D01*
X89415000Y-67787868D01*
X89415001Y-67787868D01*
X89534693Y-67668173D01*
X91295305Y-67668173D01*
X91415000Y-67787868D01*
X91415001Y-67787868D01*
X91534693Y-67668173D01*
X93295305Y-67668173D01*
X93415000Y-67787868D01*
X93415001Y-67787868D01*
X93534693Y-67668173D01*
X93534693Y-67668172D01*
X93524506Y-67662981D01*
X93524501Y-67662980D01*
X93415003Y-67645637D01*
X93414997Y-67645637D01*
X93305498Y-67662980D01*
X93295305Y-67668173D01*
X91534693Y-67668173D01*
X91534693Y-67668172D01*
X91524506Y-67662981D01*
X91524501Y-67662980D01*
X91415003Y-67645637D01*
X91414997Y-67645637D01*
X91305498Y-67662980D01*
X91295305Y-67668173D01*
X89534693Y-67668173D01*
X89534693Y-67668172D01*
X89524506Y-67662981D01*
X89524501Y-67662980D01*
X89415003Y-67645637D01*
X89414997Y-67645637D01*
X89305498Y-67662980D01*
X89295305Y-67668173D01*
X87534693Y-67668173D01*
X87534693Y-67668172D01*
X87524506Y-67662981D01*
X87524501Y-67662980D01*
X87415003Y-67645637D01*
X87414997Y-67645637D01*
X87305498Y-67662980D01*
X87295305Y-67668173D01*
X85534693Y-67668173D01*
X85534693Y-67668172D01*
X85524506Y-67662981D01*
X85524501Y-67662980D01*
X85415003Y-67645637D01*
X85414997Y-67645637D01*
X85305498Y-67662980D01*
X85295305Y-67668173D01*
X76800500Y-67668173D01*
X76800500Y-66331825D01*
X85295305Y-66331825D01*
X85295305Y-66331826D01*
X85305492Y-66337017D01*
X85305494Y-66337018D01*
X85415000Y-66354362D01*
X85524504Y-66337018D01*
X85534693Y-66331825D01*
X87295305Y-66331825D01*
X87295305Y-66331826D01*
X87305492Y-66337017D01*
X87305494Y-66337018D01*
X87415000Y-66354362D01*
X87524504Y-66337018D01*
X87534693Y-66331825D01*
X89295305Y-66331825D01*
X89295305Y-66331826D01*
X89305492Y-66337017D01*
X89305494Y-66337018D01*
X89415000Y-66354362D01*
X89524504Y-66337018D01*
X89534693Y-66331825D01*
X91295305Y-66331825D01*
X91295305Y-66331826D01*
X91305492Y-66337017D01*
X91305494Y-66337018D01*
X91415000Y-66354362D01*
X91524504Y-66337018D01*
X91534693Y-66331825D01*
X93295305Y-66331825D01*
X93295305Y-66331826D01*
X93305492Y-66337017D01*
X93305494Y-66337018D01*
X93415000Y-66354362D01*
X93524504Y-66337018D01*
X93534693Y-66331825D01*
X93415000Y-66212132D01*
X93295305Y-66331825D01*
X91534693Y-66331825D01*
X91415000Y-66212132D01*
X91295305Y-66331825D01*
X89534693Y-66331825D01*
X89415000Y-66212132D01*
X89295305Y-66331825D01*
X87534693Y-66331825D01*
X87415000Y-66212132D01*
X87295305Y-66331825D01*
X85534693Y-66331825D01*
X85415000Y-66212132D01*
X85295305Y-66331825D01*
X76800500Y-66331825D01*
X76800500Y-65999996D01*
X85060637Y-65999996D01*
X85060637Y-66000003D01*
X85077980Y-66109501D01*
X85077981Y-66109506D01*
X85083172Y-66119693D01*
X85083173Y-66119693D01*
X85202868Y-66000000D01*
X85163086Y-65960218D01*
X85215000Y-65960218D01*
X85215000Y-66039782D01*
X85245448Y-66113291D01*
X85301709Y-66169552D01*
X85375218Y-66200000D01*
X85454782Y-66200000D01*
X85528291Y-66169552D01*
X85584552Y-66113291D01*
X85615000Y-66039782D01*
X85615000Y-65999999D01*
X85627132Y-65999999D01*
X85627132Y-66000000D01*
X85746825Y-66119693D01*
X85752018Y-66109504D01*
X85769362Y-66000000D01*
X85769361Y-65999996D01*
X87060637Y-65999996D01*
X87060637Y-66000003D01*
X87077980Y-66109501D01*
X87077981Y-66109506D01*
X87083172Y-66119693D01*
X87083173Y-66119693D01*
X87202868Y-66000000D01*
X87163086Y-65960218D01*
X87215000Y-65960218D01*
X87215000Y-66039782D01*
X87245448Y-66113291D01*
X87301709Y-66169552D01*
X87375218Y-66200000D01*
X87454782Y-66200000D01*
X87528291Y-66169552D01*
X87584552Y-66113291D01*
X87615000Y-66039782D01*
X87615000Y-65999999D01*
X87627132Y-65999999D01*
X87627132Y-66000000D01*
X87746825Y-66119693D01*
X87752018Y-66109504D01*
X87769362Y-66000000D01*
X87769361Y-65999996D01*
X89060637Y-65999996D01*
X89060637Y-66000003D01*
X89077980Y-66109501D01*
X89077981Y-66109506D01*
X89083172Y-66119693D01*
X89083173Y-66119693D01*
X89202868Y-66000000D01*
X89163086Y-65960218D01*
X89215000Y-65960218D01*
X89215000Y-66039782D01*
X89245448Y-66113291D01*
X89301709Y-66169552D01*
X89375218Y-66200000D01*
X89454782Y-66200000D01*
X89528291Y-66169552D01*
X89584552Y-66113291D01*
X89615000Y-66039782D01*
X89615000Y-65999999D01*
X89627132Y-65999999D01*
X89627132Y-66000000D01*
X89746825Y-66119693D01*
X89752018Y-66109504D01*
X89769362Y-66000000D01*
X89769361Y-65999996D01*
X91060637Y-65999996D01*
X91060637Y-66000003D01*
X91077980Y-66109501D01*
X91077981Y-66109506D01*
X91083172Y-66119693D01*
X91083173Y-66119693D01*
X91202868Y-66000000D01*
X91163086Y-65960218D01*
X91215000Y-65960218D01*
X91215000Y-66039782D01*
X91245448Y-66113291D01*
X91301709Y-66169552D01*
X91375218Y-66200000D01*
X91454782Y-66200000D01*
X91528291Y-66169552D01*
X91584552Y-66113291D01*
X91615000Y-66039782D01*
X91615000Y-65999999D01*
X91627132Y-65999999D01*
X91627132Y-66000000D01*
X91746825Y-66119693D01*
X91752018Y-66109504D01*
X91769362Y-66000000D01*
X91769361Y-65999996D01*
X93060637Y-65999996D01*
X93060637Y-66000003D01*
X93077980Y-66109501D01*
X93077981Y-66109506D01*
X93083172Y-66119693D01*
X93083173Y-66119693D01*
X93202868Y-66000000D01*
X93163086Y-65960218D01*
X93215000Y-65960218D01*
X93215000Y-66039782D01*
X93245448Y-66113291D01*
X93301709Y-66169552D01*
X93375218Y-66200000D01*
X93454782Y-66200000D01*
X93528291Y-66169552D01*
X93584552Y-66113291D01*
X93615000Y-66039782D01*
X93615000Y-65999999D01*
X93627132Y-65999999D01*
X93627132Y-66000000D01*
X93746825Y-66119693D01*
X93752018Y-66109504D01*
X93769362Y-66000000D01*
X93752018Y-65890494D01*
X93752017Y-65890492D01*
X93746826Y-65880305D01*
X93746825Y-65880305D01*
X93627132Y-65999999D01*
X93615000Y-65999999D01*
X93615000Y-65960218D01*
X93584552Y-65886709D01*
X93528291Y-65830448D01*
X93454782Y-65800000D01*
X93375218Y-65800000D01*
X93301709Y-65830448D01*
X93245448Y-65886709D01*
X93215000Y-65960218D01*
X93163086Y-65960218D01*
X93083173Y-65880305D01*
X93077980Y-65890498D01*
X93060637Y-65999996D01*
X91769361Y-65999996D01*
X91752018Y-65890494D01*
X91752017Y-65890492D01*
X91746826Y-65880305D01*
X91746825Y-65880305D01*
X91627132Y-65999999D01*
X91615000Y-65999999D01*
X91615000Y-65960218D01*
X91584552Y-65886709D01*
X91528291Y-65830448D01*
X91454782Y-65800000D01*
X91375218Y-65800000D01*
X91301709Y-65830448D01*
X91245448Y-65886709D01*
X91215000Y-65960218D01*
X91163086Y-65960218D01*
X91083173Y-65880305D01*
X91077980Y-65890498D01*
X91060637Y-65999996D01*
X89769361Y-65999996D01*
X89752018Y-65890494D01*
X89752017Y-65890492D01*
X89746826Y-65880305D01*
X89746825Y-65880305D01*
X89627132Y-65999999D01*
X89615000Y-65999999D01*
X89615000Y-65960218D01*
X89584552Y-65886709D01*
X89528291Y-65830448D01*
X89454782Y-65800000D01*
X89375218Y-65800000D01*
X89301709Y-65830448D01*
X89245448Y-65886709D01*
X89215000Y-65960218D01*
X89163086Y-65960218D01*
X89083173Y-65880305D01*
X89077980Y-65890498D01*
X89060637Y-65999996D01*
X87769361Y-65999996D01*
X87752018Y-65890494D01*
X87752017Y-65890492D01*
X87746826Y-65880305D01*
X87746825Y-65880305D01*
X87627132Y-65999999D01*
X87615000Y-65999999D01*
X87615000Y-65960218D01*
X87584552Y-65886709D01*
X87528291Y-65830448D01*
X87454782Y-65800000D01*
X87375218Y-65800000D01*
X87301709Y-65830448D01*
X87245448Y-65886709D01*
X87215000Y-65960218D01*
X87163086Y-65960218D01*
X87083173Y-65880305D01*
X87077980Y-65890498D01*
X87060637Y-65999996D01*
X85769361Y-65999996D01*
X85752018Y-65890494D01*
X85752017Y-65890492D01*
X85746826Y-65880305D01*
X85746825Y-65880305D01*
X85627132Y-65999999D01*
X85615000Y-65999999D01*
X85615000Y-65960218D01*
X85584552Y-65886709D01*
X85528291Y-65830448D01*
X85454782Y-65800000D01*
X85375218Y-65800000D01*
X85301709Y-65830448D01*
X85245448Y-65886709D01*
X85215000Y-65960218D01*
X85163086Y-65960218D01*
X85083173Y-65880305D01*
X85077980Y-65890498D01*
X85060637Y-65999996D01*
X76800500Y-65999996D01*
X76800500Y-65668173D01*
X85295305Y-65668173D01*
X85415000Y-65787868D01*
X85415001Y-65787868D01*
X85534693Y-65668173D01*
X87295305Y-65668173D01*
X87415000Y-65787868D01*
X87415001Y-65787868D01*
X87534693Y-65668173D01*
X89295305Y-65668173D01*
X89415000Y-65787868D01*
X89415001Y-65787868D01*
X89534693Y-65668173D01*
X91295305Y-65668173D01*
X91415000Y-65787868D01*
X91415001Y-65787868D01*
X91534693Y-65668173D01*
X93295305Y-65668173D01*
X93415000Y-65787868D01*
X93415001Y-65787868D01*
X93534693Y-65668173D01*
X93534693Y-65668172D01*
X93524506Y-65662981D01*
X93524501Y-65662980D01*
X93415003Y-65645637D01*
X93414997Y-65645637D01*
X93305498Y-65662980D01*
X93295305Y-65668173D01*
X91534693Y-65668173D01*
X91534693Y-65668172D01*
X91524506Y-65662981D01*
X91524501Y-65662980D01*
X91415003Y-65645637D01*
X91414997Y-65645637D01*
X91305498Y-65662980D01*
X91295305Y-65668173D01*
X89534693Y-65668173D01*
X89534693Y-65668172D01*
X89524506Y-65662981D01*
X89524501Y-65662980D01*
X89415003Y-65645637D01*
X89414997Y-65645637D01*
X89305498Y-65662980D01*
X89295305Y-65668173D01*
X87534693Y-65668173D01*
X87534693Y-65668172D01*
X87524506Y-65662981D01*
X87524501Y-65662980D01*
X87415003Y-65645637D01*
X87414997Y-65645637D01*
X87305498Y-65662980D01*
X87295305Y-65668173D01*
X85534693Y-65668173D01*
X85534693Y-65668172D01*
X85524506Y-65662981D01*
X85524501Y-65662980D01*
X85415003Y-65645637D01*
X85414997Y-65645637D01*
X85305498Y-65662980D01*
X85295305Y-65668173D01*
X76800500Y-65668173D01*
X76800500Y-63383246D01*
X76820462Y-63308746D01*
X76844141Y-63277887D01*
X77077887Y-63044141D01*
X77144682Y-63005577D01*
X77183246Y-63000500D01*
X78986607Y-63000500D01*
X78986611Y-63000500D01*
X79157701Y-62973402D01*
X79322445Y-62919873D01*
X79476788Y-62841232D01*
X79616928Y-62739414D01*
X80312201Y-62044141D01*
X80378996Y-62005577D01*
X80417560Y-62000500D01*
X87686607Y-62000500D01*
X87686611Y-62000500D01*
X87857701Y-61973402D01*
X88022445Y-61919873D01*
X88176788Y-61841232D01*
X88316928Y-61739414D01*
X89058588Y-60997752D01*
X89125377Y-60959191D01*
X89246496Y-60926739D01*
X89452734Y-60830568D01*
X89553687Y-60759879D01*
X89626162Y-60733502D01*
X89702118Y-60746895D01*
G37*
%TD.AperFunction*%
%TA.AperFunction,Conductor*%
G36*
X75587701Y-54570462D02*
G01*
X75618560Y-54594141D01*
X76956333Y-55931914D01*
X76994897Y-55998709D01*
X76994897Y-56075837D01*
X76956333Y-56142632D01*
X76912595Y-56172934D01*
X76780375Y-56232992D01*
X76595344Y-56361182D01*
X76436182Y-56520344D01*
X76307991Y-56705376D01*
X76214904Y-56910312D01*
X76159903Y-57128593D01*
X76154767Y-57193859D01*
X76149506Y-57260718D01*
X76149500Y-57260789D01*
X76149500Y-58250500D01*
X76129538Y-58325000D01*
X76075000Y-58379538D01*
X76000500Y-58399500D01*
X75285791Y-58399500D01*
X75285788Y-58399500D01*
X75285784Y-58399501D01*
X75245527Y-58402669D01*
X75153593Y-58409903D01*
X75153589Y-58409903D01*
X75153588Y-58409904D01*
X75116264Y-58419308D01*
X74935312Y-58464904D01*
X74730376Y-58557991D01*
X74545344Y-58686182D01*
X74386182Y-58845344D01*
X74257991Y-59030376D01*
X74164904Y-59235312D01*
X74109903Y-59453593D01*
X74099500Y-59585789D01*
X74099500Y-59933192D01*
X74079538Y-60007692D01*
X74025000Y-60062230D01*
X73950500Y-60082192D01*
X73895476Y-60069648D01*
X73894829Y-60071299D01*
X73889648Y-60069265D01*
X73889641Y-60069262D01*
X73889632Y-60069259D01*
X73889629Y-60069258D01*
X73631777Y-59989721D01*
X73631773Y-59989720D01*
X73364932Y-59949500D01*
X73364929Y-59949500D01*
X73095071Y-59949500D01*
X73095067Y-59949500D01*
X72828226Y-59989720D01*
X72828222Y-59989721D01*
X72570370Y-60069258D01*
X72570349Y-60069266D01*
X72327227Y-60186348D01*
X72104259Y-60338364D01*
X71906438Y-60521915D01*
X71738189Y-60732892D01*
X71738186Y-60732896D01*
X71738185Y-60732898D01*
X71715274Y-60772582D01*
X71603257Y-60966601D01*
X71603255Y-60966606D01*
X71504665Y-61217805D01*
X71504663Y-61217812D01*
X71444618Y-61480886D01*
X71444615Y-61480909D01*
X71424451Y-61749994D01*
X71424451Y-61750005D01*
X71444615Y-62019090D01*
X71444618Y-62019113D01*
X71504663Y-62282187D01*
X71504665Y-62282194D01*
X71580075Y-62474333D01*
X71603257Y-62533398D01*
X71738185Y-62767102D01*
X71906439Y-62978085D01*
X72104259Y-63161635D01*
X72327226Y-63313651D01*
X72570359Y-63430738D01*
X72828228Y-63510280D01*
X73095071Y-63550500D01*
X73095074Y-63550500D01*
X73364926Y-63550500D01*
X73364929Y-63550500D01*
X73628294Y-63510804D01*
X73704936Y-63519440D01*
X73766993Y-63565240D01*
X73797836Y-63635933D01*
X73799500Y-63658140D01*
X73799500Y-64921859D01*
X73779538Y-64996359D01*
X73725000Y-65050897D01*
X73650500Y-65070859D01*
X73628293Y-65069195D01*
X73364932Y-65029500D01*
X73364929Y-65029500D01*
X73095071Y-65029500D01*
X73095067Y-65029500D01*
X72828226Y-65069720D01*
X72828222Y-65069721D01*
X72570370Y-65149258D01*
X72570349Y-65149266D01*
X72327227Y-65266348D01*
X72104259Y-65418364D01*
X71906438Y-65601915D01*
X71738189Y-65812892D01*
X71738178Y-65812908D01*
X71726631Y-65832908D01*
X71672092Y-65887444D01*
X71597591Y-65907404D01*
X71523092Y-65887439D01*
X71492237Y-65863763D01*
X70294141Y-64665667D01*
X70255577Y-64598872D01*
X70250500Y-64560308D01*
X70250500Y-61901586D01*
X70247155Y-61880467D01*
X70241667Y-61845813D01*
X70219709Y-61707173D01*
X70190386Y-61616927D01*
X70158884Y-61519975D01*
X70069524Y-61344595D01*
X69953828Y-61185354D01*
X69814646Y-61046172D01*
X68962100Y-60193626D01*
X68932416Y-60151230D01*
X68930568Y-60147266D01*
X68800047Y-59960861D01*
X68639139Y-59799953D01*
X68639137Y-59799951D01*
X68452741Y-59669437D01*
X68452734Y-59669432D01*
X68452732Y-59669431D01*
X68452729Y-59669429D01*
X68259706Y-59579420D01*
X68200623Y-59529843D01*
X68174244Y-59457366D01*
X68187638Y-59381410D01*
X68217315Y-59339025D01*
X71992127Y-55564213D01*
X72058920Y-55525651D01*
X72136048Y-55525651D01*
X72136050Y-55525652D01*
X72173303Y-55535634D01*
X72173304Y-55535634D01*
X72173308Y-55535635D01*
X72400000Y-55555468D01*
X72626692Y-55535635D01*
X72846496Y-55476739D01*
X73052734Y-55380568D01*
X73239139Y-55250047D01*
X73400047Y-55089139D01*
X73530568Y-54902734D01*
X73626739Y-54696496D01*
X73636267Y-54660935D01*
X73674831Y-54594141D01*
X73741626Y-54555577D01*
X73780190Y-54550500D01*
X75513201Y-54550500D01*
X75587701Y-54570462D01*
G37*
%TD.AperFunction*%
%TA.AperFunction,Conductor*%
G36*
X63700000Y-36170462D02*
G01*
X63754538Y-36225000D01*
X63774500Y-36299500D01*
X63774500Y-37288200D01*
X63754538Y-37362700D01*
X63730859Y-37393559D01*
X63018560Y-38105859D01*
X62951765Y-38144423D01*
X62913201Y-38149500D01*
X60886799Y-38149500D01*
X60812299Y-38129538D01*
X60781440Y-38105859D01*
X60656640Y-37981059D01*
X60618076Y-37914264D01*
X60612999Y-37875700D01*
X60612999Y-36299500D01*
X60632961Y-36225000D01*
X60687499Y-36170462D01*
X60761999Y-36150500D01*
X63625500Y-36150500D01*
X63700000Y-36170462D01*
G37*
%TD.AperFunction*%
%TD*%
%TA.AperFunction,NonConductor*%
G36*
X21296207Y-19520462D02*
G01*
X21350745Y-19575000D01*
X21370707Y-19649500D01*
X21350745Y-19724000D01*
X21327063Y-19754862D01*
X21307162Y-19774762D01*
X21240366Y-19813324D01*
X21201807Y-19818400D01*
X21084469Y-19818400D01*
X21024773Y-19823707D01*
X20965082Y-19829014D01*
X20965079Y-19829014D01*
X20965077Y-19829015D01*
X20769449Y-19884991D01*
X20718486Y-19911613D01*
X20643210Y-19928412D01*
X20569619Y-19905323D01*
X20517432Y-19848531D01*
X20500500Y-19779545D01*
X20500500Y-19649500D01*
X20520462Y-19575000D01*
X20575000Y-19520462D01*
X20649500Y-19500500D01*
X21221707Y-19500500D01*
X21296207Y-19520462D01*
G37*
%TD.AperFunction*%
%TA.AperFunction,NonConductor*%
G36*
X33578617Y-21939572D02*
G01*
X33644827Y-21979131D01*
X33682388Y-22046495D01*
X33681234Y-22123615D01*
X33643263Y-22188261D01*
X33254090Y-22577434D01*
X33187295Y-22615998D01*
X33110167Y-22615998D01*
X33043372Y-22577434D01*
X33004808Y-22510639D01*
X33000298Y-22459088D01*
X33005468Y-22400000D01*
X32985635Y-22173308D01*
X32985634Y-22173307D01*
X32985068Y-22166827D01*
X32986761Y-22166678D01*
X32992716Y-22098550D01*
X33036950Y-22035367D01*
X33106849Y-22002765D01*
X33132735Y-22000499D01*
X33164209Y-22000499D01*
X33164216Y-22000499D01*
X33296412Y-21990096D01*
X33501499Y-21938418D01*
X33578617Y-21939572D01*
G37*
%TD.AperFunction*%
%TA.AperFunction,NonConductor*%
G36*
X67576570Y-38955553D02*
G01*
X67642322Y-38980077D01*
X67900974Y-39036343D01*
X67900985Y-39036343D01*
X67900987Y-39036344D01*
X68164995Y-39055227D01*
X68165000Y-39055227D01*
X68165005Y-39055227D01*
X68429012Y-39036344D01*
X68429011Y-39036344D01*
X68429026Y-39036343D01*
X68687678Y-38980077D01*
X68741791Y-38959894D01*
X68793860Y-38950500D01*
X69213201Y-38950500D01*
X69287701Y-38970462D01*
X69318560Y-38994141D01*
X69499618Y-39175199D01*
X69538182Y-39241994D01*
X69538182Y-39319122D01*
X69529920Y-39342178D01*
X69464904Y-39485313D01*
X69409903Y-39703593D01*
X69408678Y-39719161D01*
X69402153Y-39802081D01*
X69399500Y-39835789D01*
X69399500Y-42964208D01*
X69399501Y-42964211D01*
X69409903Y-43096406D01*
X69409903Y-43096409D01*
X69409904Y-43096412D01*
X69428427Y-43169924D01*
X69464904Y-43314687D01*
X69557991Y-43519623D01*
X69686182Y-43704655D01*
X69776168Y-43794641D01*
X69814732Y-43861436D01*
X69814732Y-43938564D01*
X69776168Y-44005359D01*
X69686182Y-44095344D01*
X69557991Y-44280376D01*
X69464904Y-44485312D01*
X69409903Y-44703593D01*
X69399500Y-44835789D01*
X69399500Y-47964208D01*
X69399500Y-47964210D01*
X69399501Y-47964216D01*
X69409306Y-48088811D01*
X69395250Y-48164648D01*
X69345158Y-48223296D01*
X69272454Y-48249041D01*
X69260765Y-48249500D01*
X68686799Y-48249500D01*
X68612299Y-48229538D01*
X68581440Y-48205859D01*
X67419141Y-47043560D01*
X67380577Y-46976765D01*
X67375500Y-46938201D01*
X67375500Y-39095158D01*
X67395462Y-39020658D01*
X67450000Y-38966120D01*
X67524500Y-38946158D01*
X67576570Y-38955553D01*
G37*
%TD.AperFunction*%
%TA.AperFunction,NonConductor*%
G36*
X56974000Y-38819753D02*
G01*
X57028538Y-38874291D01*
X57043423Y-38910228D01*
X57074815Y-39027387D01*
X57101340Y-39126383D01*
X57101340Y-39126384D01*
X57189158Y-39338392D01*
X57303891Y-39537115D01*
X57303892Y-39537117D01*
X57349894Y-39597066D01*
X57349895Y-39597069D01*
X57349896Y-39597069D01*
X57443580Y-39719161D01*
X58943339Y-41218920D01*
X59034362Y-41288764D01*
X59034363Y-41288766D01*
X59125385Y-41358609D01*
X59125388Y-41358611D01*
X59224750Y-41415977D01*
X59324107Y-41473342D01*
X59324108Y-41473343D01*
X59324109Y-41473343D01*
X59324112Y-41473345D01*
X59474019Y-41535438D01*
X59536113Y-41561158D01*
X59574779Y-41571518D01*
X59574780Y-41571519D01*
X59613448Y-41581880D01*
X59757761Y-41620549D01*
X59961557Y-41647378D01*
X59985266Y-41650500D01*
X59985267Y-41650500D01*
X63725500Y-41650500D01*
X63800000Y-41670462D01*
X63854538Y-41725000D01*
X63874500Y-41799500D01*
X63874500Y-47839739D01*
X63898941Y-48025384D01*
X63902686Y-48053826D01*
X63904452Y-48067239D01*
X63904452Y-48067241D01*
X63963840Y-48288883D01*
X63963840Y-48288884D01*
X63984269Y-48338203D01*
X64051290Y-48500005D01*
X64051658Y-48500892D01*
X64070299Y-48533180D01*
X64166389Y-48699612D01*
X64236235Y-48790636D01*
X64236236Y-48790637D01*
X64296767Y-48869525D01*
X64306080Y-48881661D01*
X66743339Y-51318920D01*
X66802691Y-51364462D01*
X66925385Y-51458609D01*
X67019700Y-51513062D01*
X67019704Y-51513064D01*
X67124112Y-51573345D01*
X67132623Y-51576870D01*
X67193814Y-51623821D01*
X67223332Y-51695077D01*
X67213267Y-51771546D01*
X67204645Y-51789029D01*
X67073260Y-52016595D01*
X67073255Y-52016606D01*
X66974665Y-52267805D01*
X66974663Y-52267812D01*
X66914618Y-52530886D01*
X66914615Y-52530908D01*
X66895997Y-52779357D01*
X66870524Y-52852157D01*
X66812063Y-52902466D01*
X66736279Y-52916805D01*
X66663479Y-52891332D01*
X66642055Y-52873581D01*
X65785069Y-52016595D01*
X64914646Y-51146172D01*
X64755405Y-51030476D01*
X64580026Y-50941116D01*
X64392826Y-50880291D01*
X64198417Y-50849500D01*
X64198412Y-50849500D01*
X59462000Y-50849500D01*
X59387500Y-50829538D01*
X59332962Y-50775000D01*
X59313000Y-50700500D01*
X59313000Y-48405849D01*
X59329241Y-48338203D01*
X59358882Y-48280029D01*
X59358882Y-48280028D01*
X59358884Y-48280025D01*
X59419709Y-48092826D01*
X59450500Y-47898417D01*
X59450500Y-47701583D01*
X59419709Y-47507174D01*
X59358884Y-47319975D01*
X59269524Y-47144595D01*
X59153828Y-46985354D01*
X59014646Y-46846172D01*
X58855405Y-46730476D01*
X58843996Y-46724663D01*
X58680030Y-46641118D01*
X58680024Y-46641115D01*
X58604544Y-46616590D01*
X58587620Y-46609923D01*
X58509001Y-46573263D01*
X58508994Y-46573260D01*
X58289192Y-46514365D01*
X58289193Y-46514365D01*
X58062500Y-46494532D01*
X57835806Y-46514365D01*
X57723630Y-46544423D01*
X57685066Y-46549500D01*
X56899500Y-46549500D01*
X56825000Y-46529538D01*
X56770462Y-46475000D01*
X56750500Y-46400500D01*
X56750500Y-38948791D01*
X56770462Y-38874291D01*
X56825000Y-38819753D01*
X56899500Y-38799791D01*
X56974000Y-38819753D01*
G37*
%TD.AperFunction*%
%TA.AperFunction,NonConductor*%
G36*
X68275443Y-54553251D02*
G01*
X68298228Y-54560280D01*
X68565071Y-54600500D01*
X68565074Y-54600500D01*
X68834926Y-54600500D01*
X68834929Y-54600500D01*
X69101772Y-54560280D01*
X69108524Y-54558197D01*
X69112014Y-54557121D01*
X69155936Y-54550500D01*
X69533440Y-54550500D01*
X69607940Y-54570462D01*
X69662478Y-54625000D01*
X69682440Y-54699500D01*
X69662478Y-54774000D01*
X69638799Y-54804859D01*
X68344858Y-56098799D01*
X68278063Y-56137363D01*
X68200935Y-56137363D01*
X68134140Y-56098799D01*
X68095576Y-56032004D01*
X68090499Y-55993440D01*
X68090499Y-54791970D01*
X68090499Y-54791969D01*
X68090499Y-54791964D01*
X68083107Y-54708821D01*
X68096394Y-54632851D01*
X68145888Y-54573698D01*
X68218327Y-54547216D01*
X68275443Y-54553251D01*
G37*
%TD.AperFunction*%
%TA.AperFunction,NonConductor*%
G36*
X85995808Y-56470462D02*
G01*
X86050346Y-56525000D01*
X86070308Y-56599500D01*
X86050346Y-56674000D01*
X86026667Y-56704859D01*
X85537667Y-57193859D01*
X85470872Y-57232423D01*
X85432308Y-57237500D01*
X85367915Y-57237500D01*
X85106705Y-57276871D01*
X85106701Y-57276872D01*
X84854289Y-57354732D01*
X84854284Y-57354733D01*
X84616285Y-57469346D01*
X84616279Y-57469349D01*
X84616279Y-57469350D01*
X84600544Y-57480078D01*
X84398015Y-57618160D01*
X84204372Y-57797833D01*
X84039675Y-58004358D01*
X84039670Y-58004366D01*
X83907590Y-58233135D01*
X83907588Y-58233140D01*
X83811079Y-58479037D01*
X83811077Y-58479044D01*
X83752298Y-58736575D01*
X83752298Y-58736579D01*
X83742927Y-58861634D01*
X83717454Y-58934434D01*
X83658993Y-58984744D01*
X83594344Y-58999500D01*
X79350701Y-58999500D01*
X79276201Y-58979538D01*
X79221663Y-58925000D01*
X79201701Y-58850500D01*
X79215040Y-58788880D01*
X79260095Y-58689687D01*
X79260978Y-58686181D01*
X79315096Y-58471412D01*
X79325500Y-58339217D01*
X79325499Y-57260784D01*
X79315096Y-57128588D01*
X79266060Y-56933985D01*
X79260095Y-56910312D01*
X79167008Y-56705376D01*
X79165367Y-56703008D01*
X79152443Y-56684353D01*
X79126426Y-56611747D01*
X79140197Y-56535858D01*
X79190068Y-56477022D01*
X79262675Y-56451004D01*
X79274922Y-56450500D01*
X85921308Y-56450500D01*
X85995808Y-56470462D01*
G37*
%TD.AperFunction*%
%TA.AperFunction,NonConductor*%
G36*
X89131000Y-79620462D02*
G01*
X89185538Y-79675000D01*
X89205500Y-79749500D01*
X89205500Y-80480186D01*
X89185538Y-80554686D01*
X89131000Y-80609224D01*
X89118121Y-80615847D01*
X89080377Y-80632991D01*
X89074561Y-80636292D01*
X89073281Y-80634037D01*
X89012242Y-80655908D01*
X88936353Y-80642134D01*
X88925635Y-80635946D01*
X88925439Y-80636292D01*
X88919622Y-80632991D01*
X88881879Y-80615847D01*
X88822304Y-80566861D01*
X88795204Y-80494651D01*
X88794500Y-80480186D01*
X88794500Y-79749500D01*
X88814462Y-79675000D01*
X88869000Y-79620462D01*
X88943500Y-79600500D01*
X89056500Y-79600500D01*
X89131000Y-79620462D01*
G37*
%TD.AperFunction*%
%TA.AperFunction,NonConductor*%
G36*
X66531856Y-60120462D02*
G01*
X66586394Y-60175000D01*
X66606356Y-60249500D01*
X66592396Y-60312467D01*
X66574394Y-60351075D01*
X66573260Y-60353507D01*
X66514365Y-60573306D01*
X66494532Y-60800000D01*
X66514365Y-61026693D01*
X66538896Y-61118244D01*
X66573261Y-61246496D01*
X66669432Y-61452734D01*
X66669435Y-61452738D01*
X66669437Y-61452741D01*
X66799951Y-61639137D01*
X66799953Y-61639139D01*
X66960861Y-61800047D01*
X67147266Y-61930568D01*
X67151231Y-61932417D01*
X67193626Y-61962100D01*
X67705859Y-62474333D01*
X67744423Y-62541128D01*
X67749500Y-62579692D01*
X67749500Y-65041583D01*
X67749500Y-65238417D01*
X67780291Y-65432826D01*
X67841116Y-65620026D01*
X67930476Y-65795405D01*
X68046172Y-65954646D01*
X69737163Y-67645637D01*
X71382354Y-69290828D01*
X71420918Y-69357623D01*
X71425578Y-69385052D01*
X71444615Y-69639091D01*
X71444618Y-69639113D01*
X71504663Y-69902187D01*
X71504665Y-69902194D01*
X71586028Y-70109500D01*
X71603257Y-70153398D01*
X71738185Y-70387102D01*
X71738189Y-70387107D01*
X71865779Y-70547100D01*
X71896622Y-70617793D01*
X71887986Y-70694436D01*
X71865779Y-70732900D01*
X71738189Y-70892892D01*
X71738184Y-70892900D01*
X71603257Y-71126601D01*
X71603255Y-71126606D01*
X71504665Y-71377805D01*
X71504663Y-71377812D01*
X71444618Y-71640886D01*
X71444615Y-71640909D01*
X71424451Y-71909994D01*
X71424451Y-71910005D01*
X71444615Y-72179090D01*
X71444618Y-72179113D01*
X71504663Y-72442187D01*
X71504665Y-72442194D01*
X71603255Y-72693393D01*
X71603257Y-72693398D01*
X71738185Y-72927102D01*
X71738189Y-72927107D01*
X71865779Y-73087100D01*
X71896622Y-73157793D01*
X71887986Y-73234436D01*
X71865779Y-73272900D01*
X71738189Y-73432892D01*
X71738184Y-73432900D01*
X71603257Y-73666601D01*
X71603255Y-73666606D01*
X71504665Y-73917805D01*
X71504663Y-73917812D01*
X71444618Y-74180886D01*
X71444615Y-74180909D01*
X71424451Y-74449994D01*
X71424451Y-74450005D01*
X71444615Y-74719090D01*
X71444618Y-74719113D01*
X71504663Y-74982187D01*
X71504665Y-74982194D01*
X71587598Y-75193500D01*
X71603257Y-75233398D01*
X71738185Y-75467102D01*
X71738189Y-75467107D01*
X71865779Y-75627100D01*
X71896622Y-75697793D01*
X71887986Y-75774436D01*
X71865779Y-75812900D01*
X71738189Y-75972892D01*
X71738186Y-75972896D01*
X71738185Y-75972898D01*
X71714808Y-76013389D01*
X71603257Y-76206601D01*
X71603255Y-76206606D01*
X71504665Y-76457805D01*
X71504663Y-76457812D01*
X71444618Y-76720886D01*
X71444615Y-76720909D01*
X71424451Y-76989994D01*
X71424451Y-76990005D01*
X71444615Y-77259090D01*
X71444618Y-77259113D01*
X71504663Y-77522187D01*
X71504665Y-77522194D01*
X71532517Y-77593158D01*
X71603257Y-77773398D01*
X71738185Y-78007102D01*
X71738189Y-78007107D01*
X71865779Y-78167100D01*
X71896622Y-78237793D01*
X71887986Y-78314436D01*
X71865779Y-78352900D01*
X71738189Y-78512892D01*
X71738184Y-78512900D01*
X71603257Y-78746601D01*
X71603255Y-78746606D01*
X71504665Y-78997805D01*
X71504663Y-78997812D01*
X71444618Y-79260886D01*
X71444615Y-79260909D01*
X71424451Y-79529994D01*
X71424451Y-79530005D01*
X71444615Y-79799090D01*
X71444618Y-79799113D01*
X71504663Y-80062187D01*
X71504665Y-80062194D01*
X71603255Y-80313393D01*
X71603257Y-80313398D01*
X71738185Y-80547102D01*
X71738189Y-80547107D01*
X71865779Y-80707100D01*
X71896622Y-80777793D01*
X71887986Y-80854436D01*
X71865779Y-80892900D01*
X71738189Y-81052892D01*
X71738184Y-81052900D01*
X71603257Y-81286601D01*
X71603255Y-81286606D01*
X71504665Y-81537805D01*
X71504663Y-81537812D01*
X71444618Y-81800886D01*
X71444615Y-81800909D01*
X71424451Y-82069994D01*
X71424451Y-82070005D01*
X71444615Y-82339090D01*
X71444618Y-82339113D01*
X71504663Y-82602187D01*
X71504665Y-82602194D01*
X71561274Y-82746428D01*
X71603257Y-82853398D01*
X71738185Y-83087102D01*
X71738189Y-83087107D01*
X71865779Y-83247100D01*
X71896622Y-83317793D01*
X71887986Y-83394436D01*
X71865779Y-83432900D01*
X71738189Y-83592892D01*
X71738184Y-83592900D01*
X71603257Y-83826601D01*
X71603255Y-83826606D01*
X71504665Y-84077805D01*
X71504663Y-84077812D01*
X71444618Y-84340886D01*
X71444615Y-84340909D01*
X71424451Y-84609994D01*
X71424451Y-84610005D01*
X71444615Y-84879090D01*
X71444618Y-84879113D01*
X71504663Y-85142187D01*
X71504665Y-85142194D01*
X71598240Y-85380615D01*
X71603257Y-85393398D01*
X71738185Y-85627102D01*
X71738189Y-85627107D01*
X71865779Y-85787100D01*
X71896622Y-85857793D01*
X71887986Y-85934436D01*
X71865779Y-85972900D01*
X71738189Y-86132892D01*
X71738186Y-86132896D01*
X71738185Y-86132898D01*
X71723856Y-86157717D01*
X71603257Y-86366601D01*
X71603255Y-86366606D01*
X71504665Y-86617805D01*
X71504663Y-86617812D01*
X71444618Y-86880886D01*
X71444615Y-86880909D01*
X71424451Y-87149994D01*
X71424451Y-87150005D01*
X71444615Y-87419090D01*
X71444618Y-87419113D01*
X71504663Y-87682187D01*
X71504665Y-87682194D01*
X71544261Y-87783081D01*
X71603257Y-87933398D01*
X71738185Y-88167102D01*
X71738189Y-88167107D01*
X71865779Y-88327100D01*
X71896622Y-88397793D01*
X71887986Y-88474436D01*
X71865779Y-88512900D01*
X71738189Y-88672892D01*
X71738184Y-88672900D01*
X71603257Y-88906601D01*
X71603255Y-88906606D01*
X71504665Y-89157805D01*
X71504663Y-89157812D01*
X71444618Y-89420886D01*
X71444615Y-89420909D01*
X71424451Y-89689994D01*
X71424451Y-89690005D01*
X71444615Y-89959090D01*
X71444618Y-89959113D01*
X71504663Y-90222187D01*
X71504665Y-90222194D01*
X71595900Y-90454654D01*
X71603257Y-90473398D01*
X71738185Y-90707102D01*
X71738189Y-90707107D01*
X71865779Y-90867100D01*
X71896622Y-90937793D01*
X71887986Y-91014436D01*
X71865779Y-91052900D01*
X71738189Y-91212892D01*
X71738184Y-91212900D01*
X71603257Y-91446601D01*
X71603255Y-91446606D01*
X71504665Y-91697805D01*
X71504663Y-91697812D01*
X71444618Y-91960886D01*
X71444615Y-91960909D01*
X71424451Y-92229994D01*
X71424451Y-92230005D01*
X71444615Y-92499090D01*
X71444618Y-92499113D01*
X71504663Y-92762187D01*
X71504665Y-92762194D01*
X71603255Y-93013393D01*
X71603257Y-93013398D01*
X71738185Y-93247102D01*
X71738189Y-93247107D01*
X71865779Y-93407100D01*
X71896622Y-93477793D01*
X71887986Y-93554436D01*
X71865779Y-93592900D01*
X71738189Y-93752892D01*
X71738184Y-93752900D01*
X71603257Y-93986601D01*
X71603255Y-93986606D01*
X71504665Y-94237805D01*
X71504663Y-94237812D01*
X71444618Y-94500886D01*
X71444615Y-94500909D01*
X71424451Y-94769994D01*
X71424451Y-94770005D01*
X71444615Y-95039090D01*
X71444618Y-95039113D01*
X71504663Y-95302187D01*
X71504665Y-95302194D01*
X71566158Y-95458872D01*
X71603257Y-95553398D01*
X71738185Y-95787102D01*
X71738189Y-95787107D01*
X71865779Y-95947100D01*
X71896622Y-96017793D01*
X71887986Y-96094436D01*
X71865779Y-96132900D01*
X71738189Y-96292892D01*
X71738184Y-96292900D01*
X71603257Y-96526601D01*
X71603255Y-96526606D01*
X71504665Y-96777805D01*
X71504663Y-96777812D01*
X71444618Y-97040886D01*
X71444615Y-97040909D01*
X71424451Y-97309994D01*
X71424451Y-97310005D01*
X71444615Y-97579090D01*
X71444618Y-97579113D01*
X71476169Y-97717345D01*
X71473285Y-97794419D01*
X71432250Y-97859725D01*
X71364060Y-97895764D01*
X71330905Y-97899500D01*
X63017560Y-97899500D01*
X62943060Y-97879538D01*
X62912201Y-97855859D01*
X62144141Y-97087799D01*
X62105577Y-97021004D01*
X62100500Y-96982440D01*
X62100500Y-88413392D01*
X62100500Y-88413389D01*
X62073402Y-88242299D01*
X62067262Y-88223402D01*
X62019873Y-88077554D01*
X61941232Y-87923212D01*
X61839414Y-87783072D01*
X60366928Y-86310586D01*
X60360637Y-86306015D01*
X60226793Y-86208771D01*
X60226790Y-86208769D01*
X60226788Y-86208768D01*
X60072445Y-86130127D01*
X60024821Y-86114653D01*
X59907700Y-86076597D01*
X59810086Y-86061137D01*
X59736611Y-86049500D01*
X59736607Y-86049500D01*
X59487062Y-86049500D01*
X59412562Y-86029538D01*
X59370571Y-85993403D01*
X59370084Y-85992792D01*
X59354221Y-85972901D01*
X59323378Y-85902211D01*
X59332012Y-85825567D01*
X59354220Y-85787100D01*
X59481815Y-85627102D01*
X59616743Y-85393398D01*
X59715334Y-85142195D01*
X59725955Y-85095662D01*
X59775381Y-84879113D01*
X59775381Y-84879110D01*
X59775383Y-84879103D01*
X59775384Y-84879090D01*
X59795549Y-84610005D01*
X59795549Y-84609994D01*
X59775384Y-84340909D01*
X59775383Y-84340907D01*
X59775383Y-84340897D01*
X59775381Y-84340891D01*
X59775381Y-84340886D01*
X59715336Y-84077812D01*
X59715334Y-84077805D01*
X59655558Y-83925500D01*
X59616743Y-83826602D01*
X59481815Y-83592898D01*
X59354219Y-83432899D01*
X59323377Y-83362208D01*
X59332013Y-83285565D01*
X59354220Y-83247100D01*
X59379500Y-83215400D01*
X59481815Y-83087102D01*
X59616743Y-82853398D01*
X59715334Y-82602195D01*
X59745603Y-82469577D01*
X59775381Y-82339113D01*
X59775381Y-82339110D01*
X59775383Y-82339103D01*
X59775384Y-82339090D01*
X59795549Y-82070005D01*
X59795549Y-82069994D01*
X59775384Y-81800909D01*
X59775383Y-81800907D01*
X59775383Y-81800897D01*
X59775381Y-81800891D01*
X59775381Y-81800886D01*
X59715336Y-81537812D01*
X59715334Y-81537805D01*
X59696463Y-81489723D01*
X59616743Y-81286602D01*
X59481815Y-81052898D01*
X59354219Y-80892899D01*
X59323377Y-80822208D01*
X59332013Y-80745565D01*
X59354220Y-80707100D01*
X59368913Y-80688676D01*
X59481815Y-80547102D01*
X59616743Y-80313398D01*
X59715334Y-80062195D01*
X59775383Y-79799103D01*
X59788770Y-79620462D01*
X59795549Y-79530005D01*
X59795549Y-79529994D01*
X59775384Y-79260909D01*
X59775383Y-79260907D01*
X59775383Y-79260897D01*
X59775381Y-79260891D01*
X59775381Y-79260886D01*
X59715336Y-78997812D01*
X59715334Y-78997805D01*
X59687495Y-78926873D01*
X59616743Y-78746602D01*
X59481815Y-78512898D01*
X59354219Y-78352899D01*
X59323377Y-78282208D01*
X59332013Y-78205565D01*
X59354220Y-78167100D01*
X59481815Y-78007102D01*
X59616743Y-77773398D01*
X59715334Y-77522195D01*
X59757193Y-77338799D01*
X59775381Y-77259113D01*
X59775381Y-77259110D01*
X59775383Y-77259103D01*
X59795549Y-76990000D01*
X59782314Y-76813392D01*
X59775384Y-76720909D01*
X59775383Y-76720907D01*
X59775383Y-76720897D01*
X59775381Y-76720891D01*
X59775381Y-76720886D01*
X59715336Y-76457812D01*
X59715334Y-76457805D01*
X59682171Y-76373308D01*
X59616743Y-76206602D01*
X59481815Y-75972898D01*
X59354219Y-75812899D01*
X59323377Y-75742208D01*
X59332013Y-75665565D01*
X59354220Y-75627100D01*
X59396439Y-75574160D01*
X59464397Y-75488942D01*
X59513245Y-75449083D01*
X59626788Y-75391232D01*
X59766928Y-75289414D01*
X60839414Y-74216928D01*
X60941232Y-74076788D01*
X61019873Y-73922445D01*
X61073402Y-73757701D01*
X61100500Y-73586611D01*
X61100500Y-73413389D01*
X61100500Y-62017560D01*
X61120462Y-61943060D01*
X61144141Y-61912201D01*
X62912201Y-60144141D01*
X62978996Y-60105577D01*
X63017560Y-60100500D01*
X66457356Y-60100500D01*
X66531856Y-60120462D01*
G37*
%TD.AperFunction*%
%TA.AperFunction,NonConductor*%
G36*
X101455859Y-77135464D02*
G01*
X101494423Y-77202259D01*
X101499500Y-77240823D01*
X101499500Y-101350500D01*
X101479538Y-101425000D01*
X101425000Y-101479538D01*
X101350500Y-101499500D01*
X75716560Y-101499500D01*
X75642060Y-101479538D01*
X75587522Y-101425000D01*
X75567560Y-101350500D01*
X75587522Y-101276000D01*
X75611201Y-101245141D01*
X76083036Y-100773306D01*
X77739414Y-99116928D01*
X77841232Y-98976788D01*
X77919873Y-98822446D01*
X77945559Y-98743393D01*
X77987566Y-98678707D01*
X78056287Y-98643692D01*
X78133309Y-98647729D01*
X78197995Y-98689736D01*
X78219561Y-98720887D01*
X78243918Y-98767894D01*
X78243920Y-98767899D01*
X78344773Y-98910773D01*
X78405688Y-98997069D01*
X78552457Y-99154221D01*
X78597151Y-99202077D01*
X78597163Y-99202088D01*
X78732636Y-99312303D01*
X78814754Y-99379111D01*
X79054432Y-99524862D01*
X79311725Y-99636620D01*
X79581839Y-99712303D01*
X79859742Y-99750500D01*
X79859743Y-99750500D01*
X80140257Y-99750500D01*
X80140258Y-99750500D01*
X80418161Y-99712303D01*
X80688275Y-99636620D01*
X80945568Y-99524862D01*
X81185246Y-99379111D01*
X81402845Y-99202081D01*
X81594312Y-98997069D01*
X81756081Y-98767896D01*
X81885136Y-98518830D01*
X81979075Y-98254511D01*
X82036148Y-97979862D01*
X82055291Y-97700000D01*
X82036148Y-97420138D01*
X82011183Y-97300000D01*
X95944709Y-97300000D01*
X95963852Y-97579862D01*
X96020925Y-97854511D01*
X96114864Y-98118830D01*
X96243919Y-98367896D01*
X96405688Y-98597069D01*
X96548048Y-98749500D01*
X96597151Y-98802077D01*
X96597163Y-98802088D01*
X96811900Y-98976789D01*
X96814754Y-98979111D01*
X97054432Y-99124862D01*
X97311725Y-99236620D01*
X97581839Y-99312303D01*
X97859742Y-99350500D01*
X97859743Y-99350500D01*
X98140257Y-99350500D01*
X98140258Y-99350500D01*
X98418161Y-99312303D01*
X98688275Y-99236620D01*
X98945568Y-99124862D01*
X99185246Y-98979111D01*
X99402845Y-98802081D01*
X99594312Y-98597069D01*
X99756081Y-98367896D01*
X99885136Y-98118830D01*
X99979075Y-97854511D01*
X100036148Y-97579862D01*
X100055291Y-97300000D01*
X100036148Y-97020138D01*
X99979075Y-96745489D01*
X99885136Y-96481170D01*
X99756081Y-96232104D01*
X99594312Y-96002931D01*
X99402845Y-95797919D01*
X99402842Y-95797917D01*
X99402836Y-95797911D01*
X99185249Y-95620891D01*
X99185246Y-95620889D01*
X99074253Y-95553393D01*
X98945568Y-95475138D01*
X98945565Y-95475136D01*
X98945564Y-95475136D01*
X98863997Y-95439707D01*
X98688275Y-95363380D01*
X98418161Y-95287697D01*
X98418160Y-95287696D01*
X98418159Y-95287696D01*
X98184540Y-95255586D01*
X98140258Y-95249500D01*
X97859742Y-95249500D01*
X97815459Y-95255586D01*
X97581841Y-95287696D01*
X97446782Y-95325538D01*
X97311725Y-95363380D01*
X97311723Y-95363381D01*
X97054436Y-95475136D01*
X97054435Y-95475136D01*
X96814753Y-95620889D01*
X96814750Y-95620891D01*
X96597163Y-95797911D01*
X96597151Y-95797922D01*
X96405687Y-96002932D01*
X96243921Y-96232100D01*
X96114865Y-96481167D01*
X96114864Y-96481170D01*
X96031076Y-96716929D01*
X96020925Y-96745490D01*
X95963852Y-97020136D01*
X95957231Y-97116929D01*
X95944709Y-97300000D01*
X82011183Y-97300000D01*
X81979075Y-97145489D01*
X81885136Y-96881170D01*
X81756081Y-96632104D01*
X81594312Y-96402931D01*
X81402845Y-96197919D01*
X81402842Y-96197917D01*
X81402836Y-96197911D01*
X81185249Y-96020891D01*
X81185246Y-96020889D01*
X81147746Y-95998085D01*
X80945568Y-95875138D01*
X80945565Y-95875136D01*
X80945564Y-95875136D01*
X80863997Y-95839707D01*
X80688275Y-95763380D01*
X80418161Y-95687697D01*
X80418160Y-95687696D01*
X80418159Y-95687696D01*
X80184540Y-95655586D01*
X80140258Y-95649500D01*
X79859742Y-95649500D01*
X79815459Y-95655586D01*
X79581841Y-95687696D01*
X79446782Y-95725538D01*
X79311725Y-95763380D01*
X79257100Y-95787107D01*
X79054436Y-95875136D01*
X79054435Y-95875136D01*
X78814753Y-96020889D01*
X78814750Y-96020891D01*
X78597163Y-96197911D01*
X78597151Y-96197922D01*
X78405687Y-96402932D01*
X78271228Y-96593415D01*
X78211957Y-96642767D01*
X78135950Y-96655872D01*
X78063574Y-96629217D01*
X78014222Y-96569946D01*
X78000500Y-96507489D01*
X78000500Y-91049499D01*
X78020462Y-90974999D01*
X78075000Y-90920461D01*
X78149500Y-90900499D01*
X78514209Y-90900499D01*
X78514216Y-90900499D01*
X78646412Y-90890096D01*
X78864683Y-90835096D01*
X78864684Y-90835095D01*
X78864686Y-90835095D01*
X79038380Y-90756200D01*
X79114466Y-90743565D01*
X79161620Y-90756200D01*
X79335313Y-90835095D01*
X79335317Y-90835096D01*
X79553588Y-90890096D01*
X79685783Y-90900500D01*
X80514216Y-90900499D01*
X80646412Y-90890096D01*
X80864683Y-90835096D01*
X80864682Y-90835096D01*
X80864687Y-90835095D01*
X81038379Y-90756200D01*
X81069626Y-90742007D01*
X81254654Y-90613819D01*
X81413819Y-90454654D01*
X81542007Y-90269626D01*
X81570628Y-90206613D01*
X81635095Y-90064687D01*
X81635381Y-90063549D01*
X81690096Y-89846412D01*
X81700500Y-89714217D01*
X81700499Y-89217558D01*
X81720461Y-89143059D01*
X81744136Y-89112204D01*
X83356347Y-87499994D01*
X96744592Y-87499994D01*
X96744592Y-87500005D01*
X96764196Y-87761617D01*
X96764199Y-87761637D01*
X96822578Y-88017411D01*
X96822579Y-88017415D01*
X96906291Y-88230708D01*
X96918432Y-88261643D01*
X97049614Y-88488857D01*
X97049618Y-88488862D01*
X97213197Y-88693984D01*
X97405515Y-88872428D01*
X97405517Y-88872429D01*
X97405521Y-88872433D01*
X97622296Y-89020228D01*
X97858677Y-89134063D01*
X97935647Y-89157805D01*
X98109381Y-89211395D01*
X98109382Y-89211395D01*
X98109385Y-89211396D01*
X98368818Y-89250500D01*
X98368820Y-89250500D01*
X98631180Y-89250500D01*
X98631182Y-89250500D01*
X98890615Y-89211396D01*
X99141323Y-89134063D01*
X99377704Y-89020228D01*
X99594479Y-88872433D01*
X99786805Y-88693981D01*
X99950386Y-88488857D01*
X100081568Y-88261643D01*
X100177420Y-88017416D01*
X100235802Y-87761630D01*
X100242910Y-87666779D01*
X100255408Y-87500005D01*
X100255408Y-87499994D01*
X100235803Y-87238382D01*
X100235802Y-87238380D01*
X100235802Y-87238370D01*
X100177420Y-86982584D01*
X100081568Y-86738357D01*
X99950386Y-86511143D01*
X99791833Y-86312324D01*
X99786802Y-86306015D01*
X99594484Y-86127571D01*
X99594481Y-86127569D01*
X99594479Y-86127567D01*
X99377704Y-85979772D01*
X99377701Y-85979771D01*
X99377699Y-85979769D01*
X99141332Y-85865941D01*
X99141328Y-85865939D01*
X99141323Y-85865937D01*
X99141315Y-85865934D01*
X99141311Y-85865933D01*
X98890618Y-85788604D01*
X98631184Y-85749500D01*
X98631182Y-85749500D01*
X98368818Y-85749500D01*
X98368815Y-85749500D01*
X98109381Y-85788604D01*
X97858688Y-85865933D01*
X97858667Y-85865941D01*
X97622300Y-85979769D01*
X97405515Y-86127571D01*
X97213197Y-86306015D01*
X97049618Y-86511137D01*
X97049613Y-86511145D01*
X96918432Y-86738356D01*
X96918430Y-86738361D01*
X96822579Y-86982584D01*
X96822578Y-86982588D01*
X96764199Y-87238362D01*
X96764196Y-87238382D01*
X96744592Y-87499994D01*
X83356347Y-87499994D01*
X84239414Y-86616928D01*
X84341232Y-86476788D01*
X84419873Y-86322445D01*
X84473402Y-86157701D01*
X84500500Y-85986611D01*
X84500500Y-85813389D01*
X84500500Y-78668025D01*
X84520462Y-78593525D01*
X84575000Y-78538987D01*
X84649500Y-78519025D01*
X84714144Y-78533779D01*
X84854281Y-78601265D01*
X85106707Y-78679129D01*
X85367919Y-78718500D01*
X85432308Y-78718500D01*
X85506808Y-78738462D01*
X85537667Y-78762141D01*
X86249859Y-79474333D01*
X86288423Y-79541128D01*
X86293500Y-79579692D01*
X86293500Y-81683083D01*
X86293500Y-81879917D01*
X86308895Y-81977121D01*
X86324291Y-82074331D01*
X86367207Y-82206408D01*
X86374500Y-82252452D01*
X86374500Y-82739208D01*
X86374501Y-82739211D01*
X86384903Y-82871406D01*
X86384903Y-82871409D01*
X86384904Y-82871412D01*
X86393201Y-82904338D01*
X86439904Y-83089687D01*
X86532991Y-83294623D01*
X86532992Y-83294625D01*
X86532993Y-83294626D01*
X86661181Y-83479654D01*
X86820346Y-83638819D01*
X87005374Y-83767007D01*
X87005375Y-83767007D01*
X87005376Y-83767008D01*
X87210312Y-83860095D01*
X87247640Y-83869500D01*
X87428588Y-83915096D01*
X87560783Y-83925500D01*
X88364216Y-83925499D01*
X88496412Y-83915096D01*
X88714683Y-83860096D01*
X88714682Y-83860096D01*
X88714687Y-83860095D01*
X88919624Y-83767008D01*
X88925444Y-83763706D01*
X88926729Y-83765971D01*
X88987690Y-83744097D01*
X89063585Y-83757836D01*
X89074357Y-83764055D01*
X89074556Y-83763706D01*
X89080375Y-83767008D01*
X89285312Y-83860095D01*
X89322640Y-83869500D01*
X89503588Y-83915096D01*
X89635783Y-83925500D01*
X90439216Y-83925499D01*
X90571412Y-83915096D01*
X90789683Y-83860096D01*
X90789682Y-83860096D01*
X90789687Y-83860095D01*
X90931613Y-83795628D01*
X90994626Y-83767007D01*
X91179654Y-83638819D01*
X91338819Y-83479654D01*
X91467007Y-83294626D01*
X91502993Y-83215400D01*
X91560095Y-83089687D01*
X91560747Y-83087099D01*
X91615096Y-82871412D01*
X91625500Y-82739217D01*
X91625499Y-82252451D01*
X91632792Y-82206407D01*
X91667205Y-82100499D01*
X91675709Y-82074327D01*
X91706500Y-81879917D01*
X91706500Y-81683084D01*
X91706500Y-81683083D01*
X91706500Y-79579692D01*
X91726462Y-79505192D01*
X91750141Y-79474333D01*
X92462333Y-78762141D01*
X92529128Y-78723577D01*
X92567692Y-78718500D01*
X92632078Y-78718500D01*
X92632081Y-78718500D01*
X92893293Y-78679129D01*
X93145719Y-78601265D01*
X93383721Y-78486650D01*
X93551092Y-78372537D01*
X93623892Y-78347064D01*
X93699675Y-78361403D01*
X93748323Y-78398875D01*
X93864776Y-78535224D01*
X94056341Y-78698836D01*
X94271141Y-78830466D01*
X94271143Y-78830467D01*
X94503886Y-78926872D01*
X94503887Y-78926872D01*
X94503889Y-78926873D01*
X94503892Y-78926873D01*
X94503900Y-78926876D01*
X94626370Y-78956278D01*
X94748852Y-78985683D01*
X95000000Y-79005449D01*
X95251148Y-78985683D01*
X95496111Y-78926873D01*
X95728859Y-78830466D01*
X95741928Y-78822456D01*
X95815879Y-78800551D01*
X95819781Y-78800500D01*
X98883611Y-78800500D01*
X98883635Y-78800501D01*
X98889778Y-78800501D01*
X99110217Y-78800501D01*
X99110222Y-78800501D01*
X99327951Y-78766015D01*
X99537606Y-78697895D01*
X99734022Y-78597815D01*
X99796407Y-78552490D01*
X99912365Y-78468242D01*
X100068242Y-78312365D01*
X100068243Y-78312363D01*
X100076728Y-78303878D01*
X100076733Y-78303871D01*
X101245142Y-77135462D01*
X101311936Y-77096900D01*
X101389064Y-77096900D01*
X101455859Y-77135464D01*
G37*
%TD.AperFunction*%
%TA.AperFunction,NonConductor*%
G36*
X66164000Y-102727522D02*
G01*
X66194859Y-102751201D01*
X66235859Y-102792201D01*
X66274423Y-102858996D01*
X66279500Y-102897560D01*
X66279500Y-105399936D01*
X66259538Y-105474436D01*
X66231842Y-105509164D01*
X66211341Y-105528185D01*
X66143150Y-105564222D01*
X66066076Y-105561336D01*
X66008656Y-105528184D01*
X65988153Y-105509160D01*
X65947120Y-105443857D01*
X65940500Y-105399937D01*
X65940500Y-102856560D01*
X65960462Y-102782060D01*
X66015000Y-102727522D01*
X66089500Y-102707560D01*
X66164000Y-102727522D01*
G37*
%TD.AperFunction*%
%TA.AperFunction,NonConductor*%
G36*
X63624000Y-103187522D02*
G01*
X63654859Y-103211201D01*
X63695859Y-103252201D01*
X63734423Y-103318996D01*
X63739500Y-103357560D01*
X63739500Y-105399936D01*
X63719538Y-105474436D01*
X63691842Y-105509164D01*
X63671341Y-105528185D01*
X63603150Y-105564222D01*
X63526076Y-105561336D01*
X63468656Y-105528184D01*
X63448153Y-105509160D01*
X63407120Y-105443857D01*
X63400500Y-105399937D01*
X63400500Y-103316560D01*
X63420462Y-103242060D01*
X63475000Y-103187522D01*
X63549500Y-103167560D01*
X63624000Y-103187522D01*
G37*
%TD.AperFunction*%
%TA.AperFunction,NonConductor*%
G36*
X61125000Y-103620462D02*
G01*
X61179538Y-103675000D01*
X61199500Y-103749500D01*
X61199500Y-105399936D01*
X61179538Y-105474436D01*
X61151842Y-105509164D01*
X61131341Y-105528185D01*
X61063150Y-105564222D01*
X60986076Y-105561336D01*
X60928656Y-105528184D01*
X60908153Y-105509160D01*
X60867120Y-105443857D01*
X60860500Y-105399937D01*
X60860500Y-103749500D01*
X60880462Y-103675000D01*
X60935000Y-103620462D01*
X61009500Y-103600500D01*
X61050500Y-103600500D01*
X61125000Y-103620462D01*
G37*
%TD.AperFunction*%
M02*
