%TF.GenerationSoftware,KiCad,Pcbnew,8.0.2*%
%TF.CreationDate,2024-10-27T19:27:45+01:00*%
%TF.ProjectId,CalkaBot_PCB,43616c6b-6142-46f7-945f-5043422e6b69,rev?*%
%TF.SameCoordinates,Original*%
%TF.FileFunction,Copper,L1,Top*%
%TF.FilePolarity,Positive*%
%FSLAX46Y46*%
G04 Gerber Fmt 4.6, Leading zero omitted, Abs format (unit mm)*
G04 Created by KiCad (PCBNEW 8.0.2) date 2024-10-27 19:27:45*
%MOMM*%
%LPD*%
G01*
G04 APERTURE LIST*
G04 Aperture macros list*
%AMRoundRect*
0 Rectangle with rounded corners*
0 $1 Rounding radius*
0 $2 $3 $4 $5 $6 $7 $8 $9 X,Y pos of 4 corners*
0 Add a 4 corners polygon primitive as box body*
4,1,4,$2,$3,$4,$5,$6,$7,$8,$9,$2,$3,0*
0 Add four circle primitives for the rounded corners*
1,1,$1+$1,$2,$3*
1,1,$1+$1,$4,$5*
1,1,$1+$1,$6,$7*
1,1,$1+$1,$8,$9*
0 Add four rect primitives between the rounded corners*
20,1,$1+$1,$2,$3,$4,$5,0*
20,1,$1+$1,$4,$5,$6,$7,0*
20,1,$1+$1,$6,$7,$8,$9,0*
20,1,$1+$1,$8,$9,$2,$3,0*%
G04 Aperture macros list end*
%TA.AperFunction,SMDPad,CuDef*%
%ADD10RoundRect,0.250000X-0.450000X0.325000X-0.450000X-0.325000X0.450000X-0.325000X0.450000X0.325000X0*%
%TD*%
%TA.AperFunction,SMDPad,CuDef*%
%ADD11RoundRect,0.250000X-0.350000X-0.450000X0.350000X-0.450000X0.350000X0.450000X-0.350000X0.450000X0*%
%TD*%
%TA.AperFunction,SMDPad,CuDef*%
%ADD12R,0.700000X2.000000*%
%TD*%
%TA.AperFunction,HeatsinkPad*%
%ADD13C,0.700000*%
%TD*%
%TA.AperFunction,SMDPad,CuDef*%
%ADD14R,3.050000X2.900000*%
%TD*%
%TA.AperFunction,SMDPad,CuDef*%
%ADD15R,9.600000X6.000000*%
%TD*%
%TA.AperFunction,SMDPad,CuDef*%
%ADD16RoundRect,0.250000X-0.450000X0.350000X-0.450000X-0.350000X0.450000X-0.350000X0.450000X0.350000X0*%
%TD*%
%TA.AperFunction,SMDPad,CuDef*%
%ADD17RoundRect,0.250000X0.550000X-1.500000X0.550000X1.500000X-0.550000X1.500000X-0.550000X-1.500000X0*%
%TD*%
%TA.AperFunction,SMDPad,CuDef*%
%ADD18RoundRect,0.375000X0.625000X0.375000X-0.625000X0.375000X-0.625000X-0.375000X0.625000X-0.375000X0*%
%TD*%
%TA.AperFunction,SMDPad,CuDef*%
%ADD19RoundRect,0.500000X0.500000X1.400000X-0.500000X1.400000X-0.500000X-1.400000X0.500000X-1.400000X0*%
%TD*%
%TA.AperFunction,ComponentPad*%
%ADD20O,1.600000X1.600000*%
%TD*%
%TA.AperFunction,ComponentPad*%
%ADD21R,1.600000X1.600000*%
%TD*%
%TA.AperFunction,ComponentPad*%
%ADD22C,1.524000*%
%TD*%
%TA.AperFunction,SMDPad,CuDef*%
%ADD23RoundRect,0.250000X-0.337500X-0.475000X0.337500X-0.475000X0.337500X0.475000X-0.337500X0.475000X0*%
%TD*%
%TA.AperFunction,ComponentPad*%
%ADD24R,1.700000X1.700000*%
%TD*%
%TA.AperFunction,ComponentPad*%
%ADD25O,1.700000X1.700000*%
%TD*%
%TA.AperFunction,SMDPad,CuDef*%
%ADD26RoundRect,0.250000X0.475000X-0.337500X0.475000X0.337500X-0.475000X0.337500X-0.475000X-0.337500X0*%
%TD*%
%TA.AperFunction,SMDPad,CuDef*%
%ADD27RoundRect,0.150000X-0.200000X0.150000X-0.200000X-0.150000X0.200000X-0.150000X0.200000X0.150000X0*%
%TD*%
%TA.AperFunction,SMDPad,CuDef*%
%ADD28RoundRect,0.250000X-0.475000X0.337500X-0.475000X-0.337500X0.475000X-0.337500X0.475000X0.337500X0*%
%TD*%
%TA.AperFunction,ComponentPad*%
%ADD29RoundRect,0.250000X-0.625000X0.350000X-0.625000X-0.350000X0.625000X-0.350000X0.625000X0.350000X0*%
%TD*%
%TA.AperFunction,ComponentPad*%
%ADD30O,1.750000X1.200000*%
%TD*%
%TA.AperFunction,SMDPad,CuDef*%
%ADD31R,3.000000X1.600000*%
%TD*%
%TA.AperFunction,SMDPad,CuDef*%
%ADD32R,6.700000X6.700000*%
%TD*%
%TA.AperFunction,ComponentPad*%
%ADD33RoundRect,0.250000X0.350000X0.625000X-0.350000X0.625000X-0.350000X-0.625000X0.350000X-0.625000X0*%
%TD*%
%TA.AperFunction,ComponentPad*%
%ADD34O,1.200000X1.750000*%
%TD*%
%TA.AperFunction,SMDPad,CuDef*%
%ADD35RoundRect,0.150000X0.150000X0.200000X-0.150000X0.200000X-0.150000X-0.200000X0.150000X-0.200000X0*%
%TD*%
%TA.AperFunction,SMDPad,CuDef*%
%ADD36RoundRect,0.250000X0.450000X-0.350000X0.450000X0.350000X-0.450000X0.350000X-0.450000X-0.350000X0*%
%TD*%
%TA.AperFunction,ViaPad*%
%ADD37C,0.600000*%
%TD*%
%TA.AperFunction,ViaPad*%
%ADD38C,1.200000*%
%TD*%
%TA.AperFunction,ViaPad*%
%ADD39C,1.600000*%
%TD*%
%TA.AperFunction,Conductor*%
%ADD40C,0.500000*%
%TD*%
%TA.AperFunction,Conductor*%
%ADD41C,0.800000*%
%TD*%
%TA.AperFunction,Conductor*%
%ADD42C,0.200000*%
%TD*%
%TA.AperFunction,Conductor*%
%ADD43C,1.500000*%
%TD*%
%TA.AperFunction,Conductor*%
%ADD44C,1.000000*%
%TD*%
G04 APERTURE END LIST*
D10*
%TO.P,D4,1,K*%
%TO.N,GND*%
X80600000Y-79975000D03*
%TO.P,D4,2,A*%
%TO.N,Net-(D4-A)*%
X80600000Y-82025000D03*
%TD*%
D11*
%TO.P,R9,1*%
%TO.N,Net-(A1-A5)*%
X76400000Y-82000000D03*
%TO.P,R9,2*%
%TO.N,Net-(D4-A)*%
X78400000Y-82000000D03*
%TD*%
D12*
%TO.P,CR1,1,GND*%
%TO.N,GND*%
X95130000Y-61300000D03*
%TO.P,CR1,2,VSA*%
%TO.N,MotorPower*%
X93860000Y-61300000D03*
%TO.P,CR1,3,OUT2A*%
%TO.N,Net-(CR1-OUT2A)*%
X92590000Y-61300000D03*
%TO.P,CR1,4,VCP*%
%TO.N,Net-(CR1-VCP)*%
X91320000Y-61300000D03*
%TO.P,CR1,5,ENA*%
%TO.N,Net-(CR1-ENA)*%
X90050000Y-61300000D03*
%TO.P,CR1,6,IN1A*%
%TO.N,M_IN1A*%
X88780000Y-61300000D03*
%TO.P,CR1,7,IN2A*%
%TO.N,M_IN2A*%
X87510000Y-61300000D03*
%TO.P,CR1,8,SENSEA*%
%TO.N,GND*%
X86240000Y-61300000D03*
%TO.P,CR1,9,OUT1A*%
%TO.N,Net-(CR1-OUT1A)*%
X84970000Y-61300000D03*
%TO.P,CR1,10,GND*%
%TO.N,GND*%
X83700000Y-61300000D03*
%TO.P,CR1,11,GND*%
X83700000Y-74700000D03*
%TO.P,CR1,12,OUT1B*%
%TO.N,Net-(CR1-OUT1B)*%
X84970000Y-74700000D03*
%TO.P,CR1,13,SENSEB*%
%TO.N,GND*%
X86240000Y-74700000D03*
%TO.P,CR1,14,IN1B*%
%TO.N,M_IN1B*%
X87510000Y-74700000D03*
%TO.P,CR1,15,IN2B*%
%TO.N,M_IN2B*%
X88780000Y-74700000D03*
%TO.P,CR1,16,ENB*%
%TO.N,Net-(CR1-ENB)*%
X90050000Y-74700000D03*
%TO.P,CR1,17,VBOOT*%
%TO.N,Net-(CR1-VBOOT)*%
X91320000Y-74700000D03*
%TO.P,CR1,18,OUT2B*%
%TO.N,Net-(CR1-OUT2B)*%
X92590000Y-74700000D03*
%TO.P,CR1,19,VSB*%
%TO.N,MotorPower*%
X93860000Y-74700000D03*
%TO.P,CR1,20,GND*%
%TO.N,GND*%
X95130000Y-74700000D03*
D13*
%TO.P,CR1,21,GND*%
X93415000Y-66000000D03*
X91415000Y-66000000D03*
X89415000Y-66000000D03*
X87415000Y-66000000D03*
X85415000Y-66000000D03*
D14*
X95715000Y-68000000D03*
D13*
X93415000Y-68000000D03*
X91415000Y-68000000D03*
X89415000Y-68000000D03*
D15*
X89415000Y-68000000D03*
D13*
X87415000Y-68000000D03*
X85415000Y-68000000D03*
D14*
X83115000Y-68000000D03*
D13*
X93415000Y-70000000D03*
X91415000Y-70000000D03*
X89415000Y-70000000D03*
X87415000Y-70000000D03*
X85415000Y-70000000D03*
%TD*%
D16*
%TO.P,R8,2*%
%TO.N,GND*%
X73700000Y-56200000D03*
%TO.P,R8,1*%
%TO.N,M_FRONT*%
X73700000Y-54200000D03*
%TD*%
D17*
%TO.P,C8,1*%
%TO.N,MotorPower*%
X78400000Y-60500000D03*
%TO.P,C8,2*%
%TO.N,GND*%
X78400000Y-55100000D03*
%TD*%
D18*
%TO.P,Q3,1,D*%
%TO.N,Net-(D3-A)*%
X80950000Y-49300000D03*
D19*
X74650000Y-49300000D03*
D18*
%TO.P,Q3,2,G*%
%TO.N,M_FRONT*%
X80950000Y-51600000D03*
%TO.P,Q3,3,S*%
%TO.N,GND*%
X80950000Y-47000000D03*
%TD*%
D20*
%TO.P,A1,30,VIN*%
%TO.N,unconnected-(A1-VIN-Pad30)*%
X73230000Y-61750000D03*
%TO.P,A1,29,GND*%
%TO.N,GND*%
X73230000Y-64290000D03*
%TO.P,A1,28,~{RESET}*%
%TO.N,unconnected-(A1-~{RESET}-Pad28)*%
X73230000Y-66830000D03*
%TO.P,A1,27,+5V*%
%TO.N,+5V*%
X73230000Y-69370000D03*
%TO.P,A1,26,A7*%
%TO.N,unconnected-(A1-A7-Pad26)*%
X73230000Y-71910000D03*
%TO.P,A1,25,A6*%
%TO.N,unconnected-(A1-A6-Pad25)*%
X73230000Y-74450000D03*
%TO.P,A1,24,A5*%
%TO.N,Net-(A1-A5)*%
X73230000Y-76990000D03*
%TO.P,A1,23,A4*%
%TO.N,Net-(A1-A4)*%
X73230000Y-79530000D03*
%TO.P,A1,22,A3*%
%TO.N,Net-(A1-A3)*%
X73230000Y-82070000D03*
%TO.P,A1,21,A2*%
%TO.N,Net-(A1-A2)*%
X73230000Y-84610000D03*
%TO.P,A1,20,A1*%
%TO.N,FLOOR_SENSOR_RIGHT*%
X73230000Y-87150000D03*
%TO.P,A1,19,A0*%
%TO.N,FLOOR_SENSOR_LEFT*%
X73230000Y-89690000D03*
%TO.P,A1,18,AREF*%
%TO.N,unconnected-(A1-AREF-Pad18)*%
X73230000Y-92230000D03*
%TO.P,A1,17,3V3*%
%TO.N,unconnected-(A1-3V3-Pad17)*%
X73230000Y-94770000D03*
%TO.P,A1,16,D13*%
%TO.N,M_ENA*%
X73230000Y-97310000D03*
%TO.P,A1,15,D12*%
%TO.N,M_ENB*%
X57990000Y-97310000D03*
%TO.P,A1,14,D11*%
%TO.N,M_IN2B*%
X57990000Y-94770000D03*
%TO.P,A1,13,D10*%
%TO.N,M_IN1B*%
X57990000Y-92230000D03*
%TO.P,A1,12,D9*%
%TO.N,M_IN1A*%
X57990000Y-89690000D03*
%TO.P,A1,11,D8*%
%TO.N,M_IN2A*%
X57990000Y-87150000D03*
%TO.P,A1,10,D7*%
%TO.N,Net-(A1-D7)*%
X57990000Y-84610000D03*
%TO.P,A1,9,D6*%
%TO.N,Net-(A1-D6)*%
X57990000Y-82070000D03*
%TO.P,A1,8,D5*%
%TO.N,Net-(A1-D5)*%
X57990000Y-79530000D03*
%TO.P,A1,7,D4*%
%TO.N,Net-(A1-D4)*%
X57990000Y-76990000D03*
%TO.P,A1,6,D3*%
%TO.N,M_FRONT*%
X57990000Y-74450000D03*
%TO.P,A1,5,D2*%
%TO.N,START_MODULE*%
X57990000Y-71910000D03*
%TO.P,A1,4,GND*%
%TO.N,GND*%
X57990000Y-69370000D03*
%TO.P,A1,3,~{RESET}*%
%TO.N,unconnected-(A1-~{RESET}-Pad3)*%
X57990000Y-66830000D03*
%TO.P,A1,2,D0/RX*%
%TO.N,unconnected-(A1-D0{slash}RX-Pad2)*%
X57990000Y-64290000D03*
D21*
%TO.P,A1,1,D1/TX*%
%TO.N,unconnected-(A1-D1{slash}TX-Pad1)*%
X57990000Y-61750000D03*
%TD*%
D22*
%TO.P,M1,2,-*%
%TO.N,Net-(CR1-OUT1A)*%
X85500000Y-59000000D03*
%TO.P,M1,1,+*%
%TO.N,Net-(CR1-OUT2A)*%
X92500000Y-59000000D03*
%TD*%
D23*
%TO.P,C1,1*%
%TO.N,MotorPower*%
X59762500Y-34200000D03*
%TO.P,C1,2*%
%TO.N,GND*%
X61837500Y-34200000D03*
%TD*%
D21*
%TO.P,SW1,1*%
%TO.N,GND*%
X59760000Y-114520000D03*
D20*
%TO.P,SW1,2*%
X62300000Y-114520000D03*
%TO.P,SW1,3*%
X64840000Y-114520000D03*
%TO.P,SW1,4*%
X67380000Y-114520000D03*
%TO.P,SW1,5*%
%TO.N,Net-(A1-D7)*%
X67380000Y-106900000D03*
%TO.P,SW1,6*%
%TO.N,Net-(A1-D6)*%
X64840000Y-106900000D03*
%TO.P,SW1,7*%
%TO.N,Net-(A1-D5)*%
X62300000Y-106900000D03*
%TO.P,SW1,8*%
%TO.N,Net-(A1-D4)*%
X59760000Y-106900000D03*
%TD*%
D24*
%TO.P,J4,1,Pin_1*%
%TO.N,MotorPower*%
X58762500Y-37187500D03*
D25*
%TO.P,J4,2,Pin_2*%
%TO.N,GND*%
X61302500Y-37187500D03*
%TD*%
D24*
%TO.P,J6,1,Pin_1*%
%TO.N,+5V*%
X66240000Y-55700000D03*
D25*
%TO.P,J6,2,Pin_2*%
%TO.N,GND*%
X63700000Y-55700000D03*
%TO.P,J6,3,Pin_3*%
%TO.N,START_MODULE*%
X61160000Y-55700000D03*
%TD*%
D26*
%TO.P,C3,1*%
%TO.N,Net-(C3-Pad1)*%
X100650000Y-78987500D03*
%TO.P,C3,2*%
%TO.N,Net-(CR1-VCP)*%
X100650000Y-76912500D03*
%TD*%
D27*
%TO.P,D1,1,K*%
%TO.N,Net-(D1-K)*%
X98500000Y-80950000D03*
%TO.P,D1,2,A*%
%TO.N,MotorPower*%
X98500000Y-79550000D03*
%TD*%
D28*
%TO.P,C4,2*%
%TO.N,Net-(CR1-VBOOT)*%
X96400000Y-81387500D03*
%TO.P,C4,1*%
%TO.N,MotorPower*%
X96400000Y-79312500D03*
%TD*%
D29*
%TO.P,J3,1,Pin_1*%
%TO.N,+5V*%
X67950000Y-22400000D03*
D30*
%TO.P,J3,2,Pin_2*%
%TO.N,GND*%
X67950000Y-24400000D03*
%TO.P,J3,3,Pin_3*%
%TO.N,Net-(A1-A3)*%
X67950000Y-26400000D03*
%TD*%
D31*
%TO.P,U1,1,IN*%
%TO.N,MotorPower*%
X58062500Y-41812500D03*
D32*
%TO.P,U1,2,GND*%
%TO.N,GND*%
X64712500Y-44112500D03*
D31*
%TO.P,U1,3,OUT*%
%TO.N,+5V*%
X58062500Y-46412500D03*
%TD*%
D23*
%TO.P,C2,1*%
%TO.N,+5V*%
X59162500Y-48900000D03*
%TO.P,C2,2*%
%TO.N,GND*%
X61237500Y-48900000D03*
%TD*%
D33*
%TO.P,J1,1,Pin_1*%
%TO.N,+5V*%
X69400000Y-32800000D03*
D34*
%TO.P,J1,2,Pin_2*%
%TO.N,GND*%
X67400000Y-32800000D03*
%TO.P,J1,3,Pin_3*%
%TO.N,Net-(A1-A4)*%
X65400000Y-32800000D03*
%TD*%
D35*
%TO.P,D2,2,A*%
%TO.N,Net-(D1-K)*%
X98700000Y-83350000D03*
%TO.P,D2,1,K*%
%TO.N,Net-(CR1-VBOOT)*%
X97300000Y-83350000D03*
%TD*%
D26*
%TO.P,C9,1*%
%TO.N,MotorPower*%
X64862500Y-51350000D03*
%TO.P,C9,2*%
%TO.N,GND*%
X64862500Y-49275000D03*
%TD*%
D24*
%TO.P,J5,1,Pin_1*%
%TO.N,MotorPower*%
X65625000Y-37200000D03*
D25*
%TO.P,J5,2,Pin_2*%
%TO.N,Net-(D3-A)*%
X68165000Y-37200000D03*
%TD*%
D36*
%TO.P,R2,1*%
%TO.N,Net-(D1-K)*%
X100650000Y-82850000D03*
%TO.P,R2,2*%
%TO.N,Net-(C3-Pad1)*%
X100650000Y-80850000D03*
%TD*%
D29*
%TO.P,J2,1,Pin_1*%
%TO.N,+5V*%
X60850000Y-22400000D03*
D30*
%TO.P,J2,2,Pin_2*%
%TO.N,GND*%
X60850000Y-24400000D03*
%TO.P,J2,3,Pin_3*%
%TO.N,Net-(A1-A2)*%
X60850000Y-26400000D03*
%TD*%
D23*
%TO.P,C7,1*%
%TO.N,MotorPower*%
X96362500Y-58500000D03*
%TO.P,C7,2*%
%TO.N,GND*%
X98437500Y-58500000D03*
%TD*%
D22*
%TO.P,M2,1,+*%
%TO.N,Net-(CR1-OUT1B)*%
X85500000Y-76956000D03*
%TO.P,M2,2,-*%
%TO.N,Net-(CR1-OUT2B)*%
X92500000Y-76956000D03*
%TD*%
D37*
%TO.N,FLOOR_SENSOR_RIGHT*%
X31700000Y-22400000D03*
%TO.N,FLOOR_SENSOR_LEFT*%
X29750000Y-112250000D03*
D38*
%TO.N,Net-(CR1-VCP)*%
X99350000Y-60450000D03*
X90950000Y-59350000D03*
%TO.N,GND*%
X82200000Y-76700000D03*
D37*
%TO.N,M_IN1B*%
X87900000Y-76600000D03*
%TO.N,M_IN2B*%
X88900000Y-77900000D03*
%TO.N,Net-(CR1-ENB)*%
X90100000Y-77900000D03*
%TO.N,M_IN1A*%
X88800000Y-59700000D03*
%TO.N,M_IN2A*%
X87700000Y-59700000D03*
%TO.N,Net-(CR1-ENA)*%
X89700000Y-59300000D03*
D38*
%TO.N,MotorPower*%
X95000000Y-77400000D03*
X94500000Y-58300000D03*
D37*
%TO.N,+5V*%
X67800000Y-60800000D03*
%TO.N,M_FRONT*%
X72400000Y-54250000D03*
%TO.N,+5V*%
X58062500Y-47800000D03*
D39*
%TO.N,MotorPower*%
X68700000Y-52800000D03*
D37*
%TO.N,Net-(A1-A2)*%
X45000000Y-101000000D03*
%TO.N,Net-(A1-A3)*%
X45000000Y-99500000D03*
%TO.N,Net-(A1-A4)*%
X45000000Y-98000000D03*
%TD*%
D40*
%TO.N,GND*%
X80600000Y-78300000D02*
X82200000Y-76700000D01*
X80600000Y-79975000D02*
X80600000Y-78300000D01*
%TO.N,Net-(D4-A)*%
X80575000Y-82000000D02*
X80600000Y-82025000D01*
X78400000Y-82000000D02*
X80575000Y-82000000D01*
%TO.N,Net-(A1-A5)*%
X76400000Y-79200000D02*
X76400000Y-82000000D01*
X73230000Y-76990000D02*
X74190000Y-76990000D01*
X74190000Y-76990000D02*
X76400000Y-79200000D01*
%TO.N,FLOOR_SENSOR_RIGHT*%
X31800000Y-22300000D02*
X31700000Y-22400000D01*
X33750000Y-22300000D02*
X31800000Y-22300000D01*
X39850000Y-33850000D02*
X39850000Y-28400000D01*
X39850000Y-97350000D02*
X39850000Y-33850000D01*
X45000000Y-102500000D02*
X39850000Y-97350000D01*
X39850000Y-28400000D02*
X33750000Y-22300000D01*
%TO.N,FLOOR_SENSOR_LEFT*%
X71000000Y-97500000D02*
X71000000Y-91920000D01*
X71000000Y-91920000D02*
X73230000Y-89690000D01*
X65000000Y-103500000D02*
X71000000Y-97500000D01*
X52000000Y-103500000D02*
X65000000Y-103500000D01*
X50050000Y-105450000D02*
X52000000Y-103500000D01*
X29750000Y-112250000D02*
X47950000Y-112250000D01*
X47950000Y-112250000D02*
X50050000Y-110150000D01*
X50050000Y-110150000D02*
X50050000Y-105450000D01*
D41*
%TO.N,Net-(CR1-VCP)*%
X101100000Y-76462500D02*
X100650000Y-76912500D01*
X101100000Y-62200000D02*
X101100000Y-76462500D01*
X99350000Y-60450000D02*
X101100000Y-62200000D01*
D40*
%TO.N,Net-(CR1-VBOOT)*%
X94100000Y-83350000D02*
X97300000Y-83350000D01*
X91600000Y-80850000D02*
X94100000Y-83350000D01*
X91600000Y-79000000D02*
X91600000Y-80850000D01*
X91000000Y-78400000D02*
X91600000Y-79000000D01*
X91000000Y-76500000D02*
X91000000Y-78400000D01*
X91370000Y-76130000D02*
X91000000Y-76500000D01*
X91370000Y-74700000D02*
X91370000Y-76130000D01*
X96400000Y-82450000D02*
X97300000Y-83350000D01*
X96400000Y-81387500D02*
X96400000Y-82450000D01*
%TO.N,MotorPower*%
X96400000Y-78800000D02*
X95000000Y-77400000D01*
X96400000Y-79312500D02*
X96400000Y-78800000D01*
X98262500Y-79312500D02*
X96400000Y-79312500D01*
X98500000Y-79550000D02*
X98262500Y-79312500D01*
%TO.N,Net-(D1-K)*%
X98700000Y-82050000D02*
X98700000Y-83350000D01*
X98500000Y-81850000D02*
X98700000Y-82050000D01*
X98500000Y-80950000D02*
X98500000Y-81850000D01*
X100650000Y-82850000D02*
X100150000Y-83350000D01*
X100150000Y-83350000D02*
X98700000Y-83350000D01*
D41*
%TO.N,Net-(C3-Pad1)*%
X100650000Y-78987500D02*
X100650000Y-80850000D01*
%TO.N,Net-(CR1-VCP)*%
X90950000Y-59350000D02*
X91370000Y-59770000D01*
X91370000Y-59770000D02*
X91370000Y-61300000D01*
D42*
%TO.N,Net-(CR1-ENA)*%
X90100000Y-59700000D02*
X90100000Y-61300000D01*
X89700000Y-59300000D02*
X90100000Y-59700000D01*
D40*
%TO.N,+5V*%
X67700000Y-60800000D02*
X66240000Y-59340000D01*
X66240000Y-59340000D02*
X66240000Y-55700000D01*
X67800000Y-60800000D02*
X67700000Y-60800000D01*
D42*
%TO.N,GND*%
X83750000Y-75150000D02*
X83750000Y-74700000D01*
D41*
X82200000Y-76700000D02*
X83750000Y-75150000D01*
D42*
%TO.N,M_IN1B*%
X87900000Y-76600000D02*
X87560000Y-76260000D01*
X87560000Y-76260000D02*
X87560000Y-74700000D01*
%TO.N,M_IN2B*%
X88900000Y-74770000D02*
X88830000Y-74700000D01*
X88900000Y-77900000D02*
X88900000Y-74770000D01*
%TO.N,Net-(CR1-ENB)*%
X90100000Y-77900000D02*
X90100000Y-74700000D01*
%TO.N,M_IN2A*%
X87700000Y-61160000D02*
X87560000Y-61300000D01*
X87700000Y-59700000D02*
X87700000Y-61160000D01*
D41*
%TO.N,GND*%
X86290000Y-71175000D02*
X89465000Y-68000000D01*
X86290000Y-74700000D02*
X86290000Y-71175000D01*
X88500000Y-68000000D02*
X89465000Y-68000000D01*
X83750000Y-72750000D02*
X88500000Y-68000000D01*
X83750000Y-74700000D02*
X83750000Y-72750000D01*
X86290000Y-64825000D02*
X89465000Y-68000000D01*
X86290000Y-61300000D02*
X86290000Y-64825000D01*
X88000000Y-68000000D02*
X89465000Y-68000000D01*
X83750000Y-61300000D02*
X83750000Y-63750000D01*
X83750000Y-63750000D02*
X88000000Y-68000000D01*
D43*
X98437500Y-56837500D02*
X98437500Y-58500000D01*
X98000000Y-56400000D02*
X98437500Y-56837500D01*
D41*
X98437500Y-58742500D02*
X95180000Y-62000000D01*
X95180000Y-62000000D02*
X95180000Y-62285000D01*
X98437500Y-58500000D02*
X98437500Y-58742500D01*
X95180000Y-61300000D02*
X95180000Y-62000000D01*
X95200000Y-61320000D02*
X95180000Y-61300000D01*
X91500000Y-68000000D02*
X95200000Y-64300000D01*
X95200000Y-64300000D02*
X95200000Y-61320000D01*
X89465000Y-68000000D02*
X91500000Y-68000000D01*
D43*
X77300000Y-56200000D02*
X73700000Y-56200000D01*
X78400000Y-55100000D02*
X77300000Y-56200000D01*
X64712500Y-44612500D02*
X64712500Y-44112500D01*
X70900000Y-50800000D02*
X64712500Y-44612500D01*
X70900000Y-55000000D02*
X70900000Y-50800000D01*
X72100000Y-56200000D02*
X70900000Y-55000000D01*
X72100000Y-56200000D02*
X73700000Y-56200000D01*
%TO.N,MotorPower*%
X77900000Y-59400000D02*
X78400000Y-59900000D01*
X69100000Y-57400000D02*
X71100000Y-59400000D01*
X69100000Y-53200000D02*
X69100000Y-57400000D01*
X68700000Y-52800000D02*
X69100000Y-53200000D01*
X71100000Y-59400000D02*
X77900000Y-59400000D01*
D41*
X93910000Y-74700000D02*
X93910000Y-76310000D01*
X93910000Y-76310000D02*
X95000000Y-77400000D01*
%TO.N,GND*%
X95180000Y-73715000D02*
X89465000Y-68000000D01*
X95180000Y-74700000D02*
X95180000Y-73715000D01*
X98500000Y-58562500D02*
X98437500Y-58500000D01*
%TO.N,MotorPower*%
X94700000Y-58500000D02*
X94500000Y-58300000D01*
X96362500Y-58500000D02*
X94700000Y-58500000D01*
X93910000Y-59090000D02*
X94500000Y-58500000D01*
X93910000Y-61300000D02*
X93910000Y-59090000D01*
X94500000Y-58500000D02*
X94500000Y-58300000D01*
D42*
%TO.N,M_FRONT*%
X73650000Y-54250000D02*
X73700000Y-54200000D01*
X72400000Y-54250000D02*
X73650000Y-54250000D01*
D41*
%TO.N,Net-(CR1-OUT2B)*%
X92640000Y-76816000D02*
X92500000Y-76956000D01*
X92640000Y-74700000D02*
X92640000Y-76816000D01*
%TO.N,Net-(CR1-OUT1B)*%
X85020000Y-76476000D02*
X85500000Y-76956000D01*
X85020000Y-74700000D02*
X85020000Y-76476000D01*
%TO.N,Net-(CR1-OUT2A)*%
X92640000Y-61300000D02*
X92640000Y-59140000D01*
X92640000Y-59140000D02*
X92500000Y-59000000D01*
%TO.N,Net-(CR1-OUT1A)*%
X85020000Y-59480000D02*
X85500000Y-59000000D01*
X85020000Y-61300000D02*
X85020000Y-59480000D01*
%TO.N,GND*%
X89805000Y-66195000D02*
X90400000Y-65600000D01*
D42*
%TO.N,M_FRONT*%
X75900000Y-54200000D02*
X76200000Y-53900000D01*
X73700000Y-54200000D02*
X75900000Y-54200000D01*
X76200000Y-53900000D02*
X78500000Y-51600000D01*
D44*
%TO.N,GND*%
X74000000Y-56500000D02*
X73700000Y-56200000D01*
D42*
%TO.N,M_FRONT*%
X78500000Y-51600000D02*
X80950000Y-51600000D01*
D43*
%TO.N,MotorPower*%
X68700000Y-52800000D02*
X66312500Y-52800000D01*
X66312500Y-52800000D02*
X64862500Y-51350000D01*
D44*
%TO.N,GND*%
X64712500Y-44112500D02*
X64712500Y-44212500D01*
%TO.N,Net-(D3-A)*%
X74650000Y-49300000D02*
X80950000Y-49300000D01*
X70450000Y-45100000D02*
X74650000Y-49300000D01*
X70450000Y-39485000D02*
X70450000Y-45100000D01*
D40*
%TO.N,GND*%
X62537500Y-34900000D02*
X61837500Y-34200000D01*
X66600000Y-34900000D02*
X62537500Y-34900000D01*
X67400000Y-34100000D02*
X66600000Y-34900000D01*
X67400000Y-32800000D02*
X67400000Y-34100000D01*
D44*
%TO.N,Net-(D3-A)*%
X68165000Y-37200000D02*
X70450000Y-39485000D01*
D43*
%TO.N,MotorPower*%
X53962500Y-50912500D02*
X55350000Y-52300000D01*
X55350000Y-52300000D02*
X63912500Y-52300000D01*
X55662500Y-41812500D02*
X53962500Y-43512500D01*
X53962500Y-43512500D02*
X53962500Y-50912500D01*
X58062500Y-41812500D02*
X55662500Y-41812500D01*
X63912500Y-52300000D02*
X64862500Y-51350000D01*
D40*
%TO.N,GND*%
X60850000Y-24400000D02*
X67950000Y-24400000D01*
X61302500Y-37187500D02*
X61837500Y-36652500D01*
D43*
X61687500Y-37187500D02*
X63756250Y-39256250D01*
D41*
X51700000Y-50300000D02*
X51700000Y-55800000D01*
D40*
X63700000Y-55700000D02*
X61600000Y-53600000D01*
X63700000Y-55700000D02*
X63700000Y-57900000D01*
D44*
X64712500Y-44112500D02*
X64712500Y-45425000D01*
D40*
X67400000Y-30950000D02*
X60850000Y-24400000D01*
X63700000Y-57900000D02*
X70100000Y-64300000D01*
D43*
X63756250Y-39256250D02*
X64712500Y-40212500D01*
D40*
X70100000Y-64300000D02*
X73220000Y-64300000D01*
D41*
X59740000Y-114500000D02*
X59760000Y-114520000D01*
D43*
X61302500Y-37187500D02*
X61687500Y-37187500D01*
D40*
X51700000Y-51400000D02*
X51700000Y-50300000D01*
D41*
X51700000Y-63080000D02*
X57990000Y-69370000D01*
D40*
X62300000Y-114520000D02*
X59760000Y-114520000D01*
D41*
X51700000Y-38000000D02*
X51700000Y-50300000D01*
D40*
X61600000Y-53600000D02*
X53900000Y-53600000D01*
D41*
X61837500Y-34200000D02*
X61837500Y-32937500D01*
D44*
X61302500Y-37187500D02*
X61300000Y-37185000D01*
D43*
X64712500Y-40212500D02*
X64712500Y-44112500D01*
D40*
X67400000Y-32800000D02*
X67400000Y-30950000D01*
X67380000Y-114520000D02*
X64840000Y-114520000D01*
D41*
X51700000Y-55800000D02*
X51700000Y-63080000D01*
X61300000Y-32400000D02*
X57300000Y-32400000D01*
D43*
X64862500Y-44262500D02*
X64712500Y-44112500D01*
D41*
X61837500Y-32937500D02*
X61300000Y-32400000D01*
X61837500Y-36652500D02*
X61837500Y-34200000D01*
D40*
X73220000Y-64300000D02*
X73230000Y-64290000D01*
D44*
X64712500Y-45425000D02*
X61237500Y-48900000D01*
D41*
X57300000Y-32400000D02*
X51700000Y-38000000D01*
D40*
X53900000Y-53600000D02*
X51700000Y-51400000D01*
X64840000Y-114520000D02*
X62300000Y-114520000D01*
X61200000Y-37085000D02*
X61302500Y-37187500D01*
D44*
X61256250Y-37141250D02*
X61302500Y-37187500D01*
D43*
X64862500Y-49275000D02*
X64862500Y-44262500D01*
D40*
X53900000Y-53600000D02*
X51700000Y-55800000D01*
D44*
X63800000Y-43200000D02*
X64712500Y-44112500D01*
%TO.N,+5V*%
X58400000Y-46750000D02*
X58062500Y-46412500D01*
D40*
X69400000Y-22400000D02*
X67950000Y-22400000D01*
X71100000Y-31100000D02*
X71100000Y-24100000D01*
X69400000Y-32800000D02*
X71100000Y-31100000D01*
D44*
X58062500Y-46412500D02*
X58062500Y-47800000D01*
D42*
X60850000Y-22400000D02*
X60650000Y-22200000D01*
D44*
X58062500Y-47800000D02*
X59162500Y-48900000D01*
D40*
X60850000Y-22400000D02*
X67950000Y-22400000D01*
X71100000Y-24100000D02*
X69400000Y-22400000D01*
%TO.N,MotorPower*%
X59400000Y-36550000D02*
X58762500Y-37187500D01*
D41*
X58762500Y-35200000D02*
X59762500Y-34200000D01*
D43*
X58762500Y-37187500D02*
X58762500Y-41112500D01*
X58762500Y-41112500D02*
X58062500Y-41812500D01*
D41*
X58762500Y-37187500D02*
X58762500Y-35200000D01*
D40*
%TO.N,Net-(A1-A2)*%
X65000000Y-101500000D02*
X69000000Y-97500000D01*
X72390000Y-84610000D02*
X73230000Y-84610000D01*
X45500000Y-101500000D02*
X65000000Y-101500000D01*
X69000000Y-97500000D02*
X69000000Y-88000000D01*
X45000000Y-101000000D02*
X45500000Y-101500000D01*
X69000000Y-88000000D02*
X72390000Y-84610000D01*
%TO.N,Net-(A1-A3)*%
X68000000Y-97500000D02*
X68000000Y-87300000D01*
X45000000Y-99500000D02*
X46000000Y-100500000D01*
X65000000Y-100500000D02*
X68000000Y-97500000D01*
X46000000Y-100500000D02*
X65000000Y-100500000D01*
X68000000Y-87300000D02*
X73230000Y-82070000D01*
%TO.N,FLOOR_SENSOR_RIGHT*%
X65000000Y-102500000D02*
X70000000Y-97500000D01*
X70000000Y-90380000D02*
X73230000Y-87150000D01*
X70000000Y-97500000D02*
X70000000Y-90380000D01*
X45000000Y-102500000D02*
X65000000Y-102500000D01*
%TO.N,START_MODULE*%
X61160000Y-68740000D02*
X57990000Y-71910000D01*
X61160000Y-55700000D02*
X61160000Y-68740000D01*
%TO.N,Net-(A1-A4)*%
X45000000Y-98000000D02*
X46500000Y-99500000D01*
X65000000Y-99500000D02*
X67000000Y-97500000D01*
X67000000Y-97500000D02*
X67000000Y-85760000D01*
X46500000Y-99500000D02*
X65000000Y-99500000D01*
X67000000Y-85760000D02*
X73230000Y-79530000D01*
D44*
%TO.N,GND*%
X84500000Y-54200000D02*
X84500000Y-48800000D01*
X84500000Y-48800000D02*
X82700000Y-47000000D01*
X82700000Y-47000000D02*
X80950000Y-47000000D01*
D43*
X79700000Y-56400000D02*
X82300000Y-56400000D01*
X78400000Y-55100000D02*
X79700000Y-56400000D01*
D44*
X82300000Y-56400000D02*
X84500000Y-54200000D01*
D43*
X98000000Y-56400000D02*
X82300000Y-56400000D01*
D42*
%TO.N,M_IN1A*%
X88800000Y-59700000D02*
X88830000Y-59730000D01*
X88830000Y-59730000D02*
X88830000Y-61300000D01*
%TD*%
%TA.AperFunction,Conductor*%
%TO.N,GND*%
G36*
X71425000Y-19520462D02*
G01*
X71479538Y-19575000D01*
X71499500Y-19649500D01*
X71499500Y-22371308D01*
X71479538Y-22445808D01*
X71425000Y-22500346D01*
X71350500Y-22520308D01*
X71276000Y-22500346D01*
X71245141Y-22476667D01*
X70754257Y-21985783D01*
X70214646Y-21446172D01*
X70055405Y-21330476D01*
X69880026Y-21241116D01*
X69692826Y-21180291D01*
X69592681Y-21164429D01*
X69498399Y-21149497D01*
X69493020Y-21149074D01*
X69420318Y-21123321D01*
X69399367Y-21105894D01*
X69379655Y-21086182D01*
X69371153Y-21080292D01*
X69194626Y-20957993D01*
X69194625Y-20957992D01*
X69194623Y-20957991D01*
X68989687Y-20864904D01*
X68844924Y-20828427D01*
X68771412Y-20809904D01*
X68771409Y-20809903D01*
X68771406Y-20809903D01*
X68711122Y-20805159D01*
X68639217Y-20799500D01*
X68639209Y-20799500D01*
X67260791Y-20799500D01*
X67260788Y-20799500D01*
X67260784Y-20799501D01*
X67215622Y-20803054D01*
X67128593Y-20809903D01*
X67128589Y-20809903D01*
X67128588Y-20809904D01*
X67091264Y-20819308D01*
X66910312Y-20864904D01*
X66705376Y-20957991D01*
X66520344Y-21086182D01*
X66500668Y-21105859D01*
X66433873Y-21144423D01*
X66395309Y-21149500D01*
X62404691Y-21149500D01*
X62330191Y-21129538D01*
X62299332Y-21105859D01*
X62279655Y-21086182D01*
X62271153Y-21080292D01*
X62094626Y-20957993D01*
X62094625Y-20957992D01*
X62094623Y-20957991D01*
X61889687Y-20864904D01*
X61744924Y-20828427D01*
X61671412Y-20809904D01*
X61671409Y-20809903D01*
X61671406Y-20809903D01*
X61611122Y-20805159D01*
X61539217Y-20799500D01*
X61539209Y-20799500D01*
X60160791Y-20799500D01*
X60160788Y-20799500D01*
X60160784Y-20799501D01*
X60115622Y-20803054D01*
X60028593Y-20809903D01*
X60028589Y-20809903D01*
X60028588Y-20809904D01*
X59991264Y-20819308D01*
X59810312Y-20864904D01*
X59605376Y-20957991D01*
X59420344Y-21086182D01*
X59261182Y-21245344D01*
X59132991Y-21430376D01*
X59039904Y-21635312D01*
X58984903Y-21853593D01*
X58979054Y-21927919D01*
X58977041Y-21953504D01*
X58974500Y-21985789D01*
X58974500Y-22814208D01*
X58974501Y-22814211D01*
X58984903Y-22946406D01*
X58984903Y-22946409D01*
X58984904Y-22946412D01*
X59003427Y-23019924D01*
X59039904Y-23164687D01*
X59132991Y-23369623D01*
X59132992Y-23369625D01*
X59132993Y-23369626D01*
X59261181Y-23554654D01*
X59420346Y-23713819D01*
X59605374Y-23842007D01*
X59605375Y-23842007D01*
X59605376Y-23842008D01*
X59810312Y-23935095D01*
X59847640Y-23944500D01*
X60028588Y-23990096D01*
X60160783Y-24000500D01*
X61539216Y-24000499D01*
X61671412Y-23990096D01*
X61889683Y-23935096D01*
X61889682Y-23935096D01*
X61889687Y-23935095D01*
X62031613Y-23870628D01*
X62094626Y-23842007D01*
X62279654Y-23713819D01*
X62299332Y-23694141D01*
X62366127Y-23655577D01*
X62404691Y-23650500D01*
X66395309Y-23650500D01*
X66469809Y-23670462D01*
X66500668Y-23694141D01*
X66520346Y-23713819D01*
X66705374Y-23842007D01*
X66705375Y-23842007D01*
X66705376Y-23842008D01*
X66910312Y-23935095D01*
X66947640Y-23944500D01*
X67128588Y-23990096D01*
X67260783Y-24000500D01*
X68639216Y-24000499D01*
X68771412Y-23990096D01*
X68989683Y-23935096D01*
X69017370Y-23922519D01*
X69093454Y-23909885D01*
X69165664Y-23936985D01*
X69184348Y-23952822D01*
X69805859Y-24574333D01*
X69844423Y-24641128D01*
X69849500Y-24679692D01*
X69849500Y-25454423D01*
X69829538Y-25528923D01*
X69775000Y-25583461D01*
X69700500Y-25603423D01*
X69626000Y-25583461D01*
X69579957Y-25542003D01*
X69445800Y-25357353D01*
X69445795Y-25357347D01*
X69445793Y-25357344D01*
X69267656Y-25179207D01*
X69063845Y-25031130D01*
X68839379Y-24916759D01*
X68599785Y-24838910D01*
X68350962Y-24799500D01*
X67549038Y-24799500D01*
X67341685Y-24832341D01*
X67300214Y-24838910D01*
X67060627Y-24916757D01*
X67060621Y-24916759D01*
X67060615Y-24916761D01*
X67060615Y-24916762D01*
X66836153Y-25031131D01*
X66836152Y-25031131D01*
X66632345Y-25179206D01*
X66632342Y-25179208D01*
X66454208Y-25357342D01*
X66454206Y-25357345D01*
X66306131Y-25561152D01*
X66306131Y-25561153D01*
X66306130Y-25561155D01*
X66191759Y-25785621D01*
X66113910Y-26025215D01*
X66074500Y-26274038D01*
X66074500Y-26525962D01*
X66113910Y-26774785D01*
X66191759Y-27014379D01*
X66306130Y-27238845D01*
X66454207Y-27442656D01*
X66632344Y-27620793D01*
X66836155Y-27768870D01*
X67060621Y-27883241D01*
X67300215Y-27961090D01*
X67549038Y-28000500D01*
X67549043Y-28000500D01*
X68350957Y-28000500D01*
X68350962Y-28000500D01*
X68599785Y-27961090D01*
X68839379Y-27883241D01*
X69063845Y-27768870D01*
X69267656Y-27620793D01*
X69445793Y-27442656D01*
X69579956Y-27257995D01*
X69639896Y-27209458D01*
X69716075Y-27197392D01*
X69788080Y-27225032D01*
X69836618Y-27284972D01*
X69849500Y-27345576D01*
X69849500Y-30520307D01*
X69829538Y-30594807D01*
X69805859Y-30625666D01*
X69550666Y-30880859D01*
X69483871Y-30919423D01*
X69445307Y-30924500D01*
X68985791Y-30924500D01*
X68985788Y-30924500D01*
X68985784Y-30924501D01*
X68940622Y-30928054D01*
X68853593Y-30934903D01*
X68853589Y-30934903D01*
X68853588Y-30934904D01*
X68816264Y-30944308D01*
X68635312Y-30989904D01*
X68430376Y-31082991D01*
X68245344Y-31211182D01*
X68086182Y-31370344D01*
X67957991Y-31555376D01*
X67864904Y-31760312D01*
X67809903Y-31978593D01*
X67799500Y-32110789D01*
X67799500Y-33489208D01*
X67799500Y-33489210D01*
X67799501Y-33489216D01*
X67802599Y-33528588D01*
X67809903Y-33621406D01*
X67809903Y-33621409D01*
X67809904Y-33621412D01*
X67819825Y-33660783D01*
X67864904Y-33839687D01*
X67957991Y-34044623D01*
X67957992Y-34044625D01*
X67957993Y-34044626D01*
X68086181Y-34229654D01*
X68245346Y-34388819D01*
X68430374Y-34517007D01*
X68430375Y-34517007D01*
X68430376Y-34517008D01*
X68635312Y-34610095D01*
X68672640Y-34619500D01*
X68853588Y-34665096D01*
X68985783Y-34675500D01*
X69814216Y-34675499D01*
X69946412Y-34665096D01*
X70164683Y-34610096D01*
X70164682Y-34610096D01*
X70164687Y-34610095D01*
X70306613Y-34545628D01*
X70369626Y-34517007D01*
X70554654Y-34388819D01*
X70713819Y-34229654D01*
X70842007Y-34044626D01*
X70870628Y-33981613D01*
X70935095Y-33839687D01*
X70958784Y-33745675D01*
X70990096Y-33621412D01*
X71000500Y-33489217D01*
X71000499Y-33029690D01*
X71020461Y-32955191D01*
X71044136Y-32924336D01*
X71245142Y-32723331D01*
X71311936Y-32684768D01*
X71389064Y-32684768D01*
X71455859Y-32723332D01*
X71494423Y-32790127D01*
X71499500Y-32828691D01*
X71499500Y-34065892D01*
X71533608Y-34193186D01*
X71558623Y-34236514D01*
X71599497Y-34307310D01*
X71599498Y-34307311D01*
X71599500Y-34307314D01*
X71692686Y-34400500D01*
X71806814Y-34466392D01*
X71934108Y-34500500D01*
X72065892Y-34500500D01*
X101350500Y-34500500D01*
X101425000Y-34520462D01*
X101479538Y-34575000D01*
X101499500Y-34649500D01*
X101499500Y-60259176D01*
X101479538Y-60333676D01*
X101425000Y-60388214D01*
X101350500Y-60408176D01*
X101276000Y-60388214D01*
X101245141Y-60364535D01*
X100919975Y-60039369D01*
X100881411Y-59972574D01*
X100880450Y-59968789D01*
X100876875Y-59953897D01*
X100876871Y-59953884D01*
X100780467Y-59721143D01*
X100771298Y-59706180D01*
X100648836Y-59506341D01*
X100485224Y-59314776D01*
X100293659Y-59151164D01*
X100078859Y-59019534D01*
X100078856Y-59019533D01*
X100078855Y-59019532D01*
X100078856Y-59019532D01*
X99846113Y-58923127D01*
X99846099Y-58923123D01*
X99601158Y-58864319D01*
X99601151Y-58864317D01*
X99350000Y-58844551D01*
X99098848Y-58864317D01*
X99098841Y-58864319D01*
X98853900Y-58923123D01*
X98853886Y-58923127D01*
X98621143Y-59019532D01*
X98406340Y-59151164D01*
X98214779Y-59314773D01*
X98214778Y-59314774D01*
X98214776Y-59314776D01*
X98187164Y-59347105D01*
X98123602Y-59390789D01*
X98046711Y-59396840D01*
X97977097Y-59363635D01*
X97933412Y-59300071D01*
X97927361Y-59223180D01*
X97929376Y-59213951D01*
X97940096Y-59171412D01*
X97950500Y-59039217D01*
X97950499Y-57960784D01*
X97940096Y-57828588D01*
X97885096Y-57610317D01*
X97885095Y-57610312D01*
X97792008Y-57405376D01*
X97781147Y-57389699D01*
X97663819Y-57220346D01*
X97504654Y-57061181D01*
X97319626Y-56932993D01*
X97319625Y-56932992D01*
X97319623Y-56932991D01*
X97114687Y-56839904D01*
X96969924Y-56803427D01*
X96896412Y-56784904D01*
X96896409Y-56784903D01*
X96896406Y-56784903D01*
X96836122Y-56780159D01*
X96764217Y-56774500D01*
X96764209Y-56774500D01*
X95960791Y-56774500D01*
X95960788Y-56774500D01*
X95960784Y-56774501D01*
X95915622Y-56778054D01*
X95828593Y-56784903D01*
X95828589Y-56784903D01*
X95828588Y-56784904D01*
X95791264Y-56794308D01*
X95610312Y-56839904D01*
X95435496Y-56919310D01*
X95359410Y-56931945D01*
X95296025Y-56910693D01*
X95228859Y-56869534D01*
X95228858Y-56869533D01*
X95228854Y-56869531D01*
X94996113Y-56773127D01*
X94996099Y-56773123D01*
X94751158Y-56714319D01*
X94751151Y-56714317D01*
X94500000Y-56694551D01*
X94248848Y-56714317D01*
X94248841Y-56714319D01*
X94003900Y-56773123D01*
X94003886Y-56773127D01*
X93771143Y-56869532D01*
X93556340Y-57001164D01*
X93364779Y-57164773D01*
X93364773Y-57164779D01*
X93254304Y-57294121D01*
X93190740Y-57337807D01*
X93113850Y-57343858D01*
X93097085Y-57339733D01*
X92893298Y-57276872D01*
X92893294Y-57276871D01*
X92632084Y-57237500D01*
X92632081Y-57237500D01*
X92367919Y-57237500D01*
X92367915Y-57237500D01*
X92106705Y-57276871D01*
X92106701Y-57276872D01*
X91854289Y-57354732D01*
X91854284Y-57354733D01*
X91616285Y-57469346D01*
X91616279Y-57469349D01*
X91616279Y-57469350D01*
X91567856Y-57502363D01*
X91398019Y-57618157D01*
X91285315Y-57722730D01*
X91217124Y-57758769D01*
X91172280Y-57762045D01*
X90950000Y-57744551D01*
X90698848Y-57764317D01*
X90698841Y-57764319D01*
X90453900Y-57823123D01*
X90453886Y-57823127D01*
X90221145Y-57919531D01*
X90078473Y-58006961D01*
X90004521Y-58028866D01*
X89962060Y-58023841D01*
X89926692Y-58014365D01*
X89700000Y-57994532D01*
X89473306Y-58014365D01*
X89253507Y-58073260D01*
X89253506Y-58073260D01*
X89253504Y-58073261D01*
X89047266Y-58169432D01*
X89047263Y-58169434D01*
X89047261Y-58169435D01*
X89047258Y-58169437D01*
X88860868Y-58299947D01*
X88860862Y-58299952D01*
X88801395Y-58359418D01*
X88734600Y-58397981D01*
X88709026Y-58402490D01*
X88573306Y-58414365D01*
X88353506Y-58473260D01*
X88312969Y-58492163D01*
X88237012Y-58505555D01*
X88187031Y-58492163D01*
X88177827Y-58487871D01*
X88146496Y-58473261D01*
X88146493Y-58473260D01*
X87926692Y-58414365D01*
X87926693Y-58414365D01*
X87700000Y-58394532D01*
X87473306Y-58414365D01*
X87321631Y-58455006D01*
X87244503Y-58455006D01*
X87177708Y-58416442D01*
X87144367Y-58365519D01*
X87092410Y-58233136D01*
X86960329Y-58004364D01*
X86925329Y-57960475D01*
X86795627Y-57797833D01*
X86601984Y-57618160D01*
X86601982Y-57618158D01*
X86383721Y-57469350D01*
X86383717Y-57469348D01*
X86383714Y-57469346D01*
X86145715Y-57354733D01*
X86145710Y-57354732D01*
X85893298Y-57276872D01*
X85893294Y-57276871D01*
X85632084Y-57237500D01*
X85632081Y-57237500D01*
X85367919Y-57237500D01*
X85367915Y-57237500D01*
X85106705Y-57276871D01*
X85106701Y-57276872D01*
X84854289Y-57354732D01*
X84854284Y-57354733D01*
X84616285Y-57469346D01*
X84616279Y-57469349D01*
X84616279Y-57469350D01*
X84492780Y-57553550D01*
X84398015Y-57618160D01*
X84204372Y-57797833D01*
X84039675Y-58004358D01*
X84039670Y-58004366D01*
X83907590Y-58233135D01*
X83907588Y-58233140D01*
X83811079Y-58479037D01*
X83811077Y-58479044D01*
X83752298Y-58736575D01*
X83752298Y-58736577D01*
X83741657Y-58878564D01*
X83725838Y-58935065D01*
X83722109Y-58942384D01*
X83722105Y-58942393D01*
X83653985Y-59152046D01*
X83653985Y-59152049D01*
X83619499Y-59369778D01*
X83619499Y-59369783D01*
X83619499Y-59596364D01*
X83619500Y-59596389D01*
X83619500Y-62358030D01*
X83619501Y-62358036D01*
X83630114Y-62477418D01*
X83630114Y-62477421D01*
X83630115Y-62477422D01*
X83686091Y-62673050D01*
X83714491Y-62727418D01*
X83779265Y-62851422D01*
X83780303Y-62853408D01*
X83780306Y-62853413D01*
X83908886Y-63011104D01*
X83908895Y-63011113D01*
X84066586Y-63139693D01*
X84066589Y-63139694D01*
X84066593Y-63139698D01*
X84246951Y-63233909D01*
X84442582Y-63289886D01*
X84561963Y-63300500D01*
X85378036Y-63300499D01*
X85497418Y-63289886D01*
X85693049Y-63233909D01*
X85873407Y-63139698D01*
X86031109Y-63011109D01*
X86124523Y-62896544D01*
X86187073Y-62851422D01*
X86263805Y-62843619D01*
X86334159Y-62875227D01*
X86355473Y-62896541D01*
X86448887Y-63011104D01*
X86448892Y-63011110D01*
X86448895Y-63011113D01*
X86606586Y-63139693D01*
X86606589Y-63139694D01*
X86606593Y-63139698D01*
X86786951Y-63233909D01*
X86982582Y-63289886D01*
X87101963Y-63300500D01*
X87918036Y-63300499D01*
X88037418Y-63289886D01*
X88104010Y-63270830D01*
X88181126Y-63269528D01*
X88185971Y-63270825D01*
X88252582Y-63289886D01*
X88371963Y-63300500D01*
X89188036Y-63300499D01*
X89307418Y-63289886D01*
X89374010Y-63270830D01*
X89451126Y-63269528D01*
X89455971Y-63270825D01*
X89522582Y-63289886D01*
X89641963Y-63300500D01*
X90458036Y-63300499D01*
X90577418Y-63289886D01*
X90644010Y-63270830D01*
X90721126Y-63269528D01*
X90725971Y-63270825D01*
X90792582Y-63289886D01*
X90911963Y-63300500D01*
X91728036Y-63300499D01*
X91847418Y-63289886D01*
X91914010Y-63270830D01*
X91991126Y-63269528D01*
X91995971Y-63270825D01*
X92062582Y-63289886D01*
X92181963Y-63300500D01*
X92998036Y-63300499D01*
X93117418Y-63289886D01*
X93184010Y-63270830D01*
X93261126Y-63269528D01*
X93265971Y-63270825D01*
X93332582Y-63289886D01*
X93451963Y-63300500D01*
X94268036Y-63300499D01*
X94387418Y-63289886D01*
X94583049Y-63233909D01*
X94763407Y-63139698D01*
X94921109Y-63011109D01*
X95049698Y-62853407D01*
X95143909Y-62673049D01*
X95199886Y-62477418D01*
X95210500Y-62358037D01*
X95210499Y-61853185D01*
X95217792Y-61807142D01*
X95220098Y-61800047D01*
X95276015Y-61627951D01*
X95310500Y-61410222D01*
X95310500Y-60255242D01*
X95330462Y-60180742D01*
X95385000Y-60126204D01*
X95459500Y-60106242D01*
X95521118Y-60119580D01*
X95610317Y-60160096D01*
X95828588Y-60215096D01*
X95960783Y-60225500D01*
X96764216Y-60225499D01*
X96896412Y-60215096D01*
X97114683Y-60160096D01*
X97114682Y-60160096D01*
X97114687Y-60160095D01*
X97310969Y-60070939D01*
X97319626Y-60067007D01*
X97504654Y-59938819D01*
X97554927Y-59888545D01*
X97621720Y-59849982D01*
X97698848Y-59849982D01*
X97765643Y-59888545D01*
X97804208Y-59955340D01*
X97805168Y-60028687D01*
X97764319Y-60198837D01*
X97764317Y-60198848D01*
X97744551Y-60450000D01*
X97764317Y-60701151D01*
X97764319Y-60701158D01*
X97823123Y-60946099D01*
X97823127Y-60946113D01*
X97919532Y-61178856D01*
X97919534Y-61178859D01*
X98051164Y-61393659D01*
X98214776Y-61585224D01*
X98406341Y-61748836D01*
X98621141Y-61880466D01*
X98621143Y-61880467D01*
X98742091Y-61930565D01*
X98853889Y-61976873D01*
X98853895Y-61976874D01*
X98853897Y-61976875D01*
X98868789Y-61980450D01*
X98936572Y-62017250D01*
X98939369Y-62019975D01*
X99655859Y-62736465D01*
X99694423Y-62803260D01*
X99699500Y-62841824D01*
X99699500Y-75321556D01*
X99679538Y-75396056D01*
X99625000Y-75450594D01*
X99612121Y-75457217D01*
X99555375Y-75482992D01*
X99370344Y-75611182D01*
X99211182Y-75770344D01*
X99082991Y-75955376D01*
X98989904Y-76160312D01*
X98934903Y-76378593D01*
X98929054Y-76452919D01*
X98928670Y-76457805D01*
X98924500Y-76510789D01*
X98924500Y-77314208D01*
X98924501Y-77314211D01*
X98934903Y-77446406D01*
X98934903Y-77446409D01*
X98934904Y-77446412D01*
X98953998Y-77522187D01*
X98989904Y-77664686D01*
X99082991Y-77869623D01*
X99086294Y-77875443D01*
X99084039Y-77876722D01*
X99105908Y-77937758D01*
X99092134Y-78013647D01*
X99085948Y-78024360D01*
X99086294Y-78024557D01*
X99082993Y-78030373D01*
X99037996Y-78129437D01*
X98989010Y-78189012D01*
X98916800Y-78216112D01*
X98840714Y-78203477D01*
X98834691Y-78200576D01*
X98742536Y-78153621D01*
X98742535Y-78153620D01*
X98742526Y-78153616D01*
X98555326Y-78092791D01*
X98360917Y-78062000D01*
X98360912Y-78062000D01*
X97792191Y-78062000D01*
X97717691Y-78042038D01*
X97686832Y-78018359D01*
X97679655Y-78011182D01*
X97673773Y-78007107D01*
X97494626Y-77882993D01*
X97494625Y-77882992D01*
X97494623Y-77882991D01*
X97289688Y-77789905D01*
X97154019Y-77755719D01*
X97086655Y-77718158D01*
X97085068Y-77716594D01*
X96630390Y-77261916D01*
X96591826Y-77195121D01*
X96587209Y-77168253D01*
X96585683Y-77148852D01*
X96553213Y-77013605D01*
X96526876Y-76903900D01*
X96526872Y-76903886D01*
X96430467Y-76671143D01*
X96370158Y-76572728D01*
X96298836Y-76456341D01*
X96135224Y-76264776D01*
X95943659Y-76101164D01*
X95728859Y-75969534D01*
X95728856Y-75969533D01*
X95728855Y-75969532D01*
X95728856Y-75969532D01*
X95496109Y-75873126D01*
X95481202Y-75869547D01*
X95413421Y-75832743D01*
X95410630Y-75830024D01*
X95354141Y-75773535D01*
X95315577Y-75706740D01*
X95310500Y-75668176D01*
X95310500Y-74589781D01*
X95310500Y-74589778D01*
X95276015Y-74372049D01*
X95217791Y-74192851D01*
X95210499Y-74146808D01*
X95210499Y-73641969D01*
X95210499Y-73641964D01*
X95199886Y-73522582D01*
X95143909Y-73326951D01*
X95049698Y-73146593D01*
X95049694Y-73146589D01*
X95049693Y-73146586D01*
X94921113Y-72988895D01*
X94921104Y-72988886D01*
X94763413Y-72860306D01*
X94763408Y-72860303D01*
X94763407Y-72860302D01*
X94677261Y-72815303D01*
X94583050Y-72766091D01*
X94387422Y-72710115D01*
X94387421Y-72710114D01*
X94387418Y-72710114D01*
X94268037Y-72699500D01*
X94268030Y-72699500D01*
X93451969Y-72699500D01*
X93392273Y-72704807D01*
X93332582Y-72710114D01*
X93332579Y-72710114D01*
X93332577Y-72710115D01*
X93332574Y-72710115D01*
X93265989Y-72729168D01*
X93188872Y-72730471D01*
X93184011Y-72729168D01*
X93117423Y-72710115D01*
X93117420Y-72710114D01*
X93117418Y-72710114D01*
X92998037Y-72699500D01*
X92998030Y-72699500D01*
X92181969Y-72699500D01*
X92122273Y-72704807D01*
X92062582Y-72710114D01*
X92062579Y-72710114D01*
X92062577Y-72710115D01*
X92062574Y-72710115D01*
X91995989Y-72729168D01*
X91918872Y-72730471D01*
X91914011Y-72729168D01*
X91847423Y-72710115D01*
X91847420Y-72710114D01*
X91847418Y-72710114D01*
X91728037Y-72699500D01*
X91728030Y-72699500D01*
X90911969Y-72699500D01*
X90852273Y-72704807D01*
X90792582Y-72710114D01*
X90792579Y-72710114D01*
X90792577Y-72710115D01*
X90792574Y-72710115D01*
X90725989Y-72729168D01*
X90648872Y-72730471D01*
X90644011Y-72729168D01*
X90577423Y-72710115D01*
X90577420Y-72710114D01*
X90577418Y-72710114D01*
X90458037Y-72699500D01*
X90458030Y-72699500D01*
X89641969Y-72699500D01*
X89582273Y-72704807D01*
X89522582Y-72710114D01*
X89522579Y-72710114D01*
X89522577Y-72710115D01*
X89522574Y-72710115D01*
X89455989Y-72729168D01*
X89378872Y-72730471D01*
X89374011Y-72729168D01*
X89307423Y-72710115D01*
X89307420Y-72710114D01*
X89307418Y-72710114D01*
X89188037Y-72699500D01*
X89188030Y-72699500D01*
X88371969Y-72699500D01*
X88312273Y-72704807D01*
X88252582Y-72710114D01*
X88252579Y-72710114D01*
X88252577Y-72710115D01*
X88252574Y-72710115D01*
X88185989Y-72729168D01*
X88108872Y-72730471D01*
X88104011Y-72729168D01*
X88037423Y-72710115D01*
X88037420Y-72710114D01*
X88037418Y-72710114D01*
X87918037Y-72699500D01*
X87918030Y-72699500D01*
X87101969Y-72699500D01*
X87042273Y-72704807D01*
X86982582Y-72710114D01*
X86982579Y-72710114D01*
X86982577Y-72710115D01*
X86786949Y-72766091D01*
X86606591Y-72860303D01*
X86606586Y-72860306D01*
X86448895Y-72988886D01*
X86448891Y-72988890D01*
X86355477Y-73103454D01*
X86292926Y-73148577D01*
X86216194Y-73156380D01*
X86145840Y-73124771D01*
X86124523Y-73103454D01*
X86031108Y-72988890D01*
X86031104Y-72988886D01*
X85873413Y-72860306D01*
X85873408Y-72860303D01*
X85873407Y-72860302D01*
X85787261Y-72815303D01*
X85693050Y-72766091D01*
X85497422Y-72710115D01*
X85497421Y-72710114D01*
X85497418Y-72710114D01*
X85378037Y-72699500D01*
X85378030Y-72699500D01*
X84561969Y-72699500D01*
X84502273Y-72704807D01*
X84442582Y-72710114D01*
X84442579Y-72710114D01*
X84442577Y-72710115D01*
X84246949Y-72766091D01*
X84066591Y-72860303D01*
X84066586Y-72860306D01*
X83908895Y-72988886D01*
X83908886Y-72988895D01*
X83780306Y-73146586D01*
X83780303Y-73146591D01*
X83686091Y-73326949D01*
X83655775Y-73432900D01*
X83630114Y-73522582D01*
X83619500Y-73641963D01*
X83619500Y-73641964D01*
X83619500Y-73641969D01*
X83619500Y-76360475D01*
X83619499Y-76360505D01*
X83619499Y-76586223D01*
X83632950Y-76671143D01*
X83640830Y-76720897D01*
X83650387Y-76781240D01*
X83653985Y-76803953D01*
X83722104Y-77013605D01*
X83725836Y-77020929D01*
X83741657Y-77077434D01*
X83752298Y-77219422D01*
X83752298Y-77219424D01*
X83811077Y-77476955D01*
X83811079Y-77476962D01*
X83904810Y-77715781D01*
X83907590Y-77722864D01*
X84039671Y-77951636D01*
X84039675Y-77951641D01*
X84204372Y-78158166D01*
X84314124Y-78260000D01*
X84398018Y-78337842D01*
X84616279Y-78486650D01*
X84854281Y-78601265D01*
X85106707Y-78679129D01*
X85367919Y-78718500D01*
X85367922Y-78718500D01*
X85632078Y-78718500D01*
X85632081Y-78718500D01*
X85893293Y-78679129D01*
X86145719Y-78601265D01*
X86383721Y-78486650D01*
X86601982Y-78337842D01*
X86795627Y-78158166D01*
X86960329Y-77951636D01*
X87053488Y-77790278D01*
X87108024Y-77735743D01*
X87182523Y-77715781D01*
X87245495Y-77729741D01*
X87247261Y-77730564D01*
X87247266Y-77730568D01*
X87453504Y-77826739D01*
X87490576Y-77836672D01*
X87557371Y-77875236D01*
X87595936Y-77942030D01*
X87600446Y-77967608D01*
X87614365Y-78126693D01*
X87643471Y-78235317D01*
X87673261Y-78346496D01*
X87769432Y-78552734D01*
X87769435Y-78552738D01*
X87769437Y-78552741D01*
X87899951Y-78739137D01*
X88060862Y-78900048D01*
X88099170Y-78926871D01*
X88247266Y-79030568D01*
X88453504Y-79126739D01*
X88673308Y-79185635D01*
X88900000Y-79205468D01*
X89126692Y-79185635D01*
X89346496Y-79126739D01*
X89437029Y-79084521D01*
X89512986Y-79071129D01*
X89562969Y-79084521D01*
X89653504Y-79126739D01*
X89873308Y-79185635D01*
X89976926Y-79194699D01*
X90049401Y-79221077D01*
X90069299Y-79237773D01*
X90305859Y-79474333D01*
X90344423Y-79541128D01*
X90349500Y-79579692D01*
X90349500Y-80751583D01*
X90349500Y-80948417D01*
X90380291Y-81142826D01*
X90441116Y-81330026D01*
X90530476Y-81505405D01*
X90646172Y-81664646D01*
X93285354Y-84303828D01*
X93444595Y-84419524D01*
X93619974Y-84508884D01*
X93716635Y-84540291D01*
X93807174Y-84569709D01*
X94001583Y-84600500D01*
X94001584Y-84600500D01*
X94198417Y-84600500D01*
X96649394Y-84600500D01*
X96709577Y-84613195D01*
X96737610Y-84625572D01*
X96782815Y-84645532D01*
X96990370Y-84694349D01*
X97008093Y-84695579D01*
X97078984Y-84700500D01*
X97078988Y-84700500D01*
X97521016Y-84700500D01*
X97580090Y-84696399D01*
X97609630Y-84694349D01*
X97817185Y-84645532D01*
X97939818Y-84591384D01*
X98016031Y-84579554D01*
X98060179Y-84591383D01*
X98182815Y-84645532D01*
X98390370Y-84694349D01*
X98408093Y-84695579D01*
X98478984Y-84700500D01*
X98478988Y-84700500D01*
X98921016Y-84700500D01*
X98980090Y-84696399D01*
X99009630Y-84694349D01*
X99217185Y-84645532D01*
X99271582Y-84621513D01*
X99290423Y-84613195D01*
X99350606Y-84600500D01*
X100248412Y-84600500D01*
X100248417Y-84600500D01*
X100442826Y-84569709D01*
X100630026Y-84508884D01*
X100630034Y-84508880D01*
X100712740Y-84466739D01*
X100780385Y-84450499D01*
X101164209Y-84450499D01*
X101164216Y-84450499D01*
X101296412Y-84440096D01*
X101314091Y-84435641D01*
X101391207Y-84436791D01*
X101457419Y-84476348D01*
X101494982Y-84543711D01*
X101499500Y-84580123D01*
X101499500Y-101350500D01*
X101479538Y-101425000D01*
X101425000Y-101479538D01*
X101350500Y-101499500D01*
X72065892Y-101499500D01*
X71934108Y-101499500D01*
X71806814Y-101533608D01*
X71806812Y-101533608D01*
X71806812Y-101533609D01*
X71692689Y-101599497D01*
X71599497Y-101692689D01*
X71533609Y-101806812D01*
X71499500Y-101934106D01*
X71499500Y-116350500D01*
X71479538Y-116425000D01*
X71425000Y-116479538D01*
X71350500Y-116499500D01*
X20649500Y-116499500D01*
X20575000Y-116479538D01*
X20520462Y-116425000D01*
X20500500Y-116350500D01*
X20500500Y-112250000D01*
X28444532Y-112250000D01*
X28464365Y-112476692D01*
X28523261Y-112696496D01*
X28619432Y-112902734D01*
X28619435Y-112902738D01*
X28619437Y-112902741D01*
X28749951Y-113089137D01*
X28749953Y-113089139D01*
X28910861Y-113250047D01*
X29097266Y-113380568D01*
X29303504Y-113476739D01*
X29523308Y-113535635D01*
X29750000Y-113555468D01*
X29976692Y-113535635D01*
X30088870Y-113505576D01*
X30127434Y-113500500D01*
X48048412Y-113500500D01*
X48048417Y-113500500D01*
X48242826Y-113469709D01*
X48430026Y-113408884D01*
X48605405Y-113319524D01*
X48764646Y-113203828D01*
X51003828Y-110964646D01*
X51119523Y-110805406D01*
X51206228Y-110635236D01*
X51208522Y-110631139D01*
X51269708Y-110442828D01*
X51269709Y-110442826D01*
X51300500Y-110248417D01*
X51300500Y-106899994D01*
X57954451Y-106899994D01*
X57954451Y-106900005D01*
X57974615Y-107169090D01*
X57974618Y-107169113D01*
X58034663Y-107432187D01*
X58034665Y-107432194D01*
X58133255Y-107683393D01*
X58133257Y-107683398D01*
X58268185Y-107917102D01*
X58436439Y-108128085D01*
X58634259Y-108311635D01*
X58857226Y-108463651D01*
X59100359Y-108580738D01*
X59358228Y-108660280D01*
X59625071Y-108700500D01*
X59625074Y-108700500D01*
X59894926Y-108700500D01*
X59894929Y-108700500D01*
X60161772Y-108660280D01*
X60419641Y-108580738D01*
X60662775Y-108463651D01*
X60885741Y-108311635D01*
X60903575Y-108295087D01*
X60928654Y-108271818D01*
X60996844Y-108235778D01*
X61073918Y-108238661D01*
X61131346Y-108271818D01*
X61174255Y-108311632D01*
X61174257Y-108311633D01*
X61174259Y-108311635D01*
X61397226Y-108463651D01*
X61640359Y-108580738D01*
X61898228Y-108660280D01*
X62165071Y-108700500D01*
X62165074Y-108700500D01*
X62434926Y-108700500D01*
X62434929Y-108700500D01*
X62701772Y-108660280D01*
X62959641Y-108580738D01*
X63202775Y-108463651D01*
X63425741Y-108311635D01*
X63443575Y-108295087D01*
X63468654Y-108271818D01*
X63536844Y-108235778D01*
X63613918Y-108238661D01*
X63671346Y-108271818D01*
X63714255Y-108311632D01*
X63714257Y-108311633D01*
X63714259Y-108311635D01*
X63937226Y-108463651D01*
X64180359Y-108580738D01*
X64438228Y-108660280D01*
X64705071Y-108700500D01*
X64705074Y-108700500D01*
X64974926Y-108700500D01*
X64974929Y-108700500D01*
X65241772Y-108660280D01*
X65499641Y-108580738D01*
X65742775Y-108463651D01*
X65965741Y-108311635D01*
X65983575Y-108295087D01*
X66008654Y-108271818D01*
X66076844Y-108235778D01*
X66153918Y-108238661D01*
X66211346Y-108271818D01*
X66254255Y-108311632D01*
X66254257Y-108311633D01*
X66254259Y-108311635D01*
X66477226Y-108463651D01*
X66720359Y-108580738D01*
X66978228Y-108660280D01*
X67245071Y-108700500D01*
X67245074Y-108700500D01*
X67514926Y-108700500D01*
X67514929Y-108700500D01*
X67781772Y-108660280D01*
X68039641Y-108580738D01*
X68282775Y-108463651D01*
X68505741Y-108311635D01*
X68703561Y-108128085D01*
X68871815Y-107917102D01*
X69006743Y-107683398D01*
X69105334Y-107432195D01*
X69165383Y-107169103D01*
X69185549Y-106900000D01*
X69165383Y-106630897D01*
X69165381Y-106630891D01*
X69165381Y-106630886D01*
X69105336Y-106367812D01*
X69105334Y-106367805D01*
X69006743Y-106116602D01*
X68871815Y-105882898D01*
X68703561Y-105671915D01*
X68505741Y-105488365D01*
X68282775Y-105336349D01*
X68282772Y-105336348D01*
X68282770Y-105336346D01*
X68039650Y-105219266D01*
X68039646Y-105219264D01*
X68039641Y-105219262D01*
X68039633Y-105219259D01*
X68039629Y-105219258D01*
X67781777Y-105139721D01*
X67781773Y-105139720D01*
X67514932Y-105099500D01*
X67514929Y-105099500D01*
X67245071Y-105099500D01*
X67245067Y-105099500D01*
X66978226Y-105139720D01*
X66978222Y-105139721D01*
X66720370Y-105219258D01*
X66720349Y-105219266D01*
X66477227Y-105336348D01*
X66254255Y-105488367D01*
X66211345Y-105528182D01*
X66143155Y-105564221D01*
X66066080Y-105561337D01*
X66008655Y-105528182D01*
X65965747Y-105488369D01*
X65925255Y-105460762D01*
X65742775Y-105336349D01*
X65742772Y-105336348D01*
X65742770Y-105336346D01*
X65499650Y-105219266D01*
X65499646Y-105219264D01*
X65499641Y-105219262D01*
X65499633Y-105219259D01*
X65499629Y-105219258D01*
X65241777Y-105139721D01*
X65241773Y-105139720D01*
X64974932Y-105099500D01*
X64974929Y-105099500D01*
X64705071Y-105099500D01*
X64705067Y-105099500D01*
X64438226Y-105139720D01*
X64438222Y-105139721D01*
X64180370Y-105219258D01*
X64180349Y-105219266D01*
X63937227Y-105336348D01*
X63714255Y-105488367D01*
X63671345Y-105528182D01*
X63603155Y-105564221D01*
X63526080Y-105561337D01*
X63468655Y-105528182D01*
X63425747Y-105488369D01*
X63385255Y-105460762D01*
X63202775Y-105336349D01*
X63202772Y-105336348D01*
X63202770Y-105336346D01*
X62959650Y-105219266D01*
X62959646Y-105219264D01*
X62959641Y-105219262D01*
X62959633Y-105219259D01*
X62959629Y-105219258D01*
X62701777Y-105139721D01*
X62701773Y-105139720D01*
X62434932Y-105099500D01*
X62434929Y-105099500D01*
X62165071Y-105099500D01*
X62165067Y-105099500D01*
X61898226Y-105139720D01*
X61898222Y-105139721D01*
X61640370Y-105219258D01*
X61640349Y-105219266D01*
X61397227Y-105336348D01*
X61174255Y-105488367D01*
X61131345Y-105528182D01*
X61063155Y-105564221D01*
X60986080Y-105561337D01*
X60928655Y-105528182D01*
X60885747Y-105488369D01*
X60845255Y-105460762D01*
X60662775Y-105336349D01*
X60662772Y-105336348D01*
X60662770Y-105336346D01*
X60419650Y-105219266D01*
X60419646Y-105219264D01*
X60419641Y-105219262D01*
X60419633Y-105219259D01*
X60419629Y-105219258D01*
X60161777Y-105139721D01*
X60161773Y-105139720D01*
X59894932Y-105099500D01*
X59894929Y-105099500D01*
X59625071Y-105099500D01*
X59625067Y-105099500D01*
X59358226Y-105139720D01*
X59358222Y-105139721D01*
X59100370Y-105219258D01*
X59100349Y-105219266D01*
X58857227Y-105336348D01*
X58634259Y-105488364D01*
X58436438Y-105671915D01*
X58268189Y-105882892D01*
X58268184Y-105882900D01*
X58133257Y-106116601D01*
X58133255Y-106116606D01*
X58034665Y-106367805D01*
X58034663Y-106367812D01*
X57974618Y-106630886D01*
X57974615Y-106630909D01*
X57954451Y-106899994D01*
X51300500Y-106899994D01*
X51300500Y-106029692D01*
X51320462Y-105955192D01*
X51344141Y-105924333D01*
X52474333Y-104794141D01*
X52541128Y-104755577D01*
X52579692Y-104750500D01*
X65098412Y-104750500D01*
X65098417Y-104750500D01*
X65292826Y-104719709D01*
X65480026Y-104658884D01*
X65655405Y-104569524D01*
X65814646Y-104453828D01*
X71713631Y-98554841D01*
X71780424Y-98516279D01*
X71857552Y-98516279D01*
X71920332Y-98550976D01*
X72104259Y-98721635D01*
X72327226Y-98873651D01*
X72570359Y-98990738D01*
X72828228Y-99070280D01*
X73095071Y-99110500D01*
X73095074Y-99110500D01*
X73364926Y-99110500D01*
X73364929Y-99110500D01*
X73631772Y-99070280D01*
X73889641Y-98990738D01*
X74132775Y-98873651D01*
X74355741Y-98721635D01*
X74553561Y-98538085D01*
X74721815Y-98327102D01*
X74856743Y-98093398D01*
X74955334Y-97842195D01*
X74955336Y-97842187D01*
X74987789Y-97700000D01*
X77944709Y-97700000D01*
X77953602Y-97830019D01*
X77963852Y-97979862D01*
X78020925Y-98254511D01*
X78114864Y-98518830D01*
X78227919Y-98737018D01*
X78243921Y-98767899D01*
X78275739Y-98812974D01*
X78405688Y-98997069D01*
X78474062Y-99070280D01*
X78597151Y-99202077D01*
X78597163Y-99202088D01*
X78732636Y-99312303D01*
X78814754Y-99379111D01*
X79054432Y-99524862D01*
X79311725Y-99636620D01*
X79581839Y-99712303D01*
X79859742Y-99750500D01*
X79859743Y-99750500D01*
X80140257Y-99750500D01*
X80140258Y-99750500D01*
X80418161Y-99712303D01*
X80688275Y-99636620D01*
X80945568Y-99524862D01*
X81185246Y-99379111D01*
X81402845Y-99202081D01*
X81594312Y-98997069D01*
X81756081Y-98767896D01*
X81885136Y-98518830D01*
X81979075Y-98254511D01*
X82036148Y-97979862D01*
X82055291Y-97700000D01*
X82036148Y-97420138D01*
X82011183Y-97300000D01*
X95944709Y-97300000D01*
X95963852Y-97579862D01*
X96020925Y-97854511D01*
X96114864Y-98118830D01*
X96243919Y-98367896D01*
X96405688Y-98597069D01*
X96505048Y-98703458D01*
X96597151Y-98802077D01*
X96597163Y-98802088D01*
X96767619Y-98940764D01*
X96814754Y-98979111D01*
X97054432Y-99124862D01*
X97311725Y-99236620D01*
X97581839Y-99312303D01*
X97859742Y-99350500D01*
X97859743Y-99350500D01*
X98140257Y-99350500D01*
X98140258Y-99350500D01*
X98418161Y-99312303D01*
X98688275Y-99236620D01*
X98945568Y-99124862D01*
X99185246Y-98979111D01*
X99402845Y-98802081D01*
X99594312Y-98597069D01*
X99756081Y-98367896D01*
X99885136Y-98118830D01*
X99979075Y-97854511D01*
X100036148Y-97579862D01*
X100055291Y-97300000D01*
X100036148Y-97020138D01*
X99979075Y-96745489D01*
X99885136Y-96481170D01*
X99756081Y-96232104D01*
X99594312Y-96002931D01*
X99402845Y-95797919D01*
X99402842Y-95797917D01*
X99402836Y-95797911D01*
X99185249Y-95620891D01*
X99185246Y-95620889D01*
X99074253Y-95553393D01*
X98945568Y-95475138D01*
X98945565Y-95475136D01*
X98945564Y-95475136D01*
X98863997Y-95439707D01*
X98688275Y-95363380D01*
X98418161Y-95287697D01*
X98418160Y-95287696D01*
X98418159Y-95287696D01*
X98184540Y-95255586D01*
X98140258Y-95249500D01*
X97859742Y-95249500D01*
X97815459Y-95255586D01*
X97581841Y-95287696D01*
X97446782Y-95325538D01*
X97311725Y-95363380D01*
X97311723Y-95363381D01*
X97054436Y-95475136D01*
X97054435Y-95475136D01*
X96814753Y-95620889D01*
X96814750Y-95620891D01*
X96597163Y-95797911D01*
X96597151Y-95797922D01*
X96405687Y-96002932D01*
X96243921Y-96232100D01*
X96114865Y-96481167D01*
X96114864Y-96481170D01*
X96031076Y-96716929D01*
X96020925Y-96745490D01*
X95968047Y-96999953D01*
X95963852Y-97020138D01*
X95944709Y-97300000D01*
X82011183Y-97300000D01*
X81979075Y-97145489D01*
X81885136Y-96881170D01*
X81756081Y-96632104D01*
X81594312Y-96402931D01*
X81402845Y-96197919D01*
X81402842Y-96197917D01*
X81402836Y-96197911D01*
X81185249Y-96020891D01*
X81185246Y-96020889D01*
X81127158Y-95985565D01*
X80945568Y-95875138D01*
X80945565Y-95875136D01*
X80945564Y-95875136D01*
X80863997Y-95839707D01*
X80688275Y-95763380D01*
X80418161Y-95687697D01*
X80418160Y-95687696D01*
X80418159Y-95687696D01*
X80184540Y-95655586D01*
X80140258Y-95649500D01*
X79859742Y-95649500D01*
X79815459Y-95655586D01*
X79581841Y-95687696D01*
X79446782Y-95725538D01*
X79311725Y-95763380D01*
X79257100Y-95787107D01*
X79054436Y-95875136D01*
X79054435Y-95875136D01*
X78814753Y-96020889D01*
X78814750Y-96020891D01*
X78597163Y-96197911D01*
X78597151Y-96197922D01*
X78405687Y-96402932D01*
X78243921Y-96632100D01*
X78114865Y-96881167D01*
X78114864Y-96881170D01*
X78020925Y-97145489D01*
X78001900Y-97237038D01*
X77963852Y-97420136D01*
X77944709Y-97700000D01*
X74987789Y-97700000D01*
X75015381Y-97579113D01*
X75015381Y-97579110D01*
X75015383Y-97579103D01*
X75021667Y-97495253D01*
X75035549Y-97310005D01*
X75035549Y-97309994D01*
X75015384Y-97040909D01*
X75015383Y-97040907D01*
X75015383Y-97040897D01*
X75015381Y-97040891D01*
X75015381Y-97040886D01*
X74955336Y-96777812D01*
X74955334Y-96777805D01*
X74922651Y-96694532D01*
X74856743Y-96526602D01*
X74721815Y-96292898D01*
X74594219Y-96132899D01*
X74563377Y-96062208D01*
X74572013Y-95985565D01*
X74594220Y-95947100D01*
X74651608Y-95875138D01*
X74721815Y-95787102D01*
X74856743Y-95553398D01*
X74955334Y-95302195D01*
X75015383Y-95039103D01*
X75035549Y-94770000D01*
X75015383Y-94500897D01*
X75015381Y-94500891D01*
X75015381Y-94500886D01*
X74955336Y-94237812D01*
X74955334Y-94237805D01*
X74856743Y-93986602D01*
X74721815Y-93752898D01*
X74594219Y-93592899D01*
X74563377Y-93522208D01*
X74572013Y-93445565D01*
X74594220Y-93407100D01*
X74721815Y-93247102D01*
X74856743Y-93013398D01*
X74955334Y-92762195D01*
X75015383Y-92499103D01*
X75035549Y-92230000D01*
X75015383Y-91960897D01*
X75015381Y-91960891D01*
X75015381Y-91960886D01*
X74955336Y-91697812D01*
X74955334Y-91697805D01*
X74856743Y-91446602D01*
X74721815Y-91212898D01*
X74594219Y-91052899D01*
X74563377Y-90982208D01*
X74572013Y-90905565D01*
X74594220Y-90867100D01*
X74721815Y-90707102D01*
X74856743Y-90473398D01*
X74955334Y-90222195D01*
X75015383Y-89959103D01*
X75035549Y-89690000D01*
X75015383Y-89420897D01*
X75015381Y-89420891D01*
X75015381Y-89420886D01*
X74955336Y-89157812D01*
X74955334Y-89157805D01*
X74901338Y-89020228D01*
X74856743Y-88906602D01*
X74721815Y-88672898D01*
X74594219Y-88512899D01*
X74563377Y-88442208D01*
X74572013Y-88365565D01*
X74594220Y-88327100D01*
X74721815Y-88167102D01*
X74856743Y-87933398D01*
X74955334Y-87682195D01*
X74996920Y-87499994D01*
X96744592Y-87499994D01*
X96744592Y-87500005D01*
X96764196Y-87761617D01*
X96764199Y-87761637D01*
X96822578Y-88017411D01*
X96822579Y-88017415D01*
X96881326Y-88167099D01*
X96918432Y-88261643D01*
X97049614Y-88488857D01*
X97049618Y-88488862D01*
X97213197Y-88693984D01*
X97405515Y-88872428D01*
X97405517Y-88872429D01*
X97405521Y-88872433D01*
X97622296Y-89020228D01*
X97858677Y-89134063D01*
X97935647Y-89157805D01*
X98109381Y-89211395D01*
X98109382Y-89211395D01*
X98109385Y-89211396D01*
X98368818Y-89250500D01*
X98368820Y-89250500D01*
X98631180Y-89250500D01*
X98631182Y-89250500D01*
X98890615Y-89211396D01*
X99141323Y-89134063D01*
X99377704Y-89020228D01*
X99594479Y-88872433D01*
X99786805Y-88693981D01*
X99950386Y-88488857D01*
X100081568Y-88261643D01*
X100177420Y-88017416D01*
X100235802Y-87761630D01*
X100255408Y-87500000D01*
X100249346Y-87419113D01*
X100235803Y-87238382D01*
X100235802Y-87238380D01*
X100235802Y-87238370D01*
X100177420Y-86982584D01*
X100081568Y-86738357D01*
X99950386Y-86511143D01*
X99791833Y-86312324D01*
X99786802Y-86306015D01*
X99594484Y-86127571D01*
X99594481Y-86127569D01*
X99594479Y-86127567D01*
X99377704Y-85979772D01*
X99377701Y-85979771D01*
X99377699Y-85979769D01*
X99141332Y-85865941D01*
X99141328Y-85865939D01*
X99141323Y-85865937D01*
X99141315Y-85865934D01*
X99141311Y-85865933D01*
X98890618Y-85788604D01*
X98631184Y-85749500D01*
X98631182Y-85749500D01*
X98368818Y-85749500D01*
X98368815Y-85749500D01*
X98109381Y-85788604D01*
X97858688Y-85865933D01*
X97858667Y-85865941D01*
X97622300Y-85979769D01*
X97405515Y-86127571D01*
X97213197Y-86306015D01*
X97049618Y-86511137D01*
X97049613Y-86511145D01*
X96918432Y-86738356D01*
X96918430Y-86738361D01*
X96822579Y-86982584D01*
X96822578Y-86982588D01*
X96764199Y-87238362D01*
X96764196Y-87238382D01*
X96744592Y-87499994D01*
X74996920Y-87499994D01*
X75015383Y-87419103D01*
X75028927Y-87238370D01*
X75035549Y-87150005D01*
X75035549Y-87149994D01*
X75015384Y-86880909D01*
X75015383Y-86880907D01*
X75015383Y-86880897D01*
X75015381Y-86880891D01*
X75015381Y-86880886D01*
X74955336Y-86617812D01*
X74955334Y-86617805D01*
X74928918Y-86550499D01*
X74856743Y-86366602D01*
X74721815Y-86132898D01*
X74594219Y-85972899D01*
X74563377Y-85902208D01*
X74572013Y-85825565D01*
X74594220Y-85787100D01*
X74624293Y-85749390D01*
X74721815Y-85627102D01*
X74856743Y-85393398D01*
X74955334Y-85142195D01*
X74963916Y-85104595D01*
X75015381Y-84879113D01*
X75015381Y-84879110D01*
X75015383Y-84879103D01*
X75015384Y-84879090D01*
X75035549Y-84610005D01*
X75035549Y-84609994D01*
X75015384Y-84340909D01*
X75015383Y-84340907D01*
X75015383Y-84340897D01*
X75015381Y-84340891D01*
X75015381Y-84340886D01*
X74955336Y-84077812D01*
X74955334Y-84077805D01*
X74924797Y-84000000D01*
X74856743Y-83826602D01*
X74721815Y-83592898D01*
X74594219Y-83432899D01*
X74563377Y-83362208D01*
X74572013Y-83285565D01*
X74594220Y-83247100D01*
X74721815Y-83087102D01*
X74721823Y-83087086D01*
X74722827Y-83085616D01*
X74723378Y-83085141D01*
X74725291Y-83082743D01*
X74725744Y-83083104D01*
X74781282Y-83035300D01*
X74857064Y-83020952D01*
X74929867Y-83046418D01*
X74968424Y-83084683D01*
X75016901Y-83154655D01*
X75086181Y-83254654D01*
X75245346Y-83413819D01*
X75430374Y-83542007D01*
X75430375Y-83542007D01*
X75430376Y-83542008D01*
X75635312Y-83635095D01*
X75672640Y-83644500D01*
X75853588Y-83690096D01*
X75985783Y-83700500D01*
X76814216Y-83700499D01*
X76946412Y-83690096D01*
X77164683Y-83635096D01*
X77164684Y-83635095D01*
X77164686Y-83635095D01*
X77338380Y-83556200D01*
X77414466Y-83543565D01*
X77461620Y-83556200D01*
X77635313Y-83635095D01*
X77635317Y-83635096D01*
X77853588Y-83690096D01*
X77985783Y-83700500D01*
X78814216Y-83700499D01*
X78946412Y-83690096D01*
X79164683Y-83635096D01*
X79164682Y-83635096D01*
X79164687Y-83635095D01*
X79369624Y-83542008D01*
X79369624Y-83542007D01*
X79369626Y-83542007D01*
X79450966Y-83485653D01*
X79523573Y-83459635D01*
X79597440Y-83472470D01*
X79735313Y-83535095D01*
X79735317Y-83535096D01*
X79953588Y-83590096D01*
X80085783Y-83600500D01*
X81114216Y-83600499D01*
X81246412Y-83590096D01*
X81464683Y-83535096D01*
X81464682Y-83535096D01*
X81464687Y-83535095D01*
X81606613Y-83470628D01*
X81669626Y-83442007D01*
X81854654Y-83313819D01*
X82013819Y-83154654D01*
X82142007Y-82969626D01*
X82194800Y-82853398D01*
X82235095Y-82764687D01*
X82239696Y-82746428D01*
X82290096Y-82546412D01*
X82300500Y-82414217D01*
X82300499Y-81635784D01*
X82290096Y-81503588D01*
X82235096Y-81285317D01*
X82235095Y-81285312D01*
X82142008Y-81080376D01*
X82142007Y-81080374D01*
X82013819Y-80895346D01*
X81854654Y-80736181D01*
X81669626Y-80607993D01*
X81669625Y-80607992D01*
X81669623Y-80607991D01*
X81464687Y-80514904D01*
X81319924Y-80478427D01*
X81246412Y-80459904D01*
X81246409Y-80459903D01*
X81246406Y-80459903D01*
X81186122Y-80455159D01*
X81114217Y-80449500D01*
X81114209Y-80449500D01*
X80085791Y-80449500D01*
X80085788Y-80449500D01*
X80085784Y-80449501D01*
X80040622Y-80453054D01*
X79953593Y-80459903D01*
X79953589Y-80459903D01*
X79953588Y-80459904D01*
X79908565Y-80471248D01*
X79735317Y-80514903D01*
X79641030Y-80557730D01*
X79564944Y-80570364D01*
X79494558Y-80544546D01*
X79369627Y-80457993D01*
X79369624Y-80457991D01*
X79164687Y-80364904D01*
X79019924Y-80328427D01*
X78946412Y-80309904D01*
X78946409Y-80309903D01*
X78946406Y-80309903D01*
X78886122Y-80305159D01*
X78814217Y-80299500D01*
X78814209Y-80299500D01*
X77985791Y-80299500D01*
X77985788Y-80299500D01*
X77985784Y-80299501D01*
X77949834Y-80302330D01*
X77853590Y-80309903D01*
X77853587Y-80309904D01*
X77835901Y-80314360D01*
X77758782Y-80313203D01*
X77692573Y-80273642D01*
X77655015Y-80206276D01*
X77650500Y-80169875D01*
X77650500Y-79101587D01*
X77650500Y-79101583D01*
X77619709Y-78907174D01*
X77619708Y-78907173D01*
X77619708Y-78907168D01*
X77577929Y-78778588D01*
X77558884Y-78719974D01*
X77469524Y-78544595D01*
X77353828Y-78385354D01*
X75004646Y-76036172D01*
X74845405Y-75920476D01*
X74726200Y-75859738D01*
X74664810Y-75828458D01*
X74665770Y-75826572D01*
X74612454Y-75785647D01*
X74582950Y-75714385D01*
X74593031Y-75637919D01*
X74614183Y-75602067D01*
X74721815Y-75467102D01*
X74856743Y-75233398D01*
X74955334Y-74982195D01*
X75015383Y-74719103D01*
X75025074Y-74589781D01*
X75035549Y-74450005D01*
X75035549Y-74449994D01*
X75015384Y-74180909D01*
X75015383Y-74180907D01*
X75015383Y-74180897D01*
X75015381Y-74180891D01*
X75015381Y-74180886D01*
X74955336Y-73917812D01*
X74955334Y-73917805D01*
X74856743Y-73666602D01*
X74721815Y-73432898D01*
X74594219Y-73272899D01*
X74563377Y-73202208D01*
X74572013Y-73125565D01*
X74594220Y-73087100D01*
X74721815Y-72927102D01*
X74856743Y-72693398D01*
X74955334Y-72442195D01*
X75015383Y-72179103D01*
X75035549Y-71910000D01*
X75032964Y-71875509D01*
X75015384Y-71640909D01*
X75015383Y-71640907D01*
X75015383Y-71640897D01*
X75015381Y-71640891D01*
X75015381Y-71640886D01*
X74955336Y-71377812D01*
X74955334Y-71377805D01*
X74856743Y-71126602D01*
X74721815Y-70892898D01*
X74594219Y-70732899D01*
X74563377Y-70662208D01*
X74572013Y-70585565D01*
X74594220Y-70547100D01*
X74633086Y-70498364D01*
X74721815Y-70387102D01*
X74753729Y-70331825D01*
X85295305Y-70331825D01*
X85295305Y-70331826D01*
X85305492Y-70337017D01*
X85305494Y-70337018D01*
X85415000Y-70354362D01*
X85524504Y-70337018D01*
X85534693Y-70331825D01*
X87295305Y-70331825D01*
X87295305Y-70331826D01*
X87305492Y-70337017D01*
X87305494Y-70337018D01*
X87415000Y-70354362D01*
X87524504Y-70337018D01*
X87534693Y-70331825D01*
X89295305Y-70331825D01*
X89295305Y-70331826D01*
X89305492Y-70337017D01*
X89305494Y-70337018D01*
X89415000Y-70354362D01*
X89524504Y-70337018D01*
X89534693Y-70331825D01*
X91295305Y-70331825D01*
X91295305Y-70331826D01*
X91305492Y-70337017D01*
X91305494Y-70337018D01*
X91415000Y-70354362D01*
X91524504Y-70337018D01*
X91534693Y-70331825D01*
X93295305Y-70331825D01*
X93295305Y-70331826D01*
X93305492Y-70337017D01*
X93305494Y-70337018D01*
X93415000Y-70354362D01*
X93524504Y-70337018D01*
X93534693Y-70331825D01*
X93415000Y-70212132D01*
X93295305Y-70331825D01*
X91534693Y-70331825D01*
X91415000Y-70212132D01*
X91295305Y-70331825D01*
X89534693Y-70331825D01*
X89415000Y-70212132D01*
X89295305Y-70331825D01*
X87534693Y-70331825D01*
X87415000Y-70212132D01*
X87295305Y-70331825D01*
X85534693Y-70331825D01*
X85415000Y-70212132D01*
X85295305Y-70331825D01*
X74753729Y-70331825D01*
X74856743Y-70153398D01*
X74916950Y-69999996D01*
X85060637Y-69999996D01*
X85060637Y-70000003D01*
X85077980Y-70109500D01*
X85077981Y-70109506D01*
X85083172Y-70119693D01*
X85083173Y-70119693D01*
X85202868Y-70000000D01*
X85163086Y-69960218D01*
X85215000Y-69960218D01*
X85215000Y-70039782D01*
X85245448Y-70113291D01*
X85301709Y-70169552D01*
X85375218Y-70200000D01*
X85454782Y-70200000D01*
X85528291Y-70169552D01*
X85584552Y-70113291D01*
X85615000Y-70039782D01*
X85615000Y-69999999D01*
X85627132Y-69999999D01*
X85627132Y-70000000D01*
X85746825Y-70119693D01*
X85752018Y-70109504D01*
X85769362Y-70000000D01*
X85769361Y-69999996D01*
X87060637Y-69999996D01*
X87060637Y-70000003D01*
X87077980Y-70109500D01*
X87077981Y-70109506D01*
X87083172Y-70119693D01*
X87083173Y-70119693D01*
X87202868Y-70000000D01*
X87163086Y-69960218D01*
X87215000Y-69960218D01*
X87215000Y-70039782D01*
X87245448Y-70113291D01*
X87301709Y-70169552D01*
X87375218Y-70200000D01*
X87454782Y-70200000D01*
X87528291Y-70169552D01*
X87584552Y-70113291D01*
X87615000Y-70039782D01*
X87615000Y-69999999D01*
X87627132Y-69999999D01*
X87627132Y-70000000D01*
X87746825Y-70119693D01*
X87752018Y-70109504D01*
X87769362Y-70000000D01*
X87769361Y-69999996D01*
X89060637Y-69999996D01*
X89060637Y-70000003D01*
X89077980Y-70109500D01*
X89077981Y-70109506D01*
X89083172Y-70119693D01*
X89083173Y-70119693D01*
X89202868Y-70000000D01*
X89163086Y-69960218D01*
X89215000Y-69960218D01*
X89215000Y-70039782D01*
X89245448Y-70113291D01*
X89301709Y-70169552D01*
X89375218Y-70200000D01*
X89454782Y-70200000D01*
X89528291Y-70169552D01*
X89584552Y-70113291D01*
X89615000Y-70039782D01*
X89615000Y-69999999D01*
X89627132Y-69999999D01*
X89627132Y-70000000D01*
X89746825Y-70119693D01*
X89752018Y-70109504D01*
X89769362Y-70000000D01*
X89769361Y-69999996D01*
X91060637Y-69999996D01*
X91060637Y-70000003D01*
X91077980Y-70109500D01*
X91077981Y-70109506D01*
X91083172Y-70119693D01*
X91083173Y-70119693D01*
X91202868Y-70000000D01*
X91163086Y-69960218D01*
X91215000Y-69960218D01*
X91215000Y-70039782D01*
X91245448Y-70113291D01*
X91301709Y-70169552D01*
X91375218Y-70200000D01*
X91454782Y-70200000D01*
X91528291Y-70169552D01*
X91584552Y-70113291D01*
X91615000Y-70039782D01*
X91615000Y-69999999D01*
X91627132Y-69999999D01*
X91627132Y-70000000D01*
X91746825Y-70119693D01*
X91752018Y-70109504D01*
X91769362Y-70000000D01*
X91769361Y-69999996D01*
X93060637Y-69999996D01*
X93060637Y-70000003D01*
X93077980Y-70109500D01*
X93077981Y-70109506D01*
X93083172Y-70119693D01*
X93083173Y-70119693D01*
X93202868Y-70000000D01*
X93163086Y-69960218D01*
X93215000Y-69960218D01*
X93215000Y-70039782D01*
X93245448Y-70113291D01*
X93301709Y-70169552D01*
X93375218Y-70200000D01*
X93454782Y-70200000D01*
X93528291Y-70169552D01*
X93584552Y-70113291D01*
X93615000Y-70039782D01*
X93615000Y-69999999D01*
X93627132Y-69999999D01*
X93627132Y-70000000D01*
X93746825Y-70119693D01*
X93752018Y-70109504D01*
X93769362Y-70000000D01*
X93752018Y-69890494D01*
X93752017Y-69890492D01*
X93746826Y-69880305D01*
X93746825Y-69880305D01*
X93627132Y-69999999D01*
X93615000Y-69999999D01*
X93615000Y-69960218D01*
X93584552Y-69886709D01*
X93528291Y-69830448D01*
X93454782Y-69800000D01*
X93375218Y-69800000D01*
X93301709Y-69830448D01*
X93245448Y-69886709D01*
X93215000Y-69960218D01*
X93163086Y-69960218D01*
X93083173Y-69880305D01*
X93077980Y-69890498D01*
X93060637Y-69999996D01*
X91769361Y-69999996D01*
X91752018Y-69890494D01*
X91752017Y-69890492D01*
X91746826Y-69880305D01*
X91746825Y-69880305D01*
X91627132Y-69999999D01*
X91615000Y-69999999D01*
X91615000Y-69960218D01*
X91584552Y-69886709D01*
X91528291Y-69830448D01*
X91454782Y-69800000D01*
X91375218Y-69800000D01*
X91301709Y-69830448D01*
X91245448Y-69886709D01*
X91215000Y-69960218D01*
X91163086Y-69960218D01*
X91083173Y-69880305D01*
X91077980Y-69890498D01*
X91060637Y-69999996D01*
X89769361Y-69999996D01*
X89752018Y-69890494D01*
X89752017Y-69890492D01*
X89746826Y-69880305D01*
X89746825Y-69880305D01*
X89627132Y-69999999D01*
X89615000Y-69999999D01*
X89615000Y-69960218D01*
X89584552Y-69886709D01*
X89528291Y-69830448D01*
X89454782Y-69800000D01*
X89375218Y-69800000D01*
X89301709Y-69830448D01*
X89245448Y-69886709D01*
X89215000Y-69960218D01*
X89163086Y-69960218D01*
X89083173Y-69880305D01*
X89077980Y-69890498D01*
X89060637Y-69999996D01*
X87769361Y-69999996D01*
X87752018Y-69890494D01*
X87752017Y-69890492D01*
X87746826Y-69880305D01*
X87746825Y-69880305D01*
X87627132Y-69999999D01*
X87615000Y-69999999D01*
X87615000Y-69960218D01*
X87584552Y-69886709D01*
X87528291Y-69830448D01*
X87454782Y-69800000D01*
X87375218Y-69800000D01*
X87301709Y-69830448D01*
X87245448Y-69886709D01*
X87215000Y-69960218D01*
X87163086Y-69960218D01*
X87083173Y-69880305D01*
X87077980Y-69890498D01*
X87060637Y-69999996D01*
X85769361Y-69999996D01*
X85752018Y-69890494D01*
X85752017Y-69890492D01*
X85746826Y-69880305D01*
X85746825Y-69880305D01*
X85627132Y-69999999D01*
X85615000Y-69999999D01*
X85615000Y-69960218D01*
X85584552Y-69886709D01*
X85528291Y-69830448D01*
X85454782Y-69800000D01*
X85375218Y-69800000D01*
X85301709Y-69830448D01*
X85245448Y-69886709D01*
X85215000Y-69960218D01*
X85163086Y-69960218D01*
X85083173Y-69880305D01*
X85077980Y-69890498D01*
X85060637Y-69999996D01*
X74916950Y-69999996D01*
X74955334Y-69902195D01*
X74971710Y-69830448D01*
X75008748Y-69668173D01*
X85295305Y-69668173D01*
X85415000Y-69787868D01*
X85415001Y-69787868D01*
X85534693Y-69668173D01*
X87295305Y-69668173D01*
X87415000Y-69787868D01*
X87415001Y-69787868D01*
X87534693Y-69668173D01*
X89295305Y-69668173D01*
X89415000Y-69787868D01*
X89415001Y-69787868D01*
X89534693Y-69668173D01*
X91295305Y-69668173D01*
X91415000Y-69787868D01*
X91415001Y-69787868D01*
X91534693Y-69668173D01*
X93295305Y-69668173D01*
X93415000Y-69787868D01*
X93415001Y-69787868D01*
X93534693Y-69668173D01*
X93534693Y-69668172D01*
X93524506Y-69662981D01*
X93524501Y-69662980D01*
X93415003Y-69645637D01*
X93414997Y-69645637D01*
X93305498Y-69662980D01*
X93295305Y-69668173D01*
X91534693Y-69668173D01*
X91534693Y-69668172D01*
X91524506Y-69662981D01*
X91524501Y-69662980D01*
X91415003Y-69645637D01*
X91414997Y-69645637D01*
X91305498Y-69662980D01*
X91295305Y-69668173D01*
X89534693Y-69668173D01*
X89534693Y-69668172D01*
X89524506Y-69662981D01*
X89524501Y-69662980D01*
X89415003Y-69645637D01*
X89414997Y-69645637D01*
X89305498Y-69662980D01*
X89295305Y-69668173D01*
X87534693Y-69668173D01*
X87534693Y-69668172D01*
X87524506Y-69662981D01*
X87524501Y-69662980D01*
X87415003Y-69645637D01*
X87414997Y-69645637D01*
X87305498Y-69662980D01*
X87295305Y-69668173D01*
X85534693Y-69668173D01*
X85534693Y-69668172D01*
X85524506Y-69662981D01*
X85524501Y-69662980D01*
X85415003Y-69645637D01*
X85414997Y-69645637D01*
X85305498Y-69662980D01*
X85295305Y-69668173D01*
X75008748Y-69668173D01*
X75015381Y-69639113D01*
X75015381Y-69639110D01*
X75015383Y-69639103D01*
X75033645Y-69395406D01*
X75035549Y-69370005D01*
X75035549Y-69369994D01*
X75015384Y-69100909D01*
X75015383Y-69100907D01*
X75015383Y-69100897D01*
X75015381Y-69100891D01*
X75015381Y-69100886D01*
X74955336Y-68837812D01*
X74955334Y-68837805D01*
X74856743Y-68586602D01*
X74721815Y-68352898D01*
X74705010Y-68331825D01*
X85295305Y-68331825D01*
X85295305Y-68331826D01*
X85305492Y-68337017D01*
X85305494Y-68337018D01*
X85415000Y-68354362D01*
X85524504Y-68337018D01*
X85534693Y-68331825D01*
X87295305Y-68331825D01*
X87295305Y-68331826D01*
X87305492Y-68337017D01*
X87305494Y-68337018D01*
X87415000Y-68354362D01*
X87524504Y-68337018D01*
X87534693Y-68331825D01*
X89295305Y-68331825D01*
X89295305Y-68331826D01*
X89305492Y-68337017D01*
X89305494Y-68337018D01*
X89415000Y-68354362D01*
X89524504Y-68337018D01*
X89534693Y-68331825D01*
X91295305Y-68331825D01*
X91295305Y-68331826D01*
X91305492Y-68337017D01*
X91305494Y-68337018D01*
X91415000Y-68354362D01*
X91524504Y-68337018D01*
X91534693Y-68331825D01*
X93295305Y-68331825D01*
X93295305Y-68331826D01*
X93305492Y-68337017D01*
X93305494Y-68337018D01*
X93415000Y-68354362D01*
X93524504Y-68337018D01*
X93534693Y-68331825D01*
X93415000Y-68212132D01*
X93295305Y-68331825D01*
X91534693Y-68331825D01*
X91415000Y-68212132D01*
X91295305Y-68331825D01*
X89534693Y-68331825D01*
X89415000Y-68212132D01*
X89295305Y-68331825D01*
X87534693Y-68331825D01*
X87415000Y-68212132D01*
X87295305Y-68331825D01*
X85534693Y-68331825D01*
X85415000Y-68212132D01*
X85295305Y-68331825D01*
X74705010Y-68331825D01*
X74594219Y-68192899D01*
X74563377Y-68122208D01*
X74572013Y-68045565D01*
X74594220Y-68007100D01*
X74599883Y-67999999D01*
X74599885Y-67999996D01*
X85060637Y-67999996D01*
X85060637Y-68000003D01*
X85077980Y-68109501D01*
X85077981Y-68109506D01*
X85083172Y-68119693D01*
X85083173Y-68119693D01*
X85202868Y-68000000D01*
X85163086Y-67960218D01*
X85215000Y-67960218D01*
X85215000Y-68039782D01*
X85245448Y-68113291D01*
X85301709Y-68169552D01*
X85375218Y-68200000D01*
X85454782Y-68200000D01*
X85528291Y-68169552D01*
X85584552Y-68113291D01*
X85615000Y-68039782D01*
X85615000Y-67999999D01*
X85627132Y-67999999D01*
X85627132Y-68000000D01*
X85746825Y-68119693D01*
X85752018Y-68109504D01*
X85769362Y-68000000D01*
X85769361Y-67999996D01*
X87060637Y-67999996D01*
X87060637Y-68000003D01*
X87077980Y-68109501D01*
X87077981Y-68109506D01*
X87083172Y-68119693D01*
X87083173Y-68119693D01*
X87202868Y-68000000D01*
X87163086Y-67960218D01*
X87215000Y-67960218D01*
X87215000Y-68039782D01*
X87245448Y-68113291D01*
X87301709Y-68169552D01*
X87375218Y-68200000D01*
X87454782Y-68200000D01*
X87528291Y-68169552D01*
X87584552Y-68113291D01*
X87615000Y-68039782D01*
X87615000Y-67999999D01*
X87627132Y-67999999D01*
X87627132Y-68000000D01*
X87746825Y-68119693D01*
X87752018Y-68109504D01*
X87769362Y-68000000D01*
X87769361Y-67999996D01*
X89060637Y-67999996D01*
X89060637Y-68000003D01*
X89077980Y-68109501D01*
X89077981Y-68109506D01*
X89083172Y-68119693D01*
X89083173Y-68119693D01*
X89202868Y-68000000D01*
X89163086Y-67960218D01*
X89215000Y-67960218D01*
X89215000Y-68039782D01*
X89245448Y-68113291D01*
X89301709Y-68169552D01*
X89375218Y-68200000D01*
X89454782Y-68200000D01*
X89528291Y-68169552D01*
X89584552Y-68113291D01*
X89615000Y-68039782D01*
X89615000Y-67999999D01*
X89627132Y-67999999D01*
X89627132Y-68000000D01*
X89746825Y-68119693D01*
X89752018Y-68109504D01*
X89769362Y-68000000D01*
X89769361Y-67999996D01*
X91060637Y-67999996D01*
X91060637Y-68000003D01*
X91077980Y-68109501D01*
X91077981Y-68109506D01*
X91083172Y-68119693D01*
X91083173Y-68119693D01*
X91202868Y-68000000D01*
X91163086Y-67960218D01*
X91215000Y-67960218D01*
X91215000Y-68039782D01*
X91245448Y-68113291D01*
X91301709Y-68169552D01*
X91375218Y-68200000D01*
X91454782Y-68200000D01*
X91528291Y-68169552D01*
X91584552Y-68113291D01*
X91615000Y-68039782D01*
X91615000Y-67999999D01*
X91627132Y-67999999D01*
X91627132Y-68000000D01*
X91746825Y-68119693D01*
X91752018Y-68109504D01*
X91769362Y-68000000D01*
X91769361Y-67999996D01*
X93060637Y-67999996D01*
X93060637Y-68000003D01*
X93077980Y-68109501D01*
X93077981Y-68109506D01*
X93083172Y-68119693D01*
X93083173Y-68119693D01*
X93202868Y-68000000D01*
X93163086Y-67960218D01*
X93215000Y-67960218D01*
X93215000Y-68039782D01*
X93245448Y-68113291D01*
X93301709Y-68169552D01*
X93375218Y-68200000D01*
X93454782Y-68200000D01*
X93528291Y-68169552D01*
X93584552Y-68113291D01*
X93615000Y-68039782D01*
X93615000Y-67999999D01*
X93627132Y-67999999D01*
X93627132Y-68000000D01*
X93746825Y-68119693D01*
X93752018Y-68109504D01*
X93769362Y-68000000D01*
X93752018Y-67890494D01*
X93752017Y-67890492D01*
X93746826Y-67880305D01*
X93746825Y-67880305D01*
X93627132Y-67999999D01*
X93615000Y-67999999D01*
X93615000Y-67960218D01*
X93584552Y-67886709D01*
X93528291Y-67830448D01*
X93454782Y-67800000D01*
X93375218Y-67800000D01*
X93301709Y-67830448D01*
X93245448Y-67886709D01*
X93215000Y-67960218D01*
X93163086Y-67960218D01*
X93083173Y-67880305D01*
X93077980Y-67890498D01*
X93060637Y-67999996D01*
X91769361Y-67999996D01*
X91752018Y-67890494D01*
X91752017Y-67890492D01*
X91746826Y-67880305D01*
X91746825Y-67880305D01*
X91627132Y-67999999D01*
X91615000Y-67999999D01*
X91615000Y-67960218D01*
X91584552Y-67886709D01*
X91528291Y-67830448D01*
X91454782Y-67800000D01*
X91375218Y-67800000D01*
X91301709Y-67830448D01*
X91245448Y-67886709D01*
X91215000Y-67960218D01*
X91163086Y-67960218D01*
X91083173Y-67880305D01*
X91077980Y-67890498D01*
X91060637Y-67999996D01*
X89769361Y-67999996D01*
X89752018Y-67890494D01*
X89752017Y-67890492D01*
X89746826Y-67880305D01*
X89746825Y-67880305D01*
X89627132Y-67999999D01*
X89615000Y-67999999D01*
X89615000Y-67960218D01*
X89584552Y-67886709D01*
X89528291Y-67830448D01*
X89454782Y-67800000D01*
X89375218Y-67800000D01*
X89301709Y-67830448D01*
X89245448Y-67886709D01*
X89215000Y-67960218D01*
X89163086Y-67960218D01*
X89083173Y-67880305D01*
X89077980Y-67890498D01*
X89060637Y-67999996D01*
X87769361Y-67999996D01*
X87752018Y-67890494D01*
X87752017Y-67890492D01*
X87746826Y-67880305D01*
X87746825Y-67880305D01*
X87627132Y-67999999D01*
X87615000Y-67999999D01*
X87615000Y-67960218D01*
X87584552Y-67886709D01*
X87528291Y-67830448D01*
X87454782Y-67800000D01*
X87375218Y-67800000D01*
X87301709Y-67830448D01*
X87245448Y-67886709D01*
X87215000Y-67960218D01*
X87163086Y-67960218D01*
X87083173Y-67880305D01*
X87077980Y-67890498D01*
X87060637Y-67999996D01*
X85769361Y-67999996D01*
X85752018Y-67890494D01*
X85752017Y-67890492D01*
X85746826Y-67880305D01*
X85746825Y-67880305D01*
X85627132Y-67999999D01*
X85615000Y-67999999D01*
X85615000Y-67960218D01*
X85584552Y-67886709D01*
X85528291Y-67830448D01*
X85454782Y-67800000D01*
X85375218Y-67800000D01*
X85301709Y-67830448D01*
X85245448Y-67886709D01*
X85215000Y-67960218D01*
X85163086Y-67960218D01*
X85083173Y-67880305D01*
X85077980Y-67890498D01*
X85060637Y-67999996D01*
X74599885Y-67999996D01*
X74721815Y-67847102D01*
X74825119Y-67668173D01*
X85295305Y-67668173D01*
X85415000Y-67787868D01*
X85415001Y-67787868D01*
X85534693Y-67668173D01*
X87295305Y-67668173D01*
X87415000Y-67787868D01*
X87415001Y-67787868D01*
X87534693Y-67668173D01*
X89295305Y-67668173D01*
X89415000Y-67787868D01*
X89415001Y-67787868D01*
X89534693Y-67668173D01*
X91295305Y-67668173D01*
X91415000Y-67787868D01*
X91415001Y-67787868D01*
X91534693Y-67668173D01*
X93295305Y-67668173D01*
X93415000Y-67787868D01*
X93415001Y-67787868D01*
X93534693Y-67668173D01*
X93534693Y-67668172D01*
X93524506Y-67662981D01*
X93524501Y-67662980D01*
X93415003Y-67645637D01*
X93414997Y-67645637D01*
X93305498Y-67662980D01*
X93295305Y-67668173D01*
X91534693Y-67668173D01*
X91534693Y-67668172D01*
X91524506Y-67662981D01*
X91524501Y-67662980D01*
X91415003Y-67645637D01*
X91414997Y-67645637D01*
X91305498Y-67662980D01*
X91295305Y-67668173D01*
X89534693Y-67668173D01*
X89534693Y-67668172D01*
X89524506Y-67662981D01*
X89524501Y-67662980D01*
X89415003Y-67645637D01*
X89414997Y-67645637D01*
X89305498Y-67662980D01*
X89295305Y-67668173D01*
X87534693Y-67668173D01*
X87534693Y-67668172D01*
X87524506Y-67662981D01*
X87524501Y-67662980D01*
X87415003Y-67645637D01*
X87414997Y-67645637D01*
X87305498Y-67662980D01*
X87295305Y-67668173D01*
X85534693Y-67668173D01*
X85534693Y-67668172D01*
X85524506Y-67662981D01*
X85524501Y-67662980D01*
X85415003Y-67645637D01*
X85414997Y-67645637D01*
X85305498Y-67662980D01*
X85295305Y-67668173D01*
X74825119Y-67668173D01*
X74856743Y-67613398D01*
X74955334Y-67362195D01*
X75015383Y-67099103D01*
X75035549Y-66830000D01*
X75015383Y-66560897D01*
X75015381Y-66560891D01*
X75015381Y-66560886D01*
X74963099Y-66331825D01*
X85295305Y-66331825D01*
X85295305Y-66331826D01*
X85305492Y-66337017D01*
X85305494Y-66337018D01*
X85415000Y-66354362D01*
X85524504Y-66337018D01*
X85534693Y-66331825D01*
X87295305Y-66331825D01*
X87295305Y-66331826D01*
X87305492Y-66337017D01*
X87305494Y-66337018D01*
X87415000Y-66354362D01*
X87524504Y-66337018D01*
X87534693Y-66331825D01*
X89295305Y-66331825D01*
X89295305Y-66331826D01*
X89305492Y-66337017D01*
X89305494Y-66337018D01*
X89415000Y-66354362D01*
X89524504Y-66337018D01*
X89534693Y-66331825D01*
X91295305Y-66331825D01*
X91295305Y-66331826D01*
X91305492Y-66337017D01*
X91305494Y-66337018D01*
X91415000Y-66354362D01*
X91524504Y-66337018D01*
X91534693Y-66331825D01*
X93295305Y-66331825D01*
X93295305Y-66331826D01*
X93305492Y-66337017D01*
X93305494Y-66337018D01*
X93415000Y-66354362D01*
X93524504Y-66337018D01*
X93534693Y-66331825D01*
X93415000Y-66212132D01*
X93295305Y-66331825D01*
X91534693Y-66331825D01*
X91415000Y-66212132D01*
X91295305Y-66331825D01*
X89534693Y-66331825D01*
X89415000Y-66212132D01*
X89295305Y-66331825D01*
X87534693Y-66331825D01*
X87415000Y-66212132D01*
X87295305Y-66331825D01*
X85534693Y-66331825D01*
X85415000Y-66212132D01*
X85295305Y-66331825D01*
X74963099Y-66331825D01*
X74955336Y-66297812D01*
X74955334Y-66297805D01*
X74904998Y-66169552D01*
X74856743Y-66046602D01*
X74829835Y-65999996D01*
X85060637Y-65999996D01*
X85060637Y-66000003D01*
X85077980Y-66109501D01*
X85077981Y-66109506D01*
X85083172Y-66119693D01*
X85083173Y-66119693D01*
X85202868Y-66000000D01*
X85163086Y-65960218D01*
X85215000Y-65960218D01*
X85215000Y-66039782D01*
X85245448Y-66113291D01*
X85301709Y-66169552D01*
X85375218Y-66200000D01*
X85454782Y-66200000D01*
X85528291Y-66169552D01*
X85584552Y-66113291D01*
X85615000Y-66039782D01*
X85615000Y-65999999D01*
X85627132Y-65999999D01*
X85627132Y-66000000D01*
X85746825Y-66119693D01*
X85752018Y-66109504D01*
X85769362Y-66000000D01*
X85769361Y-65999996D01*
X87060637Y-65999996D01*
X87060637Y-66000003D01*
X87077980Y-66109501D01*
X87077981Y-66109506D01*
X87083172Y-66119693D01*
X87083173Y-66119693D01*
X87202868Y-66000000D01*
X87163086Y-65960218D01*
X87215000Y-65960218D01*
X87215000Y-66039782D01*
X87245448Y-66113291D01*
X87301709Y-66169552D01*
X87375218Y-66200000D01*
X87454782Y-66200000D01*
X87528291Y-66169552D01*
X87584552Y-66113291D01*
X87615000Y-66039782D01*
X87615000Y-65999999D01*
X87627132Y-65999999D01*
X87627132Y-66000000D01*
X87746825Y-66119693D01*
X87752018Y-66109504D01*
X87769362Y-66000000D01*
X87769361Y-65999996D01*
X89060637Y-65999996D01*
X89060637Y-66000003D01*
X89077980Y-66109501D01*
X89077981Y-66109506D01*
X89083172Y-66119693D01*
X89083173Y-66119693D01*
X89202868Y-66000000D01*
X89163086Y-65960218D01*
X89215000Y-65960218D01*
X89215000Y-66039782D01*
X89245448Y-66113291D01*
X89301709Y-66169552D01*
X89375218Y-66200000D01*
X89454782Y-66200000D01*
X89528291Y-66169552D01*
X89584552Y-66113291D01*
X89615000Y-66039782D01*
X89615000Y-65999999D01*
X89627132Y-65999999D01*
X89627132Y-66000000D01*
X89746825Y-66119693D01*
X89752018Y-66109504D01*
X89769362Y-66000000D01*
X89769361Y-65999996D01*
X91060637Y-65999996D01*
X91060637Y-66000003D01*
X91077980Y-66109501D01*
X91077981Y-66109506D01*
X91083172Y-66119693D01*
X91083173Y-66119693D01*
X91202868Y-66000000D01*
X91163086Y-65960218D01*
X91215000Y-65960218D01*
X91215000Y-66039782D01*
X91245448Y-66113291D01*
X91301709Y-66169552D01*
X91375218Y-66200000D01*
X91454782Y-66200000D01*
X91528291Y-66169552D01*
X91584552Y-66113291D01*
X91615000Y-66039782D01*
X91615000Y-65999999D01*
X91627132Y-65999999D01*
X91627132Y-66000000D01*
X91746825Y-66119693D01*
X91752018Y-66109504D01*
X91769362Y-66000000D01*
X91769361Y-65999996D01*
X93060637Y-65999996D01*
X93060637Y-66000003D01*
X93077980Y-66109501D01*
X93077981Y-66109506D01*
X93083172Y-66119693D01*
X93083173Y-66119693D01*
X93202868Y-66000000D01*
X93163086Y-65960218D01*
X93215000Y-65960218D01*
X93215000Y-66039782D01*
X93245448Y-66113291D01*
X93301709Y-66169552D01*
X93375218Y-66200000D01*
X93454782Y-66200000D01*
X93528291Y-66169552D01*
X93584552Y-66113291D01*
X93615000Y-66039782D01*
X93615000Y-65999999D01*
X93627132Y-65999999D01*
X93627132Y-66000000D01*
X93746825Y-66119693D01*
X93752018Y-66109504D01*
X93769362Y-66000000D01*
X93752018Y-65890494D01*
X93752017Y-65890492D01*
X93746826Y-65880305D01*
X93746825Y-65880305D01*
X93627132Y-65999999D01*
X93615000Y-65999999D01*
X93615000Y-65960218D01*
X93584552Y-65886709D01*
X93528291Y-65830448D01*
X93454782Y-65800000D01*
X93375218Y-65800000D01*
X93301709Y-65830448D01*
X93245448Y-65886709D01*
X93215000Y-65960218D01*
X93163086Y-65960218D01*
X93083173Y-65880305D01*
X93077980Y-65890498D01*
X93060637Y-65999996D01*
X91769361Y-65999996D01*
X91752018Y-65890494D01*
X91752017Y-65890492D01*
X91746826Y-65880305D01*
X91746825Y-65880305D01*
X91627132Y-65999999D01*
X91615000Y-65999999D01*
X91615000Y-65960218D01*
X91584552Y-65886709D01*
X91528291Y-65830448D01*
X91454782Y-65800000D01*
X91375218Y-65800000D01*
X91301709Y-65830448D01*
X91245448Y-65886709D01*
X91215000Y-65960218D01*
X91163086Y-65960218D01*
X91083173Y-65880305D01*
X91077980Y-65890498D01*
X91060637Y-65999996D01*
X89769361Y-65999996D01*
X89752018Y-65890494D01*
X89752017Y-65890492D01*
X89746826Y-65880305D01*
X89746825Y-65880305D01*
X89627132Y-65999999D01*
X89615000Y-65999999D01*
X89615000Y-65960218D01*
X89584552Y-65886709D01*
X89528291Y-65830448D01*
X89454782Y-65800000D01*
X89375218Y-65800000D01*
X89301709Y-65830448D01*
X89245448Y-65886709D01*
X89215000Y-65960218D01*
X89163086Y-65960218D01*
X89083173Y-65880305D01*
X89077980Y-65890498D01*
X89060637Y-65999996D01*
X87769361Y-65999996D01*
X87752018Y-65890494D01*
X87752017Y-65890492D01*
X87746826Y-65880305D01*
X87746825Y-65880305D01*
X87627132Y-65999999D01*
X87615000Y-65999999D01*
X87615000Y-65960218D01*
X87584552Y-65886709D01*
X87528291Y-65830448D01*
X87454782Y-65800000D01*
X87375218Y-65800000D01*
X87301709Y-65830448D01*
X87245448Y-65886709D01*
X87215000Y-65960218D01*
X87163086Y-65960218D01*
X87083173Y-65880305D01*
X87077980Y-65890498D01*
X87060637Y-65999996D01*
X85769361Y-65999996D01*
X85752018Y-65890494D01*
X85752017Y-65890492D01*
X85746826Y-65880305D01*
X85746825Y-65880305D01*
X85627132Y-65999999D01*
X85615000Y-65999999D01*
X85615000Y-65960218D01*
X85584552Y-65886709D01*
X85528291Y-65830448D01*
X85454782Y-65800000D01*
X85375218Y-65800000D01*
X85301709Y-65830448D01*
X85245448Y-65886709D01*
X85215000Y-65960218D01*
X85163086Y-65960218D01*
X85083173Y-65880305D01*
X85077980Y-65890498D01*
X85060637Y-65999996D01*
X74829835Y-65999996D01*
X74721815Y-65812898D01*
X74606400Y-65668173D01*
X85295305Y-65668173D01*
X85415000Y-65787868D01*
X85415001Y-65787868D01*
X85534693Y-65668173D01*
X87295305Y-65668173D01*
X87415000Y-65787868D01*
X87415001Y-65787868D01*
X87534693Y-65668173D01*
X89295305Y-65668173D01*
X89415000Y-65787868D01*
X89415001Y-65787868D01*
X89534693Y-65668173D01*
X91295305Y-65668173D01*
X91415000Y-65787868D01*
X91415001Y-65787868D01*
X91534693Y-65668173D01*
X93295305Y-65668173D01*
X93415000Y-65787868D01*
X93415001Y-65787868D01*
X93534693Y-65668173D01*
X93534693Y-65668172D01*
X93524506Y-65662981D01*
X93524501Y-65662980D01*
X93415003Y-65645637D01*
X93414997Y-65645637D01*
X93305498Y-65662980D01*
X93295305Y-65668173D01*
X91534693Y-65668173D01*
X91534693Y-65668172D01*
X91524506Y-65662981D01*
X91524501Y-65662980D01*
X91415003Y-65645637D01*
X91414997Y-65645637D01*
X91305498Y-65662980D01*
X91295305Y-65668173D01*
X89534693Y-65668173D01*
X89534693Y-65668172D01*
X89524506Y-65662981D01*
X89524501Y-65662980D01*
X89415003Y-65645637D01*
X89414997Y-65645637D01*
X89305498Y-65662980D01*
X89295305Y-65668173D01*
X87534693Y-65668173D01*
X87534693Y-65668172D01*
X87524506Y-65662981D01*
X87524501Y-65662980D01*
X87415003Y-65645637D01*
X87414997Y-65645637D01*
X87305498Y-65662980D01*
X87295305Y-65668173D01*
X85534693Y-65668173D01*
X85534693Y-65668172D01*
X85524506Y-65662981D01*
X85524501Y-65662980D01*
X85415003Y-65645637D01*
X85414997Y-65645637D01*
X85305498Y-65662980D01*
X85295305Y-65668173D01*
X74606400Y-65668173D01*
X74553561Y-65601915D01*
X74355741Y-65418365D01*
X74132775Y-65266349D01*
X74132772Y-65266348D01*
X74132770Y-65266346D01*
X73889650Y-65149266D01*
X73889646Y-65149264D01*
X73889641Y-65149262D01*
X73889633Y-65149259D01*
X73889629Y-65149258D01*
X73631777Y-65069721D01*
X73631773Y-65069720D01*
X73364932Y-65029500D01*
X73364929Y-65029500D01*
X73095071Y-65029500D01*
X73095067Y-65029500D01*
X72828226Y-65069720D01*
X72828222Y-65069721D01*
X72570370Y-65149258D01*
X72570349Y-65149266D01*
X72327227Y-65266348D01*
X72104259Y-65418364D01*
X71906438Y-65601915D01*
X71738189Y-65812892D01*
X71738184Y-65812900D01*
X71603257Y-66046601D01*
X71603255Y-66046606D01*
X71504665Y-66297805D01*
X71504663Y-66297812D01*
X71444618Y-66560886D01*
X71444615Y-66560909D01*
X71424451Y-66829994D01*
X71424451Y-66830005D01*
X71444615Y-67099090D01*
X71444618Y-67099113D01*
X71504663Y-67362187D01*
X71504665Y-67362194D01*
X71561739Y-67507613D01*
X71603257Y-67613398D01*
X71738185Y-67847102D01*
X71738189Y-67847107D01*
X71865779Y-68007100D01*
X71896622Y-68077793D01*
X71887986Y-68154436D01*
X71865779Y-68192900D01*
X71738189Y-68352892D01*
X71738184Y-68352900D01*
X71603257Y-68586601D01*
X71603255Y-68586606D01*
X71504665Y-68837805D01*
X71504663Y-68837812D01*
X71444618Y-69100886D01*
X71444615Y-69100909D01*
X71424451Y-69369994D01*
X71424451Y-69370005D01*
X71444615Y-69639090D01*
X71444618Y-69639113D01*
X71504663Y-69902187D01*
X71504665Y-69902194D01*
X71586028Y-70109500D01*
X71603257Y-70153398D01*
X71738185Y-70387102D01*
X71738189Y-70387107D01*
X71865779Y-70547100D01*
X71896622Y-70617793D01*
X71887986Y-70694436D01*
X71865779Y-70732900D01*
X71738189Y-70892892D01*
X71738184Y-70892900D01*
X71603257Y-71126601D01*
X71603255Y-71126606D01*
X71504665Y-71377805D01*
X71504663Y-71377812D01*
X71444618Y-71640886D01*
X71444615Y-71640909D01*
X71424451Y-71909994D01*
X71424451Y-71910005D01*
X71444615Y-72179090D01*
X71444618Y-72179113D01*
X71504663Y-72442187D01*
X71504665Y-72442194D01*
X71603255Y-72693393D01*
X71603257Y-72693398D01*
X71738185Y-72927102D01*
X71738189Y-72927107D01*
X71865779Y-73087100D01*
X71896622Y-73157793D01*
X71887986Y-73234436D01*
X71865779Y-73272900D01*
X71738189Y-73432892D01*
X71738184Y-73432900D01*
X71603257Y-73666601D01*
X71603255Y-73666606D01*
X71504665Y-73917805D01*
X71504663Y-73917812D01*
X71444618Y-74180886D01*
X71444615Y-74180909D01*
X71424451Y-74449994D01*
X71424451Y-74450005D01*
X71444615Y-74719090D01*
X71444618Y-74719113D01*
X71504663Y-74982187D01*
X71504665Y-74982194D01*
X71603255Y-75233393D01*
X71603257Y-75233398D01*
X71738185Y-75467102D01*
X71738189Y-75467107D01*
X71865779Y-75627100D01*
X71896622Y-75697793D01*
X71887986Y-75774436D01*
X71865779Y-75812900D01*
X71738189Y-75972892D01*
X71738184Y-75972900D01*
X71603257Y-76206601D01*
X71603255Y-76206606D01*
X71504665Y-76457805D01*
X71504663Y-76457812D01*
X71444618Y-76720886D01*
X71444615Y-76720909D01*
X71424451Y-76989994D01*
X71424451Y-76990005D01*
X71444615Y-77259090D01*
X71444618Y-77259113D01*
X71504663Y-77522187D01*
X71504665Y-77522194D01*
X71586123Y-77729741D01*
X71603257Y-77773398D01*
X71738185Y-78007102D01*
X71738189Y-78007107D01*
X71865779Y-78167100D01*
X71896622Y-78237793D01*
X71887986Y-78314436D01*
X71865779Y-78352900D01*
X71738189Y-78512892D01*
X71738184Y-78512900D01*
X71603257Y-78746601D01*
X71603255Y-78746606D01*
X71504665Y-78997805D01*
X71504663Y-78997812D01*
X71444618Y-79260886D01*
X71444615Y-79260908D01*
X71425578Y-79514946D01*
X71400105Y-79587746D01*
X71382354Y-79609170D01*
X66046174Y-84945352D01*
X66046165Y-84945363D01*
X65930477Y-85104593D01*
X65930474Y-85104598D01*
X65840580Y-85281024D01*
X65839306Y-85285545D01*
X65780291Y-85467174D01*
X65749500Y-85661583D01*
X65749500Y-85661587D01*
X65749500Y-96920308D01*
X65729538Y-96994808D01*
X65705859Y-97025667D01*
X64525667Y-98205859D01*
X64458872Y-98244423D01*
X64420308Y-98249500D01*
X59774020Y-98249500D01*
X59699520Y-98229538D01*
X59644982Y-98175000D01*
X59625020Y-98100500D01*
X59635319Y-98046067D01*
X59715334Y-97842195D01*
X59715336Y-97842187D01*
X59775381Y-97579113D01*
X59775381Y-97579110D01*
X59775383Y-97579103D01*
X59781667Y-97495253D01*
X59795549Y-97310005D01*
X59795549Y-97309994D01*
X59775384Y-97040909D01*
X59775383Y-97040907D01*
X59775383Y-97040897D01*
X59775381Y-97040891D01*
X59775381Y-97040886D01*
X59715336Y-96777812D01*
X59715334Y-96777805D01*
X59682651Y-96694532D01*
X59616743Y-96526602D01*
X59481815Y-96292898D01*
X59354219Y-96132899D01*
X59323377Y-96062208D01*
X59332013Y-95985565D01*
X59354220Y-95947100D01*
X59411608Y-95875138D01*
X59481815Y-95787102D01*
X59616743Y-95553398D01*
X59715334Y-95302195D01*
X59775383Y-95039103D01*
X59795549Y-94770000D01*
X59775383Y-94500897D01*
X59775381Y-94500891D01*
X59775381Y-94500886D01*
X59715336Y-94237812D01*
X59715334Y-94237805D01*
X59616743Y-93986602D01*
X59481815Y-93752898D01*
X59354219Y-93592899D01*
X59323377Y-93522208D01*
X59332013Y-93445565D01*
X59354220Y-93407100D01*
X59481815Y-93247102D01*
X59616743Y-93013398D01*
X59715334Y-92762195D01*
X59775383Y-92499103D01*
X59795549Y-92230000D01*
X59775383Y-91960897D01*
X59775381Y-91960891D01*
X59775381Y-91960886D01*
X59715336Y-91697812D01*
X59715334Y-91697805D01*
X59616743Y-91446602D01*
X59481815Y-91212898D01*
X59354219Y-91052899D01*
X59323377Y-90982208D01*
X59332013Y-90905565D01*
X59354220Y-90867100D01*
X59481815Y-90707102D01*
X59616743Y-90473398D01*
X59715334Y-90222195D01*
X59775383Y-89959103D01*
X59795549Y-89690000D01*
X59775383Y-89420897D01*
X59775381Y-89420891D01*
X59775381Y-89420886D01*
X59715336Y-89157812D01*
X59715334Y-89157805D01*
X59661338Y-89020228D01*
X59616743Y-88906602D01*
X59481815Y-88672898D01*
X59354219Y-88512899D01*
X59323377Y-88442208D01*
X59332013Y-88365565D01*
X59354220Y-88327100D01*
X59481815Y-88167102D01*
X59616743Y-87933398D01*
X59715334Y-87682195D01*
X59775383Y-87419103D01*
X59788927Y-87238370D01*
X59795549Y-87150005D01*
X59795549Y-87149994D01*
X59775384Y-86880909D01*
X59775383Y-86880907D01*
X59775383Y-86880897D01*
X59775381Y-86880891D01*
X59775381Y-86880886D01*
X59715336Y-86617812D01*
X59715334Y-86617805D01*
X59688918Y-86550499D01*
X59616743Y-86366602D01*
X59481815Y-86132898D01*
X59354219Y-85972899D01*
X59323377Y-85902208D01*
X59332013Y-85825565D01*
X59354220Y-85787100D01*
X59384293Y-85749390D01*
X59481815Y-85627102D01*
X59616743Y-85393398D01*
X59715334Y-85142195D01*
X59723916Y-85104595D01*
X59775381Y-84879113D01*
X59775381Y-84879110D01*
X59775383Y-84879103D01*
X59775384Y-84879090D01*
X59795549Y-84610005D01*
X59795549Y-84609994D01*
X59775384Y-84340909D01*
X59775383Y-84340907D01*
X59775383Y-84340897D01*
X59775381Y-84340891D01*
X59775381Y-84340886D01*
X59715336Y-84077812D01*
X59715334Y-84077805D01*
X59684797Y-84000000D01*
X59616743Y-83826602D01*
X59481815Y-83592898D01*
X59354219Y-83432899D01*
X59323377Y-83362208D01*
X59332013Y-83285565D01*
X59354220Y-83247100D01*
X59481815Y-83087102D01*
X59616743Y-82853398D01*
X59715334Y-82602195D01*
X59728066Y-82546412D01*
X59775381Y-82339113D01*
X59775381Y-82339110D01*
X59775383Y-82339103D01*
X59775384Y-82339090D01*
X59795549Y-82070005D01*
X59795549Y-82069994D01*
X59775384Y-81800909D01*
X59775383Y-81800907D01*
X59775383Y-81800897D01*
X59775381Y-81800891D01*
X59775381Y-81800886D01*
X59715336Y-81537812D01*
X59715334Y-81537805D01*
X59696463Y-81489723D01*
X59616743Y-81286602D01*
X59481815Y-81052898D01*
X59354219Y-80892899D01*
X59323377Y-80822208D01*
X59332013Y-80745565D01*
X59354220Y-80707100D01*
X59374215Y-80682027D01*
X59481815Y-80547102D01*
X59616743Y-80313398D01*
X59715334Y-80062195D01*
X59764585Y-79846412D01*
X59775381Y-79799113D01*
X59775381Y-79799110D01*
X59775383Y-79799103D01*
X59791825Y-79579692D01*
X59795549Y-79530005D01*
X59795549Y-79529994D01*
X59775384Y-79260909D01*
X59775383Y-79260907D01*
X59775383Y-79260897D01*
X59775381Y-79260891D01*
X59775381Y-79260886D01*
X59715336Y-78997812D01*
X59715334Y-78997805D01*
X59687494Y-78926871D01*
X59616743Y-78746602D01*
X59481815Y-78512898D01*
X59354219Y-78352899D01*
X59323377Y-78282208D01*
X59332013Y-78205565D01*
X59354220Y-78167100D01*
X59361345Y-78158166D01*
X59481815Y-78007102D01*
X59616743Y-77773398D01*
X59715334Y-77522195D01*
X59732631Y-77446412D01*
X59775381Y-77259113D01*
X59775381Y-77259110D01*
X59775383Y-77259103D01*
X59778085Y-77223048D01*
X59795549Y-76990005D01*
X59795549Y-76989994D01*
X59775384Y-76720909D01*
X59775383Y-76720898D01*
X59775383Y-76720897D01*
X59775381Y-76720891D01*
X59775381Y-76720886D01*
X59715336Y-76457812D01*
X59715334Y-76457805D01*
X59684243Y-76378588D01*
X59616743Y-76206602D01*
X59481815Y-75972898D01*
X59354219Y-75812899D01*
X59323377Y-75742208D01*
X59332013Y-75665565D01*
X59354220Y-75627100D01*
X59481815Y-75467102D01*
X59616743Y-75233398D01*
X59715334Y-74982195D01*
X59775383Y-74719103D01*
X59785074Y-74589781D01*
X59795549Y-74450005D01*
X59795549Y-74449994D01*
X59775384Y-74180909D01*
X59775383Y-74180907D01*
X59775383Y-74180897D01*
X59775381Y-74180891D01*
X59775381Y-74180886D01*
X59715336Y-73917812D01*
X59715334Y-73917805D01*
X59616743Y-73666602D01*
X59481815Y-73432898D01*
X59354219Y-73272899D01*
X59323377Y-73202208D01*
X59332013Y-73125565D01*
X59354220Y-73087100D01*
X59481815Y-72927102D01*
X59616743Y-72693398D01*
X59715334Y-72442195D01*
X59775383Y-72179103D01*
X59794421Y-71925051D01*
X59819894Y-71852252D01*
X59837640Y-71830832D01*
X62113828Y-69554646D01*
X62229524Y-69395405D01*
X62318884Y-69220026D01*
X62379709Y-69032826D01*
X62410500Y-68838417D01*
X62410500Y-68641583D01*
X62410500Y-57128220D01*
X62430462Y-57053720D01*
X62454141Y-57022861D01*
X62562086Y-56914916D01*
X62562087Y-56914915D01*
X62720716Y-56703011D01*
X62736056Y-56674919D01*
X62769756Y-56613201D01*
X62847574Y-56470689D01*
X62940077Y-56222678D01*
X62996343Y-55964026D01*
X63015227Y-55700000D01*
X63011079Y-55642008D01*
X62996344Y-55435987D01*
X62996343Y-55435985D01*
X62996343Y-55435974D01*
X62940077Y-55177322D01*
X62847574Y-54929311D01*
X62772576Y-54791963D01*
X62720718Y-54696991D01*
X62656979Y-54611846D01*
X62562087Y-54485085D01*
X62381861Y-54304859D01*
X62343297Y-54238064D01*
X62343297Y-54160936D01*
X62381861Y-54094141D01*
X62448656Y-54055577D01*
X62487220Y-54050500D01*
X64027236Y-54050500D01*
X64027236Y-54050499D01*
X64233774Y-54023308D01*
X64254739Y-54020548D01*
X64400255Y-53981557D01*
X64475433Y-53961414D01*
X64552561Y-53961414D01*
X64619355Y-53999979D01*
X64657919Y-54066774D01*
X64657919Y-54143902D01*
X64629473Y-54199496D01*
X64550306Y-54296585D01*
X64550303Y-54296591D01*
X64456091Y-54476949D01*
X64414100Y-54623702D01*
X64400114Y-54672582D01*
X64389500Y-54791963D01*
X64389500Y-54791968D01*
X64389500Y-54791969D01*
X64389500Y-56608030D01*
X64389501Y-56608036D01*
X64400114Y-56727418D01*
X64400114Y-56727421D01*
X64400115Y-56727422D01*
X64456091Y-56923050D01*
X64496895Y-57001164D01*
X64531024Y-57066502D01*
X64550303Y-57103408D01*
X64550306Y-57103413D01*
X64678886Y-57261104D01*
X64678895Y-57261113D01*
X64836586Y-57389693D01*
X64836594Y-57389699D01*
X64909485Y-57427773D01*
X64966277Y-57479959D01*
X64989367Y-57553550D01*
X64989500Y-57559841D01*
X64989500Y-59241583D01*
X64989500Y-59438417D01*
X65020291Y-59632826D01*
X65081116Y-59820026D01*
X65170476Y-59995405D01*
X65286172Y-60154646D01*
X66885354Y-61753828D01*
X67044595Y-61869524D01*
X67092200Y-61893780D01*
X67110004Y-61904477D01*
X67147266Y-61930568D01*
X67353504Y-62026739D01*
X67573308Y-62085635D01*
X67800000Y-62105468D01*
X68026692Y-62085635D01*
X68246496Y-62026739D01*
X68452734Y-61930568D01*
X68639139Y-61800047D01*
X68800047Y-61639139D01*
X68930568Y-61452734D01*
X69026739Y-61246496D01*
X69085635Y-61026692D01*
X69105468Y-60800000D01*
X69085635Y-60573308D01*
X69026739Y-60353504D01*
X68930568Y-60147266D01*
X68877124Y-60070939D01*
X68850745Y-59998463D01*
X68864138Y-59922506D01*
X68913716Y-59863423D01*
X68986192Y-59837044D01*
X69062149Y-59850437D01*
X69104537Y-59880118D01*
X69943346Y-60718927D01*
X70023547Y-60780466D01*
X70023549Y-60780467D01*
X70125388Y-60858611D01*
X70324112Y-60973344D01*
X70536113Y-61061158D01*
X70646937Y-61090853D01*
X70757760Y-61120548D01*
X70757764Y-61120549D01*
X70784210Y-61124030D01*
X70784219Y-61124030D01*
X70784228Y-61124032D01*
X70945058Y-61145206D01*
X70985265Y-61150500D01*
X70985266Y-61150500D01*
X71333188Y-61150500D01*
X71407688Y-61170462D01*
X71462226Y-61225000D01*
X71482188Y-61299500D01*
X71478452Y-61332656D01*
X71444618Y-61480889D01*
X71444615Y-61480909D01*
X71424451Y-61749994D01*
X71424451Y-61750005D01*
X71444615Y-62019090D01*
X71444618Y-62019113D01*
X71504663Y-62282187D01*
X71504665Y-62282194D01*
X71534432Y-62358037D01*
X71603257Y-62533398D01*
X71738185Y-62767102D01*
X71738189Y-62767107D01*
X71895060Y-62963817D01*
X71906439Y-62978085D01*
X72104259Y-63161635D01*
X72327226Y-63313651D01*
X72570359Y-63430738D01*
X72828228Y-63510280D01*
X73095071Y-63550500D01*
X73095074Y-63550500D01*
X73364926Y-63550500D01*
X73364929Y-63550500D01*
X73631772Y-63510280D01*
X73889641Y-63430738D01*
X74132775Y-63313651D01*
X74355741Y-63161635D01*
X74553561Y-62978085D01*
X74721815Y-62767102D01*
X74856743Y-62533398D01*
X74955334Y-62282195D01*
X74955336Y-62282187D01*
X75015381Y-62019113D01*
X75015381Y-62019110D01*
X75015383Y-62019103D01*
X75018280Y-61980450D01*
X75035549Y-61750005D01*
X75035549Y-61749994D01*
X75015384Y-61480909D01*
X75015383Y-61480907D01*
X75015383Y-61480897D01*
X74981548Y-61332656D01*
X74984432Y-61255582D01*
X75025466Y-61190275D01*
X75093656Y-61154236D01*
X75126812Y-61150500D01*
X76450501Y-61150500D01*
X76525001Y-61170462D01*
X76579539Y-61225000D01*
X76599501Y-61299500D01*
X76599501Y-62064216D01*
X76601187Y-62085635D01*
X76609903Y-62196406D01*
X76609903Y-62196409D01*
X76609904Y-62196412D01*
X76628427Y-62269924D01*
X76664904Y-62414687D01*
X76757991Y-62619623D01*
X76757992Y-62619625D01*
X76757993Y-62619626D01*
X76886181Y-62804654D01*
X77045346Y-62963819D01*
X77230374Y-63092007D01*
X77230375Y-63092007D01*
X77230376Y-63092008D01*
X77435312Y-63185095D01*
X77472640Y-63194500D01*
X77653588Y-63240096D01*
X77785783Y-63250500D01*
X79014216Y-63250499D01*
X79146412Y-63240096D01*
X79364683Y-63185096D01*
X79364682Y-63185096D01*
X79364687Y-63185095D01*
X79506613Y-63120628D01*
X79569626Y-63092007D01*
X79754654Y-62963819D01*
X79913819Y-62804654D01*
X80042007Y-62619626D01*
X80070628Y-62556613D01*
X80135095Y-62414687D01*
X80135381Y-62413549D01*
X80190096Y-62196412D01*
X80200500Y-62064217D01*
X80200499Y-58935784D01*
X80190096Y-58803588D01*
X80135096Y-58585317D01*
X80135095Y-58585312D01*
X80042008Y-58380376D01*
X80031715Y-58365519D01*
X79913819Y-58195346D01*
X79754654Y-58036181D01*
X79569626Y-57907993D01*
X79569625Y-57907992D01*
X79569623Y-57907991D01*
X79364687Y-57814904D01*
X79193705Y-57771821D01*
X79146412Y-57759904D01*
X79146409Y-57759903D01*
X79146406Y-57759903D01*
X79081724Y-57754813D01*
X79014217Y-57749500D01*
X79014210Y-57749500D01*
X78519256Y-57749500D01*
X78468823Y-57739468D01*
X78468504Y-57740409D01*
X78463883Y-57738840D01*
X78242244Y-57679453D01*
X78242240Y-57679452D01*
X78233416Y-57678290D01*
X78215771Y-57675967D01*
X78215769Y-57675966D01*
X78014738Y-57649500D01*
X78014734Y-57649500D01*
X71886799Y-57649500D01*
X71812299Y-57629538D01*
X71781440Y-57605859D01*
X70894141Y-56718560D01*
X70855577Y-56651765D01*
X70850500Y-56613201D01*
X70850500Y-54623702D01*
X70870462Y-54549202D01*
X70925000Y-54494664D01*
X70999500Y-54474702D01*
X71074000Y-54494664D01*
X71128538Y-54549202D01*
X71143422Y-54585137D01*
X71173261Y-54696496D01*
X71269432Y-54902734D01*
X71269435Y-54902738D01*
X71269437Y-54902741D01*
X71399951Y-55089137D01*
X71560862Y-55250048D01*
X71632916Y-55300500D01*
X71747266Y-55380568D01*
X71953504Y-55476739D01*
X72173308Y-55535635D01*
X72400000Y-55555468D01*
X72440030Y-55551965D01*
X72515985Y-55565357D01*
X72537866Y-55577917D01*
X72630374Y-55642007D01*
X72630375Y-55642007D01*
X72630376Y-55642008D01*
X72835312Y-55735095D01*
X72872640Y-55744500D01*
X73053588Y-55790096D01*
X73185783Y-55800500D01*
X74214216Y-55800499D01*
X74346412Y-55790096D01*
X74564683Y-55735096D01*
X74564682Y-55735096D01*
X74564687Y-55735095D01*
X74706613Y-55670628D01*
X74769626Y-55642007D01*
X74954654Y-55513819D01*
X75113819Y-55354654D01*
X75113821Y-55354650D01*
X75113828Y-55354644D01*
X75114365Y-55354002D01*
X75114722Y-55353750D01*
X75118551Y-55349922D01*
X75119216Y-55350587D01*
X75177437Y-55309610D01*
X75228737Y-55300500D01*
X75986607Y-55300500D01*
X75986611Y-55300500D01*
X76157701Y-55273402D01*
X76322445Y-55219873D01*
X76476788Y-55141232D01*
X76616928Y-55039414D01*
X77039414Y-54616928D01*
X78912201Y-52744141D01*
X78978996Y-52705577D01*
X79017560Y-52700500D01*
X79070571Y-52700500D01*
X79145071Y-52720462D01*
X79192886Y-52767941D01*
X79194273Y-52766961D01*
X79197928Y-52772129D01*
X79197930Y-52772132D01*
X79348858Y-52951142D01*
X79527868Y-53102070D01*
X79527870Y-53102071D01*
X79527875Y-53102075D01*
X79729800Y-53220569D01*
X79729806Y-53220572D01*
X79729810Y-53220574D01*
X79948874Y-53303245D01*
X80178759Y-53347705D01*
X80189282Y-53348264D01*
X80231374Y-53350500D01*
X80231378Y-53350500D01*
X81668626Y-53350500D01*
X81703701Y-53348636D01*
X81721241Y-53347705D01*
X81951126Y-53303245D01*
X82170190Y-53220574D01*
X82170199Y-53220569D01*
X82372124Y-53102075D01*
X82372125Y-53102073D01*
X82372132Y-53102070D01*
X82551142Y-52951142D01*
X82702070Y-52772132D01*
X82704530Y-52767941D01*
X82820569Y-52570199D01*
X82820570Y-52570196D01*
X82820574Y-52570190D01*
X82903245Y-52351126D01*
X82947705Y-52121241D01*
X82950471Y-52069166D01*
X82950500Y-52068626D01*
X82950500Y-51131373D01*
X82947705Y-51078760D01*
X82938186Y-51029538D01*
X82903245Y-50848874D01*
X82820574Y-50629810D01*
X82759309Y-50525409D01*
X82738821Y-50451055D01*
X82758255Y-50376416D01*
X82759271Y-50374654D01*
X82820574Y-50270190D01*
X82903245Y-50051126D01*
X82947705Y-49821241D01*
X82950500Y-49768622D01*
X82950500Y-48831378D01*
X82947705Y-48778759D01*
X82903245Y-48548874D01*
X82884799Y-48499994D01*
X96744592Y-48499994D01*
X96744592Y-48500005D01*
X96764196Y-48761617D01*
X96764199Y-48761637D01*
X96822578Y-49017411D01*
X96822579Y-49017415D01*
X96884535Y-49175276D01*
X96918432Y-49261643D01*
X97049614Y-49488857D01*
X97049618Y-49488862D01*
X97213197Y-49693984D01*
X97405515Y-49872428D01*
X97405517Y-49872429D01*
X97405521Y-49872433D01*
X97622296Y-50020228D01*
X97858677Y-50134063D01*
X97956590Y-50164265D01*
X98109381Y-50211395D01*
X98109382Y-50211395D01*
X98109385Y-50211396D01*
X98368818Y-50250500D01*
X98368820Y-50250500D01*
X98631180Y-50250500D01*
X98631182Y-50250500D01*
X98890615Y-50211396D01*
X99141323Y-50134063D01*
X99377704Y-50020228D01*
X99594479Y-49872433D01*
X99786805Y-49693981D01*
X99950386Y-49488857D01*
X100081568Y-49261643D01*
X100177420Y-49017416D01*
X100235802Y-48761630D01*
X100248931Y-48586430D01*
X100255408Y-48500005D01*
X100255408Y-48499994D01*
X100235803Y-48238382D01*
X100235802Y-48238380D01*
X100235802Y-48238370D01*
X100177420Y-47982584D01*
X100081568Y-47738357D01*
X99950386Y-47511143D01*
X99786805Y-47306019D01*
X99786802Y-47306015D01*
X99594484Y-47127571D01*
X99594481Y-47127569D01*
X99594479Y-47127567D01*
X99377704Y-46979772D01*
X99377701Y-46979771D01*
X99377699Y-46979769D01*
X99141332Y-46865941D01*
X99141328Y-46865939D01*
X99141323Y-46865937D01*
X99141315Y-46865934D01*
X99141311Y-46865933D01*
X98890618Y-46788604D01*
X98631184Y-46749500D01*
X98631182Y-46749500D01*
X98368818Y-46749500D01*
X98368815Y-46749500D01*
X98109381Y-46788604D01*
X97858688Y-46865933D01*
X97858667Y-46865941D01*
X97622300Y-46979769D01*
X97405515Y-47127571D01*
X97213197Y-47306015D01*
X97049618Y-47511137D01*
X97049613Y-47511145D01*
X96918432Y-47738356D01*
X96918430Y-47738361D01*
X96822579Y-47982584D01*
X96822578Y-47982588D01*
X96764199Y-48238362D01*
X96764196Y-48238382D01*
X96744592Y-48499994D01*
X82884799Y-48499994D01*
X82820574Y-48329810D01*
X82820572Y-48329806D01*
X82820569Y-48329800D01*
X82702075Y-48127875D01*
X82702071Y-48127870D01*
X82702070Y-48127868D01*
X82551142Y-47948858D01*
X82372132Y-47797930D01*
X82372129Y-47797928D01*
X82372124Y-47797924D01*
X82170199Y-47679430D01*
X82170186Y-47679424D01*
X81951124Y-47596754D01*
X81721239Y-47552294D01*
X81668626Y-47549500D01*
X81668622Y-47549500D01*
X80231378Y-47549500D01*
X80231374Y-47549500D01*
X80178760Y-47552294D01*
X79948875Y-47596754D01*
X79729813Y-47679424D01*
X79729800Y-47679430D01*
X79560114Y-47779007D01*
X79485757Y-47799496D01*
X79484703Y-47799500D01*
X76783056Y-47799500D01*
X76708556Y-47779538D01*
X76654018Y-47725000D01*
X76637227Y-47681077D01*
X76636881Y-47679426D01*
X76593050Y-47470386D01*
X76502656Y-47238727D01*
X76375366Y-47025106D01*
X76214650Y-46835350D01*
X76024894Y-46674634D01*
X76024892Y-46674633D01*
X76024890Y-46674631D01*
X75811274Y-46547344D01*
X75579614Y-46456950D01*
X75336233Y-46405918D01*
X75232849Y-46399500D01*
X75232842Y-46399500D01*
X74067158Y-46399500D01*
X74067150Y-46399500D01*
X73963754Y-46405919D01*
X73961285Y-46406253D01*
X73960337Y-46406131D01*
X73958381Y-46406253D01*
X73958357Y-46405877D01*
X73884784Y-46396443D01*
X73835980Y-46363953D01*
X71994141Y-44522114D01*
X71955577Y-44455319D01*
X71950500Y-44416755D01*
X71950500Y-39366912D01*
X71950500Y-39366908D01*
X71913553Y-39133632D01*
X71840568Y-38909008D01*
X71829647Y-38887574D01*
X71733343Y-38698566D01*
X71597124Y-38511078D01*
X71594522Y-38507496D01*
X71594519Y-38507493D01*
X71594517Y-38507490D01*
X71387027Y-38300000D01*
X77944709Y-38300000D01*
X77963852Y-38579862D01*
X78020925Y-38854511D01*
X78114864Y-39118830D01*
X78243919Y-39367896D01*
X78405688Y-39597069D01*
X78547945Y-39749390D01*
X78597151Y-39802077D01*
X78597163Y-39802088D01*
X78672034Y-39863000D01*
X78814754Y-39979111D01*
X79054432Y-40124862D01*
X79311725Y-40236620D01*
X79581839Y-40312303D01*
X79859742Y-40350500D01*
X79859743Y-40350500D01*
X80140257Y-40350500D01*
X80140258Y-40350500D01*
X80418161Y-40312303D01*
X80688275Y-40236620D01*
X80945568Y-40124862D01*
X81185246Y-39979111D01*
X81402845Y-39802081D01*
X81594312Y-39597069D01*
X81756081Y-39367896D01*
X81885136Y-39118830D01*
X81979075Y-38854511D01*
X82036148Y-38579862D01*
X82055291Y-38300000D01*
X95944709Y-38300000D01*
X95963852Y-38579862D01*
X96020925Y-38854511D01*
X96114864Y-39118830D01*
X96243919Y-39367896D01*
X96405688Y-39597069D01*
X96547945Y-39749390D01*
X96597151Y-39802077D01*
X96597163Y-39802088D01*
X96672034Y-39863000D01*
X96814754Y-39979111D01*
X97054432Y-40124862D01*
X97311725Y-40236620D01*
X97581839Y-40312303D01*
X97859742Y-40350500D01*
X97859743Y-40350500D01*
X98140257Y-40350500D01*
X98140258Y-40350500D01*
X98418161Y-40312303D01*
X98688275Y-40236620D01*
X98945568Y-40124862D01*
X99185246Y-39979111D01*
X99402845Y-39802081D01*
X99594312Y-39597069D01*
X99756081Y-39367896D01*
X99885136Y-39118830D01*
X99979075Y-38854511D01*
X100036148Y-38579862D01*
X100055291Y-38300000D01*
X100036148Y-38020138D01*
X99979075Y-37745489D01*
X99885136Y-37481170D01*
X99756081Y-37232104D01*
X99594312Y-37002931D01*
X99402845Y-36797919D01*
X99402842Y-36797917D01*
X99402836Y-36797911D01*
X99185249Y-36620891D01*
X99185246Y-36620889D01*
X98982982Y-36497890D01*
X98945568Y-36475138D01*
X98945565Y-36475136D01*
X98945564Y-36475136D01*
X98863997Y-36439707D01*
X98688275Y-36363380D01*
X98418161Y-36287697D01*
X98418160Y-36287696D01*
X98418159Y-36287696D01*
X98184540Y-36255586D01*
X98140258Y-36249500D01*
X97859742Y-36249500D01*
X97815459Y-36255586D01*
X97581841Y-36287696D01*
X97446782Y-36325538D01*
X97311725Y-36363380D01*
X97311723Y-36363381D01*
X97054436Y-36475136D01*
X97054435Y-36475136D01*
X96814753Y-36620889D01*
X96814750Y-36620891D01*
X96597163Y-36797911D01*
X96597151Y-36797922D01*
X96405687Y-37002932D01*
X96243921Y-37232100D01*
X96114865Y-37481167D01*
X96114864Y-37481170D01*
X96031076Y-37716929D01*
X96020925Y-37745490D01*
X95963852Y-38020136D01*
X95957840Y-38108030D01*
X95944709Y-38300000D01*
X82055291Y-38300000D01*
X82036148Y-38020138D01*
X81979075Y-37745489D01*
X81885136Y-37481170D01*
X81756081Y-37232104D01*
X81594312Y-37002931D01*
X81402845Y-36797919D01*
X81402842Y-36797917D01*
X81402836Y-36797911D01*
X81185249Y-36620891D01*
X81185246Y-36620889D01*
X80982982Y-36497890D01*
X80945568Y-36475138D01*
X80945565Y-36475136D01*
X80945564Y-36475136D01*
X80863997Y-36439707D01*
X80688275Y-36363380D01*
X80418161Y-36287697D01*
X80418160Y-36287696D01*
X80418159Y-36287696D01*
X80184540Y-36255586D01*
X80140258Y-36249500D01*
X79859742Y-36249500D01*
X79815459Y-36255586D01*
X79581841Y-36287696D01*
X79446782Y-36325538D01*
X79311725Y-36363380D01*
X79311723Y-36363381D01*
X79054436Y-36475136D01*
X79054435Y-36475136D01*
X78814753Y-36620889D01*
X78814750Y-36620891D01*
X78597163Y-36797911D01*
X78597151Y-36797922D01*
X78405687Y-37002932D01*
X78243921Y-37232100D01*
X78114865Y-37481167D01*
X78114864Y-37481170D01*
X78031076Y-37716929D01*
X78020925Y-37745490D01*
X77963852Y-38020136D01*
X77957840Y-38108030D01*
X77944709Y-38300000D01*
X71387027Y-38300000D01*
X70026257Y-36939230D01*
X69987693Y-36872435D01*
X69986021Y-36865542D01*
X69945079Y-36677330D01*
X69945078Y-36677327D01*
X69945077Y-36677322D01*
X69852574Y-36429311D01*
X69770754Y-36279469D01*
X69725718Y-36196991D01*
X69661979Y-36111846D01*
X69567087Y-35985085D01*
X69379915Y-35797913D01*
X69232657Y-35687677D01*
X69168008Y-35639281D01*
X68986458Y-35540148D01*
X68935689Y-35512426D01*
X68687678Y-35419923D01*
X68687676Y-35419922D01*
X68687672Y-35419921D01*
X68429028Y-35363657D01*
X68429012Y-35363655D01*
X68165005Y-35344773D01*
X68164995Y-35344773D01*
X67900987Y-35363655D01*
X67900971Y-35363657D01*
X67642327Y-35419921D01*
X67642322Y-35419923D01*
X67482177Y-35479654D01*
X67394306Y-35512428D01*
X67264649Y-35583226D01*
X67189695Y-35601410D01*
X67115691Y-35579680D01*
X67099081Y-35567929D01*
X67028408Y-35510303D01*
X67028407Y-35510302D01*
X66942261Y-35465303D01*
X66848050Y-35416091D01*
X66652422Y-35360115D01*
X66652421Y-35360114D01*
X66652418Y-35360114D01*
X66533037Y-35349500D01*
X66533030Y-35349500D01*
X64716969Y-35349500D01*
X64657273Y-35354807D01*
X64597582Y-35360114D01*
X64597579Y-35360114D01*
X64597577Y-35360115D01*
X64401949Y-35416091D01*
X64221591Y-35510303D01*
X64221586Y-35510306D01*
X64063895Y-35638886D01*
X64063886Y-35638895D01*
X63935306Y-35796586D01*
X63935303Y-35796591D01*
X63841091Y-35976949D01*
X63788690Y-36160083D01*
X63785114Y-36172582D01*
X63774500Y-36291963D01*
X63774500Y-36291968D01*
X63774500Y-36291969D01*
X63774500Y-38108030D01*
X63774501Y-38108036D01*
X63785114Y-38227418D01*
X63785114Y-38227421D01*
X63785115Y-38227422D01*
X63841091Y-38423050D01*
X63935303Y-38603408D01*
X63935306Y-38603413D01*
X64063886Y-38761104D01*
X64063895Y-38761113D01*
X64221586Y-38889693D01*
X64221589Y-38889694D01*
X64221593Y-38889698D01*
X64401951Y-38983909D01*
X64597582Y-39039886D01*
X64716963Y-39050500D01*
X66533036Y-39050499D01*
X66652418Y-39039886D01*
X66848049Y-38983909D01*
X67028407Y-38889698D01*
X67099081Y-38832069D01*
X67169434Y-38800460D01*
X67246166Y-38808262D01*
X67264636Y-38816765D01*
X67394311Y-38887574D01*
X67642322Y-38980077D01*
X67642327Y-38980078D01*
X67642330Y-38980079D01*
X67830542Y-39021021D01*
X67899097Y-39056363D01*
X67904230Y-39061257D01*
X68905859Y-40062886D01*
X68944423Y-40129681D01*
X68949500Y-40168245D01*
X68949500Y-44981908D01*
X68949500Y-45218092D01*
X68986447Y-45451368D01*
X69059432Y-45675992D01*
X69059436Y-45676001D01*
X69059437Y-45676002D01*
X69166655Y-45886430D01*
X69166658Y-45886435D01*
X69305477Y-46077503D01*
X69305480Y-46077506D01*
X69305483Y-46077510D01*
X72605860Y-49377887D01*
X72644423Y-49444680D01*
X72649500Y-49483244D01*
X72649500Y-50782849D01*
X72655918Y-50886233D01*
X72706950Y-51129614D01*
X72797344Y-51361274D01*
X72924631Y-51574890D01*
X72924633Y-51574892D01*
X72924634Y-51574894D01*
X73085350Y-51764650D01*
X73275106Y-51925366D01*
X73275108Y-51925367D01*
X73275109Y-51925368D01*
X73473089Y-52043338D01*
X73488727Y-52052656D01*
X73720386Y-52143050D01*
X73963763Y-52194081D01*
X74067158Y-52200500D01*
X74067169Y-52200500D01*
X75232831Y-52200500D01*
X75232842Y-52200500D01*
X75336237Y-52194081D01*
X75579614Y-52143050D01*
X75811273Y-52052656D01*
X76024894Y-51925366D01*
X76214650Y-51764650D01*
X76375366Y-51574894D01*
X76502656Y-51361273D01*
X76593050Y-51129614D01*
X76637227Y-50918921D01*
X76672053Y-50850105D01*
X76736622Y-50807920D01*
X76783056Y-50800500D01*
X77383440Y-50800500D01*
X77457940Y-50820462D01*
X77512478Y-50875000D01*
X77532440Y-50949500D01*
X77512478Y-51024000D01*
X77488799Y-51054859D01*
X75487799Y-53055859D01*
X75421004Y-53094423D01*
X75382440Y-53099500D01*
X75228737Y-53099500D01*
X75154237Y-53079538D01*
X75118854Y-53049774D01*
X75118551Y-53050078D01*
X75115032Y-53046559D01*
X75114365Y-53045998D01*
X75113828Y-53045355D01*
X74954655Y-52886182D01*
X74913633Y-52857762D01*
X74769626Y-52757993D01*
X74769625Y-52757992D01*
X74769623Y-52757991D01*
X74564687Y-52664904D01*
X74419924Y-52628427D01*
X74346412Y-52609904D01*
X74346409Y-52609903D01*
X74346406Y-52609903D01*
X74286122Y-52605159D01*
X74214217Y-52599500D01*
X74214209Y-52599500D01*
X73185791Y-52599500D01*
X73185788Y-52599500D01*
X73185784Y-52599501D01*
X73140622Y-52603054D01*
X73053593Y-52609903D01*
X73053589Y-52609903D01*
X73053588Y-52609904D01*
X73016264Y-52619308D01*
X72835312Y-52664904D01*
X72630375Y-52757991D01*
X72630372Y-52757993D01*
X72445349Y-52886177D01*
X72445347Y-52886179D01*
X72424091Y-52907434D01*
X72357294Y-52945995D01*
X72331724Y-52950504D01*
X72173306Y-52964365D01*
X71953507Y-53023260D01*
X71953506Y-53023260D01*
X71953504Y-53023261D01*
X71747266Y-53119432D01*
X71747263Y-53119434D01*
X71747261Y-53119435D01*
X71747258Y-53119437D01*
X71560862Y-53249951D01*
X71399951Y-53410862D01*
X71269437Y-53597258D01*
X71269435Y-53597261D01*
X71269434Y-53597263D01*
X71269432Y-53597266D01*
X71178564Y-53792132D01*
X71173260Y-53803507D01*
X71143423Y-53914861D01*
X71104859Y-53981656D01*
X71038064Y-54020220D01*
X70960936Y-54020220D01*
X70894141Y-53981656D01*
X70855577Y-53914861D01*
X70850500Y-53876297D01*
X70850500Y-53085264D01*
X70850499Y-53085262D01*
X70849745Y-53079538D01*
X70820548Y-52857762D01*
X70778410Y-52700500D01*
X70761159Y-52636116D01*
X70761159Y-52636115D01*
X70733850Y-52570186D01*
X70673344Y-52424112D01*
X70558611Y-52225388D01*
X70521319Y-52176788D01*
X70418919Y-52043338D01*
X70251221Y-51875640D01*
X70227541Y-51844779D01*
X70191817Y-51782901D01*
X70177262Y-51764650D01*
X70023561Y-51571915D01*
X69825741Y-51388365D01*
X69602775Y-51236349D01*
X69602772Y-51236348D01*
X69602770Y-51236346D01*
X69359650Y-51119266D01*
X69359646Y-51119264D01*
X69359641Y-51119262D01*
X69359633Y-51119259D01*
X69359629Y-51119258D01*
X69101777Y-51039721D01*
X69101773Y-51039720D01*
X68834932Y-50999500D01*
X68834929Y-50999500D01*
X68565071Y-50999500D01*
X68565067Y-50999500D01*
X68298226Y-51039720D01*
X68298222Y-51039721D01*
X68287986Y-51042879D01*
X68244064Y-51049500D01*
X67099299Y-51049500D01*
X67024799Y-51029538D01*
X66993940Y-51005859D01*
X66489033Y-50500952D01*
X66458731Y-50457213D01*
X66447036Y-50431465D01*
X66429507Y-50392874D01*
X66301319Y-50207846D01*
X66142154Y-50048681D01*
X65957126Y-49920493D01*
X65957125Y-49920492D01*
X65957123Y-49920491D01*
X65797927Y-49848182D01*
X65752183Y-49827404D01*
X65726349Y-49820894D01*
X65688261Y-49805449D01*
X65638396Y-49776660D01*
X65638392Y-49776658D01*
X65638388Y-49776656D01*
X65426387Y-49688842D01*
X65417403Y-49686434D01*
X65417400Y-49686433D01*
X65417400Y-49686434D01*
X65204739Y-49629451D01*
X65204737Y-49629450D01*
X65204731Y-49629449D01*
X64977241Y-49599501D01*
X64977234Y-49599501D01*
X64747766Y-49599501D01*
X64747758Y-49599501D01*
X64520278Y-49629447D01*
X64520263Y-49629450D01*
X64345452Y-49676291D01*
X64345451Y-49676290D01*
X64298612Y-49688842D01*
X64298610Y-49688842D01*
X64177305Y-49739089D01*
X64136869Y-49755839D01*
X64107428Y-49768033D01*
X64086611Y-49776656D01*
X64036738Y-49805450D01*
X63998651Y-49820894D01*
X63972817Y-49827404D01*
X63972812Y-49827406D01*
X63767876Y-49920491D01*
X63582844Y-50048682D01*
X63423682Y-50207844D01*
X63295490Y-50392877D01*
X63266266Y-50457215D01*
X63235976Y-50500941D01*
X63231070Y-50505848D01*
X63164279Y-50544419D01*
X63125700Y-50549500D01*
X60453691Y-50549500D01*
X60379191Y-50529538D01*
X60324653Y-50475000D01*
X60304691Y-50400500D01*
X60324653Y-50326000D01*
X60348332Y-50295141D01*
X60392974Y-50250499D01*
X60463819Y-50179654D01*
X60592007Y-49994626D01*
X60625681Y-49920491D01*
X60685095Y-49789687D01*
X60685381Y-49788549D01*
X60740096Y-49571412D01*
X60750500Y-49439217D01*
X60750499Y-48360784D01*
X60740096Y-48228588D01*
X60685096Y-48010317D01*
X60685095Y-48010312D01*
X60592008Y-47805375D01*
X60592006Y-47805372D01*
X60520021Y-47701468D01*
X60494003Y-47628861D01*
X60499247Y-47575628D01*
X60552386Y-47389918D01*
X60563000Y-47270537D01*
X60562999Y-45554464D01*
X60552386Y-45435082D01*
X60496409Y-45239451D01*
X60402198Y-45059093D01*
X60402194Y-45059089D01*
X60402193Y-45059086D01*
X60273613Y-44901395D01*
X60273604Y-44901386D01*
X60115913Y-44772806D01*
X60115908Y-44772803D01*
X60115907Y-44772802D01*
X59977465Y-44700486D01*
X59935550Y-44678591D01*
X59739922Y-44622615D01*
X59739921Y-44622614D01*
X59739918Y-44622614D01*
X59620537Y-44612000D01*
X59620530Y-44612000D01*
X56504469Y-44612000D01*
X56444773Y-44617307D01*
X56385082Y-44622614D01*
X56385079Y-44622614D01*
X56385077Y-44622615D01*
X56189449Y-44678591D01*
X56009091Y-44772803D01*
X56009086Y-44772806D01*
X55956159Y-44815963D01*
X55885806Y-44847572D01*
X55809073Y-44839769D01*
X55746523Y-44794645D01*
X55714914Y-44724292D01*
X55713000Y-44700486D01*
X55713000Y-44299298D01*
X55732962Y-44224798D01*
X55756637Y-44193943D01*
X56301988Y-43648591D01*
X56368781Y-43610029D01*
X56420538Y-43605538D01*
X56504463Y-43613000D01*
X59620536Y-43612999D01*
X59739918Y-43602386D01*
X59935549Y-43546409D01*
X60115907Y-43452198D01*
X60273609Y-43323609D01*
X60402198Y-43165907D01*
X60496409Y-42985549D01*
X60552386Y-42789918D01*
X60563000Y-42670537D01*
X60562999Y-40954464D01*
X60552386Y-40835082D01*
X60518749Y-40717524D01*
X60513000Y-40676535D01*
X60513000Y-38511078D01*
X60529931Y-38442093D01*
X60546409Y-38410549D01*
X60602386Y-38214918D01*
X60613000Y-38095537D01*
X60612999Y-36887076D01*
X60619078Y-36848694D01*
X60618343Y-36848518D01*
X60619707Y-36842834D01*
X60619707Y-36842830D01*
X60619709Y-36842826D01*
X60650500Y-36648417D01*
X60650500Y-36451584D01*
X60619709Y-36257174D01*
X60612956Y-36236393D01*
X60606249Y-36203541D01*
X60602386Y-36160083D01*
X60602386Y-36160082D01*
X60551676Y-35982861D01*
X60550374Y-35905748D01*
X60587804Y-35838311D01*
X60633305Y-35806215D01*
X60719626Y-35767007D01*
X60904654Y-35638819D01*
X61063819Y-35479654D01*
X61192007Y-35294626D01*
X61285051Y-35089783D01*
X61285095Y-35089687D01*
X61285381Y-35088549D01*
X61340096Y-34871412D01*
X61350500Y-34739217D01*
X61350499Y-33660784D01*
X61340096Y-33528588D01*
X61285096Y-33310317D01*
X61285095Y-33310312D01*
X61192008Y-33105376D01*
X61192007Y-33105374D01*
X61063819Y-32920346D01*
X60904654Y-32761181D01*
X60719626Y-32632993D01*
X60719625Y-32632992D01*
X60719623Y-32632991D01*
X60514687Y-32539904D01*
X60369924Y-32503427D01*
X60296412Y-32484904D01*
X60296409Y-32484903D01*
X60296406Y-32484903D01*
X60236122Y-32480159D01*
X60164217Y-32474500D01*
X60164209Y-32474500D01*
X59360791Y-32474500D01*
X59360788Y-32474500D01*
X59360784Y-32474501D01*
X59315622Y-32478054D01*
X59228593Y-32484903D01*
X59228589Y-32484903D01*
X59228588Y-32484904D01*
X59191264Y-32494308D01*
X59010312Y-32539904D01*
X58805376Y-32632991D01*
X58620344Y-32761182D01*
X58461182Y-32920344D01*
X58332991Y-33105376D01*
X58239904Y-33310312D01*
X58184903Y-33528593D01*
X58174500Y-33660789D01*
X58174500Y-33745675D01*
X58154538Y-33820175D01*
X58130859Y-33851034D01*
X57694259Y-34287633D01*
X57694258Y-34287635D01*
X57580747Y-34443870D01*
X57580746Y-34443870D01*
X57564686Y-34465976D01*
X57464605Y-34662391D01*
X57396486Y-34872042D01*
X57396485Y-34872049D01*
X57361999Y-35089778D01*
X57361999Y-35089783D01*
X57361999Y-35316364D01*
X57362000Y-35316389D01*
X57362000Y-35424671D01*
X57342038Y-35499171D01*
X57307159Y-35540148D01*
X57201395Y-35626386D01*
X57201386Y-35626395D01*
X57072806Y-35784086D01*
X57072803Y-35784091D01*
X56978591Y-35964449D01*
X56922615Y-36160077D01*
X56922614Y-36160082D01*
X56912000Y-36279463D01*
X56912000Y-36279468D01*
X56912000Y-36279469D01*
X56912000Y-38095530D01*
X56913112Y-38108036D01*
X56922614Y-38214918D01*
X56978591Y-38410549D01*
X56995068Y-38442093D01*
X57012000Y-38511078D01*
X57012000Y-39863000D01*
X56992038Y-39937500D01*
X56937500Y-39992038D01*
X56863000Y-40012000D01*
X56504469Y-40012000D01*
X56444773Y-40017307D01*
X56385082Y-40022614D01*
X56385079Y-40022614D01*
X56385077Y-40022615D01*
X56317960Y-40041819D01*
X56267524Y-40056251D01*
X56226537Y-40062000D01*
X55547760Y-40062000D01*
X55346729Y-40088466D01*
X55346728Y-40088467D01*
X55336141Y-40089861D01*
X55320258Y-40091952D01*
X55098616Y-40151340D01*
X55098615Y-40151340D01*
X54886607Y-40239158D01*
X54687885Y-40353890D01*
X54505839Y-40493580D01*
X54505837Y-40493581D01*
X52643578Y-42355840D01*
X52585588Y-42431417D01*
X52585586Y-42431419D01*
X52503891Y-42537883D01*
X52503891Y-42537884D01*
X52418467Y-42685844D01*
X52418466Y-42685845D01*
X52389159Y-42736604D01*
X52301340Y-42948615D01*
X52301340Y-42948616D01*
X52252360Y-43131418D01*
X52241952Y-43170259D01*
X52241949Y-43170274D01*
X52212000Y-43397762D01*
X52212000Y-51027237D01*
X52238255Y-51226656D01*
X52238256Y-51226660D01*
X52241951Y-51254733D01*
X52241951Y-51254736D01*
X52294137Y-51449498D01*
X52294139Y-51449502D01*
X52301342Y-51476388D01*
X52301343Y-51476390D01*
X52389158Y-51688392D01*
X52503890Y-51887114D01*
X52558095Y-51957755D01*
X52558100Y-51957761D01*
X52643580Y-52069161D01*
X54031081Y-53456661D01*
X54193339Y-53618919D01*
X54375388Y-53758611D01*
X54532813Y-53849500D01*
X54532814Y-53849501D01*
X54574104Y-53873340D01*
X54574107Y-53873341D01*
X54574112Y-53873344D01*
X54674343Y-53914861D01*
X54786115Y-53961159D01*
X54862613Y-53981656D01*
X55007761Y-54020548D01*
X55007769Y-54020549D01*
X55007774Y-54020550D01*
X55013990Y-54021368D01*
X55028718Y-54023306D01*
X55028725Y-54023310D01*
X55028726Y-54023308D01*
X55235263Y-54050499D01*
X55235264Y-54050500D01*
X55235266Y-54050500D01*
X59832780Y-54050500D01*
X59907280Y-54070462D01*
X59961818Y-54125000D01*
X59981780Y-54199500D01*
X59961818Y-54274000D01*
X59938139Y-54304859D01*
X59757912Y-54485086D01*
X59599281Y-54696991D01*
X59472427Y-54929309D01*
X59379921Y-55177327D01*
X59323657Y-55435971D01*
X59323655Y-55435987D01*
X59304773Y-55699994D01*
X59304773Y-55700005D01*
X59323655Y-55964012D01*
X59323657Y-55964028D01*
X59379921Y-56222672D01*
X59379922Y-56222676D01*
X59379923Y-56222678D01*
X59472426Y-56470689D01*
X59472427Y-56470690D01*
X59599281Y-56703008D01*
X59660587Y-56784903D01*
X59754752Y-56910693D01*
X59757912Y-56914913D01*
X59757914Y-56914916D01*
X59865859Y-57022861D01*
X59904423Y-57089656D01*
X59909500Y-57128220D01*
X59909500Y-60325183D01*
X59889538Y-60399683D01*
X59835000Y-60454221D01*
X59760500Y-60474183D01*
X59686000Y-60454221D01*
X59634349Y-60402570D01*
X59633853Y-60402898D01*
X59632260Y-60400481D01*
X59631462Y-60399683D01*
X59630095Y-60397196D01*
X59629693Y-60396586D01*
X59501113Y-60238895D01*
X59501104Y-60238886D01*
X59343413Y-60110306D01*
X59343408Y-60110303D01*
X59343407Y-60110302D01*
X59207613Y-60039369D01*
X59163050Y-60016091D01*
X58967422Y-59960115D01*
X58967421Y-59960114D01*
X58967418Y-59960114D01*
X58848037Y-59949500D01*
X58848030Y-59949500D01*
X57131969Y-59949500D01*
X57072273Y-59954807D01*
X57012582Y-59960114D01*
X57012579Y-59960114D01*
X57012577Y-59960115D01*
X56816949Y-60016091D01*
X56636591Y-60110303D01*
X56636586Y-60110306D01*
X56478895Y-60238886D01*
X56478886Y-60238895D01*
X56350306Y-60396586D01*
X56350303Y-60396591D01*
X56256091Y-60576949D01*
X56200115Y-60772577D01*
X56200114Y-60772582D01*
X56189500Y-60891963D01*
X56189500Y-60891964D01*
X56189500Y-60891969D01*
X56189500Y-62608030D01*
X56189501Y-62608036D01*
X56200114Y-62727418D01*
X56200114Y-62727421D01*
X56200115Y-62727422D01*
X56256091Y-62923050D01*
X56350302Y-63103408D01*
X56429223Y-63200197D01*
X56460831Y-63270551D01*
X56453028Y-63347283D01*
X56442783Y-63368855D01*
X56363262Y-63506592D01*
X56363255Y-63506605D01*
X56264665Y-63757805D01*
X56264663Y-63757812D01*
X56204618Y-64020886D01*
X56204615Y-64020909D01*
X56184451Y-64289994D01*
X56184451Y-64290005D01*
X56204615Y-64559090D01*
X56204618Y-64559113D01*
X56264663Y-64822187D01*
X56264665Y-64822194D01*
X56321739Y-64967613D01*
X56363257Y-65073398D01*
X56498185Y-65307102D01*
X56498189Y-65307107D01*
X56625779Y-65467100D01*
X56656622Y-65537793D01*
X56647986Y-65614436D01*
X56625779Y-65652900D01*
X56498189Y-65812892D01*
X56498184Y-65812900D01*
X56363257Y-66046601D01*
X56363255Y-66046606D01*
X56264665Y-66297805D01*
X56264663Y-66297812D01*
X56204618Y-66560886D01*
X56204615Y-66560909D01*
X56184451Y-66829994D01*
X56184451Y-66830005D01*
X56204615Y-67099090D01*
X56204618Y-67099113D01*
X56264663Y-67362187D01*
X56264665Y-67362194D01*
X56321739Y-67507613D01*
X56363257Y-67613398D01*
X56498185Y-67847102D01*
X56498189Y-67847107D01*
X56656454Y-68045565D01*
X56666439Y-68058085D01*
X56864259Y-68241635D01*
X57087226Y-68393651D01*
X57330359Y-68510738D01*
X57588228Y-68590280D01*
X57855071Y-68630500D01*
X57855074Y-68630500D01*
X58124926Y-68630500D01*
X58124929Y-68630500D01*
X58391772Y-68590280D01*
X58649641Y-68510738D01*
X58892775Y-68393651D01*
X59115741Y-68241635D01*
X59313561Y-68058085D01*
X59481815Y-67847102D01*
X59616743Y-67613398D01*
X59621800Y-67600512D01*
X59667600Y-67538456D01*
X59738293Y-67507613D01*
X59814936Y-67516249D01*
X59876993Y-67562049D01*
X59907836Y-67632742D01*
X59909500Y-67654949D01*
X59909500Y-68160308D01*
X59889538Y-68234808D01*
X59865859Y-68265667D01*
X58065667Y-70065859D01*
X57998872Y-70104423D01*
X57960308Y-70109500D01*
X57855067Y-70109500D01*
X57588226Y-70149720D01*
X57588222Y-70149721D01*
X57330370Y-70229258D01*
X57330349Y-70229266D01*
X57087227Y-70346348D01*
X56864259Y-70498364D01*
X56666438Y-70681915D01*
X56498189Y-70892892D01*
X56498184Y-70892900D01*
X56363257Y-71126601D01*
X56363255Y-71126606D01*
X56264665Y-71377805D01*
X56264663Y-71377812D01*
X56204618Y-71640886D01*
X56204615Y-71640909D01*
X56184451Y-71909994D01*
X56184451Y-71910005D01*
X56204615Y-72179090D01*
X56204618Y-72179113D01*
X56264663Y-72442187D01*
X56264665Y-72442194D01*
X56363255Y-72693393D01*
X56363257Y-72693398D01*
X56498185Y-72927102D01*
X56498189Y-72927107D01*
X56625779Y-73087100D01*
X56656622Y-73157793D01*
X56647986Y-73234436D01*
X56625779Y-73272900D01*
X56498189Y-73432892D01*
X56498184Y-73432900D01*
X56363257Y-73666601D01*
X56363255Y-73666606D01*
X56264665Y-73917805D01*
X56264663Y-73917812D01*
X56204618Y-74180886D01*
X56204615Y-74180909D01*
X56184451Y-74449994D01*
X56184451Y-74450005D01*
X56204615Y-74719090D01*
X56204618Y-74719113D01*
X56264663Y-74982187D01*
X56264665Y-74982194D01*
X56363255Y-75233393D01*
X56363257Y-75233398D01*
X56498185Y-75467102D01*
X56498189Y-75467107D01*
X56625779Y-75627100D01*
X56656622Y-75697793D01*
X56647986Y-75774436D01*
X56625779Y-75812900D01*
X56498189Y-75972892D01*
X56498184Y-75972900D01*
X56363257Y-76206601D01*
X56363255Y-76206606D01*
X56264665Y-76457805D01*
X56264663Y-76457812D01*
X56204618Y-76720886D01*
X56204615Y-76720909D01*
X56184451Y-76989994D01*
X56184451Y-76990005D01*
X56204615Y-77259090D01*
X56204618Y-77259113D01*
X56264663Y-77522187D01*
X56264665Y-77522194D01*
X56346123Y-77729741D01*
X56363257Y-77773398D01*
X56498185Y-78007102D01*
X56498189Y-78007107D01*
X56625779Y-78167100D01*
X56656622Y-78237793D01*
X56647986Y-78314436D01*
X56625779Y-78352900D01*
X56498189Y-78512892D01*
X56498184Y-78512900D01*
X56363257Y-78746601D01*
X56363255Y-78746606D01*
X56264665Y-78997805D01*
X56264663Y-78997812D01*
X56204618Y-79260886D01*
X56204615Y-79260909D01*
X56184451Y-79529994D01*
X56184451Y-79530005D01*
X56204615Y-79799090D01*
X56204618Y-79799113D01*
X56264663Y-80062187D01*
X56264665Y-80062194D01*
X56357802Y-80299500D01*
X56363257Y-80313398D01*
X56498185Y-80547102D01*
X56498189Y-80547107D01*
X56625779Y-80707100D01*
X56656622Y-80777793D01*
X56647986Y-80854436D01*
X56625779Y-80892900D01*
X56498189Y-81052892D01*
X56498184Y-81052900D01*
X56363257Y-81286601D01*
X56363255Y-81286606D01*
X56264665Y-81537805D01*
X56264663Y-81537812D01*
X56204618Y-81800886D01*
X56204615Y-81800909D01*
X56184451Y-82069994D01*
X56184451Y-82070005D01*
X56204615Y-82339090D01*
X56204618Y-82339113D01*
X56264663Y-82602187D01*
X56264665Y-82602194D01*
X56328440Y-82764687D01*
X56363257Y-82853398D01*
X56498185Y-83087102D01*
X56498189Y-83087107D01*
X56625779Y-83247100D01*
X56656622Y-83317793D01*
X56647986Y-83394436D01*
X56625779Y-83432900D01*
X56498189Y-83592892D01*
X56498184Y-83592900D01*
X56363257Y-83826601D01*
X56363255Y-83826606D01*
X56264665Y-84077805D01*
X56264663Y-84077812D01*
X56204618Y-84340886D01*
X56204615Y-84340909D01*
X56184451Y-84609994D01*
X56184451Y-84610005D01*
X56204615Y-84879090D01*
X56204618Y-84879113D01*
X56264663Y-85142187D01*
X56264665Y-85142194D01*
X56318741Y-85279974D01*
X56363257Y-85393398D01*
X56498185Y-85627102D01*
X56498189Y-85627107D01*
X56625779Y-85787100D01*
X56656622Y-85857793D01*
X56647986Y-85934436D01*
X56625779Y-85972900D01*
X56498189Y-86132892D01*
X56498186Y-86132896D01*
X56498185Y-86132898D01*
X56483856Y-86157717D01*
X56363257Y-86366601D01*
X56363255Y-86366606D01*
X56264665Y-86617805D01*
X56264663Y-86617812D01*
X56204618Y-86880886D01*
X56204615Y-86880909D01*
X56184451Y-87149994D01*
X56184451Y-87150005D01*
X56204615Y-87419090D01*
X56204618Y-87419113D01*
X56264663Y-87682187D01*
X56264665Y-87682194D01*
X56295837Y-87761617D01*
X56363257Y-87933398D01*
X56498185Y-88167102D01*
X56498189Y-88167107D01*
X56625779Y-88327100D01*
X56656622Y-88397793D01*
X56647986Y-88474436D01*
X56625779Y-88512900D01*
X56498189Y-88672892D01*
X56498184Y-88672900D01*
X56363257Y-88906601D01*
X56363255Y-88906606D01*
X56264665Y-89157805D01*
X56264663Y-89157812D01*
X56204618Y-89420886D01*
X56204615Y-89420909D01*
X56184451Y-89689994D01*
X56184451Y-89690005D01*
X56204615Y-89959090D01*
X56204618Y-89959113D01*
X56264663Y-90222187D01*
X56264665Y-90222194D01*
X56363255Y-90473393D01*
X56363257Y-90473398D01*
X56498185Y-90707102D01*
X56498189Y-90707107D01*
X56625779Y-90867100D01*
X56656622Y-90937793D01*
X56647986Y-91014436D01*
X56625779Y-91052900D01*
X56498189Y-91212892D01*
X56498184Y-91212900D01*
X56363257Y-91446601D01*
X56363255Y-91446606D01*
X56264665Y-91697805D01*
X56264663Y-91697812D01*
X56204618Y-91960886D01*
X56204615Y-91960909D01*
X56184451Y-92229994D01*
X56184451Y-92230005D01*
X56204615Y-92499090D01*
X56204618Y-92499113D01*
X56264663Y-92762187D01*
X56264665Y-92762194D01*
X56363255Y-93013393D01*
X56363257Y-93013398D01*
X56498185Y-93247102D01*
X56498189Y-93247107D01*
X56625779Y-93407100D01*
X56656622Y-93477793D01*
X56647986Y-93554436D01*
X56625779Y-93592900D01*
X56498189Y-93752892D01*
X56498184Y-93752900D01*
X56363257Y-93986601D01*
X56363255Y-93986606D01*
X56264665Y-94237805D01*
X56264663Y-94237812D01*
X56204618Y-94500886D01*
X56204615Y-94500909D01*
X56184451Y-94769994D01*
X56184451Y-94770005D01*
X56204615Y-95039090D01*
X56204618Y-95039113D01*
X56264663Y-95302187D01*
X56264665Y-95302194D01*
X56332541Y-95475136D01*
X56363257Y-95553398D01*
X56498185Y-95787102D01*
X56498189Y-95787107D01*
X56625779Y-95947100D01*
X56656622Y-96017793D01*
X56647986Y-96094436D01*
X56625779Y-96132900D01*
X56498189Y-96292892D01*
X56498184Y-96292900D01*
X56363257Y-96526601D01*
X56363255Y-96526606D01*
X56264665Y-96777805D01*
X56264663Y-96777812D01*
X56204618Y-97040886D01*
X56204615Y-97040909D01*
X56184451Y-97309994D01*
X56184451Y-97310005D01*
X56204615Y-97579090D01*
X56204618Y-97579113D01*
X56264663Y-97842187D01*
X56264664Y-97842189D01*
X56264665Y-97842192D01*
X56264666Y-97842195D01*
X56344680Y-98046065D01*
X56353316Y-98122706D01*
X56322473Y-98193399D01*
X56260417Y-98239200D01*
X56205980Y-98249500D01*
X47079692Y-98249500D01*
X47005192Y-98229538D01*
X46974333Y-98205859D01*
X46162100Y-97393626D01*
X46132416Y-97351230D01*
X46130568Y-97347266D01*
X46000047Y-97160861D01*
X45839139Y-96999953D01*
X45839137Y-96999951D01*
X45669493Y-96881167D01*
X45652734Y-96869432D01*
X45446496Y-96773261D01*
X45226692Y-96714365D01*
X45226693Y-96714365D01*
X45000000Y-96694532D01*
X44773306Y-96714365D01*
X44553507Y-96773260D01*
X44553506Y-96773260D01*
X44553504Y-96773261D01*
X44347266Y-96869432D01*
X44347263Y-96869434D01*
X44347261Y-96869435D01*
X44347258Y-96869437D01*
X44160862Y-96999951D01*
X43999951Y-97160862D01*
X43869437Y-97347258D01*
X43869435Y-97347261D01*
X43869434Y-97347263D01*
X43869432Y-97347266D01*
X43795997Y-97504747D01*
X43773260Y-97553507D01*
X43714365Y-97773306D01*
X43694532Y-98000000D01*
X43714365Y-98226693D01*
X43773260Y-98446494D01*
X43773261Y-98446496D01*
X43869431Y-98652732D01*
X43869431Y-98652733D01*
X43877698Y-98664540D01*
X43904075Y-98737018D01*
X43890680Y-98812974D01*
X43877698Y-98835460D01*
X43869431Y-98847266D01*
X43869431Y-98847267D01*
X43773261Y-99053503D01*
X43744688Y-99160138D01*
X43706123Y-99226933D01*
X43639328Y-99265496D01*
X43562200Y-99265496D01*
X43495406Y-99226932D01*
X41144141Y-96875667D01*
X41105577Y-96808872D01*
X41100500Y-96770308D01*
X41100500Y-84000000D01*
X45444457Y-84000000D01*
X45464607Y-84320285D01*
X45464608Y-84320295D01*
X45477699Y-84388921D01*
X45524744Y-84635538D01*
X45623916Y-84940758D01*
X45623919Y-84940764D01*
X45760564Y-85231148D01*
X45914468Y-85473662D01*
X45932522Y-85502110D01*
X46137089Y-85749390D01*
X46371036Y-85969080D01*
X46578744Y-86119988D01*
X46630673Y-86157717D01*
X46788755Y-86244623D01*
X46911903Y-86312324D01*
X47210294Y-86430466D01*
X47521139Y-86510277D01*
X47839536Y-86550500D01*
X48160464Y-86550500D01*
X48478861Y-86510277D01*
X48789706Y-86430466D01*
X49088097Y-86312324D01*
X49369328Y-86157716D01*
X49628964Y-85969080D01*
X49862911Y-85749390D01*
X50067478Y-85502110D01*
X50239439Y-85231142D01*
X50376084Y-84940758D01*
X50475256Y-84635538D01*
X50535392Y-84320294D01*
X50555543Y-84000000D01*
X50535392Y-83679706D01*
X50475256Y-83364462D01*
X50376084Y-83059242D01*
X50239439Y-82768858D01*
X50236789Y-82764683D01*
X50098267Y-82546406D01*
X50067478Y-82497890D01*
X49862911Y-82250610D01*
X49628964Y-82030920D01*
X49401789Y-81865868D01*
X49369326Y-81842282D01*
X49088099Y-81687677D01*
X49088092Y-81687674D01*
X48957051Y-81635791D01*
X48789706Y-81569534D01*
X48478861Y-81489723D01*
X48478860Y-81489722D01*
X48478857Y-81489722D01*
X48160465Y-81449500D01*
X48160464Y-81449500D01*
X47839536Y-81449500D01*
X47839534Y-81449500D01*
X47521142Y-81489722D01*
X47210297Y-81569533D01*
X47210294Y-81569534D01*
X46911907Y-81687674D01*
X46911900Y-81687677D01*
X46630673Y-81842282D01*
X46371032Y-82030923D01*
X46137089Y-82250609D01*
X45932518Y-82497895D01*
X45760564Y-82768851D01*
X45623919Y-83059235D01*
X45623913Y-83059250D01*
X45524745Y-83364458D01*
X45464608Y-83679704D01*
X45464607Y-83679714D01*
X45444457Y-84000000D01*
X41100500Y-84000000D01*
X41100500Y-52000000D01*
X45444457Y-52000000D01*
X45464607Y-52320285D01*
X45464608Y-52320295D01*
X45483156Y-52417527D01*
X45524744Y-52635538D01*
X45524932Y-52636116D01*
X45606181Y-52886177D01*
X45623916Y-52940758D01*
X45707997Y-53119437D01*
X45760564Y-53231148D01*
X45874614Y-53410862D01*
X45932522Y-53502110D01*
X46137089Y-53749390D01*
X46371036Y-53969080D01*
X46578744Y-54119988D01*
X46630673Y-54157717D01*
X46788755Y-54244623D01*
X46911903Y-54312324D01*
X47210294Y-54430466D01*
X47521139Y-54510277D01*
X47839536Y-54550500D01*
X48160464Y-54550500D01*
X48478861Y-54510277D01*
X48789706Y-54430466D01*
X49088097Y-54312324D01*
X49369328Y-54157716D01*
X49628964Y-53969080D01*
X49862911Y-53749390D01*
X50067478Y-53502110D01*
X50239439Y-53231142D01*
X50376084Y-52940758D01*
X50475256Y-52635538D01*
X50535392Y-52320294D01*
X50555543Y-52000000D01*
X50535392Y-51679706D01*
X50475256Y-51364462D01*
X50376084Y-51059242D01*
X50239439Y-50768858D01*
X50067478Y-50497890D01*
X49862911Y-50250610D01*
X49628964Y-50030920D01*
X49410818Y-49872428D01*
X49369326Y-49842282D01*
X49088099Y-49687677D01*
X49088092Y-49687674D01*
X48941038Y-49629451D01*
X48789706Y-49569534D01*
X48478861Y-49489723D01*
X48478860Y-49489722D01*
X48478857Y-49489722D01*
X48160465Y-49449500D01*
X48160464Y-49449500D01*
X47839536Y-49449500D01*
X47839534Y-49449500D01*
X47521142Y-49489722D01*
X47210297Y-49569533D01*
X47210294Y-49569534D01*
X46911907Y-49687674D01*
X46911900Y-49687677D01*
X46630673Y-49842282D01*
X46371032Y-50030923D01*
X46137089Y-50250609D01*
X45932518Y-50497895D01*
X45760564Y-50768851D01*
X45623919Y-51059235D01*
X45623913Y-51059250D01*
X45524745Y-51364458D01*
X45464608Y-51679704D01*
X45464607Y-51679714D01*
X45444457Y-52000000D01*
X41100500Y-52000000D01*
X41100500Y-32399038D01*
X63799500Y-32399038D01*
X63799500Y-33200962D01*
X63838910Y-33449785D01*
X63916759Y-33689379D01*
X64031130Y-33913845D01*
X64179207Y-34117656D01*
X64357344Y-34295793D01*
X64561155Y-34443870D01*
X64785621Y-34558241D01*
X65025215Y-34636090D01*
X65274038Y-34675500D01*
X65274043Y-34675500D01*
X65525957Y-34675500D01*
X65525962Y-34675500D01*
X65774785Y-34636090D01*
X66014379Y-34558241D01*
X66238845Y-34443870D01*
X66442656Y-34295793D01*
X66620793Y-34117656D01*
X66768870Y-33913845D01*
X66883241Y-33689379D01*
X66961090Y-33449785D01*
X67000500Y-33200962D01*
X67000500Y-32399038D01*
X66961090Y-32150215D01*
X66883241Y-31910621D01*
X66768870Y-31686155D01*
X66620793Y-31482344D01*
X66442656Y-31304207D01*
X66238845Y-31156130D01*
X66014379Y-31041759D01*
X65774785Y-30963910D01*
X65525962Y-30924500D01*
X65274038Y-30924500D01*
X65066685Y-30957341D01*
X65025214Y-30963910D01*
X64785627Y-31041757D01*
X64785621Y-31041759D01*
X64785615Y-31041761D01*
X64785615Y-31041762D01*
X64561153Y-31156131D01*
X64561152Y-31156131D01*
X64357345Y-31304206D01*
X64357342Y-31304208D01*
X64179208Y-31482342D01*
X64179206Y-31482345D01*
X64031131Y-31686152D01*
X64031131Y-31686153D01*
X63916762Y-31910615D01*
X63916757Y-31910627D01*
X63894674Y-31978593D01*
X63838910Y-32150215D01*
X63799500Y-32399038D01*
X41100500Y-32399038D01*
X41100500Y-28301587D01*
X41100500Y-28301583D01*
X41069709Y-28107174D01*
X41010693Y-27925542D01*
X41009418Y-27921023D01*
X40990168Y-27883242D01*
X40919524Y-27744595D01*
X40803829Y-27585354D01*
X39492513Y-26274038D01*
X58974500Y-26274038D01*
X58974500Y-26525962D01*
X59013910Y-26774785D01*
X59091759Y-27014379D01*
X59206130Y-27238845D01*
X59354207Y-27442656D01*
X59532344Y-27620793D01*
X59736155Y-27768870D01*
X59960621Y-27883241D01*
X60200215Y-27961090D01*
X60449038Y-28000500D01*
X60449043Y-28000500D01*
X61250957Y-28000500D01*
X61250962Y-28000500D01*
X61499785Y-27961090D01*
X61739379Y-27883241D01*
X61963845Y-27768870D01*
X62167656Y-27620793D01*
X62345793Y-27442656D01*
X62493870Y-27238845D01*
X62608241Y-27014379D01*
X62686090Y-26774785D01*
X62725500Y-26525962D01*
X62725500Y-26274038D01*
X62686090Y-26025215D01*
X62608241Y-25785621D01*
X62493870Y-25561155D01*
X62345793Y-25357344D01*
X62167656Y-25179207D01*
X61963845Y-25031130D01*
X61739379Y-24916759D01*
X61499785Y-24838910D01*
X61250962Y-24799500D01*
X60449038Y-24799500D01*
X60241685Y-24832341D01*
X60200214Y-24838910D01*
X59960627Y-24916757D01*
X59960621Y-24916759D01*
X59960615Y-24916761D01*
X59960615Y-24916762D01*
X59736153Y-25031131D01*
X59736152Y-25031131D01*
X59532345Y-25179206D01*
X59532342Y-25179208D01*
X59354208Y-25357342D01*
X59354206Y-25357345D01*
X59206131Y-25561152D01*
X59206131Y-25561153D01*
X59206130Y-25561155D01*
X59091759Y-25785621D01*
X59013910Y-26025215D01*
X58974500Y-26274038D01*
X39492513Y-26274038D01*
X34564646Y-21346172D01*
X34405405Y-21230476D01*
X34230026Y-21141116D01*
X34042826Y-21080291D01*
X33848417Y-21049500D01*
X31898416Y-21049500D01*
X31701583Y-21049500D01*
X31607339Y-21064426D01*
X31507174Y-21080290D01*
X31507168Y-21080292D01*
X31463344Y-21094532D01*
X31319981Y-21141114D01*
X31319967Y-21141119D01*
X31273456Y-21164817D01*
X31256795Y-21172062D01*
X31253519Y-21173254D01*
X31253504Y-21173261D01*
X31047266Y-21269432D01*
X31047263Y-21269434D01*
X31047261Y-21269435D01*
X31047258Y-21269437D01*
X30860862Y-21399951D01*
X30699951Y-21560862D01*
X30569437Y-21747258D01*
X30569435Y-21747261D01*
X30569434Y-21747263D01*
X30569432Y-21747266D01*
X30519853Y-21853588D01*
X30473260Y-21953507D01*
X30414365Y-22173306D01*
X30394532Y-22400000D01*
X30401239Y-22476667D01*
X30414365Y-22626692D01*
X30473261Y-22846496D01*
X30569432Y-23052734D01*
X30569435Y-23052738D01*
X30569437Y-23052741D01*
X30699951Y-23239137D01*
X30699953Y-23239139D01*
X30860861Y-23400047D01*
X31047266Y-23530568D01*
X31253504Y-23626739D01*
X31473308Y-23685635D01*
X31700000Y-23705468D01*
X31926692Y-23685635D01*
X32146496Y-23626739D01*
X32280053Y-23564460D01*
X32343023Y-23550500D01*
X33170308Y-23550500D01*
X33244808Y-23570462D01*
X33275667Y-23594141D01*
X38555859Y-28874333D01*
X38594423Y-28941128D01*
X38599500Y-28979692D01*
X38599500Y-33751583D01*
X38599500Y-97251583D01*
X38599500Y-97448417D01*
X38630291Y-97642826D01*
X38691116Y-97830026D01*
X38780476Y-98005405D01*
X38896172Y-98164646D01*
X44185354Y-103453828D01*
X44344595Y-103569524D01*
X44519974Y-103658884D01*
X44707174Y-103719709D01*
X44901583Y-103750500D01*
X44901584Y-103750500D01*
X45098417Y-103750500D01*
X49621308Y-103750500D01*
X49695808Y-103770462D01*
X49750346Y-103825000D01*
X49770308Y-103899500D01*
X49750346Y-103974000D01*
X49726667Y-104004859D01*
X49096174Y-104635352D01*
X49096165Y-104635363D01*
X48980477Y-104794593D01*
X48891119Y-104969968D01*
X48891114Y-104969980D01*
X48835961Y-105139718D01*
X48835962Y-105139719D01*
X48830291Y-105157171D01*
X48830291Y-105157174D01*
X48799500Y-105351583D01*
X48799500Y-105351587D01*
X48799500Y-109570308D01*
X48779538Y-109644808D01*
X48755859Y-109675667D01*
X47475667Y-110955859D01*
X47408872Y-110994423D01*
X47370308Y-110999500D01*
X30127434Y-110999500D01*
X30088870Y-110994423D01*
X29976692Y-110964365D01*
X29976693Y-110964365D01*
X29750000Y-110944532D01*
X29523306Y-110964365D01*
X29303507Y-111023260D01*
X29303506Y-111023260D01*
X29303504Y-111023261D01*
X29097266Y-111119432D01*
X29097263Y-111119434D01*
X29097261Y-111119435D01*
X29097258Y-111119437D01*
X28910862Y-111249951D01*
X28749951Y-111410862D01*
X28619437Y-111597258D01*
X28619435Y-111597261D01*
X28619434Y-111597263D01*
X28619432Y-111597266D01*
X28523261Y-111803504D01*
X28523260Y-111803507D01*
X28464365Y-112023306D01*
X28464365Y-112023308D01*
X28444532Y-112250000D01*
X20500500Y-112250000D01*
X20500500Y-98000000D01*
X25444457Y-98000000D01*
X25464607Y-98320285D01*
X25464608Y-98320295D01*
X25473689Y-98367899D01*
X25517405Y-98597067D01*
X25524745Y-98635541D01*
X25561772Y-98749500D01*
X25623916Y-98940758D01*
X25758581Y-99226933D01*
X25760564Y-99231148D01*
X25914468Y-99473662D01*
X25932522Y-99502110D01*
X26137089Y-99749390D01*
X26371036Y-99969080D01*
X26578744Y-100119988D01*
X26630673Y-100157717D01*
X26788755Y-100244623D01*
X26911903Y-100312324D01*
X27210294Y-100430466D01*
X27521139Y-100510277D01*
X27839536Y-100550500D01*
X28160464Y-100550500D01*
X28478861Y-100510277D01*
X28789706Y-100430466D01*
X29088097Y-100312324D01*
X29369328Y-100157716D01*
X29628964Y-99969080D01*
X29862911Y-99749390D01*
X30067478Y-99502110D01*
X30239439Y-99231142D01*
X30376084Y-98940758D01*
X30475256Y-98635538D01*
X30535392Y-98320294D01*
X30555543Y-98000000D01*
X30535392Y-97679706D01*
X30475256Y-97364462D01*
X30376084Y-97059242D01*
X30239439Y-96768858D01*
X30224609Y-96745490D01*
X30085698Y-96526601D01*
X30067478Y-96497890D01*
X29862911Y-96250610D01*
X29628964Y-96030920D01*
X29414545Y-95875136D01*
X29369326Y-95842282D01*
X29088099Y-95687677D01*
X29088092Y-95687674D01*
X28919413Y-95620889D01*
X28789706Y-95569534D01*
X28478861Y-95489723D01*
X28478860Y-95489722D01*
X28478857Y-95489722D01*
X28160465Y-95449500D01*
X28160464Y-95449500D01*
X27839536Y-95449500D01*
X27839534Y-95449500D01*
X27521142Y-95489722D01*
X27210297Y-95569533D01*
X27210294Y-95569534D01*
X26911907Y-95687674D01*
X26911900Y-95687677D01*
X26630673Y-95842282D01*
X26371032Y-96030923D01*
X26137089Y-96250609D01*
X25932518Y-96497895D01*
X25760564Y-96768851D01*
X25623919Y-97059235D01*
X25623913Y-97059250D01*
X25530331Y-97347266D01*
X25524744Y-97364462D01*
X25519181Y-97393626D01*
X25464608Y-97679704D01*
X25464607Y-97679714D01*
X25444457Y-98000000D01*
X20500500Y-98000000D01*
X20500500Y-38000000D01*
X25444457Y-38000000D01*
X25458764Y-38227418D01*
X25464608Y-38320294D01*
X25514123Y-38579863D01*
X25524745Y-38635541D01*
X25583630Y-38816772D01*
X25623916Y-38940758D01*
X25675557Y-39050499D01*
X25760564Y-39231148D01*
X25822875Y-39329334D01*
X25932522Y-39502110D01*
X26137089Y-39749390D01*
X26371036Y-39969080D01*
X26560216Y-40106527D01*
X26630673Y-40157717D01*
X26774194Y-40236618D01*
X26911903Y-40312324D01*
X27210294Y-40430466D01*
X27521139Y-40510277D01*
X27839536Y-40550500D01*
X28160464Y-40550500D01*
X28478861Y-40510277D01*
X28789706Y-40430466D01*
X29088097Y-40312324D01*
X29369328Y-40157716D01*
X29628964Y-39969080D01*
X29862911Y-39749390D01*
X30067478Y-39502110D01*
X30239439Y-39231142D01*
X30376084Y-38940758D01*
X30475256Y-38635538D01*
X30535392Y-38320294D01*
X30555543Y-38000000D01*
X30535392Y-37679706D01*
X30475256Y-37364462D01*
X30376084Y-37059242D01*
X30239439Y-36768858D01*
X30067478Y-36497890D01*
X29862911Y-36250610D01*
X29628964Y-36030920D01*
X29400827Y-35865169D01*
X29369326Y-35842282D01*
X29088099Y-35687677D01*
X29088092Y-35687674D01*
X28965873Y-35639284D01*
X28789706Y-35569534D01*
X28478861Y-35489723D01*
X28478860Y-35489722D01*
X28478857Y-35489722D01*
X28160465Y-35449500D01*
X28160464Y-35449500D01*
X27839536Y-35449500D01*
X27839534Y-35449500D01*
X27521142Y-35489722D01*
X27210297Y-35569533D01*
X27210294Y-35569534D01*
X26911907Y-35687674D01*
X26911900Y-35687677D01*
X26630673Y-35842282D01*
X26371032Y-36030923D01*
X26137089Y-36250609D01*
X25932518Y-36497895D01*
X25760564Y-36768851D01*
X25623919Y-37059235D01*
X25623913Y-37059250D01*
X25524745Y-37364458D01*
X25464608Y-37679704D01*
X25464607Y-37679714D01*
X25444457Y-38000000D01*
X20500500Y-38000000D01*
X20500500Y-19649500D01*
X20520462Y-19575000D01*
X20575000Y-19520462D01*
X20649500Y-19500500D01*
X71350500Y-19500500D01*
X71425000Y-19520462D01*
G37*
%TD.AperFunction*%
%TD*%
%TA.AperFunction,NonConductor*%
G36*
X93699675Y-78361403D02*
G01*
X93748323Y-78398875D01*
X93864776Y-78535224D01*
X94056341Y-78698836D01*
X94186484Y-78778588D01*
X94271141Y-78830466D01*
X94503882Y-78926871D01*
X94503887Y-78926872D01*
X94503889Y-78926873D01*
X94560283Y-78940411D01*
X94628062Y-78977211D01*
X94668363Y-79042972D01*
X94674500Y-79085294D01*
X94674500Y-79714208D01*
X94674501Y-79714211D01*
X94684903Y-79846406D01*
X94684903Y-79846409D01*
X94684904Y-79846412D01*
X94707109Y-79934536D01*
X94739904Y-80064686D01*
X94832991Y-80269623D01*
X94836294Y-80275443D01*
X94834039Y-80276722D01*
X94855908Y-80337758D01*
X94842134Y-80413647D01*
X94835948Y-80424360D01*
X94836294Y-80424557D01*
X94832991Y-80430376D01*
X94739904Y-80635313D01*
X94710607Y-80751583D01*
X94687846Y-80841915D01*
X94684903Y-80853593D01*
X94674500Y-80985789D01*
X94674500Y-81789214D01*
X94674557Y-81790643D01*
X94674500Y-81790890D01*
X94674501Y-81792142D01*
X94674218Y-81792142D01*
X94657528Y-81865868D01*
X94605168Y-81922500D01*
X94531507Y-81945365D01*
X94456282Y-81928336D01*
X94420312Y-81901838D01*
X92894141Y-80375667D01*
X92855577Y-80308872D01*
X92850500Y-80270308D01*
X92850500Y-78901582D01*
X92839112Y-78829683D01*
X92847173Y-78752978D01*
X92892508Y-78690580D01*
X92942356Y-78663994D01*
X93145719Y-78601265D01*
X93383721Y-78486650D01*
X93551092Y-78372537D01*
X93623892Y-78347064D01*
X93699675Y-78361403D01*
G37*
%TD.AperFunction*%
%TA.AperFunction,NonConductor*%
G36*
X55936500Y-47995475D02*
G01*
X55956155Y-48009033D01*
X56009093Y-48052198D01*
X56189451Y-48146409D01*
X56385082Y-48202386D01*
X56504463Y-48213000D01*
X56510705Y-48212999D01*
X56585204Y-48232953D01*
X56639748Y-48287485D01*
X56652425Y-48315956D01*
X56671928Y-48375982D01*
X56671930Y-48375988D01*
X56671932Y-48375992D01*
X56671936Y-48376000D01*
X56671937Y-48376002D01*
X56779155Y-48586430D01*
X56779158Y-48586435D01*
X56917977Y-48777504D01*
X57535188Y-49394715D01*
X57573752Y-49461510D01*
X57578370Y-49488385D01*
X57584903Y-49571406D01*
X57584903Y-49571409D01*
X57584904Y-49571412D01*
X57599529Y-49629451D01*
X57639904Y-49789687D01*
X57732991Y-49994623D01*
X57732992Y-49994625D01*
X57732993Y-49994626D01*
X57850519Y-50164265D01*
X57861182Y-50179655D01*
X57976668Y-50295141D01*
X58015232Y-50361936D01*
X58015232Y-50439064D01*
X57976668Y-50505859D01*
X57909873Y-50544423D01*
X57871309Y-50549500D01*
X56136798Y-50549500D01*
X56062298Y-50529538D01*
X56031439Y-50505859D01*
X55756641Y-50231060D01*
X55718077Y-50164265D01*
X55713000Y-50125701D01*
X55713000Y-48124513D01*
X55732962Y-48050013D01*
X55787500Y-47995475D01*
X55862000Y-47975513D01*
X55936500Y-47995475D01*
G37*
%TD.AperFunction*%
%TA.AperFunction,NonConductor*%
G36*
X67714000Y-58487871D02*
G01*
X67757711Y-58526206D01*
X67781075Y-58556656D01*
X68719881Y-59495462D01*
X68758445Y-59562257D01*
X68758445Y-59639385D01*
X68719881Y-59706180D01*
X68653086Y-59744744D01*
X68575958Y-59744744D01*
X68529060Y-59722875D01*
X68452741Y-59669437D01*
X68452742Y-59669437D01*
X68452734Y-59669432D01*
X68452728Y-59669429D01*
X68261384Y-59580202D01*
X68218996Y-59550522D01*
X67534141Y-58865667D01*
X67495577Y-58798872D01*
X67490500Y-58760308D01*
X67490500Y-58616909D01*
X67510462Y-58542409D01*
X67565000Y-58487871D01*
X67639500Y-58467909D01*
X67714000Y-58487871D01*
G37*
%TD.AperFunction*%
%TA.AperFunction,NonConductor*%
G36*
X59814936Y-64976249D02*
G01*
X59876993Y-65022049D01*
X59907836Y-65092742D01*
X59909500Y-65114949D01*
X59909500Y-66005050D01*
X59889538Y-66079550D01*
X59835000Y-66134088D01*
X59760500Y-66154050D01*
X59686000Y-66134088D01*
X59631462Y-66079550D01*
X59621801Y-66059489D01*
X59620642Y-66056536D01*
X59616743Y-66046602D01*
X59481815Y-65812898D01*
X59354219Y-65652899D01*
X59323377Y-65582208D01*
X59332013Y-65505565D01*
X59354220Y-65467100D01*
X59481815Y-65307102D01*
X59616743Y-65073398D01*
X59621800Y-65060512D01*
X59667600Y-64998456D01*
X59738293Y-64967613D01*
X59814936Y-64976249D01*
G37*
%TD.AperFunction*%
%TA.AperFunction,NonConductor*%
G36*
X75054936Y-80216249D02*
G01*
X75116993Y-80262049D01*
X75147836Y-80332742D01*
X75149500Y-80354949D01*
X75149500Y-80620309D01*
X75129538Y-80694809D01*
X75105859Y-80725668D01*
X75086182Y-80745344D01*
X74957990Y-80930377D01*
X74937383Y-80975745D01*
X74888397Y-81035319D01*
X74816187Y-81062419D01*
X74740101Y-81049783D01*
X74685232Y-81007024D01*
X74594219Y-80892899D01*
X74563377Y-80822207D01*
X74572013Y-80745564D01*
X74594220Y-80707100D01*
X74614215Y-80682027D01*
X74721815Y-80547102D01*
X74856743Y-80313398D01*
X74861800Y-80300512D01*
X74907600Y-80238456D01*
X74978293Y-80207613D01*
X75054936Y-80216249D01*
G37*
%TD.AperFunction*%
M02*
