%TF.GenerationSoftware,KiCad,Pcbnew,8.0.2*%
%TF.CreationDate,2024-10-05T18:09:16+02:00*%
%TF.ProjectId,CalkaBot_PCB,43616c6b-6142-46f7-945f-5043422e6b69,rev?*%
%TF.SameCoordinates,Original*%
%TF.FileFunction,Legend,Top*%
%TF.FilePolarity,Positive*%
%FSLAX46Y46*%
G04 Gerber Fmt 4.6, Leading zero omitted, Abs format (unit mm)*
G04 Created by KiCad (PCBNEW 8.0.2) date 2024-10-05 18:09:16*
%MOMM*%
%LPD*%
G01*
G04 APERTURE LIST*
%ADD10C,0.150000*%
%ADD11C,0.100000*%
%ADD12C,0.120000*%
%ADD13C,0.127000*%
%ADD14C,0.200000*%
G04 APERTURE END LIST*
D10*
X64895714Y-56839104D02*
X65371904Y-56839104D01*
X64800476Y-57124819D02*
X65133809Y-56124819D01*
X65133809Y-56124819D02*
X65467142Y-57124819D01*
X66324285Y-57124819D02*
X65752857Y-57124819D01*
X66038571Y-57124819D02*
X66038571Y-56124819D01*
X66038571Y-56124819D02*
X65943333Y-56267676D01*
X65943333Y-56267676D02*
X65848095Y-56362914D01*
X65848095Y-56362914D02*
X65752857Y-56410533D01*
X64348095Y-96764819D02*
X64348095Y-97574342D01*
X64348095Y-97574342D02*
X64395714Y-97669580D01*
X64395714Y-97669580D02*
X64443333Y-97717200D01*
X64443333Y-97717200D02*
X64538571Y-97764819D01*
X64538571Y-97764819D02*
X64729047Y-97764819D01*
X64729047Y-97764819D02*
X64824285Y-97717200D01*
X64824285Y-97717200D02*
X64871904Y-97669580D01*
X64871904Y-97669580D02*
X64919523Y-97574342D01*
X64919523Y-97574342D02*
X64919523Y-96764819D01*
X65348095Y-97717200D02*
X65490952Y-97764819D01*
X65490952Y-97764819D02*
X65729047Y-97764819D01*
X65729047Y-97764819D02*
X65824285Y-97717200D01*
X65824285Y-97717200D02*
X65871904Y-97669580D01*
X65871904Y-97669580D02*
X65919523Y-97574342D01*
X65919523Y-97574342D02*
X65919523Y-97479104D01*
X65919523Y-97479104D02*
X65871904Y-97383866D01*
X65871904Y-97383866D02*
X65824285Y-97336247D01*
X65824285Y-97336247D02*
X65729047Y-97288628D01*
X65729047Y-97288628D02*
X65538571Y-97241009D01*
X65538571Y-97241009D02*
X65443333Y-97193390D01*
X65443333Y-97193390D02*
X65395714Y-97145771D01*
X65395714Y-97145771D02*
X65348095Y-97050533D01*
X65348095Y-97050533D02*
X65348095Y-96955295D01*
X65348095Y-96955295D02*
X65395714Y-96860057D01*
X65395714Y-96860057D02*
X65443333Y-96812438D01*
X65443333Y-96812438D02*
X65538571Y-96764819D01*
X65538571Y-96764819D02*
X65776666Y-96764819D01*
X65776666Y-96764819D02*
X65919523Y-96812438D01*
X66681428Y-97241009D02*
X66824285Y-97288628D01*
X66824285Y-97288628D02*
X66871904Y-97336247D01*
X66871904Y-97336247D02*
X66919523Y-97431485D01*
X66919523Y-97431485D02*
X66919523Y-97574342D01*
X66919523Y-97574342D02*
X66871904Y-97669580D01*
X66871904Y-97669580D02*
X66824285Y-97717200D01*
X66824285Y-97717200D02*
X66729047Y-97764819D01*
X66729047Y-97764819D02*
X66348095Y-97764819D01*
X66348095Y-97764819D02*
X66348095Y-96764819D01*
X66348095Y-96764819D02*
X66681428Y-96764819D01*
X66681428Y-96764819D02*
X66776666Y-96812438D01*
X66776666Y-96812438D02*
X66824285Y-96860057D01*
X66824285Y-96860057D02*
X66871904Y-96955295D01*
X66871904Y-96955295D02*
X66871904Y-97050533D01*
X66871904Y-97050533D02*
X66824285Y-97145771D01*
X66824285Y-97145771D02*
X66776666Y-97193390D01*
X66776666Y-97193390D02*
X66681428Y-97241009D01*
X66681428Y-97241009D02*
X66348095Y-97241009D01*
X75159580Y-64966666D02*
X75207200Y-65014285D01*
X75207200Y-65014285D02*
X75254819Y-65157142D01*
X75254819Y-65157142D02*
X75254819Y-65252380D01*
X75254819Y-65252380D02*
X75207200Y-65395237D01*
X75207200Y-65395237D02*
X75111961Y-65490475D01*
X75111961Y-65490475D02*
X75016723Y-65538094D01*
X75016723Y-65538094D02*
X74826247Y-65585713D01*
X74826247Y-65585713D02*
X74683390Y-65585713D01*
X74683390Y-65585713D02*
X74492914Y-65538094D01*
X74492914Y-65538094D02*
X74397676Y-65490475D01*
X74397676Y-65490475D02*
X74302438Y-65395237D01*
X74302438Y-65395237D02*
X74254819Y-65252380D01*
X74254819Y-65252380D02*
X74254819Y-65157142D01*
X74254819Y-65157142D02*
X74302438Y-65014285D01*
X74302438Y-65014285D02*
X74350057Y-64966666D01*
X74683390Y-64395237D02*
X74635771Y-64490475D01*
X74635771Y-64490475D02*
X74588152Y-64538094D01*
X74588152Y-64538094D02*
X74492914Y-64585713D01*
X74492914Y-64585713D02*
X74445295Y-64585713D01*
X74445295Y-64585713D02*
X74350057Y-64538094D01*
X74350057Y-64538094D02*
X74302438Y-64490475D01*
X74302438Y-64490475D02*
X74254819Y-64395237D01*
X74254819Y-64395237D02*
X74254819Y-64204761D01*
X74254819Y-64204761D02*
X74302438Y-64109523D01*
X74302438Y-64109523D02*
X74350057Y-64061904D01*
X74350057Y-64061904D02*
X74445295Y-64014285D01*
X74445295Y-64014285D02*
X74492914Y-64014285D01*
X74492914Y-64014285D02*
X74588152Y-64061904D01*
X74588152Y-64061904D02*
X74635771Y-64109523D01*
X74635771Y-64109523D02*
X74683390Y-64204761D01*
X74683390Y-64204761D02*
X74683390Y-64395237D01*
X74683390Y-64395237D02*
X74731009Y-64490475D01*
X74731009Y-64490475D02*
X74778628Y-64538094D01*
X74778628Y-64538094D02*
X74873866Y-64585713D01*
X74873866Y-64585713D02*
X75064342Y-64585713D01*
X75064342Y-64585713D02*
X75159580Y-64538094D01*
X75159580Y-64538094D02*
X75207200Y-64490475D01*
X75207200Y-64490475D02*
X75254819Y-64395237D01*
X75254819Y-64395237D02*
X75254819Y-64204761D01*
X75254819Y-64204761D02*
X75207200Y-64109523D01*
X75207200Y-64109523D02*
X75159580Y-64061904D01*
X75159580Y-64061904D02*
X75064342Y-64014285D01*
X75064342Y-64014285D02*
X74873866Y-64014285D01*
X74873866Y-64014285D02*
X74778628Y-64061904D01*
X74778628Y-64061904D02*
X74731009Y-64109523D01*
X74731009Y-64109523D02*
X74683390Y-64204761D01*
D11*
X89309523Y-45542580D02*
X89309523Y-46542580D01*
X89309523Y-46542580D02*
X88976190Y-45828295D01*
X88976190Y-45828295D02*
X88642857Y-46542580D01*
X88642857Y-46542580D02*
X88642857Y-45542580D01*
X87642857Y-45542580D02*
X88214285Y-45542580D01*
X87928571Y-45542580D02*
X87928571Y-46542580D01*
X87928571Y-46542580D02*
X88023809Y-46399723D01*
X88023809Y-46399723D02*
X88119047Y-46304485D01*
X88119047Y-46304485D02*
X88214285Y-46256866D01*
D10*
X60633333Y-32879580D02*
X60585714Y-32927200D01*
X60585714Y-32927200D02*
X60442857Y-32974819D01*
X60442857Y-32974819D02*
X60347619Y-32974819D01*
X60347619Y-32974819D02*
X60204762Y-32927200D01*
X60204762Y-32927200D02*
X60109524Y-32831961D01*
X60109524Y-32831961D02*
X60061905Y-32736723D01*
X60061905Y-32736723D02*
X60014286Y-32546247D01*
X60014286Y-32546247D02*
X60014286Y-32403390D01*
X60014286Y-32403390D02*
X60061905Y-32212914D01*
X60061905Y-32212914D02*
X60109524Y-32117676D01*
X60109524Y-32117676D02*
X60204762Y-32022438D01*
X60204762Y-32022438D02*
X60347619Y-31974819D01*
X60347619Y-31974819D02*
X60442857Y-31974819D01*
X60442857Y-31974819D02*
X60585714Y-32022438D01*
X60585714Y-32022438D02*
X60633333Y-32070057D01*
X61585714Y-32974819D02*
X61014286Y-32974819D01*
X61300000Y-32974819D02*
X61300000Y-31974819D01*
X61300000Y-31974819D02*
X61204762Y-32117676D01*
X61204762Y-32117676D02*
X61109524Y-32212914D01*
X61109524Y-32212914D02*
X61014286Y-32260533D01*
X56747200Y-112043332D02*
X56794819Y-111900475D01*
X56794819Y-111900475D02*
X56794819Y-111662380D01*
X56794819Y-111662380D02*
X56747200Y-111567142D01*
X56747200Y-111567142D02*
X56699580Y-111519523D01*
X56699580Y-111519523D02*
X56604342Y-111471904D01*
X56604342Y-111471904D02*
X56509104Y-111471904D01*
X56509104Y-111471904D02*
X56413866Y-111519523D01*
X56413866Y-111519523D02*
X56366247Y-111567142D01*
X56366247Y-111567142D02*
X56318628Y-111662380D01*
X56318628Y-111662380D02*
X56271009Y-111852856D01*
X56271009Y-111852856D02*
X56223390Y-111948094D01*
X56223390Y-111948094D02*
X56175771Y-111995713D01*
X56175771Y-111995713D02*
X56080533Y-112043332D01*
X56080533Y-112043332D02*
X55985295Y-112043332D01*
X55985295Y-112043332D02*
X55890057Y-111995713D01*
X55890057Y-111995713D02*
X55842438Y-111948094D01*
X55842438Y-111948094D02*
X55794819Y-111852856D01*
X55794819Y-111852856D02*
X55794819Y-111614761D01*
X55794819Y-111614761D02*
X55842438Y-111471904D01*
X55794819Y-111138570D02*
X56794819Y-110900475D01*
X56794819Y-110900475D02*
X56080533Y-110709999D01*
X56080533Y-110709999D02*
X56794819Y-110519523D01*
X56794819Y-110519523D02*
X55794819Y-110281428D01*
X56794819Y-109376666D02*
X56794819Y-109948094D01*
X56794819Y-109662380D02*
X55794819Y-109662380D01*
X55794819Y-109662380D02*
X55937676Y-109757618D01*
X55937676Y-109757618D02*
X56032914Y-109852856D01*
X56032914Y-109852856D02*
X56080533Y-109948094D01*
X55887319Y-37520833D02*
X56601604Y-37520833D01*
X56601604Y-37520833D02*
X56744461Y-37568452D01*
X56744461Y-37568452D02*
X56839700Y-37663690D01*
X56839700Y-37663690D02*
X56887319Y-37806547D01*
X56887319Y-37806547D02*
X56887319Y-37901785D01*
X56220652Y-36616071D02*
X56887319Y-36616071D01*
X55839700Y-36854166D02*
X56553985Y-37092261D01*
X56553985Y-37092261D02*
X56553985Y-36473214D01*
X68024819Y-56033333D02*
X68739104Y-56033333D01*
X68739104Y-56033333D02*
X68881961Y-56080952D01*
X68881961Y-56080952D02*
X68977200Y-56176190D01*
X68977200Y-56176190D02*
X69024819Y-56319047D01*
X69024819Y-56319047D02*
X69024819Y-56414285D01*
X68024819Y-55128571D02*
X68024819Y-55319047D01*
X68024819Y-55319047D02*
X68072438Y-55414285D01*
X68072438Y-55414285D02*
X68120057Y-55461904D01*
X68120057Y-55461904D02*
X68262914Y-55557142D01*
X68262914Y-55557142D02*
X68453390Y-55604761D01*
X68453390Y-55604761D02*
X68834342Y-55604761D01*
X68834342Y-55604761D02*
X68929580Y-55557142D01*
X68929580Y-55557142D02*
X68977200Y-55509523D01*
X68977200Y-55509523D02*
X69024819Y-55414285D01*
X69024819Y-55414285D02*
X69024819Y-55223809D01*
X69024819Y-55223809D02*
X68977200Y-55128571D01*
X68977200Y-55128571D02*
X68929580Y-55080952D01*
X68929580Y-55080952D02*
X68834342Y-55033333D01*
X68834342Y-55033333D02*
X68596247Y-55033333D01*
X68596247Y-55033333D02*
X68501009Y-55080952D01*
X68501009Y-55080952D02*
X68453390Y-55128571D01*
X68453390Y-55128571D02*
X68405771Y-55223809D01*
X68405771Y-55223809D02*
X68405771Y-55414285D01*
X68405771Y-55414285D02*
X68453390Y-55509523D01*
X68453390Y-55509523D02*
X68501009Y-55557142D01*
X68501009Y-55557142D02*
X68596247Y-55604761D01*
X101389580Y-82466666D02*
X101437200Y-82514285D01*
X101437200Y-82514285D02*
X101484819Y-82657142D01*
X101484819Y-82657142D02*
X101484819Y-82752380D01*
X101484819Y-82752380D02*
X101437200Y-82895237D01*
X101437200Y-82895237D02*
X101341961Y-82990475D01*
X101341961Y-82990475D02*
X101246723Y-83038094D01*
X101246723Y-83038094D02*
X101056247Y-83085713D01*
X101056247Y-83085713D02*
X100913390Y-83085713D01*
X100913390Y-83085713D02*
X100722914Y-83038094D01*
X100722914Y-83038094D02*
X100627676Y-82990475D01*
X100627676Y-82990475D02*
X100532438Y-82895237D01*
X100532438Y-82895237D02*
X100484819Y-82752380D01*
X100484819Y-82752380D02*
X100484819Y-82657142D01*
X100484819Y-82657142D02*
X100532438Y-82514285D01*
X100532438Y-82514285D02*
X100580057Y-82466666D01*
X100484819Y-82133332D02*
X100484819Y-81514285D01*
X100484819Y-81514285D02*
X100865771Y-81847618D01*
X100865771Y-81847618D02*
X100865771Y-81704761D01*
X100865771Y-81704761D02*
X100913390Y-81609523D01*
X100913390Y-81609523D02*
X100961009Y-81561904D01*
X100961009Y-81561904D02*
X101056247Y-81514285D01*
X101056247Y-81514285D02*
X101294342Y-81514285D01*
X101294342Y-81514285D02*
X101389580Y-81561904D01*
X101389580Y-81561904D02*
X101437200Y-81609523D01*
X101437200Y-81609523D02*
X101484819Y-81704761D01*
X101484819Y-81704761D02*
X101484819Y-81990475D01*
X101484819Y-81990475D02*
X101437200Y-82085713D01*
X101437200Y-82085713D02*
X101389580Y-82133332D01*
X101554819Y-75538094D02*
X100554819Y-75538094D01*
X100554819Y-75538094D02*
X100554819Y-75299999D01*
X100554819Y-75299999D02*
X100602438Y-75157142D01*
X100602438Y-75157142D02*
X100697676Y-75061904D01*
X100697676Y-75061904D02*
X100792914Y-75014285D01*
X100792914Y-75014285D02*
X100983390Y-74966666D01*
X100983390Y-74966666D02*
X101126247Y-74966666D01*
X101126247Y-74966666D02*
X101316723Y-75014285D01*
X101316723Y-75014285D02*
X101411961Y-75061904D01*
X101411961Y-75061904D02*
X101507200Y-75157142D01*
X101507200Y-75157142D02*
X101554819Y-75299999D01*
X101554819Y-75299999D02*
X101554819Y-75538094D01*
X101554819Y-74014285D02*
X101554819Y-74585713D01*
X101554819Y-74299999D02*
X100554819Y-74299999D01*
X100554819Y-74299999D02*
X100697676Y-74395237D01*
X100697676Y-74395237D02*
X100792914Y-74490475D01*
X100792914Y-74490475D02*
X100840533Y-74585713D01*
X95159580Y-76766666D02*
X95207200Y-76814285D01*
X95207200Y-76814285D02*
X95254819Y-76957142D01*
X95254819Y-76957142D02*
X95254819Y-77052380D01*
X95254819Y-77052380D02*
X95207200Y-77195237D01*
X95207200Y-77195237D02*
X95111961Y-77290475D01*
X95111961Y-77290475D02*
X95016723Y-77338094D01*
X95016723Y-77338094D02*
X94826247Y-77385713D01*
X94826247Y-77385713D02*
X94683390Y-77385713D01*
X94683390Y-77385713D02*
X94492914Y-77338094D01*
X94492914Y-77338094D02*
X94397676Y-77290475D01*
X94397676Y-77290475D02*
X94302438Y-77195237D01*
X94302438Y-77195237D02*
X94254819Y-77052380D01*
X94254819Y-77052380D02*
X94254819Y-76957142D01*
X94254819Y-76957142D02*
X94302438Y-76814285D01*
X94302438Y-76814285D02*
X94350057Y-76766666D01*
X94588152Y-75909523D02*
X95254819Y-75909523D01*
X94207200Y-76147618D02*
X94921485Y-76385713D01*
X94921485Y-76385713D02*
X94921485Y-75766666D01*
X80904819Y-83766666D02*
X80428628Y-84099999D01*
X80904819Y-84338094D02*
X79904819Y-84338094D01*
X79904819Y-84338094D02*
X79904819Y-83957142D01*
X79904819Y-83957142D02*
X79952438Y-83861904D01*
X79952438Y-83861904D02*
X80000057Y-83814285D01*
X80000057Y-83814285D02*
X80095295Y-83766666D01*
X80095295Y-83766666D02*
X80238152Y-83766666D01*
X80238152Y-83766666D02*
X80333390Y-83814285D01*
X80333390Y-83814285D02*
X80381009Y-83861904D01*
X80381009Y-83861904D02*
X80428628Y-83957142D01*
X80428628Y-83957142D02*
X80428628Y-84338094D01*
X79904819Y-83433332D02*
X79904819Y-82766666D01*
X79904819Y-82766666D02*
X80904819Y-83195237D01*
X70304819Y-24733333D02*
X71019104Y-24733333D01*
X71019104Y-24733333D02*
X71161961Y-24780952D01*
X71161961Y-24780952D02*
X71257200Y-24876190D01*
X71257200Y-24876190D02*
X71304819Y-25019047D01*
X71304819Y-25019047D02*
X71304819Y-25114285D01*
X70304819Y-24352380D02*
X70304819Y-23733333D01*
X70304819Y-23733333D02*
X70685771Y-24066666D01*
X70685771Y-24066666D02*
X70685771Y-23923809D01*
X70685771Y-23923809D02*
X70733390Y-23828571D01*
X70733390Y-23828571D02*
X70781009Y-23780952D01*
X70781009Y-23780952D02*
X70876247Y-23733333D01*
X70876247Y-23733333D02*
X71114342Y-23733333D01*
X71114342Y-23733333D02*
X71209580Y-23780952D01*
X71209580Y-23780952D02*
X71257200Y-23828571D01*
X71257200Y-23828571D02*
X71304819Y-23923809D01*
X71304819Y-23923809D02*
X71304819Y-24209523D01*
X71304819Y-24209523D02*
X71257200Y-24304761D01*
X71257200Y-24304761D02*
X71209580Y-24352380D01*
X62725595Y-38932319D02*
X62725595Y-39741842D01*
X62725595Y-39741842D02*
X62773214Y-39837080D01*
X62773214Y-39837080D02*
X62820833Y-39884700D01*
X62820833Y-39884700D02*
X62916071Y-39932319D01*
X62916071Y-39932319D02*
X63106547Y-39932319D01*
X63106547Y-39932319D02*
X63201785Y-39884700D01*
X63201785Y-39884700D02*
X63249404Y-39837080D01*
X63249404Y-39837080D02*
X63297023Y-39741842D01*
X63297023Y-39741842D02*
X63297023Y-38932319D01*
X64297023Y-39932319D02*
X63725595Y-39932319D01*
X64011309Y-39932319D02*
X64011309Y-38932319D01*
X64011309Y-38932319D02*
X63916071Y-39075176D01*
X63916071Y-39075176D02*
X63820833Y-39170414D01*
X63820833Y-39170414D02*
X63725595Y-39218033D01*
X60033333Y-47579580D02*
X59985714Y-47627200D01*
X59985714Y-47627200D02*
X59842857Y-47674819D01*
X59842857Y-47674819D02*
X59747619Y-47674819D01*
X59747619Y-47674819D02*
X59604762Y-47627200D01*
X59604762Y-47627200D02*
X59509524Y-47531961D01*
X59509524Y-47531961D02*
X59461905Y-47436723D01*
X59461905Y-47436723D02*
X59414286Y-47246247D01*
X59414286Y-47246247D02*
X59414286Y-47103390D01*
X59414286Y-47103390D02*
X59461905Y-46912914D01*
X59461905Y-46912914D02*
X59509524Y-46817676D01*
X59509524Y-46817676D02*
X59604762Y-46722438D01*
X59604762Y-46722438D02*
X59747619Y-46674819D01*
X59747619Y-46674819D02*
X59842857Y-46674819D01*
X59842857Y-46674819D02*
X59985714Y-46722438D01*
X59985714Y-46722438D02*
X60033333Y-46770057D01*
X60414286Y-46770057D02*
X60461905Y-46722438D01*
X60461905Y-46722438D02*
X60557143Y-46674819D01*
X60557143Y-46674819D02*
X60795238Y-46674819D01*
X60795238Y-46674819D02*
X60890476Y-46722438D01*
X60890476Y-46722438D02*
X60938095Y-46770057D01*
X60938095Y-46770057D02*
X60985714Y-46865295D01*
X60985714Y-46865295D02*
X60985714Y-46960533D01*
X60985714Y-46960533D02*
X60938095Y-47103390D01*
X60938095Y-47103390D02*
X60366667Y-47674819D01*
X60366667Y-47674819D02*
X60985714Y-47674819D01*
X67066666Y-35154819D02*
X67066666Y-35869104D01*
X67066666Y-35869104D02*
X67019047Y-36011961D01*
X67019047Y-36011961D02*
X66923809Y-36107200D01*
X66923809Y-36107200D02*
X66780952Y-36154819D01*
X66780952Y-36154819D02*
X66685714Y-36154819D01*
X68066666Y-36154819D02*
X67495238Y-36154819D01*
X67780952Y-36154819D02*
X67780952Y-35154819D01*
X67780952Y-35154819D02*
X67685714Y-35297676D01*
X67685714Y-35297676D02*
X67590476Y-35392914D01*
X67590476Y-35392914D02*
X67495238Y-35440533D01*
X95854819Y-82038094D02*
X94854819Y-82038094D01*
X94854819Y-82038094D02*
X94854819Y-81799999D01*
X94854819Y-81799999D02*
X94902438Y-81657142D01*
X94902438Y-81657142D02*
X94997676Y-81561904D01*
X94997676Y-81561904D02*
X95092914Y-81514285D01*
X95092914Y-81514285D02*
X95283390Y-81466666D01*
X95283390Y-81466666D02*
X95426247Y-81466666D01*
X95426247Y-81466666D02*
X95616723Y-81514285D01*
X95616723Y-81514285D02*
X95711961Y-81561904D01*
X95711961Y-81561904D02*
X95807200Y-81657142D01*
X95807200Y-81657142D02*
X95854819Y-81799999D01*
X95854819Y-81799999D02*
X95854819Y-82038094D01*
X94950057Y-81085713D02*
X94902438Y-81038094D01*
X94902438Y-81038094D02*
X94854819Y-80942856D01*
X94854819Y-80942856D02*
X94854819Y-80704761D01*
X94854819Y-80704761D02*
X94902438Y-80609523D01*
X94902438Y-80609523D02*
X94950057Y-80561904D01*
X94950057Y-80561904D02*
X95045295Y-80514285D01*
X95045295Y-80514285D02*
X95140533Y-80514285D01*
X95140533Y-80514285D02*
X95283390Y-80561904D01*
X95283390Y-80561904D02*
X95854819Y-81133332D01*
X95854819Y-81133332D02*
X95854819Y-80514285D01*
D11*
X88690476Y-90413419D02*
X88690476Y-89413419D01*
X88690476Y-89413419D02*
X89023809Y-90127704D01*
X89023809Y-90127704D02*
X89357142Y-89413419D01*
X89357142Y-89413419D02*
X89357142Y-90413419D01*
X89785714Y-89508657D02*
X89833333Y-89461038D01*
X89833333Y-89461038D02*
X89928571Y-89413419D01*
X89928571Y-89413419D02*
X90166666Y-89413419D01*
X90166666Y-89413419D02*
X90261904Y-89461038D01*
X90261904Y-89461038D02*
X90309523Y-89508657D01*
X90309523Y-89508657D02*
X90357142Y-89603895D01*
X90357142Y-89603895D02*
X90357142Y-89699133D01*
X90357142Y-89699133D02*
X90309523Y-89841990D01*
X90309523Y-89841990D02*
X89738095Y-90413419D01*
X89738095Y-90413419D02*
X90357142Y-90413419D01*
D10*
X100367080Y-68326666D02*
X100414700Y-68374285D01*
X100414700Y-68374285D02*
X100462319Y-68517142D01*
X100462319Y-68517142D02*
X100462319Y-68612380D01*
X100462319Y-68612380D02*
X100414700Y-68755237D01*
X100414700Y-68755237D02*
X100319461Y-68850475D01*
X100319461Y-68850475D02*
X100224223Y-68898094D01*
X100224223Y-68898094D02*
X100033747Y-68945713D01*
X100033747Y-68945713D02*
X99890890Y-68945713D01*
X99890890Y-68945713D02*
X99700414Y-68898094D01*
X99700414Y-68898094D02*
X99605176Y-68850475D01*
X99605176Y-68850475D02*
X99509938Y-68755237D01*
X99509938Y-68755237D02*
X99462319Y-68612380D01*
X99462319Y-68612380D02*
X99462319Y-68517142D01*
X99462319Y-68517142D02*
X99509938Y-68374285D01*
X99509938Y-68374285D02*
X99557557Y-68326666D01*
X100462319Y-67326666D02*
X99986128Y-67659999D01*
X100462319Y-67898094D02*
X99462319Y-67898094D01*
X99462319Y-67898094D02*
X99462319Y-67517142D01*
X99462319Y-67517142D02*
X99509938Y-67421904D01*
X99509938Y-67421904D02*
X99557557Y-67374285D01*
X99557557Y-67374285D02*
X99652795Y-67326666D01*
X99652795Y-67326666D02*
X99795652Y-67326666D01*
X99795652Y-67326666D02*
X99890890Y-67374285D01*
X99890890Y-67374285D02*
X99938509Y-67421904D01*
X99938509Y-67421904D02*
X99986128Y-67517142D01*
X99986128Y-67517142D02*
X99986128Y-67898094D01*
X100462319Y-66374285D02*
X100462319Y-66945713D01*
X100462319Y-66659999D02*
X99462319Y-66659999D01*
X99462319Y-66659999D02*
X99605176Y-66755237D01*
X99605176Y-66755237D02*
X99700414Y-66850475D01*
X99700414Y-66850475D02*
X99748033Y-66945713D01*
X77833333Y-77604819D02*
X77500000Y-77128628D01*
X77261905Y-77604819D02*
X77261905Y-76604819D01*
X77261905Y-76604819D02*
X77642857Y-76604819D01*
X77642857Y-76604819D02*
X77738095Y-76652438D01*
X77738095Y-76652438D02*
X77785714Y-76700057D01*
X77785714Y-76700057D02*
X77833333Y-76795295D01*
X77833333Y-76795295D02*
X77833333Y-76938152D01*
X77833333Y-76938152D02*
X77785714Y-77033390D01*
X77785714Y-77033390D02*
X77738095Y-77081009D01*
X77738095Y-77081009D02*
X77642857Y-77128628D01*
X77642857Y-77128628D02*
X77261905Y-77128628D01*
X78690476Y-76604819D02*
X78500000Y-76604819D01*
X78500000Y-76604819D02*
X78404762Y-76652438D01*
X78404762Y-76652438D02*
X78357143Y-76700057D01*
X78357143Y-76700057D02*
X78261905Y-76842914D01*
X78261905Y-76842914D02*
X78214286Y-77033390D01*
X78214286Y-77033390D02*
X78214286Y-77414342D01*
X78214286Y-77414342D02*
X78261905Y-77509580D01*
X78261905Y-77509580D02*
X78309524Y-77557200D01*
X78309524Y-77557200D02*
X78404762Y-77604819D01*
X78404762Y-77604819D02*
X78595238Y-77604819D01*
X78595238Y-77604819D02*
X78690476Y-77557200D01*
X78690476Y-77557200D02*
X78738095Y-77509580D01*
X78738095Y-77509580D02*
X78785714Y-77414342D01*
X78785714Y-77414342D02*
X78785714Y-77176247D01*
X78785714Y-77176247D02*
X78738095Y-77081009D01*
X78738095Y-77081009D02*
X78690476Y-77033390D01*
X78690476Y-77033390D02*
X78595238Y-76985771D01*
X78595238Y-76985771D02*
X78404762Y-76985771D01*
X78404762Y-76985771D02*
X78309524Y-77033390D01*
X78309524Y-77033390D02*
X78261905Y-77081009D01*
X78261905Y-77081009D02*
X78214286Y-77176247D01*
X82939580Y-80166666D02*
X82987200Y-80214285D01*
X82987200Y-80214285D02*
X83034819Y-80357142D01*
X83034819Y-80357142D02*
X83034819Y-80452380D01*
X83034819Y-80452380D02*
X82987200Y-80595237D01*
X82987200Y-80595237D02*
X82891961Y-80690475D01*
X82891961Y-80690475D02*
X82796723Y-80738094D01*
X82796723Y-80738094D02*
X82606247Y-80785713D01*
X82606247Y-80785713D02*
X82463390Y-80785713D01*
X82463390Y-80785713D02*
X82272914Y-80738094D01*
X82272914Y-80738094D02*
X82177676Y-80690475D01*
X82177676Y-80690475D02*
X82082438Y-80595237D01*
X82082438Y-80595237D02*
X82034819Y-80452380D01*
X82034819Y-80452380D02*
X82034819Y-80357142D01*
X82034819Y-80357142D02*
X82082438Y-80214285D01*
X82082438Y-80214285D02*
X82130057Y-80166666D01*
X82034819Y-79309523D02*
X82034819Y-79499999D01*
X82034819Y-79499999D02*
X82082438Y-79595237D01*
X82082438Y-79595237D02*
X82130057Y-79642856D01*
X82130057Y-79642856D02*
X82272914Y-79738094D01*
X82272914Y-79738094D02*
X82463390Y-79785713D01*
X82463390Y-79785713D02*
X82844342Y-79785713D01*
X82844342Y-79785713D02*
X82939580Y-79738094D01*
X82939580Y-79738094D02*
X82987200Y-79690475D01*
X82987200Y-79690475D02*
X83034819Y-79595237D01*
X83034819Y-79595237D02*
X83034819Y-79404761D01*
X83034819Y-79404761D02*
X82987200Y-79309523D01*
X82987200Y-79309523D02*
X82939580Y-79261904D01*
X82939580Y-79261904D02*
X82844342Y-79214285D01*
X82844342Y-79214285D02*
X82606247Y-79214285D01*
X82606247Y-79214285D02*
X82511009Y-79261904D01*
X82511009Y-79261904D02*
X82463390Y-79309523D01*
X82463390Y-79309523D02*
X82415771Y-79404761D01*
X82415771Y-79404761D02*
X82415771Y-79595237D01*
X82415771Y-79595237D02*
X82463390Y-79690475D01*
X82463390Y-79690475D02*
X82511009Y-79738094D01*
X82511009Y-79738094D02*
X82606247Y-79785713D01*
X63542080Y-50479166D02*
X63589700Y-50526785D01*
X63589700Y-50526785D02*
X63637319Y-50669642D01*
X63637319Y-50669642D02*
X63637319Y-50764880D01*
X63637319Y-50764880D02*
X63589700Y-50907737D01*
X63589700Y-50907737D02*
X63494461Y-51002975D01*
X63494461Y-51002975D02*
X63399223Y-51050594D01*
X63399223Y-51050594D02*
X63208747Y-51098213D01*
X63208747Y-51098213D02*
X63065890Y-51098213D01*
X63065890Y-51098213D02*
X62875414Y-51050594D01*
X62875414Y-51050594D02*
X62780176Y-51002975D01*
X62780176Y-51002975D02*
X62684938Y-50907737D01*
X62684938Y-50907737D02*
X62637319Y-50764880D01*
X62637319Y-50764880D02*
X62637319Y-50669642D01*
X62637319Y-50669642D02*
X62684938Y-50526785D01*
X62684938Y-50526785D02*
X62732557Y-50479166D01*
X63637319Y-50002975D02*
X63637319Y-49812499D01*
X63637319Y-49812499D02*
X63589700Y-49717261D01*
X63589700Y-49717261D02*
X63542080Y-49669642D01*
X63542080Y-49669642D02*
X63399223Y-49574404D01*
X63399223Y-49574404D02*
X63208747Y-49526785D01*
X63208747Y-49526785D02*
X62827795Y-49526785D01*
X62827795Y-49526785D02*
X62732557Y-49574404D01*
X62732557Y-49574404D02*
X62684938Y-49622023D01*
X62684938Y-49622023D02*
X62637319Y-49717261D01*
X62637319Y-49717261D02*
X62637319Y-49907737D01*
X62637319Y-49907737D02*
X62684938Y-50002975D01*
X62684938Y-50002975D02*
X62732557Y-50050594D01*
X62732557Y-50050594D02*
X62827795Y-50098213D01*
X62827795Y-50098213D02*
X63065890Y-50098213D01*
X63065890Y-50098213D02*
X63161128Y-50050594D01*
X63161128Y-50050594D02*
X63208747Y-50002975D01*
X63208747Y-50002975D02*
X63256366Y-49907737D01*
X63256366Y-49907737D02*
X63256366Y-49717261D01*
X63256366Y-49717261D02*
X63208747Y-49622023D01*
X63208747Y-49622023D02*
X63161128Y-49574404D01*
X63161128Y-49574404D02*
X63065890Y-49526785D01*
X71122319Y-38045833D02*
X71836604Y-38045833D01*
X71836604Y-38045833D02*
X71979461Y-38093452D01*
X71979461Y-38093452D02*
X72074700Y-38188690D01*
X72074700Y-38188690D02*
X72122319Y-38331547D01*
X72122319Y-38331547D02*
X72122319Y-38426785D01*
X71122319Y-37093452D02*
X71122319Y-37569642D01*
X71122319Y-37569642D02*
X71598509Y-37617261D01*
X71598509Y-37617261D02*
X71550890Y-37569642D01*
X71550890Y-37569642D02*
X71503271Y-37474404D01*
X71503271Y-37474404D02*
X71503271Y-37236309D01*
X71503271Y-37236309D02*
X71550890Y-37141071D01*
X71550890Y-37141071D02*
X71598509Y-37093452D01*
X71598509Y-37093452D02*
X71693747Y-37045833D01*
X71693747Y-37045833D02*
X71931842Y-37045833D01*
X71931842Y-37045833D02*
X72027080Y-37093452D01*
X72027080Y-37093452D02*
X72074700Y-37141071D01*
X72074700Y-37141071D02*
X72122319Y-37236309D01*
X72122319Y-37236309D02*
X72122319Y-37474404D01*
X72122319Y-37474404D02*
X72074700Y-37569642D01*
X72074700Y-37569642D02*
X72027080Y-37617261D01*
X101404819Y-78666666D02*
X100928628Y-78999999D01*
X101404819Y-79238094D02*
X100404819Y-79238094D01*
X100404819Y-79238094D02*
X100404819Y-78857142D01*
X100404819Y-78857142D02*
X100452438Y-78761904D01*
X100452438Y-78761904D02*
X100500057Y-78714285D01*
X100500057Y-78714285D02*
X100595295Y-78666666D01*
X100595295Y-78666666D02*
X100738152Y-78666666D01*
X100738152Y-78666666D02*
X100833390Y-78714285D01*
X100833390Y-78714285D02*
X100881009Y-78761904D01*
X100881009Y-78761904D02*
X100928628Y-78857142D01*
X100928628Y-78857142D02*
X100928628Y-79238094D01*
X100500057Y-78285713D02*
X100452438Y-78238094D01*
X100452438Y-78238094D02*
X100404819Y-78142856D01*
X100404819Y-78142856D02*
X100404819Y-77904761D01*
X100404819Y-77904761D02*
X100452438Y-77809523D01*
X100452438Y-77809523D02*
X100500057Y-77761904D01*
X100500057Y-77761904D02*
X100595295Y-77714285D01*
X100595295Y-77714285D02*
X100690533Y-77714285D01*
X100690533Y-77714285D02*
X100833390Y-77761904D01*
X100833390Y-77761904D02*
X101404819Y-78333332D01*
X101404819Y-78333332D02*
X101404819Y-77714285D01*
X63204819Y-24733333D02*
X63919104Y-24733333D01*
X63919104Y-24733333D02*
X64061961Y-24780952D01*
X64061961Y-24780952D02*
X64157200Y-24876190D01*
X64157200Y-24876190D02*
X64204819Y-25019047D01*
X64204819Y-25019047D02*
X64204819Y-25114285D01*
X63300057Y-24304761D02*
X63252438Y-24257142D01*
X63252438Y-24257142D02*
X63204819Y-24161904D01*
X63204819Y-24161904D02*
X63204819Y-23923809D01*
X63204819Y-23923809D02*
X63252438Y-23828571D01*
X63252438Y-23828571D02*
X63300057Y-23780952D01*
X63300057Y-23780952D02*
X63395295Y-23733333D01*
X63395295Y-23733333D02*
X63490533Y-23733333D01*
X63490533Y-23733333D02*
X63633390Y-23780952D01*
X63633390Y-23780952D02*
X64204819Y-24352380D01*
X64204819Y-24352380D02*
X64204819Y-23733333D01*
X73404761Y-46550057D02*
X73309523Y-46502438D01*
X73309523Y-46502438D02*
X73214285Y-46407200D01*
X73214285Y-46407200D02*
X73071428Y-46264342D01*
X73071428Y-46264342D02*
X72976190Y-46216723D01*
X72976190Y-46216723D02*
X72880952Y-46216723D01*
X72928571Y-46454819D02*
X72833333Y-46407200D01*
X72833333Y-46407200D02*
X72738095Y-46311961D01*
X72738095Y-46311961D02*
X72690476Y-46121485D01*
X72690476Y-46121485D02*
X72690476Y-45788152D01*
X72690476Y-45788152D02*
X72738095Y-45597676D01*
X72738095Y-45597676D02*
X72833333Y-45502438D01*
X72833333Y-45502438D02*
X72928571Y-45454819D01*
X72928571Y-45454819D02*
X73119047Y-45454819D01*
X73119047Y-45454819D02*
X73214285Y-45502438D01*
X73214285Y-45502438D02*
X73309523Y-45597676D01*
X73309523Y-45597676D02*
X73357142Y-45788152D01*
X73357142Y-45788152D02*
X73357142Y-46121485D01*
X73357142Y-46121485D02*
X73309523Y-46311961D01*
X73309523Y-46311961D02*
X73214285Y-46407200D01*
X73214285Y-46407200D02*
X73119047Y-46454819D01*
X73119047Y-46454819D02*
X72928571Y-46454819D01*
X73690476Y-45454819D02*
X74309523Y-45454819D01*
X74309523Y-45454819D02*
X73976190Y-45835771D01*
X73976190Y-45835771D02*
X74119047Y-45835771D01*
X74119047Y-45835771D02*
X74214285Y-45883390D01*
X74214285Y-45883390D02*
X74261904Y-45931009D01*
X74261904Y-45931009D02*
X74309523Y-46026247D01*
X74309523Y-46026247D02*
X74309523Y-46264342D01*
X74309523Y-46264342D02*
X74261904Y-46359580D01*
X74261904Y-46359580D02*
X74214285Y-46407200D01*
X74214285Y-46407200D02*
X74119047Y-46454819D01*
X74119047Y-46454819D02*
X73833333Y-46454819D01*
X73833333Y-46454819D02*
X73738095Y-46407200D01*
X73738095Y-46407200D02*
X73690476Y-46359580D01*
X79579580Y-76266666D02*
X79627200Y-76314285D01*
X79627200Y-76314285D02*
X79674819Y-76457142D01*
X79674819Y-76457142D02*
X79674819Y-76552380D01*
X79674819Y-76552380D02*
X79627200Y-76695237D01*
X79627200Y-76695237D02*
X79531961Y-76790475D01*
X79531961Y-76790475D02*
X79436723Y-76838094D01*
X79436723Y-76838094D02*
X79246247Y-76885713D01*
X79246247Y-76885713D02*
X79103390Y-76885713D01*
X79103390Y-76885713D02*
X78912914Y-76838094D01*
X78912914Y-76838094D02*
X78817676Y-76790475D01*
X78817676Y-76790475D02*
X78722438Y-76695237D01*
X78722438Y-76695237D02*
X78674819Y-76552380D01*
X78674819Y-76552380D02*
X78674819Y-76457142D01*
X78674819Y-76457142D02*
X78722438Y-76314285D01*
X78722438Y-76314285D02*
X78770057Y-76266666D01*
X78674819Y-75361904D02*
X78674819Y-75838094D01*
X78674819Y-75838094D02*
X79151009Y-75885713D01*
X79151009Y-75885713D02*
X79103390Y-75838094D01*
X79103390Y-75838094D02*
X79055771Y-75742856D01*
X79055771Y-75742856D02*
X79055771Y-75504761D01*
X79055771Y-75504761D02*
X79103390Y-75409523D01*
X79103390Y-75409523D02*
X79151009Y-75361904D01*
X79151009Y-75361904D02*
X79246247Y-75314285D01*
X79246247Y-75314285D02*
X79484342Y-75314285D01*
X79484342Y-75314285D02*
X79579580Y-75361904D01*
X79579580Y-75361904D02*
X79627200Y-75409523D01*
X79627200Y-75409523D02*
X79674819Y-75504761D01*
X79674819Y-75504761D02*
X79674819Y-75742856D01*
X79674819Y-75742856D02*
X79627200Y-75838094D01*
X79627200Y-75838094D02*
X79579580Y-75885713D01*
X98133333Y-57929580D02*
X98085714Y-57977200D01*
X98085714Y-57977200D02*
X97942857Y-58024819D01*
X97942857Y-58024819D02*
X97847619Y-58024819D01*
X97847619Y-58024819D02*
X97704762Y-57977200D01*
X97704762Y-57977200D02*
X97609524Y-57881961D01*
X97609524Y-57881961D02*
X97561905Y-57786723D01*
X97561905Y-57786723D02*
X97514286Y-57596247D01*
X97514286Y-57596247D02*
X97514286Y-57453390D01*
X97514286Y-57453390D02*
X97561905Y-57262914D01*
X97561905Y-57262914D02*
X97609524Y-57167676D01*
X97609524Y-57167676D02*
X97704762Y-57072438D01*
X97704762Y-57072438D02*
X97847619Y-57024819D01*
X97847619Y-57024819D02*
X97942857Y-57024819D01*
X97942857Y-57024819D02*
X98085714Y-57072438D01*
X98085714Y-57072438D02*
X98133333Y-57120057D01*
X98466667Y-57024819D02*
X99133333Y-57024819D01*
X99133333Y-57024819D02*
X98704762Y-58024819D01*
D12*
%TO.C,A1*%
X56590000Y-57810000D02*
X56590000Y-60480000D01*
X56590000Y-63020000D02*
X56590000Y-101250000D01*
X56590000Y-101250000D02*
X61670000Y-101250000D01*
X59260000Y-60480000D02*
X56590000Y-60480000D01*
X59260000Y-63020000D02*
X56590000Y-63020000D01*
X59260000Y-63020000D02*
X59260000Y-60480000D01*
X59260000Y-63020000D02*
X59260000Y-98580000D01*
X59260000Y-98580000D02*
X56590000Y-98580000D01*
X61670000Y-93370000D02*
X69550000Y-93370000D01*
X61670000Y-103790000D02*
X61670000Y-93370000D01*
X69550000Y-93370000D02*
X69550000Y-103790000D01*
X69550000Y-103790000D02*
X61670000Y-103790000D01*
X71960000Y-60480000D02*
X71960000Y-98580000D01*
X71960000Y-60480000D02*
X74630000Y-60480000D01*
X71960000Y-98580000D02*
X74630000Y-98580000D01*
X74630000Y-57810000D02*
X56590000Y-57810000D01*
X74630000Y-101250000D02*
X69550000Y-101250000D01*
X74630000Y-101250000D02*
X74630000Y-57810000D01*
%TO.C,C8*%
X75740000Y-60440000D02*
X78590000Y-60440000D01*
X75740000Y-68095563D02*
X75740000Y-60440000D01*
X76804437Y-69160000D02*
X75740000Y-68095563D01*
X76804437Y-69160000D02*
X78590000Y-69160000D01*
X77090000Y-69900000D02*
X78090000Y-69900000D01*
X77590000Y-70400000D02*
X77590000Y-69400000D01*
X83395563Y-69160000D02*
X81610000Y-69160000D01*
X83395563Y-69160000D02*
X84460000Y-68095563D01*
X84460000Y-60440000D02*
X81610000Y-60440000D01*
X84460000Y-68095563D02*
X84460000Y-60440000D01*
%TO.C,M1*%
D11*
X95000000Y-59500000D02*
X83000000Y-59500000D01*
X83000000Y-34000000D01*
X95000000Y-34000000D01*
X95000000Y-59500000D01*
X102000000Y-45500000D02*
X76000000Y-45500000D01*
X76000000Y-34000000D01*
X102000000Y-34000000D01*
X102000000Y-45500000D01*
X102000000Y-51500000D02*
X95000000Y-51500000D01*
X95000000Y-45500000D01*
X102000000Y-45500000D01*
X102000000Y-51500000D01*
D12*
%TO.C,C1*%
X60538748Y-33465000D02*
X61061252Y-33465000D01*
X60538748Y-34935000D02*
X61061252Y-34935000D01*
%TO.C,SW1*%
X57100000Y-115900000D02*
X57100000Y-114516000D01*
X57100000Y-115900000D02*
X58483000Y-115900000D01*
X57340000Y-105760000D02*
X69800000Y-105760000D01*
X57340000Y-115660000D02*
X57340000Y-105760000D01*
X57340000Y-115660000D02*
X69800000Y-115660000D01*
X59125000Y-108680000D02*
X59125000Y-112740000D01*
X59125000Y-111386667D02*
X60395000Y-111386667D01*
X59125000Y-112740000D02*
X60395000Y-112740000D01*
X59245000Y-112740000D02*
X59245000Y-111386667D01*
X59365000Y-112740000D02*
X59365000Y-111386667D01*
X59485000Y-112740000D02*
X59485000Y-111386667D01*
X59605000Y-112740000D02*
X59605000Y-111386667D01*
X59725000Y-112740000D02*
X59725000Y-111386667D01*
X59845000Y-112740000D02*
X59845000Y-111386667D01*
X59965000Y-112740000D02*
X59965000Y-111386667D01*
X60085000Y-112740000D02*
X60085000Y-111386667D01*
X60205000Y-112740000D02*
X60205000Y-111386667D01*
X60325000Y-112740000D02*
X60325000Y-111386667D01*
X60395000Y-108680000D02*
X59125000Y-108680000D01*
X60395000Y-112740000D02*
X60395000Y-108680000D01*
X61665000Y-108680000D02*
X61665000Y-112740000D01*
X61665000Y-111386667D02*
X62935000Y-111386667D01*
X61665000Y-112740000D02*
X62935000Y-112740000D01*
X61785000Y-112740000D02*
X61785000Y-111386667D01*
X61905000Y-112740000D02*
X61905000Y-111386667D01*
X62025000Y-112740000D02*
X62025000Y-111386667D01*
X62145000Y-112740000D02*
X62145000Y-111386667D01*
X62265000Y-112740000D02*
X62265000Y-111386667D01*
X62385000Y-112740000D02*
X62385000Y-111386667D01*
X62505000Y-112740000D02*
X62505000Y-111386667D01*
X62625000Y-112740000D02*
X62625000Y-111386667D01*
X62745000Y-112740000D02*
X62745000Y-111386667D01*
X62865000Y-112740000D02*
X62865000Y-111386667D01*
X62935000Y-108680000D02*
X61665000Y-108680000D01*
X62935000Y-112740000D02*
X62935000Y-108680000D01*
X64205000Y-108680000D02*
X64205000Y-112740000D01*
X64205000Y-111386667D02*
X65475000Y-111386667D01*
X64205000Y-112740000D02*
X65475000Y-112740000D01*
X64325000Y-112740000D02*
X64325000Y-111386667D01*
X64445000Y-112740000D02*
X64445000Y-111386667D01*
X64565000Y-112740000D02*
X64565000Y-111386667D01*
X64685000Y-112740000D02*
X64685000Y-111386667D01*
X64805000Y-112740000D02*
X64805000Y-111386667D01*
X64925000Y-112740000D02*
X64925000Y-111386667D01*
X65045000Y-112740000D02*
X65045000Y-111386667D01*
X65165000Y-112740000D02*
X65165000Y-111386667D01*
X65285000Y-112740000D02*
X65285000Y-111386667D01*
X65405000Y-112740000D02*
X65405000Y-111386667D01*
X65475000Y-108680000D02*
X64205000Y-108680000D01*
X65475000Y-112740000D02*
X65475000Y-108680000D01*
X66745000Y-108680000D02*
X66745000Y-112740000D01*
X66745000Y-111386667D02*
X68015000Y-111386667D01*
X66745000Y-112740000D02*
X68015000Y-112740000D01*
X66865000Y-112740000D02*
X66865000Y-111386667D01*
X66985000Y-112740000D02*
X66985000Y-111386667D01*
X67105000Y-112740000D02*
X67105000Y-111386667D01*
X67225000Y-112740000D02*
X67225000Y-111386667D01*
X67345000Y-112740000D02*
X67345000Y-111386667D01*
X67465000Y-112740000D02*
X67465000Y-111386667D01*
X67585000Y-112740000D02*
X67585000Y-111386667D01*
X67705000Y-112740000D02*
X67705000Y-111386667D01*
X67825000Y-112740000D02*
X67825000Y-111386667D01*
X67945000Y-112740000D02*
X67945000Y-111386667D01*
X68015000Y-108680000D02*
X66745000Y-108680000D01*
X68015000Y-112740000D02*
X68015000Y-108680000D01*
X69800000Y-115660000D02*
X69800000Y-105760000D01*
%TO.C,J4*%
X57432500Y-38517500D02*
X57432500Y-37187500D01*
X58762500Y-38517500D02*
X57432500Y-38517500D01*
X60032500Y-35857500D02*
X62632500Y-35857500D01*
X60032500Y-38517500D02*
X60032500Y-35857500D01*
X60032500Y-38517500D02*
X62632500Y-38517500D01*
X62632500Y-38517500D02*
X62632500Y-35857500D01*
%TO.C,J6*%
X59830000Y-54370000D02*
X59830000Y-57030000D01*
X64970000Y-54370000D02*
X59830000Y-54370000D01*
X64970000Y-54370000D02*
X64970000Y-57030000D01*
X64970000Y-57030000D02*
X59830000Y-57030000D01*
X66240000Y-54370000D02*
X67570000Y-54370000D01*
X67570000Y-54370000D02*
X67570000Y-55700000D01*
%TO.C,C3*%
X98615000Y-82038748D02*
X98615000Y-82561252D01*
X100085000Y-82038748D02*
X100085000Y-82561252D01*
%TO.C,D1*%
X99000000Y-74300000D02*
X99000000Y-76260000D01*
X99000000Y-76260000D02*
X100200000Y-76260000D01*
X100200000Y-74300000D02*
X100200000Y-76260000D01*
%TO.C,C4*%
X95865000Y-76238748D02*
X95865000Y-76761252D01*
X97335000Y-76238748D02*
X97335000Y-76761252D01*
%TO.C,R7*%
X78065000Y-83372936D02*
X78065000Y-83827064D01*
X79535000Y-83372936D02*
X79535000Y-83827064D01*
%TO.C,J3*%
X65040000Y-20340000D02*
X65040000Y-28460000D01*
X65040000Y-28460000D02*
X69760000Y-28460000D01*
X65650000Y-20950000D02*
X65650000Y-27850000D01*
X65650000Y-23300000D02*
X66150000Y-23300000D01*
X65650000Y-23400000D02*
X66150000Y-23400000D01*
X65650000Y-25300000D02*
X66150000Y-25300000D01*
X65650000Y-25400000D02*
X66150000Y-25400000D01*
X65650000Y-27850000D02*
X69150000Y-27850000D01*
X66150000Y-23300000D02*
X66150000Y-23500000D01*
X66150000Y-23500000D02*
X65650000Y-23500000D01*
X66150000Y-25300000D02*
X66150000Y-25500000D01*
X66150000Y-25500000D02*
X65650000Y-25500000D01*
X67150000Y-20340000D02*
X67150000Y-20950000D01*
X67150000Y-28460000D02*
X67150000Y-27850000D01*
X68450000Y-20340000D02*
X68450000Y-20950000D01*
X68450000Y-28460000D02*
X68450000Y-27850000D01*
X69150000Y-20950000D02*
X65650000Y-20950000D01*
X69150000Y-22900000D02*
X69150000Y-20950000D01*
X69150000Y-25900000D02*
X69760000Y-25900000D01*
X69150000Y-27850000D02*
X69150000Y-25900000D01*
X69760000Y-20340000D02*
X65040000Y-20340000D01*
X69760000Y-22100000D02*
X69960000Y-22100000D01*
X69760000Y-22900000D02*
X69150000Y-22900000D01*
X69760000Y-28460000D02*
X69760000Y-20340000D01*
X69860000Y-22100000D02*
X69860000Y-21800000D01*
X69960000Y-21800000D02*
X69760000Y-21800000D01*
X69960000Y-22100000D02*
X69960000Y-21800000D01*
X70060000Y-20040000D02*
X68810000Y-20040000D01*
X70060000Y-21290000D02*
X70060000Y-20040000D01*
D13*
%TO.C,U1*%
X60275000Y-40862500D02*
X60275000Y-47362500D01*
X60275000Y-47362500D02*
X61048500Y-47362500D01*
X61048500Y-40862500D02*
X60275000Y-40862500D01*
D14*
X58162500Y-40112500D02*
G75*
G02*
X57962500Y-40112500I-100000J0D01*
G01*
X57962500Y-40112500D02*
G75*
G02*
X58162500Y-40112500I100000J0D01*
G01*
D12*
%TO.C,C2*%
X59938748Y-48165000D02*
X60461252Y-48165000D01*
X59938748Y-49635000D02*
X60461252Y-49635000D01*
%TO.C,J1*%
X63340000Y-29890000D02*
X63340000Y-34610000D01*
X63340000Y-32000000D02*
X63950000Y-32000000D01*
X63340000Y-33300000D02*
X63950000Y-33300000D01*
X63340000Y-34610000D02*
X71460000Y-34610000D01*
X63950000Y-30500000D02*
X63950000Y-34000000D01*
X63950000Y-34000000D02*
X65900000Y-34000000D01*
X65900000Y-34000000D02*
X65900000Y-34610000D01*
X66300000Y-31000000D02*
X66300000Y-30500000D01*
X66400000Y-30500000D02*
X66400000Y-31000000D01*
X66500000Y-30500000D02*
X66500000Y-31000000D01*
X66500000Y-31000000D02*
X66300000Y-31000000D01*
X68300000Y-31000000D02*
X68300000Y-30500000D01*
X68400000Y-30500000D02*
X68400000Y-31000000D01*
X68500000Y-30500000D02*
X68500000Y-31000000D01*
X68500000Y-31000000D02*
X68300000Y-31000000D01*
X68900000Y-34000000D02*
X70850000Y-34000000D01*
X68900000Y-34610000D02*
X68900000Y-34000000D01*
X69700000Y-34610000D02*
X69700000Y-34810000D01*
X69700000Y-34710000D02*
X70000000Y-34710000D01*
X69700000Y-34810000D02*
X70000000Y-34810000D01*
X70000000Y-34810000D02*
X70000000Y-34610000D01*
X70510000Y-34910000D02*
X71760000Y-34910000D01*
X70850000Y-30500000D02*
X63950000Y-30500000D01*
X70850000Y-34000000D02*
X70850000Y-30500000D01*
X71460000Y-29890000D02*
X63340000Y-29890000D01*
X71460000Y-32000000D02*
X70850000Y-32000000D01*
X71460000Y-33300000D02*
X70850000Y-33300000D01*
X71460000Y-34610000D02*
X71460000Y-29890000D01*
X71760000Y-34910000D02*
X71760000Y-33660000D01*
%TO.C,D2*%
X96100000Y-80600000D02*
X96100000Y-82560000D01*
X96100000Y-82560000D02*
X97300000Y-82560000D01*
X97300000Y-80600000D02*
X97300000Y-82560000D01*
%TO.C,M2*%
D11*
X76000000Y-90456000D02*
X102000000Y-90456000D01*
X102000000Y-101956000D01*
X76000000Y-101956000D01*
X76000000Y-90456000D01*
X83000000Y-76456000D02*
X95000000Y-76456000D01*
X95000000Y-101956000D01*
X83000000Y-101956000D01*
X83000000Y-76456000D01*
X95000000Y-84456000D02*
X102000000Y-84456000D01*
X102000000Y-90456000D01*
X95000000Y-90456000D01*
X95000000Y-84456000D01*
D12*
%TO.C,CR1*%
X86125000Y-63790000D02*
X86372500Y-63790000D01*
X86125000Y-67660000D02*
X86125000Y-63790000D01*
X86125000Y-67660000D02*
X86125000Y-71530000D01*
X86125000Y-71530000D02*
X86372500Y-71530000D01*
X99170000Y-63790000D02*
X98922500Y-63790000D01*
X99170000Y-67660000D02*
X99170000Y-63790000D01*
X99170000Y-67660000D02*
X99170000Y-71530000D01*
X99170000Y-71530000D02*
X98922500Y-71530000D01*
X99392500Y-63282500D02*
X98922500Y-62942500D01*
X99392500Y-62602500D01*
X99392500Y-63282500D01*
G36*
X99392500Y-63282500D02*
G01*
X98922500Y-62942500D01*
X99392500Y-62602500D01*
X99392500Y-63282500D01*
G37*
%TO.C,R6*%
X78227064Y-74765000D02*
X77772936Y-74765000D01*
X78227064Y-76235000D02*
X77772936Y-76235000D01*
%TO.C,C6*%
X80165000Y-79738748D02*
X80165000Y-80261252D01*
X81635000Y-79738748D02*
X81635000Y-80261252D01*
%TO.C,C9*%
X64127500Y-50573752D02*
X64127500Y-50051248D01*
X65597500Y-50573752D02*
X65597500Y-50051248D01*
%TO.C,J5*%
X65467500Y-36382500D02*
X65467500Y-39042500D01*
X68067500Y-36382500D02*
X65467500Y-36382500D01*
X68067500Y-36382500D02*
X68067500Y-39042500D01*
X68067500Y-39042500D02*
X65467500Y-39042500D01*
X69337500Y-36382500D02*
X70667500Y-36382500D01*
X70667500Y-36382500D02*
X70667500Y-37712500D01*
%TO.C,R2*%
X98565000Y-78272936D02*
X98565000Y-78727064D01*
X100035000Y-78272936D02*
X100035000Y-78727064D01*
%TO.C,J2*%
X57940000Y-20340000D02*
X57940000Y-28460000D01*
X57940000Y-28460000D02*
X62660000Y-28460000D01*
X58550000Y-20950000D02*
X58550000Y-27850000D01*
X58550000Y-23300000D02*
X59050000Y-23300000D01*
X58550000Y-23400000D02*
X59050000Y-23400000D01*
X58550000Y-25300000D02*
X59050000Y-25300000D01*
X58550000Y-25400000D02*
X59050000Y-25400000D01*
X58550000Y-27850000D02*
X62050000Y-27850000D01*
X59050000Y-23300000D02*
X59050000Y-23500000D01*
X59050000Y-23500000D02*
X58550000Y-23500000D01*
X59050000Y-25300000D02*
X59050000Y-25500000D01*
X59050000Y-25500000D02*
X58550000Y-25500000D01*
X60050000Y-20340000D02*
X60050000Y-20950000D01*
X60050000Y-28460000D02*
X60050000Y-27850000D01*
X61350000Y-20340000D02*
X61350000Y-20950000D01*
X61350000Y-28460000D02*
X61350000Y-27850000D01*
X62050000Y-20950000D02*
X58550000Y-20950000D01*
X62050000Y-22900000D02*
X62050000Y-20950000D01*
X62050000Y-25900000D02*
X62660000Y-25900000D01*
X62050000Y-27850000D02*
X62050000Y-25900000D01*
X62660000Y-20340000D02*
X57940000Y-20340000D01*
X62660000Y-22100000D02*
X62860000Y-22100000D01*
X62660000Y-22900000D02*
X62050000Y-22900000D01*
X62660000Y-28460000D02*
X62660000Y-20340000D01*
X62760000Y-22100000D02*
X62760000Y-21800000D01*
X62860000Y-21800000D02*
X62660000Y-21800000D01*
X62860000Y-22100000D02*
X62860000Y-21800000D01*
X62960000Y-20040000D02*
X61710000Y-20040000D01*
X62960000Y-21290000D02*
X62960000Y-20040000D01*
%TO.C,Q3*%
X71650000Y-47090000D02*
X75410000Y-47090000D01*
X71650000Y-53910000D02*
X75410000Y-53910000D01*
X75410000Y-47090000D02*
X75410000Y-48350000D01*
X75410000Y-53910000D02*
X75410000Y-52650000D01*
X70370000Y-47190000D02*
X70130000Y-46860000D01*
X70610000Y-46860000D01*
X70370000Y-47190000D01*
G36*
X70370000Y-47190000D02*
G01*
X70130000Y-46860000D01*
X70610000Y-46860000D01*
X70370000Y-47190000D01*
G37*
%TO.C,C5*%
X80165000Y-76361252D02*
X80165000Y-75838748D01*
X81635000Y-76361252D02*
X81635000Y-75838748D01*
%TO.C,C7*%
X98038748Y-58515000D02*
X98561252Y-58515000D01*
X98038748Y-59985000D02*
X98561252Y-59985000D01*
%TD*%
M02*
