%TF.GenerationSoftware,KiCad,Pcbnew,8.0.2*%
%TF.CreationDate,2024-10-05T18:09:16+02:00*%
%TF.ProjectId,CalkaBot_PCB,43616c6b-6142-46f7-945f-5043422e6b69,rev?*%
%TF.SameCoordinates,Original*%
%TF.FileFunction,Paste,Top*%
%TF.FilePolarity,Positive*%
%FSLAX46Y46*%
G04 Gerber Fmt 4.6, Leading zero omitted, Abs format (unit mm)*
G04 Created by KiCad (PCBNEW 8.0.2) date 2024-10-05 18:09:16*
%MOMM*%
%LPD*%
G01*
G04 APERTURE LIST*
G04 Aperture macros list*
%AMRoundRect*
0 Rectangle with rounded corners*
0 $1 Rounding radius*
0 $2 $3 $4 $5 $6 $7 $8 $9 X,Y pos of 4 corners*
0 Add a 4 corners polygon primitive as box body*
4,1,4,$2,$3,$4,$5,$6,$7,$8,$9,$2,$3,0*
0 Add four circle primitives for the rounded corners*
1,1,$1+$1,$2,$3*
1,1,$1+$1,$4,$5*
1,1,$1+$1,$6,$7*
1,1,$1+$1,$8,$9*
0 Add four rect primitives between the rounded corners*
20,1,$1+$1,$2,$3,$4,$5,0*
20,1,$1+$1,$4,$5,$6,$7,0*
20,1,$1+$1,$6,$7,$8,$9,0*
20,1,$1+$1,$8,$9,$2,$3,0*%
G04 Aperture macros list end*
%ADD10C,0.010000*%
%ADD11RoundRect,0.250000X1.000000X-1.950000X1.000000X1.950000X-1.000000X1.950000X-1.000000X-1.950000X0*%
%ADD12RoundRect,0.250000X-0.337500X-0.475000X0.337500X-0.475000X0.337500X0.475000X-0.337500X0.475000X0*%
%ADD13RoundRect,0.250000X-0.475000X0.337500X-0.475000X-0.337500X0.475000X-0.337500X0.475000X0.337500X0*%
%ADD14RoundRect,0.150000X-0.200000X0.150000X-0.200000X-0.150000X0.200000X-0.150000X0.200000X0.150000X0*%
%ADD15RoundRect,0.250000X-0.450000X0.350000X-0.450000X-0.350000X0.450000X-0.350000X0.450000X0.350000X0*%
%ADD16R,3.000000X1.600000*%
%ADD17RoundRect,0.250001X-0.719999X0.519999X-0.719999X-0.519999X0.719999X-0.519999X0.719999X0.519999X0*%
%ADD18RoundRect,0.150000X-0.150000X0.850000X-0.150000X-0.850000X0.150000X-0.850000X0.150000X0.850000X0*%
%ADD19RoundRect,0.250000X0.350000X0.450000X-0.350000X0.450000X-0.350000X-0.450000X0.350000X-0.450000X0*%
%ADD20RoundRect,0.250000X0.475000X-0.337500X0.475000X0.337500X-0.475000X0.337500X-0.475000X-0.337500X0*%
%ADD21RoundRect,0.375000X-0.625000X-0.375000X0.625000X-0.375000X0.625000X0.375000X-0.625000X0.375000X0*%
%ADD22RoundRect,0.500000X-0.500000X-1.400000X0.500000X-1.400000X0.500000X1.400000X-0.500000X1.400000X0*%
G04 APERTURE END LIST*
D10*
%TO.C,U1*%
X62957500Y-42357500D02*
X61547500Y-42357500D01*
X61547500Y-40947500D01*
X62957500Y-40947500D01*
X62957500Y-42357500D01*
G36*
X62957500Y-42357500D02*
G01*
X61547500Y-42357500D01*
X61547500Y-40947500D01*
X62957500Y-40947500D01*
X62957500Y-42357500D01*
G37*
X62957500Y-44817500D02*
X61547500Y-44817500D01*
X61547500Y-43407500D01*
X62957500Y-43407500D01*
X62957500Y-44817500D01*
G36*
X62957500Y-44817500D02*
G01*
X61547500Y-44817500D01*
X61547500Y-43407500D01*
X62957500Y-43407500D01*
X62957500Y-44817500D01*
G37*
X62957500Y-47277500D02*
X61547500Y-47277500D01*
X61547500Y-45867500D01*
X62957500Y-45867500D01*
X62957500Y-47277500D01*
G36*
X62957500Y-47277500D02*
G01*
X61547500Y-47277500D01*
X61547500Y-45867500D01*
X62957500Y-45867500D01*
X62957500Y-47277500D01*
G37*
X65417500Y-42357500D02*
X64007500Y-42357500D01*
X64007500Y-40947500D01*
X65417500Y-40947500D01*
X65417500Y-42357500D01*
G36*
X65417500Y-42357500D02*
G01*
X64007500Y-42357500D01*
X64007500Y-40947500D01*
X65417500Y-40947500D01*
X65417500Y-42357500D01*
G37*
X65417500Y-44817500D02*
X64007500Y-44817500D01*
X64007500Y-43407500D01*
X65417500Y-43407500D01*
X65417500Y-44817500D01*
G36*
X65417500Y-44817500D02*
G01*
X64007500Y-44817500D01*
X64007500Y-43407500D01*
X65417500Y-43407500D01*
X65417500Y-44817500D01*
G37*
X65417500Y-47277500D02*
X64007500Y-47277500D01*
X64007500Y-45867500D01*
X65417500Y-45867500D01*
X65417500Y-47277500D01*
G36*
X65417500Y-47277500D02*
G01*
X64007500Y-47277500D01*
X64007500Y-45867500D01*
X65417500Y-45867500D01*
X65417500Y-47277500D01*
G37*
X67877500Y-42357500D02*
X66467500Y-42357500D01*
X66467500Y-40947500D01*
X67877500Y-40947500D01*
X67877500Y-42357500D01*
G36*
X67877500Y-42357500D02*
G01*
X66467500Y-42357500D01*
X66467500Y-40947500D01*
X67877500Y-40947500D01*
X67877500Y-42357500D01*
G37*
X67877500Y-44817500D02*
X66467500Y-44817500D01*
X66467500Y-43407500D01*
X67877500Y-43407500D01*
X67877500Y-44817500D01*
G36*
X67877500Y-44817500D02*
G01*
X66467500Y-44817500D01*
X66467500Y-43407500D01*
X67877500Y-43407500D01*
X67877500Y-44817500D01*
G37*
X67877500Y-47277500D02*
X66467500Y-47277500D01*
X66467500Y-45867500D01*
X67877500Y-45867500D01*
X67877500Y-47277500D01*
G36*
X67877500Y-47277500D02*
G01*
X66467500Y-47277500D01*
X66467500Y-45867500D01*
X67877500Y-45867500D01*
X67877500Y-47277500D01*
G37*
%TD*%
D11*
%TO.C,C8*%
X80100000Y-68500000D03*
X80100000Y-61100000D03*
%TD*%
D12*
%TO.C,C1*%
X59762500Y-34200000D03*
X61837500Y-34200000D03*
%TD*%
D13*
%TO.C,C3*%
X99350000Y-81262500D03*
X99350000Y-83337500D03*
%TD*%
D14*
%TO.C,D1*%
X99600000Y-75700000D03*
X99600000Y-74300000D03*
%TD*%
D13*
%TO.C,C4*%
X96600000Y-75462500D03*
X96600000Y-77537500D03*
%TD*%
D15*
%TO.C,R7*%
X78800000Y-82600000D03*
X78800000Y-84600000D03*
%TD*%
D16*
%TO.C,U1*%
X58062500Y-41812500D03*
X58062500Y-46412500D03*
%TD*%
D12*
%TO.C,C2*%
X59162500Y-48900000D03*
X61237500Y-48900000D03*
%TD*%
D14*
%TO.C,D2*%
X96700000Y-82000000D03*
X96700000Y-80600000D03*
%TD*%
D17*
%TO.C,CR1*%
X93762500Y-66770000D03*
X91532500Y-66770000D03*
X93762500Y-68550000D03*
X91532500Y-68550000D03*
D18*
X98362500Y-62985000D03*
X97092500Y-62985000D03*
X95822500Y-62985000D03*
X94552500Y-62985000D03*
X93282500Y-62985000D03*
X92012500Y-62985000D03*
X90742500Y-62985000D03*
X89472500Y-62985000D03*
X88202500Y-62985000D03*
X86932500Y-62985000D03*
X86932500Y-72335000D03*
X88202500Y-72335000D03*
X89472500Y-72335000D03*
X90742500Y-72335000D03*
X92012500Y-72335000D03*
X93282500Y-72335000D03*
X94552500Y-72335000D03*
X95822500Y-72335000D03*
X97092500Y-72335000D03*
X98362500Y-72335000D03*
%TD*%
D19*
%TO.C,R6*%
X79000000Y-75500000D03*
X77000000Y-75500000D03*
%TD*%
D13*
%TO.C,C6*%
X80900000Y-78962500D03*
X80900000Y-81037500D03*
%TD*%
D20*
%TO.C,C9*%
X64862500Y-51350000D03*
X64862500Y-49275000D03*
%TD*%
D15*
%TO.C,R2*%
X99300000Y-77500000D03*
X99300000Y-79500000D03*
%TD*%
D21*
%TO.C,Q3*%
X70350000Y-48200000D03*
X70350000Y-50500000D03*
X70350000Y-52800000D03*
D22*
X76650000Y-50500000D03*
%TD*%
D20*
%TO.C,C5*%
X80900000Y-77137500D03*
X80900000Y-75062500D03*
%TD*%
D12*
%TO.C,C7*%
X97262500Y-59250000D03*
X99337500Y-59250000D03*
%TD*%
M02*
