%TF.GenerationSoftware,KiCad,Pcbnew,8.0.2*%
%TF.CreationDate,2024-10-05T18:09:16+02:00*%
%TF.ProjectId,CalkaBot_PCB,43616c6b-6142-46f7-945f-5043422e6b69,rev?*%
%TF.SameCoordinates,Original*%
%TF.FileFunction,Soldermask,Top*%
%TF.FilePolarity,Negative*%
%FSLAX46Y46*%
G04 Gerber Fmt 4.6, Leading zero omitted, Abs format (unit mm)*
G04 Created by KiCad (PCBNEW 8.0.2) date 2024-10-05 18:09:16*
%MOMM*%
%LPD*%
G01*
G04 APERTURE LIST*
G04 Aperture macros list*
%AMRoundRect*
0 Rectangle with rounded corners*
0 $1 Rounding radius*
0 $2 $3 $4 $5 $6 $7 $8 $9 X,Y pos of 4 corners*
0 Add a 4 corners polygon primitive as box body*
4,1,4,$2,$3,$4,$5,$6,$7,$8,$9,$2,$3,0*
0 Add four circle primitives for the rounded corners*
1,1,$1+$1,$2,$3*
1,1,$1+$1,$4,$5*
1,1,$1+$1,$6,$7*
1,1,$1+$1,$8,$9*
0 Add four rect primitives between the rounded corners*
20,1,$1+$1,$2,$3,$4,$5,0*
20,1,$1+$1,$4,$5,$6,$7,0*
20,1,$1+$1,$6,$7,$8,$9,0*
20,1,$1+$1,$8,$9,$2,$3,0*%
G04 Aperture macros list end*
%ADD10R,1.600000X1.600000*%
%ADD11O,1.600000X1.600000*%
%ADD12RoundRect,0.250000X1.000000X-1.950000X1.000000X1.950000X-1.000000X1.950000X-1.000000X-1.950000X0*%
%ADD13C,1.524000*%
%ADD14RoundRect,0.250000X-0.337500X-0.475000X0.337500X-0.475000X0.337500X0.475000X-0.337500X0.475000X0*%
%ADD15R,1.700000X1.700000*%
%ADD16O,1.700000X1.700000*%
%ADD17RoundRect,0.250000X-0.475000X0.337500X-0.475000X-0.337500X0.475000X-0.337500X0.475000X0.337500X0*%
%ADD18RoundRect,0.150000X-0.200000X0.150000X-0.200000X-0.150000X0.200000X-0.150000X0.200000X0.150000X0*%
%ADD19RoundRect,0.250000X-0.450000X0.350000X-0.450000X-0.350000X0.450000X-0.350000X0.450000X0.350000X0*%
%ADD20RoundRect,0.250000X-0.625000X0.350000X-0.625000X-0.350000X0.625000X-0.350000X0.625000X0.350000X0*%
%ADD21O,1.750000X1.200000*%
%ADD22RoundRect,0.102000X-1.500000X-0.800000X1.500000X-0.800000X1.500000X0.800000X-1.500000X0.800000X0*%
%ADD23RoundRect,0.102000X-3.350000X-3.350000X3.350000X-3.350000X3.350000X3.350000X-3.350000X3.350000X0*%
%ADD24RoundRect,0.250000X0.350000X0.625000X-0.350000X0.625000X-0.350000X-0.625000X0.350000X-0.625000X0*%
%ADD25O,1.200000X1.750000*%
%ADD26R,4.470000X3.560000*%
%ADD27RoundRect,0.150000X-0.150000X0.850000X-0.150000X-0.850000X0.150000X-0.850000X0.150000X0.850000X0*%
%ADD28RoundRect,0.250000X0.350000X0.450000X-0.350000X0.450000X-0.350000X-0.450000X0.350000X-0.450000X0*%
%ADD29RoundRect,0.250000X0.475000X-0.337500X0.475000X0.337500X-0.475000X0.337500X-0.475000X-0.337500X0*%
%ADD30RoundRect,0.375000X-0.625000X-0.375000X0.625000X-0.375000X0.625000X0.375000X-0.625000X0.375000X0*%
%ADD31RoundRect,0.500000X-0.500000X-1.400000X0.500000X-1.400000X0.500000X1.400000X-0.500000X1.400000X0*%
G04 APERTURE END LIST*
D10*
%TO.C,A1*%
X57990000Y-61750000D03*
D11*
X57990000Y-64290000D03*
X57990000Y-66830000D03*
X57990000Y-69370000D03*
X57990000Y-71910000D03*
X57990000Y-74450000D03*
X57990000Y-76990000D03*
X57990000Y-79530000D03*
X57990000Y-82070000D03*
X57990000Y-84610000D03*
X57990000Y-87150000D03*
X57990000Y-89690000D03*
X57990000Y-92230000D03*
X57990000Y-94770000D03*
X57990000Y-97310000D03*
X73230000Y-97310000D03*
X73230000Y-94770000D03*
X73230000Y-92230000D03*
X73230000Y-89690000D03*
X73230000Y-87150000D03*
X73230000Y-84610000D03*
X73230000Y-82070000D03*
X73230000Y-79530000D03*
X73230000Y-76990000D03*
X73230000Y-74450000D03*
X73230000Y-71910000D03*
X73230000Y-69370000D03*
X73230000Y-66830000D03*
X73230000Y-64290000D03*
X73230000Y-61750000D03*
%TD*%
D12*
%TO.C,C8*%
X80100000Y-68500000D03*
X80100000Y-61100000D03*
%TD*%
D13*
%TO.C,M1*%
X92500000Y-59000000D03*
X85500000Y-59000000D03*
%TD*%
D14*
%TO.C,C1*%
X59762500Y-34200000D03*
X61837500Y-34200000D03*
%TD*%
D10*
%TO.C,SW1*%
X59760000Y-114520000D03*
D11*
X62300000Y-114520000D03*
X64840000Y-114520000D03*
X67380000Y-114520000D03*
X67380000Y-106900000D03*
X64840000Y-106900000D03*
X62300000Y-106900000D03*
X59760000Y-106900000D03*
%TD*%
D15*
%TO.C,J4*%
X58762500Y-37187500D03*
D16*
X61302500Y-37187500D03*
%TD*%
D15*
%TO.C,J6*%
X66240000Y-55700000D03*
D16*
X63700000Y-55700000D03*
X61160000Y-55700000D03*
%TD*%
D17*
%TO.C,C3*%
X99350000Y-81262500D03*
X99350000Y-83337500D03*
%TD*%
D18*
%TO.C,D1*%
X99600000Y-75700000D03*
X99600000Y-74300000D03*
%TD*%
D17*
%TO.C,C4*%
X96600000Y-75462500D03*
X96600000Y-77537500D03*
%TD*%
D19*
%TO.C,R7*%
X78800000Y-82600000D03*
X78800000Y-84600000D03*
%TD*%
D20*
%TO.C,J3*%
X67950000Y-22400000D03*
D21*
X67950000Y-24400000D03*
X67950000Y-26400000D03*
%TD*%
D22*
%TO.C,U1*%
X58062500Y-41812500D03*
D23*
X64712500Y-44112500D03*
D22*
X58062500Y-46412500D03*
%TD*%
D14*
%TO.C,C2*%
X59162500Y-48900000D03*
X61237500Y-48900000D03*
%TD*%
D24*
%TO.C,J1*%
X69400000Y-32800000D03*
D25*
X67400000Y-32800000D03*
X65400000Y-32800000D03*
%TD*%
D18*
%TO.C,D2*%
X96700000Y-82000000D03*
X96700000Y-80600000D03*
%TD*%
D13*
%TO.C,M2*%
X85500000Y-76956000D03*
X92500000Y-76956000D03*
%TD*%
D26*
%TO.C,CR1*%
X92647500Y-67660000D03*
D27*
X98362500Y-62985000D03*
X97092500Y-62985000D03*
X95822500Y-62985000D03*
X94552500Y-62985000D03*
X93282500Y-62985000D03*
X92012500Y-62985000D03*
X90742500Y-62985000D03*
X89472500Y-62985000D03*
X88202500Y-62985000D03*
X86932500Y-62985000D03*
X86932500Y-72335000D03*
X88202500Y-72335000D03*
X89472500Y-72335000D03*
X90742500Y-72335000D03*
X92012500Y-72335000D03*
X93282500Y-72335000D03*
X94552500Y-72335000D03*
X95822500Y-72335000D03*
X97092500Y-72335000D03*
X98362500Y-72335000D03*
%TD*%
D28*
%TO.C,R6*%
X79000000Y-75500000D03*
X77000000Y-75500000D03*
%TD*%
D17*
%TO.C,C6*%
X80900000Y-78962500D03*
X80900000Y-81037500D03*
%TD*%
D29*
%TO.C,C9*%
X64862500Y-51350000D03*
X64862500Y-49275000D03*
%TD*%
D15*
%TO.C,J5*%
X69337500Y-37712500D03*
D16*
X66797500Y-37712500D03*
%TD*%
D19*
%TO.C,R2*%
X99300000Y-77500000D03*
X99300000Y-79500000D03*
%TD*%
D20*
%TO.C,J2*%
X60850000Y-22400000D03*
D21*
X60850000Y-24400000D03*
X60850000Y-26400000D03*
%TD*%
D30*
%TO.C,Q3*%
X70350000Y-48200000D03*
X70350000Y-50500000D03*
X70350000Y-52800000D03*
D31*
X76650000Y-50500000D03*
%TD*%
D29*
%TO.C,C5*%
X80900000Y-77137500D03*
X80900000Y-75062500D03*
%TD*%
D14*
%TO.C,C7*%
X97262500Y-59250000D03*
X99337500Y-59250000D03*
%TD*%
M02*
