%TF.GenerationSoftware,KiCad,Pcbnew,8.0.2*%
%TF.CreationDate,2024-10-27T19:27:45+01:00*%
%TF.ProjectId,CalkaBot_PCB,43616c6b-6142-46f7-945f-5043422e6b69,rev?*%
%TF.SameCoordinates,Original*%
%TF.FileFunction,Legend,Bot*%
%TF.FilePolarity,Positive*%
%FSLAX46Y46*%
G04 Gerber Fmt 4.6, Leading zero omitted, Abs format (unit mm)*
G04 Created by KiCad (PCBNEW 8.0.2) date 2024-10-27 19:27:45*
%MOMM*%
%LPD*%
G01*
G04 APERTURE LIST*
%ADD10C,0.700000*%
%ADD11C,0.150000*%
%ADD12C,0.152400*%
%ADD13C,0.120000*%
G04 APERTURE END LIST*
D10*
X30432869Y-82833332D02*
X30266203Y-82999999D01*
X30266203Y-82999999D02*
X30099536Y-83499999D01*
X30099536Y-83499999D02*
X30099536Y-83833332D01*
X30099536Y-83833332D02*
X30266203Y-84333332D01*
X30266203Y-84333332D02*
X30599536Y-84666666D01*
X30599536Y-84666666D02*
X30932869Y-84833332D01*
X30932869Y-84833332D02*
X31599536Y-84999999D01*
X31599536Y-84999999D02*
X32099536Y-84999999D01*
X32099536Y-84999999D02*
X32766203Y-84833332D01*
X32766203Y-84833332D02*
X33099536Y-84666666D01*
X33099536Y-84666666D02*
X33432869Y-84333332D01*
X33432869Y-84333332D02*
X33599536Y-83833332D01*
X33599536Y-83833332D02*
X33599536Y-83499999D01*
X33599536Y-83499999D02*
X33432869Y-82999999D01*
X33432869Y-82999999D02*
X33266203Y-82833332D01*
X30099536Y-79833332D02*
X31932869Y-79833332D01*
X31932869Y-79833332D02*
X32266203Y-79999999D01*
X32266203Y-79999999D02*
X32432869Y-80333332D01*
X32432869Y-80333332D02*
X32432869Y-80999999D01*
X32432869Y-80999999D02*
X32266203Y-81333332D01*
X30266203Y-79833332D02*
X30099536Y-80166666D01*
X30099536Y-80166666D02*
X30099536Y-80999999D01*
X30099536Y-80999999D02*
X30266203Y-81333332D01*
X30266203Y-81333332D02*
X30599536Y-81499999D01*
X30599536Y-81499999D02*
X30932869Y-81499999D01*
X30932869Y-81499999D02*
X31266203Y-81333332D01*
X31266203Y-81333332D02*
X31432869Y-80999999D01*
X31432869Y-80999999D02*
X31432869Y-80166666D01*
X31432869Y-80166666D02*
X31599536Y-79833332D01*
X30099536Y-77666665D02*
X30266203Y-77999999D01*
X30266203Y-77999999D02*
X30599536Y-78166665D01*
X30599536Y-78166665D02*
X33599536Y-78166665D01*
X30099536Y-76333332D02*
X33599536Y-76333332D01*
X31432869Y-75999999D02*
X30099536Y-74999999D01*
X32432869Y-74999999D02*
X31099536Y-76333332D01*
X30099536Y-71999999D02*
X31932869Y-71999999D01*
X31932869Y-71999999D02*
X32266203Y-72166666D01*
X32266203Y-72166666D02*
X32432869Y-72499999D01*
X32432869Y-72499999D02*
X32432869Y-73166666D01*
X32432869Y-73166666D02*
X32266203Y-73499999D01*
X30266203Y-71999999D02*
X30099536Y-72333333D01*
X30099536Y-72333333D02*
X30099536Y-73166666D01*
X30099536Y-73166666D02*
X30266203Y-73499999D01*
X30266203Y-73499999D02*
X30599536Y-73666666D01*
X30599536Y-73666666D02*
X30932869Y-73666666D01*
X30932869Y-73666666D02*
X31266203Y-73499999D01*
X31266203Y-73499999D02*
X31432869Y-73166666D01*
X31432869Y-73166666D02*
X31432869Y-72333333D01*
X31432869Y-72333333D02*
X31599536Y-71999999D01*
X31932869Y-69166666D02*
X31766203Y-68666666D01*
X31766203Y-68666666D02*
X31599536Y-68499999D01*
X31599536Y-68499999D02*
X31266203Y-68333332D01*
X31266203Y-68333332D02*
X30766203Y-68333332D01*
X30766203Y-68333332D02*
X30432869Y-68499999D01*
X30432869Y-68499999D02*
X30266203Y-68666666D01*
X30266203Y-68666666D02*
X30099536Y-68999999D01*
X30099536Y-68999999D02*
X30099536Y-70333332D01*
X30099536Y-70333332D02*
X33599536Y-70333332D01*
X33599536Y-70333332D02*
X33599536Y-69166666D01*
X33599536Y-69166666D02*
X33432869Y-68833332D01*
X33432869Y-68833332D02*
X33266203Y-68666666D01*
X33266203Y-68666666D02*
X32932869Y-68499999D01*
X32932869Y-68499999D02*
X32599536Y-68499999D01*
X32599536Y-68499999D02*
X32266203Y-68666666D01*
X32266203Y-68666666D02*
X32099536Y-68833332D01*
X32099536Y-68833332D02*
X31932869Y-69166666D01*
X31932869Y-69166666D02*
X31932869Y-70333332D01*
X30099536Y-66333332D02*
X30266203Y-66666666D01*
X30266203Y-66666666D02*
X30432869Y-66833332D01*
X30432869Y-66833332D02*
X30766203Y-66999999D01*
X30766203Y-66999999D02*
X31766203Y-66999999D01*
X31766203Y-66999999D02*
X32099536Y-66833332D01*
X32099536Y-66833332D02*
X32266203Y-66666666D01*
X32266203Y-66666666D02*
X32432869Y-66333332D01*
X32432869Y-66333332D02*
X32432869Y-65833332D01*
X32432869Y-65833332D02*
X32266203Y-65499999D01*
X32266203Y-65499999D02*
X32099536Y-65333332D01*
X32099536Y-65333332D02*
X31766203Y-65166666D01*
X31766203Y-65166666D02*
X30766203Y-65166666D01*
X30766203Y-65166666D02*
X30432869Y-65333332D01*
X30432869Y-65333332D02*
X30266203Y-65499999D01*
X30266203Y-65499999D02*
X30099536Y-65833332D01*
X30099536Y-65833332D02*
X30099536Y-66333332D01*
X32432869Y-64166665D02*
X32432869Y-62833332D01*
X33599536Y-63666665D02*
X30599536Y-63666665D01*
X30599536Y-63666665D02*
X30266203Y-63499999D01*
X30266203Y-63499999D02*
X30099536Y-63166665D01*
X30099536Y-63166665D02*
X30099536Y-62833332D01*
X33599536Y-59333332D02*
X33599536Y-57166665D01*
X33599536Y-57166665D02*
X32266203Y-58333332D01*
X32266203Y-58333332D02*
X32266203Y-57833332D01*
X32266203Y-57833332D02*
X32099536Y-57499998D01*
X32099536Y-57499998D02*
X31932869Y-57333332D01*
X31932869Y-57333332D02*
X31599536Y-57166665D01*
X31599536Y-57166665D02*
X30766203Y-57166665D01*
X30766203Y-57166665D02*
X30432869Y-57333332D01*
X30432869Y-57333332D02*
X30266203Y-57499998D01*
X30266203Y-57499998D02*
X30099536Y-57833332D01*
X30099536Y-57833332D02*
X30099536Y-58833332D01*
X30099536Y-58833332D02*
X30266203Y-59166665D01*
X30266203Y-59166665D02*
X30432869Y-59333332D01*
X30099536Y-55666665D02*
X33599536Y-55666665D01*
X31432869Y-55333332D02*
X30099536Y-54333332D01*
X32432869Y-54333332D02*
X31099536Y-55666665D01*
X33599536Y-52166666D02*
X33599536Y-51833332D01*
X33599536Y-51833332D02*
X33432869Y-51499999D01*
X33432869Y-51499999D02*
X33266203Y-51333332D01*
X33266203Y-51333332D02*
X32932869Y-51166666D01*
X32932869Y-51166666D02*
X32266203Y-50999999D01*
X32266203Y-50999999D02*
X31432869Y-50999999D01*
X31432869Y-50999999D02*
X30766203Y-51166666D01*
X30766203Y-51166666D02*
X30432869Y-51333332D01*
X30432869Y-51333332D02*
X30266203Y-51499999D01*
X30266203Y-51499999D02*
X30099536Y-51833332D01*
X30099536Y-51833332D02*
X30099536Y-52166666D01*
X30099536Y-52166666D02*
X30266203Y-52499999D01*
X30266203Y-52499999D02*
X30432869Y-52666666D01*
X30432869Y-52666666D02*
X30766203Y-52833332D01*
X30766203Y-52833332D02*
X31432869Y-52999999D01*
X31432869Y-52999999D02*
X32266203Y-52999999D01*
X32266203Y-52999999D02*
X32932869Y-52833332D01*
X32932869Y-52833332D02*
X33266203Y-52666666D01*
X33266203Y-52666666D02*
X33432869Y-52499999D01*
X33432869Y-52499999D02*
X33599536Y-52166666D01*
X24464732Y-83666667D02*
X27964732Y-83666667D01*
X26631399Y-83666667D02*
X26798065Y-83333334D01*
X26798065Y-83333334D02*
X26798065Y-82666667D01*
X26798065Y-82666667D02*
X26631399Y-82333334D01*
X26631399Y-82333334D02*
X26464732Y-82166667D01*
X26464732Y-82166667D02*
X26131399Y-82000001D01*
X26131399Y-82000001D02*
X25131399Y-82000001D01*
X25131399Y-82000001D02*
X24798065Y-82166667D01*
X24798065Y-82166667D02*
X24631399Y-82333334D01*
X24631399Y-82333334D02*
X24464732Y-82666667D01*
X24464732Y-82666667D02*
X24464732Y-83333334D01*
X24464732Y-83333334D02*
X24631399Y-83666667D01*
X26798065Y-80833334D02*
X24464732Y-80000000D01*
X26798065Y-79166667D02*
X24464732Y-80000000D01*
X24464732Y-80000000D02*
X23631399Y-80333334D01*
X23631399Y-80333334D02*
X23464732Y-80500000D01*
X23464732Y-80500000D02*
X23298065Y-80833334D01*
X27964732Y-74166666D02*
X25464732Y-74166666D01*
X25464732Y-74166666D02*
X24964732Y-74333333D01*
X24964732Y-74333333D02*
X24631399Y-74666666D01*
X24631399Y-74666666D02*
X24464732Y-75166666D01*
X24464732Y-75166666D02*
X24464732Y-75500000D01*
X24464732Y-70999999D02*
X26298065Y-70999999D01*
X26298065Y-70999999D02*
X26631399Y-71166666D01*
X26631399Y-71166666D02*
X26798065Y-71499999D01*
X26798065Y-71499999D02*
X26798065Y-72166666D01*
X26798065Y-72166666D02*
X26631399Y-72499999D01*
X24631399Y-70999999D02*
X24464732Y-71333333D01*
X24464732Y-71333333D02*
X24464732Y-72166666D01*
X24464732Y-72166666D02*
X24631399Y-72499999D01*
X24631399Y-72499999D02*
X24964732Y-72666666D01*
X24964732Y-72666666D02*
X25298065Y-72666666D01*
X25298065Y-72666666D02*
X25631399Y-72499999D01*
X25631399Y-72499999D02*
X25798065Y-72166666D01*
X25798065Y-72166666D02*
X25798065Y-71333333D01*
X25798065Y-71333333D02*
X25964732Y-70999999D01*
X24464732Y-69333332D02*
X27964732Y-69333332D01*
X25798065Y-68999999D02*
X24464732Y-67999999D01*
X26798065Y-67999999D02*
X25464732Y-69333332D01*
X26798065Y-64999999D02*
X24464732Y-64999999D01*
X26798065Y-66499999D02*
X24964732Y-66499999D01*
X24964732Y-66499999D02*
X24631399Y-66333333D01*
X24631399Y-66333333D02*
X24464732Y-65999999D01*
X24464732Y-65999999D02*
X24464732Y-65499999D01*
X24464732Y-65499999D02*
X24631399Y-65166666D01*
X24631399Y-65166666D02*
X24798065Y-64999999D01*
X24464732Y-63333332D02*
X27964732Y-63333332D01*
X26631399Y-63333332D02*
X26798065Y-62999999D01*
X26798065Y-62999999D02*
X26798065Y-62333332D01*
X26798065Y-62333332D02*
X26631399Y-61999999D01*
X26631399Y-61999999D02*
X26464732Y-61833332D01*
X26464732Y-61833332D02*
X26131399Y-61666666D01*
X26131399Y-61666666D02*
X25131399Y-61666666D01*
X25131399Y-61666666D02*
X24798065Y-61833332D01*
X24798065Y-61833332D02*
X24631399Y-61999999D01*
X24631399Y-61999999D02*
X24464732Y-62333332D01*
X24464732Y-62333332D02*
X24464732Y-62999999D01*
X24464732Y-62999999D02*
X24631399Y-63333332D01*
X24464732Y-60166665D02*
X27964732Y-60166665D01*
X24464732Y-58166665D02*
X26464732Y-59666665D01*
X27964732Y-58166665D02*
X25964732Y-60166665D01*
X24464732Y-56666665D02*
X26798065Y-56666665D01*
X27964732Y-56666665D02*
X27798065Y-56833332D01*
X27798065Y-56833332D02*
X27631399Y-56666665D01*
X27631399Y-56666665D02*
X27798065Y-56499999D01*
X27798065Y-56499999D02*
X27964732Y-56666665D01*
X27964732Y-56666665D02*
X27631399Y-56666665D01*
X26798065Y-55333332D02*
X24464732Y-54499998D01*
X24464732Y-54499998D02*
X26798065Y-53666665D01*
X24464732Y-52333331D02*
X26798065Y-52333331D01*
X27964732Y-52333331D02*
X27798065Y-52499998D01*
X27798065Y-52499998D02*
X27631399Y-52333331D01*
X27631399Y-52333331D02*
X27798065Y-52166665D01*
X27798065Y-52166665D02*
X27964732Y-52333331D01*
X27964732Y-52333331D02*
X27631399Y-52333331D01*
D11*
X24095238Y-22550057D02*
X24190476Y-22502438D01*
X24190476Y-22502438D02*
X24285714Y-22407200D01*
X24285714Y-22407200D02*
X24428571Y-22264342D01*
X24428571Y-22264342D02*
X24523809Y-22216723D01*
X24523809Y-22216723D02*
X24619047Y-22216723D01*
X24571428Y-22454819D02*
X24666666Y-22407200D01*
X24666666Y-22407200D02*
X24761904Y-22311961D01*
X24761904Y-22311961D02*
X24809523Y-22121485D01*
X24809523Y-22121485D02*
X24809523Y-21788152D01*
X24809523Y-21788152D02*
X24761904Y-21597676D01*
X24761904Y-21597676D02*
X24666666Y-21502438D01*
X24666666Y-21502438D02*
X24571428Y-21454819D01*
X24571428Y-21454819D02*
X24380952Y-21454819D01*
X24380952Y-21454819D02*
X24285714Y-21502438D01*
X24285714Y-21502438D02*
X24190476Y-21597676D01*
X24190476Y-21597676D02*
X24142857Y-21788152D01*
X24142857Y-21788152D02*
X24142857Y-22121485D01*
X24142857Y-22121485D02*
X24190476Y-22311961D01*
X24190476Y-22311961D02*
X24285714Y-22407200D01*
X24285714Y-22407200D02*
X24380952Y-22454819D01*
X24380952Y-22454819D02*
X24571428Y-22454819D01*
X23761904Y-21550057D02*
X23714285Y-21502438D01*
X23714285Y-21502438D02*
X23619047Y-21454819D01*
X23619047Y-21454819D02*
X23380952Y-21454819D01*
X23380952Y-21454819D02*
X23285714Y-21502438D01*
X23285714Y-21502438D02*
X23238095Y-21550057D01*
X23238095Y-21550057D02*
X23190476Y-21645295D01*
X23190476Y-21645295D02*
X23190476Y-21740533D01*
X23190476Y-21740533D02*
X23238095Y-21883390D01*
X23238095Y-21883390D02*
X23809523Y-22454819D01*
X23809523Y-22454819D02*
X23190476Y-22454819D01*
X26501899Y-24058319D02*
X26501899Y-24296414D01*
X26739994Y-24201176D02*
X26501899Y-24296414D01*
X26501899Y-24296414D02*
X26263804Y-24201176D01*
X26644756Y-24486890D02*
X26501899Y-24296414D01*
X26501899Y-24296414D02*
X26359042Y-24486890D01*
X26501899Y-24058319D02*
X26501899Y-24296414D01*
X26739994Y-24201176D02*
X26501899Y-24296414D01*
X26501899Y-24296414D02*
X26263804Y-24201176D01*
X26644756Y-24486890D02*
X26501899Y-24296414D01*
X26501899Y-24296414D02*
X26359042Y-24486890D01*
X33116666Y-22304819D02*
X33449999Y-21828628D01*
X33688094Y-22304819D02*
X33688094Y-21304819D01*
X33688094Y-21304819D02*
X33307142Y-21304819D01*
X33307142Y-21304819D02*
X33211904Y-21352438D01*
X33211904Y-21352438D02*
X33164285Y-21400057D01*
X33164285Y-21400057D02*
X33116666Y-21495295D01*
X33116666Y-21495295D02*
X33116666Y-21638152D01*
X33116666Y-21638152D02*
X33164285Y-21733390D01*
X33164285Y-21733390D02*
X33211904Y-21781009D01*
X33211904Y-21781009D02*
X33307142Y-21828628D01*
X33307142Y-21828628D02*
X33688094Y-21828628D01*
X32211904Y-21304819D02*
X32688094Y-21304819D01*
X32688094Y-21304819D02*
X32735713Y-21781009D01*
X32735713Y-21781009D02*
X32688094Y-21733390D01*
X32688094Y-21733390D02*
X32592856Y-21685771D01*
X32592856Y-21685771D02*
X32354761Y-21685771D01*
X32354761Y-21685771D02*
X32259523Y-21733390D01*
X32259523Y-21733390D02*
X32211904Y-21781009D01*
X32211904Y-21781009D02*
X32164285Y-21876247D01*
X32164285Y-21876247D02*
X32164285Y-22114342D01*
X32164285Y-22114342D02*
X32211904Y-22209580D01*
X32211904Y-22209580D02*
X32259523Y-22257200D01*
X32259523Y-22257200D02*
X32354761Y-22304819D01*
X32354761Y-22304819D02*
X32592856Y-22304819D01*
X32592856Y-22304819D02*
X32688094Y-22257200D01*
X32688094Y-22257200D02*
X32735713Y-22209580D01*
X24104819Y-108533333D02*
X23628628Y-108200000D01*
X24104819Y-107961905D02*
X23104819Y-107961905D01*
X23104819Y-107961905D02*
X23104819Y-108342857D01*
X23104819Y-108342857D02*
X23152438Y-108438095D01*
X23152438Y-108438095D02*
X23200057Y-108485714D01*
X23200057Y-108485714D02*
X23295295Y-108533333D01*
X23295295Y-108533333D02*
X23438152Y-108533333D01*
X23438152Y-108533333D02*
X23533390Y-108485714D01*
X23533390Y-108485714D02*
X23581009Y-108438095D01*
X23581009Y-108438095D02*
X23628628Y-108342857D01*
X23628628Y-108342857D02*
X23628628Y-107961905D01*
X23438152Y-109390476D02*
X24104819Y-109390476D01*
X23057200Y-109152381D02*
X23771485Y-108914286D01*
X23771485Y-108914286D02*
X23771485Y-109533333D01*
X30666666Y-23804819D02*
X30999999Y-23328628D01*
X31238094Y-23804819D02*
X31238094Y-22804819D01*
X31238094Y-22804819D02*
X30857142Y-22804819D01*
X30857142Y-22804819D02*
X30761904Y-22852438D01*
X30761904Y-22852438D02*
X30714285Y-22900057D01*
X30714285Y-22900057D02*
X30666666Y-22995295D01*
X30666666Y-22995295D02*
X30666666Y-23138152D01*
X30666666Y-23138152D02*
X30714285Y-23233390D01*
X30714285Y-23233390D02*
X30761904Y-23281009D01*
X30761904Y-23281009D02*
X30857142Y-23328628D01*
X30857142Y-23328628D02*
X31238094Y-23328628D01*
X30333332Y-22804819D02*
X29714285Y-22804819D01*
X29714285Y-22804819D02*
X30047618Y-23185771D01*
X30047618Y-23185771D02*
X29904761Y-23185771D01*
X29904761Y-23185771D02*
X29809523Y-23233390D01*
X29809523Y-23233390D02*
X29761904Y-23281009D01*
X29761904Y-23281009D02*
X29714285Y-23376247D01*
X29714285Y-23376247D02*
X29714285Y-23614342D01*
X29714285Y-23614342D02*
X29761904Y-23709580D01*
X29761904Y-23709580D02*
X29809523Y-23757200D01*
X29809523Y-23757200D02*
X29904761Y-23804819D01*
X29904761Y-23804819D02*
X30190475Y-23804819D01*
X30190475Y-23804819D02*
X30285713Y-23757200D01*
X30285713Y-23757200D02*
X30333332Y-23709580D01*
X30166666Y-112604819D02*
X30499999Y-112128628D01*
X30738094Y-112604819D02*
X30738094Y-111604819D01*
X30738094Y-111604819D02*
X30357142Y-111604819D01*
X30357142Y-111604819D02*
X30261904Y-111652438D01*
X30261904Y-111652438D02*
X30214285Y-111700057D01*
X30214285Y-111700057D02*
X30166666Y-111795295D01*
X30166666Y-111795295D02*
X30166666Y-111938152D01*
X30166666Y-111938152D02*
X30214285Y-112033390D01*
X30214285Y-112033390D02*
X30261904Y-112081009D01*
X30261904Y-112081009D02*
X30357142Y-112128628D01*
X30357142Y-112128628D02*
X30738094Y-112128628D01*
X29214285Y-112604819D02*
X29785713Y-112604819D01*
X29499999Y-112604819D02*
X29499999Y-111604819D01*
X29499999Y-111604819D02*
X29595237Y-111747676D01*
X29595237Y-111747676D02*
X29690475Y-111842914D01*
X29690475Y-111842914D02*
X29785713Y-111890533D01*
X24095238Y-114550057D02*
X24190476Y-114502438D01*
X24190476Y-114502438D02*
X24285714Y-114407200D01*
X24285714Y-114407200D02*
X24428571Y-114264342D01*
X24428571Y-114264342D02*
X24523809Y-114216723D01*
X24523809Y-114216723D02*
X24619047Y-114216723D01*
X24571428Y-114454819D02*
X24666666Y-114407200D01*
X24666666Y-114407200D02*
X24761904Y-114311961D01*
X24761904Y-114311961D02*
X24809523Y-114121485D01*
X24809523Y-114121485D02*
X24809523Y-113788152D01*
X24809523Y-113788152D02*
X24761904Y-113597676D01*
X24761904Y-113597676D02*
X24666666Y-113502438D01*
X24666666Y-113502438D02*
X24571428Y-113454819D01*
X24571428Y-113454819D02*
X24380952Y-113454819D01*
X24380952Y-113454819D02*
X24285714Y-113502438D01*
X24285714Y-113502438D02*
X24190476Y-113597676D01*
X24190476Y-113597676D02*
X24142857Y-113788152D01*
X24142857Y-113788152D02*
X24142857Y-114121485D01*
X24142857Y-114121485D02*
X24190476Y-114311961D01*
X24190476Y-114311961D02*
X24285714Y-114407200D01*
X24285714Y-114407200D02*
X24380952Y-114454819D01*
X24380952Y-114454819D02*
X24571428Y-114454819D01*
X23190476Y-114454819D02*
X23761904Y-114454819D01*
X23476190Y-114454819D02*
X23476190Y-113454819D01*
X23476190Y-113454819D02*
X23571428Y-113597676D01*
X23571428Y-113597676D02*
X23666666Y-113692914D01*
X23666666Y-113692914D02*
X23761904Y-113740533D01*
X26501899Y-116058319D02*
X26501899Y-116296414D01*
X26739994Y-116201176D02*
X26501899Y-116296414D01*
X26501899Y-116296414D02*
X26263804Y-116201176D01*
X26644756Y-116486890D02*
X26501899Y-116296414D01*
X26501899Y-116296414D02*
X26359042Y-116486890D01*
X26501899Y-116058319D02*
X26501899Y-116296414D01*
X26739994Y-116201176D02*
X26501899Y-116296414D01*
X26501899Y-116296414D02*
X26263804Y-116201176D01*
X26644756Y-116486890D02*
X26501899Y-116296414D01*
X26501899Y-116296414D02*
X26359042Y-116486890D01*
X77966666Y-88054819D02*
X78299999Y-87578628D01*
X78538094Y-88054819D02*
X78538094Y-87054819D01*
X78538094Y-87054819D02*
X78157142Y-87054819D01*
X78157142Y-87054819D02*
X78061904Y-87102438D01*
X78061904Y-87102438D02*
X78014285Y-87150057D01*
X78014285Y-87150057D02*
X77966666Y-87245295D01*
X77966666Y-87245295D02*
X77966666Y-87388152D01*
X77966666Y-87388152D02*
X78014285Y-87483390D01*
X78014285Y-87483390D02*
X78061904Y-87531009D01*
X78061904Y-87531009D02*
X78157142Y-87578628D01*
X78157142Y-87578628D02*
X78538094Y-87578628D01*
X77633332Y-87054819D02*
X76966666Y-87054819D01*
X76966666Y-87054819D02*
X77395237Y-88054819D01*
X75966666Y-62054819D02*
X76299999Y-61578628D01*
X76538094Y-62054819D02*
X76538094Y-61054819D01*
X76538094Y-61054819D02*
X76157142Y-61054819D01*
X76157142Y-61054819D02*
X76061904Y-61102438D01*
X76061904Y-61102438D02*
X76014285Y-61150057D01*
X76014285Y-61150057D02*
X75966666Y-61245295D01*
X75966666Y-61245295D02*
X75966666Y-61388152D01*
X75966666Y-61388152D02*
X76014285Y-61483390D01*
X76014285Y-61483390D02*
X76061904Y-61531009D01*
X76061904Y-61531009D02*
X76157142Y-61578628D01*
X76157142Y-61578628D02*
X76538094Y-61578628D01*
X75109523Y-61054819D02*
X75299999Y-61054819D01*
X75299999Y-61054819D02*
X75395237Y-61102438D01*
X75395237Y-61102438D02*
X75442856Y-61150057D01*
X75442856Y-61150057D02*
X75538094Y-61292914D01*
X75538094Y-61292914D02*
X75585713Y-61483390D01*
X75585713Y-61483390D02*
X75585713Y-61864342D01*
X75585713Y-61864342D02*
X75538094Y-61959580D01*
X75538094Y-61959580D02*
X75490475Y-62007200D01*
X75490475Y-62007200D02*
X75395237Y-62054819D01*
X75395237Y-62054819D02*
X75204761Y-62054819D01*
X75204761Y-62054819D02*
X75109523Y-62007200D01*
X75109523Y-62007200D02*
X75061904Y-61959580D01*
X75061904Y-61959580D02*
X75014285Y-61864342D01*
X75014285Y-61864342D02*
X75014285Y-61626247D01*
X75014285Y-61626247D02*
X75061904Y-61531009D01*
X75061904Y-61531009D02*
X75109523Y-61483390D01*
X75109523Y-61483390D02*
X75204761Y-61435771D01*
X75204761Y-61435771D02*
X75395237Y-61435771D01*
X75395237Y-61435771D02*
X75490475Y-61483390D01*
X75490475Y-61483390D02*
X75538094Y-61531009D01*
X75538094Y-61531009D02*
X75585713Y-61626247D01*
X78879580Y-84783333D02*
X78927200Y-84735714D01*
X78927200Y-84735714D02*
X78974819Y-84592857D01*
X78974819Y-84592857D02*
X78974819Y-84497619D01*
X78974819Y-84497619D02*
X78927200Y-84354762D01*
X78927200Y-84354762D02*
X78831961Y-84259524D01*
X78831961Y-84259524D02*
X78736723Y-84211905D01*
X78736723Y-84211905D02*
X78546247Y-84164286D01*
X78546247Y-84164286D02*
X78403390Y-84164286D01*
X78403390Y-84164286D02*
X78212914Y-84211905D01*
X78212914Y-84211905D02*
X78117676Y-84259524D01*
X78117676Y-84259524D02*
X78022438Y-84354762D01*
X78022438Y-84354762D02*
X77974819Y-84497619D01*
X77974819Y-84497619D02*
X77974819Y-84592857D01*
X77974819Y-84592857D02*
X78022438Y-84735714D01*
X78022438Y-84735714D02*
X78070057Y-84783333D01*
X77974819Y-85640476D02*
X77974819Y-85450000D01*
X77974819Y-85450000D02*
X78022438Y-85354762D01*
X78022438Y-85354762D02*
X78070057Y-85307143D01*
X78070057Y-85307143D02*
X78212914Y-85211905D01*
X78212914Y-85211905D02*
X78403390Y-85164286D01*
X78403390Y-85164286D02*
X78784342Y-85164286D01*
X78784342Y-85164286D02*
X78879580Y-85211905D01*
X78879580Y-85211905D02*
X78927200Y-85259524D01*
X78927200Y-85259524D02*
X78974819Y-85354762D01*
X78974819Y-85354762D02*
X78974819Y-85545238D01*
X78974819Y-85545238D02*
X78927200Y-85640476D01*
X78927200Y-85640476D02*
X78879580Y-85688095D01*
X78879580Y-85688095D02*
X78784342Y-85735714D01*
X78784342Y-85735714D02*
X78546247Y-85735714D01*
X78546247Y-85735714D02*
X78451009Y-85688095D01*
X78451009Y-85688095D02*
X78403390Y-85640476D01*
X78403390Y-85640476D02*
X78355771Y-85545238D01*
X78355771Y-85545238D02*
X78355771Y-85354762D01*
X78355771Y-85354762D02*
X78403390Y-85259524D01*
X78403390Y-85259524D02*
X78451009Y-85211905D01*
X78451009Y-85211905D02*
X78546247Y-85164286D01*
X76916666Y-56559580D02*
X76964285Y-56607200D01*
X76964285Y-56607200D02*
X77107142Y-56654819D01*
X77107142Y-56654819D02*
X77202380Y-56654819D01*
X77202380Y-56654819D02*
X77345237Y-56607200D01*
X77345237Y-56607200D02*
X77440475Y-56511961D01*
X77440475Y-56511961D02*
X77488094Y-56416723D01*
X77488094Y-56416723D02*
X77535713Y-56226247D01*
X77535713Y-56226247D02*
X77535713Y-56083390D01*
X77535713Y-56083390D02*
X77488094Y-55892914D01*
X77488094Y-55892914D02*
X77440475Y-55797676D01*
X77440475Y-55797676D02*
X77345237Y-55702438D01*
X77345237Y-55702438D02*
X77202380Y-55654819D01*
X77202380Y-55654819D02*
X77107142Y-55654819D01*
X77107142Y-55654819D02*
X76964285Y-55702438D01*
X76964285Y-55702438D02*
X76916666Y-55750057D01*
X76011904Y-55654819D02*
X76488094Y-55654819D01*
X76488094Y-55654819D02*
X76535713Y-56131009D01*
X76535713Y-56131009D02*
X76488094Y-56083390D01*
X76488094Y-56083390D02*
X76392856Y-56035771D01*
X76392856Y-56035771D02*
X76154761Y-56035771D01*
X76154761Y-56035771D02*
X76059523Y-56083390D01*
X76059523Y-56083390D02*
X76011904Y-56131009D01*
X76011904Y-56131009D02*
X75964285Y-56226247D01*
X75964285Y-56226247D02*
X75964285Y-56464342D01*
X75964285Y-56464342D02*
X76011904Y-56559580D01*
X76011904Y-56559580D02*
X76059523Y-56607200D01*
X76059523Y-56607200D02*
X76154761Y-56654819D01*
X76154761Y-56654819D02*
X76392856Y-56654819D01*
X76392856Y-56654819D02*
X76488094Y-56607200D01*
X76488094Y-56607200D02*
X76535713Y-56559580D01*
X89842857Y-59239580D02*
X89890476Y-59287200D01*
X89890476Y-59287200D02*
X90033333Y-59334819D01*
X90033333Y-59334819D02*
X90128571Y-59334819D01*
X90128571Y-59334819D02*
X90271428Y-59287200D01*
X90271428Y-59287200D02*
X90366666Y-59191961D01*
X90366666Y-59191961D02*
X90414285Y-59096723D01*
X90414285Y-59096723D02*
X90461904Y-58906247D01*
X90461904Y-58906247D02*
X90461904Y-58763390D01*
X90461904Y-58763390D02*
X90414285Y-58572914D01*
X90414285Y-58572914D02*
X90366666Y-58477676D01*
X90366666Y-58477676D02*
X90271428Y-58382438D01*
X90271428Y-58382438D02*
X90128571Y-58334819D01*
X90128571Y-58334819D02*
X90033333Y-58334819D01*
X90033333Y-58334819D02*
X89890476Y-58382438D01*
X89890476Y-58382438D02*
X89842857Y-58430057D01*
X88890476Y-59334819D02*
X89461904Y-59334819D01*
X89176190Y-59334819D02*
X89176190Y-58334819D01*
X89176190Y-58334819D02*
X89271428Y-58477676D01*
X89271428Y-58477676D02*
X89366666Y-58572914D01*
X89366666Y-58572914D02*
X89461904Y-58620533D01*
X87938095Y-59334819D02*
X88509523Y-59334819D01*
X88223809Y-59334819D02*
X88223809Y-58334819D01*
X88223809Y-58334819D02*
X88319047Y-58477676D01*
X88319047Y-58477676D02*
X88414285Y-58572914D01*
X88414285Y-58572914D02*
X88509523Y-58620533D01*
X89642857Y-80879580D02*
X89690476Y-80927200D01*
X89690476Y-80927200D02*
X89833333Y-80974819D01*
X89833333Y-80974819D02*
X89928571Y-80974819D01*
X89928571Y-80974819D02*
X90071428Y-80927200D01*
X90071428Y-80927200D02*
X90166666Y-80831961D01*
X90166666Y-80831961D02*
X90214285Y-80736723D01*
X90214285Y-80736723D02*
X90261904Y-80546247D01*
X90261904Y-80546247D02*
X90261904Y-80403390D01*
X90261904Y-80403390D02*
X90214285Y-80212914D01*
X90214285Y-80212914D02*
X90166666Y-80117676D01*
X90166666Y-80117676D02*
X90071428Y-80022438D01*
X90071428Y-80022438D02*
X89928571Y-79974819D01*
X89928571Y-79974819D02*
X89833333Y-79974819D01*
X89833333Y-79974819D02*
X89690476Y-80022438D01*
X89690476Y-80022438D02*
X89642857Y-80070057D01*
X88690476Y-80974819D02*
X89261904Y-80974819D01*
X88976190Y-80974819D02*
X88976190Y-79974819D01*
X88976190Y-79974819D02*
X89071428Y-80117676D01*
X89071428Y-80117676D02*
X89166666Y-80212914D01*
X89166666Y-80212914D02*
X89261904Y-80260533D01*
X88309523Y-80070057D02*
X88261904Y-80022438D01*
X88261904Y-80022438D02*
X88166666Y-79974819D01*
X88166666Y-79974819D02*
X87928571Y-79974819D01*
X87928571Y-79974819D02*
X87833333Y-80022438D01*
X87833333Y-80022438D02*
X87785714Y-80070057D01*
X87785714Y-80070057D02*
X87738095Y-80165295D01*
X87738095Y-80165295D02*
X87738095Y-80260533D01*
X87738095Y-80260533D02*
X87785714Y-80403390D01*
X87785714Y-80403390D02*
X88357142Y-80974819D01*
X88357142Y-80974819D02*
X87738095Y-80974819D01*
X74254819Y-43161905D02*
X73254819Y-43161905D01*
X73254819Y-43161905D02*
X73254819Y-43400000D01*
X73254819Y-43400000D02*
X73302438Y-43542857D01*
X73302438Y-43542857D02*
X73397676Y-43638095D01*
X73397676Y-43638095D02*
X73492914Y-43685714D01*
X73492914Y-43685714D02*
X73683390Y-43733333D01*
X73683390Y-43733333D02*
X73826247Y-43733333D01*
X73826247Y-43733333D02*
X74016723Y-43685714D01*
X74016723Y-43685714D02*
X74111961Y-43638095D01*
X74111961Y-43638095D02*
X74207200Y-43542857D01*
X74207200Y-43542857D02*
X74254819Y-43400000D01*
X74254819Y-43400000D02*
X74254819Y-43161905D01*
X73254819Y-44066667D02*
X73254819Y-44685714D01*
X73254819Y-44685714D02*
X73635771Y-44352381D01*
X73635771Y-44352381D02*
X73635771Y-44495238D01*
X73635771Y-44495238D02*
X73683390Y-44590476D01*
X73683390Y-44590476D02*
X73731009Y-44638095D01*
X73731009Y-44638095D02*
X73826247Y-44685714D01*
X73826247Y-44685714D02*
X74064342Y-44685714D01*
X74064342Y-44685714D02*
X74159580Y-44638095D01*
X74159580Y-44638095D02*
X74207200Y-44590476D01*
X74207200Y-44590476D02*
X74254819Y-44495238D01*
X74254819Y-44495238D02*
X74254819Y-44209524D01*
X74254819Y-44209524D02*
X74207200Y-44114286D01*
X74207200Y-44114286D02*
X74159580Y-44066667D01*
D12*
%TO.C,Q2*%
X25524000Y-20506408D02*
X25524000Y-20069600D01*
X25524000Y-22309808D02*
X25524000Y-21690192D01*
X25524000Y-23930400D02*
X25524000Y-23493592D01*
X22476000Y-23930400D02*
X25524000Y-23930400D01*
X25524000Y-20069600D02*
X22476000Y-20069600D01*
X22476000Y-20069600D02*
X22476000Y-20506408D01*
X22476000Y-21690192D02*
X22476000Y-22309808D01*
X22476000Y-23493592D02*
X22476000Y-23930400D01*
D13*
%TO.C,R5*%
X31977064Y-19565000D02*
X31522936Y-19565000D01*
X31977064Y-21035000D02*
X31522936Y-21035000D01*
%TO.C,R4*%
X22735000Y-108472936D02*
X22735000Y-108927064D01*
X21265000Y-108472936D02*
X21265000Y-108927064D01*
%TO.C,R3*%
X31522936Y-25585000D02*
X31977064Y-25585000D01*
X31522936Y-24115000D02*
X31977064Y-24115000D01*
%TO.C,R1*%
X29772936Y-113065000D02*
X30227064Y-113065000D01*
X29772936Y-114535000D02*
X30227064Y-114535000D01*
D12*
%TO.C,Q1*%
X25524000Y-112506408D02*
X25524000Y-112069600D01*
X25524000Y-114309808D02*
X25524000Y-113690192D01*
X25524000Y-115930400D02*
X25524000Y-115493592D01*
X22476000Y-115930400D02*
X25524000Y-115930400D01*
X25524000Y-112069600D02*
X22476000Y-112069600D01*
X22476000Y-112069600D02*
X22476000Y-112506408D01*
X22476000Y-113690192D02*
X22476000Y-114309808D01*
X22476000Y-115493592D02*
X22476000Y-115930400D01*
D13*
%TO.C,R7*%
X78872936Y-89935000D02*
X79327064Y-89935000D01*
X78872936Y-88465000D02*
X79327064Y-88465000D01*
%TO.C,R6*%
X76472936Y-60835000D02*
X76927064Y-60835000D01*
X76472936Y-59365000D02*
X76927064Y-59365000D01*
%TO.C,C6*%
X80935000Y-85961252D02*
X80935000Y-85438748D01*
X79465000Y-85961252D02*
X79465000Y-85438748D01*
%TO.C,C5*%
X76961252Y-57065000D02*
X76438748Y-57065000D01*
X76961252Y-58535000D02*
X76438748Y-58535000D01*
%TO.C,C11*%
X89461252Y-56465000D02*
X88938748Y-56465000D01*
X89461252Y-57935000D02*
X88938748Y-57935000D01*
%TO.C,C12*%
X88738748Y-81465000D02*
X89261252Y-81465000D01*
X88738748Y-82935000D02*
X89261252Y-82935000D01*
%TO.C,D3*%
X69650000Y-41400000D02*
X69650000Y-48410000D01*
X69650000Y-48410000D02*
X72950000Y-48410000D01*
X72950000Y-41400000D02*
X72950000Y-48410000D01*
%TD*%
M02*
