%TF.GenerationSoftware,KiCad,Pcbnew,8.0.2*%
%TF.CreationDate,2024-10-05T18:09:16+02:00*%
%TF.ProjectId,CalkaBot_PCB,43616c6b-6142-46f7-945f-5043422e6b69,rev?*%
%TF.SameCoordinates,Original*%
%TF.FileFunction,Legend,Bot*%
%TF.FilePolarity,Positive*%
%FSLAX46Y46*%
G04 Gerber Fmt 4.6, Leading zero omitted, Abs format (unit mm)*
G04 Created by KiCad (PCBNEW 8.0.2) date 2024-10-05 18:09:16*
%MOMM*%
%LPD*%
G01*
G04 APERTURE LIST*
%ADD10C,0.150000*%
%ADD11C,0.120000*%
%ADD12C,0.152400*%
G04 APERTURE END LIST*
D10*
X89842857Y-59239580D02*
X89890476Y-59287200D01*
X89890476Y-59287200D02*
X90033333Y-59334819D01*
X90033333Y-59334819D02*
X90128571Y-59334819D01*
X90128571Y-59334819D02*
X90271428Y-59287200D01*
X90271428Y-59287200D02*
X90366666Y-59191961D01*
X90366666Y-59191961D02*
X90414285Y-59096723D01*
X90414285Y-59096723D02*
X90461904Y-58906247D01*
X90461904Y-58906247D02*
X90461904Y-58763390D01*
X90461904Y-58763390D02*
X90414285Y-58572914D01*
X90414285Y-58572914D02*
X90366666Y-58477676D01*
X90366666Y-58477676D02*
X90271428Y-58382438D01*
X90271428Y-58382438D02*
X90128571Y-58334819D01*
X90128571Y-58334819D02*
X90033333Y-58334819D01*
X90033333Y-58334819D02*
X89890476Y-58382438D01*
X89890476Y-58382438D02*
X89842857Y-58430057D01*
X88890476Y-59334819D02*
X89461904Y-59334819D01*
X89176190Y-59334819D02*
X89176190Y-58334819D01*
X89176190Y-58334819D02*
X89271428Y-58477676D01*
X89271428Y-58477676D02*
X89366666Y-58572914D01*
X89366666Y-58572914D02*
X89461904Y-58620533D01*
X87938095Y-59334819D02*
X88509523Y-59334819D01*
X88223809Y-59334819D02*
X88223809Y-58334819D01*
X88223809Y-58334819D02*
X88319047Y-58477676D01*
X88319047Y-58477676D02*
X88414285Y-58572914D01*
X88414285Y-58572914D02*
X88509523Y-58620533D01*
X25495238Y-112850057D02*
X25590476Y-112802438D01*
X25590476Y-112802438D02*
X25685714Y-112707200D01*
X25685714Y-112707200D02*
X25828571Y-112564342D01*
X25828571Y-112564342D02*
X25923809Y-112516723D01*
X25923809Y-112516723D02*
X26019047Y-112516723D01*
X25971428Y-112754819D02*
X26066666Y-112707200D01*
X26066666Y-112707200D02*
X26161904Y-112611961D01*
X26161904Y-112611961D02*
X26209523Y-112421485D01*
X26209523Y-112421485D02*
X26209523Y-112088152D01*
X26209523Y-112088152D02*
X26161904Y-111897676D01*
X26161904Y-111897676D02*
X26066666Y-111802438D01*
X26066666Y-111802438D02*
X25971428Y-111754819D01*
X25971428Y-111754819D02*
X25780952Y-111754819D01*
X25780952Y-111754819D02*
X25685714Y-111802438D01*
X25685714Y-111802438D02*
X25590476Y-111897676D01*
X25590476Y-111897676D02*
X25542857Y-112088152D01*
X25542857Y-112088152D02*
X25542857Y-112421485D01*
X25542857Y-112421485D02*
X25590476Y-112611961D01*
X25590476Y-112611961D02*
X25685714Y-112707200D01*
X25685714Y-112707200D02*
X25780952Y-112754819D01*
X25780952Y-112754819D02*
X25971428Y-112754819D01*
X25161904Y-111850057D02*
X25114285Y-111802438D01*
X25114285Y-111802438D02*
X25019047Y-111754819D01*
X25019047Y-111754819D02*
X24780952Y-111754819D01*
X24780952Y-111754819D02*
X24685714Y-111802438D01*
X24685714Y-111802438D02*
X24638095Y-111850057D01*
X24638095Y-111850057D02*
X24590476Y-111945295D01*
X24590476Y-111945295D02*
X24590476Y-112040533D01*
X24590476Y-112040533D02*
X24638095Y-112183390D01*
X24638095Y-112183390D02*
X25209523Y-112754819D01*
X25209523Y-112754819D02*
X24590476Y-112754819D01*
X27901899Y-114358319D02*
X27901899Y-114596414D01*
X28139994Y-114501176D02*
X27901899Y-114596414D01*
X27901899Y-114596414D02*
X27663804Y-114501176D01*
X28044756Y-114786890D02*
X27901899Y-114596414D01*
X27901899Y-114596414D02*
X27759042Y-114786890D01*
X27901899Y-114358319D02*
X27901899Y-114596414D01*
X28139994Y-114501176D02*
X27901899Y-114596414D01*
X27901899Y-114596414D02*
X27663804Y-114501176D01*
X28044756Y-114786890D02*
X27901899Y-114596414D01*
X27901899Y-114596414D02*
X27759042Y-114786890D01*
X32066666Y-115904819D02*
X32399999Y-115428628D01*
X32638094Y-115904819D02*
X32638094Y-114904819D01*
X32638094Y-114904819D02*
X32257142Y-114904819D01*
X32257142Y-114904819D02*
X32161904Y-114952438D01*
X32161904Y-114952438D02*
X32114285Y-115000057D01*
X32114285Y-115000057D02*
X32066666Y-115095295D01*
X32066666Y-115095295D02*
X32066666Y-115238152D01*
X32066666Y-115238152D02*
X32114285Y-115333390D01*
X32114285Y-115333390D02*
X32161904Y-115381009D01*
X32161904Y-115381009D02*
X32257142Y-115428628D01*
X32257142Y-115428628D02*
X32638094Y-115428628D01*
X31161904Y-114904819D02*
X31638094Y-114904819D01*
X31638094Y-114904819D02*
X31685713Y-115381009D01*
X31685713Y-115381009D02*
X31638094Y-115333390D01*
X31638094Y-115333390D02*
X31542856Y-115285771D01*
X31542856Y-115285771D02*
X31304761Y-115285771D01*
X31304761Y-115285771D02*
X31209523Y-115333390D01*
X31209523Y-115333390D02*
X31161904Y-115381009D01*
X31161904Y-115381009D02*
X31114285Y-115476247D01*
X31114285Y-115476247D02*
X31114285Y-115714342D01*
X31114285Y-115714342D02*
X31161904Y-115809580D01*
X31161904Y-115809580D02*
X31209523Y-115857200D01*
X31209523Y-115857200D02*
X31304761Y-115904819D01*
X31304761Y-115904819D02*
X31542856Y-115904819D01*
X31542856Y-115904819D02*
X31638094Y-115857200D01*
X31638094Y-115857200D02*
X31685713Y-115809580D01*
X33466666Y-29404819D02*
X33799999Y-28928628D01*
X34038094Y-29404819D02*
X34038094Y-28404819D01*
X34038094Y-28404819D02*
X33657142Y-28404819D01*
X33657142Y-28404819D02*
X33561904Y-28452438D01*
X33561904Y-28452438D02*
X33514285Y-28500057D01*
X33514285Y-28500057D02*
X33466666Y-28595295D01*
X33466666Y-28595295D02*
X33466666Y-28738152D01*
X33466666Y-28738152D02*
X33514285Y-28833390D01*
X33514285Y-28833390D02*
X33561904Y-28881009D01*
X33561904Y-28881009D02*
X33657142Y-28928628D01*
X33657142Y-28928628D02*
X34038094Y-28928628D01*
X32609523Y-28738152D02*
X32609523Y-29404819D01*
X32847618Y-28357200D02*
X33085713Y-29071485D01*
X33085713Y-29071485D02*
X32466666Y-29071485D01*
X33966666Y-26004819D02*
X34299999Y-25528628D01*
X34538094Y-26004819D02*
X34538094Y-25004819D01*
X34538094Y-25004819D02*
X34157142Y-25004819D01*
X34157142Y-25004819D02*
X34061904Y-25052438D01*
X34061904Y-25052438D02*
X34014285Y-25100057D01*
X34014285Y-25100057D02*
X33966666Y-25195295D01*
X33966666Y-25195295D02*
X33966666Y-25338152D01*
X33966666Y-25338152D02*
X34014285Y-25433390D01*
X34014285Y-25433390D02*
X34061904Y-25481009D01*
X34061904Y-25481009D02*
X34157142Y-25528628D01*
X34157142Y-25528628D02*
X34538094Y-25528628D01*
X33014285Y-26004819D02*
X33585713Y-26004819D01*
X33299999Y-26004819D02*
X33299999Y-25004819D01*
X33299999Y-25004819D02*
X33395237Y-25147676D01*
X33395237Y-25147676D02*
X33490475Y-25242914D01*
X33490475Y-25242914D02*
X33585713Y-25290533D01*
X89742857Y-77679580D02*
X89790476Y-77727200D01*
X89790476Y-77727200D02*
X89933333Y-77774819D01*
X89933333Y-77774819D02*
X90028571Y-77774819D01*
X90028571Y-77774819D02*
X90171428Y-77727200D01*
X90171428Y-77727200D02*
X90266666Y-77631961D01*
X90266666Y-77631961D02*
X90314285Y-77536723D01*
X90314285Y-77536723D02*
X90361904Y-77346247D01*
X90361904Y-77346247D02*
X90361904Y-77203390D01*
X90361904Y-77203390D02*
X90314285Y-77012914D01*
X90314285Y-77012914D02*
X90266666Y-76917676D01*
X90266666Y-76917676D02*
X90171428Y-76822438D01*
X90171428Y-76822438D02*
X90028571Y-76774819D01*
X90028571Y-76774819D02*
X89933333Y-76774819D01*
X89933333Y-76774819D02*
X89790476Y-76822438D01*
X89790476Y-76822438D02*
X89742857Y-76870057D01*
X88790476Y-77774819D02*
X89361904Y-77774819D01*
X89076190Y-77774819D02*
X89076190Y-76774819D01*
X89076190Y-76774819D02*
X89171428Y-76917676D01*
X89171428Y-76917676D02*
X89266666Y-77012914D01*
X89266666Y-77012914D02*
X89361904Y-77060533D01*
X88409523Y-76870057D02*
X88361904Y-76822438D01*
X88361904Y-76822438D02*
X88266666Y-76774819D01*
X88266666Y-76774819D02*
X88028571Y-76774819D01*
X88028571Y-76774819D02*
X87933333Y-76822438D01*
X87933333Y-76822438D02*
X87885714Y-76870057D01*
X87885714Y-76870057D02*
X87838095Y-76965295D01*
X87838095Y-76965295D02*
X87838095Y-77060533D01*
X87838095Y-77060533D02*
X87885714Y-77203390D01*
X87885714Y-77203390D02*
X88457142Y-77774819D01*
X88457142Y-77774819D02*
X87838095Y-77774819D01*
X75417319Y-40474405D02*
X74417319Y-40474405D01*
X74417319Y-40474405D02*
X74417319Y-40712500D01*
X74417319Y-40712500D02*
X74464938Y-40855357D01*
X74464938Y-40855357D02*
X74560176Y-40950595D01*
X74560176Y-40950595D02*
X74655414Y-40998214D01*
X74655414Y-40998214D02*
X74845890Y-41045833D01*
X74845890Y-41045833D02*
X74988747Y-41045833D01*
X74988747Y-41045833D02*
X75179223Y-40998214D01*
X75179223Y-40998214D02*
X75274461Y-40950595D01*
X75274461Y-40950595D02*
X75369700Y-40855357D01*
X75369700Y-40855357D02*
X75417319Y-40712500D01*
X75417319Y-40712500D02*
X75417319Y-40474405D01*
X74417319Y-41379167D02*
X74417319Y-41998214D01*
X74417319Y-41998214D02*
X74798271Y-41664881D01*
X74798271Y-41664881D02*
X74798271Y-41807738D01*
X74798271Y-41807738D02*
X74845890Y-41902976D01*
X74845890Y-41902976D02*
X74893509Y-41950595D01*
X74893509Y-41950595D02*
X74988747Y-41998214D01*
X74988747Y-41998214D02*
X75226842Y-41998214D01*
X75226842Y-41998214D02*
X75322080Y-41950595D01*
X75322080Y-41950595D02*
X75369700Y-41902976D01*
X75369700Y-41902976D02*
X75417319Y-41807738D01*
X75417319Y-41807738D02*
X75417319Y-41522024D01*
X75417319Y-41522024D02*
X75369700Y-41426786D01*
X75369700Y-41426786D02*
X75322080Y-41379167D01*
X32066666Y-112404819D02*
X32399999Y-111928628D01*
X32638094Y-112404819D02*
X32638094Y-111404819D01*
X32638094Y-111404819D02*
X32257142Y-111404819D01*
X32257142Y-111404819D02*
X32161904Y-111452438D01*
X32161904Y-111452438D02*
X32114285Y-111500057D01*
X32114285Y-111500057D02*
X32066666Y-111595295D01*
X32066666Y-111595295D02*
X32066666Y-111738152D01*
X32066666Y-111738152D02*
X32114285Y-111833390D01*
X32114285Y-111833390D02*
X32161904Y-111881009D01*
X32161904Y-111881009D02*
X32257142Y-111928628D01*
X32257142Y-111928628D02*
X32638094Y-111928628D01*
X31733332Y-111404819D02*
X31114285Y-111404819D01*
X31114285Y-111404819D02*
X31447618Y-111785771D01*
X31447618Y-111785771D02*
X31304761Y-111785771D01*
X31304761Y-111785771D02*
X31209523Y-111833390D01*
X31209523Y-111833390D02*
X31161904Y-111881009D01*
X31161904Y-111881009D02*
X31114285Y-111976247D01*
X31114285Y-111976247D02*
X31114285Y-112214342D01*
X31114285Y-112214342D02*
X31161904Y-112309580D01*
X31161904Y-112309580D02*
X31209523Y-112357200D01*
X31209523Y-112357200D02*
X31304761Y-112404819D01*
X31304761Y-112404819D02*
X31590475Y-112404819D01*
X31590475Y-112404819D02*
X31685713Y-112357200D01*
X31685713Y-112357200D02*
X31733332Y-112309580D01*
X26695238Y-24150057D02*
X26790476Y-24102438D01*
X26790476Y-24102438D02*
X26885714Y-24007200D01*
X26885714Y-24007200D02*
X27028571Y-23864342D01*
X27028571Y-23864342D02*
X27123809Y-23816723D01*
X27123809Y-23816723D02*
X27219047Y-23816723D01*
X27171428Y-24054819D02*
X27266666Y-24007200D01*
X27266666Y-24007200D02*
X27361904Y-23911961D01*
X27361904Y-23911961D02*
X27409523Y-23721485D01*
X27409523Y-23721485D02*
X27409523Y-23388152D01*
X27409523Y-23388152D02*
X27361904Y-23197676D01*
X27361904Y-23197676D02*
X27266666Y-23102438D01*
X27266666Y-23102438D02*
X27171428Y-23054819D01*
X27171428Y-23054819D02*
X26980952Y-23054819D01*
X26980952Y-23054819D02*
X26885714Y-23102438D01*
X26885714Y-23102438D02*
X26790476Y-23197676D01*
X26790476Y-23197676D02*
X26742857Y-23388152D01*
X26742857Y-23388152D02*
X26742857Y-23721485D01*
X26742857Y-23721485D02*
X26790476Y-23911961D01*
X26790476Y-23911961D02*
X26885714Y-24007200D01*
X26885714Y-24007200D02*
X26980952Y-24054819D01*
X26980952Y-24054819D02*
X27171428Y-24054819D01*
X25790476Y-24054819D02*
X26361904Y-24054819D01*
X26076190Y-24054819D02*
X26076190Y-23054819D01*
X26076190Y-23054819D02*
X26171428Y-23197676D01*
X26171428Y-23197676D02*
X26266666Y-23292914D01*
X26266666Y-23292914D02*
X26361904Y-23340533D01*
X29101899Y-25658319D02*
X29101899Y-25896414D01*
X29339994Y-25801176D02*
X29101899Y-25896414D01*
X29101899Y-25896414D02*
X28863804Y-25801176D01*
X29244756Y-26086890D02*
X29101899Y-25896414D01*
X29101899Y-25896414D02*
X28959042Y-26086890D01*
X29101899Y-25658319D02*
X29101899Y-25896414D01*
X29339994Y-25801176D02*
X29101899Y-25896414D01*
X29101899Y-25896414D02*
X28863804Y-25801176D01*
X29244756Y-26086890D02*
X29101899Y-25896414D01*
X29101899Y-25896414D02*
X28959042Y-26086890D01*
D11*
%TO.C,C11*%
X89461252Y-56465000D02*
X88938748Y-56465000D01*
X89461252Y-57935000D02*
X88938748Y-57935000D01*
D12*
%TO.C,Q2*%
X23876000Y-110369600D02*
X23876000Y-110806408D01*
X23876000Y-111990192D02*
X23876000Y-112609808D01*
X23876000Y-113793592D02*
X23876000Y-114230400D01*
X23876000Y-114230400D02*
X26924000Y-114230400D01*
X26924000Y-110369600D02*
X23876000Y-110369600D01*
X26924000Y-110806408D02*
X26924000Y-110369600D01*
X26924000Y-112609808D02*
X26924000Y-111990192D01*
X26924000Y-114230400D02*
X26924000Y-113793592D01*
D11*
%TO.C,R5*%
X32127064Y-113065000D02*
X31672936Y-113065000D01*
X32127064Y-114535000D02*
X31672936Y-114535000D01*
%TO.C,R4*%
X33527064Y-26565000D02*
X33072936Y-26565000D01*
X33527064Y-28035000D02*
X33072936Y-28035000D01*
%TO.C,R1*%
X34027064Y-23165000D02*
X33572936Y-23165000D01*
X34027064Y-24635000D02*
X33572936Y-24635000D01*
%TO.C,C12*%
X88838748Y-78265000D02*
X89361252Y-78265000D01*
X88838748Y-79735000D02*
X89361252Y-79735000D01*
%TO.C,D3*%
X70812500Y-38712500D02*
X70812500Y-45722500D01*
X70812500Y-45722500D02*
X74112500Y-45722500D01*
X74112500Y-38712500D02*
X74112500Y-45722500D01*
%TO.C,R3*%
X32127064Y-109565000D02*
X31672936Y-109565000D01*
X32127064Y-111035000D02*
X31672936Y-111035000D01*
D12*
%TO.C,Q1*%
X25076000Y-21669600D02*
X25076000Y-22106408D01*
X25076000Y-23290192D02*
X25076000Y-23909808D01*
X25076000Y-25093592D02*
X25076000Y-25530400D01*
X25076000Y-25530400D02*
X28124000Y-25530400D01*
X28124000Y-21669600D02*
X25076000Y-21669600D01*
X28124000Y-22106408D02*
X28124000Y-21669600D01*
X28124000Y-23909808D02*
X28124000Y-23290192D01*
X28124000Y-25530400D02*
X28124000Y-25093592D01*
%TD*%
M02*
