%TF.GenerationSoftware,KiCad,Pcbnew,8.0.2*%
%TF.CreationDate,2024-10-27T19:27:45+01:00*%
%TF.ProjectId,CalkaBot_PCB,43616c6b-6142-46f7-945f-5043422e6b69,rev?*%
%TF.SameCoordinates,Original*%
%TF.FileFunction,Paste,Top*%
%TF.FilePolarity,Positive*%
%FSLAX46Y46*%
G04 Gerber Fmt 4.6, Leading zero omitted, Abs format (unit mm)*
G04 Created by KiCad (PCBNEW 8.0.2) date 2024-10-27 19:27:45*
%MOMM*%
%LPD*%
G01*
G04 APERTURE LIST*
G04 Aperture macros list*
%AMRoundRect*
0 Rectangle with rounded corners*
0 $1 Rounding radius*
0 $2 $3 $4 $5 $6 $7 $8 $9 X,Y pos of 4 corners*
0 Add a 4 corners polygon primitive as box body*
4,1,4,$2,$3,$4,$5,$6,$7,$8,$9,$2,$3,0*
0 Add four circle primitives for the rounded corners*
1,1,$1+$1,$2,$3*
1,1,$1+$1,$4,$5*
1,1,$1+$1,$6,$7*
1,1,$1+$1,$8,$9*
0 Add four rect primitives between the rounded corners*
20,1,$1+$1,$2,$3,$4,$5,0*
20,1,$1+$1,$4,$5,$6,$7,0*
20,1,$1+$1,$6,$7,$8,$9,0*
20,1,$1+$1,$8,$9,$2,$3,0*%
G04 Aperture macros list end*
%ADD10C,0.010000*%
%ADD11RoundRect,0.250000X-0.450000X0.325000X-0.450000X-0.325000X0.450000X-0.325000X0.450000X0.325000X0*%
%ADD12RoundRect,0.250000X-0.350000X-0.450000X0.350000X-0.450000X0.350000X0.450000X-0.350000X0.450000X0*%
%ADD13R,0.700000X2.000000*%
%ADD14RoundRect,0.250000X-0.450000X0.350000X-0.450000X-0.350000X0.450000X-0.350000X0.450000X0.350000X0*%
%ADD15RoundRect,0.250000X0.550000X-1.500000X0.550000X1.500000X-0.550000X1.500000X-0.550000X-1.500000X0*%
%ADD16RoundRect,0.375000X0.625000X0.375000X-0.625000X0.375000X-0.625000X-0.375000X0.625000X-0.375000X0*%
%ADD17RoundRect,0.500000X0.500000X1.400000X-0.500000X1.400000X-0.500000X-1.400000X0.500000X-1.400000X0*%
%ADD18RoundRect,0.250000X-0.337500X-0.475000X0.337500X-0.475000X0.337500X0.475000X-0.337500X0.475000X0*%
%ADD19RoundRect,0.250000X0.475000X-0.337500X0.475000X0.337500X-0.475000X0.337500X-0.475000X-0.337500X0*%
%ADD20RoundRect,0.150000X-0.200000X0.150000X-0.200000X-0.150000X0.200000X-0.150000X0.200000X0.150000X0*%
%ADD21RoundRect,0.250000X-0.475000X0.337500X-0.475000X-0.337500X0.475000X-0.337500X0.475000X0.337500X0*%
%ADD22R,3.000000X1.600000*%
%ADD23RoundRect,0.150000X0.150000X0.200000X-0.150000X0.200000X-0.150000X-0.200000X0.150000X-0.200000X0*%
%ADD24RoundRect,0.250000X0.450000X-0.350000X0.450000X0.350000X-0.450000X0.350000X-0.450000X-0.350000X0*%
G04 APERTURE END LIST*
D10*
%TO.C,CR1*%
X92415000Y-69900000D02*
X86413940Y-69900000D01*
X86413940Y-66099330D01*
X92415000Y-66099330D01*
X92415000Y-69900000D01*
G36*
X92415000Y-69900000D02*
G01*
X86413940Y-69900000D01*
X86413940Y-66099330D01*
X92415000Y-66099330D01*
X92415000Y-69900000D01*
G37*
%TO.C,U1*%
X62957500Y-42357500D02*
X61547500Y-42357500D01*
X61547500Y-40947500D01*
X62957500Y-40947500D01*
X62957500Y-42357500D01*
G36*
X62957500Y-42357500D02*
G01*
X61547500Y-42357500D01*
X61547500Y-40947500D01*
X62957500Y-40947500D01*
X62957500Y-42357500D01*
G37*
X62957500Y-44817500D02*
X61547500Y-44817500D01*
X61547500Y-43407500D01*
X62957500Y-43407500D01*
X62957500Y-44817500D01*
G36*
X62957500Y-44817500D02*
G01*
X61547500Y-44817500D01*
X61547500Y-43407500D01*
X62957500Y-43407500D01*
X62957500Y-44817500D01*
G37*
X62957500Y-47277500D02*
X61547500Y-47277500D01*
X61547500Y-45867500D01*
X62957500Y-45867500D01*
X62957500Y-47277500D01*
G36*
X62957500Y-47277500D02*
G01*
X61547500Y-47277500D01*
X61547500Y-45867500D01*
X62957500Y-45867500D01*
X62957500Y-47277500D01*
G37*
X65417500Y-42357500D02*
X64007500Y-42357500D01*
X64007500Y-40947500D01*
X65417500Y-40947500D01*
X65417500Y-42357500D01*
G36*
X65417500Y-42357500D02*
G01*
X64007500Y-42357500D01*
X64007500Y-40947500D01*
X65417500Y-40947500D01*
X65417500Y-42357500D01*
G37*
X65417500Y-44817500D02*
X64007500Y-44817500D01*
X64007500Y-43407500D01*
X65417500Y-43407500D01*
X65417500Y-44817500D01*
G36*
X65417500Y-44817500D02*
G01*
X64007500Y-44817500D01*
X64007500Y-43407500D01*
X65417500Y-43407500D01*
X65417500Y-44817500D01*
G37*
X65417500Y-47277500D02*
X64007500Y-47277500D01*
X64007500Y-45867500D01*
X65417500Y-45867500D01*
X65417500Y-47277500D01*
G36*
X65417500Y-47277500D02*
G01*
X64007500Y-47277500D01*
X64007500Y-45867500D01*
X65417500Y-45867500D01*
X65417500Y-47277500D01*
G37*
X67877500Y-42357500D02*
X66467500Y-42357500D01*
X66467500Y-40947500D01*
X67877500Y-40947500D01*
X67877500Y-42357500D01*
G36*
X67877500Y-42357500D02*
G01*
X66467500Y-42357500D01*
X66467500Y-40947500D01*
X67877500Y-40947500D01*
X67877500Y-42357500D01*
G37*
X67877500Y-44817500D02*
X66467500Y-44817500D01*
X66467500Y-43407500D01*
X67877500Y-43407500D01*
X67877500Y-44817500D01*
G36*
X67877500Y-44817500D02*
G01*
X66467500Y-44817500D01*
X66467500Y-43407500D01*
X67877500Y-43407500D01*
X67877500Y-44817500D01*
G37*
X67877500Y-47277500D02*
X66467500Y-47277500D01*
X66467500Y-45867500D01*
X67877500Y-45867500D01*
X67877500Y-47277500D01*
G36*
X67877500Y-47277500D02*
G01*
X66467500Y-47277500D01*
X66467500Y-45867500D01*
X67877500Y-45867500D01*
X67877500Y-47277500D01*
G37*
%TD*%
D11*
%TO.C,D4*%
X80600000Y-79975000D03*
X80600000Y-82025000D03*
%TD*%
D12*
%TO.C,R9*%
X76400000Y-82000000D03*
X78400000Y-82000000D03*
%TD*%
D13*
%TO.C,CR1*%
X95130000Y-61300000D03*
X93860000Y-61300000D03*
X92590000Y-61300000D03*
X91320000Y-61300000D03*
X90050000Y-61300000D03*
X88780000Y-61300000D03*
X87510000Y-61300000D03*
X86240000Y-61300000D03*
X84970000Y-61300000D03*
X83700000Y-61300000D03*
X83700000Y-74700000D03*
X84970000Y-74700000D03*
X86240000Y-74700000D03*
X87510000Y-74700000D03*
X88780000Y-74700000D03*
X90050000Y-74700000D03*
X91320000Y-74700000D03*
X92590000Y-74700000D03*
X93860000Y-74700000D03*
X95130000Y-74700000D03*
%TD*%
D14*
%TO.C,R8*%
X73700000Y-56200000D03*
X73700000Y-54200000D03*
%TD*%
D15*
%TO.C,C8*%
X78400000Y-60500000D03*
X78400000Y-55100000D03*
%TD*%
D16*
%TO.C,Q3*%
X80950000Y-49300000D03*
D17*
X74650000Y-49300000D03*
D16*
X80950000Y-51600000D03*
X80950000Y-47000000D03*
%TD*%
D18*
%TO.C,C1*%
X59762500Y-34200000D03*
X61837500Y-34200000D03*
%TD*%
D19*
%TO.C,C3*%
X100650000Y-78987500D03*
X100650000Y-76912500D03*
%TD*%
D20*
%TO.C,D1*%
X98500000Y-80950000D03*
X98500000Y-79550000D03*
%TD*%
D21*
%TO.C,C4*%
X96400000Y-81387500D03*
X96400000Y-79312500D03*
%TD*%
D22*
%TO.C,U1*%
X58062500Y-41812500D03*
X58062500Y-46412500D03*
%TD*%
D18*
%TO.C,C2*%
X59162500Y-48900000D03*
X61237500Y-48900000D03*
%TD*%
D23*
%TO.C,D2*%
X98700000Y-83350000D03*
X97300000Y-83350000D03*
%TD*%
D19*
%TO.C,C9*%
X64862500Y-51350000D03*
X64862500Y-49275000D03*
%TD*%
D24*
%TO.C,R2*%
X100650000Y-82850000D03*
X100650000Y-80850000D03*
%TD*%
D18*
%TO.C,C7*%
X96362500Y-58500000D03*
X98437500Y-58500000D03*
%TD*%
M02*
