%TF.GenerationSoftware,KiCad,Pcbnew,8.0.2*%
%TF.CreationDate,2024-10-05T18:09:16+02:00*%
%TF.ProjectId,CalkaBot_PCB,43616c6b-6142-46f7-945f-5043422e6b69,rev?*%
%TF.SameCoordinates,Original*%
%TF.FileFunction,Copper,L1,Top*%
%TF.FilePolarity,Positive*%
%FSLAX46Y46*%
G04 Gerber Fmt 4.6, Leading zero omitted, Abs format (unit mm)*
G04 Created by KiCad (PCBNEW 8.0.2) date 2024-10-05 18:09:16*
%MOMM*%
%LPD*%
G01*
G04 APERTURE LIST*
G04 Aperture macros list*
%AMRoundRect*
0 Rectangle with rounded corners*
0 $1 Rounding radius*
0 $2 $3 $4 $5 $6 $7 $8 $9 X,Y pos of 4 corners*
0 Add a 4 corners polygon primitive as box body*
4,1,4,$2,$3,$4,$5,$6,$7,$8,$9,$2,$3,0*
0 Add four circle primitives for the rounded corners*
1,1,$1+$1,$2,$3*
1,1,$1+$1,$4,$5*
1,1,$1+$1,$6,$7*
1,1,$1+$1,$8,$9*
0 Add four rect primitives between the rounded corners*
20,1,$1+$1,$2,$3,$4,$5,0*
20,1,$1+$1,$4,$5,$6,$7,0*
20,1,$1+$1,$6,$7,$8,$9,0*
20,1,$1+$1,$8,$9,$2,$3,0*%
G04 Aperture macros list end*
%TA.AperFunction,ComponentPad*%
%ADD10R,1.600000X1.600000*%
%TD*%
%TA.AperFunction,ComponentPad*%
%ADD11O,1.600000X1.600000*%
%TD*%
%TA.AperFunction,SMDPad,CuDef*%
%ADD12RoundRect,0.250000X1.000000X-1.950000X1.000000X1.950000X-1.000000X1.950000X-1.000000X-1.950000X0*%
%TD*%
%TA.AperFunction,ComponentPad*%
%ADD13C,1.524000*%
%TD*%
%TA.AperFunction,SMDPad,CuDef*%
%ADD14RoundRect,0.250000X-0.337500X-0.475000X0.337500X-0.475000X0.337500X0.475000X-0.337500X0.475000X0*%
%TD*%
%TA.AperFunction,ComponentPad*%
%ADD15R,1.700000X1.700000*%
%TD*%
%TA.AperFunction,ComponentPad*%
%ADD16O,1.700000X1.700000*%
%TD*%
%TA.AperFunction,SMDPad,CuDef*%
%ADD17RoundRect,0.250000X-0.475000X0.337500X-0.475000X-0.337500X0.475000X-0.337500X0.475000X0.337500X0*%
%TD*%
%TA.AperFunction,SMDPad,CuDef*%
%ADD18RoundRect,0.150000X-0.200000X0.150000X-0.200000X-0.150000X0.200000X-0.150000X0.200000X0.150000X0*%
%TD*%
%TA.AperFunction,SMDPad,CuDef*%
%ADD19RoundRect,0.250000X-0.450000X0.350000X-0.450000X-0.350000X0.450000X-0.350000X0.450000X0.350000X0*%
%TD*%
%TA.AperFunction,ComponentPad*%
%ADD20RoundRect,0.250000X-0.625000X0.350000X-0.625000X-0.350000X0.625000X-0.350000X0.625000X0.350000X0*%
%TD*%
%TA.AperFunction,ComponentPad*%
%ADD21O,1.750000X1.200000*%
%TD*%
%TA.AperFunction,SMDPad,CuDef*%
%ADD22R,3.000000X1.600000*%
%TD*%
%TA.AperFunction,SMDPad,CuDef*%
%ADD23R,6.700000X6.700000*%
%TD*%
%TA.AperFunction,ComponentPad*%
%ADD24RoundRect,0.250000X0.350000X0.625000X-0.350000X0.625000X-0.350000X-0.625000X0.350000X-0.625000X0*%
%TD*%
%TA.AperFunction,ComponentPad*%
%ADD25O,1.200000X1.750000*%
%TD*%
%TA.AperFunction,SMDPad,CuDef*%
%ADD26RoundRect,0.150000X-0.150000X0.850000X-0.150000X-0.850000X0.150000X-0.850000X0.150000X0.850000X0*%
%TD*%
%TA.AperFunction,HeatsinkPad*%
%ADD27C,0.490000*%
%TD*%
%TA.AperFunction,HeatsinkPad*%
%ADD28R,12.090000X6.045000*%
%TD*%
%TA.AperFunction,SMDPad,CuDef*%
%ADD29RoundRect,0.250000X0.350000X0.450000X-0.350000X0.450000X-0.350000X-0.450000X0.350000X-0.450000X0*%
%TD*%
%TA.AperFunction,SMDPad,CuDef*%
%ADD30RoundRect,0.250000X0.475000X-0.337500X0.475000X0.337500X-0.475000X0.337500X-0.475000X-0.337500X0*%
%TD*%
%TA.AperFunction,SMDPad,CuDef*%
%ADD31RoundRect,0.375000X-0.625000X-0.375000X0.625000X-0.375000X0.625000X0.375000X-0.625000X0.375000X0*%
%TD*%
%TA.AperFunction,SMDPad,CuDef*%
%ADD32RoundRect,0.500000X-0.500000X-1.400000X0.500000X-1.400000X0.500000X1.400000X-0.500000X1.400000X0*%
%TD*%
%TA.AperFunction,ViaPad*%
%ADD33C,0.600000*%
%TD*%
%TA.AperFunction,ViaPad*%
%ADD34C,0.800000*%
%TD*%
%TA.AperFunction,ViaPad*%
%ADD35C,1.000000*%
%TD*%
%TA.AperFunction,Conductor*%
%ADD36C,0.500000*%
%TD*%
%TA.AperFunction,Conductor*%
%ADD37C,1.000000*%
%TD*%
%TA.AperFunction,Conductor*%
%ADD38C,1.500000*%
%TD*%
%TA.AperFunction,Conductor*%
%ADD39C,0.800000*%
%TD*%
%TA.AperFunction,Conductor*%
%ADD40C,0.200000*%
%TD*%
G04 APERTURE END LIST*
D10*
%TO.P,A1,1,D1/TX*%
%TO.N,unconnected-(A1-D1{slash}TX-Pad1)*%
X57990000Y-61750000D03*
D11*
%TO.P,A1,2,D0/RX*%
%TO.N,unconnected-(A1-D0{slash}RX-Pad2)*%
X57990000Y-64290000D03*
%TO.P,A1,3,~{RESET}*%
%TO.N,unconnected-(A1-~{RESET}-Pad3)*%
X57990000Y-66830000D03*
%TO.P,A1,4,GND*%
%TO.N,GND*%
X57990000Y-69370000D03*
%TO.P,A1,5,D2*%
%TO.N,START_MODULE*%
X57990000Y-71910000D03*
%TO.P,A1,6,D3*%
%TO.N,M_FRONT*%
X57990000Y-74450000D03*
%TO.P,A1,7,D4*%
%TO.N,Net-(A1-D4)*%
X57990000Y-76990000D03*
%TO.P,A1,8,D5*%
%TO.N,Net-(A1-D5)*%
X57990000Y-79530000D03*
%TO.P,A1,9,D6*%
%TO.N,Net-(A1-D6)*%
X57990000Y-82070000D03*
%TO.P,A1,10,D7*%
%TO.N,Net-(A1-D7)*%
X57990000Y-84610000D03*
%TO.P,A1,11,D8*%
%TO.N,M_IN2A*%
X57990000Y-87150000D03*
%TO.P,A1,12,D9*%
%TO.N,M_IN1A*%
X57990000Y-89690000D03*
%TO.P,A1,13,D10*%
%TO.N,M_IN1B*%
X57990000Y-92230000D03*
%TO.P,A1,14,D11*%
%TO.N,M_IN2B*%
X57990000Y-94770000D03*
%TO.P,A1,15,D12*%
%TO.N,M_ENB*%
X57990000Y-97310000D03*
%TO.P,A1,16,D13*%
%TO.N,M_ENA*%
X73230000Y-97310000D03*
%TO.P,A1,17,3V3*%
%TO.N,unconnected-(A1-3V3-Pad17)*%
X73230000Y-94770000D03*
%TO.P,A1,18,AREF*%
%TO.N,unconnected-(A1-AREF-Pad18)*%
X73230000Y-92230000D03*
%TO.P,A1,19,A0*%
%TO.N,FLOOR_SENSOR_RIGHT*%
X73230000Y-89690000D03*
%TO.P,A1,20,A1*%
%TO.N,FLOOR_SENSOR_LEFT*%
X73230000Y-87150000D03*
%TO.P,A1,21,A2*%
%TO.N,Net-(A1-A2)*%
X73230000Y-84610000D03*
%TO.P,A1,22,A3*%
%TO.N,Net-(A1-A3)*%
X73230000Y-82070000D03*
%TO.P,A1,23,A4*%
%TO.N,Net-(A1-A4)*%
X73230000Y-79530000D03*
%TO.P,A1,24,A5*%
%TO.N,unconnected-(A1-A5-Pad24)*%
X73230000Y-76990000D03*
%TO.P,A1,25,A6*%
%TO.N,unconnected-(A1-A6-Pad25)*%
X73230000Y-74450000D03*
%TO.P,A1,26,A7*%
%TO.N,unconnected-(A1-A7-Pad26)*%
X73230000Y-71910000D03*
%TO.P,A1,27,+5V*%
%TO.N,unconnected-(A1-+5V-Pad27)*%
X73230000Y-69370000D03*
%TO.P,A1,28,~{RESET}*%
%TO.N,unconnected-(A1-~{RESET}-Pad28)*%
X73230000Y-66830000D03*
%TO.P,A1,29,GND*%
%TO.N,GND*%
X73230000Y-64290000D03*
%TO.P,A1,30,VIN*%
%TO.N,+5V*%
X73230000Y-61750000D03*
%TD*%
D12*
%TO.P,C8,1*%
%TO.N,MotorPower*%
X80100000Y-68500000D03*
%TO.P,C8,2*%
%TO.N,GND*%
X80100000Y-61100000D03*
%TD*%
D13*
%TO.P,M1,1,+*%
%TO.N,Net-(CR1-OUT2A)*%
X92500000Y-59000000D03*
%TO.P,M1,2,-*%
%TO.N,Net-(CR1-OUT1A)*%
X85500000Y-59000000D03*
%TD*%
D14*
%TO.P,C1,1*%
%TO.N,MotorPower*%
X59762500Y-34200000D03*
%TO.P,C1,2*%
%TO.N,GND*%
X61837500Y-34200000D03*
%TD*%
D10*
%TO.P,SW1,1*%
%TO.N,GND*%
X59760000Y-114520000D03*
D11*
%TO.P,SW1,2*%
X62300000Y-114520000D03*
%TO.P,SW1,3*%
X64840000Y-114520000D03*
%TO.P,SW1,4*%
X67380000Y-114520000D03*
%TO.P,SW1,5*%
%TO.N,Net-(A1-D7)*%
X67380000Y-106900000D03*
%TO.P,SW1,6*%
%TO.N,Net-(A1-D6)*%
X64840000Y-106900000D03*
%TO.P,SW1,7*%
%TO.N,Net-(A1-D5)*%
X62300000Y-106900000D03*
%TO.P,SW1,8*%
%TO.N,Net-(A1-D4)*%
X59760000Y-106900000D03*
%TD*%
D15*
%TO.P,J4,1,Pin_1*%
%TO.N,MotorPower*%
X58762500Y-37187500D03*
D16*
%TO.P,J4,2,Pin_2*%
%TO.N,GND*%
X61302500Y-37187500D03*
%TD*%
D15*
%TO.P,J6,1,Pin_1*%
%TO.N,+5V*%
X66240000Y-55700000D03*
D16*
%TO.P,J6,2,Pin_2*%
%TO.N,GND*%
X63700000Y-55700000D03*
%TO.P,J6,3,Pin_3*%
%TO.N,START_MODULE*%
X61160000Y-55700000D03*
%TD*%
D17*
%TO.P,C3,1*%
%TO.N,Net-(C3-Pad1)*%
X99350000Y-81262500D03*
%TO.P,C3,2*%
%TO.N,Net-(CR1-VCP)*%
X99350000Y-83337500D03*
%TD*%
D18*
%TO.P,D1,1,K*%
%TO.N,Net-(D1-K)*%
X99600000Y-75700000D03*
%TO.P,D1,2,A*%
%TO.N,MotorPower*%
X99600000Y-74300000D03*
%TD*%
D17*
%TO.P,C4,1*%
%TO.N,MotorPower*%
X96600000Y-75462500D03*
%TO.P,C4,2*%
%TO.N,Net-(CR1-VBOOT)*%
X96600000Y-77537500D03*
%TD*%
D19*
%TO.P,R7,1*%
%TO.N,Net-(CR1-ENB)*%
X78800000Y-82600000D03*
%TO.P,R7,2*%
%TO.N,M_ENB*%
X78800000Y-84600000D03*
%TD*%
D20*
%TO.P,J3,1,Pin_1*%
%TO.N,+5V*%
X67950000Y-22400000D03*
D21*
%TO.P,J3,2,Pin_2*%
%TO.N,GND*%
X67950000Y-24400000D03*
%TO.P,J3,3,Pin_3*%
%TO.N,Net-(A1-A3)*%
X67950000Y-26400000D03*
%TD*%
D22*
%TO.P,U1,1,IN*%
%TO.N,MotorPower*%
X58062500Y-41812500D03*
D23*
%TO.P,U1,2,GND*%
%TO.N,GND*%
X64712500Y-44112500D03*
D22*
%TO.P,U1,3,OUT*%
%TO.N,+5V*%
X58062500Y-46412500D03*
%TD*%
D14*
%TO.P,C2,1*%
%TO.N,+5V*%
X59162500Y-48900000D03*
%TO.P,C2,2*%
%TO.N,GND*%
X61237500Y-48900000D03*
%TD*%
D24*
%TO.P,J1,1,Pin_1*%
%TO.N,+5V*%
X69400000Y-32800000D03*
D25*
%TO.P,J1,2,Pin_2*%
%TO.N,GND*%
X67400000Y-32800000D03*
%TO.P,J1,3,Pin_3*%
%TO.N,Net-(A1-A4)*%
X65400000Y-32800000D03*
%TD*%
D18*
%TO.P,D2,1,K*%
%TO.N,Net-(CR1-VBOOT)*%
X96700000Y-82000000D03*
%TO.P,D2,2,A*%
%TO.N,Net-(D1-K)*%
X96700000Y-80600000D03*
%TD*%
D13*
%TO.P,M2,1,+*%
%TO.N,Net-(CR1-OUT1B)*%
X85500000Y-76956000D03*
%TO.P,M2,2,-*%
%TO.N,Net-(CR1-OUT2B)*%
X92500000Y-76956000D03*
%TD*%
D26*
%TO.P,CR1,1,GND*%
%TO.N,GND*%
X98362500Y-62985000D03*
%TO.P,CR1,2,VSA*%
%TO.N,MotorPower*%
X97092500Y-62985000D03*
%TO.P,CR1,3,OUT2A*%
%TO.N,Net-(CR1-OUT2A)*%
X95822500Y-62985000D03*
%TO.P,CR1,4,VCP*%
%TO.N,Net-(CR1-VCP)*%
X94552500Y-62985000D03*
%TO.P,CR1,5,ENA*%
%TO.N,Net-(CR1-ENA)*%
X93282500Y-62985000D03*
%TO.P,CR1,6,IN1A*%
%TO.N,M_IN1A*%
X92012500Y-62985000D03*
%TO.P,CR1,7,IN2A*%
%TO.N,M_IN2A*%
X90742500Y-62985000D03*
%TO.P,CR1,8,SENSEA*%
%TO.N,GND*%
X89472500Y-62985000D03*
%TO.P,CR1,9,OUT1A*%
%TO.N,Net-(CR1-OUT1A)*%
X88202500Y-62985000D03*
%TO.P,CR1,10,GND*%
%TO.N,GND*%
X86932500Y-62985000D03*
%TO.P,CR1,11,GND*%
X86932500Y-72335000D03*
%TO.P,CR1,12,OUT1B*%
%TO.N,Net-(CR1-OUT1B)*%
X88202500Y-72335000D03*
%TO.P,CR1,13,SENSEB*%
%TO.N,GND*%
X89472500Y-72335000D03*
%TO.P,CR1,14,IN1B*%
%TO.N,M_IN1B*%
X90742500Y-72335000D03*
%TO.P,CR1,15,IN2B*%
%TO.N,M_IN2B*%
X92012500Y-72335000D03*
%TO.P,CR1,16,ENB*%
%TO.N,Net-(CR1-ENB)*%
X93282500Y-72335000D03*
%TO.P,CR1,17,VBOOT*%
%TO.N,Net-(CR1-VBOOT)*%
X94552500Y-72335000D03*
%TO.P,CR1,18,OUT2B*%
%TO.N,Net-(CR1-OUT2B)*%
X95822500Y-72335000D03*
%TO.P,CR1,19,VSB*%
%TO.N,MotorPower*%
X97092500Y-72335000D03*
%TO.P,CR1,20,GND*%
%TO.N,GND*%
X98362500Y-72335000D03*
D27*
%TO.P,CR1,21,GND*%
X94380000Y-67000000D03*
X93885000Y-67000000D03*
X93390000Y-67000000D03*
X92895000Y-67000000D03*
X92400000Y-67000000D03*
X91905000Y-67000000D03*
X91410000Y-67000000D03*
X90915000Y-67000000D03*
X94380000Y-67660000D03*
X93885000Y-67660000D03*
X93390000Y-67660000D03*
X92895000Y-67660000D03*
D28*
X92647500Y-67660000D03*
D27*
X92400000Y-67660000D03*
X91905000Y-67660000D03*
X91410000Y-67660000D03*
X90915000Y-67660000D03*
X94380000Y-68320000D03*
X93885000Y-68320000D03*
X93390000Y-68320000D03*
X92895000Y-68320000D03*
X92400000Y-68320000D03*
X91905000Y-68320000D03*
X91410000Y-68320000D03*
X90915000Y-68320000D03*
%TD*%
D29*
%TO.P,R6,1*%
%TO.N,Net-(CR1-ENA)*%
X79000000Y-75500000D03*
%TO.P,R6,2*%
%TO.N,M_ENA*%
X77000000Y-75500000D03*
%TD*%
D17*
%TO.P,C6,1*%
%TO.N,GND*%
X80900000Y-78962500D03*
%TO.P,C6,2*%
%TO.N,Net-(CR1-ENB)*%
X80900000Y-81037500D03*
%TD*%
D30*
%TO.P,C9,1*%
%TO.N,MotorPower*%
X64862500Y-51350000D03*
%TO.P,C9,2*%
%TO.N,GND*%
X64862500Y-49275000D03*
%TD*%
D15*
%TO.P,J5,1,Pin_1*%
%TO.N,GND*%
X69337500Y-37712500D03*
D16*
%TO.P,J5,2,Pin_2*%
%TO.N,Net-(D3-K)*%
X66797500Y-37712500D03*
%TD*%
D19*
%TO.P,R2,1*%
%TO.N,Net-(D1-K)*%
X99300000Y-77500000D03*
%TO.P,R2,2*%
%TO.N,Net-(C3-Pad1)*%
X99300000Y-79500000D03*
%TD*%
D20*
%TO.P,J2,1,Pin_1*%
%TO.N,+5V*%
X60850000Y-22400000D03*
D21*
%TO.P,J2,2,Pin_2*%
%TO.N,GND*%
X60850000Y-24400000D03*
%TO.P,J2,3,Pin_3*%
%TO.N,Net-(A1-A2)*%
X60850000Y-26400000D03*
%TD*%
D31*
%TO.P,Q3,1,E*%
%TO.N,Net-(D3-K)*%
X70350000Y-48200000D03*
%TO.P,Q3,2,B*%
%TO.N,M_FRONT*%
X70350000Y-50500000D03*
%TO.P,Q3,3,C*%
%TO.N,MotorPower*%
X70350000Y-52800000D03*
D32*
%TO.P,Q3,4*%
%TO.N,N/C*%
X76650000Y-50500000D03*
%TD*%
D30*
%TO.P,C5,1*%
%TO.N,GND*%
X80900000Y-77137500D03*
%TO.P,C5,2*%
%TO.N,Net-(CR1-ENA)*%
X80900000Y-75062500D03*
%TD*%
D14*
%TO.P,C7,1*%
%TO.N,MotorPower*%
X97262500Y-59250000D03*
%TO.P,C7,2*%
%TO.N,GND*%
X99337500Y-59250000D03*
%TD*%
D33*
%TO.N,GND*%
X83800000Y-72000000D03*
%TO.N,+5V*%
X58062500Y-47800000D03*
D34*
%TO.N,MotorPower*%
X75225000Y-57675000D03*
D33*
X98450000Y-75200000D03*
X96100000Y-58800000D03*
%TO.N,M_IN2B*%
X92000000Y-74000000D03*
%TO.N,M_IN1B*%
X90500000Y-74500000D03*
%TO.N,M_IN2A*%
X91000000Y-61500000D03*
%TO.N,M_IN1A*%
X92000000Y-61500000D03*
%TO.N,M_ENB*%
X77700000Y-86100000D03*
%TO.N,Net-(CR1-VCP)*%
X97700000Y-83300000D03*
X94600000Y-61300000D03*
%TO.N,Net-(CR1-VBOOT)*%
X94150000Y-73950000D03*
X95800000Y-79200000D03*
%TO.N,Net-(CR1-ENA)*%
X93300000Y-61000000D03*
X82500000Y-70000000D03*
%TO.N,M_FRONT*%
X68000000Y-51000000D03*
D35*
%TO.N,Net-(D3-K)*%
X70300000Y-46000000D03*
D33*
%TO.N,Net-(A1-A2)*%
X45000000Y-101000000D03*
%TO.N,Net-(A1-A3)*%
X45000000Y-99500000D03*
%TO.N,FLOOR_SENSOR_RIGHT*%
X51500000Y-106500000D03*
%TO.N,FLOOR_SENSOR_LEFT*%
X45000000Y-102500000D03*
%TO.N,Net-(A1-A4)*%
X45000000Y-98000000D03*
%TD*%
D36*
%TO.N,GND*%
X81137500Y-79200000D02*
X80900000Y-78962500D01*
D37*
X82300000Y-56400000D02*
X80400000Y-54500000D01*
X80400000Y-54100000D02*
X80400000Y-58300000D01*
D36*
X60850000Y-24400000D02*
X67950000Y-24400000D01*
X61302500Y-37187500D02*
X61837500Y-36652500D01*
D37*
X81962500Y-77137500D02*
X80900000Y-77137500D01*
X73212500Y-37712500D02*
X80400000Y-44900000D01*
X99537500Y-59300000D02*
X99537500Y-61810000D01*
D36*
X86932500Y-62985000D02*
X86932500Y-61832500D01*
D37*
X97700000Y-56400000D02*
X99537500Y-58237500D01*
X99235000Y-62985000D02*
X99550000Y-63300000D01*
D38*
X61687500Y-37187500D02*
X63756250Y-39256250D01*
D37*
X89472500Y-75227500D02*
X85700000Y-79000000D01*
X97700000Y-56400000D02*
X86300000Y-56400000D01*
D39*
X51700000Y-50300000D02*
X51700000Y-55800000D01*
D37*
X69337500Y-37712500D02*
X73212500Y-37712500D01*
X85600000Y-75300000D02*
X83800000Y-75300000D01*
X99537500Y-58237500D02*
X99537500Y-59300000D01*
D36*
X80900000Y-77137500D02*
X80900000Y-78762500D01*
X63700000Y-55700000D02*
X61600000Y-53600000D01*
D40*
X69262500Y-37637500D02*
X69337500Y-37712500D01*
D37*
X82500000Y-60700000D02*
X80500000Y-60700000D01*
X83800000Y-72000000D02*
X83800000Y-62000000D01*
D40*
X80400000Y-60800000D02*
X80100000Y-61100000D01*
D37*
X80400000Y-44900000D02*
X80400000Y-54100000D01*
D36*
X63700000Y-55700000D02*
X63700000Y-57900000D01*
D37*
X64712500Y-44112500D02*
X64712500Y-45425000D01*
D36*
X67400000Y-30950000D02*
X60850000Y-24400000D01*
X63700000Y-57900000D02*
X70100000Y-64300000D01*
D38*
X63756250Y-39256250D02*
X64712500Y-40212500D01*
D37*
X89472500Y-62985000D02*
X89472500Y-59572500D01*
D36*
X70100000Y-64300000D02*
X73220000Y-64300000D01*
D39*
X59740000Y-114500000D02*
X59760000Y-114520000D01*
D37*
X83800000Y-75300000D02*
X83800000Y-72000000D01*
X99550000Y-63300000D02*
X99550000Y-71147500D01*
D38*
X61302500Y-37187500D02*
X61687500Y-37187500D01*
D36*
X51700000Y-51400000D02*
X51700000Y-50300000D01*
D39*
X51700000Y-63080000D02*
X57990000Y-69370000D01*
D37*
X86932500Y-61832500D02*
X85800000Y-60700000D01*
D36*
X67400000Y-32800000D02*
X67400000Y-34800000D01*
X62300000Y-114520000D02*
X59760000Y-114520000D01*
D37*
X89472500Y-72335000D02*
X89472500Y-75227500D01*
D39*
X51700000Y-38000000D02*
X51700000Y-50300000D01*
D36*
X80400000Y-54500000D02*
X80400000Y-54100000D01*
X61600000Y-53600000D02*
X53900000Y-53600000D01*
X69337500Y-36737500D02*
X69337500Y-37712500D01*
D38*
X69337500Y-39487500D02*
X64712500Y-44112500D01*
D36*
X80500000Y-60700000D02*
X80100000Y-61100000D01*
D39*
X61837500Y-34200000D02*
X61837500Y-32937500D01*
D37*
X89472500Y-59572500D02*
X86300000Y-56400000D01*
X85700000Y-79000000D02*
X81337500Y-79000000D01*
X99537500Y-61810000D02*
X98362500Y-62985000D01*
X61302500Y-37187500D02*
X61300000Y-37185000D01*
X83800000Y-75300000D02*
X81962500Y-77137500D01*
X86932500Y-73967500D02*
X85600000Y-75300000D01*
D38*
X64712500Y-40212500D02*
X64712500Y-44112500D01*
D36*
X67400000Y-34800000D02*
X69337500Y-36737500D01*
X67400000Y-32800000D02*
X67400000Y-30950000D01*
D37*
X86300000Y-56400000D02*
X82300000Y-56400000D01*
D36*
X67380000Y-114520000D02*
X64840000Y-114520000D01*
D39*
X51700000Y-55800000D02*
X51700000Y-63080000D01*
X61300000Y-32400000D02*
X57300000Y-32400000D01*
D38*
X64862500Y-44262500D02*
X64712500Y-44112500D01*
D37*
X85800000Y-60700000D02*
X82500000Y-60700000D01*
D39*
X61837500Y-32937500D02*
X61300000Y-32400000D01*
D37*
X98362500Y-62985000D02*
X99235000Y-62985000D01*
X99550000Y-71147500D02*
X98362500Y-72335000D01*
X80400000Y-58300000D02*
X80400000Y-60800000D01*
D39*
X61837500Y-36652500D02*
X61837500Y-34200000D01*
D36*
X73220000Y-64300000D02*
X73230000Y-64290000D01*
D37*
X64712500Y-45425000D02*
X61237500Y-48900000D01*
X86932500Y-72335000D02*
X86932500Y-73967500D01*
D36*
X80900000Y-78762500D02*
X80700000Y-78962500D01*
D39*
X57300000Y-32400000D02*
X51700000Y-38000000D01*
D37*
X83800000Y-62000000D02*
X82500000Y-60700000D01*
X82300000Y-56400000D02*
X80400000Y-58300000D01*
D36*
X53900000Y-53600000D02*
X51700000Y-51400000D01*
X64840000Y-114520000D02*
X62300000Y-114520000D01*
X61200000Y-37085000D02*
X61302500Y-37187500D01*
D37*
X61256250Y-37141250D02*
X61302500Y-37187500D01*
D38*
X69337500Y-37712500D02*
X69337500Y-39487500D01*
X64862500Y-49275000D02*
X64862500Y-44262500D01*
D36*
X53900000Y-53600000D02*
X51700000Y-55800000D01*
D37*
X63800000Y-43200000D02*
X64712500Y-44112500D01*
%TO.N,+5V*%
X58400000Y-46750000D02*
X58062500Y-46412500D01*
D36*
X69400000Y-22400000D02*
X67950000Y-22400000D01*
X71100000Y-31100000D02*
X71100000Y-24100000D01*
X69400000Y-32800000D02*
X71100000Y-31100000D01*
D37*
X58062500Y-46412500D02*
X58062500Y-47800000D01*
D36*
X66240000Y-57760000D02*
X70230000Y-61750000D01*
D40*
X60850000Y-22400000D02*
X60650000Y-22200000D01*
D36*
X70230000Y-61750000D02*
X73230000Y-61750000D01*
D37*
X58062500Y-47800000D02*
X59162500Y-48900000D01*
D36*
X60850000Y-22400000D02*
X67950000Y-22400000D01*
X71100000Y-24100000D02*
X69400000Y-22400000D01*
X66240000Y-55700000D02*
X66240000Y-57760000D01*
D38*
%TO.N,MotorPower*%
X70350000Y-52800000D02*
X66312500Y-52800000D01*
X53962500Y-43512500D02*
X53962500Y-50912500D01*
X58062500Y-41812500D02*
X55662500Y-41812500D01*
X79200000Y-68500000D02*
X80100000Y-68500000D01*
D36*
X97092500Y-73907500D02*
X96600000Y-74400000D01*
D38*
X70350000Y-52800000D02*
X76300000Y-58750000D01*
X55662500Y-41812500D02*
X53962500Y-43512500D01*
D36*
X96600000Y-74400000D02*
X96600000Y-75462500D01*
X59400000Y-36550000D02*
X58762500Y-37187500D01*
D37*
X97092500Y-62985000D02*
X97092500Y-59670000D01*
D39*
X58762500Y-35200000D02*
X59762500Y-34200000D01*
D38*
X53962500Y-50912500D02*
X54400000Y-51350000D01*
X58762500Y-37187500D02*
X58762500Y-41112500D01*
D36*
X97092500Y-72335000D02*
X97092500Y-73192500D01*
D38*
X76300000Y-58750000D02*
X76300000Y-65600000D01*
D36*
X97092500Y-72335000D02*
X97092500Y-73907500D01*
X98450000Y-75200000D02*
X99350000Y-74300000D01*
X99350000Y-74300000D02*
X99600000Y-74300000D01*
D38*
X66312500Y-52800000D02*
X64862500Y-51350000D01*
X54400000Y-51350000D02*
X64862500Y-51350000D01*
X58762500Y-41112500D02*
X58062500Y-41812500D01*
D37*
X97092500Y-73842500D02*
X97092500Y-72335000D01*
D38*
X76300000Y-65600000D02*
X79200000Y-68500000D01*
D39*
X58762500Y-37187500D02*
X58762500Y-35200000D01*
D38*
X96100000Y-58800000D02*
X96600000Y-59300000D01*
D37*
X98450000Y-75200000D02*
X97092500Y-73842500D01*
D40*
%TO.N,M_IN2B*%
X92012500Y-72335000D02*
X92012500Y-73987500D01*
X92012500Y-73987500D02*
X92000000Y-74000000D01*
%TO.N,M_IN1B*%
X90500000Y-74500000D02*
X90742500Y-74257500D01*
X90742500Y-74257500D02*
X90742500Y-72335000D01*
%TO.N,M_IN2A*%
X90742500Y-61757500D02*
X91000000Y-61500000D01*
X90742500Y-62985000D02*
X90742500Y-61757500D01*
%TO.N,M_IN1A*%
X92012500Y-62985000D02*
X92012500Y-61512500D01*
X92012500Y-61512500D02*
X92000000Y-61500000D01*
%TO.N,M_ENA*%
X75000000Y-76000000D02*
X75000000Y-95540000D01*
X77000000Y-75500000D02*
X75500000Y-75500000D01*
X75000000Y-95540000D02*
X73230000Y-97310000D01*
X75500000Y-75500000D02*
X75000000Y-76000000D01*
%TO.N,M_ENB*%
X78800000Y-85000000D02*
X77700000Y-86100000D01*
X78800000Y-84600000D02*
X78800000Y-85000000D01*
D36*
%TO.N,Net-(C3-Pad1)*%
X99400000Y-79400000D02*
X99400000Y-81262500D01*
%TO.N,Net-(CR1-VCP)*%
X97737500Y-83337500D02*
X97700000Y-83300000D01*
X99400000Y-83337500D02*
X97737500Y-83337500D01*
X94600000Y-61300000D02*
X94600000Y-62937500D01*
X94600000Y-62937500D02*
X94552500Y-62985000D01*
%TO.N,Net-(CR1-VBOOT)*%
X95100000Y-81500000D02*
X95100000Y-80000000D01*
X96700000Y-82000000D02*
X95600000Y-82000000D01*
X96600000Y-78500000D02*
X96600000Y-77537500D01*
X94150000Y-73950000D02*
X94552500Y-73547500D01*
X94552500Y-73547500D02*
X94552500Y-72335000D01*
X95100000Y-80000000D02*
X96600000Y-78500000D01*
X95600000Y-82000000D02*
X95100000Y-81500000D01*
%TO.N,Net-(CR1-ENA)*%
X82500000Y-74400000D02*
X82500000Y-70000000D01*
X93300000Y-61000000D02*
X93300000Y-62967500D01*
X81837500Y-75062500D02*
X82500000Y-74400000D01*
X80462500Y-75500000D02*
X80900000Y-75062500D01*
X93300000Y-62967500D02*
X93282500Y-62985000D01*
X80900000Y-75062500D02*
X81837500Y-75062500D01*
X79000000Y-75500000D02*
X80462500Y-75500000D01*
%TO.N,Net-(CR1-ENB)*%
X79362500Y-81037500D02*
X78900000Y-81500000D01*
X80900000Y-81037500D02*
X86262500Y-81037500D01*
X93282500Y-74017500D02*
X93282500Y-72335000D01*
X78900000Y-81500000D02*
X78900000Y-82500000D01*
X86262500Y-81037500D02*
X93282500Y-74017500D01*
X78900000Y-82500000D02*
X78800000Y-82600000D01*
X80900000Y-81037500D02*
X79362500Y-81037500D01*
%TO.N,Net-(D1-K)*%
X96700000Y-80100000D02*
X96700000Y-80600000D01*
X99600000Y-75700000D02*
X99600000Y-77200000D01*
X98200000Y-77900000D02*
X98200000Y-78600000D01*
X98700000Y-77400000D02*
X98200000Y-77900000D01*
X98200000Y-78600000D02*
X96700000Y-80100000D01*
X99400000Y-77400000D02*
X98700000Y-77400000D01*
D40*
%TO.N,M_FRONT*%
X68500000Y-50500000D02*
X70350000Y-50500000D01*
X68000000Y-51000000D02*
X68500000Y-50500000D01*
D38*
%TO.N,Net-(D3-K)*%
X70350000Y-48200000D02*
X70350000Y-46050000D01*
X70350000Y-46050000D02*
X70300000Y-46000000D01*
D36*
%TO.N,Net-(A1-A2)*%
X65000000Y-101500000D02*
X69000000Y-97500000D01*
X72390000Y-84610000D02*
X73230000Y-84610000D01*
X45500000Y-101500000D02*
X65000000Y-101500000D01*
X69000000Y-97500000D02*
X69000000Y-88000000D01*
X45000000Y-101000000D02*
X45500000Y-101500000D01*
X69000000Y-88000000D02*
X72390000Y-84610000D01*
%TO.N,Net-(A1-A3)*%
X68000000Y-97500000D02*
X68000000Y-87300000D01*
X45000000Y-99500000D02*
X46000000Y-100500000D01*
X65000000Y-100500000D02*
X68000000Y-97500000D01*
X46000000Y-100500000D02*
X65000000Y-100500000D01*
X68000000Y-87300000D02*
X73230000Y-82070000D01*
%TO.N,FLOOR_SENSOR_RIGHT*%
X71000000Y-97500000D02*
X71000000Y-91920000D01*
X54500000Y-103500000D02*
X65000000Y-103500000D01*
X71000000Y-91920000D02*
X73230000Y-89690000D01*
X65000000Y-103500000D02*
X71000000Y-97500000D01*
X51500000Y-106500000D02*
X54500000Y-103500000D01*
%TO.N,FLOOR_SENSOR_LEFT*%
X65000000Y-102500000D02*
X70000000Y-97500000D01*
X70000000Y-90380000D02*
X73230000Y-87150000D01*
X70000000Y-97500000D02*
X70000000Y-90380000D01*
X45000000Y-102500000D02*
X65000000Y-102500000D01*
%TO.N,Net-(CR1-OUT2A)*%
X95822500Y-62985000D02*
X95822500Y-61422500D01*
X93400000Y-59000000D02*
X92500000Y-59000000D01*
X95822500Y-61422500D02*
X93400000Y-59000000D01*
%TO.N,Net-(CR1-OUT2B)*%
X95822500Y-73633500D02*
X92500000Y-76956000D01*
X95822500Y-72335000D02*
X95822500Y-73633500D01*
%TO.N,Net-(CR1-OUT1B)*%
X88202500Y-74253500D02*
X85500000Y-76956000D01*
X88202500Y-72335000D02*
X88202500Y-74253500D01*
%TO.N,Net-(CR1-OUT1A)*%
X88202500Y-61702500D02*
X85500000Y-59000000D01*
X88202500Y-62985000D02*
X88202500Y-61702500D01*
%TO.N,START_MODULE*%
X61160000Y-68740000D02*
X57990000Y-71910000D01*
X61160000Y-55700000D02*
X61160000Y-68740000D01*
%TO.N,Net-(A1-A4)*%
X45000000Y-98000000D02*
X46500000Y-99500000D01*
X65000000Y-99500000D02*
X67000000Y-97500000D01*
X67000000Y-97500000D02*
X67000000Y-85760000D01*
X46500000Y-99500000D02*
X65000000Y-99500000D01*
X67000000Y-85760000D02*
X73230000Y-79530000D01*
%TD*%
%TA.AperFunction,Conductor*%
%TO.N,GND*%
G36*
X61979920Y-114274394D02*
G01*
X61927259Y-114365606D01*
X61900000Y-114467339D01*
X61900000Y-114572661D01*
X61927259Y-114674394D01*
X61979920Y-114765606D01*
X61984314Y-114770000D01*
X60075686Y-114770000D01*
X60080080Y-114765606D01*
X60132741Y-114674394D01*
X60160000Y-114572661D01*
X60160000Y-114467339D01*
X60132741Y-114365606D01*
X60080080Y-114274394D01*
X60075686Y-114270000D01*
X61984314Y-114270000D01*
X61979920Y-114274394D01*
G37*
%TD.AperFunction*%
%TA.AperFunction,Conductor*%
G36*
X64519920Y-114274394D02*
G01*
X64467259Y-114365606D01*
X64440000Y-114467339D01*
X64440000Y-114572661D01*
X64467259Y-114674394D01*
X64519920Y-114765606D01*
X64524314Y-114770000D01*
X62615686Y-114770000D01*
X62620080Y-114765606D01*
X62672741Y-114674394D01*
X62700000Y-114572661D01*
X62700000Y-114467339D01*
X62672741Y-114365606D01*
X62620080Y-114274394D01*
X62615686Y-114270000D01*
X64524314Y-114270000D01*
X64519920Y-114274394D01*
G37*
%TD.AperFunction*%
%TA.AperFunction,Conductor*%
G36*
X67059920Y-114274394D02*
G01*
X67007259Y-114365606D01*
X66980000Y-114467339D01*
X66980000Y-114572661D01*
X67007259Y-114674394D01*
X67059920Y-114765606D01*
X67064314Y-114770000D01*
X65155686Y-114770000D01*
X65160080Y-114765606D01*
X65212741Y-114674394D01*
X65240000Y-114572661D01*
X65240000Y-114467339D01*
X65212741Y-114365606D01*
X65160080Y-114274394D01*
X65155686Y-114270000D01*
X67064314Y-114270000D01*
X67059920Y-114274394D01*
G37*
%TD.AperFunction*%
%TA.AperFunction,Conductor*%
G36*
X63950000Y-57030633D02*
G01*
X64163483Y-56973433D01*
X64163492Y-56973429D01*
X64377578Y-56873600D01*
X64571078Y-56738108D01*
X64693133Y-56616053D01*
X64754456Y-56582568D01*
X64824148Y-56587552D01*
X64880082Y-56629423D01*
X64896997Y-56660401D01*
X64946202Y-56792328D01*
X64946206Y-56792335D01*
X65032452Y-56907544D01*
X65032455Y-56907547D01*
X65147664Y-56993793D01*
X65147671Y-56993797D01*
X65192618Y-57010561D01*
X65282517Y-57044091D01*
X65342127Y-57050500D01*
X65365497Y-57050499D01*
X65432536Y-57070181D01*
X65478292Y-57122983D01*
X65489500Y-57174499D01*
X65489500Y-57833918D01*
X65489500Y-57833920D01*
X65489499Y-57833920D01*
X65518340Y-57978907D01*
X65518343Y-57978917D01*
X65574914Y-58115492D01*
X65574915Y-58115494D01*
X65574916Y-58115495D01*
X65594359Y-58144594D01*
X65599558Y-58152374D01*
X65599559Y-58152377D01*
X65657046Y-58238414D01*
X65657052Y-58238421D01*
X69647049Y-62228416D01*
X69751584Y-62332951D01*
X69751585Y-62332952D01*
X69874498Y-62415080D01*
X69874511Y-62415087D01*
X70011082Y-62471656D01*
X70011087Y-62471658D01*
X70011091Y-62471658D01*
X70011092Y-62471659D01*
X70156079Y-62500500D01*
X70156082Y-62500500D01*
X70156083Y-62500500D01*
X70303917Y-62500500D01*
X72103337Y-62500500D01*
X72170376Y-62520185D01*
X72204912Y-62553377D01*
X72229954Y-62589141D01*
X72390858Y-62750045D01*
X72390861Y-62750047D01*
X72577266Y-62880568D01*
X72635865Y-62907893D01*
X72688305Y-62954065D01*
X72707457Y-63021258D01*
X72687242Y-63088139D01*
X72635867Y-63132657D01*
X72577515Y-63159867D01*
X72391179Y-63290342D01*
X72230342Y-63451179D01*
X72099865Y-63637517D01*
X72003734Y-63843673D01*
X72003730Y-63843682D01*
X71951127Y-64039999D01*
X71951128Y-64040000D01*
X72796988Y-64040000D01*
X72764075Y-64097007D01*
X72730000Y-64224174D01*
X72730000Y-64355826D01*
X72764075Y-64482993D01*
X72796988Y-64540000D01*
X71951128Y-64540000D01*
X72003730Y-64736317D01*
X72003734Y-64736326D01*
X72099865Y-64942482D01*
X72230342Y-65128820D01*
X72391179Y-65289657D01*
X72577518Y-65420134D01*
X72577520Y-65420135D01*
X72635865Y-65447342D01*
X72688305Y-65493514D01*
X72707457Y-65560707D01*
X72687242Y-65627589D01*
X72635867Y-65672105D01*
X72577268Y-65699431D01*
X72577264Y-65699433D01*
X72390858Y-65829954D01*
X72229954Y-65990858D01*
X72099432Y-66177265D01*
X72099431Y-66177267D01*
X72003261Y-66383502D01*
X72003258Y-66383511D01*
X71944366Y-66603302D01*
X71944364Y-66603313D01*
X71924532Y-66829998D01*
X71924532Y-66830001D01*
X71944364Y-67056686D01*
X71944366Y-67056697D01*
X72003258Y-67276488D01*
X72003261Y-67276497D01*
X72099431Y-67482732D01*
X72099432Y-67482734D01*
X72229954Y-67669141D01*
X72390858Y-67830045D01*
X72390861Y-67830047D01*
X72577266Y-67960568D01*
X72635275Y-67987618D01*
X72687714Y-68033791D01*
X72706866Y-68100984D01*
X72686650Y-68167865D01*
X72635275Y-68212382D01*
X72577267Y-68239431D01*
X72577265Y-68239432D01*
X72390858Y-68369954D01*
X72229954Y-68530858D01*
X72099432Y-68717265D01*
X72099431Y-68717267D01*
X72003261Y-68923502D01*
X72003258Y-68923511D01*
X71944366Y-69143302D01*
X71944365Y-69143310D01*
X71924532Y-69369998D01*
X71924532Y-69370001D01*
X71944364Y-69596686D01*
X71944366Y-69596697D01*
X72003258Y-69816488D01*
X72003261Y-69816497D01*
X72099431Y-70022732D01*
X72099432Y-70022734D01*
X72229954Y-70209141D01*
X72390858Y-70370045D01*
X72390861Y-70370047D01*
X72577266Y-70500568D01*
X72634683Y-70527342D01*
X72635275Y-70527618D01*
X72687714Y-70573791D01*
X72706866Y-70640984D01*
X72686650Y-70707865D01*
X72635275Y-70752382D01*
X72577267Y-70779431D01*
X72577265Y-70779432D01*
X72390858Y-70909954D01*
X72229954Y-71070858D01*
X72099432Y-71257265D01*
X72099431Y-71257267D01*
X72003261Y-71463502D01*
X72003258Y-71463511D01*
X71944366Y-71683302D01*
X71944364Y-71683313D01*
X71924532Y-71909998D01*
X71924532Y-71910001D01*
X71944364Y-72136686D01*
X71944366Y-72136697D01*
X72003258Y-72356488D01*
X72003261Y-72356497D01*
X72099431Y-72562732D01*
X72099432Y-72562734D01*
X72229954Y-72749141D01*
X72390858Y-72910045D01*
X72390861Y-72910047D01*
X72577266Y-73040568D01*
X72635275Y-73067618D01*
X72687714Y-73113791D01*
X72706866Y-73180984D01*
X72686650Y-73247865D01*
X72635275Y-73292382D01*
X72577267Y-73319431D01*
X72577265Y-73319432D01*
X72390858Y-73449954D01*
X72229954Y-73610858D01*
X72099432Y-73797265D01*
X72099431Y-73797267D01*
X72003261Y-74003502D01*
X72003258Y-74003511D01*
X71944366Y-74223302D01*
X71944364Y-74223313D01*
X71924532Y-74449998D01*
X71924532Y-74450001D01*
X71944364Y-74676686D01*
X71944366Y-74676697D01*
X72003258Y-74896488D01*
X72003261Y-74896497D01*
X72099431Y-75102732D01*
X72099432Y-75102734D01*
X72229954Y-75289141D01*
X72390858Y-75450045D01*
X72390861Y-75450047D01*
X72577266Y-75580568D01*
X72635275Y-75607618D01*
X72687714Y-75653791D01*
X72706866Y-75720984D01*
X72686650Y-75787865D01*
X72635275Y-75832382D01*
X72577267Y-75859431D01*
X72577265Y-75859432D01*
X72390858Y-75989954D01*
X72229954Y-76150858D01*
X72099432Y-76337265D01*
X72099431Y-76337267D01*
X72003261Y-76543502D01*
X72003258Y-76543511D01*
X71944366Y-76763302D01*
X71944364Y-76763313D01*
X71924532Y-76989998D01*
X71924532Y-76990001D01*
X71944364Y-77216686D01*
X71944366Y-77216697D01*
X72003258Y-77436488D01*
X72003261Y-77436497D01*
X72099431Y-77642732D01*
X72099432Y-77642734D01*
X72229954Y-77829141D01*
X72390858Y-77990045D01*
X72390861Y-77990047D01*
X72577266Y-78120568D01*
X72635275Y-78147618D01*
X72687714Y-78193791D01*
X72706866Y-78260984D01*
X72686650Y-78327865D01*
X72635275Y-78372382D01*
X72577267Y-78399431D01*
X72577265Y-78399432D01*
X72390858Y-78529954D01*
X72229954Y-78690858D01*
X72099432Y-78877265D01*
X72099431Y-78877267D01*
X72003261Y-79083502D01*
X72003258Y-79083511D01*
X71944366Y-79303302D01*
X71944364Y-79303313D01*
X71924532Y-79529998D01*
X71924532Y-79530003D01*
X71939129Y-79696861D01*
X71925362Y-79765360D01*
X71903282Y-79795348D01*
X66417050Y-85281580D01*
X66417044Y-85281588D01*
X66367812Y-85355268D01*
X66367813Y-85355269D01*
X66334921Y-85404496D01*
X66334914Y-85404508D01*
X66278342Y-85541086D01*
X66278340Y-85541092D01*
X66249500Y-85686079D01*
X66249500Y-97137770D01*
X66229815Y-97204809D01*
X66213181Y-97225451D01*
X64725451Y-98713181D01*
X64664128Y-98746666D01*
X64637770Y-98749500D01*
X58539556Y-98749500D01*
X58472517Y-98729815D01*
X58426762Y-98677011D01*
X58416818Y-98607853D01*
X58445843Y-98544297D01*
X58487151Y-98513118D01*
X58642734Y-98440568D01*
X58829139Y-98310047D01*
X58990047Y-98149139D01*
X59120568Y-97962734D01*
X59216739Y-97756496D01*
X59275635Y-97536692D01*
X59295468Y-97310000D01*
X59275635Y-97083308D01*
X59217754Y-96867292D01*
X59216741Y-96863511D01*
X59216738Y-96863502D01*
X59172606Y-96768861D01*
X59120568Y-96657266D01*
X58990047Y-96470861D01*
X58990045Y-96470858D01*
X58829141Y-96309954D01*
X58642734Y-96179432D01*
X58642728Y-96179429D01*
X58584725Y-96152382D01*
X58532285Y-96106210D01*
X58513133Y-96039017D01*
X58533348Y-95972135D01*
X58584725Y-95927618D01*
X58642734Y-95900568D01*
X58829139Y-95770047D01*
X58990047Y-95609139D01*
X59120568Y-95422734D01*
X59216739Y-95216496D01*
X59275635Y-94996692D01*
X59295468Y-94770000D01*
X59275635Y-94543308D01*
X59217916Y-94327897D01*
X59216741Y-94323511D01*
X59216738Y-94323502D01*
X59120568Y-94117267D01*
X59120567Y-94117265D01*
X58990045Y-93930858D01*
X58829141Y-93769954D01*
X58642734Y-93639432D01*
X58642728Y-93639429D01*
X58584725Y-93612382D01*
X58532285Y-93566210D01*
X58513133Y-93499017D01*
X58533348Y-93432135D01*
X58584725Y-93387618D01*
X58642734Y-93360568D01*
X58829139Y-93230047D01*
X58990047Y-93069139D01*
X59120568Y-92882734D01*
X59216739Y-92676496D01*
X59275635Y-92456692D01*
X59295468Y-92230000D01*
X59275635Y-92003308D01*
X59216739Y-91783504D01*
X59120568Y-91577266D01*
X58990047Y-91390861D01*
X58990045Y-91390858D01*
X58829141Y-91229954D01*
X58642734Y-91099432D01*
X58642728Y-91099429D01*
X58584725Y-91072382D01*
X58532285Y-91026210D01*
X58513133Y-90959017D01*
X58533348Y-90892135D01*
X58584725Y-90847618D01*
X58642734Y-90820568D01*
X58829139Y-90690047D01*
X58990047Y-90529139D01*
X59120568Y-90342734D01*
X59216739Y-90136496D01*
X59275635Y-89916692D01*
X59295468Y-89690000D01*
X59275635Y-89463308D01*
X59216739Y-89243504D01*
X59120568Y-89037266D01*
X58990047Y-88850861D01*
X58990045Y-88850858D01*
X58829141Y-88689954D01*
X58642734Y-88559432D01*
X58642728Y-88559429D01*
X58584725Y-88532382D01*
X58532285Y-88486210D01*
X58513133Y-88419017D01*
X58533348Y-88352135D01*
X58584725Y-88307618D01*
X58642734Y-88280568D01*
X58829139Y-88150047D01*
X58990047Y-87989139D01*
X59120568Y-87802734D01*
X59216739Y-87596496D01*
X59275635Y-87376692D01*
X59295468Y-87150000D01*
X59275635Y-86923308D01*
X59216739Y-86703504D01*
X59120568Y-86497266D01*
X58990047Y-86310861D01*
X58990045Y-86310858D01*
X58829141Y-86149954D01*
X58642734Y-86019432D01*
X58642728Y-86019429D01*
X58584725Y-85992382D01*
X58532285Y-85946210D01*
X58513133Y-85879017D01*
X58533348Y-85812135D01*
X58584725Y-85767618D01*
X58642734Y-85740568D01*
X58829139Y-85610047D01*
X58990047Y-85449139D01*
X59120568Y-85262734D01*
X59216739Y-85056496D01*
X59275635Y-84836692D01*
X59295468Y-84610000D01*
X59275635Y-84383308D01*
X59230916Y-84216415D01*
X59216741Y-84163511D01*
X59216738Y-84163502D01*
X59189721Y-84105565D01*
X59120568Y-83957266D01*
X58990047Y-83770861D01*
X58990045Y-83770858D01*
X58829141Y-83609954D01*
X58642734Y-83479432D01*
X58642728Y-83479429D01*
X58584725Y-83452382D01*
X58532285Y-83406210D01*
X58513133Y-83339017D01*
X58533348Y-83272135D01*
X58584725Y-83227618D01*
X58642734Y-83200568D01*
X58829139Y-83070047D01*
X58990047Y-82909139D01*
X59120568Y-82722734D01*
X59216739Y-82516496D01*
X59275635Y-82296692D01*
X59292634Y-82102384D01*
X59295468Y-82070001D01*
X59295468Y-82069998D01*
X59283278Y-81930666D01*
X59275635Y-81843308D01*
X59216739Y-81623504D01*
X59120568Y-81417266D01*
X59022839Y-81277693D01*
X58990045Y-81230858D01*
X58829140Y-81069953D01*
X58642734Y-80939432D01*
X58642728Y-80939429D01*
X58584725Y-80912382D01*
X58532285Y-80866210D01*
X58513133Y-80799017D01*
X58533348Y-80732135D01*
X58584725Y-80687618D01*
X58642734Y-80660568D01*
X58829139Y-80530047D01*
X58990047Y-80369139D01*
X59120568Y-80182734D01*
X59216739Y-79976496D01*
X59275635Y-79756692D01*
X59295468Y-79530000D01*
X59275635Y-79303308D01*
X59216739Y-79083504D01*
X59120568Y-78877266D01*
X58990047Y-78690861D01*
X58990045Y-78690858D01*
X58829141Y-78529954D01*
X58642734Y-78399432D01*
X58642728Y-78399429D01*
X58584725Y-78372382D01*
X58532285Y-78326210D01*
X58513133Y-78259017D01*
X58533348Y-78192135D01*
X58584725Y-78147618D01*
X58642734Y-78120568D01*
X58829139Y-77990047D01*
X58990047Y-77829139D01*
X59120568Y-77642734D01*
X59216739Y-77436496D01*
X59275635Y-77216692D01*
X59295468Y-76990000D01*
X59275635Y-76763308D01*
X59216739Y-76543504D01*
X59120568Y-76337266D01*
X58990047Y-76150861D01*
X58990045Y-76150858D01*
X58829141Y-75989954D01*
X58642734Y-75859432D01*
X58642728Y-75859429D01*
X58584725Y-75832382D01*
X58532285Y-75786210D01*
X58513133Y-75719017D01*
X58533348Y-75652135D01*
X58584725Y-75607618D01*
X58642734Y-75580568D01*
X58829139Y-75450047D01*
X58990047Y-75289139D01*
X59120568Y-75102734D01*
X59216739Y-74896496D01*
X59275635Y-74676692D01*
X59295468Y-74450000D01*
X59275635Y-74223308D01*
X59216739Y-74003504D01*
X59120568Y-73797266D01*
X58990047Y-73610861D01*
X58990045Y-73610858D01*
X58829141Y-73449954D01*
X58642734Y-73319432D01*
X58642728Y-73319429D01*
X58584725Y-73292382D01*
X58532285Y-73246210D01*
X58513133Y-73179017D01*
X58533348Y-73112135D01*
X58584725Y-73067618D01*
X58642734Y-73040568D01*
X58829139Y-72910047D01*
X58990047Y-72749139D01*
X59120568Y-72562734D01*
X59216739Y-72356496D01*
X59275635Y-72136692D01*
X59295468Y-71910000D01*
X59280869Y-71743137D01*
X59294635Y-71674639D01*
X59316713Y-71644653D01*
X61742952Y-69218416D01*
X61793136Y-69143308D01*
X61825084Y-69095495D01*
X61881658Y-68958913D01*
X61910500Y-68813918D01*
X61910500Y-56887700D01*
X61930185Y-56820661D01*
X61963375Y-56786126D01*
X62031401Y-56738495D01*
X62198495Y-56571401D01*
X62328730Y-56385405D01*
X62383307Y-56341781D01*
X62452805Y-56334587D01*
X62515160Y-56366110D01*
X62531879Y-56385405D01*
X62661890Y-56571078D01*
X62828917Y-56738105D01*
X63022421Y-56873600D01*
X63236507Y-56973429D01*
X63236516Y-56973433D01*
X63450000Y-57030634D01*
X63450000Y-56133012D01*
X63507007Y-56165925D01*
X63634174Y-56200000D01*
X63765826Y-56200000D01*
X63892993Y-56165925D01*
X63950000Y-56133012D01*
X63950000Y-57030633D01*
G37*
%TD.AperFunction*%
%TA.AperFunction,Conductor*%
G36*
X71442539Y-19520185D02*
G01*
X71488294Y-19572989D01*
X71499500Y-19624500D01*
X71499500Y-23138769D01*
X71479815Y-23205808D01*
X71427011Y-23251563D01*
X71357853Y-23261507D01*
X71294297Y-23232482D01*
X71287819Y-23226450D01*
X69878421Y-21817052D01*
X69878414Y-21817046D01*
X69804729Y-21767812D01*
X69804729Y-21767813D01*
X69755491Y-21734913D01*
X69618917Y-21678343D01*
X69618907Y-21678340D01*
X69473920Y-21649500D01*
X69473918Y-21649500D01*
X69278958Y-21649500D01*
X69211919Y-21629815D01*
X69173420Y-21590598D01*
X69167712Y-21581344D01*
X69043657Y-21457289D01*
X69043656Y-21457288D01*
X68894334Y-21365186D01*
X68727797Y-21310001D01*
X68727795Y-21310000D01*
X68625010Y-21299500D01*
X67274998Y-21299500D01*
X67274981Y-21299501D01*
X67172203Y-21310000D01*
X67172200Y-21310001D01*
X67005668Y-21365185D01*
X67005663Y-21365187D01*
X66856342Y-21457289D01*
X66732287Y-21581344D01*
X66726580Y-21590598D01*
X66674632Y-21637322D01*
X66621042Y-21649500D01*
X62178958Y-21649500D01*
X62111919Y-21629815D01*
X62073420Y-21590598D01*
X62067712Y-21581344D01*
X61943657Y-21457289D01*
X61943656Y-21457288D01*
X61794334Y-21365186D01*
X61627797Y-21310001D01*
X61627795Y-21310000D01*
X61525010Y-21299500D01*
X60174998Y-21299500D01*
X60174981Y-21299501D01*
X60072203Y-21310000D01*
X60072200Y-21310001D01*
X59905668Y-21365185D01*
X59905663Y-21365187D01*
X59756342Y-21457289D01*
X59632289Y-21581342D01*
X59540187Y-21730663D01*
X59540185Y-21730668D01*
X59512349Y-21814670D01*
X59485001Y-21897203D01*
X59485001Y-21897204D01*
X59485000Y-21897204D01*
X59474500Y-21999983D01*
X59474500Y-22800001D01*
X59474501Y-22800019D01*
X59485000Y-22902796D01*
X59485001Y-22902799D01*
X59540185Y-23069331D01*
X59540186Y-23069334D01*
X59632288Y-23218656D01*
X59756344Y-23342712D01*
X59820981Y-23382580D01*
X59867705Y-23434526D01*
X59878928Y-23503489D01*
X59851085Y-23567571D01*
X59843566Y-23575799D01*
X59735964Y-23683401D01*
X59634195Y-23823475D01*
X59555591Y-23977744D01*
X59502085Y-24142415D01*
X59500884Y-24149999D01*
X59500885Y-24150000D01*
X60569670Y-24150000D01*
X60549925Y-24169745D01*
X60500556Y-24255255D01*
X60475000Y-24350630D01*
X60475000Y-24449370D01*
X60500556Y-24544745D01*
X60549925Y-24630255D01*
X60569670Y-24650000D01*
X59500885Y-24650000D01*
X59502085Y-24657584D01*
X59555591Y-24822255D01*
X59634195Y-24976524D01*
X59735967Y-25116602D01*
X59858401Y-25239036D01*
X59941447Y-25299371D01*
X59984114Y-25354701D01*
X59990093Y-25424314D01*
X59957488Y-25486109D01*
X59941450Y-25500007D01*
X59858072Y-25560585D01*
X59735588Y-25683069D01*
X59735588Y-25683070D01*
X59735586Y-25683072D01*
X59691859Y-25743256D01*
X59633768Y-25823211D01*
X59555128Y-25977552D01*
X59501597Y-26142302D01*
X59474500Y-26313389D01*
X59474500Y-26486611D01*
X59501598Y-26657701D01*
X59555127Y-26822445D01*
X59633768Y-26976788D01*
X59735586Y-27116928D01*
X59858072Y-27239414D01*
X59998212Y-27341232D01*
X60152555Y-27419873D01*
X60317299Y-27473402D01*
X60488389Y-27500500D01*
X60488390Y-27500500D01*
X61211610Y-27500500D01*
X61211611Y-27500500D01*
X61382701Y-27473402D01*
X61547445Y-27419873D01*
X61701788Y-27341232D01*
X61841928Y-27239414D01*
X61964414Y-27116928D01*
X62066232Y-26976788D01*
X62144873Y-26822445D01*
X62198402Y-26657701D01*
X62225500Y-26486611D01*
X62225500Y-26313389D01*
X62198402Y-26142299D01*
X62144873Y-25977555D01*
X62066232Y-25823212D01*
X61964414Y-25683072D01*
X61841928Y-25560586D01*
X61758550Y-25500008D01*
X61715885Y-25444677D01*
X61709906Y-25375064D01*
X61742512Y-25313269D01*
X61758552Y-25299371D01*
X61841598Y-25239036D01*
X61964032Y-25116602D01*
X62065804Y-24976524D01*
X62144408Y-24822255D01*
X62197914Y-24657584D01*
X62199115Y-24650000D01*
X61130330Y-24650000D01*
X61150075Y-24630255D01*
X61199444Y-24544745D01*
X61225000Y-24449370D01*
X61225000Y-24350630D01*
X61199444Y-24255255D01*
X61150075Y-24169745D01*
X61130330Y-24150000D01*
X62199115Y-24150000D01*
X62199115Y-24149999D01*
X62197914Y-24142415D01*
X62144408Y-23977744D01*
X62065804Y-23823475D01*
X61964032Y-23683397D01*
X61856434Y-23575799D01*
X61822949Y-23514476D01*
X61827933Y-23444784D01*
X61869805Y-23388851D01*
X61878995Y-23382594D01*
X61943656Y-23342712D01*
X62067712Y-23218656D01*
X62073420Y-23209402D01*
X62125368Y-23162678D01*
X62178958Y-23150500D01*
X66621042Y-23150500D01*
X66688081Y-23170185D01*
X66726580Y-23209402D01*
X66732288Y-23218656D01*
X66856344Y-23342712D01*
X66920981Y-23382580D01*
X66967705Y-23434526D01*
X66978928Y-23503489D01*
X66951085Y-23567571D01*
X66943566Y-23575799D01*
X66835964Y-23683401D01*
X66734195Y-23823475D01*
X66655591Y-23977744D01*
X66602085Y-24142415D01*
X66600884Y-24149999D01*
X66600885Y-24150000D01*
X67669670Y-24150000D01*
X67649925Y-24169745D01*
X67600556Y-24255255D01*
X67575000Y-24350630D01*
X67575000Y-24449370D01*
X67600556Y-24544745D01*
X67649925Y-24630255D01*
X67669670Y-24650000D01*
X66600885Y-24650000D01*
X66602085Y-24657584D01*
X66655591Y-24822255D01*
X66734195Y-24976524D01*
X66835967Y-25116602D01*
X66958401Y-25239036D01*
X67041447Y-25299371D01*
X67084114Y-25354701D01*
X67090093Y-25424314D01*
X67057488Y-25486109D01*
X67041450Y-25500007D01*
X66958072Y-25560585D01*
X66835588Y-25683069D01*
X66835588Y-25683070D01*
X66835586Y-25683072D01*
X66791859Y-25743256D01*
X66733768Y-25823211D01*
X66655128Y-25977552D01*
X66601597Y-26142302D01*
X66574500Y-26313389D01*
X66574500Y-26486611D01*
X66601598Y-26657701D01*
X66655127Y-26822445D01*
X66733768Y-26976788D01*
X66835586Y-27116928D01*
X66958072Y-27239414D01*
X67098212Y-27341232D01*
X67252555Y-27419873D01*
X67417299Y-27473402D01*
X67588389Y-27500500D01*
X67588390Y-27500500D01*
X68311610Y-27500500D01*
X68311611Y-27500500D01*
X68482701Y-27473402D01*
X68647445Y-27419873D01*
X68801788Y-27341232D01*
X68941928Y-27239414D01*
X69064414Y-27116928D01*
X69166232Y-26976788D01*
X69244873Y-26822445D01*
X69298402Y-26657701D01*
X69325500Y-26486611D01*
X69325500Y-26313389D01*
X69298402Y-26142299D01*
X69244873Y-25977555D01*
X69166232Y-25823212D01*
X69064414Y-25683072D01*
X68941928Y-25560586D01*
X68858550Y-25500008D01*
X68815885Y-25444677D01*
X68809906Y-25375064D01*
X68842512Y-25313269D01*
X68858552Y-25299371D01*
X68941598Y-25239036D01*
X69064032Y-25116602D01*
X69165804Y-24976524D01*
X69244408Y-24822255D01*
X69297914Y-24657584D01*
X69299115Y-24650000D01*
X68230330Y-24650000D01*
X68250075Y-24630255D01*
X68299444Y-24544745D01*
X68325000Y-24449370D01*
X68325000Y-24350630D01*
X68299444Y-24255255D01*
X68250075Y-24169745D01*
X68230330Y-24150000D01*
X69299115Y-24150000D01*
X69299115Y-24149999D01*
X69297914Y-24142415D01*
X69244408Y-23977744D01*
X69165804Y-23823475D01*
X69064032Y-23683397D01*
X68956434Y-23575799D01*
X68922949Y-23514476D01*
X68927933Y-23444784D01*
X68969805Y-23388851D01*
X68978995Y-23382594D01*
X69043656Y-23342712D01*
X69074819Y-23311549D01*
X69136142Y-23278064D01*
X69205834Y-23283048D01*
X69250181Y-23311549D01*
X70313181Y-24374549D01*
X70346666Y-24435872D01*
X70349500Y-24462230D01*
X70349500Y-30737769D01*
X70329815Y-30804808D01*
X70313181Y-30825450D01*
X69750449Y-31388181D01*
X69689126Y-31421666D01*
X69662768Y-31424500D01*
X68999998Y-31424500D01*
X68999980Y-31424501D01*
X68897203Y-31435000D01*
X68897200Y-31435001D01*
X68730668Y-31490185D01*
X68730663Y-31490187D01*
X68581342Y-31582289D01*
X68457289Y-31706342D01*
X68417420Y-31770981D01*
X68365472Y-31817705D01*
X68296509Y-31828928D01*
X68232427Y-31801084D01*
X68224200Y-31793565D01*
X68116602Y-31685967D01*
X67976524Y-31584195D01*
X67822257Y-31505591D01*
X67657589Y-31452087D01*
X67657581Y-31452085D01*
X67650000Y-31450884D01*
X67650000Y-32519670D01*
X67630255Y-32499925D01*
X67544745Y-32450556D01*
X67449370Y-32425000D01*
X67350630Y-32425000D01*
X67255255Y-32450556D01*
X67169745Y-32499925D01*
X67150000Y-32519670D01*
X67150000Y-31450884D01*
X67149999Y-31450884D01*
X67142418Y-31452085D01*
X67142410Y-31452087D01*
X66977742Y-31505591D01*
X66823475Y-31584195D01*
X66683397Y-31685967D01*
X66560965Y-31808399D01*
X66560961Y-31808404D01*
X66500627Y-31891448D01*
X66445297Y-31934114D01*
X66375684Y-31940093D01*
X66313889Y-31907488D01*
X66299991Y-31891449D01*
X66273993Y-31855666D01*
X66239414Y-31808072D01*
X66116928Y-31685586D01*
X65976788Y-31583768D01*
X65822445Y-31505127D01*
X65657701Y-31451598D01*
X65657699Y-31451597D01*
X65657698Y-31451597D01*
X65526271Y-31430781D01*
X65486611Y-31424500D01*
X65313389Y-31424500D01*
X65273728Y-31430781D01*
X65142302Y-31451597D01*
X64977552Y-31505128D01*
X64823211Y-31583768D01*
X64743256Y-31641859D01*
X64683072Y-31685586D01*
X64683070Y-31685588D01*
X64683069Y-31685588D01*
X64560588Y-31808069D01*
X64560588Y-31808070D01*
X64560586Y-31808072D01*
X64526007Y-31855666D01*
X64458768Y-31948211D01*
X64380128Y-32102552D01*
X64326597Y-32267302D01*
X64299500Y-32438389D01*
X64299500Y-33161610D01*
X64319795Y-33289752D01*
X64326598Y-33332701D01*
X64380127Y-33497445D01*
X64458768Y-33651788D01*
X64560586Y-33791928D01*
X64683072Y-33914414D01*
X64823212Y-34016232D01*
X64977555Y-34094873D01*
X65142299Y-34148402D01*
X65313389Y-34175500D01*
X65313390Y-34175500D01*
X65486610Y-34175500D01*
X65486611Y-34175500D01*
X65657701Y-34148402D01*
X65822445Y-34094873D01*
X65976788Y-34016232D01*
X66116928Y-33914414D01*
X66239414Y-33791928D01*
X66299991Y-33708550D01*
X66355321Y-33665885D01*
X66424934Y-33659906D01*
X66486729Y-33692512D01*
X66500628Y-33708551D01*
X66560967Y-33791602D01*
X66683397Y-33914032D01*
X66823475Y-34015804D01*
X66977744Y-34094408D01*
X67142415Y-34147914D01*
X67142414Y-34147914D01*
X67149999Y-34149115D01*
X67150000Y-34149114D01*
X67150000Y-33080330D01*
X67169745Y-33100075D01*
X67255255Y-33149444D01*
X67350630Y-33175000D01*
X67449370Y-33175000D01*
X67544745Y-33149444D01*
X67630255Y-33100075D01*
X67650000Y-33080330D01*
X67650000Y-34149115D01*
X67657584Y-34147914D01*
X67822255Y-34094408D01*
X67976524Y-34015804D01*
X68116598Y-33914035D01*
X68224199Y-33806434D01*
X68285522Y-33772949D01*
X68355214Y-33777933D01*
X68411148Y-33819804D01*
X68417418Y-33829016D01*
X68457288Y-33893656D01*
X68581344Y-34017712D01*
X68730666Y-34109814D01*
X68897203Y-34164999D01*
X68999991Y-34175500D01*
X69800008Y-34175499D01*
X69800016Y-34175498D01*
X69800019Y-34175498D01*
X69856302Y-34169748D01*
X69902797Y-34164999D01*
X70069334Y-34109814D01*
X70218656Y-34017712D01*
X70342712Y-33893656D01*
X70434814Y-33744334D01*
X70489999Y-33577797D01*
X70500500Y-33475009D01*
X70500499Y-32812228D01*
X70520183Y-32745190D01*
X70536813Y-32724553D01*
X71287820Y-31973547D01*
X71349142Y-31940063D01*
X71418834Y-31945047D01*
X71474767Y-31986919D01*
X71499184Y-32052383D01*
X71499500Y-32061229D01*
X71499500Y-34065892D01*
X71511268Y-34109812D01*
X71533608Y-34193187D01*
X71566554Y-34250250D01*
X71599500Y-34307314D01*
X71692686Y-34400500D01*
X71806814Y-34466392D01*
X71934108Y-34500500D01*
X72065892Y-34500500D01*
X101375500Y-34500500D01*
X101442539Y-34520185D01*
X101488294Y-34572989D01*
X101499500Y-34624500D01*
X101499500Y-101375500D01*
X101479815Y-101442539D01*
X101427011Y-101488294D01*
X101375500Y-101499500D01*
X71934108Y-101499500D01*
X71806812Y-101533608D01*
X71692686Y-101599500D01*
X71692683Y-101599502D01*
X71599502Y-101692683D01*
X71599500Y-101692686D01*
X71533608Y-101806812D01*
X71499500Y-101934108D01*
X71499500Y-116375500D01*
X71479815Y-116442539D01*
X71427011Y-116488294D01*
X71375500Y-116499500D01*
X20624500Y-116499500D01*
X20557461Y-116479815D01*
X20511706Y-116427011D01*
X20500500Y-116375500D01*
X20500500Y-113672155D01*
X58460000Y-113672155D01*
X58460000Y-114270000D01*
X59444314Y-114270000D01*
X59439920Y-114274394D01*
X59387259Y-114365606D01*
X59360000Y-114467339D01*
X59360000Y-114572661D01*
X59387259Y-114674394D01*
X59439920Y-114765606D01*
X59444314Y-114770000D01*
X58460000Y-114770000D01*
X58460000Y-115367844D01*
X58466401Y-115427372D01*
X58466403Y-115427379D01*
X58516645Y-115562086D01*
X58516649Y-115562093D01*
X58602809Y-115677187D01*
X58602812Y-115677190D01*
X58717906Y-115763350D01*
X58717913Y-115763354D01*
X58852620Y-115813596D01*
X58852627Y-115813598D01*
X58912155Y-115819999D01*
X58912172Y-115820000D01*
X59510000Y-115820000D01*
X59510000Y-114835686D01*
X59514394Y-114840080D01*
X59605606Y-114892741D01*
X59707339Y-114920000D01*
X59812661Y-114920000D01*
X59914394Y-114892741D01*
X60005606Y-114840080D01*
X60010000Y-114835686D01*
X60010000Y-115820000D01*
X60607828Y-115820000D01*
X60607844Y-115819999D01*
X60667372Y-115813598D01*
X60667379Y-115813596D01*
X60802086Y-115763354D01*
X60802093Y-115763350D01*
X60917187Y-115677190D01*
X60917190Y-115677187D01*
X61003350Y-115562093D01*
X61003354Y-115562086D01*
X61053596Y-115427379D01*
X61057505Y-115391024D01*
X61084243Y-115326473D01*
X61141635Y-115286624D01*
X61211460Y-115284129D01*
X61271549Y-115319781D01*
X61282369Y-115333153D01*
X61300340Y-115358818D01*
X61461179Y-115519657D01*
X61647517Y-115650134D01*
X61853673Y-115746265D01*
X61853682Y-115746269D01*
X62049999Y-115798872D01*
X62050000Y-115798871D01*
X62050000Y-114835686D01*
X62054394Y-114840080D01*
X62145606Y-114892741D01*
X62247339Y-114920000D01*
X62352661Y-114920000D01*
X62454394Y-114892741D01*
X62545606Y-114840080D01*
X62550000Y-114835686D01*
X62550000Y-115798872D01*
X62746317Y-115746269D01*
X62746326Y-115746265D01*
X62952482Y-115650134D01*
X63138820Y-115519657D01*
X63299657Y-115358820D01*
X63430134Y-115172481D01*
X63430135Y-115172479D01*
X63457618Y-115113543D01*
X63503790Y-115061103D01*
X63570983Y-115041951D01*
X63637864Y-115062166D01*
X63682382Y-115113543D01*
X63709864Y-115172479D01*
X63709865Y-115172481D01*
X63840342Y-115358820D01*
X64001179Y-115519657D01*
X64187517Y-115650134D01*
X64393673Y-115746265D01*
X64393682Y-115746269D01*
X64589999Y-115798872D01*
X64590000Y-115798871D01*
X64590000Y-114835686D01*
X64594394Y-114840080D01*
X64685606Y-114892741D01*
X64787339Y-114920000D01*
X64892661Y-114920000D01*
X64994394Y-114892741D01*
X65085606Y-114840080D01*
X65090000Y-114835686D01*
X65090000Y-115798872D01*
X65286317Y-115746269D01*
X65286326Y-115746265D01*
X65492482Y-115650134D01*
X65678820Y-115519657D01*
X65839657Y-115358820D01*
X65970134Y-115172481D01*
X65970135Y-115172479D01*
X65997618Y-115113543D01*
X66043790Y-115061103D01*
X66110983Y-115041951D01*
X66177864Y-115062166D01*
X66222382Y-115113543D01*
X66249864Y-115172479D01*
X66249865Y-115172481D01*
X66380342Y-115358820D01*
X66541179Y-115519657D01*
X66727517Y-115650134D01*
X66933673Y-115746265D01*
X66933682Y-115746269D01*
X67129999Y-115798872D01*
X67130000Y-115798871D01*
X67130000Y-114835686D01*
X67134394Y-114840080D01*
X67225606Y-114892741D01*
X67327339Y-114920000D01*
X67432661Y-114920000D01*
X67534394Y-114892741D01*
X67625606Y-114840080D01*
X67630000Y-114835686D01*
X67630000Y-115798872D01*
X67826317Y-115746269D01*
X67826326Y-115746265D01*
X68032482Y-115650134D01*
X68218820Y-115519657D01*
X68379657Y-115358820D01*
X68510134Y-115172482D01*
X68606265Y-114966326D01*
X68606269Y-114966317D01*
X68658872Y-114770000D01*
X67695686Y-114770000D01*
X67700080Y-114765606D01*
X67752741Y-114674394D01*
X67780000Y-114572661D01*
X67780000Y-114467339D01*
X67752741Y-114365606D01*
X67700080Y-114274394D01*
X67695686Y-114270000D01*
X68658872Y-114270000D01*
X68658872Y-114269999D01*
X68606269Y-114073682D01*
X68606265Y-114073673D01*
X68510134Y-113867517D01*
X68379657Y-113681179D01*
X68218820Y-113520342D01*
X68032482Y-113389865D01*
X67826328Y-113293734D01*
X67630000Y-113241127D01*
X67630000Y-114204314D01*
X67625606Y-114199920D01*
X67534394Y-114147259D01*
X67432661Y-114120000D01*
X67327339Y-114120000D01*
X67225606Y-114147259D01*
X67134394Y-114199920D01*
X67130000Y-114204314D01*
X67130000Y-113241127D01*
X66933671Y-113293734D01*
X66727517Y-113389865D01*
X66541179Y-113520342D01*
X66380342Y-113681179D01*
X66249865Y-113867517D01*
X66222382Y-113926457D01*
X66176210Y-113978896D01*
X66109016Y-113998048D01*
X66042135Y-113977832D01*
X65997618Y-113926457D01*
X65970134Y-113867517D01*
X65839657Y-113681179D01*
X65678820Y-113520342D01*
X65492482Y-113389865D01*
X65286328Y-113293734D01*
X65090000Y-113241127D01*
X65090000Y-114204314D01*
X65085606Y-114199920D01*
X64994394Y-114147259D01*
X64892661Y-114120000D01*
X64787339Y-114120000D01*
X64685606Y-114147259D01*
X64594394Y-114199920D01*
X64590000Y-114204314D01*
X64590000Y-113241127D01*
X64393671Y-113293734D01*
X64187517Y-113389865D01*
X64001179Y-113520342D01*
X63840342Y-113681179D01*
X63709865Y-113867517D01*
X63682382Y-113926457D01*
X63636210Y-113978896D01*
X63569016Y-113998048D01*
X63502135Y-113977832D01*
X63457618Y-113926457D01*
X63430134Y-113867517D01*
X63299657Y-113681179D01*
X63138820Y-113520342D01*
X62952482Y-113389865D01*
X62746328Y-113293734D01*
X62550000Y-113241127D01*
X62550000Y-114204314D01*
X62545606Y-114199920D01*
X62454394Y-114147259D01*
X62352661Y-114120000D01*
X62247339Y-114120000D01*
X62145606Y-114147259D01*
X62054394Y-114199920D01*
X62050000Y-114204314D01*
X62050000Y-113241127D01*
X61853671Y-113293734D01*
X61647517Y-113389865D01*
X61461179Y-113520342D01*
X61300339Y-113681182D01*
X61282368Y-113706847D01*
X61227790Y-113750471D01*
X61158291Y-113757662D01*
X61095937Y-113726138D01*
X61060525Y-113665907D01*
X61057505Y-113648975D01*
X61053596Y-113612620D01*
X61003354Y-113477913D01*
X61003350Y-113477906D01*
X60917190Y-113362812D01*
X60917187Y-113362809D01*
X60802093Y-113276649D01*
X60802086Y-113276645D01*
X60667379Y-113226403D01*
X60667372Y-113226401D01*
X60607844Y-113220000D01*
X60010000Y-113220000D01*
X60010000Y-114204314D01*
X60005606Y-114199920D01*
X59914394Y-114147259D01*
X59812661Y-114120000D01*
X59707339Y-114120000D01*
X59605606Y-114147259D01*
X59514394Y-114199920D01*
X59510000Y-114204314D01*
X59510000Y-113220000D01*
X58912155Y-113220000D01*
X58852627Y-113226401D01*
X58852620Y-113226403D01*
X58717913Y-113276645D01*
X58717906Y-113276649D01*
X58602812Y-113362809D01*
X58602809Y-113362812D01*
X58516649Y-113477906D01*
X58516645Y-113477913D01*
X58466403Y-113612620D01*
X58466401Y-113612627D01*
X58460000Y-113672155D01*
X20500500Y-113672155D01*
X20500500Y-97999994D01*
X25444457Y-97999994D01*
X25444457Y-98000005D01*
X25464606Y-98320283D01*
X25464607Y-98320290D01*
X25487551Y-98440567D01*
X25523652Y-98629816D01*
X25524745Y-98635542D01*
X25623916Y-98940759D01*
X25623918Y-98940764D01*
X25760558Y-99231138D01*
X25760562Y-99231144D01*
X25932520Y-99502108D01*
X25932522Y-99502111D01*
X26137087Y-99749388D01*
X26371034Y-99969078D01*
X26371044Y-99969086D01*
X26630660Y-100157708D01*
X26630666Y-100157711D01*
X26630672Y-100157716D01*
X26911903Y-100312324D01*
X27210294Y-100430466D01*
X27210293Y-100430466D01*
X27521135Y-100510276D01*
X27521139Y-100510277D01*
X27587935Y-100518715D01*
X27839524Y-100550499D01*
X27839533Y-100550499D01*
X27839536Y-100550500D01*
X27839538Y-100550500D01*
X28160462Y-100550500D01*
X28160464Y-100550500D01*
X28160467Y-100550499D01*
X28160475Y-100550499D01*
X28350463Y-100526497D01*
X28478861Y-100510277D01*
X28789706Y-100430466D01*
X29088097Y-100312324D01*
X29369328Y-100157716D01*
X29628964Y-99969080D01*
X29862911Y-99749390D01*
X30067478Y-99502110D01*
X30239439Y-99231142D01*
X30376084Y-98940758D01*
X30475256Y-98635538D01*
X30535392Y-98320294D01*
X30538581Y-98269612D01*
X30555543Y-98000005D01*
X30555543Y-97999996D01*
X44194435Y-97999996D01*
X44194435Y-98000003D01*
X44214630Y-98179249D01*
X44214631Y-98179254D01*
X44274211Y-98349523D01*
X44285756Y-98367896D01*
X44370184Y-98502262D01*
X44497738Y-98629816D01*
X44506845Y-98635538D01*
X44521913Y-98645006D01*
X44568204Y-98697341D01*
X44578852Y-98766395D01*
X44550477Y-98830243D01*
X44521913Y-98854994D01*
X44497737Y-98870184D01*
X44370184Y-98997737D01*
X44274211Y-99150476D01*
X44214631Y-99320745D01*
X44214630Y-99320750D01*
X44194435Y-99499996D01*
X44194435Y-99500003D01*
X44214630Y-99679249D01*
X44214631Y-99679254D01*
X44274211Y-99849523D01*
X44349333Y-99969078D01*
X44370184Y-100002262D01*
X44497738Y-100129816D01*
X44521913Y-100145006D01*
X44568204Y-100197341D01*
X44578852Y-100266395D01*
X44550477Y-100330243D01*
X44521913Y-100354994D01*
X44497737Y-100370184D01*
X44370184Y-100497737D01*
X44274211Y-100650476D01*
X44214631Y-100820745D01*
X44214630Y-100820750D01*
X44194435Y-100999996D01*
X44194435Y-101000003D01*
X44214630Y-101179249D01*
X44214631Y-101179254D01*
X44274211Y-101349523D01*
X44361407Y-101488294D01*
X44370184Y-101502262D01*
X44497738Y-101629816D01*
X44521912Y-101645006D01*
X44568203Y-101697337D01*
X44578853Y-101766391D01*
X44550479Y-101830240D01*
X44521916Y-101854991D01*
X44497739Y-101870183D01*
X44497737Y-101870184D01*
X44370184Y-101997737D01*
X44274211Y-102150476D01*
X44214631Y-102320745D01*
X44214630Y-102320750D01*
X44194435Y-102499996D01*
X44194435Y-102500003D01*
X44214630Y-102679249D01*
X44214631Y-102679254D01*
X44274211Y-102849523D01*
X44370184Y-103002262D01*
X44497738Y-103129816D01*
X44650478Y-103225789D01*
X44820745Y-103285368D01*
X44820750Y-103285369D01*
X44999996Y-103305565D01*
X45000000Y-103305565D01*
X45000004Y-103305565D01*
X45179249Y-103285369D01*
X45179252Y-103285368D01*
X45179255Y-103285368D01*
X45259017Y-103257457D01*
X45299972Y-103250500D01*
X53388771Y-103250500D01*
X53455810Y-103270185D01*
X53501565Y-103322989D01*
X53511509Y-103392147D01*
X53482484Y-103455703D01*
X53476452Y-103462181D01*
X51191937Y-105746693D01*
X51155873Y-105769370D01*
X51156750Y-105771191D01*
X51150475Y-105774212D01*
X50997737Y-105870184D01*
X50870184Y-105997737D01*
X50774211Y-106150476D01*
X50714631Y-106320745D01*
X50714630Y-106320750D01*
X50694435Y-106499996D01*
X50694435Y-106500003D01*
X50714630Y-106679249D01*
X50714631Y-106679254D01*
X50774211Y-106849523D01*
X50805927Y-106899998D01*
X50870184Y-107002262D01*
X50997738Y-107129816D01*
X51150478Y-107225789D01*
X51320745Y-107285368D01*
X51320750Y-107285369D01*
X51499996Y-107305565D01*
X51500000Y-107305565D01*
X51500004Y-107305565D01*
X51679249Y-107285369D01*
X51679252Y-107285368D01*
X51679255Y-107285368D01*
X51849522Y-107225789D01*
X52002262Y-107129816D01*
X52129816Y-107002262D01*
X52194073Y-106899998D01*
X58454532Y-106899998D01*
X58454532Y-106900001D01*
X58474364Y-107126686D01*
X58474366Y-107126697D01*
X58533258Y-107346488D01*
X58533261Y-107346497D01*
X58629431Y-107552732D01*
X58629432Y-107552734D01*
X58759954Y-107739141D01*
X58920858Y-107900045D01*
X58920861Y-107900047D01*
X59107266Y-108030568D01*
X59313504Y-108126739D01*
X59533308Y-108185635D01*
X59695230Y-108199801D01*
X59759998Y-108205468D01*
X59760000Y-108205468D01*
X59760002Y-108205468D01*
X59816673Y-108200509D01*
X59986692Y-108185635D01*
X60206496Y-108126739D01*
X60412734Y-108030568D01*
X60599139Y-107900047D01*
X60760047Y-107739139D01*
X60890568Y-107552734D01*
X60917618Y-107494724D01*
X60963790Y-107442285D01*
X61030983Y-107423133D01*
X61097865Y-107443348D01*
X61142382Y-107494725D01*
X61169429Y-107552728D01*
X61169432Y-107552734D01*
X61299954Y-107739141D01*
X61460858Y-107900045D01*
X61460861Y-107900047D01*
X61647266Y-108030568D01*
X61853504Y-108126739D01*
X62073308Y-108185635D01*
X62235230Y-108199801D01*
X62299998Y-108205468D01*
X62300000Y-108205468D01*
X62300002Y-108205468D01*
X62356673Y-108200509D01*
X62526692Y-108185635D01*
X62746496Y-108126739D01*
X62952734Y-108030568D01*
X63139139Y-107900047D01*
X63300047Y-107739139D01*
X63430568Y-107552734D01*
X63457618Y-107494724D01*
X63503790Y-107442285D01*
X63570983Y-107423133D01*
X63637865Y-107443348D01*
X63682382Y-107494725D01*
X63709429Y-107552728D01*
X63709432Y-107552734D01*
X63839954Y-107739141D01*
X64000858Y-107900045D01*
X64000861Y-107900047D01*
X64187266Y-108030568D01*
X64393504Y-108126739D01*
X64613308Y-108185635D01*
X64775230Y-108199801D01*
X64839998Y-108205468D01*
X64840000Y-108205468D01*
X64840002Y-108205468D01*
X64896673Y-108200509D01*
X65066692Y-108185635D01*
X65286496Y-108126739D01*
X65492734Y-108030568D01*
X65679139Y-107900047D01*
X65840047Y-107739139D01*
X65970568Y-107552734D01*
X65997618Y-107494724D01*
X66043790Y-107442285D01*
X66110983Y-107423133D01*
X66177865Y-107443348D01*
X66222382Y-107494725D01*
X66249429Y-107552728D01*
X66249432Y-107552734D01*
X66379954Y-107739141D01*
X66540858Y-107900045D01*
X66540861Y-107900047D01*
X66727266Y-108030568D01*
X66933504Y-108126739D01*
X67153308Y-108185635D01*
X67315230Y-108199801D01*
X67379998Y-108205468D01*
X67380000Y-108205468D01*
X67380002Y-108205468D01*
X67436673Y-108200509D01*
X67606692Y-108185635D01*
X67826496Y-108126739D01*
X68032734Y-108030568D01*
X68219139Y-107900047D01*
X68380047Y-107739139D01*
X68510568Y-107552734D01*
X68606739Y-107346496D01*
X68665635Y-107126692D01*
X68685468Y-106900000D01*
X68665635Y-106673308D01*
X68606739Y-106453504D01*
X68510568Y-106247266D01*
X68380047Y-106060861D01*
X68380045Y-106060858D01*
X68219141Y-105899954D01*
X68032734Y-105769432D01*
X68032732Y-105769431D01*
X67826497Y-105673261D01*
X67826488Y-105673258D01*
X67606697Y-105614366D01*
X67606693Y-105614365D01*
X67606692Y-105614365D01*
X67606691Y-105614364D01*
X67606686Y-105614364D01*
X67380002Y-105594532D01*
X67379998Y-105594532D01*
X67153313Y-105614364D01*
X67153302Y-105614366D01*
X66933511Y-105673258D01*
X66933502Y-105673261D01*
X66727267Y-105769431D01*
X66727265Y-105769432D01*
X66540858Y-105899954D01*
X66379954Y-106060858D01*
X66249432Y-106247265D01*
X66249431Y-106247267D01*
X66222382Y-106305275D01*
X66176209Y-106357714D01*
X66109016Y-106376866D01*
X66042135Y-106356650D01*
X65997618Y-106305275D01*
X65970568Y-106247267D01*
X65970567Y-106247265D01*
X65902795Y-106150476D01*
X65840047Y-106060861D01*
X65840045Y-106060858D01*
X65679141Y-105899954D01*
X65492734Y-105769432D01*
X65492732Y-105769431D01*
X65286497Y-105673261D01*
X65286488Y-105673258D01*
X65066697Y-105614366D01*
X65066693Y-105614365D01*
X65066692Y-105614365D01*
X65066691Y-105614364D01*
X65066686Y-105614364D01*
X64840002Y-105594532D01*
X64839998Y-105594532D01*
X64613313Y-105614364D01*
X64613302Y-105614366D01*
X64393511Y-105673258D01*
X64393502Y-105673261D01*
X64187267Y-105769431D01*
X64187265Y-105769432D01*
X64000858Y-105899954D01*
X63839954Y-106060858D01*
X63709432Y-106247265D01*
X63709431Y-106247267D01*
X63682382Y-106305275D01*
X63636209Y-106357714D01*
X63569016Y-106376866D01*
X63502135Y-106356650D01*
X63457618Y-106305275D01*
X63430568Y-106247267D01*
X63430567Y-106247265D01*
X63362795Y-106150476D01*
X63300047Y-106060861D01*
X63300045Y-106060858D01*
X63139141Y-105899954D01*
X62952734Y-105769432D01*
X62952732Y-105769431D01*
X62746497Y-105673261D01*
X62746488Y-105673258D01*
X62526697Y-105614366D01*
X62526693Y-105614365D01*
X62526692Y-105614365D01*
X62526691Y-105614364D01*
X62526686Y-105614364D01*
X62300002Y-105594532D01*
X62299998Y-105594532D01*
X62073313Y-105614364D01*
X62073302Y-105614366D01*
X61853511Y-105673258D01*
X61853502Y-105673261D01*
X61647267Y-105769431D01*
X61647265Y-105769432D01*
X61460858Y-105899954D01*
X61299954Y-106060858D01*
X61169432Y-106247265D01*
X61169431Y-106247267D01*
X61142382Y-106305275D01*
X61096209Y-106357714D01*
X61029016Y-106376866D01*
X60962135Y-106356650D01*
X60917618Y-106305275D01*
X60890568Y-106247267D01*
X60890567Y-106247265D01*
X60822795Y-106150476D01*
X60760047Y-106060861D01*
X60760045Y-106060858D01*
X60599141Y-105899954D01*
X60412734Y-105769432D01*
X60412732Y-105769431D01*
X60206497Y-105673261D01*
X60206488Y-105673258D01*
X59986697Y-105614366D01*
X59986693Y-105614365D01*
X59986692Y-105614365D01*
X59986691Y-105614364D01*
X59986686Y-105614364D01*
X59760002Y-105594532D01*
X59759998Y-105594532D01*
X59533313Y-105614364D01*
X59533302Y-105614366D01*
X59313511Y-105673258D01*
X59313502Y-105673261D01*
X59107267Y-105769431D01*
X59107265Y-105769432D01*
X58920858Y-105899954D01*
X58759954Y-106060858D01*
X58629432Y-106247265D01*
X58629431Y-106247267D01*
X58533261Y-106453502D01*
X58533258Y-106453511D01*
X58474366Y-106673302D01*
X58474364Y-106673313D01*
X58454532Y-106899998D01*
X52194073Y-106899998D01*
X52225789Y-106849522D01*
X52225792Y-106849510D01*
X52228810Y-106843248D01*
X52230650Y-106844134D01*
X52253305Y-106808061D01*
X54774548Y-104286819D01*
X54835871Y-104253334D01*
X54862229Y-104250500D01*
X65073920Y-104250500D01*
X65171462Y-104231096D01*
X65218913Y-104221658D01*
X65355495Y-104165084D01*
X65404729Y-104132186D01*
X65478416Y-104082952D01*
X71582951Y-97978416D01*
X71665084Y-97855495D01*
X71721658Y-97718913D01*
X71733598Y-97658889D01*
X71765983Y-97596978D01*
X71826698Y-97562404D01*
X71896468Y-97566143D01*
X71953140Y-97607010D01*
X71974990Y-97650987D01*
X72003258Y-97756488D01*
X72003261Y-97756497D01*
X72099431Y-97962732D01*
X72099432Y-97962734D01*
X72229954Y-98149141D01*
X72390858Y-98310045D01*
X72390861Y-98310047D01*
X72577266Y-98440568D01*
X72783504Y-98536739D01*
X73003308Y-98595635D01*
X73165230Y-98609801D01*
X73229998Y-98615468D01*
X73230000Y-98615468D01*
X73230002Y-98615468D01*
X73286673Y-98610509D01*
X73456692Y-98595635D01*
X73676496Y-98536739D01*
X73882734Y-98440568D01*
X74069139Y-98310047D01*
X74230047Y-98149139D01*
X74360568Y-97962734D01*
X74456739Y-97756496D01*
X74471877Y-97700000D01*
X77944709Y-97700000D01*
X77963851Y-97979862D01*
X77963852Y-97979864D01*
X78020921Y-98254499D01*
X78020926Y-98254516D01*
X78112834Y-98513118D01*
X78114864Y-98518830D01*
X78243919Y-98767896D01*
X78405688Y-98997069D01*
X78405692Y-98997073D01*
X78405692Y-98997074D01*
X78548961Y-99150478D01*
X78597155Y-99202081D01*
X78814754Y-99379111D01*
X78814756Y-99379112D01*
X78814757Y-99379113D01*
X79054433Y-99524863D01*
X79263257Y-99615567D01*
X79311725Y-99636620D01*
X79581839Y-99712303D01*
X79826159Y-99745884D01*
X79859741Y-99750500D01*
X79859742Y-99750500D01*
X80140259Y-99750500D01*
X80170219Y-99746381D01*
X80418161Y-99712303D01*
X80688275Y-99636620D01*
X80897100Y-99545914D01*
X80945566Y-99524863D01*
X80945568Y-99524862D01*
X81185246Y-99379111D01*
X81402845Y-99202081D01*
X81594312Y-98997069D01*
X81756081Y-98767896D01*
X81885136Y-98518830D01*
X81979075Y-98254511D01*
X81979076Y-98254504D01*
X81979078Y-98254499D01*
X82031962Y-98000005D01*
X82036148Y-97979862D01*
X82055291Y-97700000D01*
X82036148Y-97420138D01*
X82011183Y-97300000D01*
X95944709Y-97300000D01*
X95963851Y-97579862D01*
X95963852Y-97579864D01*
X96020921Y-97854499D01*
X96020926Y-97854516D01*
X96114863Y-98118828D01*
X96114864Y-98118830D01*
X96243919Y-98367896D01*
X96405688Y-98597069D01*
X96405692Y-98597073D01*
X96405692Y-98597074D01*
X96571126Y-98774211D01*
X96597155Y-98802081D01*
X96814754Y-98979111D01*
X96814756Y-98979112D01*
X96814757Y-98979113D01*
X97054433Y-99124863D01*
X97232206Y-99202080D01*
X97311725Y-99236620D01*
X97581839Y-99312303D01*
X97826159Y-99345884D01*
X97859741Y-99350500D01*
X97859742Y-99350500D01*
X98140259Y-99350500D01*
X98170219Y-99346381D01*
X98418161Y-99312303D01*
X98688275Y-99236620D01*
X98945568Y-99124862D01*
X99185246Y-98979111D01*
X99402845Y-98802081D01*
X99594312Y-98597069D01*
X99756081Y-98367896D01*
X99885136Y-98118830D01*
X99979075Y-97854511D01*
X99979076Y-97854504D01*
X99979078Y-97854499D01*
X100021368Y-97650987D01*
X100036148Y-97579862D01*
X100055291Y-97300000D01*
X100036148Y-97020138D01*
X100003899Y-96864946D01*
X99979078Y-96745500D01*
X99979073Y-96745483D01*
X99934258Y-96619385D01*
X99885136Y-96481170D01*
X99756081Y-96232104D01*
X99594312Y-96002931D01*
X99594307Y-96002925D01*
X99402845Y-95797919D01*
X99267336Y-95687674D01*
X99185246Y-95620889D01*
X99185244Y-95620888D01*
X99185242Y-95620886D01*
X98945566Y-95475136D01*
X98688276Y-95363380D01*
X98418166Y-95287698D01*
X98418162Y-95287697D01*
X98418161Y-95287697D01*
X98279209Y-95268598D01*
X98140259Y-95249500D01*
X98140258Y-95249500D01*
X97859742Y-95249500D01*
X97859741Y-95249500D01*
X97581839Y-95287697D01*
X97581833Y-95287698D01*
X97311723Y-95363380D01*
X97054433Y-95475136D01*
X96814757Y-95620886D01*
X96597154Y-95797919D01*
X96405692Y-96002925D01*
X96405692Y-96002926D01*
X96405689Y-96002928D01*
X96405688Y-96002931D01*
X96380216Y-96039017D01*
X96243919Y-96232103D01*
X96114863Y-96481171D01*
X96020926Y-96745483D01*
X96020921Y-96745500D01*
X95963852Y-97020135D01*
X95963851Y-97020137D01*
X95944709Y-97300000D01*
X82011183Y-97300000D01*
X82005824Y-97274211D01*
X81979078Y-97145500D01*
X81979073Y-97145483D01*
X81919881Y-96978934D01*
X81885136Y-96881170D01*
X81756081Y-96632104D01*
X81594312Y-96402931D01*
X81594307Y-96402925D01*
X81402845Y-96197919D01*
X81380118Y-96179429D01*
X81185246Y-96020889D01*
X81185244Y-96020888D01*
X81185242Y-96020886D01*
X80945566Y-95875136D01*
X80688276Y-95763380D01*
X80418166Y-95687698D01*
X80418162Y-95687697D01*
X80418161Y-95687697D01*
X80279209Y-95668598D01*
X80140259Y-95649500D01*
X80140258Y-95649500D01*
X79859742Y-95649500D01*
X79859741Y-95649500D01*
X79581839Y-95687697D01*
X79581833Y-95687698D01*
X79311723Y-95763380D01*
X79054433Y-95875136D01*
X78814757Y-96020886D01*
X78597154Y-96197919D01*
X78405692Y-96402925D01*
X78405692Y-96402926D01*
X78405689Y-96402928D01*
X78405688Y-96402931D01*
X78350461Y-96481170D01*
X78243919Y-96632103D01*
X78114863Y-96881171D01*
X78020926Y-97145483D01*
X78020921Y-97145500D01*
X77963852Y-97420135D01*
X77963851Y-97420137D01*
X77944709Y-97700000D01*
X74471877Y-97700000D01*
X74515635Y-97536692D01*
X74535468Y-97310000D01*
X74515635Y-97083308D01*
X74489847Y-96987066D01*
X74491510Y-96917217D01*
X74521939Y-96867294D01*
X75358506Y-96030728D01*
X75358511Y-96030724D01*
X75368714Y-96020520D01*
X75368716Y-96020520D01*
X75480520Y-95908716D01*
X75544486Y-95797921D01*
X75544488Y-95797920D01*
X75550611Y-95787313D01*
X75559577Y-95771785D01*
X75600501Y-95619057D01*
X75600501Y-95460943D01*
X75600501Y-95453348D01*
X75600500Y-95453330D01*
X75600500Y-86099996D01*
X76894435Y-86099996D01*
X76894435Y-86100003D01*
X76914630Y-86279249D01*
X76914631Y-86279254D01*
X76974211Y-86449523D01*
X77037659Y-86550499D01*
X77070184Y-86602262D01*
X77197738Y-86729816D01*
X77350478Y-86825789D01*
X77520745Y-86885368D01*
X77520750Y-86885369D01*
X77699996Y-86905565D01*
X77700000Y-86905565D01*
X77700004Y-86905565D01*
X77879249Y-86885369D01*
X77879252Y-86885368D01*
X77879255Y-86885368D01*
X78049522Y-86825789D01*
X78202262Y-86729816D01*
X78329816Y-86602262D01*
X78425789Y-86449522D01*
X78485368Y-86279255D01*
X78495161Y-86192329D01*
X78522226Y-86127918D01*
X78530690Y-86118543D01*
X78912416Y-85736818D01*
X78973739Y-85703333D01*
X79000097Y-85700499D01*
X79300002Y-85700499D01*
X79300008Y-85700499D01*
X79402797Y-85689999D01*
X79569334Y-85634814D01*
X79718656Y-85542712D01*
X79842712Y-85418656D01*
X79934814Y-85269334D01*
X79989999Y-85102797D01*
X80000500Y-85000009D01*
X80000499Y-84199992D01*
X79996772Y-84163511D01*
X79989999Y-84097203D01*
X79989998Y-84097200D01*
X79971294Y-84040755D01*
X79934814Y-83930666D01*
X79842712Y-83781344D01*
X79749049Y-83687681D01*
X79715564Y-83626358D01*
X79720548Y-83556666D01*
X79749049Y-83512319D01*
X79782119Y-83479249D01*
X79842712Y-83418656D01*
X79934814Y-83269334D01*
X79989999Y-83102797D01*
X80000500Y-83000009D01*
X80000499Y-82199992D01*
X80000499Y-82199991D01*
X80000499Y-82196835D01*
X80002163Y-82196835D01*
X80016817Y-82135181D01*
X80067160Y-82086731D01*
X80135705Y-82073190D01*
X80163489Y-82078974D01*
X80272203Y-82114999D01*
X80374991Y-82125500D01*
X81425008Y-82125499D01*
X81425016Y-82125498D01*
X81425019Y-82125498D01*
X81481302Y-82119748D01*
X81527797Y-82114999D01*
X81694334Y-82059814D01*
X81843656Y-81967712D01*
X81967712Y-81843656D01*
X81967715Y-81843650D01*
X81972193Y-81837989D01*
X81974015Y-81839430D01*
X82017665Y-81800175D01*
X82071248Y-81788000D01*
X86336420Y-81788000D01*
X86433962Y-81768596D01*
X86481413Y-81759158D01*
X86617995Y-81702584D01*
X86667229Y-81669686D01*
X86740916Y-81620452D01*
X91085982Y-77275383D01*
X91147303Y-77241900D01*
X91216995Y-77246884D01*
X91272928Y-77288756D01*
X91293435Y-77330971D01*
X91309101Y-77389436D01*
X91309104Y-77389445D01*
X91309106Y-77389450D01*
X91372301Y-77524973D01*
X91402466Y-77589662D01*
X91402468Y-77589666D01*
X91529170Y-77770615D01*
X91529175Y-77770621D01*
X91685378Y-77926824D01*
X91685384Y-77926829D01*
X91866333Y-78053531D01*
X91866335Y-78053532D01*
X91866338Y-78053534D01*
X92066550Y-78146894D01*
X92279932Y-78204070D01*
X92424743Y-78216739D01*
X92499998Y-78223323D01*
X92500000Y-78223323D01*
X92500002Y-78223323D01*
X92575257Y-78216739D01*
X92720068Y-78204070D01*
X92933450Y-78146894D01*
X93133662Y-78053534D01*
X93314620Y-77926826D01*
X93470826Y-77770620D01*
X93597534Y-77589662D01*
X93690894Y-77389450D01*
X93748070Y-77176068D01*
X93764348Y-76990001D01*
X93767323Y-76956002D01*
X93767323Y-76955999D01*
X93756358Y-76830668D01*
X93755793Y-76824213D01*
X93769559Y-76755715D01*
X93791637Y-76725729D01*
X95162821Y-75354545D01*
X95224142Y-75321062D01*
X95293834Y-75326046D01*
X95349767Y-75367918D01*
X95374184Y-75433382D01*
X95374500Y-75442228D01*
X95374500Y-75850001D01*
X95374501Y-75850019D01*
X95385000Y-75952796D01*
X95385001Y-75952799D01*
X95440185Y-76119331D01*
X95440187Y-76119336D01*
X95468405Y-76165084D01*
X95527742Y-76261286D01*
X95532289Y-76268657D01*
X95656346Y-76392714D01*
X95659182Y-76394463D01*
X95660717Y-76396170D01*
X95662011Y-76397193D01*
X95661836Y-76397414D01*
X95705905Y-76446411D01*
X95717126Y-76515374D01*
X95689282Y-76579456D01*
X95659182Y-76605537D01*
X95656346Y-76607285D01*
X95532289Y-76731342D01*
X95440187Y-76880663D01*
X95440186Y-76880666D01*
X95385001Y-77047203D01*
X95385001Y-77047204D01*
X95385000Y-77047204D01*
X95374500Y-77149983D01*
X95374500Y-77925001D01*
X95374501Y-77925019D01*
X95385000Y-78027796D01*
X95385001Y-78027799D01*
X95440185Y-78194331D01*
X95440189Y-78194340D01*
X95503401Y-78296823D01*
X95521841Y-78364215D01*
X95500918Y-78430879D01*
X95455985Y-78469888D01*
X95456374Y-78470506D01*
X95452392Y-78473007D01*
X95451669Y-78473636D01*
X95450485Y-78474206D01*
X95297737Y-78570184D01*
X95170184Y-78697737D01*
X95074209Y-78850480D01*
X95022226Y-78999038D01*
X94992866Y-79045764D01*
X94517048Y-79521583D01*
X94498382Y-79549521D01*
X94498381Y-79549522D01*
X94434913Y-79644508D01*
X94378343Y-79781082D01*
X94378340Y-79781092D01*
X94349500Y-79926079D01*
X94349500Y-79926082D01*
X94349500Y-81573918D01*
X94349500Y-81573920D01*
X94349499Y-81573920D01*
X94378340Y-81718907D01*
X94378343Y-81718917D01*
X94434914Y-81855492D01*
X94467812Y-81904727D01*
X94467813Y-81904730D01*
X94517046Y-81978414D01*
X94517052Y-81978421D01*
X95121581Y-82582950D01*
X95121584Y-82582952D01*
X95176111Y-82619385D01*
X95244505Y-82665084D01*
X95381087Y-82721658D01*
X95381091Y-82721658D01*
X95381092Y-82721659D01*
X95526079Y-82750500D01*
X95526082Y-82750500D01*
X95526083Y-82750500D01*
X95673918Y-82750500D01*
X96217672Y-82750500D01*
X96252267Y-82755424D01*
X96397426Y-82797597D01*
X96397429Y-82797597D01*
X96397431Y-82797598D01*
X96434306Y-82800500D01*
X96434314Y-82800500D01*
X96851928Y-82800500D01*
X96918967Y-82820185D01*
X96964722Y-82872989D01*
X96974666Y-82942147D01*
X96968970Y-82965454D01*
X96914632Y-83120742D01*
X96914630Y-83120750D01*
X96894435Y-83299996D01*
X96894435Y-83300003D01*
X96914630Y-83479249D01*
X96914631Y-83479254D01*
X96974211Y-83649523D01*
X97050453Y-83770861D01*
X97070184Y-83802262D01*
X97197738Y-83929816D01*
X97241426Y-83957267D01*
X97309425Y-83999994D01*
X97350478Y-84025789D01*
X97520745Y-84085368D01*
X97520750Y-84085369D01*
X97699996Y-84105565D01*
X97700000Y-84105565D01*
X97700003Y-84105565D01*
X97805151Y-84093717D01*
X97848973Y-84088779D01*
X97862855Y-84088000D01*
X98178752Y-84088000D01*
X98245791Y-84107685D01*
X98276531Y-84138997D01*
X98277807Y-84137989D01*
X98282288Y-84143656D01*
X98406344Y-84267712D01*
X98555666Y-84359814D01*
X98722203Y-84414999D01*
X98824991Y-84425500D01*
X99875008Y-84425499D01*
X99875016Y-84425498D01*
X99875019Y-84425498D01*
X99931302Y-84419748D01*
X99977797Y-84414999D01*
X100144334Y-84359814D01*
X100293656Y-84267712D01*
X100417712Y-84143656D01*
X100509814Y-83994334D01*
X100564999Y-83827797D01*
X100575500Y-83725009D01*
X100575499Y-82949992D01*
X100570835Y-82904338D01*
X100564999Y-82847203D01*
X100564998Y-82847200D01*
X100548608Y-82797738D01*
X100509814Y-82680666D01*
X100417712Y-82531344D01*
X100293656Y-82407288D01*
X100290819Y-82405538D01*
X100289283Y-82403830D01*
X100287989Y-82402807D01*
X100288163Y-82402585D01*
X100244096Y-82353594D01*
X100232872Y-82284632D01*
X100260713Y-82220549D01*
X100290817Y-82194462D01*
X100293656Y-82192712D01*
X100417712Y-82068656D01*
X100509814Y-81919334D01*
X100564999Y-81752797D01*
X100575500Y-81650009D01*
X100575499Y-80874992D01*
X100573208Y-80852569D01*
X100564999Y-80772203D01*
X100564998Y-80772200D01*
X100528007Y-80660570D01*
X100509814Y-80605666D01*
X100417712Y-80456344D01*
X100388125Y-80426757D01*
X100354640Y-80365434D01*
X100359624Y-80295742D01*
X100370264Y-80273985D01*
X100434814Y-80169334D01*
X100489999Y-80002797D01*
X100500500Y-79900009D01*
X100500499Y-79099992D01*
X100498815Y-79083511D01*
X100489999Y-78997203D01*
X100489998Y-78997200D01*
X100450256Y-78877267D01*
X100434814Y-78830666D01*
X100342712Y-78681344D01*
X100249049Y-78587681D01*
X100215564Y-78526358D01*
X100220548Y-78456666D01*
X100249049Y-78412319D01*
X100288986Y-78372382D01*
X100342712Y-78318656D01*
X100434814Y-78169334D01*
X100489999Y-78002797D01*
X100500500Y-77900009D01*
X100500499Y-77099992D01*
X100489999Y-76997203D01*
X100434814Y-76830666D01*
X100388584Y-76755715D01*
X100368961Y-76723900D01*
X100350500Y-76658804D01*
X100350500Y-76230969D01*
X100367768Y-76167848D01*
X100371196Y-76162052D01*
X100401744Y-76110398D01*
X100447598Y-75952569D01*
X100450500Y-75915694D01*
X100450500Y-75484306D01*
X100447598Y-75447431D01*
X100446086Y-75442228D01*
X100406382Y-75305565D01*
X100401744Y-75289602D01*
X100318081Y-75148135D01*
X100318079Y-75148133D01*
X100318076Y-75148129D01*
X100257628Y-75087681D01*
X100224143Y-75026358D01*
X100229127Y-74956666D01*
X100257628Y-74912319D01*
X100318076Y-74851870D01*
X100318081Y-74851865D01*
X100401744Y-74710398D01*
X100447598Y-74552569D01*
X100450500Y-74515694D01*
X100450500Y-74084306D01*
X100447598Y-74047431D01*
X100445493Y-74040187D01*
X100401745Y-73889606D01*
X100401744Y-73889603D01*
X100401744Y-73889602D01*
X100318081Y-73748135D01*
X100318079Y-73748133D01*
X100318076Y-73748129D01*
X100201870Y-73631923D01*
X100201862Y-73631917D01*
X100060396Y-73548255D01*
X100060393Y-73548254D01*
X99902573Y-73502402D01*
X99902567Y-73502401D01*
X99865701Y-73499500D01*
X99865694Y-73499500D01*
X99334306Y-73499500D01*
X99334298Y-73499500D01*
X99297432Y-73502401D01*
X99297421Y-73502403D01*
X99295286Y-73503024D01*
X99294046Y-73503020D01*
X99291201Y-73503540D01*
X99291104Y-73503011D01*
X99225417Y-73502817D01*
X99166751Y-73464869D01*
X99137914Y-73401227D01*
X99141628Y-73349347D01*
X99159600Y-73287489D01*
X99162499Y-73250649D01*
X99162500Y-73250634D01*
X99162500Y-72585000D01*
X98236500Y-72585000D01*
X98169461Y-72565315D01*
X98123706Y-72512511D01*
X98112500Y-72461000D01*
X98112500Y-72085000D01*
X98612500Y-72085000D01*
X99162500Y-72085000D01*
X99162500Y-71419365D01*
X99162499Y-71419350D01*
X99159600Y-71382510D01*
X99159599Y-71382504D01*
X99113783Y-71224806D01*
X99113782Y-71224803D01*
X99030185Y-71083447D01*
X99030178Y-71083438D01*
X98914061Y-70967321D01*
X98914052Y-70967314D01*
X98772696Y-70883717D01*
X98772693Y-70883716D01*
X98614994Y-70837900D01*
X98614997Y-70837900D01*
X98612500Y-70837703D01*
X98612500Y-72085000D01*
X98112500Y-72085000D01*
X98112500Y-70837703D01*
X98110003Y-70837900D01*
X97952306Y-70883716D01*
X97952303Y-70883717D01*
X97810949Y-70967313D01*
X97804783Y-70972097D01*
X97802889Y-70969655D01*
X97754080Y-70996239D01*
X97684394Y-70991179D01*
X97651727Y-70970159D01*
X97650531Y-70971702D01*
X97644362Y-70966917D01*
X97548040Y-70909953D01*
X97502898Y-70883256D01*
X97502897Y-70883255D01*
X97502896Y-70883255D01*
X97502893Y-70883254D01*
X97345073Y-70837402D01*
X97345067Y-70837401D01*
X97308201Y-70834500D01*
X97308194Y-70834500D01*
X96876806Y-70834500D01*
X96876798Y-70834500D01*
X96839932Y-70837401D01*
X96839926Y-70837402D01*
X96682106Y-70883254D01*
X96682103Y-70883255D01*
X96540637Y-70966917D01*
X96534469Y-70971702D01*
X96532572Y-70969256D01*
X96483858Y-70995857D01*
X96414166Y-70990873D01*
X96381796Y-70970069D01*
X96380531Y-70971702D01*
X96374362Y-70966917D01*
X96278040Y-70909953D01*
X96232898Y-70883256D01*
X96232897Y-70883255D01*
X96232896Y-70883255D01*
X96232893Y-70883254D01*
X96075073Y-70837402D01*
X96075067Y-70837401D01*
X96038201Y-70834500D01*
X96038194Y-70834500D01*
X95606806Y-70834500D01*
X95606798Y-70834500D01*
X95569932Y-70837401D01*
X95569926Y-70837402D01*
X95412106Y-70883254D01*
X95412103Y-70883255D01*
X95270637Y-70966917D01*
X95264469Y-70971702D01*
X95262572Y-70969256D01*
X95213858Y-70995857D01*
X95144166Y-70990873D01*
X95111796Y-70970069D01*
X95110531Y-70971702D01*
X95104362Y-70966917D01*
X95008040Y-70909953D01*
X94962898Y-70883256D01*
X94962897Y-70883255D01*
X94962896Y-70883255D01*
X94962893Y-70883254D01*
X94805073Y-70837402D01*
X94805067Y-70837401D01*
X94768201Y-70834500D01*
X94768194Y-70834500D01*
X94336806Y-70834500D01*
X94336798Y-70834500D01*
X94299932Y-70837401D01*
X94299926Y-70837402D01*
X94142106Y-70883254D01*
X94142103Y-70883255D01*
X94000637Y-70966917D01*
X93994469Y-70971702D01*
X93992572Y-70969256D01*
X93943858Y-70995857D01*
X93874166Y-70990873D01*
X93841796Y-70970069D01*
X93840531Y-70971702D01*
X93834362Y-70966917D01*
X93738040Y-70909953D01*
X93692898Y-70883256D01*
X93692897Y-70883255D01*
X93692896Y-70883255D01*
X93692893Y-70883254D01*
X93535073Y-70837402D01*
X93535067Y-70837401D01*
X93498201Y-70834500D01*
X93498194Y-70834500D01*
X93066806Y-70834500D01*
X93066798Y-70834500D01*
X93029932Y-70837401D01*
X93029926Y-70837402D01*
X92872106Y-70883254D01*
X92872103Y-70883255D01*
X92730637Y-70966917D01*
X92724469Y-70971702D01*
X92722572Y-70969256D01*
X92673858Y-70995857D01*
X92604166Y-70990873D01*
X92571796Y-70970069D01*
X92570531Y-70971702D01*
X92564362Y-70966917D01*
X92468040Y-70909953D01*
X92422898Y-70883256D01*
X92422897Y-70883255D01*
X92422896Y-70883255D01*
X92422893Y-70883254D01*
X92265073Y-70837402D01*
X92265067Y-70837401D01*
X92228201Y-70834500D01*
X92228194Y-70834500D01*
X91796806Y-70834500D01*
X91796798Y-70834500D01*
X91759932Y-70837401D01*
X91759926Y-70837402D01*
X91602106Y-70883254D01*
X91602103Y-70883255D01*
X91460637Y-70966917D01*
X91454469Y-70971702D01*
X91452572Y-70969256D01*
X91403858Y-70995857D01*
X91334166Y-70990873D01*
X91301796Y-70970069D01*
X91300531Y-70971702D01*
X91294362Y-70966917D01*
X91198040Y-70909953D01*
X91152898Y-70883256D01*
X91152897Y-70883255D01*
X91152896Y-70883255D01*
X91152893Y-70883254D01*
X90995073Y-70837402D01*
X90995067Y-70837401D01*
X90958201Y-70834500D01*
X90958194Y-70834500D01*
X90526806Y-70834500D01*
X90526798Y-70834500D01*
X90489932Y-70837401D01*
X90489926Y-70837402D01*
X90332106Y-70883254D01*
X90332103Y-70883255D01*
X90190640Y-70966915D01*
X90184474Y-70971699D01*
X90182674Y-70969379D01*
X90133413Y-70996230D01*
X90063725Y-70991193D01*
X90031492Y-70970461D01*
X90030222Y-70972100D01*
X90024052Y-70967314D01*
X89882696Y-70883717D01*
X89882693Y-70883716D01*
X89724994Y-70837900D01*
X89724997Y-70837900D01*
X89722500Y-70837703D01*
X89722500Y-73832295D01*
X89722501Y-73832295D01*
X89724984Y-73832100D01*
X89729382Y-73831297D01*
X89798868Y-73838610D01*
X89853370Y-73882328D01*
X89875584Y-73948573D01*
X89858457Y-74016311D01*
X89856667Y-74019249D01*
X89774211Y-74150476D01*
X89714631Y-74320745D01*
X89714630Y-74320750D01*
X89694435Y-74499996D01*
X89694435Y-74500003D01*
X89714630Y-74679249D01*
X89714631Y-74679254D01*
X89774211Y-74849523D01*
X89868763Y-75000000D01*
X89870184Y-75002262D01*
X89997738Y-75129816D01*
X90150478Y-75225789D01*
X90320745Y-75285368D01*
X90320750Y-75285369D01*
X90499996Y-75305565D01*
X90500000Y-75305565D01*
X90500002Y-75305565D01*
X90547084Y-75300259D01*
X90635914Y-75290251D01*
X90704735Y-75302305D01*
X90756114Y-75349654D01*
X90773739Y-75417264D01*
X90752013Y-75483670D01*
X90737478Y-75501152D01*
X85987951Y-80250681D01*
X85926628Y-80284166D01*
X85900270Y-80287000D01*
X82071248Y-80287000D01*
X82004209Y-80267315D01*
X81973468Y-80236002D01*
X81972193Y-80237011D01*
X81967711Y-80231343D01*
X81843657Y-80107289D01*
X81843656Y-80107288D01*
X81840342Y-80105243D01*
X81838546Y-80103248D01*
X81837989Y-80102807D01*
X81838064Y-80102711D01*
X81793618Y-80053297D01*
X81782397Y-79984334D01*
X81810240Y-79920252D01*
X81840348Y-79894165D01*
X81843342Y-79892318D01*
X81967315Y-79768345D01*
X82059356Y-79619124D01*
X82059358Y-79619119D01*
X82114505Y-79452697D01*
X82114506Y-79452690D01*
X82124999Y-79349986D01*
X82125000Y-79349973D01*
X82125000Y-79212500D01*
X79675001Y-79212500D01*
X79675001Y-79349986D01*
X79685494Y-79452697D01*
X79740641Y-79619119D01*
X79740643Y-79619124D01*
X79832684Y-79768345D01*
X79956655Y-79892316D01*
X79956659Y-79892319D01*
X79959656Y-79894168D01*
X79961279Y-79895972D01*
X79962323Y-79896798D01*
X79962181Y-79896976D01*
X80006381Y-79946116D01*
X80017602Y-80015079D01*
X79989759Y-80079161D01*
X79959661Y-80105241D01*
X79956349Y-80107283D01*
X79956343Y-80107288D01*
X79832288Y-80231343D01*
X79827807Y-80237011D01*
X79825984Y-80235569D01*
X79782335Y-80274825D01*
X79728752Y-80287000D01*
X79288580Y-80287000D01*
X79143592Y-80315840D01*
X79143586Y-80315842D01*
X79007008Y-80372414D01*
X79006996Y-80372421D01*
X78957769Y-80405313D01*
X78884088Y-80454544D01*
X78884080Y-80454550D01*
X78317047Y-81021584D01*
X78317045Y-81021586D01*
X78284732Y-81069950D01*
X78284730Y-81069953D01*
X78234919Y-81144499D01*
X78234912Y-81144511D01*
X78178343Y-81281082D01*
X78178340Y-81281092D01*
X78149500Y-81426079D01*
X78149500Y-81436267D01*
X78129815Y-81503306D01*
X78077011Y-81549061D01*
X78064506Y-81553972D01*
X78030671Y-81565184D01*
X78030663Y-81565187D01*
X77881342Y-81657289D01*
X77757289Y-81781342D01*
X77665187Y-81930663D01*
X77665185Y-81930668D01*
X77637349Y-82014670D01*
X77610001Y-82097203D01*
X77610001Y-82097204D01*
X77610000Y-82097204D01*
X77599500Y-82199983D01*
X77599500Y-83000001D01*
X77599501Y-83000019D01*
X77610000Y-83102796D01*
X77610001Y-83102799D01*
X77665185Y-83269331D01*
X77665187Y-83269336D01*
X77667935Y-83273791D01*
X77749611Y-83406210D01*
X77757289Y-83418657D01*
X77850951Y-83512319D01*
X77884436Y-83573642D01*
X77879452Y-83643334D01*
X77850951Y-83687681D01*
X77757289Y-83781342D01*
X77665187Y-83930663D01*
X77665185Y-83930668D01*
X77656371Y-83957267D01*
X77610001Y-84097203D01*
X77610001Y-84097204D01*
X77610000Y-84097204D01*
X77599500Y-84199983D01*
X77599500Y-85000001D01*
X77599501Y-85000019D01*
X77610000Y-85102796D01*
X77610002Y-85102802D01*
X77626372Y-85152204D01*
X77628774Y-85222032D01*
X77593042Y-85282074D01*
X77530521Y-85313266D01*
X77522563Y-85314426D01*
X77520751Y-85314630D01*
X77350478Y-85374210D01*
X77197737Y-85470184D01*
X77070184Y-85597737D01*
X76974211Y-85750476D01*
X76914631Y-85920745D01*
X76914630Y-85920750D01*
X76894435Y-86099996D01*
X75600500Y-86099996D01*
X75600500Y-78575013D01*
X79675000Y-78575013D01*
X79675000Y-78712500D01*
X80650000Y-78712500D01*
X81150000Y-78712500D01*
X82124999Y-78712500D01*
X82124999Y-78575028D01*
X82124998Y-78575013D01*
X82114505Y-78472302D01*
X82059358Y-78305880D01*
X82059356Y-78305875D01*
X81967315Y-78156654D01*
X81948342Y-78137681D01*
X81914857Y-78076358D01*
X81919841Y-78006666D01*
X81948342Y-77962319D01*
X81967315Y-77943345D01*
X82059356Y-77794124D01*
X82059358Y-77794119D01*
X82114505Y-77627697D01*
X82114506Y-77627690D01*
X82124999Y-77524986D01*
X82125000Y-77524973D01*
X82125000Y-77387500D01*
X81150000Y-77387500D01*
X81150000Y-78712500D01*
X80650000Y-78712500D01*
X80650000Y-77387500D01*
X79675001Y-77387500D01*
X79675001Y-77524986D01*
X79685494Y-77627697D01*
X79740641Y-77794119D01*
X79740643Y-77794124D01*
X79832684Y-77943345D01*
X79851658Y-77962319D01*
X79885143Y-78023642D01*
X79880159Y-78093334D01*
X79851658Y-78137681D01*
X79832684Y-78156654D01*
X79740643Y-78305875D01*
X79740641Y-78305880D01*
X79685494Y-78472302D01*
X79685493Y-78472309D01*
X79675000Y-78575013D01*
X75600500Y-78575013D01*
X75600500Y-76955997D01*
X84232677Y-76955997D01*
X84232677Y-76956002D01*
X84251929Y-77176062D01*
X84251930Y-77176070D01*
X84309104Y-77389445D01*
X84309105Y-77389447D01*
X84309106Y-77389450D01*
X84372301Y-77524973D01*
X84402466Y-77589662D01*
X84402468Y-77589666D01*
X84529170Y-77770615D01*
X84529175Y-77770621D01*
X84685378Y-77926824D01*
X84685384Y-77926829D01*
X84866333Y-78053531D01*
X84866335Y-78053532D01*
X84866338Y-78053534D01*
X85066550Y-78146894D01*
X85279932Y-78204070D01*
X85424743Y-78216739D01*
X85499998Y-78223323D01*
X85500000Y-78223323D01*
X85500002Y-78223323D01*
X85575257Y-78216739D01*
X85720068Y-78204070D01*
X85933450Y-78146894D01*
X86133662Y-78053534D01*
X86314620Y-77926826D01*
X86470826Y-77770620D01*
X86597534Y-77589662D01*
X86690894Y-77389450D01*
X86748070Y-77176068D01*
X86764348Y-76990001D01*
X86767323Y-76956002D01*
X86767323Y-76955999D01*
X86756358Y-76830668D01*
X86755793Y-76824213D01*
X86769559Y-76755715D01*
X86791637Y-76725729D01*
X88785451Y-74731916D01*
X88867584Y-74608995D01*
X88924158Y-74472413D01*
X88945487Y-74365187D01*
X88953000Y-74327420D01*
X88953000Y-73919679D01*
X88972685Y-73852640D01*
X89025489Y-73806885D01*
X89094647Y-73796941D01*
X89111595Y-73800603D01*
X89220005Y-73832099D01*
X89220011Y-73832100D01*
X89222498Y-73832295D01*
X89222500Y-73832295D01*
X89222500Y-70837703D01*
X89220003Y-70837900D01*
X89062306Y-70883716D01*
X89062303Y-70883717D01*
X88920949Y-70967313D01*
X88914783Y-70972097D01*
X88912889Y-70969655D01*
X88864080Y-70996239D01*
X88794394Y-70991179D01*
X88761727Y-70970159D01*
X88760531Y-70971702D01*
X88754362Y-70966917D01*
X88658040Y-70909953D01*
X88612898Y-70883256D01*
X88612897Y-70883255D01*
X88612896Y-70883255D01*
X88612893Y-70883254D01*
X88455073Y-70837402D01*
X88455067Y-70837401D01*
X88418201Y-70834500D01*
X88418194Y-70834500D01*
X87986806Y-70834500D01*
X87986798Y-70834500D01*
X87949932Y-70837401D01*
X87949926Y-70837402D01*
X87792106Y-70883254D01*
X87792103Y-70883255D01*
X87650640Y-70966915D01*
X87644474Y-70971699D01*
X87642674Y-70969379D01*
X87593413Y-70996230D01*
X87523725Y-70991193D01*
X87491492Y-70970461D01*
X87490222Y-70972100D01*
X87484052Y-70967314D01*
X87342696Y-70883717D01*
X87342693Y-70883716D01*
X87184994Y-70837900D01*
X87184997Y-70837900D01*
X87182500Y-70837703D01*
X87182500Y-73832295D01*
X87182501Y-73832295D01*
X87184988Y-73832100D01*
X87184991Y-73832099D01*
X87253361Y-73812236D01*
X87323231Y-73812435D01*
X87381901Y-73850377D01*
X87410745Y-73914015D01*
X87400604Y-73983145D01*
X87375638Y-74018993D01*
X85730272Y-75664358D01*
X85668949Y-75697843D01*
X85631785Y-75700205D01*
X85500003Y-75688677D01*
X85499998Y-75688677D01*
X85279937Y-75707929D01*
X85279929Y-75707930D01*
X85066554Y-75765104D01*
X85066548Y-75765107D01*
X84866340Y-75858465D01*
X84866338Y-75858466D01*
X84685377Y-75985175D01*
X84529175Y-76141377D01*
X84402466Y-76322338D01*
X84402465Y-76322340D01*
X84309107Y-76522548D01*
X84309104Y-76522554D01*
X84251930Y-76735929D01*
X84251929Y-76735937D01*
X84232677Y-76955997D01*
X75600500Y-76955997D01*
X75600500Y-76300098D01*
X75620185Y-76233059D01*
X75636819Y-76212416D01*
X75712418Y-76136818D01*
X75773742Y-76103334D01*
X75800099Y-76100500D01*
X75819699Y-76100500D01*
X75886738Y-76120185D01*
X75932493Y-76172989D01*
X75937403Y-76185492D01*
X75965186Y-76269334D01*
X76057288Y-76418656D01*
X76181344Y-76542712D01*
X76330666Y-76634814D01*
X76497203Y-76689999D01*
X76599991Y-76700500D01*
X77400008Y-76700499D01*
X77400016Y-76700498D01*
X77400019Y-76700498D01*
X77463923Y-76693970D01*
X77502797Y-76689999D01*
X77669334Y-76634814D01*
X77818656Y-76542712D01*
X77912319Y-76449049D01*
X77973642Y-76415564D01*
X78043334Y-76420548D01*
X78087681Y-76449049D01*
X78181344Y-76542712D01*
X78330666Y-76634814D01*
X78497203Y-76689999D01*
X78599991Y-76700500D01*
X79400008Y-76700499D01*
X79400016Y-76700498D01*
X79400019Y-76700498D01*
X79463923Y-76693970D01*
X79502797Y-76689999D01*
X79508059Y-76688255D01*
X79511996Y-76686951D01*
X79581824Y-76684549D01*
X79641866Y-76720281D01*
X79673059Y-76782801D01*
X79675000Y-76804657D01*
X79675000Y-76887500D01*
X82124999Y-76887500D01*
X82124999Y-76750028D01*
X82124998Y-76750013D01*
X82114505Y-76647302D01*
X82059358Y-76480880D01*
X82059356Y-76480875D01*
X81967315Y-76331654D01*
X81843344Y-76207683D01*
X81843341Y-76207681D01*
X81840339Y-76205829D01*
X81838713Y-76204021D01*
X81837677Y-76203202D01*
X81837817Y-76203024D01*
X81793617Y-76153880D01*
X81782397Y-76084917D01*
X81810243Y-76020836D01*
X81840344Y-75994754D01*
X81843656Y-75992712D01*
X81967712Y-75868656D01*
X81986773Y-75837751D01*
X82038720Y-75791026D01*
X82056318Y-75784186D01*
X82056399Y-75784160D01*
X82056413Y-75784158D01*
X82192995Y-75727584D01*
X82262095Y-75681413D01*
X82315916Y-75645452D01*
X83082951Y-74878416D01*
X83165084Y-74755495D01*
X83174850Y-74731919D01*
X83183766Y-74710393D01*
X83221658Y-74618913D01*
X83227807Y-74588000D01*
X83244862Y-74502262D01*
X83250500Y-74473920D01*
X83250500Y-73250649D01*
X86132500Y-73250649D01*
X86135399Y-73287489D01*
X86135400Y-73287495D01*
X86181216Y-73445193D01*
X86181217Y-73445196D01*
X86264814Y-73586552D01*
X86264821Y-73586561D01*
X86380938Y-73702678D01*
X86380947Y-73702685D01*
X86522301Y-73786281D01*
X86680014Y-73832100D01*
X86680011Y-73832100D01*
X86682498Y-73832295D01*
X86682500Y-73832295D01*
X86682500Y-72585000D01*
X86132500Y-72585000D01*
X86132500Y-73250649D01*
X83250500Y-73250649D01*
X83250500Y-71419350D01*
X86132500Y-71419350D01*
X86132500Y-72085000D01*
X86682500Y-72085000D01*
X86682500Y-70837703D01*
X86680003Y-70837900D01*
X86522306Y-70883716D01*
X86522303Y-70883717D01*
X86380947Y-70967314D01*
X86380938Y-70967321D01*
X86264821Y-71083438D01*
X86264814Y-71083447D01*
X86181217Y-71224803D01*
X86181216Y-71224806D01*
X86135400Y-71382504D01*
X86135399Y-71382510D01*
X86132500Y-71419350D01*
X83250500Y-71419350D01*
X83250500Y-70299972D01*
X83257458Y-70259017D01*
X83285368Y-70179254D01*
X83285369Y-70179249D01*
X83305565Y-70000003D01*
X83305565Y-69999996D01*
X83285369Y-69820750D01*
X83285368Y-69820745D01*
X83225788Y-69650476D01*
X83129815Y-69497737D01*
X83002262Y-69370184D01*
X82849523Y-69274211D01*
X82679254Y-69214631D01*
X82679249Y-69214630D01*
X82500004Y-69194435D01*
X82499996Y-69194435D01*
X82320750Y-69214630D01*
X82320745Y-69214631D01*
X82150476Y-69274211D01*
X82040471Y-69343333D01*
X81973234Y-69362333D01*
X81906399Y-69341965D01*
X81861185Y-69288698D01*
X81850499Y-69238339D01*
X81850499Y-68994041D01*
X90587439Y-68994041D01*
X90589711Y-68995469D01*
X90748176Y-69050918D01*
X90914996Y-69069714D01*
X90915004Y-69069714D01*
X91081820Y-69050918D01*
X91121543Y-69037018D01*
X91191322Y-69033455D01*
X91203457Y-69037018D01*
X91243179Y-69050918D01*
X91409996Y-69069714D01*
X91410004Y-69069714D01*
X91576820Y-69050918D01*
X91616543Y-69037018D01*
X91686322Y-69033455D01*
X91698457Y-69037018D01*
X91738179Y-69050918D01*
X91904996Y-69069714D01*
X91905004Y-69069714D01*
X92071820Y-69050918D01*
X92111543Y-69037018D01*
X92181322Y-69033455D01*
X92193457Y-69037018D01*
X92233179Y-69050918D01*
X92399996Y-69069714D01*
X92400004Y-69069714D01*
X92566820Y-69050918D01*
X92606543Y-69037018D01*
X92676322Y-69033455D01*
X92688457Y-69037018D01*
X92728179Y-69050918D01*
X92894996Y-69069714D01*
X92895004Y-69069714D01*
X93061820Y-69050918D01*
X93101543Y-69037018D01*
X93171322Y-69033455D01*
X93183457Y-69037018D01*
X93223179Y-69050918D01*
X93389996Y-69069714D01*
X93390004Y-69069714D01*
X93556820Y-69050918D01*
X93596543Y-69037018D01*
X93666322Y-69033455D01*
X93678457Y-69037018D01*
X93718179Y-69050918D01*
X93884996Y-69069714D01*
X93885004Y-69069714D01*
X94051820Y-69050918D01*
X94091543Y-69037018D01*
X94161322Y-69033455D01*
X94173457Y-69037018D01*
X94213179Y-69050918D01*
X94379996Y-69069714D01*
X94380004Y-69069714D01*
X94546825Y-69050918D01*
X94705285Y-68995470D01*
X94705291Y-68995467D01*
X94707560Y-68994042D01*
X94380000Y-68666482D01*
X94083722Y-68962760D01*
X94022399Y-68996245D01*
X93952707Y-68991261D01*
X93908360Y-68962760D01*
X93885000Y-68939400D01*
X93861640Y-68962760D01*
X93800317Y-68996245D01*
X93730625Y-68991261D01*
X93686278Y-68962760D01*
X93637500Y-68913982D01*
X93588722Y-68962760D01*
X93527399Y-68996245D01*
X93457707Y-68991261D01*
X93413360Y-68962760D01*
X93390000Y-68939400D01*
X93366640Y-68962760D01*
X93305317Y-68996245D01*
X93235625Y-68991261D01*
X93191278Y-68962760D01*
X93142500Y-68913982D01*
X93093722Y-68962760D01*
X93032399Y-68996245D01*
X92962707Y-68991261D01*
X92918360Y-68962760D01*
X92895000Y-68939400D01*
X92871640Y-68962760D01*
X92810317Y-68996245D01*
X92740625Y-68991261D01*
X92696278Y-68962760D01*
X92647500Y-68913982D01*
X92598722Y-68962760D01*
X92537399Y-68996245D01*
X92467707Y-68991261D01*
X92423360Y-68962760D01*
X92400000Y-68939400D01*
X92376640Y-68962760D01*
X92315317Y-68996245D01*
X92245625Y-68991261D01*
X92201278Y-68962760D01*
X92152500Y-68913982D01*
X92103722Y-68962760D01*
X92042399Y-68996245D01*
X91972707Y-68991261D01*
X91928360Y-68962760D01*
X91905000Y-68939400D01*
X91881640Y-68962760D01*
X91820317Y-68996245D01*
X91750625Y-68991261D01*
X91706278Y-68962760D01*
X91657500Y-68913982D01*
X91608722Y-68962760D01*
X91547399Y-68996245D01*
X91477707Y-68991261D01*
X91433360Y-68962760D01*
X91410000Y-68939400D01*
X91386640Y-68962760D01*
X91325316Y-68996244D01*
X91255624Y-68991259D01*
X91211278Y-68962759D01*
X90915001Y-68666482D01*
X90915000Y-68666482D01*
X90587439Y-68994041D01*
X81850499Y-68994041D01*
X81850499Y-66999996D01*
X90165286Y-66999996D01*
X90165286Y-67000003D01*
X90184081Y-67166823D01*
X90226849Y-67289045D01*
X90230410Y-67358824D01*
X90226849Y-67370955D01*
X90184081Y-67493176D01*
X90165286Y-67659996D01*
X90165286Y-67660003D01*
X90184081Y-67826823D01*
X90226849Y-67949045D01*
X90230410Y-68018824D01*
X90226849Y-68030955D01*
X90184081Y-68153176D01*
X90165286Y-68319996D01*
X90165286Y-68320003D01*
X90184082Y-68486826D01*
X90184082Y-68486829D01*
X90239529Y-68645286D01*
X90239530Y-68645288D01*
X90240957Y-68647560D01*
X90601339Y-68287179D01*
X90750000Y-68287179D01*
X90750000Y-68352821D01*
X90775119Y-68413465D01*
X90821535Y-68459881D01*
X90882179Y-68485000D01*
X90947821Y-68485000D01*
X91008465Y-68459881D01*
X91054881Y-68413465D01*
X91080000Y-68352821D01*
X91080000Y-68287179D01*
X91245000Y-68287179D01*
X91245000Y-68352821D01*
X91270119Y-68413465D01*
X91316535Y-68459881D01*
X91377179Y-68485000D01*
X91442821Y-68485000D01*
X91503465Y-68459881D01*
X91549881Y-68413465D01*
X91575000Y-68352821D01*
X91575000Y-68287179D01*
X91740000Y-68287179D01*
X91740000Y-68352821D01*
X91765119Y-68413465D01*
X91811535Y-68459881D01*
X91872179Y-68485000D01*
X91937821Y-68485000D01*
X91998465Y-68459881D01*
X92044881Y-68413465D01*
X92070000Y-68352821D01*
X92070000Y-68287179D01*
X92235000Y-68287179D01*
X92235000Y-68352821D01*
X92260119Y-68413465D01*
X92306535Y-68459881D01*
X92367179Y-68485000D01*
X92432821Y-68485000D01*
X92493465Y-68459881D01*
X92539881Y-68413465D01*
X92565000Y-68352821D01*
X92565000Y-68287179D01*
X92730000Y-68287179D01*
X92730000Y-68352821D01*
X92755119Y-68413465D01*
X92801535Y-68459881D01*
X92862179Y-68485000D01*
X92927821Y-68485000D01*
X92988465Y-68459881D01*
X93034881Y-68413465D01*
X93060000Y-68352821D01*
X93060000Y-68287179D01*
X93225000Y-68287179D01*
X93225000Y-68352821D01*
X93250119Y-68413465D01*
X93296535Y-68459881D01*
X93357179Y-68485000D01*
X93422821Y-68485000D01*
X93483465Y-68459881D01*
X93529881Y-68413465D01*
X93555000Y-68352821D01*
X93555000Y-68287179D01*
X93720000Y-68287179D01*
X93720000Y-68352821D01*
X93745119Y-68413465D01*
X93791535Y-68459881D01*
X93852179Y-68485000D01*
X93917821Y-68485000D01*
X93978465Y-68459881D01*
X94024881Y-68413465D01*
X94050000Y-68352821D01*
X94050000Y-68287179D01*
X94215000Y-68287179D01*
X94215000Y-68352821D01*
X94240119Y-68413465D01*
X94286535Y-68459881D01*
X94347179Y-68485000D01*
X94412821Y-68485000D01*
X94473465Y-68459881D01*
X94519881Y-68413465D01*
X94545000Y-68352821D01*
X94545000Y-68287179D01*
X94519881Y-68226535D01*
X94473465Y-68180119D01*
X94412821Y-68155000D01*
X94347179Y-68155000D01*
X94286535Y-68180119D01*
X94240119Y-68226535D01*
X94215000Y-68287179D01*
X94050000Y-68287179D01*
X94024881Y-68226535D01*
X93978465Y-68180119D01*
X93917821Y-68155000D01*
X93852179Y-68155000D01*
X93791535Y-68180119D01*
X93745119Y-68226535D01*
X93720000Y-68287179D01*
X93555000Y-68287179D01*
X93529881Y-68226535D01*
X93483465Y-68180119D01*
X93422821Y-68155000D01*
X93357179Y-68155000D01*
X93296535Y-68180119D01*
X93250119Y-68226535D01*
X93225000Y-68287179D01*
X93060000Y-68287179D01*
X93034881Y-68226535D01*
X92988465Y-68180119D01*
X92927821Y-68155000D01*
X92862179Y-68155000D01*
X92801535Y-68180119D01*
X92755119Y-68226535D01*
X92730000Y-68287179D01*
X92565000Y-68287179D01*
X92539881Y-68226535D01*
X92493465Y-68180119D01*
X92432821Y-68155000D01*
X92367179Y-68155000D01*
X92306535Y-68180119D01*
X92260119Y-68226535D01*
X92235000Y-68287179D01*
X92070000Y-68287179D01*
X92044881Y-68226535D01*
X91998465Y-68180119D01*
X91937821Y-68155000D01*
X91872179Y-68155000D01*
X91811535Y-68180119D01*
X91765119Y-68226535D01*
X91740000Y-68287179D01*
X91575000Y-68287179D01*
X91549881Y-68226535D01*
X91503465Y-68180119D01*
X91442821Y-68155000D01*
X91377179Y-68155000D01*
X91316535Y-68180119D01*
X91270119Y-68226535D01*
X91245000Y-68287179D01*
X91080000Y-68287179D01*
X91054881Y-68226535D01*
X91008465Y-68180119D01*
X90947821Y-68155000D01*
X90882179Y-68155000D01*
X90821535Y-68180119D01*
X90775119Y-68226535D01*
X90750000Y-68287179D01*
X90601339Y-68287179D01*
X90762059Y-68126459D01*
X90762059Y-68122151D01*
X90733755Y-68070317D01*
X90735826Y-68041362D01*
X90733518Y-68041362D01*
X90733518Y-67938638D01*
X90735454Y-67938638D01*
X90738739Y-67892707D01*
X90762059Y-67856421D01*
X90762059Y-67853541D01*
X90656199Y-67747681D01*
X90622714Y-67686358D01*
X90626946Y-67627179D01*
X90750000Y-67627179D01*
X90750000Y-67692821D01*
X90775119Y-67753465D01*
X90821535Y-67799881D01*
X90882179Y-67825000D01*
X90947821Y-67825000D01*
X91008465Y-67799881D01*
X91054881Y-67753465D01*
X91080000Y-67692821D01*
X91080000Y-67627179D01*
X91245000Y-67627179D01*
X91245000Y-67692821D01*
X91270119Y-67753465D01*
X91316535Y-67799881D01*
X91377179Y-67825000D01*
X91442821Y-67825000D01*
X91503465Y-67799881D01*
X91549881Y-67753465D01*
X91575000Y-67692821D01*
X91575000Y-67627179D01*
X91740000Y-67627179D01*
X91740000Y-67692821D01*
X91765119Y-67753465D01*
X91811535Y-67799881D01*
X91872179Y-67825000D01*
X91937821Y-67825000D01*
X91998465Y-67799881D01*
X92044881Y-67753465D01*
X92070000Y-67692821D01*
X92070000Y-67627179D01*
X92235000Y-67627179D01*
X92235000Y-67692821D01*
X92260119Y-67753465D01*
X92306535Y-67799881D01*
X92367179Y-67825000D01*
X92432821Y-67825000D01*
X92493465Y-67799881D01*
X92539881Y-67753465D01*
X92565000Y-67692821D01*
X92565000Y-67627179D01*
X92730000Y-67627179D01*
X92730000Y-67692821D01*
X92755119Y-67753465D01*
X92801535Y-67799881D01*
X92862179Y-67825000D01*
X92927821Y-67825000D01*
X92988465Y-67799881D01*
X93034881Y-67753465D01*
X93060000Y-67692821D01*
X93060000Y-67627179D01*
X93225000Y-67627179D01*
X93225000Y-67692821D01*
X93250119Y-67753465D01*
X93296535Y-67799881D01*
X93357179Y-67825000D01*
X93422821Y-67825000D01*
X93483465Y-67799881D01*
X93529881Y-67753465D01*
X93555000Y-67692821D01*
X93555000Y-67627179D01*
X93720000Y-67627179D01*
X93720000Y-67692821D01*
X93745119Y-67753465D01*
X93791535Y-67799881D01*
X93852179Y-67825000D01*
X93917821Y-67825000D01*
X93978465Y-67799881D01*
X94024881Y-67753465D01*
X94050000Y-67692821D01*
X94050000Y-67627179D01*
X94215000Y-67627179D01*
X94215000Y-67692821D01*
X94240119Y-67753465D01*
X94286535Y-67799881D01*
X94347179Y-67825000D01*
X94412821Y-67825000D01*
X94473465Y-67799881D01*
X94519881Y-67753465D01*
X94545000Y-67692821D01*
X94545000Y-67627179D01*
X94519881Y-67566535D01*
X94473465Y-67520119D01*
X94412821Y-67495000D01*
X94347179Y-67495000D01*
X94286535Y-67520119D01*
X94240119Y-67566535D01*
X94215000Y-67627179D01*
X94050000Y-67627179D01*
X94024881Y-67566535D01*
X93978465Y-67520119D01*
X93917821Y-67495000D01*
X93852179Y-67495000D01*
X93791535Y-67520119D01*
X93745119Y-67566535D01*
X93720000Y-67627179D01*
X93555000Y-67627179D01*
X93529881Y-67566535D01*
X93483465Y-67520119D01*
X93422821Y-67495000D01*
X93357179Y-67495000D01*
X93296535Y-67520119D01*
X93250119Y-67566535D01*
X93225000Y-67627179D01*
X93060000Y-67627179D01*
X93034881Y-67566535D01*
X92988465Y-67520119D01*
X92927821Y-67495000D01*
X92862179Y-67495000D01*
X92801535Y-67520119D01*
X92755119Y-67566535D01*
X92730000Y-67627179D01*
X92565000Y-67627179D01*
X92539881Y-67566535D01*
X92493465Y-67520119D01*
X92432821Y-67495000D01*
X92367179Y-67495000D01*
X92306535Y-67520119D01*
X92260119Y-67566535D01*
X92235000Y-67627179D01*
X92070000Y-67627179D01*
X92044881Y-67566535D01*
X91998465Y-67520119D01*
X91937821Y-67495000D01*
X91872179Y-67495000D01*
X91811535Y-67520119D01*
X91765119Y-67566535D01*
X91740000Y-67627179D01*
X91575000Y-67627179D01*
X91549881Y-67566535D01*
X91503465Y-67520119D01*
X91442821Y-67495000D01*
X91377179Y-67495000D01*
X91316535Y-67520119D01*
X91270119Y-67566535D01*
X91245000Y-67627179D01*
X91080000Y-67627179D01*
X91054881Y-67566535D01*
X91008465Y-67520119D01*
X90947821Y-67495000D01*
X90882179Y-67495000D01*
X90821535Y-67520119D01*
X90775119Y-67566535D01*
X90750000Y-67627179D01*
X90626946Y-67627179D01*
X90627698Y-67616666D01*
X90656199Y-67572319D01*
X90762059Y-67466459D01*
X90762059Y-67462151D01*
X90733755Y-67410317D01*
X90735826Y-67381362D01*
X90733518Y-67381362D01*
X90733518Y-67278638D01*
X90735454Y-67278638D01*
X90738739Y-67232707D01*
X90762059Y-67196421D01*
X90762059Y-67193540D01*
X94532941Y-67193540D01*
X94532941Y-67197850D01*
X94561244Y-67249683D01*
X94559173Y-67278638D01*
X94561482Y-67278638D01*
X94561482Y-67381362D01*
X94559546Y-67381362D01*
X94556261Y-67427293D01*
X94532941Y-67463578D01*
X94532941Y-67466459D01*
X94638801Y-67572319D01*
X94672286Y-67633642D01*
X94667302Y-67703334D01*
X94638801Y-67747681D01*
X94532941Y-67853541D01*
X94532941Y-67857848D01*
X94561245Y-67909683D01*
X94559174Y-67938638D01*
X94561482Y-67938638D01*
X94561482Y-68041362D01*
X94559546Y-68041362D01*
X94556261Y-68087293D01*
X94532941Y-68123578D01*
X94532941Y-68126459D01*
X95054042Y-68647560D01*
X95055467Y-68645291D01*
X95055470Y-68645285D01*
X95110918Y-68486825D01*
X95129714Y-68320003D01*
X95129714Y-68319996D01*
X95110917Y-68153173D01*
X95110917Y-68153171D01*
X95068151Y-68030955D01*
X95064588Y-67961177D01*
X95068151Y-67949045D01*
X95110917Y-67826828D01*
X95110917Y-67826826D01*
X95129714Y-67660003D01*
X95129714Y-67659996D01*
X95110917Y-67493173D01*
X95110917Y-67493171D01*
X95068151Y-67370955D01*
X95064588Y-67301177D01*
X95068151Y-67289045D01*
X95110917Y-67166828D01*
X95110917Y-67166826D01*
X95129714Y-67000003D01*
X95129714Y-66999996D01*
X95110918Y-66833176D01*
X95055469Y-66674711D01*
X95054041Y-66672439D01*
X94532941Y-67193540D01*
X90762059Y-67193540D01*
X90535698Y-66967179D01*
X90750000Y-66967179D01*
X90750000Y-67032821D01*
X90775119Y-67093465D01*
X90821535Y-67139881D01*
X90882179Y-67165000D01*
X90947821Y-67165000D01*
X91008465Y-67139881D01*
X91054881Y-67093465D01*
X91080000Y-67032821D01*
X91080000Y-66967179D01*
X91245000Y-66967179D01*
X91245000Y-67032821D01*
X91270119Y-67093465D01*
X91316535Y-67139881D01*
X91377179Y-67165000D01*
X91442821Y-67165000D01*
X91503465Y-67139881D01*
X91549881Y-67093465D01*
X91575000Y-67032821D01*
X91575000Y-66967179D01*
X91740000Y-66967179D01*
X91740000Y-67032821D01*
X91765119Y-67093465D01*
X91811535Y-67139881D01*
X91872179Y-67165000D01*
X91937821Y-67165000D01*
X91998465Y-67139881D01*
X92044881Y-67093465D01*
X92070000Y-67032821D01*
X92070000Y-66967179D01*
X92235000Y-66967179D01*
X92235000Y-67032821D01*
X92260119Y-67093465D01*
X92306535Y-67139881D01*
X92367179Y-67165000D01*
X92432821Y-67165000D01*
X92493465Y-67139881D01*
X92539881Y-67093465D01*
X92565000Y-67032821D01*
X92565000Y-66967179D01*
X92730000Y-66967179D01*
X92730000Y-67032821D01*
X92755119Y-67093465D01*
X92801535Y-67139881D01*
X92862179Y-67165000D01*
X92927821Y-67165000D01*
X92988465Y-67139881D01*
X93034881Y-67093465D01*
X93060000Y-67032821D01*
X93060000Y-66967179D01*
X93225000Y-66967179D01*
X93225000Y-67032821D01*
X93250119Y-67093465D01*
X93296535Y-67139881D01*
X93357179Y-67165000D01*
X93422821Y-67165000D01*
X93483465Y-67139881D01*
X93529881Y-67093465D01*
X93555000Y-67032821D01*
X93555000Y-66967179D01*
X93720000Y-66967179D01*
X93720000Y-67032821D01*
X93745119Y-67093465D01*
X93791535Y-67139881D01*
X93852179Y-67165000D01*
X93917821Y-67165000D01*
X93978465Y-67139881D01*
X94024881Y-67093465D01*
X94050000Y-67032821D01*
X94050000Y-66967179D01*
X94215000Y-66967179D01*
X94215000Y-67032821D01*
X94240119Y-67093465D01*
X94286535Y-67139881D01*
X94347179Y-67165000D01*
X94412821Y-67165000D01*
X94473465Y-67139881D01*
X94519881Y-67093465D01*
X94545000Y-67032821D01*
X94545000Y-66967179D01*
X94519881Y-66906535D01*
X94473465Y-66860119D01*
X94412821Y-66835000D01*
X94347179Y-66835000D01*
X94286535Y-66860119D01*
X94240119Y-66906535D01*
X94215000Y-66967179D01*
X94050000Y-66967179D01*
X94024881Y-66906535D01*
X93978465Y-66860119D01*
X93917821Y-66835000D01*
X93852179Y-66835000D01*
X93791535Y-66860119D01*
X93745119Y-66906535D01*
X93720000Y-66967179D01*
X93555000Y-66967179D01*
X93529881Y-66906535D01*
X93483465Y-66860119D01*
X93422821Y-66835000D01*
X93357179Y-66835000D01*
X93296535Y-66860119D01*
X93250119Y-66906535D01*
X93225000Y-66967179D01*
X93060000Y-66967179D01*
X93034881Y-66906535D01*
X92988465Y-66860119D01*
X92927821Y-66835000D01*
X92862179Y-66835000D01*
X92801535Y-66860119D01*
X92755119Y-66906535D01*
X92730000Y-66967179D01*
X92565000Y-66967179D01*
X92539881Y-66906535D01*
X92493465Y-66860119D01*
X92432821Y-66835000D01*
X92367179Y-66835000D01*
X92306535Y-66860119D01*
X92260119Y-66906535D01*
X92235000Y-66967179D01*
X92070000Y-66967179D01*
X92044881Y-66906535D01*
X91998465Y-66860119D01*
X91937821Y-66835000D01*
X91872179Y-66835000D01*
X91811535Y-66860119D01*
X91765119Y-66906535D01*
X91740000Y-66967179D01*
X91575000Y-66967179D01*
X91549881Y-66906535D01*
X91503465Y-66860119D01*
X91442821Y-66835000D01*
X91377179Y-66835000D01*
X91316535Y-66860119D01*
X91270119Y-66906535D01*
X91245000Y-66967179D01*
X91080000Y-66967179D01*
X91054881Y-66906535D01*
X91008465Y-66860119D01*
X90947821Y-66835000D01*
X90882179Y-66835000D01*
X90821535Y-66860119D01*
X90775119Y-66906535D01*
X90750000Y-66967179D01*
X90535698Y-66967179D01*
X90240957Y-66672438D01*
X90240956Y-66672438D01*
X90239532Y-66674708D01*
X90184081Y-66833176D01*
X90165286Y-66999996D01*
X81850499Y-66999996D01*
X81850499Y-66499998D01*
X81850498Y-66499981D01*
X81839999Y-66397203D01*
X81839998Y-66397200D01*
X81834497Y-66380600D01*
X81816390Y-66325956D01*
X90587438Y-66325956D01*
X90587438Y-66325957D01*
X90914999Y-66653518D01*
X91211278Y-66357240D01*
X91272601Y-66323755D01*
X91342293Y-66328739D01*
X91386640Y-66357240D01*
X91410000Y-66380600D01*
X91433360Y-66357240D01*
X91494683Y-66323755D01*
X91564375Y-66328739D01*
X91608722Y-66357240D01*
X91657500Y-66406018D01*
X91706278Y-66357240D01*
X91767601Y-66323755D01*
X91837293Y-66328739D01*
X91881640Y-66357240D01*
X91905000Y-66380600D01*
X91928360Y-66357240D01*
X91989683Y-66323755D01*
X92059375Y-66328739D01*
X92103722Y-66357240D01*
X92152500Y-66406018D01*
X92201278Y-66357240D01*
X92262601Y-66323755D01*
X92332293Y-66328739D01*
X92376640Y-66357240D01*
X92400000Y-66380600D01*
X92423360Y-66357240D01*
X92484683Y-66323755D01*
X92554375Y-66328739D01*
X92598722Y-66357240D01*
X92647500Y-66406018D01*
X92696278Y-66357240D01*
X92757601Y-66323755D01*
X92827293Y-66328739D01*
X92871640Y-66357240D01*
X92895000Y-66380600D01*
X92918360Y-66357240D01*
X92979683Y-66323755D01*
X93049375Y-66328739D01*
X93093722Y-66357240D01*
X93142500Y-66406018D01*
X93191278Y-66357240D01*
X93252601Y-66323755D01*
X93322293Y-66328739D01*
X93366640Y-66357240D01*
X93390000Y-66380600D01*
X93413360Y-66357240D01*
X93474683Y-66323755D01*
X93544375Y-66328739D01*
X93588722Y-66357240D01*
X93637500Y-66406018D01*
X93686278Y-66357240D01*
X93747601Y-66323755D01*
X93817293Y-66328739D01*
X93861640Y-66357240D01*
X93885000Y-66380600D01*
X93908360Y-66357240D01*
X93969683Y-66323755D01*
X94039375Y-66328739D01*
X94083722Y-66357240D01*
X94380000Y-66653518D01*
X94380001Y-66653518D01*
X94707560Y-66325957D01*
X94705288Y-66324530D01*
X94705286Y-66324529D01*
X94546827Y-66269082D01*
X94380004Y-66250286D01*
X94379996Y-66250286D01*
X94213176Y-66269081D01*
X94173452Y-66282981D01*
X94103673Y-66286541D01*
X94091548Y-66282981D01*
X94051823Y-66269081D01*
X93885004Y-66250286D01*
X93884996Y-66250286D01*
X93718176Y-66269081D01*
X93678452Y-66282981D01*
X93608673Y-66286541D01*
X93596548Y-66282981D01*
X93556823Y-66269081D01*
X93390004Y-66250286D01*
X93389996Y-66250286D01*
X93223176Y-66269081D01*
X93183452Y-66282981D01*
X93113673Y-66286541D01*
X93101548Y-66282981D01*
X93061823Y-66269081D01*
X92895004Y-66250286D01*
X92894996Y-66250286D01*
X92728176Y-66269081D01*
X92688452Y-66282981D01*
X92618673Y-66286541D01*
X92606548Y-66282981D01*
X92566823Y-66269081D01*
X92400004Y-66250286D01*
X92399996Y-66250286D01*
X92233176Y-66269081D01*
X92193452Y-66282981D01*
X92123673Y-66286541D01*
X92111548Y-66282981D01*
X92071823Y-66269081D01*
X91905004Y-66250286D01*
X91904996Y-66250286D01*
X91738176Y-66269081D01*
X91698452Y-66282981D01*
X91628673Y-66286541D01*
X91616548Y-66282981D01*
X91576823Y-66269081D01*
X91410004Y-66250286D01*
X91409996Y-66250286D01*
X91243176Y-66269081D01*
X91203452Y-66282981D01*
X91133673Y-66286541D01*
X91121548Y-66282981D01*
X91081823Y-66269081D01*
X90915004Y-66250286D01*
X90914996Y-66250286D01*
X90748176Y-66269081D01*
X90589708Y-66324532D01*
X90587438Y-66325956D01*
X81816390Y-66325956D01*
X81784814Y-66230666D01*
X81692712Y-66081344D01*
X81568656Y-65957288D01*
X81419334Y-65865186D01*
X81252797Y-65810001D01*
X81252795Y-65810000D01*
X81150010Y-65799500D01*
X79049998Y-65799500D01*
X79049981Y-65799501D01*
X78947203Y-65810000D01*
X78947200Y-65810001D01*
X78780668Y-65865185D01*
X78780663Y-65865187D01*
X78631342Y-65957289D01*
X78616234Y-65972398D01*
X78554911Y-66005883D01*
X78485219Y-66000899D01*
X78440872Y-65972398D01*
X77586819Y-65118345D01*
X77553334Y-65057022D01*
X77550500Y-65030664D01*
X77550500Y-63900649D01*
X86132500Y-63900649D01*
X86135399Y-63937489D01*
X86135400Y-63937495D01*
X86181216Y-64095193D01*
X86181217Y-64095196D01*
X86264814Y-64236552D01*
X86264821Y-64236561D01*
X86380938Y-64352678D01*
X86380947Y-64352685D01*
X86522301Y-64436281D01*
X86680014Y-64482100D01*
X86680011Y-64482100D01*
X86682498Y-64482295D01*
X86682500Y-64482295D01*
X86682500Y-63235000D01*
X86132500Y-63235000D01*
X86132500Y-63900649D01*
X77550500Y-63900649D01*
X77550500Y-63099986D01*
X78350001Y-63099986D01*
X78360494Y-63202697D01*
X78415641Y-63369119D01*
X78415643Y-63369124D01*
X78507684Y-63518345D01*
X78631654Y-63642315D01*
X78780875Y-63734356D01*
X78780880Y-63734358D01*
X78947302Y-63789505D01*
X78947309Y-63789506D01*
X79050019Y-63799999D01*
X79849999Y-63799999D01*
X80350000Y-63799999D01*
X81149972Y-63799999D01*
X81149986Y-63799998D01*
X81252697Y-63789505D01*
X81419119Y-63734358D01*
X81419124Y-63734356D01*
X81568345Y-63642315D01*
X81692315Y-63518345D01*
X81784356Y-63369124D01*
X81784358Y-63369119D01*
X81839505Y-63202697D01*
X81839506Y-63202690D01*
X81849999Y-63099986D01*
X81850000Y-63099973D01*
X81850000Y-61350000D01*
X80350000Y-61350000D01*
X80350000Y-63799999D01*
X79849999Y-63799999D01*
X79850000Y-63799998D01*
X79850000Y-61350000D01*
X78350001Y-61350000D01*
X78350001Y-63099986D01*
X77550500Y-63099986D01*
X77550500Y-59100013D01*
X78350000Y-59100013D01*
X78350000Y-60850000D01*
X79850000Y-60850000D01*
X80350000Y-60850000D01*
X81849999Y-60850000D01*
X81849999Y-59100028D01*
X81849998Y-59100013D01*
X81839780Y-58999997D01*
X84232677Y-58999997D01*
X84232677Y-59000000D01*
X84251929Y-59220062D01*
X84251930Y-59220070D01*
X84309104Y-59433445D01*
X84309105Y-59433447D01*
X84309106Y-59433450D01*
X84319344Y-59455405D01*
X84402466Y-59633662D01*
X84402468Y-59633666D01*
X84529170Y-59814615D01*
X84529175Y-59814621D01*
X84685378Y-59970824D01*
X84685384Y-59970829D01*
X84866333Y-60097531D01*
X84866335Y-60097532D01*
X84866338Y-60097534D01*
X85066550Y-60190894D01*
X85279932Y-60248070D01*
X85437123Y-60261822D01*
X85499998Y-60267323D01*
X85500000Y-60267323D01*
X85500001Y-60267323D01*
X85517521Y-60265790D01*
X85631784Y-60255793D01*
X85700283Y-60269559D01*
X85730272Y-60291640D01*
X86722773Y-61284141D01*
X86756258Y-61345464D01*
X86751274Y-61415156D01*
X86709402Y-61471089D01*
X86669687Y-61490898D01*
X86522306Y-61533716D01*
X86522303Y-61533717D01*
X86380947Y-61617314D01*
X86380938Y-61617321D01*
X86264821Y-61733438D01*
X86264814Y-61733447D01*
X86181217Y-61874803D01*
X86181216Y-61874806D01*
X86135400Y-62032504D01*
X86135399Y-62032510D01*
X86132500Y-62069350D01*
X86132500Y-62735000D01*
X87058500Y-62735000D01*
X87125539Y-62754685D01*
X87171294Y-62807489D01*
X87182500Y-62859000D01*
X87182500Y-64482295D01*
X87182501Y-64482295D01*
X87184986Y-64482100D01*
X87342698Y-64436281D01*
X87484050Y-64352686D01*
X87490217Y-64347903D01*
X87492130Y-64350369D01*
X87540722Y-64323802D01*
X87610417Y-64328749D01*
X87643262Y-64349853D01*
X87644469Y-64348298D01*
X87650632Y-64353078D01*
X87650635Y-64353081D01*
X87792102Y-64436744D01*
X87833724Y-64448836D01*
X87949926Y-64482597D01*
X87949929Y-64482597D01*
X87949931Y-64482598D01*
X87986806Y-64485500D01*
X87986814Y-64485500D01*
X88418186Y-64485500D01*
X88418194Y-64485500D01*
X88455069Y-64482598D01*
X88455071Y-64482597D01*
X88455073Y-64482597D01*
X88496691Y-64470505D01*
X88612898Y-64436744D01*
X88754365Y-64353081D01*
X88754368Y-64353077D01*
X88760526Y-64348301D01*
X88762339Y-64350638D01*
X88811449Y-64323798D01*
X88881143Y-64328756D01*
X88913496Y-64349551D01*
X88914778Y-64347900D01*
X88920947Y-64352685D01*
X89062301Y-64436281D01*
X89220014Y-64482100D01*
X89220011Y-64482100D01*
X89222498Y-64482295D01*
X89222500Y-64482295D01*
X89222500Y-61487703D01*
X89722500Y-61487703D01*
X89722500Y-64482295D01*
X89722501Y-64482295D01*
X89724986Y-64482100D01*
X89882698Y-64436281D01*
X90024050Y-64352686D01*
X90030217Y-64347903D01*
X90032130Y-64350369D01*
X90080722Y-64323802D01*
X90150417Y-64328749D01*
X90183262Y-64349853D01*
X90184469Y-64348298D01*
X90190632Y-64353078D01*
X90190635Y-64353081D01*
X90332102Y-64436744D01*
X90373724Y-64448836D01*
X90489926Y-64482597D01*
X90489929Y-64482597D01*
X90489931Y-64482598D01*
X90526806Y-64485500D01*
X90526814Y-64485500D01*
X90958186Y-64485500D01*
X90958194Y-64485500D01*
X90995069Y-64482598D01*
X90995071Y-64482597D01*
X90995073Y-64482597D01*
X91036691Y-64470505D01*
X91152898Y-64436744D01*
X91294365Y-64353081D01*
X91294370Y-64353075D01*
X91300531Y-64348298D01*
X91302433Y-64350750D01*
X91351079Y-64324155D01*
X91420774Y-64329104D01*
X91453195Y-64349940D01*
X91454469Y-64348298D01*
X91460632Y-64353078D01*
X91460635Y-64353081D01*
X91602102Y-64436744D01*
X91643724Y-64448836D01*
X91759926Y-64482597D01*
X91759929Y-64482597D01*
X91759931Y-64482598D01*
X91796806Y-64485500D01*
X91796814Y-64485500D01*
X92228186Y-64485500D01*
X92228194Y-64485500D01*
X92265069Y-64482598D01*
X92265071Y-64482597D01*
X92265073Y-64482597D01*
X92306691Y-64470505D01*
X92422898Y-64436744D01*
X92564365Y-64353081D01*
X92564370Y-64353075D01*
X92570531Y-64348298D01*
X92572433Y-64350750D01*
X92621079Y-64324155D01*
X92690774Y-64329104D01*
X92723195Y-64349940D01*
X92724469Y-64348298D01*
X92730632Y-64353078D01*
X92730635Y-64353081D01*
X92872102Y-64436744D01*
X92913724Y-64448836D01*
X93029926Y-64482597D01*
X93029929Y-64482597D01*
X93029931Y-64482598D01*
X93066806Y-64485500D01*
X93066814Y-64485500D01*
X93498186Y-64485500D01*
X93498194Y-64485500D01*
X93535069Y-64482598D01*
X93535071Y-64482597D01*
X93535073Y-64482597D01*
X93576691Y-64470505D01*
X93692898Y-64436744D01*
X93834365Y-64353081D01*
X93834370Y-64353075D01*
X93840531Y-64348298D01*
X93842433Y-64350750D01*
X93891079Y-64324155D01*
X93960774Y-64329104D01*
X93993195Y-64349940D01*
X93994469Y-64348298D01*
X94000632Y-64353078D01*
X94000635Y-64353081D01*
X94142102Y-64436744D01*
X94183724Y-64448836D01*
X94299926Y-64482597D01*
X94299929Y-64482597D01*
X94299931Y-64482598D01*
X94336806Y-64485500D01*
X94336814Y-64485500D01*
X94768186Y-64485500D01*
X94768194Y-64485500D01*
X94805069Y-64482598D01*
X94805071Y-64482597D01*
X94805073Y-64482597D01*
X94846691Y-64470505D01*
X94962898Y-64436744D01*
X95104365Y-64353081D01*
X95104370Y-64353075D01*
X95110531Y-64348298D01*
X95112433Y-64350750D01*
X95161079Y-64324155D01*
X95230774Y-64329104D01*
X95263195Y-64349940D01*
X95264469Y-64348298D01*
X95270632Y-64353078D01*
X95270635Y-64353081D01*
X95412102Y-64436744D01*
X95453724Y-64448836D01*
X95569926Y-64482597D01*
X95569929Y-64482597D01*
X95569931Y-64482598D01*
X95606806Y-64485500D01*
X95606814Y-64485500D01*
X96038186Y-64485500D01*
X96038194Y-64485500D01*
X96075069Y-64482598D01*
X96075071Y-64482597D01*
X96075073Y-64482597D01*
X96116691Y-64470505D01*
X96232898Y-64436744D01*
X96374365Y-64353081D01*
X96374370Y-64353075D01*
X96380531Y-64348298D01*
X96382433Y-64350750D01*
X96431079Y-64324155D01*
X96500774Y-64329104D01*
X96533195Y-64349940D01*
X96534469Y-64348298D01*
X96540632Y-64353078D01*
X96540635Y-64353081D01*
X96682102Y-64436744D01*
X96723724Y-64448836D01*
X96839926Y-64482597D01*
X96839929Y-64482597D01*
X96839931Y-64482598D01*
X96876806Y-64485500D01*
X96876814Y-64485500D01*
X97308186Y-64485500D01*
X97308194Y-64485500D01*
X97345069Y-64482598D01*
X97345071Y-64482597D01*
X97345073Y-64482597D01*
X97386691Y-64470505D01*
X97502898Y-64436744D01*
X97644365Y-64353081D01*
X97644368Y-64353077D01*
X97650526Y-64348301D01*
X97652339Y-64350638D01*
X97701449Y-64323798D01*
X97771143Y-64328756D01*
X97803496Y-64349551D01*
X97804778Y-64347900D01*
X97810947Y-64352685D01*
X97952301Y-64436281D01*
X98110014Y-64482100D01*
X98110011Y-64482100D01*
X98112498Y-64482295D01*
X98112500Y-64482295D01*
X98612500Y-64482295D01*
X98612501Y-64482295D01*
X98614986Y-64482100D01*
X98772698Y-64436281D01*
X98914052Y-64352685D01*
X98914061Y-64352678D01*
X99030178Y-64236561D01*
X99030185Y-64236552D01*
X99113782Y-64095196D01*
X99113783Y-64095193D01*
X99159599Y-63937495D01*
X99159600Y-63937489D01*
X99162499Y-63900649D01*
X99162500Y-63900634D01*
X99162500Y-63235000D01*
X98612500Y-63235000D01*
X98612500Y-64482295D01*
X98112500Y-64482295D01*
X98112500Y-62735000D01*
X98612500Y-62735000D01*
X99162500Y-62735000D01*
X99162500Y-62069365D01*
X99162499Y-62069350D01*
X99159600Y-62032510D01*
X99159599Y-62032504D01*
X99113783Y-61874806D01*
X99113782Y-61874803D01*
X99030185Y-61733447D01*
X99030178Y-61733438D01*
X98914061Y-61617321D01*
X98914052Y-61617314D01*
X98772696Y-61533717D01*
X98772693Y-61533716D01*
X98614994Y-61487900D01*
X98614997Y-61487900D01*
X98612500Y-61487703D01*
X98612500Y-62735000D01*
X98112500Y-62735000D01*
X98112500Y-61472503D01*
X98096968Y-61446548D01*
X98093000Y-61415431D01*
X98093000Y-60344730D01*
X98112685Y-60277691D01*
X98129319Y-60257049D01*
X98138299Y-60248069D01*
X98192712Y-60193656D01*
X98194752Y-60190347D01*
X98196745Y-60188555D01*
X98197193Y-60187989D01*
X98197289Y-60188065D01*
X98246694Y-60143623D01*
X98315656Y-60132395D01*
X98379740Y-60160234D01*
X98405829Y-60190339D01*
X98407681Y-60193341D01*
X98407683Y-60193344D01*
X98531654Y-60317315D01*
X98680875Y-60409356D01*
X98680880Y-60409358D01*
X98847302Y-60464505D01*
X98847309Y-60464506D01*
X98950019Y-60474999D01*
X99087499Y-60474999D01*
X99587500Y-60474999D01*
X99724972Y-60474999D01*
X99724986Y-60474998D01*
X99827697Y-60464505D01*
X99994119Y-60409358D01*
X99994124Y-60409356D01*
X100143345Y-60317315D01*
X100267315Y-60193345D01*
X100359356Y-60044124D01*
X100359358Y-60044119D01*
X100414505Y-59877697D01*
X100414506Y-59877690D01*
X100424999Y-59774986D01*
X100425000Y-59774973D01*
X100425000Y-59500000D01*
X99587500Y-59500000D01*
X99587500Y-60474999D01*
X99087499Y-60474999D01*
X99087500Y-60474998D01*
X99087500Y-59000000D01*
X99587500Y-59000000D01*
X100424999Y-59000000D01*
X100424999Y-58725028D01*
X100424998Y-58725013D01*
X100414505Y-58622302D01*
X100359358Y-58455880D01*
X100359356Y-58455875D01*
X100267315Y-58306654D01*
X100143345Y-58182684D01*
X99994124Y-58090643D01*
X99994119Y-58090641D01*
X99827697Y-58035494D01*
X99827690Y-58035493D01*
X99724986Y-58025000D01*
X99587500Y-58025000D01*
X99587500Y-59000000D01*
X99087500Y-59000000D01*
X99087500Y-58025000D01*
X98950027Y-58025000D01*
X98950012Y-58025001D01*
X98847302Y-58035494D01*
X98680880Y-58090641D01*
X98680875Y-58090643D01*
X98531654Y-58182684D01*
X98407683Y-58306655D01*
X98407679Y-58306660D01*
X98405826Y-58309665D01*
X98404018Y-58311290D01*
X98403202Y-58312323D01*
X98403025Y-58312183D01*
X98353874Y-58356385D01*
X98284911Y-58367601D01*
X98220831Y-58339752D01*
X98194753Y-58309653D01*
X98194737Y-58309628D01*
X98192712Y-58306344D01*
X98068656Y-58182288D01*
X97960362Y-58115492D01*
X97919336Y-58090187D01*
X97919331Y-58090185D01*
X97917862Y-58089698D01*
X97752797Y-58035001D01*
X97752795Y-58035000D01*
X97650016Y-58024500D01*
X97650009Y-58024500D01*
X97144336Y-58024500D01*
X97077297Y-58004815D01*
X97056655Y-57988181D01*
X96914648Y-57846174D01*
X96914646Y-57846172D01*
X96755405Y-57730476D01*
X96580030Y-57641117D01*
X96392826Y-57580290D01*
X96198422Y-57549500D01*
X96198417Y-57549500D01*
X96001583Y-57549500D01*
X96001578Y-57549500D01*
X95807173Y-57580290D01*
X95619969Y-57641117D01*
X95444594Y-57730476D01*
X95415066Y-57751930D01*
X95285354Y-57846172D01*
X95285352Y-57846174D01*
X95285351Y-57846174D01*
X95146174Y-57985351D01*
X95146174Y-57985352D01*
X95146172Y-57985354D01*
X95117367Y-58025001D01*
X95030476Y-58144594D01*
X94941117Y-58319969D01*
X94880290Y-58507173D01*
X94849500Y-58701577D01*
X94849500Y-58898422D01*
X94880290Y-59092820D01*
X94880676Y-59094429D01*
X94880644Y-59095058D01*
X94881053Y-59097638D01*
X94880510Y-59097723D01*
X94877181Y-59164212D01*
X94836513Y-59221027D01*
X94771585Y-59246836D01*
X94703011Y-59233445D01*
X94672419Y-59211050D01*
X93878420Y-58417051D01*
X93868605Y-58410493D01*
X93786235Y-58355456D01*
X93755495Y-58334916D01*
X93755493Y-58334915D01*
X93755490Y-58334913D01*
X93618917Y-58278343D01*
X93618908Y-58278340D01*
X93571314Y-58268873D01*
X93509403Y-58236487D01*
X93493931Y-58218378D01*
X93470826Y-58185380D01*
X93400938Y-58115492D01*
X93314620Y-58029174D01*
X93314616Y-58029171D01*
X93314615Y-58029170D01*
X93133666Y-57902468D01*
X93133662Y-57902466D01*
X93133660Y-57902465D01*
X92933450Y-57809106D01*
X92933447Y-57809105D01*
X92933445Y-57809104D01*
X92720070Y-57751930D01*
X92720062Y-57751929D01*
X92500002Y-57732677D01*
X92499998Y-57732677D01*
X92279937Y-57751929D01*
X92279929Y-57751930D01*
X92066554Y-57809104D01*
X92066548Y-57809107D01*
X91866340Y-57902465D01*
X91866338Y-57902466D01*
X91685377Y-58029175D01*
X91529175Y-58185377D01*
X91402466Y-58366338D01*
X91402465Y-58366340D01*
X91309107Y-58566548D01*
X91309104Y-58566554D01*
X91251930Y-58779929D01*
X91251929Y-58779937D01*
X91232677Y-58999997D01*
X91232677Y-59000000D01*
X91251929Y-59220062D01*
X91251930Y-59220070D01*
X91309104Y-59433445D01*
X91309105Y-59433447D01*
X91309106Y-59433450D01*
X91319344Y-59455405D01*
X91402466Y-59633662D01*
X91402468Y-59633666D01*
X91529170Y-59814615D01*
X91529175Y-59814621D01*
X91685378Y-59970824D01*
X91685384Y-59970829D01*
X91866333Y-60097531D01*
X91866335Y-60097532D01*
X91866338Y-60097534D01*
X92066550Y-60190894D01*
X92279932Y-60248070D01*
X92437123Y-60261822D01*
X92499998Y-60267323D01*
X92500000Y-60267323D01*
X92500001Y-60267323D01*
X92508521Y-60266577D01*
X92599619Y-60258607D01*
X92668116Y-60272373D01*
X92718299Y-60320988D01*
X92734233Y-60389017D01*
X92710858Y-60454860D01*
X92698107Y-60469815D01*
X92670183Y-60497739D01*
X92574208Y-60650480D01*
X92549575Y-60720879D01*
X92508853Y-60777655D01*
X92443900Y-60803402D01*
X92375339Y-60789945D01*
X92366561Y-60784917D01*
X92349524Y-60774211D01*
X92179254Y-60714631D01*
X92179249Y-60714630D01*
X92000004Y-60694435D01*
X91999996Y-60694435D01*
X91820750Y-60714630D01*
X91820737Y-60714633D01*
X91650479Y-60774209D01*
X91565971Y-60827309D01*
X91498734Y-60846309D01*
X91434029Y-60827309D01*
X91349520Y-60774209D01*
X91179262Y-60714633D01*
X91179249Y-60714630D01*
X91000004Y-60694435D01*
X90999996Y-60694435D01*
X90820750Y-60714630D01*
X90820745Y-60714631D01*
X90650476Y-60774211D01*
X90497737Y-60870184D01*
X90370184Y-60997737D01*
X90274211Y-61150476D01*
X90214631Y-61320745D01*
X90214630Y-61320749D01*
X90196522Y-61481467D01*
X90184628Y-61517624D01*
X90186033Y-61518206D01*
X90182921Y-61525717D01*
X90182283Y-61528101D01*
X90181196Y-61529883D01*
X90179814Y-61533221D01*
X90179293Y-61533005D01*
X90145913Y-61587758D01*
X90083063Y-61618282D01*
X90013688Y-61609981D01*
X89999390Y-61602729D01*
X89882696Y-61533717D01*
X89882693Y-61533716D01*
X89724994Y-61487900D01*
X89724997Y-61487900D01*
X89722500Y-61487703D01*
X89222500Y-61487703D01*
X89220007Y-61487900D01*
X89064183Y-61533171D01*
X88994314Y-61532971D01*
X88935644Y-61495028D01*
X88915028Y-61461546D01*
X88867587Y-61347011D01*
X88867580Y-61346998D01*
X88785452Y-61224085D01*
X88785451Y-61224084D01*
X88680916Y-61119549D01*
X87749356Y-60187989D01*
X86791640Y-59230272D01*
X86758155Y-59168949D01*
X86755793Y-59131786D01*
X86767323Y-59000000D01*
X86748070Y-58779932D01*
X86690894Y-58566550D01*
X86597534Y-58366339D01*
X86522488Y-58259161D01*
X86470827Y-58185381D01*
X86400938Y-58115492D01*
X86314620Y-58029174D01*
X86314616Y-58029171D01*
X86314615Y-58029170D01*
X86133666Y-57902468D01*
X86133662Y-57902466D01*
X86133660Y-57902465D01*
X85933450Y-57809106D01*
X85933447Y-57809105D01*
X85933445Y-57809104D01*
X85720070Y-57751930D01*
X85720062Y-57751929D01*
X85500002Y-57732677D01*
X85499998Y-57732677D01*
X85279937Y-57751929D01*
X85279929Y-57751930D01*
X85066554Y-57809104D01*
X85066548Y-57809107D01*
X84866340Y-57902465D01*
X84866338Y-57902466D01*
X84685377Y-58029175D01*
X84529175Y-58185377D01*
X84402466Y-58366338D01*
X84402465Y-58366340D01*
X84309107Y-58566548D01*
X84309104Y-58566554D01*
X84251930Y-58779929D01*
X84251929Y-58779937D01*
X84232677Y-58999997D01*
X81839780Y-58999997D01*
X81839505Y-58997302D01*
X81784358Y-58830880D01*
X81784356Y-58830875D01*
X81692315Y-58681654D01*
X81568345Y-58557684D01*
X81419124Y-58465643D01*
X81419119Y-58465641D01*
X81252697Y-58410494D01*
X81252690Y-58410493D01*
X81149986Y-58400000D01*
X80350000Y-58400000D01*
X80350000Y-60850000D01*
X79850000Y-60850000D01*
X79850000Y-58400000D01*
X79050028Y-58400000D01*
X79050012Y-58400001D01*
X78947302Y-58410494D01*
X78780880Y-58465641D01*
X78780875Y-58465643D01*
X78631654Y-58557684D01*
X78507684Y-58681654D01*
X78415643Y-58830875D01*
X78415641Y-58830880D01*
X78360494Y-58997302D01*
X78360493Y-58997309D01*
X78350000Y-59100013D01*
X77550500Y-59100013D01*
X77550500Y-58651577D01*
X77521050Y-58465643D01*
X77519709Y-58457174D01*
X77513504Y-58438077D01*
X77458884Y-58269974D01*
X77369524Y-58094595D01*
X77253829Y-57935355D01*
X71886818Y-52568344D01*
X71853333Y-52507021D01*
X71850499Y-52480663D01*
X71850499Y-52348877D01*
X71850498Y-52348876D01*
X71847600Y-52306111D01*
X71801641Y-52121307D01*
X71741481Y-52000005D01*
X71717032Y-51950707D01*
X71717030Y-51950704D01*
X71597722Y-51802278D01*
X71597721Y-51802277D01*
X71528514Y-51746647D01*
X71488595Y-51689304D01*
X71486015Y-51619482D01*
X71521594Y-51559349D01*
X71528514Y-51553353D01*
X71568541Y-51521178D01*
X71597722Y-51497722D01*
X71717030Y-51349296D01*
X71801641Y-51178693D01*
X71847600Y-50993889D01*
X71850500Y-50951123D01*
X71850499Y-50048878D01*
X71847600Y-50006111D01*
X71801641Y-49821307D01*
X71773810Y-49765190D01*
X71717032Y-49650707D01*
X71717030Y-49650704D01*
X71597722Y-49502278D01*
X71597721Y-49502277D01*
X71528514Y-49446647D01*
X71488595Y-49389304D01*
X71486015Y-49319482D01*
X71521594Y-49259349D01*
X71528514Y-49253353D01*
X71561398Y-49226920D01*
X71597722Y-49197722D01*
X71717030Y-49049296D01*
X71720665Y-49041966D01*
X75149500Y-49041966D01*
X75149500Y-51958028D01*
X75149501Y-51958034D01*
X75160113Y-52077415D01*
X75216089Y-52273045D01*
X75216090Y-52273048D01*
X75216091Y-52273049D01*
X75310302Y-52453407D01*
X75310304Y-52453409D01*
X75438890Y-52611109D01*
X75532803Y-52687684D01*
X75596593Y-52739698D01*
X75776951Y-52833909D01*
X75972582Y-52889886D01*
X76091963Y-52900500D01*
X77208036Y-52900499D01*
X77327418Y-52889886D01*
X77523049Y-52833909D01*
X77703407Y-52739698D01*
X77861109Y-52611109D01*
X77989698Y-52453407D01*
X78083909Y-52273049D01*
X78139886Y-52077418D01*
X78150500Y-51958037D01*
X78150499Y-49041964D01*
X78139886Y-48922582D01*
X78083909Y-48726951D01*
X77989698Y-48546593D01*
X77900977Y-48437785D01*
X77861109Y-48388890D01*
X77703409Y-48260304D01*
X77703410Y-48260304D01*
X77703407Y-48260302D01*
X77523049Y-48166091D01*
X77523048Y-48166090D01*
X77523045Y-48166089D01*
X77405829Y-48132550D01*
X77327418Y-48110114D01*
X77327415Y-48110113D01*
X77327413Y-48110113D01*
X77260304Y-48104147D01*
X77208037Y-48099500D01*
X77208032Y-48099500D01*
X76091971Y-48099500D01*
X76091965Y-48099500D01*
X76091964Y-48099501D01*
X76080316Y-48100536D01*
X75972584Y-48110113D01*
X75776954Y-48166089D01*
X75703983Y-48204206D01*
X75596593Y-48260302D01*
X75596591Y-48260303D01*
X75596590Y-48260304D01*
X75438890Y-48388890D01*
X75310304Y-48546590D01*
X75216089Y-48726954D01*
X75172672Y-48878693D01*
X75170149Y-48887513D01*
X75160114Y-48922583D01*
X75160113Y-48922586D01*
X75149500Y-49041966D01*
X71720665Y-49041966D01*
X71801641Y-48878693D01*
X71847600Y-48693889D01*
X71850500Y-48651123D01*
X71850499Y-47748878D01*
X71847600Y-47706111D01*
X71801641Y-47521307D01*
X71717030Y-47350704D01*
X71644418Y-47260370D01*
X71627852Y-47239760D01*
X71601194Y-47175175D01*
X71600500Y-47162073D01*
X71600500Y-45951577D01*
X71569709Y-45757173D01*
X71542135Y-45672311D01*
X71542135Y-45672310D01*
X71508884Y-45569974D01*
X71419524Y-45394595D01*
X71303829Y-45235355D01*
X71114646Y-45046172D01*
X70955405Y-44930476D01*
X70780030Y-44841117D01*
X70592826Y-44780290D01*
X70398422Y-44749500D01*
X70398417Y-44749500D01*
X70201583Y-44749500D01*
X70201578Y-44749500D01*
X70007173Y-44780290D01*
X69819969Y-44841117D01*
X69644594Y-44930476D01*
X69553741Y-44996485D01*
X69485354Y-45046172D01*
X69485352Y-45046174D01*
X69485351Y-45046174D01*
X69346174Y-45185351D01*
X69346174Y-45185352D01*
X69346172Y-45185354D01*
X69309844Y-45235355D01*
X69230476Y-45344594D01*
X69141117Y-45519969D01*
X69080290Y-45707173D01*
X69049500Y-45901577D01*
X69049500Y-46098422D01*
X69080290Y-46292826D01*
X69093431Y-46333266D01*
X69099500Y-46371585D01*
X69099500Y-47162073D01*
X69079815Y-47229112D01*
X69072148Y-47239760D01*
X68982971Y-47350702D01*
X68903805Y-47510327D01*
X68898359Y-47521307D01*
X68889013Y-47558884D01*
X68852400Y-47706107D01*
X68852367Y-47706591D01*
X68850059Y-47740641D01*
X68849500Y-47748879D01*
X68849500Y-48651122D01*
X68849501Y-48651125D01*
X68852399Y-48693886D01*
X68852399Y-48693887D01*
X68898360Y-48878696D01*
X68982967Y-49049292D01*
X68982969Y-49049295D01*
X69102277Y-49197721D01*
X69102278Y-49197722D01*
X69171486Y-49253353D01*
X69211405Y-49310696D01*
X69213985Y-49380518D01*
X69178406Y-49440651D01*
X69171486Y-49446647D01*
X69102278Y-49502277D01*
X69102277Y-49502278D01*
X68982969Y-49650704D01*
X68982967Y-49650707D01*
X68895372Y-49827329D01*
X68893464Y-49826382D01*
X68857869Y-49874410D01*
X68792522Y-49899140D01*
X68783084Y-49899500D01*
X68586670Y-49899500D01*
X68586654Y-49899499D01*
X68579058Y-49899499D01*
X68420943Y-49899499D01*
X68344579Y-49919961D01*
X68268214Y-49940423D01*
X68268209Y-49940426D01*
X68131290Y-50019475D01*
X68131286Y-50019478D01*
X67981465Y-50169299D01*
X67920142Y-50202783D01*
X67907668Y-50204837D01*
X67820750Y-50214630D01*
X67650478Y-50274210D01*
X67497737Y-50370184D01*
X67370184Y-50497737D01*
X67274211Y-50650476D01*
X67214631Y-50820745D01*
X67214630Y-50820750D01*
X67194435Y-50999996D01*
X67194435Y-51000003D01*
X67214630Y-51179249D01*
X67214631Y-51179254D01*
X67274211Y-51349524D01*
X67280497Y-51359527D01*
X67299498Y-51426764D01*
X67279131Y-51493599D01*
X67225863Y-51538814D01*
X67175504Y-51549500D01*
X66881836Y-51549500D01*
X66814797Y-51529815D01*
X66794155Y-51513181D01*
X66066968Y-50785994D01*
X66036943Y-50737315D01*
X66022316Y-50693172D01*
X66022315Y-50693171D01*
X66022314Y-50693166D01*
X65930212Y-50543844D01*
X65806156Y-50419788D01*
X65802842Y-50417743D01*
X65801046Y-50415748D01*
X65800489Y-50415307D01*
X65800564Y-50415211D01*
X65756118Y-50365797D01*
X65744897Y-50296834D01*
X65772740Y-50232752D01*
X65802848Y-50206665D01*
X65805842Y-50204818D01*
X65929815Y-50080845D01*
X66021856Y-49931624D01*
X66021858Y-49931619D01*
X66077005Y-49765197D01*
X66077006Y-49765190D01*
X66087499Y-49662486D01*
X66087500Y-49662473D01*
X66087500Y-49525000D01*
X63637501Y-49525000D01*
X63637501Y-49662486D01*
X63647993Y-49765195D01*
X63704758Y-49936495D01*
X63707160Y-50006324D01*
X63671429Y-50066366D01*
X63608908Y-50097559D01*
X63587052Y-50099500D01*
X62210523Y-50099500D01*
X62143484Y-50079815D01*
X62097729Y-50027011D01*
X62087785Y-49957853D01*
X62116810Y-49894297D01*
X62122842Y-49887819D01*
X62167315Y-49843345D01*
X62259356Y-49694124D01*
X62259358Y-49694119D01*
X62314505Y-49527697D01*
X62314506Y-49527690D01*
X62324999Y-49424986D01*
X62325000Y-49424973D01*
X62325000Y-49150000D01*
X61111500Y-49150000D01*
X61044461Y-49130315D01*
X60998706Y-49077511D01*
X60987500Y-49026000D01*
X60987500Y-48774000D01*
X61007185Y-48706961D01*
X61059989Y-48661206D01*
X61111500Y-48650000D01*
X62324999Y-48650000D01*
X62324999Y-48375028D01*
X62324998Y-48375013D01*
X62314505Y-48272302D01*
X62265861Y-48125504D01*
X62263459Y-48055676D01*
X62299191Y-47995634D01*
X62361711Y-47964441D01*
X62383567Y-47962500D01*
X64177053Y-47962500D01*
X64244092Y-47982185D01*
X64289847Y-48034989D01*
X64299791Y-48104147D01*
X64270766Y-48167703D01*
X64216057Y-48204206D01*
X64068380Y-48253141D01*
X64068375Y-48253143D01*
X63919154Y-48345184D01*
X63795184Y-48469154D01*
X63703143Y-48618375D01*
X63703141Y-48618380D01*
X63647994Y-48784802D01*
X63647993Y-48784809D01*
X63637500Y-48887513D01*
X63637500Y-49025000D01*
X66087499Y-49025000D01*
X66087499Y-48887528D01*
X66087498Y-48887513D01*
X66077005Y-48784802D01*
X66021858Y-48618380D01*
X66021856Y-48618375D01*
X65929815Y-48469154D01*
X65805845Y-48345184D01*
X65656624Y-48253143D01*
X65656619Y-48253141D01*
X65508941Y-48204206D01*
X65451496Y-48164434D01*
X65424673Y-48099918D01*
X65436988Y-48031142D01*
X65484531Y-47979942D01*
X65547945Y-47962500D01*
X68110328Y-47962500D01*
X68110344Y-47962499D01*
X68169872Y-47956098D01*
X68169879Y-47956096D01*
X68304586Y-47905854D01*
X68304593Y-47905850D01*
X68419687Y-47819690D01*
X68419690Y-47819687D01*
X68505850Y-47704593D01*
X68505854Y-47704586D01*
X68556096Y-47569879D01*
X68556098Y-47569872D01*
X68562499Y-47510344D01*
X68562500Y-47510327D01*
X68562500Y-44362500D01*
X60862500Y-44362500D01*
X60862500Y-47510344D01*
X60866550Y-47548005D01*
X60854145Y-47616765D01*
X60806535Y-47667902D01*
X60755868Y-47684618D01*
X60747306Y-47685492D01*
X60580880Y-47740641D01*
X60580875Y-47740643D01*
X60431654Y-47832684D01*
X60307683Y-47956655D01*
X60307679Y-47956660D01*
X60305826Y-47959665D01*
X60304018Y-47961290D01*
X60303202Y-47962323D01*
X60303025Y-47962183D01*
X60253874Y-48006385D01*
X60184911Y-48017601D01*
X60120831Y-47989752D01*
X60094753Y-47959653D01*
X60094737Y-47959628D01*
X60092712Y-47956344D01*
X59968656Y-47832288D01*
X59904989Y-47793018D01*
X59858266Y-47741071D01*
X59847043Y-47672108D01*
X59874887Y-47608026D01*
X59895772Y-47588216D01*
X59920046Y-47570046D01*
X60006296Y-47454831D01*
X60056591Y-47319983D01*
X60063000Y-47260373D01*
X60062999Y-45564628D01*
X60056591Y-45505017D01*
X60015406Y-45394595D01*
X60006297Y-45370171D01*
X60006293Y-45370164D01*
X59920047Y-45254955D01*
X59920044Y-45254952D01*
X59804835Y-45168706D01*
X59804828Y-45168702D01*
X59669982Y-45118408D01*
X59669983Y-45118408D01*
X59610383Y-45112001D01*
X59610381Y-45112000D01*
X59610373Y-45112000D01*
X59610364Y-45112000D01*
X56514629Y-45112000D01*
X56514623Y-45112001D01*
X56455016Y-45118408D01*
X56320171Y-45168702D01*
X56320164Y-45168706D01*
X56204955Y-45254952D01*
X56204952Y-45254955D01*
X56118706Y-45370164D01*
X56118702Y-45370171D01*
X56068408Y-45505017D01*
X56062001Y-45564616D01*
X56062001Y-45564623D01*
X56062000Y-45564635D01*
X56062000Y-47260370D01*
X56062001Y-47260376D01*
X56068408Y-47319983D01*
X56118702Y-47454828D01*
X56118706Y-47454835D01*
X56204952Y-47570044D01*
X56204955Y-47570047D01*
X56320164Y-47656293D01*
X56320171Y-47656297D01*
X56351286Y-47667902D01*
X56455017Y-47706591D01*
X56514627Y-47713000D01*
X56938000Y-47712999D01*
X57005039Y-47732683D01*
X57050794Y-47785487D01*
X57062000Y-47836999D01*
X57062000Y-47898544D01*
X57100446Y-48091828D01*
X57100449Y-48091838D01*
X57106178Y-48105667D01*
X57106179Y-48105669D01*
X57175864Y-48273907D01*
X57175871Y-48273920D01*
X57285360Y-48437781D01*
X57285363Y-48437785D01*
X57429037Y-48581459D01*
X57429059Y-48581479D01*
X58038181Y-49190601D01*
X58071666Y-49251924D01*
X58074500Y-49278281D01*
X58074500Y-49425000D01*
X58074501Y-49425019D01*
X58085000Y-49527796D01*
X58085001Y-49527799D01*
X58137979Y-49687674D01*
X58140186Y-49694334D01*
X58232096Y-49843345D01*
X58232289Y-49843657D01*
X58276451Y-49887819D01*
X58309936Y-49949142D01*
X58304952Y-50018834D01*
X58263080Y-50074767D01*
X58197616Y-50099184D01*
X58188770Y-50099500D01*
X55337000Y-50099500D01*
X55269961Y-50079815D01*
X55224206Y-50027011D01*
X55213000Y-49975500D01*
X55213000Y-44081836D01*
X55232685Y-44014797D01*
X55249319Y-43994155D01*
X56144155Y-43099319D01*
X56205478Y-43065834D01*
X56231836Y-43063000D01*
X56315771Y-43063000D01*
X56359104Y-43070818D01*
X56455017Y-43106591D01*
X56455016Y-43106591D01*
X56461944Y-43107335D01*
X56514627Y-43113000D01*
X59610372Y-43112999D01*
X59669983Y-43106591D01*
X59804831Y-43056296D01*
X59920046Y-42970046D01*
X60006296Y-42854831D01*
X60056591Y-42719983D01*
X60063000Y-42660373D01*
X60062999Y-40964628D01*
X60056591Y-40905017D01*
X60020818Y-40809104D01*
X60013000Y-40765771D01*
X60013000Y-40714655D01*
X60862500Y-40714655D01*
X60862500Y-43862500D01*
X64462500Y-43862500D01*
X64962500Y-43862500D01*
X68562500Y-43862500D01*
X68562500Y-40714672D01*
X68562499Y-40714655D01*
X68556098Y-40655127D01*
X68556096Y-40655120D01*
X68505854Y-40520413D01*
X68505850Y-40520406D01*
X68419690Y-40405312D01*
X68419687Y-40405309D01*
X68304593Y-40319149D01*
X68304586Y-40319145D01*
X68169879Y-40268903D01*
X68169872Y-40268901D01*
X68110344Y-40262500D01*
X64962500Y-40262500D01*
X64962500Y-43862500D01*
X64462500Y-43862500D01*
X64462500Y-40262500D01*
X61314655Y-40262500D01*
X61255127Y-40268901D01*
X61255120Y-40268903D01*
X61120413Y-40319145D01*
X61120406Y-40319149D01*
X61005312Y-40405309D01*
X61005309Y-40405312D01*
X60919149Y-40520406D01*
X60919145Y-40520413D01*
X60868903Y-40655120D01*
X60868901Y-40655127D01*
X60862500Y-40714655D01*
X60013000Y-40714655D01*
X60013000Y-38378938D01*
X60032685Y-38311899D01*
X60037734Y-38304626D01*
X60041197Y-38300000D01*
X60056296Y-38279831D01*
X60056297Y-38279827D01*
X60056298Y-38279827D01*
X60094962Y-38176163D01*
X60105502Y-38147901D01*
X60147372Y-38091968D01*
X60212837Y-38067550D01*
X60281110Y-38082401D01*
X60309365Y-38103553D01*
X60431417Y-38225605D01*
X60624921Y-38361100D01*
X60839007Y-38460929D01*
X60839016Y-38460933D01*
X61052500Y-38518134D01*
X61052500Y-37620512D01*
X61109507Y-37653425D01*
X61236674Y-37687500D01*
X61368326Y-37687500D01*
X61495493Y-37653425D01*
X61552500Y-37620512D01*
X61552500Y-38518133D01*
X61765983Y-38460933D01*
X61765992Y-38460929D01*
X61980078Y-38361100D01*
X62173582Y-38225605D01*
X62340605Y-38058582D01*
X62476100Y-37865078D01*
X62547248Y-37712499D01*
X65441841Y-37712499D01*
X65441841Y-37712500D01*
X65462436Y-37947903D01*
X65462438Y-37947913D01*
X65523594Y-38176155D01*
X65523596Y-38176159D01*
X65523597Y-38176163D01*
X65590805Y-38320290D01*
X65623465Y-38390330D01*
X65623467Y-38390334D01*
X65703581Y-38504747D01*
X65759005Y-38583901D01*
X65926099Y-38750995D01*
X66002635Y-38804586D01*
X66119665Y-38886532D01*
X66119667Y-38886533D01*
X66119670Y-38886535D01*
X66333837Y-38986403D01*
X66562092Y-39047563D01*
X66732819Y-39062500D01*
X66797499Y-39068159D01*
X66797500Y-39068159D01*
X66797501Y-39068159D01*
X66862181Y-39062500D01*
X67032908Y-39047563D01*
X67261163Y-38986403D01*
X67475330Y-38886535D01*
X67668901Y-38750995D01*
X67791217Y-38628678D01*
X67852536Y-38595196D01*
X67922228Y-38600180D01*
X67978162Y-38642051D01*
X67995077Y-38673028D01*
X68044146Y-38804588D01*
X68044149Y-38804593D01*
X68130309Y-38919687D01*
X68130312Y-38919690D01*
X68245406Y-39005850D01*
X68245413Y-39005854D01*
X68380120Y-39056096D01*
X68380127Y-39056098D01*
X68439655Y-39062499D01*
X68439672Y-39062500D01*
X69087500Y-39062500D01*
X69087500Y-38145512D01*
X69144507Y-38178425D01*
X69271674Y-38212500D01*
X69403326Y-38212500D01*
X69530493Y-38178425D01*
X69587500Y-38145512D01*
X69587500Y-39062500D01*
X70235328Y-39062500D01*
X70235344Y-39062499D01*
X70294872Y-39056098D01*
X70294879Y-39056096D01*
X70429586Y-39005854D01*
X70429593Y-39005850D01*
X70544687Y-38919690D01*
X70544690Y-38919687D01*
X70630850Y-38804593D01*
X70630854Y-38804586D01*
X70681096Y-38669879D01*
X70681098Y-38669872D01*
X70687499Y-38610344D01*
X70687500Y-38610327D01*
X70687500Y-38300000D01*
X77944709Y-38300000D01*
X77963851Y-38579862D01*
X77963852Y-38579864D01*
X78020921Y-38854499D01*
X78020926Y-38854516D01*
X78106630Y-39095662D01*
X78114864Y-39118830D01*
X78243919Y-39367896D01*
X78405688Y-39597069D01*
X78405692Y-39597073D01*
X78405692Y-39597074D01*
X78547943Y-39749388D01*
X78597155Y-39802081D01*
X78814754Y-39979111D01*
X78814756Y-39979112D01*
X78814757Y-39979113D01*
X79054433Y-40124863D01*
X79130076Y-40157719D01*
X79311725Y-40236620D01*
X79581839Y-40312303D01*
X79826159Y-40345884D01*
X79859741Y-40350500D01*
X79859742Y-40350500D01*
X80140259Y-40350500D01*
X80170219Y-40346381D01*
X80418161Y-40312303D01*
X80688275Y-40236620D01*
X80945568Y-40124862D01*
X81185246Y-39979111D01*
X81402845Y-39802081D01*
X81594312Y-39597069D01*
X81756081Y-39367896D01*
X81885136Y-39118830D01*
X81979075Y-38854511D01*
X81979076Y-38854504D01*
X81979078Y-38854499D01*
X82017442Y-38669879D01*
X82036148Y-38579862D01*
X82055291Y-38300000D01*
X95944709Y-38300000D01*
X95963851Y-38579862D01*
X95963852Y-38579864D01*
X96020921Y-38854499D01*
X96020926Y-38854516D01*
X96106630Y-39095662D01*
X96114864Y-39118830D01*
X96243919Y-39367896D01*
X96405688Y-39597069D01*
X96405692Y-39597073D01*
X96405692Y-39597074D01*
X96547943Y-39749388D01*
X96597155Y-39802081D01*
X96814754Y-39979111D01*
X96814756Y-39979112D01*
X96814757Y-39979113D01*
X97054433Y-40124863D01*
X97130076Y-40157719D01*
X97311725Y-40236620D01*
X97581839Y-40312303D01*
X97826159Y-40345884D01*
X97859741Y-40350500D01*
X97859742Y-40350500D01*
X98140259Y-40350500D01*
X98170219Y-40346381D01*
X98418161Y-40312303D01*
X98688275Y-40236620D01*
X98945568Y-40124862D01*
X99185246Y-39979111D01*
X99402845Y-39802081D01*
X99594312Y-39597069D01*
X99756081Y-39367896D01*
X99885136Y-39118830D01*
X99979075Y-38854511D01*
X99979076Y-38854504D01*
X99979078Y-38854499D01*
X100017442Y-38669879D01*
X100036148Y-38579862D01*
X100055291Y-38300000D01*
X100036148Y-38020138D01*
X99981593Y-37757605D01*
X99979078Y-37745500D01*
X99979073Y-37745483D01*
X99922961Y-37587599D01*
X99885136Y-37481170D01*
X99756081Y-37232104D01*
X99594312Y-37002931D01*
X99594307Y-37002925D01*
X99402845Y-36797919D01*
X99185242Y-36620886D01*
X98945566Y-36475136D01*
X98688276Y-36363380D01*
X98418166Y-36287698D01*
X98418162Y-36287697D01*
X98418161Y-36287697D01*
X98202646Y-36258075D01*
X98140259Y-36249500D01*
X98140258Y-36249500D01*
X97859742Y-36249500D01*
X97859741Y-36249500D01*
X97581839Y-36287697D01*
X97581833Y-36287698D01*
X97311723Y-36363380D01*
X97054433Y-36475136D01*
X96814757Y-36620886D01*
X96597154Y-36797919D01*
X96405692Y-37002925D01*
X96405692Y-37002926D01*
X96405689Y-37002928D01*
X96405688Y-37002931D01*
X96365944Y-37059235D01*
X96243919Y-37232103D01*
X96114863Y-37481171D01*
X96020926Y-37745483D01*
X96020921Y-37745500D01*
X95963852Y-38020135D01*
X95963851Y-38020137D01*
X95944709Y-38300000D01*
X82055291Y-38300000D01*
X82036148Y-38020138D01*
X81981593Y-37757605D01*
X81979078Y-37745500D01*
X81979073Y-37745483D01*
X81922961Y-37587599D01*
X81885136Y-37481170D01*
X81756081Y-37232104D01*
X81594312Y-37002931D01*
X81594307Y-37002925D01*
X81402845Y-36797919D01*
X81185242Y-36620886D01*
X80945566Y-36475136D01*
X80688276Y-36363380D01*
X80418166Y-36287698D01*
X80418162Y-36287697D01*
X80418161Y-36287697D01*
X80202646Y-36258075D01*
X80140259Y-36249500D01*
X80140258Y-36249500D01*
X79859742Y-36249500D01*
X79859741Y-36249500D01*
X79581839Y-36287697D01*
X79581833Y-36287698D01*
X79311723Y-36363380D01*
X79054433Y-36475136D01*
X78814757Y-36620886D01*
X78597154Y-36797919D01*
X78405692Y-37002925D01*
X78405692Y-37002926D01*
X78405689Y-37002928D01*
X78405688Y-37002931D01*
X78365944Y-37059235D01*
X78243919Y-37232103D01*
X78114863Y-37481171D01*
X78020926Y-37745483D01*
X78020921Y-37745500D01*
X77963852Y-38020135D01*
X77963851Y-38020137D01*
X77944709Y-38300000D01*
X70687500Y-38300000D01*
X70687500Y-37962500D01*
X69770512Y-37962500D01*
X69803425Y-37905493D01*
X69837500Y-37778326D01*
X69837500Y-37646674D01*
X69803425Y-37519507D01*
X69770512Y-37462500D01*
X70687500Y-37462500D01*
X70687500Y-36814672D01*
X70687499Y-36814655D01*
X70681098Y-36755127D01*
X70681096Y-36755120D01*
X70630854Y-36620413D01*
X70630850Y-36620406D01*
X70544690Y-36505312D01*
X70544687Y-36505309D01*
X70429593Y-36419149D01*
X70429586Y-36419145D01*
X70294879Y-36368903D01*
X70294872Y-36368901D01*
X70235344Y-36362500D01*
X69587500Y-36362500D01*
X69587500Y-37279488D01*
X69530493Y-37246575D01*
X69403326Y-37212500D01*
X69271674Y-37212500D01*
X69144507Y-37246575D01*
X69087500Y-37279488D01*
X69087500Y-36362500D01*
X68439655Y-36362500D01*
X68380127Y-36368901D01*
X68380120Y-36368903D01*
X68245413Y-36419145D01*
X68245406Y-36419149D01*
X68130312Y-36505309D01*
X68130309Y-36505312D01*
X68044149Y-36620406D01*
X68044145Y-36620413D01*
X67995078Y-36751970D01*
X67953207Y-36807904D01*
X67887742Y-36832321D01*
X67819469Y-36817469D01*
X67791215Y-36796319D01*
X67741324Y-36746428D01*
X67668901Y-36674005D01*
X67668897Y-36674002D01*
X67668896Y-36674001D01*
X67475334Y-36538467D01*
X67475330Y-36538465D01*
X67449324Y-36526338D01*
X67261163Y-36438597D01*
X67261159Y-36438596D01*
X67261155Y-36438594D01*
X67032913Y-36377438D01*
X67032903Y-36377436D01*
X66797501Y-36356841D01*
X66797499Y-36356841D01*
X66562096Y-36377436D01*
X66562086Y-36377438D01*
X66333844Y-36438594D01*
X66333835Y-36438598D01*
X66119671Y-36538464D01*
X66119669Y-36538465D01*
X65926097Y-36674005D01*
X65759005Y-36841097D01*
X65623465Y-37034669D01*
X65623464Y-37034671D01*
X65523598Y-37248835D01*
X65523594Y-37248844D01*
X65462438Y-37477086D01*
X65462436Y-37477096D01*
X65441841Y-37712499D01*
X62547248Y-37712499D01*
X62575929Y-37650992D01*
X62575932Y-37650986D01*
X62633136Y-37437500D01*
X61735512Y-37437500D01*
X61768425Y-37380493D01*
X61802500Y-37253326D01*
X61802500Y-37121674D01*
X61768425Y-36994507D01*
X61735512Y-36937500D01*
X62633136Y-36937500D01*
X62633135Y-36937499D01*
X62575932Y-36724013D01*
X62575929Y-36724007D01*
X62476100Y-36509922D01*
X62476099Y-36509920D01*
X62340613Y-36316426D01*
X62340608Y-36316420D01*
X62173582Y-36149394D01*
X61980078Y-36013899D01*
X61765992Y-35914070D01*
X61765986Y-35914067D01*
X61552500Y-35856864D01*
X61552500Y-36754488D01*
X61495493Y-36721575D01*
X61368326Y-36687500D01*
X61236674Y-36687500D01*
X61109507Y-36721575D01*
X61052500Y-36754488D01*
X61052500Y-35856864D01*
X61052499Y-35856864D01*
X60839013Y-35914067D01*
X60839007Y-35914070D01*
X60624922Y-36013899D01*
X60624920Y-36013900D01*
X60431426Y-36149386D01*
X60309365Y-36271447D01*
X60248042Y-36304931D01*
X60178350Y-36299947D01*
X60122417Y-36258075D01*
X60105502Y-36227098D01*
X60056297Y-36095171D01*
X60056293Y-36095164D01*
X59970047Y-35979955D01*
X59970044Y-35979952D01*
X59854835Y-35893706D01*
X59854829Y-35893703D01*
X59743666Y-35852241D01*
X59687733Y-35810369D01*
X59663316Y-35744905D01*
X59663000Y-35736059D01*
X59663000Y-35624361D01*
X59682685Y-35557322D01*
X59699319Y-35536680D01*
X59774181Y-35461818D01*
X59835504Y-35428333D01*
X59861862Y-35425499D01*
X60150002Y-35425499D01*
X60150008Y-35425499D01*
X60252797Y-35414999D01*
X60419334Y-35359814D01*
X60568656Y-35267712D01*
X60692712Y-35143656D01*
X60694752Y-35140347D01*
X60696745Y-35138555D01*
X60697193Y-35137989D01*
X60697289Y-35138065D01*
X60746694Y-35093623D01*
X60815656Y-35082395D01*
X60879740Y-35110234D01*
X60905829Y-35140339D01*
X60907681Y-35143341D01*
X60907683Y-35143344D01*
X61031654Y-35267315D01*
X61180875Y-35359356D01*
X61180880Y-35359358D01*
X61347302Y-35414505D01*
X61347309Y-35414506D01*
X61450019Y-35424999D01*
X61587499Y-35424999D01*
X62087500Y-35424999D01*
X62224972Y-35424999D01*
X62224986Y-35424998D01*
X62327697Y-35414505D01*
X62494119Y-35359358D01*
X62494124Y-35359356D01*
X62643345Y-35267315D01*
X62767315Y-35143345D01*
X62859356Y-34994124D01*
X62859358Y-34994119D01*
X62914505Y-34827697D01*
X62914506Y-34827690D01*
X62924999Y-34724986D01*
X62925000Y-34724973D01*
X62925000Y-34450000D01*
X62087500Y-34450000D01*
X62087500Y-35424999D01*
X61587499Y-35424999D01*
X61587500Y-35424998D01*
X61587500Y-33950000D01*
X62087500Y-33950000D01*
X62924999Y-33950000D01*
X62924999Y-33675028D01*
X62924998Y-33675013D01*
X62914505Y-33572302D01*
X62859358Y-33405880D01*
X62859356Y-33405875D01*
X62767315Y-33256654D01*
X62643345Y-33132684D01*
X62494124Y-33040643D01*
X62494119Y-33040641D01*
X62327697Y-32985494D01*
X62327690Y-32985493D01*
X62224986Y-32975000D01*
X62087500Y-32975000D01*
X62087500Y-33950000D01*
X61587500Y-33950000D01*
X61587500Y-32975000D01*
X61450027Y-32975000D01*
X61450012Y-32975001D01*
X61347302Y-32985494D01*
X61180880Y-33040641D01*
X61180875Y-33040643D01*
X61031654Y-33132684D01*
X60907683Y-33256655D01*
X60907679Y-33256660D01*
X60905826Y-33259665D01*
X60904018Y-33261290D01*
X60903202Y-33262323D01*
X60903025Y-33262183D01*
X60853874Y-33306385D01*
X60784911Y-33317601D01*
X60720831Y-33289752D01*
X60694753Y-33259653D01*
X60694737Y-33259628D01*
X60692712Y-33256344D01*
X60568656Y-33132288D01*
X60419334Y-33040186D01*
X60252797Y-32985001D01*
X60252795Y-32985000D01*
X60150010Y-32974500D01*
X59374998Y-32974500D01*
X59374980Y-32974501D01*
X59272203Y-32985000D01*
X59272200Y-32985001D01*
X59105668Y-33040185D01*
X59105663Y-33040187D01*
X58956342Y-33132289D01*
X58832289Y-33256342D01*
X58740187Y-33405663D01*
X58740185Y-33405668D01*
X58740115Y-33405880D01*
X58685001Y-33572203D01*
X58685001Y-33572204D01*
X58685000Y-33572204D01*
X58674500Y-33674983D01*
X58674500Y-33963137D01*
X58654815Y-34030176D01*
X58638181Y-34050818D01*
X58063038Y-34625960D01*
X58063037Y-34625961D01*
X58023564Y-34685039D01*
X58023563Y-34685040D01*
X57964485Y-34773455D01*
X57930546Y-34855393D01*
X57896606Y-34937329D01*
X57896603Y-34937341D01*
X57862000Y-35111303D01*
X57862000Y-35736060D01*
X57842315Y-35803099D01*
X57789511Y-35848854D01*
X57781333Y-35852242D01*
X57670171Y-35893702D01*
X57670164Y-35893706D01*
X57554955Y-35979952D01*
X57554952Y-35979955D01*
X57468706Y-36095164D01*
X57468702Y-36095171D01*
X57418408Y-36230017D01*
X57412001Y-36289616D01*
X57412000Y-36289635D01*
X57412000Y-38085370D01*
X57412001Y-38085376D01*
X57418408Y-38144983D01*
X57468703Y-38279829D01*
X57487266Y-38304626D01*
X57511684Y-38370090D01*
X57512000Y-38378938D01*
X57512000Y-40388000D01*
X57492315Y-40455039D01*
X57439511Y-40500794D01*
X57388000Y-40512000D01*
X56514629Y-40512000D01*
X56514623Y-40512001D01*
X56455016Y-40518408D01*
X56359104Y-40554182D01*
X56315771Y-40562000D01*
X55564078Y-40562000D01*
X55369673Y-40592790D01*
X55182469Y-40653617D01*
X55007094Y-40742976D01*
X54944928Y-40788143D01*
X54847854Y-40858672D01*
X54847852Y-40858674D01*
X54847851Y-40858674D01*
X53008674Y-42697851D01*
X53008674Y-42697852D01*
X53008672Y-42697854D01*
X52958985Y-42766241D01*
X52892976Y-42857094D01*
X52803613Y-43032478D01*
X52779534Y-43106590D01*
X52779534Y-43106592D01*
X52742790Y-43219673D01*
X52712000Y-43414077D01*
X52712000Y-51010922D01*
X52742790Y-51205326D01*
X52803617Y-51392530D01*
X52892976Y-51567905D01*
X53008672Y-51727146D01*
X53446171Y-52164645D01*
X53446172Y-52164646D01*
X53585354Y-52303828D01*
X53744595Y-52419524D01*
X53860975Y-52478822D01*
X53919979Y-52508886D01*
X54004223Y-52536258D01*
X54046346Y-52549944D01*
X54046347Y-52549945D01*
X54046348Y-52549945D01*
X54107173Y-52569709D01*
X54180076Y-52581255D01*
X54301578Y-52600500D01*
X54301583Y-52600500D01*
X64293164Y-52600500D01*
X64360203Y-52620185D01*
X64380845Y-52636819D01*
X65497855Y-53753829D01*
X65657095Y-53869524D01*
X65739954Y-53911742D01*
X65832469Y-53958882D01*
X65832471Y-53958882D01*
X65832474Y-53958884D01*
X65863873Y-53969086D01*
X66019673Y-54019709D01*
X66214078Y-54050500D01*
X66214083Y-54050500D01*
X66214084Y-54050500D01*
X66410917Y-54050500D01*
X69648877Y-54050500D01*
X69780664Y-54050500D01*
X69847703Y-54070185D01*
X69868345Y-54086819D01*
X75013181Y-59231655D01*
X75046666Y-59292978D01*
X75049500Y-59319336D01*
X75049500Y-65698422D01*
X75080290Y-65892826D01*
X75141117Y-66080030D01*
X75217869Y-66230663D01*
X75230476Y-66255405D01*
X75346172Y-66414646D01*
X75346174Y-66414648D01*
X78313181Y-69381655D01*
X78346666Y-69442978D01*
X78349500Y-69469336D01*
X78349500Y-70500001D01*
X78349501Y-70500019D01*
X78360000Y-70602796D01*
X78360001Y-70602799D01*
X78415185Y-70769331D01*
X78415187Y-70769336D01*
X78421414Y-70779431D01*
X78507288Y-70918656D01*
X78631344Y-71042712D01*
X78780666Y-71134814D01*
X78947203Y-71189999D01*
X79049991Y-71200500D01*
X81150008Y-71200499D01*
X81252797Y-71189999D01*
X81419334Y-71134814D01*
X81560407Y-71047799D01*
X81627795Y-71029361D01*
X81694459Y-71050283D01*
X81739229Y-71103925D01*
X81749500Y-71153340D01*
X81749500Y-73886746D01*
X81729815Y-73953785D01*
X81677011Y-73999540D01*
X81607853Y-74009484D01*
X81586497Y-74004452D01*
X81527799Y-73985001D01*
X81527795Y-73985000D01*
X81425010Y-73974500D01*
X80374998Y-73974500D01*
X80374980Y-73974501D01*
X80272203Y-73985000D01*
X80272200Y-73985001D01*
X80105668Y-74040185D01*
X80105663Y-74040187D01*
X79956342Y-74132289D01*
X79832289Y-74256342D01*
X79800365Y-74308100D01*
X79748417Y-74354824D01*
X79679454Y-74366046D01*
X79655826Y-74360709D01*
X79502797Y-74310001D01*
X79502795Y-74310000D01*
X79400010Y-74299500D01*
X78599998Y-74299500D01*
X78599980Y-74299501D01*
X78497203Y-74310000D01*
X78497200Y-74310001D01*
X78330668Y-74365185D01*
X78330663Y-74365187D01*
X78181342Y-74457289D01*
X78087681Y-74550951D01*
X78026358Y-74584436D01*
X77956666Y-74579452D01*
X77912319Y-74550951D01*
X77818657Y-74457289D01*
X77818656Y-74457288D01*
X77725888Y-74400069D01*
X77669336Y-74365187D01*
X77669331Y-74365185D01*
X77655823Y-74360709D01*
X77502797Y-74310001D01*
X77502795Y-74310000D01*
X77400010Y-74299500D01*
X76599998Y-74299500D01*
X76599980Y-74299501D01*
X76497203Y-74310000D01*
X76497200Y-74310001D01*
X76330668Y-74365185D01*
X76330663Y-74365187D01*
X76181342Y-74457289D01*
X76057289Y-74581342D01*
X75965187Y-74730663D01*
X75965185Y-74730668D01*
X75937405Y-74814504D01*
X75897632Y-74871949D01*
X75833116Y-74898772D01*
X75819699Y-74899500D01*
X75586670Y-74899500D01*
X75586654Y-74899499D01*
X75579058Y-74899499D01*
X75420943Y-74899499D01*
X75344579Y-74919961D01*
X75268214Y-74940423D01*
X75268209Y-74940426D01*
X75131290Y-75019475D01*
X75131282Y-75019481D01*
X74624217Y-75526546D01*
X74624214Y-75526548D01*
X74624215Y-75526549D01*
X74519478Y-75631286D01*
X74519475Y-75631290D01*
X74478501Y-75702261D01*
X74478501Y-75702262D01*
X74440423Y-75768215D01*
X74399499Y-75920943D01*
X74399499Y-75920945D01*
X74399499Y-76020950D01*
X74379814Y-76087989D01*
X74327010Y-76133744D01*
X74257852Y-76143688D01*
X74194296Y-76114663D01*
X74187818Y-76108631D01*
X74069141Y-75989954D01*
X73882734Y-75859432D01*
X73882728Y-75859429D01*
X73824725Y-75832382D01*
X73772285Y-75786210D01*
X73753133Y-75719017D01*
X73773348Y-75652135D01*
X73824725Y-75607618D01*
X73882734Y-75580568D01*
X74069139Y-75450047D01*
X74230047Y-75289139D01*
X74360568Y-75102734D01*
X74456739Y-74896496D01*
X74515635Y-74676692D01*
X74535468Y-74450000D01*
X74515635Y-74223308D01*
X74456739Y-74003504D01*
X74360568Y-73797266D01*
X74230047Y-73610861D01*
X74230045Y-73610858D01*
X74069141Y-73449954D01*
X73882734Y-73319432D01*
X73882728Y-73319429D01*
X73824725Y-73292382D01*
X73772285Y-73246210D01*
X73753133Y-73179017D01*
X73773348Y-73112135D01*
X73824725Y-73067618D01*
X73882734Y-73040568D01*
X74069139Y-72910047D01*
X74230047Y-72749139D01*
X74360568Y-72562734D01*
X74456739Y-72356496D01*
X74515635Y-72136692D01*
X74535468Y-71910000D01*
X74515635Y-71683308D01*
X74456739Y-71463504D01*
X74360568Y-71257266D01*
X74238860Y-71083447D01*
X74230045Y-71070858D01*
X74069141Y-70909954D01*
X73882734Y-70779432D01*
X73882728Y-70779429D01*
X73824725Y-70752382D01*
X73772285Y-70706210D01*
X73753133Y-70639017D01*
X73773348Y-70572135D01*
X73824725Y-70527618D01*
X73825317Y-70527342D01*
X73882734Y-70500568D01*
X74069139Y-70370047D01*
X74230047Y-70209139D01*
X74360568Y-70022734D01*
X74456739Y-69816496D01*
X74515635Y-69596692D01*
X74535468Y-69370000D01*
X74515635Y-69143308D01*
X74456739Y-68923504D01*
X74360568Y-68717266D01*
X74230047Y-68530861D01*
X74230045Y-68530858D01*
X74069141Y-68369954D01*
X73882734Y-68239432D01*
X73882728Y-68239429D01*
X73824725Y-68212382D01*
X73772285Y-68166210D01*
X73753133Y-68099017D01*
X73773348Y-68032135D01*
X73824725Y-67987618D01*
X73882734Y-67960568D01*
X74069139Y-67830047D01*
X74230047Y-67669139D01*
X74360568Y-67482734D01*
X74456739Y-67276496D01*
X74515635Y-67056692D01*
X74535468Y-66830000D01*
X74515635Y-66603308D01*
X74456739Y-66383504D01*
X74360568Y-66177266D01*
X74230047Y-65990861D01*
X74230045Y-65990858D01*
X74069141Y-65829954D01*
X73882734Y-65699432D01*
X73882732Y-65699431D01*
X73824725Y-65672382D01*
X73824132Y-65672105D01*
X73771694Y-65625934D01*
X73752542Y-65558740D01*
X73772758Y-65491859D01*
X73824134Y-65447341D01*
X73882484Y-65420132D01*
X74068820Y-65289657D01*
X74229657Y-65128820D01*
X74360134Y-64942482D01*
X74456265Y-64736326D01*
X74456269Y-64736317D01*
X74508872Y-64540000D01*
X73663012Y-64540000D01*
X73695925Y-64482993D01*
X73730000Y-64355826D01*
X73730000Y-64224174D01*
X73695925Y-64097007D01*
X73663012Y-64040000D01*
X74508872Y-64040000D01*
X74508872Y-64039999D01*
X74456269Y-63843682D01*
X74456265Y-63843673D01*
X74360134Y-63637517D01*
X74229657Y-63451179D01*
X74068820Y-63290342D01*
X73882482Y-63159865D01*
X73824133Y-63132657D01*
X73771694Y-63086484D01*
X73752542Y-63019291D01*
X73772758Y-62952410D01*
X73824129Y-62907895D01*
X73882734Y-62880568D01*
X74069139Y-62750047D01*
X74230047Y-62589139D01*
X74360568Y-62402734D01*
X74456739Y-62196496D01*
X74515635Y-61976692D01*
X74535468Y-61750000D01*
X74515635Y-61523308D01*
X74456739Y-61303504D01*
X74360568Y-61097266D01*
X74230047Y-60910861D01*
X74230045Y-60910858D01*
X74069141Y-60749954D01*
X73882734Y-60619432D01*
X73882732Y-60619431D01*
X73676497Y-60523261D01*
X73676488Y-60523258D01*
X73456697Y-60464366D01*
X73456693Y-60464365D01*
X73456692Y-60464365D01*
X73456691Y-60464364D01*
X73456686Y-60464364D01*
X73230002Y-60444532D01*
X73229998Y-60444532D01*
X73003313Y-60464364D01*
X73003302Y-60464366D01*
X72783511Y-60523258D01*
X72783502Y-60523261D01*
X72577267Y-60619431D01*
X72577265Y-60619432D01*
X72390858Y-60749954D01*
X72229954Y-60910858D01*
X72204912Y-60946623D01*
X72150335Y-60990248D01*
X72103337Y-60999500D01*
X70592229Y-60999500D01*
X70525190Y-60979815D01*
X70504548Y-60963181D01*
X67026819Y-57485451D01*
X66993334Y-57424128D01*
X66990500Y-57397770D01*
X66990500Y-57174499D01*
X67010185Y-57107460D01*
X67062989Y-57061705D01*
X67114500Y-57050499D01*
X67137871Y-57050499D01*
X67137872Y-57050499D01*
X67197483Y-57044091D01*
X67332331Y-56993796D01*
X67447546Y-56907546D01*
X67533796Y-56792331D01*
X67584091Y-56657483D01*
X67590500Y-56597873D01*
X67590499Y-54802128D01*
X67584091Y-54742517D01*
X67583002Y-54739598D01*
X67533797Y-54607671D01*
X67533793Y-54607664D01*
X67447547Y-54492455D01*
X67447544Y-54492452D01*
X67332335Y-54406206D01*
X67332328Y-54406202D01*
X67197482Y-54355908D01*
X67197483Y-54355908D01*
X67137883Y-54349501D01*
X67137881Y-54349500D01*
X67137873Y-54349500D01*
X67137864Y-54349500D01*
X65342129Y-54349500D01*
X65342123Y-54349501D01*
X65282516Y-54355908D01*
X65147671Y-54406202D01*
X65147664Y-54406206D01*
X65032455Y-54492452D01*
X65032452Y-54492455D01*
X64946206Y-54607664D01*
X64946202Y-54607671D01*
X64896997Y-54739598D01*
X64855126Y-54795532D01*
X64789661Y-54819949D01*
X64721388Y-54805097D01*
X64693134Y-54783946D01*
X64571082Y-54661894D01*
X64377578Y-54526399D01*
X64163492Y-54426570D01*
X64163486Y-54426567D01*
X63950000Y-54369364D01*
X63950000Y-55266988D01*
X63892993Y-55234075D01*
X63765826Y-55200000D01*
X63634174Y-55200000D01*
X63507007Y-55234075D01*
X63450000Y-55266988D01*
X63450000Y-54369364D01*
X63449999Y-54369364D01*
X63236513Y-54426567D01*
X63236507Y-54426570D01*
X63022422Y-54526399D01*
X63022420Y-54526400D01*
X62828926Y-54661886D01*
X62828920Y-54661891D01*
X62661891Y-54828920D01*
X62661890Y-54828922D01*
X62531880Y-55014595D01*
X62477303Y-55058219D01*
X62407804Y-55065412D01*
X62345450Y-55033890D01*
X62328730Y-55014594D01*
X62198494Y-54828597D01*
X62031402Y-54661506D01*
X62031395Y-54661501D01*
X61837834Y-54525967D01*
X61837830Y-54525965D01*
X61804185Y-54510276D01*
X61623663Y-54426097D01*
X61623659Y-54426096D01*
X61623655Y-54426094D01*
X61395413Y-54364938D01*
X61395403Y-54364936D01*
X61160001Y-54344341D01*
X61159999Y-54344341D01*
X60924596Y-54364936D01*
X60924586Y-54364938D01*
X60696344Y-54426094D01*
X60696335Y-54426098D01*
X60482171Y-54525964D01*
X60482169Y-54525965D01*
X60288597Y-54661505D01*
X60121505Y-54828597D01*
X59985965Y-55022169D01*
X59985964Y-55022171D01*
X59886098Y-55236335D01*
X59886094Y-55236344D01*
X59824938Y-55464586D01*
X59824936Y-55464596D01*
X59804341Y-55699999D01*
X59804341Y-55700000D01*
X59824936Y-55935403D01*
X59824938Y-55935413D01*
X59886094Y-56163655D01*
X59886096Y-56163659D01*
X59886097Y-56163663D01*
X59969155Y-56341781D01*
X59985965Y-56377830D01*
X59985967Y-56377834D01*
X60094281Y-56532521D01*
X60121501Y-56571396D01*
X60121506Y-56571402D01*
X60288595Y-56738492D01*
X60288598Y-56738494D01*
X60288599Y-56738495D01*
X60356623Y-56786125D01*
X60400248Y-56840701D01*
X60409500Y-56887700D01*
X60409500Y-68377769D01*
X60389815Y-68444808D01*
X60373181Y-68465450D01*
X59496970Y-69341660D01*
X59435647Y-69375145D01*
X59365955Y-69370161D01*
X59310022Y-69328289D01*
X59285761Y-69264786D01*
X59275141Y-69143400D01*
X59275139Y-69143389D01*
X59216269Y-68923682D01*
X59216265Y-68923673D01*
X59120134Y-68717517D01*
X58989657Y-68531179D01*
X58828820Y-68370342D01*
X58642482Y-68239865D01*
X58584133Y-68212657D01*
X58531694Y-68166484D01*
X58512542Y-68099291D01*
X58532758Y-68032410D01*
X58584129Y-67987895D01*
X58642734Y-67960568D01*
X58829139Y-67830047D01*
X58990047Y-67669139D01*
X59120568Y-67482734D01*
X59216739Y-67276496D01*
X59275635Y-67056692D01*
X59295468Y-66830000D01*
X59275635Y-66603308D01*
X59216739Y-66383504D01*
X59120568Y-66177266D01*
X58990047Y-65990861D01*
X58990045Y-65990858D01*
X58829141Y-65829954D01*
X58642734Y-65699432D01*
X58642728Y-65699429D01*
X58584725Y-65672382D01*
X58532285Y-65626210D01*
X58513133Y-65559017D01*
X58533348Y-65492135D01*
X58584725Y-65447618D01*
X58585319Y-65447341D01*
X58642734Y-65420568D01*
X58829139Y-65290047D01*
X58990047Y-65129139D01*
X59120568Y-64942734D01*
X59216739Y-64736496D01*
X59275635Y-64516692D01*
X59295468Y-64290000D01*
X59275635Y-64063308D01*
X59216739Y-63843504D01*
X59120568Y-63637266D01*
X58990047Y-63450861D01*
X58990045Y-63450858D01*
X58829143Y-63289956D01*
X58804536Y-63272726D01*
X58760912Y-63218149D01*
X58753719Y-63148650D01*
X58785241Y-63086296D01*
X58845471Y-63050882D01*
X58862404Y-63047861D01*
X58897483Y-63044091D01*
X59032331Y-62993796D01*
X59147546Y-62907546D01*
X59233796Y-62792331D01*
X59284091Y-62657483D01*
X59290500Y-62597873D01*
X59290499Y-60902128D01*
X59284091Y-60842517D01*
X59249567Y-60749954D01*
X59233797Y-60707671D01*
X59233793Y-60707664D01*
X59147547Y-60592455D01*
X59147544Y-60592452D01*
X59032335Y-60506206D01*
X59032328Y-60506202D01*
X58897482Y-60455908D01*
X58897483Y-60455908D01*
X58837883Y-60449501D01*
X58837881Y-60449500D01*
X58837873Y-60449500D01*
X58837864Y-60449500D01*
X57142129Y-60449500D01*
X57142123Y-60449501D01*
X57082516Y-60455908D01*
X56947671Y-60506202D01*
X56947664Y-60506206D01*
X56832455Y-60592452D01*
X56832452Y-60592455D01*
X56746206Y-60707664D01*
X56746202Y-60707671D01*
X56695908Y-60842517D01*
X56695104Y-60850000D01*
X56689501Y-60902123D01*
X56689500Y-60902135D01*
X56689500Y-62597870D01*
X56689501Y-62597876D01*
X56695908Y-62657483D01*
X56746202Y-62792328D01*
X56746206Y-62792335D01*
X56832452Y-62907544D01*
X56832455Y-62907547D01*
X56947664Y-62993793D01*
X56947671Y-62993797D01*
X56992618Y-63010561D01*
X57082517Y-63044091D01*
X57117596Y-63047862D01*
X57182144Y-63074599D01*
X57221993Y-63131991D01*
X57224488Y-63201816D01*
X57188836Y-63261905D01*
X57175464Y-63272725D01*
X57150858Y-63289954D01*
X56989954Y-63450858D01*
X56859432Y-63637265D01*
X56859431Y-63637267D01*
X56763261Y-63843502D01*
X56763258Y-63843511D01*
X56704366Y-64063302D01*
X56704364Y-64063313D01*
X56684532Y-64289998D01*
X56684532Y-64290001D01*
X56704364Y-64516686D01*
X56704366Y-64516697D01*
X56763258Y-64736488D01*
X56763261Y-64736497D01*
X56859431Y-64942732D01*
X56859432Y-64942734D01*
X56989954Y-65129141D01*
X57150858Y-65290045D01*
X57150861Y-65290047D01*
X57337266Y-65420568D01*
X57394681Y-65447341D01*
X57395275Y-65447618D01*
X57447714Y-65493791D01*
X57466866Y-65560984D01*
X57446650Y-65627865D01*
X57395275Y-65672382D01*
X57337267Y-65699431D01*
X57337265Y-65699432D01*
X57150858Y-65829954D01*
X56989954Y-65990858D01*
X56859432Y-66177265D01*
X56859431Y-66177267D01*
X56763261Y-66383502D01*
X56763258Y-66383511D01*
X56704366Y-66603302D01*
X56704364Y-66603313D01*
X56684532Y-66829998D01*
X56684532Y-66830001D01*
X56704364Y-67056686D01*
X56704366Y-67056697D01*
X56763258Y-67276488D01*
X56763261Y-67276497D01*
X56859431Y-67482732D01*
X56859432Y-67482734D01*
X56989954Y-67669141D01*
X57150858Y-67830045D01*
X57150861Y-67830047D01*
X57337266Y-67960568D01*
X57395865Y-67987893D01*
X57448305Y-68034065D01*
X57467457Y-68101258D01*
X57447242Y-68168139D01*
X57395867Y-68212657D01*
X57337515Y-68239867D01*
X57151179Y-68370342D01*
X56990342Y-68531179D01*
X56859865Y-68717517D01*
X56763734Y-68923673D01*
X56763730Y-68923682D01*
X56711127Y-69119999D01*
X56711128Y-69120000D01*
X57556988Y-69120000D01*
X57524075Y-69177007D01*
X57490000Y-69304174D01*
X57490000Y-69435826D01*
X57524075Y-69562993D01*
X57556988Y-69620000D01*
X56711128Y-69620000D01*
X56763730Y-69816317D01*
X56763734Y-69816326D01*
X56859865Y-70022482D01*
X56990342Y-70208820D01*
X57151179Y-70369657D01*
X57337518Y-70500134D01*
X57337520Y-70500135D01*
X57395865Y-70527342D01*
X57448305Y-70573514D01*
X57467457Y-70640707D01*
X57447242Y-70707589D01*
X57395867Y-70752105D01*
X57337268Y-70779431D01*
X57337264Y-70779433D01*
X57150858Y-70909954D01*
X56989954Y-71070858D01*
X56859432Y-71257265D01*
X56859431Y-71257267D01*
X56763261Y-71463502D01*
X56763258Y-71463511D01*
X56704366Y-71683302D01*
X56704364Y-71683313D01*
X56684532Y-71909998D01*
X56684532Y-71910001D01*
X56704364Y-72136686D01*
X56704366Y-72136697D01*
X56763258Y-72356488D01*
X56763261Y-72356497D01*
X56859431Y-72562732D01*
X56859432Y-72562734D01*
X56989954Y-72749141D01*
X57150858Y-72910045D01*
X57150861Y-72910047D01*
X57337266Y-73040568D01*
X57395275Y-73067618D01*
X57447714Y-73113791D01*
X57466866Y-73180984D01*
X57446650Y-73247865D01*
X57395275Y-73292382D01*
X57337267Y-73319431D01*
X57337265Y-73319432D01*
X57150858Y-73449954D01*
X56989954Y-73610858D01*
X56859432Y-73797265D01*
X56859431Y-73797267D01*
X56763261Y-74003502D01*
X56763258Y-74003511D01*
X56704366Y-74223302D01*
X56704364Y-74223313D01*
X56684532Y-74449998D01*
X56684532Y-74450001D01*
X56704364Y-74676686D01*
X56704366Y-74676697D01*
X56763258Y-74896488D01*
X56763261Y-74896497D01*
X56859431Y-75102732D01*
X56859432Y-75102734D01*
X56989954Y-75289141D01*
X57150858Y-75450045D01*
X57150861Y-75450047D01*
X57337266Y-75580568D01*
X57395275Y-75607618D01*
X57447714Y-75653791D01*
X57466866Y-75720984D01*
X57446650Y-75787865D01*
X57395275Y-75832382D01*
X57337267Y-75859431D01*
X57337265Y-75859432D01*
X57150858Y-75989954D01*
X56989954Y-76150858D01*
X56859432Y-76337265D01*
X56859431Y-76337267D01*
X56763261Y-76543502D01*
X56763258Y-76543511D01*
X56704366Y-76763302D01*
X56704364Y-76763313D01*
X56684532Y-76989998D01*
X56684532Y-76990001D01*
X56704364Y-77216686D01*
X56704366Y-77216697D01*
X56763258Y-77436488D01*
X56763261Y-77436497D01*
X56859431Y-77642732D01*
X56859432Y-77642734D01*
X56989954Y-77829141D01*
X57150858Y-77990045D01*
X57150861Y-77990047D01*
X57337266Y-78120568D01*
X57395275Y-78147618D01*
X57447714Y-78193791D01*
X57466866Y-78260984D01*
X57446650Y-78327865D01*
X57395275Y-78372382D01*
X57337267Y-78399431D01*
X57337265Y-78399432D01*
X57150858Y-78529954D01*
X56989954Y-78690858D01*
X56859432Y-78877265D01*
X56859431Y-78877267D01*
X56763261Y-79083502D01*
X56763258Y-79083511D01*
X56704366Y-79303302D01*
X56704364Y-79303313D01*
X56684532Y-79529998D01*
X56684532Y-79530001D01*
X56704364Y-79756686D01*
X56704366Y-79756697D01*
X56763258Y-79976488D01*
X56763261Y-79976497D01*
X56859431Y-80182732D01*
X56859432Y-80182734D01*
X56989954Y-80369141D01*
X57150858Y-80530045D01*
X57150861Y-80530047D01*
X57337266Y-80660568D01*
X57395275Y-80687618D01*
X57447714Y-80733791D01*
X57466866Y-80800984D01*
X57446650Y-80867865D01*
X57395275Y-80912382D01*
X57337267Y-80939431D01*
X57337265Y-80939432D01*
X57150860Y-81069953D01*
X56989954Y-81230858D01*
X56859432Y-81417265D01*
X56859431Y-81417267D01*
X56763261Y-81623502D01*
X56763258Y-81623511D01*
X56704366Y-81843302D01*
X56704364Y-81843313D01*
X56684532Y-82069998D01*
X56684532Y-82070001D01*
X56704364Y-82296686D01*
X56704366Y-82296697D01*
X56763258Y-82516488D01*
X56763261Y-82516497D01*
X56859431Y-82722732D01*
X56859432Y-82722734D01*
X56989954Y-82909141D01*
X57150858Y-83070045D01*
X57150861Y-83070047D01*
X57337266Y-83200568D01*
X57395275Y-83227618D01*
X57447714Y-83273791D01*
X57466866Y-83340984D01*
X57446650Y-83407865D01*
X57395275Y-83452382D01*
X57337267Y-83479431D01*
X57337265Y-83479432D01*
X57150858Y-83609954D01*
X56989954Y-83770858D01*
X56859432Y-83957265D01*
X56859431Y-83957267D01*
X56763261Y-84163502D01*
X56763258Y-84163511D01*
X56704366Y-84383302D01*
X56704364Y-84383313D01*
X56684532Y-84609998D01*
X56684532Y-84610001D01*
X56704364Y-84836686D01*
X56704366Y-84836697D01*
X56763258Y-85056488D01*
X56763261Y-85056497D01*
X56859431Y-85262732D01*
X56859432Y-85262734D01*
X56989954Y-85449141D01*
X57150858Y-85610045D01*
X57150861Y-85610047D01*
X57337266Y-85740568D01*
X57395275Y-85767618D01*
X57447714Y-85813791D01*
X57466866Y-85880984D01*
X57446650Y-85947865D01*
X57395275Y-85992382D01*
X57337267Y-86019431D01*
X57337265Y-86019432D01*
X57150858Y-86149954D01*
X56989954Y-86310858D01*
X56859432Y-86497265D01*
X56859431Y-86497267D01*
X56763261Y-86703502D01*
X56763258Y-86703511D01*
X56704366Y-86923302D01*
X56704364Y-86923313D01*
X56684532Y-87149998D01*
X56684532Y-87150001D01*
X56704364Y-87376686D01*
X56704366Y-87376697D01*
X56763258Y-87596488D01*
X56763261Y-87596497D01*
X56859431Y-87802732D01*
X56859432Y-87802734D01*
X56989954Y-87989141D01*
X57150858Y-88150045D01*
X57150861Y-88150047D01*
X57337266Y-88280568D01*
X57368623Y-88295190D01*
X57395275Y-88307618D01*
X57447714Y-88353791D01*
X57466866Y-88420984D01*
X57446650Y-88487865D01*
X57395275Y-88532382D01*
X57337267Y-88559431D01*
X57337265Y-88559432D01*
X57150858Y-88689954D01*
X56989954Y-88850858D01*
X56859432Y-89037265D01*
X56859431Y-89037267D01*
X56763261Y-89243502D01*
X56763258Y-89243511D01*
X56704366Y-89463302D01*
X56704364Y-89463313D01*
X56684532Y-89689998D01*
X56684532Y-89690001D01*
X56704364Y-89916686D01*
X56704366Y-89916697D01*
X56763258Y-90136488D01*
X56763261Y-90136497D01*
X56859431Y-90342732D01*
X56859432Y-90342734D01*
X56989954Y-90529141D01*
X57150858Y-90690045D01*
X57197693Y-90722839D01*
X57337266Y-90820568D01*
X57395275Y-90847618D01*
X57447714Y-90893791D01*
X57466866Y-90960984D01*
X57446650Y-91027865D01*
X57395275Y-91072382D01*
X57337267Y-91099431D01*
X57337265Y-91099432D01*
X57150858Y-91229954D01*
X56989954Y-91390858D01*
X56859432Y-91577265D01*
X56859431Y-91577267D01*
X56763261Y-91783502D01*
X56763258Y-91783511D01*
X56704366Y-92003302D01*
X56704364Y-92003313D01*
X56684532Y-92229998D01*
X56684532Y-92230001D01*
X56704364Y-92456686D01*
X56704366Y-92456697D01*
X56763258Y-92676488D01*
X56763261Y-92676497D01*
X56859431Y-92882732D01*
X56859432Y-92882734D01*
X56989954Y-93069141D01*
X57150858Y-93230045D01*
X57150861Y-93230047D01*
X57337266Y-93360568D01*
X57395275Y-93387618D01*
X57447714Y-93433791D01*
X57466866Y-93500984D01*
X57446650Y-93567865D01*
X57395275Y-93612382D01*
X57337267Y-93639431D01*
X57337265Y-93639432D01*
X57150858Y-93769954D01*
X56989954Y-93930858D01*
X56859432Y-94117265D01*
X56859431Y-94117267D01*
X56763261Y-94323502D01*
X56763258Y-94323511D01*
X56704366Y-94543302D01*
X56704364Y-94543313D01*
X56684532Y-94769998D01*
X56684532Y-94770001D01*
X56704364Y-94996686D01*
X56704366Y-94996697D01*
X56763258Y-95216488D01*
X56763261Y-95216497D01*
X56859431Y-95422732D01*
X56859432Y-95422734D01*
X56989954Y-95609141D01*
X57150858Y-95770045D01*
X57150861Y-95770047D01*
X57337266Y-95900568D01*
X57395275Y-95927618D01*
X57447714Y-95973791D01*
X57466866Y-96040984D01*
X57446650Y-96107865D01*
X57395275Y-96152382D01*
X57337267Y-96179431D01*
X57337265Y-96179432D01*
X57150858Y-96309954D01*
X56989954Y-96470858D01*
X56859432Y-96657265D01*
X56859431Y-96657267D01*
X56763261Y-96863502D01*
X56763258Y-96863511D01*
X56704366Y-97083302D01*
X56704364Y-97083313D01*
X56684532Y-97309998D01*
X56684532Y-97310001D01*
X56704364Y-97536686D01*
X56704366Y-97536697D01*
X56763258Y-97756488D01*
X56763261Y-97756497D01*
X56859431Y-97962732D01*
X56859432Y-97962734D01*
X56989954Y-98149141D01*
X57150858Y-98310045D01*
X57150861Y-98310047D01*
X57337266Y-98440568D01*
X57492849Y-98513118D01*
X57545288Y-98559291D01*
X57564440Y-98626484D01*
X57544224Y-98693365D01*
X57491059Y-98738700D01*
X57440444Y-98749500D01*
X46862229Y-98749500D01*
X46795190Y-98729815D01*
X46774548Y-98713181D01*
X45753308Y-97691940D01*
X45730643Y-97655870D01*
X45728812Y-97656753D01*
X45725792Y-97650483D01*
X45698476Y-97607010D01*
X45629816Y-97497738D01*
X45502262Y-97370184D01*
X45349523Y-97274211D01*
X45179254Y-97214631D01*
X45179249Y-97214630D01*
X45000004Y-97194435D01*
X44999996Y-97194435D01*
X44820750Y-97214630D01*
X44820745Y-97214631D01*
X44650476Y-97274211D01*
X44497737Y-97370184D01*
X44370184Y-97497737D01*
X44274211Y-97650476D01*
X44214631Y-97820745D01*
X44214630Y-97820750D01*
X44194435Y-97999996D01*
X30555543Y-97999996D01*
X30555543Y-97999994D01*
X30535393Y-97679716D01*
X30535392Y-97679709D01*
X30535392Y-97679706D01*
X30475256Y-97364462D01*
X30376084Y-97059242D01*
X30357683Y-97020138D01*
X30239441Y-96768861D01*
X30239437Y-96768855D01*
X30225204Y-96746428D01*
X30177125Y-96670666D01*
X30067479Y-96497891D01*
X30067477Y-96497888D01*
X29862912Y-96250611D01*
X29669176Y-96068681D01*
X29628964Y-96030920D01*
X29628961Y-96030918D01*
X29628955Y-96030913D01*
X29369339Y-95842291D01*
X29369321Y-95842280D01*
X29088096Y-95687675D01*
X29088093Y-95687674D01*
X28789703Y-95569533D01*
X28789706Y-95569533D01*
X28478864Y-95489723D01*
X28478851Y-95489721D01*
X28160475Y-95449500D01*
X28160464Y-95449500D01*
X27839536Y-95449500D01*
X27839524Y-95449500D01*
X27521148Y-95489721D01*
X27521135Y-95489723D01*
X27210294Y-95569533D01*
X26911906Y-95687674D01*
X26911903Y-95687675D01*
X26630678Y-95842280D01*
X26630660Y-95842291D01*
X26371044Y-96030913D01*
X26371034Y-96030921D01*
X26137087Y-96250611D01*
X25932522Y-96497888D01*
X25932520Y-96497891D01*
X25760562Y-96768855D01*
X25760558Y-96768861D01*
X25623918Y-97059235D01*
X25623916Y-97059240D01*
X25524745Y-97364457D01*
X25524744Y-97364461D01*
X25524744Y-97364462D01*
X25518882Y-97395188D01*
X25464607Y-97679709D01*
X25464606Y-97679716D01*
X25444457Y-97999994D01*
X20500500Y-97999994D01*
X20500500Y-83999994D01*
X45444457Y-83999994D01*
X45444457Y-84000005D01*
X45464606Y-84320283D01*
X45464607Y-84320290D01*
X45482674Y-84414998D01*
X45519872Y-84610000D01*
X45524745Y-84635542D01*
X45623916Y-84940759D01*
X45623918Y-84940764D01*
X45760558Y-85231138D01*
X45760562Y-85231144D01*
X45932520Y-85502108D01*
X45932522Y-85502111D01*
X46129792Y-85740570D01*
X46137089Y-85749390D01*
X46138246Y-85750476D01*
X46371034Y-85969078D01*
X46371044Y-85969086D01*
X46630660Y-86157708D01*
X46630666Y-86157711D01*
X46630672Y-86157716D01*
X46911903Y-86312324D01*
X47210294Y-86430466D01*
X47210293Y-86430466D01*
X47434889Y-86488132D01*
X47521139Y-86510277D01*
X47587935Y-86518715D01*
X47839524Y-86550499D01*
X47839533Y-86550499D01*
X47839536Y-86550500D01*
X47839538Y-86550500D01*
X48160462Y-86550500D01*
X48160464Y-86550500D01*
X48160467Y-86550499D01*
X48160475Y-86550499D01*
X48350463Y-86526497D01*
X48478861Y-86510277D01*
X48789706Y-86430466D01*
X49088097Y-86312324D01*
X49369328Y-86157716D01*
X49628964Y-85969080D01*
X49862911Y-85749390D01*
X50067478Y-85502110D01*
X50239439Y-85231142D01*
X50263861Y-85179244D01*
X50294097Y-85114988D01*
X50376084Y-84940758D01*
X50475256Y-84635538D01*
X50535392Y-84320294D01*
X50538700Y-84267712D01*
X50555543Y-84000005D01*
X50555543Y-83999994D01*
X50535393Y-83679716D01*
X50535392Y-83679709D01*
X50535392Y-83679706D01*
X50475256Y-83364462D01*
X50376084Y-83059242D01*
X50366582Y-83039049D01*
X50239441Y-82768861D01*
X50239437Y-82768855D01*
X50230913Y-82755424D01*
X50117372Y-82576510D01*
X50067479Y-82497891D01*
X50067477Y-82497888D01*
X49862912Y-82250611D01*
X49858440Y-82246411D01*
X49628964Y-82030920D01*
X49628961Y-82030918D01*
X49628955Y-82030913D01*
X49369339Y-81842291D01*
X49369321Y-81842280D01*
X49088096Y-81687675D01*
X49088093Y-81687674D01*
X48840394Y-81589603D01*
X48789706Y-81569534D01*
X48789704Y-81569533D01*
X48789706Y-81569533D01*
X48478864Y-81489723D01*
X48478851Y-81489721D01*
X48160475Y-81449500D01*
X48160464Y-81449500D01*
X47839536Y-81449500D01*
X47839524Y-81449500D01*
X47521148Y-81489721D01*
X47521135Y-81489723D01*
X47210294Y-81569533D01*
X46911906Y-81687674D01*
X46911903Y-81687675D01*
X46630678Y-81842280D01*
X46630660Y-81842291D01*
X46371044Y-82030913D01*
X46371034Y-82030921D01*
X46137087Y-82250611D01*
X45932522Y-82497888D01*
X45932520Y-82497891D01*
X45760562Y-82768855D01*
X45760558Y-82768861D01*
X45623918Y-83059235D01*
X45623916Y-83059240D01*
X45524745Y-83364457D01*
X45464607Y-83679709D01*
X45464606Y-83679716D01*
X45444457Y-83999994D01*
X20500500Y-83999994D01*
X20500500Y-51999994D01*
X45444457Y-51999994D01*
X45444457Y-52000005D01*
X45464606Y-52320283D01*
X45464607Y-52320290D01*
X45483537Y-52419523D01*
X45512186Y-52569709D01*
X45524745Y-52635542D01*
X45623916Y-52940759D01*
X45623918Y-52940764D01*
X45760558Y-53231138D01*
X45760562Y-53231144D01*
X45932520Y-53502108D01*
X45932522Y-53502111D01*
X46137087Y-53749388D01*
X46371034Y-53969078D01*
X46371044Y-53969086D01*
X46630660Y-54157708D01*
X46630666Y-54157711D01*
X46630672Y-54157716D01*
X46911903Y-54312324D01*
X47210294Y-54430466D01*
X47210293Y-54430466D01*
X47521135Y-54510276D01*
X47521139Y-54510277D01*
X47587935Y-54518715D01*
X47839524Y-54550499D01*
X47839533Y-54550499D01*
X47839536Y-54550500D01*
X47839538Y-54550500D01*
X48160462Y-54550500D01*
X48160464Y-54550500D01*
X48160467Y-54550499D01*
X48160475Y-54550499D01*
X48354686Y-54525964D01*
X48478861Y-54510277D01*
X48789706Y-54430466D01*
X49088097Y-54312324D01*
X49369328Y-54157716D01*
X49628964Y-53969080D01*
X49862911Y-53749390D01*
X50067478Y-53502110D01*
X50239439Y-53231142D01*
X50376084Y-52940758D01*
X50475256Y-52635538D01*
X50535392Y-52320294D01*
X50536284Y-52306113D01*
X50555543Y-52000005D01*
X50555543Y-51999994D01*
X50535393Y-51679716D01*
X50535392Y-51679709D01*
X50535392Y-51679706D01*
X50475256Y-51364462D01*
X50376084Y-51059242D01*
X50376081Y-51059235D01*
X50239441Y-50768861D01*
X50239437Y-50768855D01*
X50225204Y-50746428D01*
X50067478Y-50497890D01*
X50067477Y-50497888D01*
X49862912Y-50250611D01*
X49814168Y-50204837D01*
X49628964Y-50030920D01*
X49628961Y-50030918D01*
X49628955Y-50030913D01*
X49369339Y-49842291D01*
X49369321Y-49842280D01*
X49088096Y-49687675D01*
X49088093Y-49687674D01*
X48789703Y-49569533D01*
X48789706Y-49569533D01*
X48478864Y-49489723D01*
X48478851Y-49489721D01*
X48160475Y-49449500D01*
X48160464Y-49449500D01*
X47839536Y-49449500D01*
X47839524Y-49449500D01*
X47521148Y-49489721D01*
X47521135Y-49489723D01*
X47210294Y-49569533D01*
X46911906Y-49687674D01*
X46911903Y-49687675D01*
X46630678Y-49842280D01*
X46630660Y-49842291D01*
X46371044Y-50030913D01*
X46371034Y-50030921D01*
X46137087Y-50250611D01*
X45932522Y-50497888D01*
X45932520Y-50497891D01*
X45760562Y-50768855D01*
X45760558Y-50768861D01*
X45623918Y-51059235D01*
X45623916Y-51059240D01*
X45524745Y-51364457D01*
X45464607Y-51679709D01*
X45464606Y-51679716D01*
X45444457Y-51999994D01*
X20500500Y-51999994D01*
X20500500Y-37999994D01*
X25444457Y-37999994D01*
X25444457Y-38000005D01*
X25464606Y-38320283D01*
X25464607Y-38320290D01*
X25464608Y-38320294D01*
X25517048Y-38595196D01*
X25524745Y-38635542D01*
X25623916Y-38940759D01*
X25623918Y-38940764D01*
X25760558Y-39231138D01*
X25760562Y-39231144D01*
X25932520Y-39502108D01*
X25932522Y-39502111D01*
X26137087Y-39749388D01*
X26137089Y-39749390D01*
X26193200Y-39802081D01*
X26371034Y-39969078D01*
X26371044Y-39969086D01*
X26630660Y-40157708D01*
X26630666Y-40157711D01*
X26630672Y-40157716D01*
X26911903Y-40312324D01*
X27210294Y-40430466D01*
X27210293Y-40430466D01*
X27484205Y-40500794D01*
X27521139Y-40510277D01*
X27585502Y-40518408D01*
X27839524Y-40550499D01*
X27839533Y-40550499D01*
X27839536Y-40550500D01*
X27839538Y-40550500D01*
X28160462Y-40550500D01*
X28160464Y-40550500D01*
X28160467Y-40550499D01*
X28160475Y-40550499D01*
X28350463Y-40526497D01*
X28478861Y-40510277D01*
X28789706Y-40430466D01*
X29088097Y-40312324D01*
X29369328Y-40157716D01*
X29628964Y-39969080D01*
X29862911Y-39749390D01*
X30067478Y-39502110D01*
X30239439Y-39231142D01*
X30376084Y-38940758D01*
X30475256Y-38635538D01*
X30535392Y-38320294D01*
X30540293Y-38242395D01*
X30555543Y-38000005D01*
X30555543Y-37999994D01*
X30535393Y-37679716D01*
X30535392Y-37679709D01*
X30535392Y-37679706D01*
X30475256Y-37364462D01*
X30376084Y-37059242D01*
X30345622Y-36994507D01*
X30239441Y-36768861D01*
X30239437Y-36768855D01*
X30225204Y-36746428D01*
X30145535Y-36620889D01*
X30067479Y-36497891D01*
X30067477Y-36497888D01*
X29862912Y-36250611D01*
X29697383Y-36095169D01*
X29628964Y-36030920D01*
X29628961Y-36030918D01*
X29628955Y-36030913D01*
X29369339Y-35842291D01*
X29369321Y-35842280D01*
X29088096Y-35687675D01*
X29088093Y-35687674D01*
X28882465Y-35606260D01*
X28789706Y-35569534D01*
X28789704Y-35569533D01*
X28789706Y-35569533D01*
X28478864Y-35489723D01*
X28478851Y-35489721D01*
X28160475Y-35449500D01*
X28160464Y-35449500D01*
X27839536Y-35449500D01*
X27839524Y-35449500D01*
X27521148Y-35489721D01*
X27521135Y-35489723D01*
X27210294Y-35569533D01*
X26911906Y-35687674D01*
X26911903Y-35687675D01*
X26630678Y-35842280D01*
X26630660Y-35842291D01*
X26371044Y-36030913D01*
X26371034Y-36030921D01*
X26137087Y-36250611D01*
X25932522Y-36497888D01*
X25932520Y-36497891D01*
X25760562Y-36768855D01*
X25760558Y-36768861D01*
X25623918Y-37059235D01*
X25623916Y-37059240D01*
X25524745Y-37364457D01*
X25464607Y-37679709D01*
X25464606Y-37679716D01*
X25444457Y-37999994D01*
X20500500Y-37999994D01*
X20500500Y-19624500D01*
X20520185Y-19557461D01*
X20572989Y-19511706D01*
X20624500Y-19500500D01*
X71375500Y-19500500D01*
X71442539Y-19520185D01*
G37*
%TD.AperFunction*%
%TD*%
%TA.AperFunction,NonConductor*%
G36*
X97941969Y-76063843D02*
G01*
X97943003Y-76064526D01*
X97976086Y-76086631D01*
X98158164Y-76162051D01*
X98334101Y-76197047D01*
X98351455Y-76200499D01*
X98351458Y-76200500D01*
X98351460Y-76200500D01*
X98548538Y-76200500D01*
X98548540Y-76200500D01*
X98548541Y-76200499D01*
X98551553Y-76200203D01*
X98553119Y-76200500D01*
X98554632Y-76200500D01*
X98554632Y-76200786D01*
X98620199Y-76213221D01*
X98670910Y-76261286D01*
X98687585Y-76329136D01*
X98664930Y-76395231D01*
X98610138Y-76438586D01*
X98602713Y-76441312D01*
X98530666Y-76465186D01*
X98530663Y-76465187D01*
X98381342Y-76557289D01*
X98257289Y-76681342D01*
X98165185Y-76830667D01*
X98153226Y-76866755D01*
X98123202Y-76915428D01*
X98001063Y-77037567D01*
X97939740Y-77071052D01*
X97870048Y-77066068D01*
X97814115Y-77024196D01*
X97795676Y-76988890D01*
X97771333Y-76915428D01*
X97759814Y-76880666D01*
X97667712Y-76731344D01*
X97543656Y-76607288D01*
X97540819Y-76605538D01*
X97539283Y-76603830D01*
X97537989Y-76602807D01*
X97538163Y-76602585D01*
X97494096Y-76553594D01*
X97482872Y-76484632D01*
X97510713Y-76420549D01*
X97540817Y-76394462D01*
X97543656Y-76392712D01*
X97667712Y-76268656D01*
X97759814Y-76119334D01*
X97759817Y-76119323D01*
X97761726Y-76115232D01*
X97807894Y-76062789D01*
X97875086Y-76043632D01*
X97941969Y-76063843D01*
G37*
%TD.AperFunction*%
%TA.AperFunction,NonConductor*%
G36*
X98036283Y-79927596D02*
G01*
X98092216Y-79969468D01*
X98110655Y-80004773D01*
X98141960Y-80099244D01*
X98165186Y-80169334D01*
X98257288Y-80318656D01*
X98257290Y-80318658D01*
X98261766Y-80324319D01*
X98260373Y-80325420D01*
X98289433Y-80378639D01*
X98284449Y-80448331D01*
X98273806Y-80470093D01*
X98190190Y-80605659D01*
X98190185Y-80605668D01*
X98163030Y-80687618D01*
X98135001Y-80772203D01*
X98135001Y-80772204D01*
X98135000Y-80772204D01*
X98124500Y-80874983D01*
X98124500Y-81650001D01*
X98124501Y-81650019D01*
X98135000Y-81752796D01*
X98135001Y-81752799D01*
X98190185Y-81919331D01*
X98190187Y-81919336D01*
X98197177Y-81930668D01*
X98276834Y-82059814D01*
X98282289Y-82068657D01*
X98406346Y-82192714D01*
X98409182Y-82194463D01*
X98410717Y-82196170D01*
X98412011Y-82197193D01*
X98411836Y-82197414D01*
X98455905Y-82246411D01*
X98467126Y-82315374D01*
X98439282Y-82379456D01*
X98409182Y-82405537D01*
X98406346Y-82407285D01*
X98282288Y-82531343D01*
X98277807Y-82537011D01*
X98275984Y-82535569D01*
X98232335Y-82574825D01*
X98178752Y-82587000D01*
X98104381Y-82587000D01*
X98056266Y-82576018D01*
X98056094Y-82576510D01*
X98051729Y-82574982D01*
X98050578Y-82574720D01*
X98049524Y-82574212D01*
X98049522Y-82574211D01*
X98049519Y-82574210D01*
X98049513Y-82574207D01*
X97879262Y-82514633D01*
X97879249Y-82514630D01*
X97700004Y-82494435D01*
X97700003Y-82494435D01*
X97700001Y-82494435D01*
X97700000Y-82494435D01*
X97677134Y-82497011D01*
X97654653Y-82499544D01*
X97585831Y-82487488D01*
X97534452Y-82440138D01*
X97516829Y-82372527D01*
X97521695Y-82341728D01*
X97547597Y-82252573D01*
X97547598Y-82252567D01*
X97547752Y-82250610D01*
X97550500Y-82215694D01*
X97550500Y-81784306D01*
X97547598Y-81747431D01*
X97534568Y-81702583D01*
X97501745Y-81589606D01*
X97501744Y-81589603D01*
X97501744Y-81589602D01*
X97418081Y-81448135D01*
X97418079Y-81448133D01*
X97418076Y-81448129D01*
X97357628Y-81387681D01*
X97324143Y-81326358D01*
X97329127Y-81256666D01*
X97357628Y-81212319D01*
X97418076Y-81151870D01*
X97418081Y-81151865D01*
X97501744Y-81010398D01*
X97541082Y-80874998D01*
X97547597Y-80852573D01*
X97547598Y-80852567D01*
X97550500Y-80815694D01*
X97550500Y-80384306D01*
X97549627Y-80373217D01*
X97563987Y-80304841D01*
X97585557Y-80275809D01*
X97905270Y-79956095D01*
X97966591Y-79922612D01*
X98036283Y-79927596D01*
G37*
%TD.AperFunction*%
%TA.AperFunction,NonConductor*%
G36*
X74318834Y-77842867D02*
G01*
X74374767Y-77884739D01*
X74399184Y-77950203D01*
X74399500Y-77959049D01*
X74399500Y-78560951D01*
X74379815Y-78627990D01*
X74327011Y-78673745D01*
X74257853Y-78683689D01*
X74194297Y-78654664D01*
X74187819Y-78648632D01*
X74069141Y-78529954D01*
X73882734Y-78399432D01*
X73882728Y-78399429D01*
X73824725Y-78372382D01*
X73772285Y-78326210D01*
X73753133Y-78259017D01*
X73773348Y-78192135D01*
X73824725Y-78147618D01*
X73882734Y-78120568D01*
X74069139Y-77990047D01*
X74115841Y-77943345D01*
X74187819Y-77871368D01*
X74249142Y-77837883D01*
X74318834Y-77842867D01*
G37*
%TD.AperFunction*%
%TA.AperFunction,NonConductor*%
G36*
X74318834Y-80382867D02*
G01*
X74374767Y-80424739D01*
X74399184Y-80490203D01*
X74399500Y-80499049D01*
X74399500Y-81100951D01*
X74379815Y-81167990D01*
X74327011Y-81213745D01*
X74257853Y-81223689D01*
X74194297Y-81194664D01*
X74187819Y-81188632D01*
X74069140Y-81069953D01*
X73882734Y-80939432D01*
X73882728Y-80939429D01*
X73824725Y-80912382D01*
X73772285Y-80866210D01*
X73753133Y-80799017D01*
X73773348Y-80732135D01*
X73824725Y-80687618D01*
X73882734Y-80660568D01*
X74069139Y-80530047D01*
X74108983Y-80490203D01*
X74187819Y-80411368D01*
X74249142Y-80377883D01*
X74318834Y-80382867D01*
G37*
%TD.AperFunction*%
%TA.AperFunction,NonConductor*%
G36*
X74318834Y-82922867D02*
G01*
X74374767Y-82964739D01*
X74399184Y-83030203D01*
X74399500Y-83039049D01*
X74399500Y-83640951D01*
X74379815Y-83707990D01*
X74327011Y-83753745D01*
X74257853Y-83763689D01*
X74194297Y-83734664D01*
X74187819Y-83728632D01*
X74069141Y-83609954D01*
X73882734Y-83479432D01*
X73882728Y-83479429D01*
X73824725Y-83452382D01*
X73772285Y-83406210D01*
X73753133Y-83339017D01*
X73773348Y-83272135D01*
X73824725Y-83227618D01*
X73882734Y-83200568D01*
X74069139Y-83070047D01*
X74108983Y-83030203D01*
X74187819Y-82951368D01*
X74249142Y-82917883D01*
X74318834Y-82922867D01*
G37*
%TD.AperFunction*%
%TA.AperFunction,NonConductor*%
G36*
X74318834Y-85462867D02*
G01*
X74374767Y-85504739D01*
X74399184Y-85570203D01*
X74399500Y-85579049D01*
X74399500Y-86180951D01*
X74379815Y-86247990D01*
X74327011Y-86293745D01*
X74257853Y-86303689D01*
X74194297Y-86274664D01*
X74187819Y-86268632D01*
X74069141Y-86149954D01*
X73882734Y-86019432D01*
X73882728Y-86019429D01*
X73824725Y-85992382D01*
X73772285Y-85946210D01*
X73753133Y-85879017D01*
X73773348Y-85812135D01*
X73824725Y-85767618D01*
X73882734Y-85740568D01*
X74069139Y-85610047D01*
X74108983Y-85570203D01*
X74187819Y-85491368D01*
X74249142Y-85457883D01*
X74318834Y-85462867D01*
G37*
%TD.AperFunction*%
%TA.AperFunction,NonConductor*%
G36*
X71853582Y-82070297D02*
G01*
X71909515Y-82112169D01*
X71933776Y-82175672D01*
X71939129Y-82236860D01*
X71925362Y-82305360D01*
X71903282Y-82335348D01*
X67962181Y-86276450D01*
X67900858Y-86309935D01*
X67831166Y-86304951D01*
X67775233Y-86263079D01*
X67750816Y-86197615D01*
X67750500Y-86188769D01*
X67750500Y-86122228D01*
X67770185Y-86055189D01*
X67786814Y-86034552D01*
X71722569Y-82098796D01*
X71783890Y-82065313D01*
X71853582Y-82070297D01*
G37*
%TD.AperFunction*%
%TA.AperFunction,NonConductor*%
G36*
X74318834Y-88002867D02*
G01*
X74374767Y-88044739D01*
X74399184Y-88110203D01*
X74399500Y-88119049D01*
X74399500Y-88720951D01*
X74379815Y-88787990D01*
X74327011Y-88833745D01*
X74257853Y-88843689D01*
X74194297Y-88814664D01*
X74187819Y-88808632D01*
X74069141Y-88689954D01*
X73882734Y-88559432D01*
X73882728Y-88559429D01*
X73824725Y-88532382D01*
X73772285Y-88486210D01*
X73753133Y-88419017D01*
X73773348Y-88352135D01*
X73824725Y-88307618D01*
X73882734Y-88280568D01*
X74069139Y-88150047D01*
X74108983Y-88110203D01*
X74187819Y-88031368D01*
X74249142Y-87997883D01*
X74318834Y-88002867D01*
G37*
%TD.AperFunction*%
%TA.AperFunction,NonConductor*%
G36*
X72483863Y-85680017D02*
G01*
X72511643Y-85694619D01*
X72577266Y-85740568D01*
X72635275Y-85767618D01*
X72687714Y-85813791D01*
X72706866Y-85880984D01*
X72686650Y-85947865D01*
X72635275Y-85992382D01*
X72577267Y-86019431D01*
X72577265Y-86019432D01*
X72390858Y-86149954D01*
X72229954Y-86310858D01*
X72099432Y-86497265D01*
X72099431Y-86497267D01*
X72003261Y-86703502D01*
X72003258Y-86703511D01*
X71944366Y-86923302D01*
X71944364Y-86923313D01*
X71924532Y-87149998D01*
X71924532Y-87150003D01*
X71939129Y-87316861D01*
X71925362Y-87385360D01*
X71903282Y-87415348D01*
X69962181Y-89356450D01*
X69900858Y-89389935D01*
X69831166Y-89384951D01*
X69775233Y-89343079D01*
X69750816Y-89277615D01*
X69750500Y-89268769D01*
X69750500Y-88362229D01*
X69770185Y-88295190D01*
X69786814Y-88274553D01*
X72352850Y-85708516D01*
X72414171Y-85675033D01*
X72483863Y-85680017D01*
G37*
%TD.AperFunction*%
%TA.AperFunction,NonConductor*%
G36*
X71853581Y-89690298D02*
G01*
X71909515Y-89732170D01*
X71933776Y-89795673D01*
X71939129Y-89856860D01*
X71925362Y-89925360D01*
X71903282Y-89955348D01*
X70962181Y-90896450D01*
X70900858Y-90929935D01*
X70831167Y-90924951D01*
X70775233Y-90883079D01*
X70750816Y-90817615D01*
X70750500Y-90808769D01*
X70750500Y-90742229D01*
X70770185Y-90675190D01*
X70786814Y-90654552D01*
X71722569Y-89718797D01*
X71783890Y-89685314D01*
X71853581Y-89690298D01*
G37*
%TD.AperFunction*%
%TA.AperFunction,NonConductor*%
G36*
X74318834Y-90542867D02*
G01*
X74374767Y-90584739D01*
X74399184Y-90650203D01*
X74399500Y-90659049D01*
X74399500Y-91260951D01*
X74379815Y-91327990D01*
X74327011Y-91373745D01*
X74257853Y-91383689D01*
X74194297Y-91354664D01*
X74187819Y-91348632D01*
X74069141Y-91229954D01*
X73882734Y-91099432D01*
X73882728Y-91099429D01*
X73824725Y-91072382D01*
X73772285Y-91026210D01*
X73753133Y-90959017D01*
X73773348Y-90892135D01*
X73824725Y-90847618D01*
X73882734Y-90820568D01*
X74069139Y-90690047D01*
X74108983Y-90650203D01*
X74187819Y-90571368D01*
X74249142Y-90537883D01*
X74318834Y-90542867D01*
G37*
%TD.AperFunction*%
%TA.AperFunction,NonConductor*%
G36*
X74318834Y-93082867D02*
G01*
X74374767Y-93124739D01*
X74399184Y-93190203D01*
X74399500Y-93199049D01*
X74399500Y-93800951D01*
X74379815Y-93867990D01*
X74327011Y-93913745D01*
X74257853Y-93923689D01*
X74194297Y-93894664D01*
X74187819Y-93888632D01*
X74069141Y-93769954D01*
X73882734Y-93639432D01*
X73882728Y-93639429D01*
X73824725Y-93612382D01*
X73772285Y-93566210D01*
X73753133Y-93499017D01*
X73773348Y-93432135D01*
X73824725Y-93387618D01*
X73882734Y-93360568D01*
X74069139Y-93230047D01*
X74108983Y-93190203D01*
X74187819Y-93111368D01*
X74249142Y-93077883D01*
X74318834Y-93082867D01*
G37*
%TD.AperFunction*%
%TA.AperFunction,NonConductor*%
G36*
X71955703Y-92581340D02*
G01*
X71993477Y-92640118D01*
X71994275Y-92642960D01*
X72003258Y-92676488D01*
X72003261Y-92676497D01*
X72099431Y-92882732D01*
X72099432Y-92882734D01*
X72229954Y-93069141D01*
X72390858Y-93230045D01*
X72390861Y-93230047D01*
X72577266Y-93360568D01*
X72635275Y-93387618D01*
X72687714Y-93433791D01*
X72706866Y-93500984D01*
X72686650Y-93567865D01*
X72635275Y-93612382D01*
X72577267Y-93639431D01*
X72577265Y-93639432D01*
X72390858Y-93769954D01*
X72229954Y-93930858D01*
X72099432Y-94117265D01*
X72099431Y-94117267D01*
X72003261Y-94323502D01*
X72003258Y-94323511D01*
X71994275Y-94357039D01*
X71957910Y-94416700D01*
X71895063Y-94447229D01*
X71825688Y-94438934D01*
X71771810Y-94394449D01*
X71750535Y-94327897D01*
X71750500Y-94324946D01*
X71750500Y-92675053D01*
X71770185Y-92608014D01*
X71822989Y-92562259D01*
X71892147Y-92552315D01*
X71955703Y-92581340D01*
G37*
%TD.AperFunction*%
%TA.AperFunction,NonConductor*%
G36*
X71955703Y-95121340D02*
G01*
X71993477Y-95180118D01*
X71994275Y-95182960D01*
X72003258Y-95216488D01*
X72003261Y-95216497D01*
X72099431Y-95422732D01*
X72099432Y-95422734D01*
X72229954Y-95609141D01*
X72390858Y-95770045D01*
X72390861Y-95770047D01*
X72577266Y-95900568D01*
X72635275Y-95927618D01*
X72687714Y-95973791D01*
X72706866Y-96040984D01*
X72686650Y-96107865D01*
X72635275Y-96152382D01*
X72577267Y-96179431D01*
X72577265Y-96179432D01*
X72390858Y-96309954D01*
X72229954Y-96470858D01*
X72099432Y-96657265D01*
X72099431Y-96657267D01*
X72003261Y-96863502D01*
X72003258Y-96863511D01*
X71994275Y-96897039D01*
X71957910Y-96956700D01*
X71895063Y-96987229D01*
X71825688Y-96978934D01*
X71771810Y-96934449D01*
X71750535Y-96867897D01*
X71750500Y-96864946D01*
X71750500Y-95215053D01*
X71770185Y-95148014D01*
X71822989Y-95102259D01*
X71892147Y-95092315D01*
X71955703Y-95121340D01*
G37*
%TD.AperFunction*%
M02*
