%TF.GenerationSoftware,KiCad,Pcbnew,8.0.2*%
%TF.CreationDate,2024-10-05T18:09:16+02:00*%
%TF.ProjectId,CalkaBot_PCB,43616c6b-6142-46f7-945f-5043422e6b69,rev?*%
%TF.SameCoordinates,Original*%
%TF.FileFunction,Soldermask,Bot*%
%TF.FilePolarity,Negative*%
%FSLAX46Y46*%
G04 Gerber Fmt 4.6, Leading zero omitted, Abs format (unit mm)*
G04 Created by KiCad (PCBNEW 8.0.2) date 2024-10-05 18:09:16*
%MOMM*%
%LPD*%
G01*
G04 APERTURE LIST*
G04 Aperture macros list*
%AMRoundRect*
0 Rectangle with rounded corners*
0 $1 Rounding radius*
0 $2 $3 $4 $5 $6 $7 $8 $9 X,Y pos of 4 corners*
0 Add a 4 corners polygon primitive as box body*
4,1,4,$2,$3,$4,$5,$6,$7,$8,$9,$2,$3,0*
0 Add four circle primitives for the rounded corners*
1,1,$1+$1,$2,$3*
1,1,$1+$1,$4,$5*
1,1,$1+$1,$6,$7*
1,1,$1+$1,$8,$9*
0 Add four rect primitives between the rounded corners*
20,1,$1+$1,$2,$3,$4,$5,0*
20,1,$1+$1,$4,$5,$6,$7,0*
20,1,$1+$1,$6,$7,$8,$9,0*
20,1,$1+$1,$8,$9,$2,$3,0*%
G04 Aperture macros list end*
%ADD10R,1.600000X1.600000*%
%ADD11O,1.600000X1.600000*%
%ADD12C,1.524000*%
%ADD13R,1.700000X1.700000*%
%ADD14O,1.700000X1.700000*%
%ADD15RoundRect,0.250000X-0.625000X0.350000X-0.625000X-0.350000X0.625000X-0.350000X0.625000X0.350000X0*%
%ADD16O,1.750000X1.200000*%
%ADD17RoundRect,0.250000X0.350000X0.625000X-0.350000X0.625000X-0.350000X-0.625000X0.350000X-0.625000X0*%
%ADD18O,1.200000X1.750000*%
%ADD19RoundRect,0.250000X-0.337500X-0.475000X0.337500X-0.475000X0.337500X0.475000X-0.337500X0.475000X0*%
%ADD20R,1.219200X0.558800*%
%ADD21RoundRect,0.250000X-0.350000X-0.450000X0.350000X-0.450000X0.350000X0.450000X-0.350000X0.450000X0*%
%ADD22RoundRect,0.250000X0.337500X0.475000X-0.337500X0.475000X-0.337500X-0.475000X0.337500X-0.475000X0*%
%ADD23RoundRect,0.250000X0.650000X-1.500000X0.650000X1.500000X-0.650000X1.500000X-0.650000X-1.500000X0*%
G04 APERTURE END LIST*
D10*
%TO.C,A1*%
X57990000Y-61750000D03*
D11*
X57990000Y-64290000D03*
X57990000Y-66830000D03*
X57990000Y-69370000D03*
X57990000Y-71910000D03*
X57990000Y-74450000D03*
X57990000Y-76990000D03*
X57990000Y-79530000D03*
X57990000Y-82070000D03*
X57990000Y-84610000D03*
X57990000Y-87150000D03*
X57990000Y-89690000D03*
X57990000Y-92230000D03*
X57990000Y-94770000D03*
X57990000Y-97310000D03*
X73230000Y-97310000D03*
X73230000Y-94770000D03*
X73230000Y-92230000D03*
X73230000Y-89690000D03*
X73230000Y-87150000D03*
X73230000Y-84610000D03*
X73230000Y-82070000D03*
X73230000Y-79530000D03*
X73230000Y-76990000D03*
X73230000Y-74450000D03*
X73230000Y-71910000D03*
X73230000Y-69370000D03*
X73230000Y-66830000D03*
X73230000Y-64290000D03*
X73230000Y-61750000D03*
%TD*%
D12*
%TO.C,M1*%
X92500000Y-59000000D03*
X85500000Y-59000000D03*
%TD*%
D10*
%TO.C,SW1*%
X59760000Y-114520000D03*
D11*
X62300000Y-114520000D03*
X64840000Y-114520000D03*
X67380000Y-114520000D03*
X67380000Y-106900000D03*
X64840000Y-106900000D03*
X62300000Y-106900000D03*
X59760000Y-106900000D03*
%TD*%
D13*
%TO.C,J4*%
X58762500Y-37187500D03*
D14*
X61302500Y-37187500D03*
%TD*%
D13*
%TO.C,J6*%
X66240000Y-55700000D03*
D14*
X63700000Y-55700000D03*
X61160000Y-55700000D03*
%TD*%
D15*
%TO.C,J3*%
X67950000Y-22400000D03*
D16*
X67950000Y-24400000D03*
X67950000Y-26400000D03*
%TD*%
D17*
%TO.C,J1*%
X69400000Y-32800000D03*
D18*
X67400000Y-32800000D03*
X65400000Y-32800000D03*
%TD*%
D12*
%TO.C,M2*%
X85500000Y-76956000D03*
X92500000Y-76956000D03*
%TD*%
D13*
%TO.C,J5*%
X69337500Y-37712500D03*
D14*
X66797500Y-37712500D03*
%TD*%
D15*
%TO.C,J2*%
X60850000Y-22400000D03*
D16*
X60850000Y-24400000D03*
X60850000Y-26400000D03*
%TD*%
D19*
%TO.C,C11*%
X88162500Y-57200000D03*
X90237500Y-57200000D03*
%TD*%
D20*
%TO.C,Q2*%
X27647900Y-113201700D03*
X27647900Y-111398300D03*
X23152100Y-111398300D03*
X23152100Y-113201700D03*
%TD*%
D21*
%TO.C,R5*%
X30900000Y-113800000D03*
X32900000Y-113800000D03*
%TD*%
%TO.C,R4*%
X32300000Y-27300000D03*
X34300000Y-27300000D03*
%TD*%
%TO.C,R1*%
X32800000Y-23900000D03*
X34800000Y-23900000D03*
%TD*%
D22*
%TO.C,C12*%
X90137500Y-79000000D03*
X88062500Y-79000000D03*
%TD*%
D23*
%TO.C,D3*%
X72462500Y-43712500D03*
X72462500Y-38712500D03*
%TD*%
D21*
%TO.C,R3*%
X30900000Y-110300000D03*
X32900000Y-110300000D03*
%TD*%
D20*
%TO.C,Q1*%
X28847900Y-24501700D03*
X28847900Y-22698300D03*
X24352100Y-22698300D03*
X24352100Y-24501700D03*
%TD*%
M02*
