M48
; DRILL file {KiCad 8.0.2} date 2024-10-05T18:11:07+0200
; FORMAT={-:-/ absolute / inch / decimal}
; #@! TF.CreationDate,2024-10-05T18:11:07+02:00
; #@! TF.GenerationSoftware,Kicad,Pcbnew,8.0.2
; #@! TF.FileFunction,Plated,1,2,PTH
FMAT,2
INCH
; #@! TA.AperFunction,Plated,PTH,ViaDrill
T1C0.0118
; #@! TA.AperFunction,Plated,PTH,ComponentDrill
T2C0.0130
; #@! TA.AperFunction,Plated,PTH,ViaDrill
T3C0.0197
; #@! TA.AperFunction,Plated,PTH,ComponentDrill
T4C0.0295
; #@! TA.AperFunction,Plated,PTH,ComponentDrill
T5C0.0300
; #@! TA.AperFunction,Plated,PTH,ComponentDrill
T6C0.0315
; #@! TA.AperFunction,Plated,PTH,ComponentDrill
T7C0.0394
%
G90
G05
T1
X1.7717Y-3.8583
X1.7717Y-3.9173
X1.7717Y-3.9764
X1.7717Y-4.0354
X2.0276Y-4.1929
X2.2859Y-1.8819
X2.6772Y-2.0079
X3.0591Y-3.3898
X3.248Y-2.7559
X3.2992Y-2.8346
X3.563Y-2.9331
X3.5827Y-2.4213
X3.622Y-2.4213
X3.622Y-2.9134
X3.6732Y-2.4016
X3.7067Y-2.9114
X3.7244Y-2.4134
X3.7717Y-3.1181
X3.7835Y-2.315
X3.8465Y-3.2795
X3.876Y-2.9606
T2
X3.5793Y-2.6378
X3.5793Y-2.6638
X3.5793Y-2.6898
X3.5988Y-2.6378
X3.5988Y-2.6638
X3.5988Y-2.6898
X3.6183Y-2.6378
X3.6183Y-2.6638
X3.6183Y-2.6898
X3.6378Y-2.6378
X3.6378Y-2.6638
X3.6378Y-2.6898
X3.6573Y-2.6378
X3.6573Y-2.6638
X3.6573Y-2.6898
X3.6768Y-2.6378
X3.6768Y-2.6638
X3.6768Y-2.6898
X3.6963Y-2.6378
X3.6963Y-2.6638
X3.6963Y-2.6898
X3.7157Y-2.6378
X3.7157Y-2.6638
X3.7157Y-2.6898
T3
X2.7677Y-1.811
X2.9616Y-2.2707
T4
X2.3957Y-0.8819
X2.3957Y-0.9606
X2.3957Y-1.0394
X2.5748Y-1.2913
X2.6535Y-1.2913
X2.6752Y-0.8819
X2.6752Y-0.9606
X2.6752Y-1.0394
X2.7323Y-1.2913
T5
X3.3661Y-2.3228
X3.3661Y-3.0298
X3.6417Y-2.3228
X3.6417Y-3.0298
T6
X2.3528Y-4.2087
X2.3528Y-4.5087
X2.4528Y-4.2087
X2.4528Y-4.5087
X2.5528Y-4.2087
X2.5528Y-4.5087
X2.6528Y-4.2087
X2.6528Y-4.5087
T7
X2.2831Y-2.4311
X2.2831Y-2.5311
X2.2831Y-2.6311
X2.2831Y-2.7311
X2.2831Y-2.8311
X2.2831Y-2.9311
X2.2831Y-3.0311
X2.2831Y-3.1311
X2.2831Y-3.2311
X2.2831Y-3.3311
X2.2831Y-3.4311
X2.2831Y-3.5311
X2.2831Y-3.6311
X2.2831Y-3.7311
X2.2831Y-3.8311
X2.3135Y-1.4641
X2.4079Y-2.1929
X2.4135Y-1.4641
X2.5079Y-2.1929
X2.6079Y-2.1929
X2.6298Y-1.4847
X2.7298Y-1.4847
X2.8831Y-2.4311
X2.8831Y-2.5311
X2.8831Y-2.6311
X2.8831Y-2.7311
X2.8831Y-2.8311
X2.8831Y-2.9311
X2.8831Y-3.0311
X2.8831Y-3.1311
X2.8831Y-3.2311
X2.8831Y-3.3311
X2.8831Y-3.4311
X2.8831Y-3.5311
X2.8831Y-3.6311
X2.8831Y-3.7311
X2.8831Y-3.8311
M30
